<svg width="30" height="28" viewBox="0 0 30 28" fill="none" xmlns="http://www.w3.org/2000/svg">
<path d="M19.4507 21.1381C19.6578 21.5006 19.8264 21.7981 19.9972 22.0943C20.7828 23.456 20.3693 24.8219 18.9547 25.5027C17.5792 26.1649 16.1961 26.8115 14.822 27.4766C14.5269 27.6195 14.251 27.6361 13.9403 27.5407C12.5888 27.1253 11.4115 26.4004 10.3226 25.5207C8.16479 23.7775 6.44266 21.6482 4.92424 19.3481C2.95201 16.3606 1.40141 13.1751 0.511514 9.69171C0.166059 8.33949 -0.0600971 6.96622 0.014113 5.56694C0.0478168 4.93153 0.169549 4.29764 0.296375 3.67219C0.334839 3.48251 0.488032 3.27235 0.649843 3.15831C1.95605 2.23773 3.27233 1.3312 4.59456 0.433667C5.76365 -0.359922 7.19572 -0.037106 7.91579 1.17927C8.46816 2.11234 9.0078 3.05309 9.54006 3.99776C9.65437 4.20064 9.77939 4.27944 10.02 4.27913C15.9867 4.27142 21.9534 4.27248 27.9201 4.27373C28.9292 4.27394 29.6711 4.87635 29.8533 5.84124C29.8787 5.97557 29.8773 6.11618 29.8773 6.25389C29.8785 10.5499 29.8785 14.8458 29.8781 19.1418C29.878 20.3571 29.1007 21.1358 27.8763 21.1372C25.219 21.1402 22.5616 21.1381 19.9043 21.1381H19.4507ZM12.7182 18.6673C13.4274 18.2816 14.1065 17.9007 14.7961 17.5398C15.917 16.9531 17.1989 17.3157 17.8578 18.3983C18.0781 18.7604 18.2927 19.1264 18.4942 19.4992C18.5803 19.6584 18.6829 19.7171 18.8653 19.7168C21.8586 19.7114 24.852 19.7136 27.8454 19.7123C28.3194 19.7121 28.4563 19.5696 28.4563 19.0902C28.4566 14.952 28.4566 10.8139 28.456 6.67568C28.456 6.5823 28.4481 6.48892 28.4424 6.36187C28.3295 6.43395 28.2471 6.48337 28.168 6.53758C24.9288 8.7565 21.6899 10.976 18.4507 13.1949C18.0226 13.4882 17.7908 13.4899 17.3718 13.2027C15.8583 12.1656 14.3459 11.1269 12.8324 10.0898C11.7598 9.35481 10.686 8.62149 9.62626 7.89669C8.91555 8.33048 8.22956 8.75734 7.53405 9.16806C7.35628 9.27305 7.32611 9.37387 7.38445 9.56814C8.05108 11.788 9.12645 13.8088 10.3865 15.7383C11.0672 16.7809 11.8207 17.7683 12.7182 18.6673ZM1.38956 5.98417C1.43763 7.27766 1.66039 8.53568 1.99925 9.77593C2.7715 12.6023 4.02223 15.2162 5.55539 17.6993C7.04555 20.1129 8.76751 22.3402 10.9451 24.1839C11.8522 24.9519 12.8289 25.612 13.9489 26.0427C14.1796 26.1314 14.3656 26.1227 14.5886 26.0143C15.8286 25.4117 17.0768 24.8257 18.3215 24.2328C18.9898 23.9144 19.1369 23.4544 18.77 22.8161C18.0823 21.62 17.3926 20.4251 16.7008 19.2313C16.3688 18.6585 15.9376 18.5372 15.3569 18.8509C14.7327 19.1882 14.1105 19.5294 13.4881 19.8702C12.49 20.4168 12.4371 20.4165 11.6454 19.6083C10.3249 18.2603 9.25471 16.7235 8.31377 15.0964C7.25568 13.2667 6.34074 11.3725 5.84939 9.30045C5.72416 8.77231 5.81489 8.55436 6.28544 8.26668C7.01718 7.81932 7.75269 7.37812 8.48393 6.92995C9.02509 6.59828 9.14118 6.14815 8.8243 5.59637C8.12739 4.38285 7.42713 3.17126 6.72487 1.96083C6.38492 1.37489 5.8942 1.26631 5.33583 1.65023C4.16551 2.45492 2.99345 3.25721 1.83209 4.07465C1.70429 4.1646 1.58374 4.33735 1.55905 4.48795C1.47793 4.98266 1.44253 5.48485 1.38956 5.98417ZM26.8163 5.71702H10.3981C10.3981 5.95452 10.4262 6.17483 10.3904 6.38421C10.3529 6.60338 10.4183 6.71799 10.5984 6.84079C12.9537 8.44623 15.3048 10.0579 17.6506 11.6773C17.8468 11.8127 17.9758 11.8048 18.1674 11.6729C20.9775 9.7371 23.7933 7.80955 26.6073 5.87942C26.6693 5.83691 26.7264 5.78722 26.8163 5.71702Z" fill="white"/>
</svg>
