<svg width="28" height="25" viewBox="0 0 28 25" fill="none" xmlns="http://www.w3.org/2000/svg">
<path d="M6.73392 4.29584C6.73392 3.71202 6.73298 3.16584 6.7341 2.61967C6.73716 1.13097 7.83843 0.00969512 9.32835 0.00573693C12.2988 -0.00215786 15.2693 -0.00156467 18.2398 0.00543495C19.7321 0.00895093 20.8372 1.12678 20.8409 2.61254C20.8422 3.15948 20.8411 3.70642 20.8411 4.29582H21.138C22.4303 4.29582 23.7235 4.32652 25.0146 4.28769C26.4748 4.24379 27.6215 5.42105 27.5792 6.8605C27.5443 8.04394 27.5633 9.22931 27.5749 10.4137C27.5838 11.3375 27.2703 12.1337 26.6642 12.8159C26.5324 12.9642 26.4921 13.1077 26.4923 13.2953C26.4964 16.1218 26.4955 18.9484 26.495 21.7749C26.4947 23.2821 25.4536 24.3248 23.9412 24.3251C17.1746 24.3266 10.408 24.3264 3.64137 24.3253C2.11565 24.325 1.08015 23.2832 1.07999 21.7549C1.07969 18.9284 1.07828 16.1018 1.08366 13.2753C1.084 13.093 1.03658 12.9609 0.914071 12.8224C0.309763 12.1391 -0.00849874 11.3455 0.00017259 10.4212C0.0115402 9.20991 0.00169331 7.99845 0.00332188 6.78706C0.00525244 5.35378 1.03558 4.30858 2.47223 4.29808C3.78241 4.2885 5.0927 4.29591 6.40296 4.29584C6.50037 4.29584 6.59778 4.29584 6.73392 4.29584ZM16.5871 14.5745C17.0647 14.5235 17.5089 14.4766 17.9529 14.4286C19.4068 14.2715 20.8388 14.0012 22.232 13.5534C23.2761 13.2178 24.2865 12.8045 25.1303 12.0744C25.6709 11.6066 25.9815 11.0408 25.9644 10.2932C25.9379 9.13639 25.9583 7.97856 25.9571 6.82118C25.9565 6.23746 25.6434 5.91317 25.0695 5.91308C17.5501 5.91183 10.0307 5.91185 2.51124 5.913C1.9337 5.91308 1.61859 6.2347 1.61795 6.81508C1.61668 7.95452 1.64267 9.09471 1.60894 10.2332C1.58555 11.0229 1.9043 11.6147 2.48234 12.1046C3.19781 12.7109 4.03629 13.0894 4.908 13.4015C6.39848 13.9352 7.94418 14.2263 9.51003 14.4205C9.99416 14.4806 10.4812 14.517 10.9879 14.5662C10.9879 14.3061 10.9857 14.0829 10.9883 13.8598C10.9941 13.3628 11.3159 13.0232 11.807 13.021C13.126 13.0152 14.4451 13.0152 15.7641 13.0209C16.2581 13.023 16.5801 13.3592 16.5866 13.8555C16.5896 14.0863 16.5871 14.3171 16.5871 14.5745ZM24.8805 14.2003C23.0537 15.1376 21.1374 15.5991 19.1736 15.8888C18.4033 16.0024 17.626 16.0681 16.8525 16.1608C16.7034 16.1787 16.5485 16.1563 16.4816 16.3784C16.1325 17.5369 15.3365 18.1784 14.1426 18.3347C12.762 18.5155 11.4757 17.7225 11.107 16.442C11.0476 16.2353 10.9491 16.1781 10.7617 16.1579C9.95137 16.071 9.13992 15.99 8.33268 15.8791C6.6056 15.6419 4.92601 15.2249 3.33361 14.4967C3.12823 14.4028 2.9223 14.31 2.69453 14.2067C2.69453 14.3263 2.69453 14.4068 2.69453 14.4873C2.69453 16.9099 2.69428 19.3325 2.69469 21.7551C2.6948 22.392 3.01361 22.7091 3.65683 22.7092C10.414 22.7096 17.1711 22.7096 23.9283 22.709C24.5654 22.709 24.8802 22.3884 24.8803 21.7447C24.8807 19.3311 24.8805 16.9175 24.8805 14.5038V14.2003ZM8.35064 4.27499H19.2265C19.2265 3.74338 19.2268 3.23257 19.2264 2.72176C19.226 1.97641 18.8692 1.61986 18.1212 1.61975C15.232 1.61935 12.3429 1.61956 9.45373 1.61967C9.38196 1.61967 9.30979 1.61634 9.2385 1.62256C8.75509 1.6648 8.37046 2.01817 8.35534 2.47916C8.33597 3.07013 8.35064 3.6622 8.35064 4.27499ZM12.6026 14.6459C12.6026 14.9988 12.5989 15.3284 12.6034 15.6579C12.6115 16.2514 13.0247 16.6847 13.6211 16.7312C14.338 16.7871 14.8679 16.4617 14.9489 15.8541C15.0012 15.4616 14.9588 15.0565 14.9588 14.6459H12.6026Z" fill="white"/>
</svg>
