<svg width="29" height="24" viewBox="0 0 29 24" fill="none" xmlns="http://www.w3.org/2000/svg">
<path d="M9.41882 12.1418C10.709 11.0698 12.1666 10.5495 13.8166 10.606C14.6411 10.6343 15.475 10.6349 16.2853 10.7668C17.3048 10.9327 17.8684 11.2699 19.0711 12.1376C19.8407 11.4218 20.731 10.9332 21.7716 10.713C24.6651 10.1003 27.5734 12.0136 28.1469 14.9233C28.2565 15.4799 28.3512 16.0394 28.452 16.5978C28.5291 17.0256 28.4219 17.3907 28.1028 17.698C27.4162 18.3591 26.5658 18.6955 25.6633 18.9081C24.4684 19.1895 23.2531 19.2651 22.028 19.1843C21.9061 19.1763 21.7833 19.1832 21.6297 19.1832C21.6967 19.6813 21.7527 20.1691 21.8302 20.6535C21.9061 21.1284 21.7253 21.4809 21.3482 21.7472C20.5645 22.3006 19.667 22.5741 18.7435 22.7658C16.5282 23.2256 14.2906 23.2603 12.0434 23.09C10.6888 22.9874 9.35431 22.7841 8.09064 22.262C7.74068 22.1174 7.40604 21.9219 7.09107 21.7101C6.71872 21.4598 6.56433 21.098 6.64482 20.6357C6.72761 20.1602 6.77888 19.6792 6.8483 19.1687C6.65495 19.179 6.4823 19.1911 6.30943 19.197C4.84434 19.2473 3.39511 19.1596 1.99879 18.6637C1.39024 18.4476 0.827155 18.147 0.364214 17.684C0.118968 17.4387 -0.0517564 17.1512 0.0142944 16.7968C0.17661 15.9259 0.26224 15.0246 0.552714 14.1965C1.81244 10.6051 6.24512 9.44545 9.14696 11.9107C9.23336 11.9841 9.31973 12.0575 9.41882 12.1418ZM14.2013 21.2023C16.5143 21.3039 18.2097 20.9001 19.5275 20.4596C19.7375 20.3894 19.7887 20.2865 19.7572 20.0771C19.5684 18.823 19.4106 17.5639 19.2036 16.3128C18.9225 14.6143 17.9712 13.4304 16.3462 12.8401C15.2288 12.4342 14.0588 12.5336 12.9102 12.6554C11.1797 12.8389 9.64056 14.2923 9.33697 16.011C9.11825 17.2492 8.954 18.4974 8.78029 19.7432C8.68945 20.3946 8.70479 20.3937 9.36074 20.5941C10.9566 21.0818 12.5873 21.2862 14.2013 21.2023ZM21.345 17.1323C21.6618 17.1592 21.9594 17.187 22.2574 17.2094C23.5816 17.3091 24.8744 17.2014 26.1065 16.6519C26.3209 16.5562 26.4443 16.4712 26.3613 16.2037C26.2857 15.9598 26.2737 15.6968 26.2234 15.4443C25.9676 14.1594 25.2426 13.2414 24.0079 12.7983C22.7632 12.3517 21.6132 12.5904 20.5909 13.4408C20.4028 13.5973 20.3744 13.7144 20.482 13.955C20.7162 14.4783 20.9214 15.0207 21.0723 15.5733C21.207 16.0667 21.253 16.5842 21.345 17.1323ZM7.10415 17.1277C7.13824 17.081 7.14843 17.0734 7.14958 17.0646C7.2974 15.9366 7.46218 14.8146 8.04748 13.8045C8.08196 13.745 8.00808 13.5764 7.9369 13.5088C6.14291 11.8061 3.11417 12.5968 2.38393 14.9641C2.25401 15.3853 2.22215 15.8358 2.11138 16.264C2.05554 16.4799 2.13526 16.5475 2.30822 16.6276C3.85446 17.343 5.47298 17.3165 7.10415 17.1277Z" fill="white"/>
<path d="M14.2273 9.93081C11.4266 9.91243 9.25366 7.69219 9.27258 4.86819C9.29045 2.20259 11.5824 -0.0242432 14.2829 0.000199324C17.0394 0.0251518 19.227 2.2812 19.2072 5.07851C19.1884 7.74727 16.9292 9.94853 14.2273 9.93081ZM14.2437 7.94141C15.8803 7.94406 17.215 6.62544 17.2207 5.00015C17.2266 3.34425 15.8934 1.99988 14.2347 1.98916C12.6123 1.97868 11.2572 3.33906 11.2584 4.97705C11.2596 6.62333 12.5842 7.93872 14.2437 7.94141Z" fill="white"/>
<path d="M5.61125 9.93078C3.57644 9.91508 1.98261 8.30387 1.99371 6.2738C2.00482 4.2415 3.63928 2.64281 5.69136 2.65708C7.68389 2.67092 9.28414 4.32953 9.27097 6.36723C9.2583 8.32638 7.59487 9.94609 5.61125 9.93078ZM5.63042 7.94013C6.54937 7.93962 7.29115 7.19859 7.2845 6.28769C7.27796 5.39107 6.53451 4.64599 5.64337 4.64298C4.72221 4.63986 3.98848 5.36894 3.98514 6.29072C3.98176 7.22232 4.6983 7.94066 5.63042 7.94013Z" fill="white"/>
<path d="M26.4869 6.32335C26.481 8.32402 24.8529 9.93849 22.8483 9.93139C20.8092 9.92416 19.2007 8.29893 19.2095 6.25467C19.2181 4.25867 20.8687 2.64989 22.9007 2.65701C24.883 2.66395 26.4927 4.30962 26.4869 6.32335ZM24.4975 6.28894C24.4918 5.36842 23.7484 4.63202 22.836 4.64307C21.9248 4.65409 21.1862 5.40972 21.1972 6.31958C21.2083 7.23405 21.9515 7.94888 22.8819 7.94005C23.7909 7.93143 24.5032 7.2035 24.4975 6.28894Z" fill="white"/>
</svg>
