<svg width="31" height="27" viewBox="0 0 31 27" fill="none" xmlns="http://www.w3.org/2000/svg">
<path d="M27.49 3.46362C28.1685 3.46362 28.8121 3.46251 29.4557 3.46389C30.4185 3.46596 30.9989 4.03688 30.999 4.98646C30.9998 11.1494 31.001 17.3124 30.9985 23.4754C30.9977 25.464 29.4577 26.9946 27.4375 26.9959C19.4759 27.0012 11.5142 27.0016 3.55254 26.9956C1.53682 26.9941 0.00175996 25.4582 0.00121437 23.4658C-0.000786136 16.1578 0.000171683 8.84983 0.000680902 1.54189C0.000741524 0.574124 0.578258 0.000919427 1.55927 0.000787868C9.68238 -0.000264607 17.8055 -0.000252647 25.9286 0.000763948C26.9136 0.000883548 27.4875 0.568479 27.4898 1.5365C27.4912 2.16306 27.49 2.78962 27.49 3.46362ZM1.3966 1.39479V1.71069C1.3966 8.92814 1.39577 16.1456 1.40028 23.363C1.40043 23.5991 1.42623 23.8429 1.48911 24.0699C1.76303 25.0588 2.57595 25.616 3.72448 25.6161C11.5742 25.617 19.4238 25.6173 27.2735 25.613C27.5228 25.6129 27.7804 25.5906 28.0199 25.5268C29.015 25.2618 29.6016 24.4689 29.602 23.3948C29.6045 17.3122 29.6033 11.2296 29.6027 5.14707C29.6027 5.05204 29.594 4.95699 29.5895 4.86515H27.4901V5.21062C27.4901 10.885 27.49 16.5594 27.4901 22.2339C27.4901 22.7308 27.5115 22.7579 28.0027 22.8755C28.2851 22.9431 28.4605 23.1182 28.5147 23.3964C28.5709 23.6852 28.5001 23.9747 28.2219 24.0819C27.9776 24.176 27.6683 24.2121 27.4145 24.1562C26.5814 23.9725 26.0943 23.2809 26.0942 22.3596C26.0933 15.5006 26.0937 8.6415 26.0937 1.78244V1.39479H1.3966Z" fill="white"/>
<path d="M8.4437 7.6189C9.553 7.6189 10.6623 7.61725 11.7716 7.61951C12.448 7.62089 12.7016 7.87038 12.7021 8.53529C12.7035 10.7144 12.7034 12.8935 12.7021 15.0725C12.7017 15.7338 12.4373 15.9977 11.7736 15.9981C9.55504 15.9996 7.33643 15.9998 5.11784 15.9979C4.46694 15.9974 4.20767 15.7405 4.20693 15.0904C4.20443 12.9013 4.20451 10.7123 4.20688 8.52324C4.20759 7.86088 4.44978 7.62146 5.11579 7.6197C6.22509 7.61679 7.3344 7.61893 8.4437 7.6189ZM11.2662 14.59V9.03433H5.6332V14.59H11.2662Z" fill="white"/>
<path d="M13.7444 4.16311C16.5894 4.16311 19.4344 4.16287 22.2794 4.16384C22.4204 4.16389 22.5629 4.16343 22.702 4.18244C23.0226 4.22622 23.2567 4.4936 23.2731 4.81872C23.2886 5.12712 23.092 5.41308 22.7917 5.49241C22.6574 5.5279 22.5143 5.54616 22.3751 5.54623C16.6246 5.54882 10.874 5.54872 5.12348 5.54804C4.51662 5.54797 4.194 5.27393 4.2269 4.79418C4.24909 4.47064 4.48675 4.21831 4.81675 4.17941C4.94642 4.16413 5.0784 4.16379 5.20933 4.16376C8.05434 4.16294 10.8994 4.16311 13.7444 4.16311Z" fill="white"/>
<path d="M19.0416 12.4693C17.9129 12.4693 16.7841 12.4744 15.6553 12.4673C15.0636 12.4636 14.7389 12.1251 14.8308 11.6302C14.8835 11.3469 15.0619 11.1734 15.342 11.1128C15.4782 11.0833 15.6215 11.0754 15.7617 11.0752C17.9486 11.073 20.1356 11.0713 22.3226 11.0778C22.5189 11.0784 22.7321 11.0998 22.9073 11.1775C23.1911 11.3034 23.3028 11.5557 23.2605 11.8657C23.2196 12.1647 23.0333 12.3673 22.7255 12.4267C22.5884 12.4531 22.4467 12.4673 22.307 12.4677C21.2185 12.4709 20.1301 12.4695 19.0416 12.4693Z" fill="white"/>
<path d="M19.0443 14.5294C20.163 14.5294 21.2817 14.5262 22.4004 14.5307C23.0175 14.5332 23.3504 14.8657 23.2526 15.3707C23.1981 15.6521 23.0218 15.8281 22.7397 15.8865C22.6031 15.9148 22.4601 15.9235 22.32 15.9236C20.133 15.9258 17.946 15.93 15.7591 15.9181C15.5291 15.9168 15.2752 15.8608 15.0762 15.7522C14.8266 15.616 14.7725 15.3475 14.8334 15.0721C14.8926 14.805 15.0627 14.6349 15.3307 14.5763C15.4764 14.5444 15.6292 14.5318 15.7789 14.5313C16.8674 14.5277 17.9558 14.5294 19.0443 14.5294Z" fill="white"/>
<path d="M19.0396 9.00991C17.911 9.00991 16.7823 9.01416 15.6537 9.00818C15.0666 9.00507 14.7382 8.66269 14.831 8.16863C14.8842 7.88533 15.0663 7.71304 15.3429 7.64965C15.4783 7.61862 15.623 7.61929 15.7636 7.61919C17.9503 7.61748 20.1371 7.61395 22.3238 7.62418C22.5451 7.62523 22.7881 7.67058 22.9816 7.76992C23.2495 7.90737 23.3138 8.17898 23.2497 8.46618C23.1905 8.73117 23.0243 8.9049 22.7521 8.961C22.6155 8.98914 22.4742 9.00747 22.3349 9.00794C21.2365 9.01167 20.1381 9.01 19.0396 9.00991Z" fill="white"/>
<path d="M19.0275 19.3798C17.8988 19.3798 16.7701 19.3849 15.6415 19.3777C15.0457 19.3739 14.731 19.0355 14.8322 18.5344C14.896 18.2181 15.1596 18.0189 15.5644 17.9904C15.7048 17.9806 15.8464 17.9881 15.9875 17.9881C18.1138 17.988 20.2401 17.9875 22.3664 17.9887C22.6638 17.9889 22.9501 18.0225 23.1417 18.2924C23.4436 18.7176 23.2033 19.2825 22.6839 19.3567C22.555 19.3751 22.4231 19.3789 22.2925 19.3791C21.2042 19.3808 20.1158 19.3801 19.0275 19.3798Z" fill="white"/>
<path d="M8.44758 19.3802C7.31893 19.3802 6.19027 19.3837 5.06164 19.3786C4.54973 19.3763 4.2575 19.1476 4.22806 18.7498C4.19479 18.3001 4.49865 18.0026 5.02614 17.9908C5.49952 17.9802 5.97335 17.9884 6.44698 17.9883C8.23064 17.9883 10.0143 17.9873 11.798 17.989C12.3037 17.9895 12.5891 18.1803 12.6621 18.555C12.7422 18.9658 12.4978 19.3272 12.0738 19.355C11.5721 19.388 11.0673 19.3773 10.5638 19.3796C9.85841 19.3827 9.15298 19.3804 8.44758 19.3802Z" fill="white"/>
<path d="M8.4361 22.8345C7.3076 22.8345 6.17908 22.8333 5.05058 22.8354C4.77811 22.8359 4.53276 22.7904 4.35617 22.5552C4.07223 22.1772 4.25109 21.6258 4.71086 21.5041C4.8543 21.4662 5.00813 21.4518 5.15726 21.4516C7.35382 21.4484 9.55039 21.4484 11.7469 21.4516C11.8961 21.4518 12.0493 21.4679 12.1933 21.5045C12.5094 21.5848 12.7104 21.8833 12.6809 22.1994C12.65 22.5308 12.4203 22.7765 12.0928 22.8178C11.9734 22.8329 11.8516 22.8339 11.731 22.8341C10.6327 22.8352 9.53438 22.8347 8.4361 22.8345Z" fill="white"/>
<path d="M19.0285 22.8348C17.8798 22.8348 16.7311 22.8413 15.5825 22.8321C15.0265 22.8277 14.7157 22.4532 14.8348 21.9661C14.914 21.6427 15.2068 21.4536 15.6539 21.4513C16.3895 21.4474 17.1251 21.4502 17.8606 21.4502C19.3519 21.4502 20.8432 21.4487 22.3344 21.4524C22.4836 21.4528 22.6367 21.4686 22.7809 21.5048C23.1001 21.5851 23.2944 21.8721 23.2694 22.1974C23.2442 22.5258 23.013 22.7888 22.6851 22.8157C22.3747 22.8412 22.0612 22.8341 21.7491 22.8348C20.8422 22.8368 19.9353 22.8355 19.0285 22.8348Z" fill="white"/>
</svg>
