<svg width="29" height="31" viewBox="0 0 29 31" fill="none" xmlns="http://www.w3.org/2000/svg">
<path d="M14.035 0.000517221C16.2482 0.000517221 18.4614 -7.53736e-05 20.6746 0.000759096C21.8202 0.00119447 22.6839 0.585698 23.083 1.65763C23.6953 3.30214 24.813 4.4238 26.4647 5.02619C27.4536 5.38686 28.0637 6.29668 28.0654 7.35664C28.0673 8.59445 28.0871 9.83273 28.0607 11.07C27.9513 16.2153 26.265 20.7826 22.9806 24.7466C20.8678 27.2965 18.2793 29.2278 15.2712 30.6089C14.4268 30.9967 13.6249 30.9955 12.7821 30.6018C7.24674 28.0157 3.41858 23.8535 1.28279 18.1388C0.562059 16.2104 0.132464 14.2062 0.05666 12.1453C-0.00359118 10.5072 0.00127052 8.86633 6.70344e-07 7.22665C-0.000761237 6.25185 0.648021 5.38234 1.63428 5.01739C2.90068 4.54877 3.88422 3.74879 4.5539 2.57725C4.73204 2.26562 4.86669 1.92691 4.99947 1.59196C5.38676 0.614905 6.26027 0.00251269 7.30479 0.00135169C9.54819 -0.00113963 11.7916 0.000589784 14.035 0.000517221ZM14.0294 1.81137C11.8366 1.81137 9.64377 1.81115 7.45096 1.81153C6.97386 1.81162 6.81013 1.92525 6.6407 2.37138C5.84954 4.45442 4.40808 5.88822 2.33328 6.68999C1.92521 6.84768 1.80571 7.01955 1.80533 7.4607C1.80439 8.57761 1.80348 9.69452 1.80573 10.8114C1.80871 12.2942 1.94881 13.767 2.30733 15.2037C3.90291 21.5979 7.6652 26.2193 13.6573 29.0025C13.9441 29.1357 14.1894 29.104 14.4606 28.9814C16.417 28.0975 18.2047 26.9547 19.7725 25.485C23.9485 21.57 26.0998 16.7402 26.2494 11.0214C26.2799 9.85494 26.2554 8.68706 26.2556 7.51984C26.2557 7.0037 26.1472 6.84361 25.6725 6.66008C23.615 5.86458 22.2038 4.42823 21.4196 2.36972C21.2506 1.92605 21.0857 1.81158 20.6078 1.81151C18.415 1.81114 16.2222 1.81137 14.0294 1.81137Z" fill="white"/>
<path d="M17.8099 11.7223C18.0105 11.7501 18.1913 11.7607 18.3649 11.8017C19.3442 12.0328 20.0332 12.8482 20.0424 13.8574C20.0594 15.709 20.0723 17.5615 20.0339 19.4125C19.9969 21.1967 18.5267 22.8339 16.7656 23.1261C16.4994 23.1702 16.2265 23.1914 15.9565 23.1928C14.6788 23.1996 13.4011 23.198 12.1233 23.1953C10.0373 23.1909 8.38828 21.7935 8.04213 19.7337C8.01067 19.5465 8.01029 19.3526 8.01002 19.1617C8.00765 17.4307 8.00145 15.6995 8.01105 13.9685C8.01705 12.8861 8.66241 12.0603 9.67586 11.8085C9.84943 11.7654 10.0308 11.7536 10.2502 11.7212C10.2502 11.6105 10.2501 11.5046 10.2502 11.3986C10.2507 10.6237 10.2426 9.84858 10.2534 9.07377C10.2802 7.14566 11.8179 5.52554 13.7484 5.38123C15.6657 5.2379 17.4195 6.59496 17.745 8.48548C17.7941 8.77065 17.804 9.06489 17.8071 9.3552C17.8152 10.1384 17.8099 10.9217 17.8099 11.7223ZM9.82124 16.6746C9.82124 17.4796 9.81379 18.2847 9.8229 19.0895C9.8382 20.4383 10.7854 21.3782 12.1283 21.3821C13.3957 21.3858 14.6631 21.3857 15.9305 21.3821C17.2761 21.3782 18.2267 20.4425 18.236 19.0906C18.2477 17.4103 18.2401 15.7299 18.2382 14.0495C18.2377 13.6682 18.1359 13.557 17.7571 13.5565C15.2726 13.5528 12.7881 13.5528 10.3036 13.5564C9.92361 13.557 9.82311 13.6671 9.82191 14.0484C9.81917 14.9238 9.82104 15.7992 9.82124 16.6746ZM15.9799 11.7221C15.9864 11.6292 15.9966 11.5513 15.9967 11.4733C15.9976 10.6994 16.0028 9.92543 15.9953 9.15158C15.9853 8.13204 15.2417 7.31512 14.2266 7.19512C13.2756 7.0827 12.3591 7.73783 12.1162 8.70336C12.104 8.75199 12.0792 8.80024 12.0791 8.84872C12.0769 9.80066 12.0774 10.7526 12.0774 11.7221L15.9799 11.7221Z" fill="white"/>
<path d="M14.9346 17.4838C14.9346 17.7652 14.9473 18.0473 14.9318 18.3278C14.9023 18.864 14.5302 19.2317 14.0344 19.2345C13.5402 19.2373 13.1498 18.8678 13.1312 18.3353C13.1111 17.7632 13.1115 17.1893 13.1309 16.6172C13.149 16.0848 13.5365 15.7101 14.0267 15.7073C14.5146 15.7045 14.8997 16.0797 14.9305 16.6098C14.9474 16.9002 14.9335 17.1924 14.9335 17.4838C14.9339 17.4838 14.9342 17.4838 14.9346 17.4838Z" fill="white"/>
</svg>
