<svg width="29" height="29" viewBox="0 0 29 29" fill="none" xmlns="http://www.w3.org/2000/svg">
<path d="M5.26311 14.6012C3.86953 14.1539 2.5167 13.7158 1.16129 13.2857C-0.0697014 12.8952 -0.386209 11.6559 0.522745 10.7511C2.00143 9.27921 3.47795 7.80312 5.18799 6.59261C5.62367 6.2842 6.09073 6.01574 6.5609 5.76135C7.64875 5.17277 8.77394 5.32881 9.89225 5.65527C10.4339 5.8134 10.9653 6.00962 11.4937 6.20888C11.6688 6.27493 11.7766 6.25597 11.9176 6.13164C14.0364 4.26333 16.3906 2.76801 19.0107 1.70336C21.5031 0.690628 24.0879 0.0925441 26.7833 0.00138811C28.0827 -0.0425645 29.0571 0.96255 28.9951 2.26297C28.7288 7.84076 26.6368 12.6741 23.0296 16.8846C22.7803 17.1757 22.7322 17.3949 22.8763 17.7539C23.1198 18.3606 23.3057 18.9932 23.477 19.6255C23.7978 20.8092 23.6127 21.9173 22.9685 22.9694C22.0951 24.396 20.9927 25.6332 19.8534 26.8421C19.3117 27.4168 18.7563 27.9791 18.1956 28.5355C17.3731 29.3519 16.1345 29.0689 15.7658 27.9702C15.3291 26.6692 14.9203 25.3588 14.4987 24.0527C14.4683 23.9584 14.4327 23.8657 14.3911 23.7484C13.8492 24.0267 13.3247 24.3011 12.7957 24.5666C11.7202 25.1066 10.895 24.971 10.0453 24.1212C8.31229 22.3879 6.57901 20.6549 4.84639 18.9211C4.04349 18.1177 3.9049 17.2605 4.41783 16.2433C4.68964 15.7043 4.97014 15.1697 5.26311 14.6012ZM26.3452 1.74144C25.6243 1.83745 24.8992 1.90894 24.1833 2.03346C19.7119 2.81121 15.8662 4.83923 12.5567 7.91311C9.74638 10.5233 7.63622 13.6424 5.9579 17.0717C5.83924 17.3141 5.8805 17.4804 6.06349 17.6626C7.82893 19.4211 9.59071 21.1833 11.3496 22.9483C11.5229 23.1222 11.6859 23.1661 11.9156 23.0534C16.0106 21.0455 19.6499 18.4475 22.475 14.8189C25.2654 11.235 26.928 7.20014 27.2215 2.63705C27.28 1.72714 27.283 1.72735 26.3452 1.74144ZM21.3671 18.7078C21.3362 18.721 21.3248 18.7227 21.3179 18.7292C19.7138 20.2384 17.9768 21.5739 16.1081 22.74C16.0421 22.7811 15.9954 22.9412 16.0189 23.0232C16.1603 23.5176 16.3244 24.0056 16.4816 24.4955C16.7423 25.3075 17.0036 26.1194 17.2745 26.962C17.3489 26.8974 17.3962 26.8627 17.4359 26.821C18.092 26.1317 18.7803 25.4696 19.3939 24.7442C20.111 23.8966 20.7916 23.0138 21.4279 22.1042C21.6652 21.7651 21.8221 21.3151 21.8585 20.9018C21.9261 20.1356 21.6262 19.4207 21.3671 18.7078ZM2.02402 11.7193C3.35441 12.1489 4.63007 12.554 5.89958 12.9776C6.11869 13.0507 6.20652 12.9898 6.33065 12.8151C7.1969 11.596 8.06338 10.3765 8.96173 9.18112C9.36559 8.64373 9.84288 8.16152 10.3159 7.62108C9.9061 7.49765 9.52044 7.38534 9.13718 7.26529C8.27831 6.99628 7.497 7.13651 6.74605 7.6364C5.01582 8.78819 3.55074 10.24 2.02402 11.7193Z" fill="white"/>
<path d="M3.01978 25.9778C4.57764 25.7924 6.01893 25.4087 7.36721 24.696C7.57182 24.5879 7.82332 24.5085 8.05004 24.5156C8.43482 24.5275 8.71238 24.8113 8.78983 25.1675C8.87792 25.5726 8.72982 25.9277 8.3528 26.1437C7.34747 26.7196 6.27552 27.145 5.14414 27.3752C4.19674 27.568 3.23178 27.6837 2.27003 27.7935C1.61768 27.868 1.17276 27.4503 1.20366 26.8156C1.30709 24.6919 1.77233 22.6597 2.78716 20.773C2.92544 20.516 3.09474 20.2947 3.39334 20.219C3.76134 20.1256 4.08065 20.2196 4.31646 20.5178C4.55228 20.8161 4.57789 21.1566 4.39395 21.4847C3.77491 22.5891 3.39641 23.775 3.16805 25.0134C3.11172 25.3189 3.07308 25.6277 3.01978 25.9778Z" fill="white"/>
<path d="M19.8144 5.56274C21.8792 5.56386 23.5037 7.17679 23.4856 9.20785C23.4674 11.2421 21.8302 12.8658 19.8008 12.862C17.7719 12.8583 16.1402 11.2232 16.1406 9.19449C16.1411 7.13973 17.7375 5.56161 19.8144 5.56274ZM17.8952 9.1826C17.8908 10.253 18.7166 11.0899 19.7848 11.0976C20.8672 11.1054 21.7284 10.265 21.7314 9.19785C21.7343 8.14165 20.8586 7.26717 19.8001 7.26931C18.7519 7.27144 17.8996 8.12751 17.8952 9.1826Z" fill="white"/>
</svg>
