<svg width="26" height="31" viewBox="0 0 26 31" fill="none" xmlns="http://www.w3.org/2000/svg">
<path d="M18.1028 25.651C18.6028 25.651 19.0623 25.6302 19.5194 25.6554C20.4694 25.7075 21.2599 26.3822 21.4283 27.3088C21.494 27.6703 21.4651 28.0499 21.4702 28.4213C21.4747 28.7539 21.4789 29.0874 21.4611 29.4193C21.4407 29.7993 21.1774 30.0455 20.7978 30.0681C20.7296 30.0721 20.6609 30.0695 20.5924 30.0695C15.4738 30.0695 10.3552 30.0696 5.23658 30.0694C4.58559 30.0694 4.35555 29.8404 4.3547 29.1894C4.35404 28.6805 4.34737 28.1713 4.35896 27.6626C4.38338 26.59 5.20619 25.7203 6.27139 25.6582C6.73796 25.631 7.20745 25.6536 7.71808 25.6536C7.71808 25.5107 7.71808 25.4077 7.71808 25.3046C7.71808 24.4041 7.71692 23.5036 7.71855 22.6031C7.71948 22.0905 7.88523 21.873 8.37113 21.7353C9.78184 21.3356 10.702 20.153 10.7367 18.7028C10.742 18.4785 10.6852 18.346 10.4511 18.2366C9.00716 17.562 7.92462 16.4689 7.0768 15.1487C6.61965 14.4368 6.26373 13.6603 5.85078 12.9193C5.77518 12.7837 5.66648 12.6424 5.5366 12.5645C2.52019 10.7563 0.681262 8.12862 0.0367569 4.67184C-0.210017 3.34825 0.815961 2.15414 2.20835 2.12771C2.78557 2.11676 3.36318 2.12571 3.94061 2.12562C4.04503 2.1256 4.14945 2.12562 4.29411 2.12562C4.29411 1.84736 4.28217 1.60422 4.29632 1.36261C4.34056 0.607892 4.96324 0.00419923 5.72302 0.00345802C10.4893 -0.00120097 15.2555 -0.000942134 20.0218 0.00297565C20.7984 0.00361097 21.4179 0.604209 21.4621 1.37932C21.4754 1.61192 21.4642 1.8459 21.4642 2.12562C21.609 2.12562 21.7215 2.12379 21.834 2.12591C22.5279 2.13901 23.2275 2.10144 23.9144 2.17805C25.1163 2.31213 25.9441 3.49997 25.7183 4.68919C25.0603 8.15466 23.2153 10.7868 20.1806 12.5893C20.0461 12.6693 19.9426 12.8383 19.8749 12.9885C19.177 14.5366 18.3121 15.9741 17.0095 17.0893C16.5024 17.5235 15.9115 17.8639 15.3401 18.2166C15.1669 18.3235 15.0935 18.4207 15.0893 18.6178C15.059 20.0435 16.0118 21.3329 17.3955 21.7254C17.9668 21.8874 18.1026 22.0669 18.1027 22.663C18.103 23.641 18.1028 24.619 18.1028 25.651ZM12.892 1.39853C10.5929 1.39853 8.29374 1.4022 5.99464 1.3933C5.7429 1.39232 5.65529 1.45203 5.66035 1.718C5.68701 3.11656 5.66761 4.51641 5.71581 5.91403C5.79289 8.1487 6.24213 10.3114 7.13599 12.367C7.77713 13.8415 8.61426 15.1859 9.86925 16.2323C11.5958 17.6719 13.6686 17.787 15.4928 16.5317C16.1931 16.0497 16.7759 15.444 17.2668 14.7542C19.1058 12.1701 19.853 9.22564 20.0322 6.11635C20.1154 4.67252 20.0765 3.22162 20.0909 1.77391C20.0946 1.399 20.0909 1.3986 19.7013 1.39858C17.4315 1.39845 15.1618 1.39852 12.892 1.39853ZM20.0916 28.654C20.0916 28.4219 20.0919 28.1908 20.0915 27.9596C20.0905 27.27 19.8459 27.0247 19.1574 27.0246C14.9909 27.0244 10.8244 27.0245 6.65795 27.0249C6.56029 27.0249 6.46118 27.0207 6.36524 27.0351C6.01732 27.0873 5.787 27.299 5.75781 27.6476C5.73039 27.9752 5.75193 28.3069 5.75193 28.654L20.0916 28.654ZM16.6775 25.6206V23.1615H9.13526V25.6206H16.6775ZM4.29397 3.52354C3.63052 3.52354 3.00722 3.52338 2.3839 3.52357C1.6036 3.52382 1.3004 3.90039 1.44995 4.6604C1.75716 6.2216 2.39836 7.62953 3.37814 8.88115C3.84471 9.47717 4.37041 10.0166 5.02614 10.5267C4.37904 8.19719 4.23213 5.88489 4.29397 3.52354ZM20.7285 10.5372C21.5684 9.85896 22.2382 9.13871 22.7926 8.31343C23.5873 7.13045 24.1233 5.84142 24.3362 4.42815C24.4051 3.97078 24.1275 3.56075 23.695 3.54036C22.966 3.506 22.2342 3.53094 21.4643 3.53094C21.5247 5.88627 21.3773 8.19889 20.7285 10.5372ZM13.6868 18.7699H12.2029C12.0725 19.3029 11.9971 19.8403 11.8051 20.3322C11.6141 20.8214 11.3059 21.2649 11.0589 21.7109H14.8484C14.1037 20.8348 13.7276 19.8606 13.6868 18.7699Z" fill="white"/>
</svg>
