<svg width="70" height="131" viewBox="0 0 70 131" fill="none" xmlns="http://www.w3.org/2000/svg">
<path d="M63.3165 125.952H58.3366C57.8981 125.952 57.4638 125.866 57.0586 125.699C56.6533 125.531 56.2851 125.285 55.9751 124.975C55.665 124.665 55.4192 124.297 55.2516 123.892C55.0841 123.487 54.9982 123.052 54.9989 122.614V118.397H59.9787C60.4172 118.396 60.8515 118.482 61.2568 118.65C61.662 118.817 62.0302 119.063 62.3403 119.373C62.6504 119.683 62.8962 120.051 63.0637 120.456C63.2312 120.862 63.3171 121.296 63.3165 121.734V125.952ZM51.5786 114.219H50.7283C50.7226 116.307 51.1288 118.377 51.9236 120.309C52.7185 122.241 53.8864 123.997 55.3606 125.477C56.8348 126.957 58.5864 128.132 60.5151 128.935C62.4438 129.737 64.5118 130.152 66.6008 130.154H67.4024C67.4076 125.945 65.7457 121.906 62.7802 118.92C59.8147 115.933 55.7871 114.243 51.5786 114.219Z" fill="#F5F5F5"/>
<path d="M0.682129 108.364V111.595H19.4647C12.1771 111.595 9.50014 121.579 9.50014 121.579C24.6681 121.579 24.5952 126.607 24.5952 126.607H13.5812L9.91311 130.275H22.6956C28.7006 125.927 28.1904 123.474 28.1904 123.474C28.1954 123.033 28.1129 122.595 27.9475 122.186C27.3802 121.209 26.6022 120.371 25.6702 119.732C24.7382 119.093 23.6756 118.67 22.5595 118.494C19.9086 117.901 17.1957 117.632 14.48 117.692L15.2574 116.453C15.5527 115.812 16.0364 115.276 16.644 114.917C17.2515 114.558 17.9541 114.392 18.6582 114.442C21.2675 115.191 23.768 116.277 26.0965 117.673L29.7451 113.859C28.3931 113.03 26.9966 112.276 25.562 111.6H69.3169V108.364H0.682129Z" fill="#F5F5F5"/>
<path d="M7.96888 114.146H3.08618V130.3H7.96888V114.146Z" fill="#F5F5F5"/>
<path d="M45.1903 114.753C45.1903 114.753 41.6874 113.538 36.7026 118.091V114.146H31.8442V130.285H36.7026V119.271C36.7026 119.271 42.0469 116.696 43.9903 120.51C44.434 121.628 44.6007 122.836 44.4761 124.032L48.3628 120.316C48.3628 120.316 48.7126 115.627 45.1903 114.753Z" fill="#F5F5F5"/>
<path d="M5.54542 107.101C7.02119 107.101 8.21754 105.905 8.21754 104.429C8.21754 102.953 7.02119 101.757 5.54542 101.757C4.06964 101.757 2.87329 102.953 2.87329 104.429C2.87329 105.905 4.06964 107.101 5.54542 107.101Z" fill="#F5F5F5"/>
<path d="M17.2624 17.7808L9.23325 15.9468L6.83057 20.6747L14.8732 22.4751L17.2624 17.7808Z" fill="#F5F5F5"/>
<path d="M24.7398 24.7804L27.0954 20.0693L19.0191 18.1848L16.6467 22.896L24.7398 24.7804Z" fill="#F5F5F5"/>
<path d="M45.2463 24.2422L42.9883 28.987L51.0881 30.8546L53.3763 26.1435L45.2463 24.2422Z" fill="#F5F5F5"/>
<path d="M55.0757 26.5305L52.7639 31.2417L60.8772 33.1261L63.1688 28.415L55.0757 26.5305Z" fill="#F5F5F5"/>
<path d="M32.069 34.5896L40.1789 101.757L40.3303 0.803955L11.2727 59.5922L32.069 34.5896Z" fill="#F5F5F5"/>
</svg>
