<svg width="92" height="118" viewBox="0 0 92 118" fill="none" xmlns="http://www.w3.org/2000/svg">
<path d="M43.5678 2.73124C46.489 2.65582 49.4249 2.66502 52.3111 3.14698C58.0633 3.95269 63.6389 5.96513 68.6222 8.93965C75.0881 12.8229 80.5571 18.3691 84.2619 24.9454C88.9288 33.0577 90.7885 42.7245 89.5505 51.9938C88.7338 58.4396 86.3902 64.6774 82.8234 70.1059C77.0472 78.9172 68.0372 85.591 57.861 88.3724C46.8753 91.4941 34.6718 90.0868 24.7145 84.4818C13.7711 78.4702 5.56866 67.5839 3.08345 55.3197C1.93007 50.3125 1.87488 45.0938 2.56102 40.0167C3.18095 36.5455 3.98666 33.0798 5.40494 29.8385C9.58987 19.5887 17.8549 11.1011 27.9539 6.5777C30.1668 5.54388 32.503 4.80991 34.8392 4.11089C37.7052 3.40451 40.6246 2.92439 43.5678 2.73124ZM41.743 4.62964C40.1113 4.83382 38.4742 5.03617 36.8756 5.43351C35.3837 5.81429 33.8643 6.10862 32.4331 6.69543C29.3023 7.74764 26.3112 9.19903 23.5372 10.9871C14.7461 16.4983 8.15503 25.3998 5.43805 35.4142C4.99656 37.2868 4.4539 39.1484 4.31778 41.0762C3.81742 44.7332 3.87077 48.4583 4.34353 52.1171C5.58705 61.1823 9.90075 69.8042 16.4568 76.1965C19.9703 79.7597 24.1939 82.5852 28.7246 84.6896C34.9386 87.5041 41.835 88.7734 48.6412 88.4092C49.5555 88.2179 50.4955 88.3006 51.4097 88.1277C56.1024 87.5372 60.7049 86.1778 64.9339 84.0495C74.9244 79.1416 82.7939 70.115 86.2633 59.5359C86.6422 58.3439 87.1352 57.1868 87.4314 55.9691C87.8563 54.1498 88.1157 52.2937 88.2518 50.4321C88.2647 49.3339 88.2739 48.2357 88.4027 47.143C88.4983 45.7302 88.2132 44.3267 88.2463 42.9102C87.871 39.2073 87.1518 35.5153 85.8126 32.0331C82.6081 23.2291 76.3261 15.5951 68.3481 10.6946C60.4878 5.78302 50.9517 3.63997 41.743 4.62964Z" fill="#FEFEFE"/>
<path d="M13.0486 37.6876C14.11 37.2608 15.3168 38.7747 14.454 39.6356C13.9114 40.3917 12.6163 40.2298 12.2687 39.3671C11.84 38.7067 12.4784 37.9892 13.0486 37.6876Z" fill="#FEFEFE"/>
<path d="M18.7122 38.3775C20.3034 37.5736 22.2717 37.6472 23.8555 38.4327C24.9795 38.922 25.9728 39.8767 26.2543 41.1C32.9502 41.1662 39.6497 41.1276 46.3456 41.146C46.3309 41.6463 46.3309 42.1485 46.3493 42.6489C46.0237 42.6673 45.6981 42.6802 45.3725 42.6967C45.424 45.9012 45.2989 49.1001 45.2842 52.3027C44.5153 52.3414 43.7464 52.3303 42.9774 52.3138C43.0289 50.6196 43.0197 48.9254 43.04 47.233C42.2674 47.2403 41.4948 47.2128 40.724 47.2311C40.2641 47.7297 39.9128 48.3845 39.2156 48.5906C38.1855 49.0394 37.1259 47.9706 37.1424 46.9589C36.9971 46.0796 37.8838 45.3695 38.6968 45.3659C40.1979 45.3383 41.7118 45.4818 43.2074 45.2794C43.1945 44.4148 43.2221 43.5484 43.2736 42.6857C40.9172 42.7096 38.5589 42.6765 36.2024 42.7225C36.1951 45.9472 36.0277 49.17 36.0994 52.3984C35.3213 52.369 34.545 52.3726 33.7669 52.3965C33.7504 51.5375 33.7669 50.6784 33.7853 49.8194C32.643 50.4025 31.2063 50.546 30.0547 49.9132C28.7579 49.1627 27.8344 47.8437 27.5254 46.3813C28.4028 46.1109 29.376 45.5443 29.547 44.5583C29.6868 43.9991 29.3852 43.4491 28.9952 43.0683C28.3752 42.3619 27.3451 42.7758 26.532 42.671C26.5854 43.6974 26.6406 44.7312 26.5339 45.7577C25.5644 45.7117 24.595 45.7742 23.6256 45.7779C23.0388 45.8055 22.4005 45.6804 21.8872 46.0391C21.913 46.2709 21.9443 46.5027 21.9755 46.7345C23.5354 47.1355 25.2462 46.9791 26.6958 47.7628C27.0563 47.9522 27.4242 48.219 27.5695 48.6163C27.7314 50.0309 26.9055 51.5154 25.5736 52.0599C23.6789 52.8859 21.4586 52.3322 19.8251 51.1733C20.1709 50.7226 20.5683 50.3124 20.927 49.8709C22.1779 50.3547 23.6734 50.8697 24.9243 50.1082C25.3603 49.95 25.1708 49.4386 25.1708 49.0946C23.7396 48.6494 22.1172 48.7598 20.8037 47.9394C20.1194 47.5052 19.4793 46.7014 19.7938 45.8515C19.8067 45.0384 20.3899 44.3707 21.1146 44.0653C21.9829 43.6018 22.9928 43.7563 23.9365 43.7489C23.9438 43.3957 23.9493 43.0407 23.9585 42.6894C22.1208 42.6654 20.2832 42.6875 18.4473 42.6765C18.4786 45.9085 18.4326 49.1406 18.4547 52.3708C17.7612 52.3874 17.0677 52.38 16.376 52.4131C16.2987 49.1958 16.3355 45.9748 16.3208 42.7556C15.7598 42.5367 15.0865 42.7353 14.4813 42.6544C14.4739 43.6294 14.542 44.608 14.4408 45.5793C12.754 45.5701 11.034 45.4744 9.36923 45.7834C9.3398 46.1201 9.18712 46.6903 9.66723 46.7639C11.0579 46.9184 12.581 46.4402 13.8779 47.1318C14.8676 47.6598 15.0019 48.9088 14.9908 49.9132C15.0258 50.6472 14.5769 51.28 14.1483 51.8318C13.5652 52.5088 12.3897 52.2273 11.9243 53.0312C11.9887 53.4856 12.421 53.7376 12.7429 54.0098C12.3125 54.4826 11.9464 55.0068 11.5031 55.4686C10.6201 54.8284 9.87694 53.9914 9.41522 52.9981C8.52121 52.9374 7.57017 52.4701 7.18939 51.6239C7.05878 51.0187 6.95393 50.2259 7.50947 49.7955C7.99694 49.2914 8.80266 49.3724 9.4097 49.5857C10.0351 49.7807 10.3515 50.4319 10.9475 50.6766C11.8084 50.7962 12.4872 50.0935 12.7503 49.3356C11.6926 48.2429 10.0609 48.5814 8.72172 48.2282C7.86634 48.0718 7.23906 47.2661 7.19675 46.4126C7.18203 45.7945 7.10845 45.0274 7.67318 44.6153C8.79714 43.5098 10.4748 43.5926 11.9354 43.5723C11.8967 43.2762 11.9777 42.945 11.8287 42.6746C10.3239 42.6728 8.81737 42.6562 7.31264 42.6857C7.31448 42.1651 7.31264 41.6445 7.30712 41.1258C10.335 41.0982 13.3647 41.1497 16.3907 41.0871C16.7034 39.8969 17.6066 38.8962 18.7122 38.3775ZM18.6018 41.1441C20.3788 41.1883 22.1558 41.1239 23.9328 41.1221C23.7139 39.976 22.5071 39.3635 21.42 39.4205C20.2427 39.3046 18.8318 39.8528 18.6018 41.1441ZM31.5208 42.7004C31.7379 43.7232 31.9421 44.8453 31.508 45.8405C31.2559 46.4898 30.6526 46.889 30.1853 47.3691C30.4631 47.7757 30.7979 48.2889 31.3516 48.2852C32.2787 48.4195 33.1911 47.7499 33.4855 46.8853C33.903 45.5241 33.732 44.0892 33.7596 42.6894C33.0127 42.693 32.2677 42.6967 31.5208 42.7004Z" fill="#FEFEFE"/>
<path d="M60.6424 38.0334C61.0434 38.3112 61.4684 38.5485 61.9062 38.7637C61.4261 39.6761 60.4787 40.2354 59.5185 40.5187C58.0505 41.0245 56.3066 40.1342 55.7769 38.692C56.1595 38.4749 56.5844 38.1935 57.0314 38.1916C57.4545 38.4823 57.8592 38.8594 58.3963 38.9072C59.2481 39.0783 60.0648 38.6276 60.6424 38.0334Z" fill="#FEFEFE"/>
<path d="M48.8182 41.0982C50.8086 40.3716 53.4152 41.7991 53.5182 44.0102C53.4428 44.9796 53.3269 46.087 52.5432 46.764C52.9369 47.1484 53.452 47.5108 53.5348 48.0958C53.6893 48.9475 53.8824 49.9353 53.2386 50.6435C51.8277 52.7038 48.4061 52.6321 46.9437 50.6748C46.6126 50.2462 46.5225 49.6943 46.3882 49.183C46.8499 48.8905 47.3098 48.5943 47.7733 48.3018C48.0106 48.9365 48.2958 49.6428 48.9433 49.9611C49.4933 50.2959 50.299 50.2995 50.7258 49.7624C51.3365 49.2069 51.1286 48.3165 51.1066 47.5899C50.7644 46.683 49.6276 47.0951 48.8955 46.9847C48.9139 46.5635 48.9341 46.144 48.9506 45.7246C50.0231 45.9307 50.9061 44.9649 51.1415 44.0084C51.0937 43.4179 50.4959 43.0224 49.9293 43.1125C49.1456 42.9377 48.8311 43.9624 48.1173 43.9863C47.7126 43.7876 47.3797 43.4694 47.0191 43.2045C47.1001 42.2038 47.8524 41.3466 48.8182 41.0982Z" fill="#FEFEFE"/>
<path d="M54.0128 41.113C64.4006 41.0983 74.7884 41.0928 85.1744 41.1167C85.1523 41.6336 85.1523 42.1523 85.1689 42.6692C84.5618 42.6784 83.9566 42.6619 83.3514 42.6582C83.3827 45.8847 83.3349 49.1094 83.3735 52.336C82.623 52.3544 81.8688 52.3912 81.1237 52.2955C81.1679 50.6583 81.0557 49.0211 81.0428 47.384C80.8184 47.4336 80.605 47.5127 80.4045 47.6231C79.3339 48.2117 78.1621 48.5999 77.1283 49.2566C76.7972 48.6937 76.5433 48.0922 76.2343 47.5164C76.6132 47.2791 77.0768 47.1283 77.3693 46.7769C77.0878 46.3759 76.5764 46.076 76.0779 46.2195C75.3053 46.4568 74.6228 47.2147 74.7277 48.0627C74.7314 49.2106 75.7946 49.882 76.5028 50.6289C76.2306 51.2065 75.9308 51.7694 75.6291 52.3323C74.2586 51.5155 73.0942 50.2555 72.638 48.7029C72.4301 47.6249 72.4596 46.4164 73.1236 45.4911C73.7307 44.4058 75.0165 43.8355 76.2324 43.9275C77.5403 43.9367 78.7066 44.6173 79.7312 45.3678C80.123 45.1839 80.5241 45.0183 80.9324 44.8748C80.9251 44.1445 80.9177 43.4142 80.9711 42.6858C77.7169 42.6435 74.461 42.6803 71.2068 42.6711C71.2565 45.8921 71.1535 49.1149 71.2289 52.3341C70.4968 52.382 69.761 52.3617 69.0288 52.3525C69.0307 51.4475 69.0546 50.5406 69.0803 49.6355C67.5701 50.0329 65.771 50.4081 64.4098 49.4019C63.3263 48.7047 63.1939 47.3085 63.0173 46.1496C64.4355 46.1791 65.4381 44.1813 64.4098 43.1494C63.6758 42.3216 62.4783 42.7814 61.5217 42.6122C61.5033 45.8498 61.5088 49.091 61.5346 52.3304C60.8135 52.3139 60.0924 52.3176 59.3731 52.2697C59.4504 49.069 59.3621 45.8663 59.4173 42.6637C58.8581 42.6619 58.2989 42.6564 57.7396 42.6472C57.8003 45.8682 57.7176 49.091 57.7838 52.3139C57.0075 52.3764 56.2275 52.3544 55.4494 52.3396C55.4862 50.5682 55.5065 48.7949 55.4605 47.0234C54.8939 47.0565 54.3273 47.0694 53.7607 47.062C53.7644 46.3612 53.7644 45.6622 53.7975 44.9631C54.3641 44.965 54.9307 44.965 55.4991 44.9595C55.4862 44.1924 55.4678 43.4271 55.4954 42.66C54.9987 42.6692 54.5039 42.6821 54.0091 42.684C54.022 42.1597 54.0293 41.6354 54.0128 41.113ZM66.6558 42.6508C66.9079 43.497 66.8564 44.4002 66.7993 45.2703C66.6706 46.1202 66.0746 46.742 65.3792 47.1834C65.9035 48.5171 68.2305 48.5925 68.7474 47.2055C69.3158 45.7578 68.9994 44.1703 69.0767 42.6564C68.2691 42.6656 67.4634 42.6637 66.6558 42.6508Z" fill="#FEFEFE"/>
<path d="M41.9237 0.930262C43.2997 0.827248 44.6867 0.845644 46.0645 0.726074C47.7219 0.876916 49.3959 0.7831 51.0423 1.05719C57.4309 1.75805 63.6706 3.79809 69.2021 7.06877C72.0957 8.73722 74.7575 10.7938 77.2464 13.0141C78.2949 14.116 79.4704 15.1002 80.4085 16.3014C82.7668 18.8565 84.6946 21.785 86.4072 24.8037C86.8524 25.7768 87.4392 26.6782 87.7942 27.6936C88.9973 30.0776 89.7165 32.6585 90.4762 35.2062C91.0502 37.6841 91.4622 40.1987 91.7198 42.728C91.8228 45.1507 91.8118 47.5752 91.7198 49.9979C91.4346 52.6247 91.0336 55.246 90.388 57.8122C89.9189 59.0925 89.6742 60.4446 89.1536 61.7065C86.6647 68.6415 82.432 74.9364 76.9704 79.8829C75.8557 80.9222 74.6637 81.8732 73.479 82.8316C72.1214 83.6796 70.8945 84.7392 69.4504 85.4474C66.8733 87.0589 64.0716 88.2766 61.2314 89.3399C60.0173 89.6986 58.8198 90.107 57.6057 90.4638C54.8298 91.0654 52.0374 91.6908 49.188 91.7552C47.4202 91.9667 45.6322 91.9391 43.8571 91.8564C42.8637 91.689 41.8446 91.8085 40.8568 91.6043C40.2185 91.4921 39.5636 91.5344 38.9308 91.3854C36.9588 90.9403 34.9335 90.6919 33.0149 90.0352C30.8939 89.3307 28.7361 88.6776 26.7531 87.6291C25.046 86.9595 23.5082 85.9478 21.8986 85.0869C19.2736 83.3504 16.6964 81.5164 14.4522 79.2979C9.09548 74.2613 4.97493 67.9094 2.64057 60.9357C2.38488 60.3011 2.15493 59.6554 2.02249 58.9821C0.629964 54.2619 0.0339565 49.3044 0.251021 44.3873C0.289651 41.9886 0.738496 39.6211 1.11008 37.2591C2.11446 32.7063 3.68358 28.2583 6.00507 24.204C6.48151 23.1794 7.20996 22.3074 7.73423 21.3104C10.4181 17.4548 13.492 13.8143 17.2446 10.9594C18.9351 9.53926 20.7728 8.31229 22.6528 7.16443C23.5284 6.78364 24.2624 6.14533 25.1601 5.81789C28.0426 4.34811 31.065 3.12482 34.2087 2.33934C36.7252 1.60537 39.3337 1.28529 41.9237 0.930262ZM43.5683 2.73116C40.625 2.92431 37.7057 3.40443 34.8397 4.11081C32.5035 4.80983 30.1673 5.5438 27.9543 6.57762C17.8553 11.101 9.59031 19.5886 5.40538 29.8385C3.98711 33.0797 3.18139 36.5454 2.56147 40.0166C1.87533 45.0937 1.93051 50.3124 3.0839 55.3196C5.5691 67.5838 13.7716 78.4701 24.7149 84.4817C34.6723 90.0867 46.8757 91.494 57.8614 88.3723C68.0377 85.5909 77.0477 78.9171 82.8238 70.1058C86.3907 64.6773 88.7342 58.4395 89.551 51.9938C90.789 42.7244 88.9292 33.0576 84.2623 24.9453C80.5575 18.369 75.0886 12.8228 68.6226 8.93957C63.6394 5.96505 58.0637 3.95261 52.3115 3.14689C49.4253 2.66494 46.4894 2.65574 43.5683 2.73116Z" fill="white"/>
<path d="M41.7432 4.6295C50.9519 3.63983 60.488 5.78288 68.3483 10.6944C76.3263 15.5949 82.6083 23.229 85.8128 32.033C87.152 35.5152 87.8712 39.2071 88.2465 42.9101C88.2134 44.3265 88.4985 45.7301 88.4029 47.1429C88.2741 48.2355 88.2649 49.3337 88.252 50.4319C88.1159 52.2935 87.8565 54.1496 87.4316 55.9689C87.1354 57.1867 86.6424 58.3438 86.2635 59.5358C82.7941 70.1149 74.9246 79.1415 64.9341 84.0493C60.7051 86.1777 56.1026 87.5371 51.4099 88.1276C50.4957 88.3005 49.5557 88.2177 48.6414 88.409C41.8352 88.7732 34.9388 87.504 28.7248 84.6895C24.1941 82.5851 19.9705 79.7596 16.457 76.1964C9.90095 69.804 5.58725 61.1821 4.34373 52.1169C3.87097 48.4581 3.81762 44.7331 4.31797 41.0761C4.4541 39.1483 4.99676 37.2867 5.43825 35.414C8.15523 25.3996 14.7463 16.4981 23.5374 10.9869C26.3114 9.19889 29.3025 7.7475 32.4333 6.69529C33.8645 6.10848 35.3839 5.81415 36.8758 5.43337C38.4744 5.03603 40.1115 4.83368 41.7432 4.6295ZM37.2455 6.3513C31.1493 7.72175 25.3585 10.4608 20.4874 14.3827C15.1528 18.6118 10.8833 24.1855 8.21778 30.4528C7.55738 31.9079 7.11406 33.4476 6.53645 34.9357C26.8872 34.9321 47.2379 34.91 67.5849 34.7904C73.6038 34.7867 79.6228 34.7573 85.6436 34.7702C83.7102 28.0026 79.8472 21.8254 74.794 16.9433C69.6286 11.9839 63.1737 8.35822 56.2166 6.62907C50.0303 5.06179 43.4797 5.0158 37.2455 6.3513ZM13.0484 37.6877C12.4781 37.9894 11.8398 38.7068 12.2684 39.3672C12.6161 40.2299 13.9111 40.3918 14.4538 39.6357C15.3165 38.7748 14.1098 37.2609 13.0484 37.6877ZM18.7123 38.3775C17.6067 38.8962 16.7035 39.897 16.3908 41.0871C13.3648 41.1497 10.3351 41.0982 7.30721 41.1258C7.31273 41.6445 7.31457 42.1651 7.31273 42.6857C8.81746 42.6562 10.324 42.6728 11.8288 42.6746C11.9778 42.9451 11.8968 43.2762 11.9355 43.5723C10.4749 43.5926 8.79723 43.5098 7.67327 44.6153C7.10854 45.0274 7.18212 45.7945 7.19684 46.4126C7.23915 47.2661 7.86643 48.0718 8.72181 48.2282C10.061 48.5814 11.6926 48.2429 12.7504 49.3356C12.4873 50.0935 11.8085 50.7962 10.9476 50.6766C10.3516 50.4319 10.0352 49.7807 9.40979 49.5858C8.80275 49.3724 7.99703 49.2914 7.50956 49.7955C6.95402 50.2259 7.05887 51.0187 7.18948 51.6239C7.57026 52.4701 8.5213 52.9374 9.41531 52.9981C9.87703 53.9914 10.6202 54.8284 11.5032 55.4686C11.9465 55.0068 12.3126 54.4826 12.743 54.0098C12.4211 53.7376 11.9888 53.4856 11.9244 53.0312C12.3898 52.2273 13.5653 52.5088 14.1484 51.8318C14.577 51.28 15.0259 50.6472 14.9909 49.9132C15.002 48.9088 14.8677 47.6598 13.878 47.1318C12.5811 46.4402 11.058 46.9184 9.66732 46.7639C9.18721 46.6903 9.33989 46.1201 9.36932 45.7834C11.0341 45.4744 12.7541 45.5701 14.4409 45.5793C14.5421 44.608 14.474 43.6294 14.4814 42.6544C15.0866 42.7353 15.7598 42.5367 16.3209 42.7556C16.3356 45.9748 16.2988 49.1958 16.3761 52.4131C17.0678 52.38 17.7613 52.3874 18.4548 52.3708C18.4327 49.1406 18.4787 45.9085 18.4474 42.6765C20.2832 42.6875 22.1209 42.6654 23.9586 42.6894C23.9494 43.0407 23.9439 43.3957 23.9366 43.7489C22.9929 43.7563 21.983 43.6018 21.1147 44.0653C20.3899 44.3707 19.8068 45.0384 19.7939 45.8515C19.4794 46.7014 20.1195 47.5052 20.8038 47.9394C22.1173 48.7598 23.7397 48.6494 25.1709 49.0946C25.1709 49.4386 25.3603 49.95 24.9244 50.1082C23.6735 50.8697 22.178 50.3547 20.9271 49.8709C20.5684 50.3124 20.171 50.7226 19.8252 51.1733C21.4587 52.3322 23.679 52.8859 25.5737 52.0599C26.9056 51.5154 27.7315 50.0309 27.5696 48.6163C27.4243 48.219 27.0564 47.9523 26.6958 47.7628C25.2463 46.9791 23.5355 47.1355 21.9756 46.7345C21.9443 46.5027 21.9131 46.2709 21.8873 46.0391C22.4005 45.6804 23.0389 45.8055 23.6257 45.7779C24.5951 45.7743 25.5645 45.7117 26.534 45.7577C26.6407 44.7312 26.5855 43.6974 26.5321 42.671C27.3452 42.7758 28.3753 42.3619 28.9953 43.0683C29.3852 43.4491 29.6869 43.9991 29.5471 44.5583C29.376 45.5443 28.4029 46.1109 27.5255 46.3813C27.8345 47.8437 28.758 49.1627 30.0548 49.9132C31.2064 50.546 32.643 50.4025 33.7854 49.8194C33.767 50.6784 33.7504 51.5375 33.767 52.3965C34.5451 52.3726 35.3214 52.369 36.0995 52.3984C36.0278 49.17 36.1952 45.9472 36.2025 42.7225C38.559 42.6765 40.9172 42.7096 43.2737 42.6857C43.2222 43.5484 43.1946 44.4148 43.2075 45.2794C41.7119 45.4818 40.198 45.3383 38.6969 45.3659C37.8839 45.3696 36.9972 46.0796 37.1425 46.9589C37.126 47.9706 38.1855 49.0394 39.2157 48.5906C39.9129 48.3845 40.2642 47.7297 40.7241 47.2312C41.4949 47.2128 42.2675 47.2404 43.0401 47.233C43.0198 48.9254 43.029 50.6196 42.9775 52.3138C43.7464 52.3303 44.5154 52.3414 45.2843 52.3027C45.299 49.1001 45.4241 45.9012 45.3726 42.6967C45.6982 42.6802 46.0238 42.6673 46.3494 42.6489C46.331 42.1485 46.331 41.6463 46.3457 41.146C39.6498 41.1276 32.9502 41.1662 26.2544 41.1C25.9729 39.8767 24.9796 38.922 23.8556 38.4327C22.2718 37.6472 20.3035 37.5736 18.7123 38.3775ZM60.6425 38.0335C60.0649 38.6277 59.2482 39.0784 58.3965 38.9073C57.8593 38.8595 57.4546 38.4824 57.0315 38.1917C56.5845 38.1935 56.1596 38.475 55.777 38.6921C56.3067 40.1343 58.0506 41.0246 59.5186 40.5187C60.4788 40.2354 61.4262 39.6762 61.9063 38.7638C61.4685 38.5486 61.0435 38.3113 60.6425 38.0335ZM48.818 41.0982C47.8523 41.3465 47.0999 42.2037 47.019 43.2044C47.3795 43.4693 47.7125 43.7876 48.1172 43.9862C48.8309 43.9623 49.1455 42.9377 49.9291 43.1124C50.4957 43.0223 51.0935 43.4178 51.1414 44.0083C50.9059 44.9649 50.0229 45.9306 48.9505 45.7246C48.9339 46.144 48.9137 46.5634 48.8953 46.9847C49.6274 47.095 50.7642 46.683 51.1064 47.5899C51.1285 48.3165 51.3363 49.2068 50.7256 49.7623C50.2988 50.2995 49.4931 50.2958 48.9431 49.961C48.2956 49.6428 48.0105 48.9364 47.7732 48.3018C47.3096 48.5942 46.8497 48.8904 46.388 49.1829C46.5223 49.6943 46.6124 50.2461 46.9435 50.6748C48.406 52.632 51.8275 52.7038 53.2384 50.6435C53.8823 49.9353 53.6891 48.9474 53.5346 48.0957C53.4518 47.5108 52.9367 47.1484 52.5431 46.7639C53.3267 46.087 53.4426 44.9796 53.518 44.0101C53.415 41.799 50.8084 40.3716 48.818 41.0982ZM54.0129 41.1129C54.0294 41.6353 54.0221 42.1596 54.0092 42.6838C54.504 42.682 54.9988 42.6691 55.4955 42.6599C55.4679 43.427 55.4863 44.1923 55.4992 44.9593C54.9308 44.9649 54.3642 44.9649 53.7976 44.963C53.7645 45.662 53.7645 46.3611 53.7608 47.0619C54.3274 47.0693 54.894 47.0564 55.4606 47.0233C55.5066 48.7948 55.4863 50.5681 55.4495 52.3395C56.2276 52.3542 57.0076 52.3763 57.7839 52.3138C57.7177 49.0909 57.8004 45.8681 57.7397 42.647C58.299 42.6562 58.8582 42.6618 59.4174 42.6636C59.3622 45.8662 59.4505 49.0688 59.3732 52.2696C60.0925 52.3175 60.8136 52.3138 61.5347 52.3303C61.5089 49.0909 61.5034 45.8497 61.5218 42.6121C62.4784 42.7813 63.6759 42.3214 64.4099 43.1492C65.4382 44.1812 64.4356 46.1789 63.0174 46.1495C63.194 47.3084 63.3264 48.7046 64.4099 49.4018C65.7711 50.408 67.5702 50.0328 69.0804 49.6354C69.0547 50.5405 69.0308 51.4474 69.0289 52.3524C69.7611 52.3616 70.4969 52.3818 71.229 52.334C71.1536 49.1148 71.2566 45.892 71.2069 42.671C74.4611 42.6802 77.717 42.6434 80.9712 42.6857C80.9178 43.4141 80.9252 44.1444 80.9325 44.8747C80.5242 45.0182 80.1231 45.1838 79.7313 45.3677C78.7067 44.6172 77.5404 43.9366 76.2325 43.9274C75.0166 43.8354 73.7308 44.4056 73.1237 45.491C72.4597 46.4162 72.4302 47.6248 72.6381 48.7028C73.0943 50.2553 74.2587 51.5154 75.6292 52.3322C75.9308 51.7693 76.2307 51.2064 76.5029 50.6288C75.7947 49.8819 74.7315 49.2105 74.7278 48.0626C74.6229 47.2146 75.3054 46.4567 76.078 46.2194C76.5765 46.0759 77.0879 46.3758 77.3694 46.7768C77.0769 47.1281 76.6133 47.279 76.2344 47.5163C76.5434 48.0921 76.7973 48.6936 77.1284 49.2565C78.1622 48.5998 79.334 48.2116 80.4046 47.623C80.6051 47.5126 80.8185 47.4335 81.0429 47.3838C81.0558 49.021 81.168 50.6582 81.1238 52.2954C81.8689 52.391 82.6231 52.3542 83.3736 52.3358C83.335 49.1093 83.3828 45.8846 83.3515 42.6581C83.9567 42.6618 84.5619 42.6783 85.169 42.6691C85.1524 42.1522 85.1524 41.6335 85.1745 41.1166C74.7885 41.0926 64.4007 41.0982 54.0129 41.1129ZM6.59899 57.8636C8.98118 66.1176 14.0987 73.5088 20.8737 78.7736C24.4093 81.5476 28.4287 83.6833 32.6559 85.1917C34.6481 85.8741 36.6992 86.3543 38.7576 86.7957C40.6174 87.1673 42.514 87.2667 44.3995 87.4285C46.0771 87.4249 47.764 87.5113 49.4343 87.3035C52.9717 87.1122 56.4502 86.277 59.7982 85.142C65.8833 83.0155 71.4387 79.4229 75.9125 74.7855C80.342 70.1738 83.69 64.5227 85.5865 58.4137C82.9597 58.3824 80.3328 58.4173 77.706 58.3879C76.3576 58.3088 75.0074 58.3346 73.6572 58.3254C67.0956 58.3254 60.5358 58.2591 53.9742 58.2297C50.6005 58.2738 47.2305 58.1432 43.8587 58.1156C36.7452 57.9887 29.6317 58.0568 22.5183 57.9703C17.2112 57.9262 11.9042 57.9464 6.59899 57.8636Z" fill="#191A1D"/>
<path d="M18.6021 41.1443C18.832 39.8529 20.2429 39.3047 21.4202 39.4206C22.5074 39.3636 23.7141 39.9762 23.933 41.1222C22.156 41.124 20.379 41.1884 18.6021 41.1443Z" fill="#191A1D"/>
<path d="M31.521 42.7005C32.2679 42.6968 33.0129 42.6931 33.7598 42.6895C33.7322 44.0893 33.9032 45.5242 33.4857 46.8854C33.1913 47.75 32.2789 48.4196 31.3518 48.2853C30.7981 48.289 30.4633 47.7758 30.1855 47.3692C30.6528 46.8891 31.2562 46.4899 31.5082 45.8406C31.9423 44.8454 31.7381 43.7233 31.521 42.7005Z" fill="#191A1D"/>
<path d="M66.656 42.6509C67.4636 42.6638 68.2693 42.6656 69.0768 42.6564C68.9996 44.1703 69.316 45.7578 68.7476 47.2056C68.2307 48.5926 65.9037 48.5171 65.3794 47.1835C66.0747 46.742 66.6707 46.1202 66.7995 45.2704C66.8565 44.4003 66.908 43.4971 66.656 42.6509Z" fill="#191A1D"/>
<path d="M71.5327 101.789C73.3189 101.553 75.2301 101.632 76.8489 102.504C78.5394 103.374 79.7572 105.032 80.1987 106.869C80.642 108.713 80.6328 110.679 80.1233 112.509C79.5935 114.421 78.1771 116.076 76.332 116.823C74.9708 117.404 73.455 117.45 71.9999 117.333C69.9691 117.14 68.0045 116.025 66.9486 114.253C65.6793 112.18 65.5947 109.601 66.0049 107.265C66.4832 104.535 68.7311 102.134 71.5327 101.789ZM71.8895 104.511C70.5743 104.875 69.5662 106.016 69.2388 107.326C68.8506 108.862 68.8433 110.526 69.3565 112.035C69.8734 113.521 71.3083 114.698 72.9142 114.708C74.2754 114.833 75.6716 114.193 76.4405 113.059C77.2058 111.93 77.3621 110.508 77.3346 109.176C77.2849 107.87 77.0329 106.448 76.0653 105.492C75.0241 104.364 73.3189 104.13 71.8895 104.511Z" fill="white"/>
<path d="M4.81674 101.972C5.82664 101.961 6.8347 101.963 7.84461 101.972C7.8538 107.013 7.8446 112.055 7.85012 117.095C6.83654 117.101 5.8248 117.099 4.81306 117.097C4.81674 112.055 4.80754 107.015 4.81674 101.972Z" fill="white"/>
<path d="M30.5679 101.97C31.5484 101.97 32.5307 101.95 33.5112 101.983C33.513 107.018 33.5057 112.053 33.5149 117.086C32.6098 117.104 31.7048 117.101 30.7997 117.099C30.7942 116.606 30.7924 116.113 30.7868 115.622C29.948 116.665 28.6806 117.446 27.3046 117.382C25.7061 117.432 24.2363 116.391 23.4913 115.02C22.7168 113.609 22.6506 111.933 22.8088 110.366C22.9486 109.029 23.5115 107.684 24.5913 106.84C25.6141 105.971 27.0452 105.758 28.3329 105.995C29.2104 106.176 29.9259 106.75 30.5771 107.333C30.5551 105.545 30.5679 103.757 30.5679 101.97ZM27.3616 108.313C26.6534 108.613 26.12 109.279 25.9415 110.024C25.7097 110.949 25.7502 111.924 25.89 112.862C26.0169 113.699 26.5173 114.514 27.3065 114.871C28.0735 115.178 29.0411 115.083 29.6371 114.47C30.4888 113.699 30.6415 112.469 30.6066 111.383C30.5587 110.467 30.4208 109.452 29.7328 108.78C29.1368 108.153 28.1526 108.017 27.3616 108.313Z" fill="white"/>
<path d="M36.1937 101.965C37.1687 101.967 38.1436 101.965 39.1167 101.969C39.1223 102.857 39.1223 103.744 39.1167 104.632C38.1436 104.636 37.1687 104.632 36.1956 104.636C36.1643 103.746 36.1643 102.854 36.1937 101.965Z" fill="white"/>
<path d="M82.6765 101.974C83.6533 101.963 84.6319 101.963 85.6105 101.974C85.6197 102.857 85.6197 103.742 85.6087 104.627C84.6319 104.636 83.6533 104.636 82.6747 104.627C82.6655 103.742 82.6655 102.857 82.6765 101.974Z" fill="white"/>
<path d="M88.4179 101.985C89.3983 101.952 90.3788 101.965 91.3593 101.972C91.3666 107.015 91.3648 112.055 91.3611 117.095C90.3788 117.097 89.3965 117.106 88.416 117.086C88.4252 112.053 88.4197 107.018 88.4179 101.985Z" fill="white"/>
<path d="M15.6897 106.049C17.0418 105.736 18.6274 105.894 19.6778 106.88C20.5295 107.723 20.6012 108.986 20.6288 110.116C20.6399 112.439 20.6215 114.763 20.6362 117.088C19.6539 117.106 18.6716 117.099 17.6874 117.095C17.6359 114.586 17.8125 112.064 17.5679 109.564C17.4299 108.192 15.6639 107.782 14.6559 108.508C13.76 108.996 13.5926 110.088 13.5614 111.014C13.5319 113.039 13.565 115.066 13.5448 117.093C12.5643 117.101 11.582 117.104 10.6016 117.09C10.6144 113.429 10.5979 109.768 10.6089 106.108C11.5232 106.102 12.4374 106.108 13.3498 106.102C13.3664 106.584 13.3664 107.068 13.3682 107.552C14.0396 106.917 14.7589 106.262 15.6897 106.049Z" fill="white"/>
<path d="M43.4762 106.407C44.786 105.802 46.2723 105.881 47.6759 105.966C48.89 106.067 50.2678 106.626 50.7019 107.861C51.4524 110.887 50.1979 114.179 51.5352 117.095C50.54 117.09 49.543 117.128 48.5478 117.068C48.454 116.714 48.3491 116.365 48.2443 116.017C47.4607 116.67 46.5556 117.257 45.5126 117.353C44.4107 117.456 43.1966 117.351 42.3192 116.609C40.9745 115.544 40.7997 113.324 41.9421 112.055C42.6337 111.275 43.6915 110.992 44.6719 110.771C45.794 110.545 46.9198 110.327 48.0199 110C48.0695 109.454 48.0603 108.782 47.5471 108.449C46.9437 108.091 46.1914 108.151 45.5181 108.203C44.8117 108.282 44.4291 108.948 44.1532 109.525C43.2629 109.391 42.3799 109.215 41.4895 109.073C41.8078 107.991 42.4259 106.917 43.4762 106.407ZM44.9663 112.702C44.2268 112.964 43.8846 113.929 44.3555 114.579C44.9847 115.631 46.5519 115.454 47.3595 114.709C48.2167 114.058 48.0125 112.87 48.0475 111.93C47.021 112.185 45.9633 112.342 44.9663 112.702Z" fill="white"/>
<path d="M58.5918 106.066C59.9752 105.718 61.6179 105.885 62.6811 106.919C63.4868 107.763 63.5714 109.003 63.5862 110.111C63.5843 112.438 63.5917 114.766 63.5806 117.094C62.6002 117.101 61.6179 117.105 60.6374 117.09C60.5859 114.56 60.7735 112.018 60.5141 109.5C60.3247 108.083 58.4189 107.78 57.4587 108.621C56.6254 109.196 56.5518 110.296 56.5132 111.218C56.4911 113.173 56.5113 115.131 56.5058 117.088C55.5253 117.11 54.543 117.097 53.5626 117.095C53.5699 113.431 53.5368 109.767 53.5791 106.102C54.4915 106.106 55.4039 106.102 56.3163 106.106C56.3182 106.573 56.3182 107.042 56.3384 107.511C57.008 106.917 57.6997 106.294 58.5918 106.066Z" fill="white"/>
<path d="M36.1792 106.106C37.1523 106.102 38.1273 106.106 39.1022 106.102C39.1427 109.766 39.1133 113.431 39.117 117.095C38.1347 117.102 37.1523 117.104 36.1719 117.086C36.1829 113.427 36.17 109.766 36.1792 106.106Z" fill="white"/>
<path d="M82.6804 106.099C83.6553 106.108 84.6303 106.11 85.6052 106.097C85.6291 109.763 85.6144 113.429 85.6126 117.095C84.6321 117.101 83.6535 117.101 82.673 117.095C82.6693 113.429 82.6583 109.763 82.6804 106.099Z" fill="white"/>
<path d="M37.2457 6.35148C43.4799 5.01598 50.0305 5.06197 56.2168 6.62925C63.1739 8.35841 69.6288 11.9841 74.7942 16.9435C79.8474 21.8256 83.7104 28.0027 85.6437 34.7704C79.623 34.7575 73.604 34.7869 67.5851 34.7906C47.238 34.9102 26.8873 34.9322 6.53662 34.9359C7.11423 33.4477 7.55756 31.9081 8.21795 30.453C10.8834 24.1857 15.153 18.6119 20.4876 14.3829C25.3587 10.461 31.1495 7.72193 37.2457 6.35148Z" fill="#F5F5F5"/>
<path d="M6.59912 57.8638C11.9043 57.9465 17.2114 57.9263 22.5184 57.9705C29.6319 58.0569 36.7453 57.9889 43.8588 58.1158C47.2306 58.1434 50.6007 58.274 53.9744 58.2298C60.536 58.2593 67.0957 58.3255 73.6573 58.3255C75.0075 58.3347 76.3577 58.3089 77.7061 58.388C80.333 58.4175 82.9598 58.3825 85.5867 58.4138C83.6901 64.5229 80.3422 70.1739 75.9126 74.7856C71.4389 79.4231 65.8835 83.0157 59.7983 85.1422C56.4504 86.2771 52.9718 87.1123 49.4344 87.3036C47.7641 87.5115 46.0773 87.425 44.3996 87.4287C42.5141 87.2668 40.6175 87.1675 38.7578 86.7959C36.6993 86.3544 34.6483 85.8743 32.6561 85.1918C28.4288 83.6834 24.4094 81.5477 20.8739 78.7737C14.0989 73.509 8.98131 66.1177 6.59912 57.8638Z" fill="#F5F5F5"/>
</svg>
