<svg width="142" height="96" viewBox="0 0 142 96" fill="none" xmlns="http://www.w3.org/2000/svg">
<path d="M21.1572 61.6402L20.6523 61.6473L20.1757 61.6402L19.7555 61.6438L19.3742 61.6508L19.0211 61.6544L18.721 61.672L18.435 61.6897L18.1878 61.7073L17.9724 61.7215L17.7818 61.7356L17.6193 61.7638L17.4675 61.7921L17.3334 61.8344L17.2239 61.8804L17.1286 61.9333L17.0474 61.9757L16.9803 62.0463L16.9167 62.1134L16.8638 62.1805L16.8073 62.2652L15.7551 63.9106L15.688 64.1295L15.748 64.3449L15.8998 64.5073L16.1152 64.5567L90.2802 64.5779L90.552 64.5602L90.7427 64.4614L90.9193 64.2672L91.1311 63.9247L100.053 48.1525L100.135 47.9195L100.117 47.7288L100.008 47.577L99.8558 47.4711L99.651 47.3934L99.4321 47.3404L99.2273 47.3298L77.8693 47.3192L77.5162 47.3263L77.2585 47.3722L77.0961 47.4569L76.9619 47.5946L76.8277 47.8277L74.8893 51.7751L74.4515 52.6013L73.943 53.4099L73.3958 54.1937L72.792 54.9635L72.1317 55.6802L71.4326 56.3829L70.7053 57.0431L69.9356 57.6787L69.127 58.2613L68.3008 58.8156L67.4393 59.3311L66.5566 59.7901L65.6491 60.2067L64.7417 60.5739L63.8061 60.8988L62.8669 61.1671L61.9171 61.3684L60.9779 61.5308L60.0245 61.6226L59.0853 61.6508L21.1572 61.6402ZM35.1711 31.3422L35.0087 31.3458L34.8462 31.374L34.6838 31.4199L34.5073 31.487L34.3449 31.5576L34.1824 31.6424L34.0059 31.7412L33.8576 31.8542L33.6952 31.9778L33.5469 32.1155L33.4127 32.2567L33.2785 32.4086L33.1726 32.5604L33.0632 32.7087L32.9714 32.8746L32.8902 33.0371L32.8372 33.2136L32.7878 33.3795L32.7772 33.5561L32.7666 33.7185L32.8231 33.9904L33.0314 34.0539L33.3562 34.1316L33.6846 34.181L71.6021 34.2905L72.0011 34.3011L72.3824 34.3364L72.7814 34.3999L73.191 34.4882L73.5864 34.6083L73.9713 34.7389L74.3667 34.8978L74.7516 35.0708L75.1188 35.2721L75.479 35.5016L75.8214 35.7417L76.1498 35.9923L76.4676 36.2607L76.7712 36.5573L77.0325 36.8645L77.2832 37.1752L77.5056 37.5247L77.6998 37.8778L77.8658 38.2415L77.9929 38.6087L78.7061 41.0238L78.7767 41.2568L78.8862 41.391L79.0486 41.4439L79.3205 41.4687L103.076 41.571L103.337 41.5675L103.538 41.5393L103.701 41.4687L103.835 41.3486L103.973 41.1685L104.132 40.9108L113.089 25.1492L113.181 24.8914L113.153 24.6584L113.001 24.5242L112.673 24.4042L112.125 24.3018L111.582 24.27L90.4426 24.2983L90.199 24.3124L90.0224 24.4113L89.7929 24.6196L86.7952 27.815L86.2515 28.2598L85.6477 28.6588L85.3511 28.8919L85.0404 29.1143L84.7156 29.3085L84.3766 29.5027L84.0236 29.6792L83.6705 29.8487L83.3068 30.0182L82.9431 30.1841L82.5618 30.3254L82.1663 30.4807L81.785 30.6078L81.3931 30.7349L80.9976 30.8479L80.5916 30.9503L80.1961 31.0527L79.7866 31.1375L79.3946 31.2116L78.9992 31.2681L78.6037 31.314L78.2083 31.3458L77.827 31.3634L77.4456 31.367L35.1711 31.3422ZM53.5419 0.881836L53.2842 0.88537L52.8852 0.90302L52.4121 0.924204L51.9072 0.970107L51.4588 1.04073L51.1057 1.14311L50.9291 1.26669L49.8875 2.9968L49.7004 3.35341L49.6616 3.58645L49.7463 3.80182L49.8558 3.96425L50.0217 4.04545L50.2936 4.0843L50.742 4.09135L83.2115 4.14431L83.4586 4.14079L83.7199 4.15138L83.9635 4.16197L84.2213 4.17257L84.4826 4.18316L84.7403 4.20788L84.9875 4.23258L85.2593 4.27143L85.5171 4.29615L85.7748 4.33498L86.022 4.38442L86.2833 4.43738L86.541 4.4868L86.7882 4.55037L87.0459 4.61744L87.2966 4.68101L87.5402 4.75868L87.7733 4.85048L88.0063 4.94582L88.2394 5.03761L88.7584 5.28831L89.2527 5.59549L89.7329 5.94504L90.199 6.3193L90.6297 6.73594L91.0428 7.18082L91.4171 7.65395L91.7772 8.16593L92.0985 8.69555L92.3916 9.23577L92.6564 9.79011L92.8824 10.3762L93.066 10.9588L93.2249 11.559L93.3449 12.1558L93.4191 12.756L93.4544 13.3668L93.4332 13.9529L93.3873 14.5391L93.2849 15.1252L92.6635 17.9781L92.6246 18.2252L92.6811 18.3735L92.8577 18.4406L93.2002 18.4512L116.087 18.6631L116.359 18.6595L116.56 18.6136L116.723 18.5148L116.871 18.3488L117.03 18.0911L126.153 2.29417L126.259 2.08585L126.312 1.87046L126.309 1.66568L126.249 1.47501L126.111 1.34084L125.892 1.25964L124.882 1.18902L123.848 1.16077L122.838 1.14665L53.5419 0.881836Z" fill="#F5F5F5"/>
<path d="M137.734 84.1096L137.453 84.1703L137.173 84.2538L136.9 84.3625L136.643 84.4775L136.386 84.6258L136.147 84.7826L135.915 84.9539L135.708 85.1504L135.508 85.3531L135.334 85.5725L135.186 85.8087L135.059 86.0532L134.956 86.3123L134.885 86.5715L134.839 86.8452L134.835 87.1274L134.862 87.4178L134.923 87.7083L135.023 88.0134L135.09 88.1639L135.163 88.3102L135.245 88.4544L135.336 88.5986L135.433 88.7344L135.533 88.8619L135.637 88.9894L135.752 89.1148L135.859 89.2423L135.974 89.3697L136.089 89.4889L136.204 89.6142L136.319 89.7334L136.434 89.8609L136.549 89.9883L136.653 90.1137L136.753 90.2517L136.85 90.3875L136.95 90.5233L137.033 90.6696L137.132 90.8702L137.205 91.0709L137.249 91.2715L137.276 91.4637L137.278 91.6581L137.257 91.842L137.219 92.0196L137.159 92.1994L137.079 92.3707L136.985 92.5254L136.875 92.6717L136.739 92.8096L136.603 92.9329L136.444 93.0478L136.275 93.1482L136.097 93.2317L135.905 93.2986L135.713 93.3488L135.504 93.3759L135.293 93.3948L135.084 93.3801L134.881 93.3592L134.695 93.3112L134.509 93.2568L134.338 93.1858L134.177 93.1001L134.022 93.0144L133.867 92.9204L133.729 92.8159L133.591 92.7114L133.462 92.6069L133.332 92.5024L133.209 92.4L133.096 92.3039L132.973 92.2182L132.868 92.1388L132.753 92.0761L132.649 92.0196L132.544 91.982L132.44 91.959L132.223 91.9695L132.055 92.0761L131.943 92.2391L131.857 92.4L131.796 92.5546L131.759 92.6988L131.742 92.8368L131.744 92.9747L131.771 93.1022L131.813 93.2296L131.872 93.3488L131.945 93.4616L132.035 93.5661L132.133 93.6706L132.248 93.7751L132.369 93.8691L132.501 93.9569L132.639 94.0447L132.787 94.1241L132.933 94.2014L133.086 94.2808L133.24 94.3519L133.477 94.4543L133.719 94.5379L133.961 94.6173L134.206 94.6863L134.457 94.7469L134.697 94.7928L134.948 94.8305L135.199 94.8534L135.439 94.8576L135.69 94.8555L135.93 94.8367L136.179 94.8012L136.421 94.7573L136.655 94.6884L136.895 94.6152L137.127 94.5233L137.353 94.4083L137.579 94.2829L137.794 94.145L138.009 93.9799L138.235 93.7855L138.434 93.5807L138.615 93.3697L138.766 93.1419L138.9 92.9162L139.017 92.68L139.102 92.4355L139.173 92.1931L139.219 91.9444L139.247 91.6936L139.251 91.4345L139.232 91.1858L139.196 90.9267L139.136 90.678L139.061 90.4209L138.96 90.1722L138.845 89.9256L138.707 89.6853L138.551 89.445L138.369 89.213L138.279 89.119L138.189 89.0145L138.091 88.91L137.993 88.8055L137.886 88.701L137.782 88.5881L137.677 88.4774L137.579 88.3645L137.472 88.2454L137.374 88.1347L137.284 88.0134L137.194 87.8881L137.121 87.7668L137.046 87.6394L136.987 87.5035L136.937 87.374L136.902 87.2298L136.877 87.0918L136.866 86.9476L136.872 86.8013L136.898 86.6634L136.935 86.5338L136.99 86.4043L137.052 86.2914L137.132 86.1848L137.211 86.0887L137.307 85.9989L137.412 85.9236L137.522 85.8505L137.644 85.7857L137.763 85.7355L137.892 85.6937L138.02 85.6603L138.158 85.6331L138.285 85.6164L138.423 85.606L138.561 85.6122L138.691 85.6269L138.818 85.6498L138.948 85.6791L139.159 85.7585L139.353 85.8609L139.547 85.9863L139.727 86.1222L139.899 86.2726L140.07 86.4147L140.239 86.5652L140.312 86.63L140.394 86.6676L140.467 86.6989L140.549 86.7219L140.62 86.7282H140.701L140.772 86.7115L140.843 86.6864L140.914 86.6592L140.979 86.6195L141.042 86.5694L141.106 86.5109L141.161 86.4544L141.217 86.3896L141.265 86.3249L141.313 86.2517L141.351 86.1702L141.391 86.0971L141.445 85.9111L141.441 85.7334L141.407 85.5579L141.326 85.397L141.211 85.2382L141.065 85.0877L140.885 84.9456L140.682 84.8202L140.463 84.6948L140.237 84.584L139.995 84.4733L139.744 84.3897L139.485 84.304L139.234 84.2329L138.992 84.1723L138.766 84.1264L138.549 84.0887L138.346 84.0679L138.168 84.0616L138.022 84.072L137.734 84.1096ZM126.074 89.3154L126.248 88.9998L126.444 88.6676L126.666 88.3415L126.904 88.0176L127.174 87.7L127.454 87.3969L127.757 87.096L128.076 86.816L128.411 86.561L128.754 86.3249L129.107 86.1096L129.475 85.9278L129.842 85.7711L130.21 85.6603L130.59 85.5767L130.969 85.5391L131.349 85.5516L131.727 85.6122L132.099 85.7125L132.294 85.7899L132.455 85.8839L132.603 85.978L132.724 86.0824L132.839 86.1953L132.937 86.3061L133.027 86.4252L133.125 86.5527L133.224 86.6801L133.324 86.816L133.437 86.9435L133.568 87.0793L133.706 87.1984L133.844 87.2214L134.053 87.1608L134.181 87.096L134.3 86.9811L134.411 86.8264L134.515 86.6634L134.595 86.4941L134.647 86.3228L134.678 86.1848L134.676 86.072L134.659 85.9508L134.626 85.8379L134.576 85.7334L134.517 85.6206L134.45 85.5161L134.369 85.4116L134.279 85.3176L134.181 85.2214L134.083 85.1358L133.968 85.048L133.863 84.9602L133.748 84.8808L133.627 84.8097L133.512 84.7387L133.397 84.6676L133.282 84.6112L133.178 84.5569L133.082 84.5088L132.983 84.4607L132.505 84.281L132.02 84.1577L131.529 84.0825L131.036 84.0553L130.536 84.0867L130.037 84.1577L129.546 84.2685L129.065 84.4189L128.584 84.6112L128.118 84.8348L127.663 85.0898L127.224 85.3698L126.808 85.6812L126.409 86.0156L126.033 86.3667L125.684 86.7428L125.358 87.1336L125.067 87.5328L124.806 87.9466L124.584 88.3687L124.451 88.6529L124.334 88.9434L124.219 89.2444L124.116 89.5599L124.022 89.8734L123.945 90.1973L123.884 90.5212L123.84 90.8452L123.813 91.167L123.807 91.4909L123.828 91.8148L123.863 92.1283L123.932 92.4418L124.016 92.7385L124.141 93.029L124.29 93.3091L124.461 93.5745L124.674 93.8294L124.919 94.0614L125.205 94.2746L125.416 94.4104L125.652 94.5358L125.92 94.6445L126.204 94.7552L126.503 94.8555L126.827 94.9329L127.151 95.0018L127.489 95.0541L127.819 95.0896L128.158 95.1021L128.482 95.0896L128.804 95.0624L129.109 95.0018L129.399 94.9182L129.663 94.8033L129.911 94.6549L130.118 94.4731L130.3 94.262L130.442 94.0092L130.542 93.7187L130.574 93.5494L130.572 93.4533L130.507 93.3968L130.386 93.3676L130.248 93.3446L130.11 93.3383L129.972 93.3404L129.828 93.3571L129.683 93.3738L129.537 93.401L129.393 93.4345L129.247 93.47L129.103 93.5034L128.956 93.5369L128.804 93.5724L128.659 93.5996L128.515 93.6246L128.369 93.6434L128.223 93.6518L128.079 93.6539L127.932 93.6476L127.619 93.5954L127.328 93.5264L127.061 93.424L126.816 93.3049L126.597 93.1711L126.402 93.0207L126.223 92.8451L126.074 92.6529L125.943 92.4522L125.836 92.237L125.753 92.0029L125.686 91.771L125.642 91.5223L125.623 91.2631L125.627 90.9977L125.648 90.7302L125.686 90.4627L125.746 90.189L125.824 89.9131L125.926 89.6372L126.074 89.3154ZM117.527 90.6822L117.448 90.7866L117.351 90.8452L117.255 90.8556L117.151 90.8243L117.053 90.7678L116.971 90.6801L116.906 90.5756L113.93 84.5339L113.88 84.4461L113.83 84.3751L113.774 84.3124L113.709 84.2727L113.644 84.2413L113.579 84.2183L113.515 84.2121H113.45L113.387 84.2288L113.316 84.2455L113.251 84.2768L113.188 84.3186L113.124 84.3583L113.069 84.4169L113.013 84.4733L112.957 84.5381L112.908 84.6049L112.86 84.676L108.119 93.2234L107.97 93.5139L107.83 93.8378L107.744 94.1429L107.738 94.2892L107.755 94.3853L107.811 94.4418L107.926 94.4898L108.096 94.5191L108.192 94.5253L108.29 94.54L108.403 94.5462L108.516 94.5442L108.631 94.5504L108.75 94.5421L108.871 94.5316L108.992 94.5149L109.105 94.4815L109.218 94.448L109.322 94.4062L109.418 94.3561L109.5 94.2913L109.579 94.2077L109.636 94.1262L112.98 88.1347L113.067 88.0385L113.188 88.0114L113.31 88.0427L113.4 88.1367L116.426 94.1868L116.465 94.2579L116.515 94.331L116.566 94.3937L116.616 94.4564L116.674 94.5044L116.739 94.5442L116.796 94.5818L116.86 94.6068L116.925 94.6298L116.99 94.6361H117.053L117.117 94.6277L117.18 94.611L117.245 94.586L117.31 94.5442L117.364 94.4961L117.42 94.4376L117.477 94.3644L117.525 94.2829L122.833 84.6718L122.896 84.5506L122.919 84.4545L122.894 84.3834L122.81 84.3019L122.672 84.2162L122.584 84.1682L122.494 84.1285L122.396 84.0992L122.292 84.0762L122.187 84.0595L122.083 84.0532L121.978 84.0553L121.874 84.0658L121.759 84.0825L121.654 84.0992L121.55 84.1326L121.454 84.1661L121.349 84.2079L121.261 84.258L121.165 84.3165L121.086 84.3751L121.007 84.4482L120.942 84.513L120.879 84.5945L120.823 84.676L117.527 90.6822ZM118.798 93.7918L118.741 93.9047L118.712 94.0196L118.706 94.1241L118.722 94.2119L118.773 94.2996L118.837 94.3707L118.936 94.425L119.057 94.4627L119.145 94.4794L119.234 94.4961L119.322 94.5107L119.42 94.517L119.516 94.5149L119.621 94.5212L119.717 94.5128L119.822 94.5044L119.918 94.4877L120.014 94.471L120.11 94.4376L120.198 94.4041L120.286 94.3644L120.367 94.3143L120.438 94.2558L120.509 94.1972L120.563 94.1241L120.62 94.0426L125.738 84.8306L125.801 84.6676L125.79 84.5088L125.732 84.3479L125.627 84.2371L125.529 84.1807L125.433 84.1326L125.328 84.1034L125.224 84.0804L125.111 84.0637L125.006 84.0658L124.894 84.0679L124.779 84.0846L124.666 84.1096L124.561 84.1431L124.448 84.1849L124.344 84.2267L124.25 84.2852L124.154 84.3416L124.066 84.4148L123.978 84.4816L123.899 84.5631L123.828 84.6467L123.765 84.7282L123.709 84.8181L118.798 93.7918ZM80.9759 93.4031L81.0072 93.2735L80.9404 93.1293L80.8171 93.0248L80.6812 93.0123L79.1954 93.424L78.9467 93.4742L78.7043 93.5013L78.4639 93.5055L78.2299 93.4825L77.9937 93.4366L77.768 93.3676L77.5486 93.2819L77.3375 93.1795L77.1432 93.052L76.9551 92.9099L76.7858 92.7594L76.6374 92.5839L76.4995 92.4L76.3845 92.1994L76.2926 91.9925L76.2174 91.7668L76.1756 91.5327L76.1484 91.2986L76.1526 91.05L76.1902 90.7992L76.2571 90.4753L76.3511 90.1597L76.4619 89.8441L76.5935 89.5369L76.7356 89.2276L76.8945 88.9371L77.0679 88.6467L77.2581 88.3624L77.4629 88.0845L77.6781 87.8254L77.908 87.5641L78.1463 87.328L78.3929 87.1002L78.6562 86.8787L78.9279 86.6822L79.2079 86.4941L79.4963 86.3207L79.793 86.1639L80.0898 86.0302L80.3928 85.9153L80.5955 85.8484L80.7962 85.7982L81.0052 85.7481L81.2058 85.7125L81.4085 85.6854L81.6112 85.6666L81.8118 85.6645L82.0062 85.6791L82.1984 85.7L82.3844 85.7376L82.5704 85.7836L82.7481 85.8463L82.9278 85.932L83.0887 86.026L83.2434 86.1368L83.3917 86.2726L83.5297 86.4168L83.6613 86.584L83.7763 86.7763L83.8828 86.9769L83.9978 87.1127L84.1775 87.1754L84.3698 87.165L84.5223 87.0584L84.7585 86.7554L84.9319 86.4712L85.0406 86.1974L85.0866 85.9466L85.0845 85.7042L85.0239 85.4785L84.9236 85.2779L84.7856 85.0856L84.6143 84.9101L84.4011 84.7512L84.165 84.6091L83.9142 84.4837L83.6383 84.3751L83.3541 84.281L83.0636 84.2037L82.7648 84.1514L82.4722 84.1076L82.1817 84.0804L81.9059 84.0658L81.6467 84.0699L81.2768 84.1076L80.9069 84.1535L80.5454 84.2225L80.2006 84.3165L79.8537 84.4169L79.5172 84.5422L79.1891 84.676L78.8673 84.8348L78.5538 85.0062L78.2508 85.188L77.954 85.3928L77.6677 85.606L77.3877 85.8254L77.116 86.0636L76.861 86.3165L76.6061 86.5756L76.3678 86.8452L76.1296 87.1315L75.9081 87.4158L75.6928 87.7167L75.511 87.9863L75.3375 88.2705L75.1724 88.5714L75.0136 88.8724L74.8652 89.1879L74.7398 89.5035L74.6145 89.8274L74.5121 90.1576L74.4347 90.4899L74.3741 90.8284L74.3302 91.1607L74.3177 91.4909L74.3302 91.8211L74.3679 92.1534L74.4347 92.4669L74.5371 92.7887L74.6688 93.0938L74.8339 93.3885L75.0387 93.6769L75.2853 93.9485L75.4316 94.0907L75.5883 94.2098L75.7597 94.3289L75.9311 94.4313L76.1108 94.517L76.2884 94.5964L76.4744 94.6674L76.6688 94.7218L76.861 94.7678L77.0637 94.8137L77.2665 94.843L77.4692 94.8639L77.6719 94.8785L77.8746 94.8932L78.0836 94.8994L78.2863 94.8973L78.489 94.8952L78.6896 94.8827L78.8819 94.866L79.0762 94.8472L79.2037 94.8388L79.3417 94.8284L79.4879 94.8116L79.6405 94.7845L79.793 94.7594L79.9372 94.7155L80.0731 94.657L80.1943 94.5839L80.2988 94.5024L80.3866 94.3874L80.9759 93.4031ZM87.074 84.1201L86.8713 84.1222L86.7187 84.1389L86.6059 84.1661L86.5181 84.2058L86.4471 84.2727L86.3906 84.3604L86.33 84.4837L86.0061 85.2047L85.9351 85.3761L85.9121 85.4889L85.9371 85.5537L86.027 85.5913L86.1733 85.606L87.4794 85.6958L87.6738 85.7251L87.7636 85.7961L87.7971 85.9675L87.7762 86.2329L87.6926 86.492L83.933 92.9622L83.7449 93.353L83.5735 93.7563L83.5025 93.9924L83.5109 94.1304L83.6174 94.2181L83.8431 94.2787L83.9309 94.2955L84.0291 94.3101L84.1169 94.3268L84.213 94.3247L84.3175 94.331L84.4137 94.3289L84.5098 94.3205L84.6059 94.3122L84.7021 94.2955L84.7919 94.2787L84.886 94.2453L84.9758 94.2119L85.0552 94.1701L85.1367 94.1199L85.2078 94.0635L85.2788 93.9966L85.3332 93.9256L85.3896 93.8357L89.5818 86.5861L89.8117 86.2684L90.0666 85.9759L90.2255 85.8379L90.4177 85.7711L90.587 85.7439L90.7563 85.7334L90.9172 85.723L91.0781 85.7209L91.2369 85.7188L91.3916 85.7167L91.5442 85.7146L91.6967 85.7042L91.843 85.6958L91.9788 85.6791L92.1168 85.6436L92.2463 85.6101L92.3655 85.5516L92.4846 85.4785L92.5974 85.3886L92.7019 85.282L92.796 85.1525L92.8837 84.9978L92.9611 84.8202L93.0321 84.6091L93.0551 84.4482L93.0217 84.3207L92.9318 84.2392L92.7521 84.1682L92.3801 84.0929L91.9684 84.0741L91.5797 84.0699L87.074 84.1201ZM71.8538 84.1117L71.7493 84.1222L71.6532 84.1305L71.5738 84.164L71.5027 84.2037L71.4212 84.2768L71.3502 84.3751L71.2645 84.5046L71.16 84.6655L71.0429 84.8683L66.0629 93.6915L66.0023 93.8211L65.9772 93.9172L65.9939 93.9987L66.0671 94.0865L66.1966 94.191L66.3116 94.262L66.4328 94.3101L70.5602 94.2599L70.6563 94.2579L70.7525 94.2328L70.8465 94.1993L70.9426 94.1596L71.0388 94.1095L71.1265 94.0447L71.208 93.9799L71.2875 93.9068L71.3669 93.8232L71.4296 93.7333L71.4944 93.6434L71.5403 93.5557L71.5884 93.4658L71.6197 93.3676L71.6427 93.2798L71.6574 93.0854L71.6156 92.9663L71.5006 92.8953L71.3146 92.866L69.1308 92.7803L69.0158 92.7427L68.9343 92.6487L68.8842 92.5108L68.8674 92.3728L68.8821 92.2349L68.9197 92.12L69.9479 90.3102L70.0649 90.0991L70.1694 89.9695L70.2655 89.8859L70.37 89.8525L70.5079 89.8441L73.3459 89.8086L73.4588 89.7835L73.5779 89.7167L73.6908 89.6184L73.8015 89.4951L73.906 89.3572L74.0001 89.2088L74.0795 89.0709L74.1338 88.9413L74.1714 88.8368L74.2028 88.6843L74.1923 88.5881L74.1108 88.5066L73.9645 88.4272L73.8099 88.3729L73.649 88.3436L73.463 88.3144L73.2707 88.2998L73.0617 88.2935L72.8506 88.2956L72.6333 88.2998L72.416 88.3018L72.2153 88.306L72.0126 88.2998L71.8183 88.2768L71.649 88.2538L71.4944 88.2162L71.4233 88.1514L71.4128 88.0323L71.4505 87.8379L71.4734 87.748L71.5111 87.6519L71.5487 87.5391L71.6051 87.4158L71.6678 87.2862L71.7389 87.1483L71.8099 87.002L71.8893 86.8557L71.9771 86.7073L72.0711 86.561L72.1568 86.4231L72.2613 86.2852L72.3554 86.1619L72.4599 86.0407L72.5539 85.9341L72.6584 85.8442L72.7545 85.7711L72.8506 85.7125L72.9468 85.6791L73.0346 85.6707L75.6134 85.6394L75.7262 85.6227L75.8224 85.5955L75.9269 85.5454L76.0126 85.4889L76.1024 85.4158L76.1818 85.3343L76.2612 85.2444L76.3239 85.1483L76.3866 85.0501L76.441 84.9456L76.489 84.8411L76.5371 84.7429L76.5684 84.6384L76.5977 84.5485L76.6291 84.3939L76.5873 84.2998L76.466 84.2037L76.2403 84.118L75.9728 84.0741L75.7221 84.0595L71.8538 84.1117ZM60.2093 93.6225L60.1549 93.7375L60.1382 93.8482L60.1466 93.9527L60.18 94.0489L60.2302 94.1304L60.3117 94.2014L60.4015 94.2495L60.506 94.2871L60.6273 94.2934L64.368 94.3101L64.4893 94.3017L64.6021 94.2683L64.715 94.2098L64.8194 94.1429L64.9156 94.0614L65.0013 93.9632L65.0828 93.865L65.1538 93.7605L65.2249 93.656L65.2792 93.5515L65.3273 93.447L65.3879 93.2276L65.3607 93.075L65.2458 92.9245L65.1245 92.8702L63.3169 92.7699L63.1956 92.749L63.1058 92.6842L63.0556 92.5964L63.0285 92.4919L63.0347 92.3707L63.0577 92.2495L63.087 92.1283L63.135 92.0134L63.1831 91.9172L67.2415 84.9268L67.298 84.8035L67.344 84.676L67.3669 84.5381L67.3565 84.4001L67.3063 84.2956L67.2018 84.2079L67.1057 84.1703L67.0075 84.1389L66.903 84.1096L66.7985 84.0929L66.694 84.0783L66.5791 84.0616L66.4662 84.0637L66.3534 84.0658L66.2384 84.0741L66.1339 84.0908L66.0211 84.118L65.9166 84.1514L65.8121 84.1849L65.716 84.235L65.6199 84.2852L65.5321 84.3437L65.4527 84.4169L65.3816 84.49L65.3105 84.5715L65.2562 84.6614L60.2093 93.6225ZM59.3399 84.118L59.2354 84.1264L59.1456 84.1431L59.0661 84.1765L58.9951 84.2329L58.9136 84.3249L58.8279 84.4545L58.7234 84.6258L58.6064 84.8369L53.666 93.6518L53.6117 93.7563L53.5803 93.8545L53.5741 93.9423L53.5762 94.0238L53.5929 94.0969L53.6326 94.1596L53.6723 94.214L53.7371 94.2641L53.8019 94.3017L53.8855 94.3331L53.9732 94.3477L54.0694 94.3644L54.1739 94.3707L58.5583 94.3164L58.6879 94.2996L58.8007 94.2599L58.9052 94.1931L58.9993 94.1116L59.0871 94.0133L59.1665 93.9088L59.2292 93.7939L59.2919 93.6727L59.3399 93.5578L59.3775 93.4533L59.4005 93.3404L59.3984 93.2255L59.365 93.1314L59.3148 93.0416L59.2417 92.9622L59.1518 92.9141L59.0473 92.8765L58.9261 92.8702L56.8635 92.8953L56.6942 92.8827L56.5897 92.8347L56.5082 92.7302L56.4831 92.6821L56.4246 92.563L56.4476 92.4251L56.55 92.2077L57.3379 90.7532L57.4006 90.632L57.4862 90.4941L57.5907 90.3415L57.7099 90.1848L57.829 90.0468L57.9648 89.9319L58.1006 89.8504L58.2469 89.8232L61.0849 89.7877L61.2124 89.771L61.3399 89.7125L61.4527 89.6289L61.5635 89.5327L61.6596 89.4095L61.7453 89.2882L61.8164 89.1566L61.8791 89.0354L61.9167 88.9142L61.9459 88.7929L61.9376 88.6655L61.9041 88.5443L61.8289 88.4481L61.716 88.3854L61.5781 88.3562L59.3838 88.3018L59.2626 88.2872L59.1748 88.2391L59.11 88.1827L59.0599 88.1033L59.0327 88.0134L59.0243 87.9173L59.0306 87.8233L59.0536 87.7167L59.0912 87.6206L59.1393 87.5307L59.969 86.0845L60.063 85.9236L60.1508 85.8087L60.2385 85.7355L60.343 85.6937L60.4705 85.6687L60.6419 85.6645L63.6157 85.629L63.7348 85.5788L63.8707 85.4639L64.0149 85.2946L64.157 85.1065L64.2761 84.9121L64.3618 84.7408L64.4098 84.6196L64.4245 84.4984L64.3994 84.3939L64.3492 84.2998L64.2677 84.2288L64.1779 84.1661L64.0629 84.118L63.9501 84.0867L63.8289 84.072L63.7139 84.0658L59.3399 84.118ZM49.0224 84.1326L48.9096 84.141L48.7967 84.1828L48.6923 84.2413L48.5961 84.3145L48.5084 84.4043L48.4289 84.5025L48.3495 84.6154L48.2868 84.7303L48.2325 84.8453L48.1761 84.9581L48.1384 85.0626L48.1071 85.1608L48.0611 85.3447L48.0548 85.4659L48.082 85.5307L48.1468 85.5683L48.268 85.5851L49.7602 85.7105L49.9294 85.7481L50.036 85.8923L50.0527 85.9173L50.0966 86.0532L50.0653 86.2078L49.9315 86.467L45.8438 93.6936L45.7581 93.8629L45.7519 93.9841L45.802 94.1032L45.8438 94.1743L45.9253 94.2787L46.0235 94.3247L46.1845 94.3414L47.0873 94.3289L47.2147 94.3205L47.3192 94.3038L47.407 94.2704L47.4885 94.2056L47.5679 94.1157L47.6473 93.9924L47.7497 93.8127L52.0339 86.2475L52.1614 86.0678L52.2972 85.9194L52.4477 85.8129L52.6086 85.7293L52.7779 85.6791L52.9618 85.6373L53.1457 85.6185L53.3317 85.6081L53.5239 85.5976L53.7162 85.5955L53.9085 85.5851L54.0945 85.5663L54.2784 85.5328L54.456 85.491L54.6253 85.4158L54.7757 85.3176L54.9283 85.1859L55.0537 85.0145L55.1707 84.8035L55.2731 84.5527L55.3024 84.3667L55.2773 84.2476L55.1874 84.1912L54.9513 84.1368L54.8217 84.0908L54.6942 84.0595L49.0224 84.1326ZM8.64908 93.7772L8.60101 93.9005L8.58638 94.005L8.61355 94.1095L8.65326 94.191L8.7264 94.262L8.81626 94.3185L8.92075 94.3561L9.0336 94.3623L9.93641 94.3498L10.0743 94.3414L10.1788 94.308L10.275 94.2432L10.369 94.1116L10.4798 93.9256L12.6197 90.2705L12.7221 90.0907L12.8183 89.9612L12.8977 89.8797L12.9855 89.8295L13.0816 89.8128L13.2112 89.8023L16.2017 89.7647L16.4692 89.8107L16.7283 89.888L16.9311 89.9591L17.0042 90.0468L17.0063 90.2078L16.9457 90.4815L16.837 90.7574L16.7033 91.0019L15.1317 93.6978L15.0774 93.8273L15.0523 93.9569L15.0711 94.0844L15.1296 94.1889L15.2258 94.2683L15.3553 94.3164L15.4515 94.3226L15.5476 94.3393L15.6625 94.3456L15.7754 94.3519L15.8966 94.3582L16.0178 94.3477L16.1369 94.3393L16.2519 94.331L16.371 94.3038L16.4838 94.2704L16.5883 94.2286L16.6824 94.1784L16.7722 94.1137L16.8433 94.0405L16.9081 93.959L22.2601 84.7261L22.3082 84.6112L22.3312 84.5151L22.3291 84.4189L22.304 84.3312L22.2538 84.2497L22.1891 84.187L22.1055 84.1305L22.0177 84.0929L21.9132 84.0699L21.8087 84.0637L21.0334 84.0741L20.8892 84.0762L20.7847 84.1013L20.6969 84.1431L20.6092 84.2246L20.5297 84.3395L20.4252 84.5025L18.5402 87.7648L18.4357 87.9027L18.2769 88.0594L18.0951 88.2057L17.9028 88.306L17.7336 88.3478L14.5069 88.3227L14.323 88.2851L14.185 88.1744L14.1349 88.0218L14.1495 87.7961L14.2268 87.5223L14.3522 87.2632L15.8673 84.7136L15.9384 84.5276L15.9217 84.3667L15.8151 84.2476L15.6124 84.1619L15.5162 84.1305L15.4201 84.1138L15.3219 84.0992L15.2174 84.0825L15.1213 84.0846L15.023 84.0783L14.9269 84.0867L14.8308 84.0971L14.7347 84.1138L14.6385 84.1389L14.5507 84.1723L14.4546 84.2058L14.3752 84.2476L14.2853 84.2873L14.2059 84.3458L14.1349 84.4022L14.0638 84.4691L14.0011 84.5401L13.9384 84.6237L13.882 84.7136L8.64908 93.7772ZM35.4344 93.2903L35.2651 93.47L35.1167 93.6727L34.9976 93.8838L34.96 94.0301L35.0269 94.1178L35.2191 94.1784L35.3153 94.2014L35.4365 94.2244L35.5744 94.2307L35.7291 94.2453L35.89 94.2432L36.0592 94.2411L36.2285 94.2369L36.4062 94.2202L36.5671 94.2035L36.728 94.1763L36.8659 94.1408L36.9934 94.1011L37.0979 94.0509L37.1773 93.9945L38.916 92.3436L39.0519 92.2286L39.1794 92.1617L39.3403 92.1283L39.5806 92.1179L42.032 92.0886L42.1845 92.0949L42.3308 92.1241L42.4604 92.1785L42.5649 92.2495L42.6547 92.3624L42.7132 92.4982L42.73 92.563L42.7321 92.6445V92.7323L42.7342 92.8305L42.7279 92.9433L42.7112 93.0478L42.7049 93.169L42.6986 93.284L42.6924 93.3968L42.6945 93.518L42.7028 93.6225L42.7132 93.7354L42.73 93.8315L42.7634 93.9193L42.8031 94.0008L42.8533 94.0635L42.9181 94.1199L42.9996 94.1575L43.104 94.1743L43.219 94.1805L43.9922 94.1137L44.1448 94.0969L44.2576 94.0698L44.3287 94.0196L44.3851 93.9381L44.4144 93.8232L44.4436 93.6622L45.9107 84.4628L45.917 84.3416L45.9002 84.2455L45.8501 84.164L45.7853 84.1096L45.7038 84.0783L45.6139 84.0616L45.5178 84.0637L45.4217 84.0804L45.3255 84.1138L45.2378 84.164L45.15 84.2309L35.4344 93.2903ZM41.2065 90.7198L41.1083 90.5944L41.0811 90.4335L41.1522 90.3039L42.7383 88.7449L42.824 88.6634L42.9201 88.5902L43.0246 88.5338L43.1208 88.5004L43.2106 88.4899L43.2817 88.5296L43.3318 88.609L43.3423 88.7553L43.336 88.9476L43.3214 89.1649L43.3068 89.3906L43.2796 89.6247L43.242 89.8588L43.1897 90.0782L43.1187 90.2705L43.0309 90.4418L42.8951 90.5902L42.7195 90.7051L42.5273 90.7553L41.3423 90.772L41.2065 90.7198ZM17.5998 93.9068L17.5141 94.0447L17.5392 94.2056L17.6395 94.3414L17.7921 94.3791L19.2257 94.3623L19.395 94.3456L19.5392 94.2787L19.7314 94.1157L21.5078 92.4815L21.6666 92.3582L21.8108 92.2997L22.0365 92.2892L24.6154 92.2579L24.8745 92.3185L25.1023 92.469L25.2068 92.6361L25.2569 92.8221L25.1253 93.8545L25.119 93.9757L25.1127 94.0719L25.1211 94.1534L25.1378 94.2181L25.1775 94.2558L25.2277 94.2955L25.2987 94.3185L25.3949 94.3247L25.5244 94.331L25.6707 94.3289L26.444 94.3185L26.5986 94.3164L26.7115 94.2913L26.7909 94.2411L26.8473 94.1596L26.8849 94.0321L26.9142 93.8524L28.4251 84.7805L28.4397 84.6843L28.4376 84.5715V84.467L28.4209 84.3625L28.3875 84.2685L28.3457 84.187L28.2809 84.1243L28.1994 84.0762L28.1012 84.0595L27.9737 84.0762L27.8379 84.1347L27.7167 84.2183L27.4533 84.4315L27.1984 84.6363L17.5998 93.9068ZM23.7334 90.4523L23.7878 90.3875L23.9153 90.2245L24.0511 90.0636L24.1849 89.9006L24.3374 89.7375L24.4879 89.5745L24.6467 89.4115L24.816 89.2569L24.9832 89.1169L25.1524 88.9789L25.3196 88.8556L25.4889 88.7491L25.6644 88.6508L25.746 88.6341L25.8107 88.7052L25.8275 88.818L25.8212 89.0207L25.8066 89.2235L25.8024 89.4157L25.7815 89.6017L25.7668 89.7793L25.7355 89.9507L25.7062 90.1116L25.6603 90.2642L25.6059 90.4021L25.5349 90.5233L25.4555 90.6383L25.3677 90.7365L25.2548 90.818L25.1357 90.8849L24.9915 90.935L24.8222 90.9622L24.6446 90.9726L24.4356 90.9601L24.2099 90.9308L23.9612 90.8765L23.7752 90.8222L23.677 90.7595L23.6603 90.6717L23.6979 90.5254L23.7334 90.4523ZM105.233 84.0846L104.815 84.1222L104.403 84.1912L103.985 84.2852L103.575 84.3939L103.174 84.536L102.773 84.6948L102.388 84.8683L102.004 85.0668L101.625 85.28L101.268 85.5182L100.923 85.7648L100.589 86.0344L100.278 86.3186L99.9745 86.6133L99.6966 86.9309L99.4353 87.2548L99.1971 87.5892L98.9839 87.9466L98.7938 88.3039L98.5681 88.8306L98.38 89.3488L98.2504 89.8588L98.1668 90.3603L98.1229 90.8431L98.1292 91.3195L98.1814 91.771L98.2838 92.2056L98.4343 92.6152L98.6161 93.0081L98.8523 93.3676L99.1323 93.6936L99.45 93.9966L99.8073 94.2662L100.204 94.494L100.65 94.6821L101.128 94.8388L101.653 94.9433L102.209 95.0102L102.806 95.0269L103.218 95.0039L103.638 94.9433L104.056 94.8493L104.472 94.7218L104.89 94.5734L105.299 94.3811L105.709 94.1763L106.11 93.9381L106.493 93.6831L106.869 93.4031L107.228 93.1084L107.563 92.7908L107.889 92.4564L108.19 92.1158L108.47 91.7563L108.714 91.3906L108.944 91.0103L109.132 90.6299L109.297 90.2391L109.423 89.8504L109.529 89.4053L109.613 88.9601L109.673 88.5234L109.692 88.0887L109.688 87.677L109.65 87.2653L109.581 86.8787L109.481 86.5004L109.354 86.1472L109.189 85.8129L108.992 85.4994L108.756 85.211L108.495 84.9498L108.194 84.7199L107.862 84.5213L107.487 84.3562L107.084 84.2246L106.639 84.1243L106.16 84.0741L105.644 84.0574L105.233 84.0846ZM104.432 85.7063L104.746 85.6457L105.051 85.6081L105.358 85.5976L105.657 85.6164L105.947 85.6624L106.231 85.7397L106.491 85.8338L106.741 85.9591L106.978 86.1075L107.191 86.2747L107.385 86.467L107.556 86.6822L107.705 86.9142L107.82 87.1712L107.912 87.445L107.972 87.7418L107.999 88.0552L107.995 88.3854L107.951 88.7323L107.891 89.0061L107.813 89.282L107.711 89.5641L107.602 89.84L107.469 90.1095L107.318 90.3854L107.161 90.6445L106.986 90.9037L106.804 91.1565L106.603 91.4011L106.399 91.6372L106.183 91.8566L105.954 92.0761L105.722 92.2809L105.483 92.469L105.235 92.6508L104.988 92.8138L104.731 92.9622L104.474 93.0938L104.217 93.2088L103.912 93.3237L103.592 93.4177L103.268 93.4783L102.946 93.5243L102.622 93.5431L102.3 93.539L101.987 93.5013L101.686 93.4491L101.396 93.3634L101.122 93.2547L100.863 93.121L100.635 92.9622L100.422 92.7783L100.242 92.5714L100.094 92.3331L99.9787 92.0677L99.9014 91.7772L99.8658 91.4554L99.87 91.1085L99.9202 90.7386L99.9975 90.4063L100.081 90.074L100.19 89.7501L100.315 89.4345L100.455 89.1252L100.604 88.8243L100.777 88.5338L100.959 88.2496L101.157 87.9737L101.362 87.7125L101.586 87.4596L101.824 87.2151L102.071 86.9873L102.326 86.7742L102.597 86.5694L102.886 86.3876L103.174 86.2141L103.477 86.0574L103.791 85.9173L104.112 85.792L104.432 85.7063ZM88.7396 93.4679L88.6226 93.704L88.5118 93.9799L88.4763 94.239L88.493 94.3853L88.5641 94.4647L88.7438 94.5274L88.8336 94.5504L88.9214 94.5651L89.0113 94.5818L89.1074 94.588L89.2035 94.5943L89.2997 94.586L89.3958 94.5839L89.4919 94.5671L89.5881 94.5504L89.6758 94.5253L89.772 94.4982L89.8535 94.4585L89.9412 94.4167L90.0228 94.3665L90.0938 94.3101L90.1565 94.2453L90.2192 94.1722L90.2673 94.0886L92.0666 90.9873L92.1293 90.8911L92.1941 90.818L92.2568 90.7595L92.3278 90.7198L92.3989 90.6926L92.4699 90.6842L92.5347 90.6926L92.6079 90.7219L92.6643 90.7616L92.7228 90.818L92.773 90.889L92.8127 90.9768L92.8461 91.0813L93.5922 94.0551L93.6841 94.239L93.8388 94.3979L94.0185 94.5024L94.1961 94.563L94.3905 94.6006L94.5995 94.6152L94.8106 94.6048L95.0028 94.5776L95.1867 94.517L95.3142 94.4438L95.4082 94.3143L95.4688 94.1534V94.0154L94.8377 91.33L94.8022 91.1524L94.7938 91.0312L94.8168 90.935L94.8732 90.8702L94.9673 90.8117L95.1136 90.7616L96.3173 90.3687L96.6057 90.26L96.8857 90.1116L97.1574 89.9403L97.4207 89.725L97.6673 89.4972L97.8972 89.2444L98.1125 88.9685L98.311 88.6822L98.4824 88.375L98.6328 88.0594L98.7478 87.7439L98.8418 87.4116L98.9024 87.0876L98.9296 86.7637L98.9171 86.4419L98.8648 86.1284L98.7812 85.8233L98.6496 85.5349L98.4678 85.2549L98.2462 84.9999L98.1564 84.9184L98.0581 84.839L97.9537 84.7596L97.8387 84.6885L97.7238 84.6175L97.6109 84.5548L97.4876 84.5004L97.3601 84.4461L97.2389 84.398L97.1094 84.3604L96.9798 84.3291L96.8502 84.2998L96.7227 84.2852L96.6015 84.2685L96.472 84.2706L94.4093 84.2977L94.2254 84.2998L94.0875 84.3333L93.9913 84.3834L93.9036 84.4816L93.8095 84.6363L88.7396 93.4679ZM96.1209 85.8651L96.2588 85.8714L96.38 85.9006L96.495 85.9403L96.5932 85.9947L96.6747 86.0657L96.7562 86.1451L96.8147 86.2329L96.8732 86.329L96.9129 86.4335L96.9401 86.5464L96.9673 86.6676L96.9756 86.7888L96.984 86.91L96.9777 87.0312L96.961 87.1524L96.9401 87.2716L96.915 87.3865L96.8774 87.491L96.8398 87.5955L96.7917 87.6853L96.6893 87.8567L96.5848 88.0114L96.4657 88.166L96.3487 88.3039L96.2212 88.4335L96.0853 88.5652L95.9474 88.6801L95.8032 88.7783L95.6527 88.8765L95.5002 88.958L95.3414 89.0312L95.1721 89.0981L95.0028 89.1566L94.8335 89.1984L94.6559 89.2339L94.472 89.2527L94.286 89.2611L94.1021 89.2653L93.9077 89.2506L93.7155 89.2276L93.5943 89.1817L93.5044 89.1022L93.4459 88.9894L93.4125 88.8682L93.4083 88.7303L93.4333 88.6007L93.4877 88.4795L94.9568 86.0762L95.0509 85.9466L95.1637 85.8881L95.3476 85.8693L96.1209 85.8651ZM27.6665 93.7061L27.6268 93.8023L27.5975 93.9068L27.5913 94.0113L27.608 94.1074L27.6477 94.1951L27.7062 94.2662L27.7793 94.3205L27.8755 94.3603L27.9967 94.3749L28.772 94.3665L28.9329 94.3561L29.0521 94.3393L29.1482 94.2976L29.236 94.2244L29.3154 94.1199L29.4094 93.9653L31.2338 90.8389L31.2965 90.7428L31.3592 90.6696L31.4303 90.6195L31.5013 90.586L31.5745 90.5693L31.6455 90.5756L31.7166 90.5923L31.7897 90.6299L31.8462 90.6801L31.9109 90.7344L31.9611 90.8055L32.0112 90.887L32.051 90.9747L32.0781 91.0709L32.774 93.9548L32.8158 94.1074L32.8576 94.2119L32.9161 94.285L33.0039 94.3226L33.1189 94.3373L33.2798 94.3435L34.053 94.3331L34.1491 94.3164L34.2306 94.285L34.3121 94.2349L34.3748 94.1701L34.4292 94.0886L34.4772 93.9987L34.517 93.9088L34.5399 93.8043L34.5546 93.6999L34.5608 93.6037L34.5587 93.4992L34.542 93.4115L34.517 93.3216L34.4835 93.2506L34.4104 93.1398L34.3519 93.0186L34.2871 92.8974L34.2286 92.7699L34.1784 92.6341L34.1282 92.4961L34.0781 92.3519L34.0363 92.214L33.9945 92.0698L33.9611 91.9235L33.9255 91.7793L33.9005 91.633L33.8733 91.4888L33.8566 91.3425L33.8378 91.1983L33.8294 91.0604L33.821 90.9225L33.8189 90.795L33.8336 90.632L33.8879 90.5359L34.0154 90.446L34.3184 90.306L34.6486 90.2036L34.9704 90.1095L35.2923 90.0009L35.4762 89.9173L35.6517 89.8358L35.8294 89.7375L35.9966 89.6393L36.1658 89.5327L36.3247 89.4262L36.4751 89.3112L36.6193 89.1796L36.7635 89.0563L36.8994 88.9183L37.0352 88.7804L37.1543 88.6341L37.2734 88.4795L37.3905 88.3248L37.495 88.1618L37.5994 88.0009L37.6935 87.8316L37.7875 87.6519L37.8669 87.4722L37.9464 87.2862L38.0174 87.0939L38.0634 86.8996L38.101 86.6885L38.124 86.4879L38.1303 86.2684L38.1198 86.0595L38.0926 85.8505L38.0508 85.6415L38.0007 85.4388L37.9275 85.2382L37.844 85.0543L37.7457 84.8787L37.6308 84.7199L37.4929 84.5694L37.3528 84.4419L37.1919 84.3312L37.0122 84.2371L36.8199 84.1661L36.6172 84.1201L36.3915 84.1055L33.6831 84.0574L33.4992 84.0929L33.2902 84.1932L33.098 84.3312L32.9705 84.4691L27.6665 93.7061ZM33.9339 86.1556L34.0112 86.0344L34.1073 85.9278L34.2202 85.8379L34.3393 85.7648L34.4668 85.6979L34.6047 85.6478L34.7489 85.606L34.8931 85.5892L35.0394 85.5788L35.192 85.5767L35.3383 85.5997L35.4845 85.629L35.6225 85.677L35.752 85.7314L35.8753 85.8108L35.9882 85.8985L36.0864 85.9926L36.1679 86.1138L36.2348 86.2392L36.2849 86.3855L36.3205 86.6028L36.3142 86.8118L36.2766 87.0208L36.1972 87.2318L36.0948 87.445L35.9589 87.6394L35.8085 87.8337L35.6267 88.0134L35.4344 88.1848L35.2275 88.3478L35.0018 88.4962L34.7698 88.6216L34.5295 88.7365L34.2892 88.8285L34.0488 88.9037L33.8148 88.9539L33.5807 88.981L33.3634 88.9748L33.1523 88.9518L32.96 88.8995L32.8388 88.8285L32.7469 88.7323L32.6884 88.6132L32.6716 88.4857L32.6779 88.3478L32.7322 88.2182L33.9339 86.1556ZM8.93538 89.5599L8.94165 89.445L9.01271 89.3405L9.14018 89.2109L10.5759 87.911L10.718 87.7731L10.8455 87.6101L10.95 87.4492L11.044 87.2695L11.1234 87.0835L11.184 86.8891L11.23 86.6864L11.2593 86.4837L11.2739 86.281L11.2697 86.0783L11.253 85.8776L11.2175 85.6749L11.159 85.4827L11.0921 85.2988L11.0085 85.1232L10.9019 84.9539L10.787 84.8035L10.649 84.6593L10.4944 84.5401L10.323 84.4294L10.1935 84.3667L10.0555 84.3124L9.92596 84.258L9.77967 84.2204L9.64175 84.1828L9.49545 84.1535L9.34916 84.1305L9.19452 84.1159L9.05032 84.1013L8.89568 84.0846L8.75148 84.0783L8.59892 84.072L8.45263 84.0679L8.30007 84.0699L8.15378 84.072L8.01586 84.0741L7.86957 84.0762L7.77344 84.0783H7.6773L7.57281 84.072L7.46832 84.0741L7.35338 84.0679L7.24053 84.0699L7.12768 84.072L7.01483 84.0741L6.90198 84.0825L6.78704 84.0908L6.67419 84.1076L6.5697 84.1243L6.46521 84.1514L6.36071 84.1849L6.26458 84.235L6.17681 84.2852L6.09531 84.3437L6.01589 84.4085L5.9532 84.4921L5.88841 84.5819L0.640859 93.819L0.555176 94.0113V94.1492L0.647129 94.2871L0.768336 94.3582L1.02748 94.4292L1.28662 94.4668L6.18726 94.4062L6.4046 94.3874L6.6303 94.3456L6.86436 94.2704L7.09633 94.1784L7.33667 94.053L7.56863 93.9214L7.8006 93.7646L8.02631 93.5849L8.23947 93.3948L8.44636 93.2004L8.63863 92.981L8.81208 92.7594L8.96255 92.5337L9.0963 92.2976L9.20706 92.0531L9.29274 91.8107L9.34499 91.5682L9.36589 91.3342L9.35543 91.0918L9.30528 90.8661L8.96046 89.7083L8.93538 89.5599ZM4.576 90.2726L4.66168 90.143L4.77454 90.028L4.89366 89.9382L5.03786 89.8713L5.18414 89.8128L5.34297 89.7793L5.51225 89.7605L5.68361 89.7584L5.86124 89.7731L6.03261 89.8023L6.21025 89.84L6.37952 89.8943L6.5488 89.9549L6.7118 90.0259L6.85809 90.1116L7.00438 90.1994L7.12768 90.3039L7.24262 90.4063L7.34084 90.5191L7.41399 90.632L7.46414 90.7365L7.49758 90.8577L7.52475 90.9768L7.54147 91.1064L7.54356 91.2339L7.52893 91.3634L7.51221 91.4909L7.48295 91.6205L7.44534 91.7417L7.38891 91.8566L7.33457 91.9611L7.27188 92.051L7.14649 92.2056L7.00229 92.3436L6.85809 92.4669L6.70763 92.5818L6.53835 92.68L6.37952 92.7615L6.20189 92.8368L6.02634 92.8953L5.84035 92.9559L5.65644 92.9977L5.47254 93.0248L5.28027 93.052L5.08801 93.0625L4.89366 93.0729L4.69303 93.0666L4.50077 93.0604L4.30642 93.0374L4.1037 93.0165L3.91144 92.9872L3.71708 92.958L3.53109 92.8953L3.40988 92.7845L3.40779 92.655L3.45167 92.3561L3.45794 92.285L3.47466 92.2203L4.576 90.2726ZM7.65432 85.6875L7.80688 85.6624L7.95107 85.6519L8.09736 85.6498L8.23529 85.6728L8.37322 85.6958L8.50279 85.7334L8.63236 85.7878L8.7473 85.8505L8.84343 85.9215L8.94165 86.0072L9.02315 86.1033L9.08794 86.1995L9.1381 86.3123L9.17362 86.4314L9.19034 86.5589L9.18407 86.6969L9.16108 86.8411L9.1151 86.9957L9.04405 87.1503L8.96464 87.2966L8.87687 87.4262L8.77238 87.5495L8.66789 87.654L8.55713 87.7585L8.438 87.8504L8.31052 87.9319L8.1726 88.0072L8.03467 88.0657L7.89882 88.1242L7.74627 88.1744L7.60207 88.2099L7.44951 88.2371L7.29696 88.2642L7.14231 88.2726L6.98975 88.2747L6.83719 88.2768L6.68464 88.2621L6.52999 88.2412L6.37743 88.2182L6.23115 88.1806L6.14129 88.143L6.09113 88.072L6.08277 87.9675L6.08904 87.8066L6.10576 87.7251L6.1371 87.6289L6.16636 87.5244L6.21442 87.4095L6.26876 87.2883L6.33145 87.1671L6.40251 87.0291L6.48192 86.8996L6.56134 86.77L6.64911 86.6321L6.73688 86.5004L6.82256 86.3792L6.91661 86.2559L7.00438 86.143L7.10052 86.0365L7.1862 85.9466L7.27397 85.8651L7.35547 85.8066L7.43488 85.7564L7.50594 85.723L7.65432 85.6875Z" fill="#F5F5F5"/>
</svg>
