<svg width="192" height="19" viewBox="0 0 192 19" fill="none" xmlns="http://www.w3.org/2000/svg">
<path fill-rule="evenodd" clip-rule="evenodd" d="M26.7852 11.573H19.7654V14.7318C19.7654 15.7848 19.7654 16.3815 19.9409 16.6974C19.9409 16.9782 20.0813 17.2941 20.2568 17.4696C20.5376 17.6099 20.8535 17.6099 21.4853 17.6099H21.9415V18.0662H15.7993V17.6099H16.2555C16.7118 17.6099 17.1681 17.6099 17.3085 17.4696C17.6244 17.2941 17.7648 17.1537 17.7648 16.8729C17.9052 16.557 17.9052 15.8199 17.9052 14.7669V8.30879C17.9052 7.25583 17.9052 6.65914 17.7648 6.34326C17.7648 6.06247 17.6244 5.74658 17.4489 5.74658C17.133 5.60619 16.6767 5.60618 16.08 5.60618H15.7642V5.1499H21.8713V5.60618H21.5554C20.9237 5.60618 20.4674 5.60619 20.327 5.74658C20.0111 5.74658 19.8707 6.06247 19.8707 6.34326C19.6952 6.48365 19.6952 7.25583 19.6952 8.30879V10.871H26.715V8.30879C26.715 7.25583 26.5746 6.65914 26.5746 6.34326C26.5746 6.06247 26.4342 5.74658 26.1183 5.74658C25.9779 5.60619 25.5216 5.60618 24.8898 5.60618H24.5739V5.1499H30.5407V5.60618H30.3652C29.7685 5.60618 29.3123 5.60619 28.9964 5.74658C28.856 5.74658 28.6805 6.06247 28.6805 6.34326C28.5401 6.48365 28.5401 7.25583 28.5401 8.30879V14.7669C28.5401 15.8199 28.5401 16.4166 28.6805 16.7325C28.6805 17.0133 28.8209 17.3292 28.9964 17.5047C29.3123 17.645 29.5931 17.645 30.2248 17.645H30.5407V18.1013H24.5739V17.6099H25.0302C25.4865 17.6099 25.9428 17.6099 26.0832 17.4696C26.3991 17.2941 26.5395 17.1537 26.5395 16.8729C26.5395 16.557 26.6799 15.8199 26.6799 14.7669V11.573H26.7852Z" fill="#F5F5F5"/>
<path fill-rule="evenodd" clip-rule="evenodd" d="M41.3159 17.8909H41.4563C42.9655 17.8909 44.194 17.2942 44.9662 16.2413C45.8787 15.1883 46.335 13.679 46.335 11.5731C46.335 9.60759 45.8787 7.95796 44.9662 6.905C44.194 5.85203 42.9655 5.25535 41.2808 5.25535V4.79907C43.4218 4.79907 45.1066 5.39575 46.4754 6.62421C47.8443 7.81757 48.5813 9.5023 48.5813 11.5731C48.5813 13.5386 47.8092 15.1883 46.4754 16.5571C45.247 17.7505 43.4218 18.3472 41.2808 18.3472V17.8909H41.3159ZM36.4372 11.5731C36.4372 13.679 36.7531 15.1883 37.6656 16.2413C38.4378 17.2942 39.8067 17.8909 41.351 17.8909V18.3472C39.21 18.3472 37.5252 17.7505 36.1564 16.5571C34.7875 15.1883 34.1558 13.5387 34.1558 11.4327C34.1558 9.4672 34.9279 7.81757 36.1564 6.62421C37.5252 5.43085 39.3504 4.79907 41.351 4.79907V5.25535C39.8067 5.25535 38.5782 5.85203 37.6656 6.905C36.7531 7.99306 36.4372 9.5023 36.4372 11.5731Z" fill="#F5F5F5"/>
<path fill-rule="evenodd" clip-rule="evenodd" d="M58.3037 11.4325C58.4441 11.4325 58.6196 11.257 58.7599 11.257C59.2162 11.1166 59.6725 10.8007 59.9884 10.3445C60.3043 9.74779 60.4447 9.15111 60.4447 8.51934C60.4447 7.46638 60.1288 6.5538 59.6725 6.13262C59.3566 5.81673 58.9003 5.53595 58.3037 5.53595V4.97437C58.9354 4.97437 59.5321 5.11476 59.9884 5.29025C60.7606 5.43065 61.3573 5.88693 61.8135 6.34321C62.2698 6.93989 62.5857 7.71206 62.5857 8.44914C62.5857 9.22131 62.4453 9.81799 62.1294 10.4147C61.6731 10.8709 61.2169 11.3272 60.5851 11.608C60.1288 11.7484 59.3566 11.9239 58.3037 11.9239V11.4325ZM55.9872 11.4325H56.8997H58.3037V11.8888C57.9878 12.0292 57.6719 12.0292 57.5315 12.0292H55.9872V14.7318C55.9872 15.7848 55.9872 16.3814 56.1626 16.6973C56.1626 17.0132 56.303 17.294 56.4785 17.4695C56.7944 17.6099 57.0752 17.6099 57.707 17.6099H58.1633V18.0662H52.0561V17.6099H52.5124C52.9687 17.6099 53.4249 17.6099 53.5653 17.4695C53.8812 17.294 54.0216 17.1536 54.0216 16.8728C54.0216 16.592 54.162 15.8199 54.162 14.7669V8.30874C54.162 7.25578 54.0216 6.6591 54.0216 6.34321C54.0216 6.06242 53.8461 5.74654 53.5653 5.74654C53.4249 5.60615 52.9687 5.60614 52.3369 5.60614H52.021V5.14986L53.7057 5.00947H56.7593H58.3037V5.60614C57.8474 5.46574 57.5315 5.46575 57.0752 5.46575H56.0222V11.4325H55.9872Z" fill="#F5F5F5"/>
<path fill-rule="evenodd" clip-rule="evenodd" d="M71.7465 11.4325C71.922 11.4325 72.0624 11.257 72.3783 11.257C72.8346 11.1166 73.1505 10.8007 73.4664 10.3445C73.7472 9.74779 73.9227 9.15111 73.9227 8.51934C73.9227 7.46638 73.7823 6.5538 73.1505 6.13262C72.8346 5.81673 72.3783 5.53595 71.7816 5.53595V4.97437C72.4134 4.97437 73.0101 5.11476 73.4664 5.29025C74.2385 5.43065 74.8352 5.88693 75.2915 6.34321C75.7478 6.93989 76.0637 7.71206 76.0637 8.44914C76.0637 9.22131 75.9233 9.81799 75.6074 10.4147C75.2915 10.8709 74.8352 11.3272 74.2385 11.608C73.6419 11.7484 72.8697 11.9239 71.7816 11.9239V11.4325H71.7465ZM69.4651 11.4325H70.3777H71.7465V11.8888C71.4306 12.0292 71.2903 12.0292 70.9744 12.0292H69.43V14.7318C69.43 15.7848 69.43 16.3814 69.6055 16.6973C69.6055 17.0132 69.7459 17.294 69.8863 17.4695C70.2022 17.6099 70.483 17.6099 71.1148 17.6099H71.571V18.0662H65.4639V17.6099H65.9202C66.3764 17.6099 66.8327 17.6099 67.0082 17.4695C67.3241 17.294 67.4645 17.1536 67.4645 16.8728C67.6049 16.592 67.6049 15.8199 67.6049 14.7669V8.30874C67.6049 7.25578 67.6049 6.6591 67.4645 6.34321C67.4645 6.06242 67.3241 5.74654 67.1486 5.74654C66.8327 5.60615 66.3764 5.60614 65.7798 5.60614H65.4639V5.14986L67.1486 5.00947H70.3777H71.7465V5.60614C71.2903 5.46574 70.9744 5.46575 70.5181 5.46575H69.43V11.4325H69.4651Z" fill="#F5F5F5"/>
<path fill-rule="evenodd" clip-rule="evenodd" d="M89.7873 13.9947H90.2436L89.9277 18.0662H78.9067V17.6099H79.2226C79.9948 17.6099 80.2756 17.6099 80.5915 17.4695C80.7319 17.294 80.9074 17.0132 80.9074 16.6973V14.7318V8.27363V6.3081C80.9074 6.02731 80.767 5.85182 80.4511 5.71143C80.3107 5.57103 79.8544 5.57104 79.2577 5.57104V5.11475H88.7344L89.0503 8.27363H88.594C88.4536 7.36106 88.1377 6.76438 87.8218 6.3081C87.5059 6.02731 87.2251 5.71143 86.7688 5.71143C86.3126 5.57103 85.6808 5.57104 84.7682 5.57104H82.9431V10.9762H84.347C84.9437 10.9762 85.4 10.9762 85.7159 10.8007C86.0318 10.6603 86.1722 10.5199 86.1722 10.3445C86.3126 10.0637 86.3126 9.60738 86.3126 9.01071H86.7688V13.5033H86.3126C86.3126 12.7663 86.3126 12.31 86.1722 11.9941C86.0318 11.7133 85.8563 11.5378 85.5755 11.5378C85.4351 11.3974 84.9437 11.3974 84.5225 11.3974H82.9782V14.5563C82.9782 16.0655 83.1186 16.943 83.2941 17.2589C83.4345 17.5748 84.0662 17.5748 84.9788 17.5748H85.8914C86.6636 17.5748 87.1198 17.5748 87.5761 17.4344C88.0324 17.2589 88.4887 16.8377 88.945 16.3814C89.1907 15.7848 89.6469 15.0477 89.7873 13.9947Z" fill="#F5F5F5"/>
<path fill-rule="evenodd" clip-rule="evenodd" d="M99.8959 11.2922C100.212 11.1518 100.352 11.1518 100.528 11.1518C100.984 11.0114 101.3 10.8359 101.44 10.6955C101.756 10.3796 101.897 10.0988 102.072 9.81805C102.212 9.36177 102.212 8.90549 102.212 8.4492C102.212 7.57174 102.072 6.79957 101.581 6.20289C101.265 5.887 100.668 5.60621 99.8959 5.43071V4.97443C100.668 4.97443 101.265 5.11483 101.721 5.29032C102.493 5.43071 103.09 5.887 103.546 6.34328C104.143 6.93996 104.318 7.53664 104.318 8.30881C104.318 9.08098 104.002 9.81806 103.406 10.4147C102.774 11.0114 101.861 11.4677 100.668 11.6081C101.124 11.924 102.037 12.8014 103.265 14.4511C104.318 15.7848 105.126 16.557 105.722 17.0133C106.179 17.4696 106.951 17.61 107.723 17.61V18.0662H104.213C103.441 17.7504 102.528 16.557 101.3 14.767C100.844 14.1703 100.387 13.5736 99.9311 13.1173V11.2922H99.8959ZM97.6145 11.4326C98.2112 11.4326 98.6675 11.2571 99.1589 11.2571H99.9311V13.0822V12.9418C99.4748 12.4856 99.1589 12.1697 99.0185 12.0293C98.8781 11.8889 98.5622 11.8889 98.2463 11.8889H97.6496V14.7319C97.6496 15.7848 97.6496 16.3815 97.79 16.6974C97.79 17.0133 97.9304 17.2941 98.1059 17.4696C98.4218 17.61 98.7026 17.61 99.3344 17.61H99.9311V18.0662H93.6133V17.61H94.0696C94.5258 17.61 94.9821 17.61 95.1225 17.4696C95.4384 17.2941 95.5788 17.1537 95.5788 16.8729C95.7192 16.5921 95.7192 15.8199 95.7192 14.767V8.30881C95.7192 7.25585 95.7192 6.65917 95.5788 6.34328C95.5788 6.06249 95.4384 5.74661 95.2629 5.74661C94.947 5.60621 94.4907 5.60621 93.8941 5.60621H93.7537V5.14993L95.5788 5.00953C96.8073 5.00953 97.8602 4.86914 98.6324 4.86914C99.0887 4.86914 99.545 5.00953 99.8608 5.00953V5.46581H98.5271H97.6145V11.4326Z" fill="#F5F5F5"/>
<path fill-rule="evenodd" clip-rule="evenodd" d="M110.145 18.0662V13.8544H110.601C111.057 16.5921 112.426 17.9259 114.567 17.9259C115.48 17.9259 116.111 17.61 116.708 17.1537C117.164 16.557 117.445 15.9603 117.445 15.3637C117.445 14.767 117.129 14.1703 116.708 13.714C116.252 13.2928 115.48 12.8365 114.251 12.3803C113.163 11.924 112.426 11.5028 111.97 11.1869C111.373 10.871 110.917 10.4498 110.601 9.85315C110.285 9.39687 110.145 8.8002 110.145 8.20352C110.145 7.15056 110.425 6.37838 111.197 5.7817C111.829 5.18502 112.566 4.86914 113.654 4.86914C114.251 4.86914 114.707 5.00953 115.199 5.18503C115.795 5.32542 116.252 5.64131 116.743 6.23799C117.059 5.9221 117.199 5.46582 117.34 5.18503H117.656V8.4843H117.34C117.024 7.60684 116.568 6.83467 115.971 6.23799C115.374 5.64131 114.602 5.32542 113.83 5.32542C113.058 5.32542 112.461 5.46582 112.005 5.9221C111.689 6.37839 111.548 6.83467 111.548 7.29095C111.548 7.88763 111.689 8.4843 112.145 8.94058C112.601 9.22137 113.514 9.85316 114.567 10.2743C115.795 10.7306 116.532 11.1869 117.164 11.4677C117.621 11.7485 118.077 12.2048 118.393 12.8014C118.709 13.2577 118.849 13.8544 118.849 14.5915C118.849 15.6444 118.533 16.557 117.796 17.2941C117.024 18.0663 115.936 18.347 114.742 18.347C113.198 18.347 112.005 17.7504 111.057 16.6974C110.917 17.0133 110.601 17.4696 110.601 18.0312H110.145V18.0662Z" fill="#F5F5F5"/>
<path fill-rule="evenodd" clip-rule="evenodd" d="M147.139 8.13324H146.683V5.11475H159.669V8.13324H159.248C159.108 7.36107 158.932 6.76438 158.651 6.3081C158.335 6.02731 158.195 5.71143 157.879 5.57104H156.335H154.194V14.7318V16.6973C154.194 17.0132 154.334 17.294 154.65 17.4695C154.79 17.6099 155.247 17.6099 155.878 17.6099H156.475V18.0662H149.912V17.6099H150.508C151.105 17.6099 151.421 17.6099 151.737 17.4695C151.877 17.294 152.053 17.1536 152.193 16.8728V14.7669V5.60613H150.228H148.543C148.227 5.74652 147.946 6.06241 147.771 6.3432C147.455 6.76439 147.314 7.36107 147.139 8.13324Z" fill="#F5F5F5"/>
<path fill-rule="evenodd" clip-rule="evenodd" d="M169.637 17.8909H169.813C171.322 17.8909 172.55 17.2942 173.323 16.2413C174.235 15.1883 174.691 13.679 174.691 11.5731C174.691 9.60759 174.235 7.95796 173.323 6.905C172.55 5.85203 171.322 5.25535 169.637 5.25535V4.79907C171.778 4.79907 173.463 5.39575 174.832 6.62421C176.201 7.81757 176.973 9.5023 176.973 11.5731C176.973 13.5386 176.201 15.1883 174.832 16.5571C173.603 17.7505 171.778 18.3472 169.637 18.3472V17.8909ZM164.758 11.5731C164.758 13.679 165.215 15.1883 165.987 16.2413C166.759 17.2942 168.128 17.8909 169.672 17.8909V18.3472C167.531 18.3472 165.847 17.7505 164.478 16.5571C163.109 15.1883 162.477 13.5387 162.477 11.4327C162.477 9.4672 163.249 7.81757 164.618 6.62421C165.847 5.43085 167.672 4.79907 169.672 4.79907V5.25535C168.128 5.25535 166.899 5.85203 165.987 6.905C165.18 7.99306 164.758 9.5023 164.758 11.5731Z" fill="#F5F5F5"/>
<path fill-rule="evenodd" clip-rule="evenodd" d="M186.905 11.4325C187.221 11.4325 187.362 11.257 187.502 11.257C187.958 11.1166 188.415 10.8007 188.731 10.3445C189.046 9.74779 189.187 9.15111 189.187 8.51934C189.187 7.46638 188.871 6.5538 188.415 6.13262C187.958 5.81673 187.502 5.53595 186.87 5.53595V4.97437C187.642 4.97437 188.239 5.11476 188.695 5.29025C189.468 5.43065 190.064 5.88693 190.521 6.34321C190.977 6.93989 191.117 7.71206 191.117 8.44914C191.117 9.22131 190.977 9.81799 190.661 10.4147C190.345 10.8709 189.889 11.3272 189.292 11.608C188.836 11.7484 188.064 11.9239 186.835 11.9239V11.4325H186.905ZM184.764 11.4325H185.677H186.905V11.8888C186.73 12.0292 186.449 12.0292 186.133 12.0292H184.729V14.7318V16.6973C184.87 17.0132 184.87 17.294 185.186 17.4695C185.326 17.6099 185.817 17.6099 186.414 17.6099H186.87V18.0662H180.728V17.6099H181.044C181.641 17.6099 181.956 17.6099 182.237 17.4695C182.378 17.294 182.553 17.1536 182.694 16.8728V14.7669V8.30874V6.34321C182.518 6.06242 182.378 5.74654 182.237 5.74654C182.097 5.60615 181.641 5.60614 181.044 5.60614H180.728V5.14986L182.413 5.00947H185.466H186.835V5.60614C186.519 5.46574 186.063 5.46575 185.607 5.46575H184.694V11.4325H184.764Z" fill="#F5F5F5"/>
<path fill-rule="evenodd" clip-rule="evenodd" d="M0.636719 17.8908V12.3452H1.2334C1.86517 15.9604 3.69031 17.7504 6.42801 17.7504C7.65646 17.7504 8.70942 17.4345 9.3412 16.8379C10.1134 16.1008 10.4293 15.3286 10.4293 14.4161C10.4293 13.5035 10.2889 12.4505 9.65709 11.8539C9.02531 11.3976 7.83195 10.6605 6.28761 10.0638C4.91876 9.46714 3.8307 9.01087 3.09363 8.55458C2.32146 8.1334 1.54929 7.67711 1.2334 6.90494C0.812213 6.16787 0.636719 5.3957 0.636719 4.65862C0.636719 3.46527 1.093 2.4123 2.00557 1.64013C2.77774 0.727565 4.0062 0.446777 5.23465 0.446777C6.00682 0.446777 6.779 0.446775 7.37567 0.762664C8.14785 1.04345 8.74452 1.53483 9.51669 2.2719C9.83258 1.81562 10.1485 1.21895 10.1485 0.762664H10.6048V5.25529H10.1485C9.83258 3.92154 9.2359 2.83348 8.46373 2.09641C7.55117 1.32424 6.6386 0.903056 5.41014 0.903056C4.49758 0.903056 3.58501 1.21895 3.12873 1.81563C2.53205 2.4123 2.35656 3.00898 2.35656 3.78116C2.35656 4.51823 2.63735 5.43079 3.26912 6.02747C3.8658 6.44866 4.95386 7.22083 6.6386 7.81751C8.18294 8.55458 9.23591 9.01086 10.0081 9.46714C10.6048 9.92342 11.2014 10.3446 11.6928 11.1168C12.1491 11.8539 12.3246 12.4856 12.3246 13.3631C12.3246 14.8723 11.8683 16.0657 10.7802 16.9783C9.69219 17.8908 8.46373 18.4875 6.6386 18.4875C4.81347 18.4875 3.12873 17.7153 1.90027 16.2412C1.58438 16.6975 1.2685 17.1187 1.2685 17.8908H0.636719Z" fill="#F5F5F5"/>
<path fill-rule="evenodd" clip-rule="evenodd" d="M132.152 17.8908V12.3452H132.784C133.38 15.9604 135.24 17.7504 137.978 17.7504C139.207 17.7504 140.26 17.4345 140.891 16.8379C141.804 16.1008 141.804 15.3286 141.804 14.4161C141.804 13.5035 141.804 12.4505 141.172 11.8539C140.54 11.3976 139.347 10.6605 137.803 10.0638C136.434 9.46714 135.381 9.01087 134.574 8.55458C133.801 8.1334 133.064 7.67711 132.748 6.90494C132.292 6.16787 132.117 5.3957 132.117 4.65862C132.117 3.46527 132.573 2.4123 133.521 1.64013C134.433 0.727565 135.486 0.446777 136.89 0.446777C137.522 0.446777 138.259 0.446775 138.891 0.762664C139.663 1.04345 140.26 1.53483 141.032 2.2719C141.348 1.81562 141.664 1.21895 141.664 0.762664H141.979V5.25529H141.664C141.348 3.92154 140.751 2.83348 139.979 2.09641C139.066 1.32424 138.154 0.903056 137.066 0.903056C136.013 0.903056 135.1 1.21895 134.609 1.81563C134.012 2.4123 133.837 3.00898 133.837 3.78116C133.837 4.51823 134.152 5.43079 134.749 6.02747C135.381 6.44866 136.434 7.22083 138.119 7.81751C139.663 8.55458 140.716 9.01086 141.488 9.46714C141.944 9.92342 142.576 10.3446 143.032 11.1168C143.489 11.8539 143.664 12.4856 143.664 13.3631C143.664 14.8723 143.208 16.0657 142.12 16.9783C141.207 17.8908 139.979 18.4875 138.294 18.4875C136.293 18.4875 134.609 17.7153 133.38 16.2412C133.064 16.6975 132.924 17.1187 132.784 17.8908H132.152Z" fill="#F5F5F5"/>
</svg>
