<svg width="110" height="97" viewBox="0 0 110 97" fill="none" xmlns="http://www.w3.org/2000/svg">
<path d="M38.187 4.87906C42.6468 2.39422 47.6917 0.977377 52.7955 0.773438C52.7311 7.71812 52.8653 14.6574 52.8921 21.6021C52.9834 33.8975 53.0746 46.1929 53.1658 58.4883C53.9279 58.4025 54.6954 58.3917 55.4575 58.4776C55.3931 44.438 55.3501 30.3983 55.2804 16.3641C55.2428 11.169 55.3072 5.96853 55.1569 0.778804C60.9692 0.939809 66.7332 2.68403 71.6438 5.79142C75.4757 8.1904 78.8032 11.389 81.3632 15.119C84.5135 19.6915 86.4831 25.0691 87.0091 30.6023C87.4867 35.2285 86.8212 39.9137 85.4205 44.336C85.2702 44.7439 85.1092 45.3879 84.5511 45.3289C78.3738 45.3664 72.202 45.3772 66.0248 45.4201C64.6455 45.4523 63.2608 45.3825 61.8816 45.5006C61.6347 45.1947 61.5059 44.8136 61.4737 44.4219C60.3037 36.4038 59.0693 28.3965 57.9047 20.3785L57.733 19.976C57.7598 29.2713 57.8242 38.5613 57.8564 47.8566C66.497 47.7976 75.1376 47.7761 83.7782 47.76C83.2738 48.4846 82.7693 49.2144 82.2648 49.939C76.7155 49.939 71.1662 49.9336 65.6115 49.9443C67.3235 51.1143 68.9497 52.4238 70.3451 53.9641C72.0624 55.8317 73.4739 57.9731 74.5151 60.2808C73.7476 60.6136 72.9694 60.9249 72.1966 61.2469C70.0338 56.4489 66.0194 52.5419 61.2053 50.4434C60.1856 49.8477 58.9888 50.0195 57.8672 50.0248C57.8511 51.1519 57.8833 52.2789 57.8725 53.4059C62.8422 54.651 67.0552 58.5957 68.5203 63.517C67.7207 63.7425 66.921 63.9625 66.1214 64.1825C64.9085 60.3399 61.7367 57.1895 57.8833 56.0088C57.894 57.1198 57.8779 58.2253 57.9101 59.3363C60.2769 60.6243 61.7742 63.3185 61.6776 66.0073C56.7884 66.0126 51.9046 66.0395 47.0154 66.0448C46.9135 63.3829 48.3571 60.6887 50.6971 59.3899C50.7293 58.279 50.6864 57.1681 50.6917 56.0571C46.8383 57.2271 43.7202 60.4633 42.5556 64.3006C41.7506 64.0806 40.9456 63.8766 40.1405 63.6512C41.5574 58.7245 45.7059 54.7154 50.6649 53.4435C50.681 52.3165 50.6434 51.1841 50.6595 50.057C49.8223 50.0892 48.9529 49.9336 48.1371 50.1751C42.9527 52.1877 38.6647 56.3523 36.4374 61.4401C35.6646 61.1234 34.8918 60.8122 34.1136 60.5009C35.788 56.5938 38.5788 53.1966 42.0082 50.6957L42.0511 50.8084L42.0404 50.685C42.3195 50.4488 42.6361 50.261 42.9313 50.0517C37.3551 50.0409 31.779 50.0624 26.2029 50.0302C25.7252 49.3003 25.2046 48.5973 24.7055 47.8727H50.622C50.5522 38.5184 50.5093 29.1693 50.3965 19.8203C49.5647 25.316 48.8455 30.8331 48.0727 36.3394C47.6917 39.1516 47.2838 41.9639 46.9242 44.7814C46.8598 45.0605 46.7632 45.3879 46.511 45.5489C42.9474 45.4845 39.3838 45.5757 35.8202 45.5704C32.1064 45.6026 28.3872 45.6133 24.6733 45.6401C24.1688 45.6348 23.439 45.828 23.2404 45.1947C22.532 43.3861 22.0865 41.4755 21.7108 39.5703C20.5033 33.2589 21.3137 26.6201 23.8415 20.7219C26.7288 14.0671 31.8488 8.3997 38.187 4.87906ZM30.5124 13.9812C26.0687 19.2729 23.4712 26.0941 23.3424 33.0066C23.235 36.3394 23.7824 39.6669 24.7216 42.8548C31.1082 42.844 37.4947 42.8494 43.8812 42.8333C44.5682 42.7743 44.493 41.9263 44.6004 41.4379C47.1657 28.6112 49.7472 15.7898 52.3232 2.9631C43.9402 3.39245 35.8632 7.52491 30.5124 13.9812ZM55.6668 2.95774C57.8833 13.4177 60.1159 23.8776 62.3377 34.3376C62.8905 36.9834 63.4916 39.6239 63.9961 42.2751C64.0712 42.5757 64.3771 42.7689 64.6777 42.7259C71.0213 42.6508 77.3702 42.6186 83.7138 42.5327C84.4169 40.0372 84.8784 37.4718 84.9804 34.8796C85.2058 29.1801 83.7836 23.4322 80.9445 18.484C78.6261 14.4374 75.3899 10.9167 71.5419 8.287C66.8835 5.083 61.318 3.19925 55.6668 2.95774ZM8.00932 71.8947C9.94674 71.7283 11.8949 71.7873 13.8377 71.7927C16.0274 71.8464 18.3297 72.0664 20.235 73.2417C21.7162 74.1702 22.489 75.8715 22.8379 77.5245C23.3209 79.7356 23.1867 82.0111 23.2082 84.2545C23.1974 86.9272 23.3263 89.7233 22.2207 92.2242C21.6572 93.5874 20.4765 94.65 19.0918 95.1438C16.3923 96.1957 13.4513 95.9542 10.6122 95.981C8.20789 95.9756 5.64791 95.8468 3.53875 94.5642C1.95016 93.6035 1.16661 91.7734 0.833863 90.0184C0.366949 87.6731 0.554788 85.2742 0.511853 82.902C0.506486 80.3099 0.474285 77.5674 1.69792 75.206C2.36341 73.8804 3.63535 72.968 5.01999 72.5011C5.98065 72.1737 6.99498 71.9966 8.00932 71.8947ZM7.73024 77.1059C6.87155 77.3474 6.06652 78.0021 5.85185 78.893C5.61034 80.0791 5.66401 81.2973 5.65864 82.5049C5.66938 84.3833 5.62108 86.267 5.70158 88.1508C5.72841 88.8324 5.97529 89.5247 6.46367 90.0184C7.12379 90.6893 8.10592 90.8825 9.01291 90.8879C10.8484 90.8932 12.6785 90.8879 14.5139 90.8932C15.3189 90.8932 16.1669 90.8074 16.8539 90.3458C17.4979 89.9218 17.8789 89.1812 17.9487 88.4245C18.0829 86.8574 18.0453 85.2849 18.0507 83.7178C18.0507 82.2795 18.0721 80.8358 17.9755 79.4029C17.9219 78.6461 17.514 77.9055 16.8753 77.4869C16.1776 77.0307 15.3189 76.961 14.5085 76.9663C12.7214 76.9771 10.9342 76.9449 9.14708 76.9771C8.66407 76.9932 8.18642 76.9771 7.73024 77.1059ZM29.8362 71.8195C31.4409 71.8142 33.0456 71.8303 34.6556 71.8142C34.6825 73.0968 34.6556 74.3795 34.6717 75.6675C35.6914 74.358 36.9526 73.2149 38.4231 72.4314C39.6522 71.7981 41.069 71.7551 42.4214 71.7981C43.9885 71.8571 45.6147 71.841 47.0959 72.4421C49.1246 73.2954 50.7239 75.0718 51.427 77.1542C52.0495 78.8662 51.9529 80.7177 51.9529 82.5103V95.7073C50.2409 95.7073 48.5289 95.7073 46.8169 95.7073C46.8169 91.7573 46.8276 87.8019 46.8222 83.852C46.8276 82.3922 47.0101 80.8465 46.3392 79.4941C45.6845 78.0773 44.2193 77.1273 42.6898 76.9449C41.2837 76.7731 39.7971 76.8214 38.4929 77.4279C36.9902 78.1256 35.7934 79.4619 35.2997 81.0505C35.0581 81.7804 34.983 82.5532 34.9669 83.3153V95.7127C33.2603 95.718 31.559 95.6912 29.8577 95.7234C29.8094 87.7536 29.8523 79.7839 29.8362 71.8195ZM61.6132 72.8392C63.6151 71.9108 65.8637 71.8034 68.0373 71.7873C70.4953 71.8088 73.007 71.6585 75.406 72.2972C76.6511 72.6568 77.9177 73.2042 78.7549 74.2292C80.161 75.9574 80.4615 78.2705 80.5957 80.4172C78.8729 80.4118 77.1502 80.4172 75.4274 80.4118C75.4006 79.5317 75.3684 78.5334 74.7083 77.8572C73.9408 77.0307 72.7333 76.918 71.6707 76.9502C69.8352 76.961 67.9997 76.9341 66.1643 76.961C65.1875 76.9717 64.1195 77.3152 63.5667 78.1739C62.9657 79.097 63.1267 80.2562 63.0515 81.3027C63.0676 83.5783 63.0032 85.8592 63.0891 88.1401C63.1159 88.9827 63.5077 89.8467 64.2269 90.3136C64.9031 90.7805 65.7564 90.8718 66.5614 90.8771H72.202C73.1573 90.8771 74.1984 90.5981 74.7995 89.8092C75.3255 89.1705 75.3523 88.3011 75.406 87.5175C73.694 87.5175 71.9819 87.5175 70.2699 87.5175C70.2699 85.8001 70.2699 84.0881 70.2699 82.3707C73.7154 82.3761 77.1663 82.3546 80.6118 82.3815C80.5528 85.0863 80.7889 87.8288 80.1986 90.4907C79.8605 91.9505 79.2111 93.4425 77.966 94.3495C76.4954 95.4175 74.6493 95.7556 72.8782 95.922C71.0857 96.04 69.2932 95.9756 67.5006 95.9917C65.2573 95.9756 62.9066 95.7502 60.937 94.5803C59.4504 93.6679 58.6507 92.0042 58.3019 90.3512C57.8296 88.3064 57.9262 86.1973 57.9101 84.1149C57.9369 81.4315 57.7384 78.6515 58.7044 76.0862C59.182 74.6747 60.2339 73.4457 61.6132 72.8392ZM90.036 73.0968C92.0324 71.9859 94.3777 71.8249 96.6157 71.8034C99.2186 71.8195 101.875 71.6478 104.408 72.3401C105.852 72.7319 107.269 73.5154 108.069 74.8142C109.163 76.596 109.405 78.7374 109.491 80.7821H104.322C104.285 79.8054 104.328 78.6944 103.636 77.9109C102.927 77.1112 101.789 76.9502 100.775 76.9663C98.8537 76.9771 96.927 76.9556 95.0056 76.9824C94.0611 76.9932 93.0468 77.3366 92.494 78.1417C92.0002 78.8232 92.0002 79.7034 91.9573 80.5031C91.9251 82.784 91.9305 85.0595 91.9466 87.3404C91.9627 88.1508 91.9841 89.0417 92.494 89.7233C93.0843 90.5659 94.1684 90.8771 95.1506 90.8932C97.1148 90.904 99.0844 90.8986 101.049 90.8986C102.031 90.8932 103.12 90.6142 103.727 89.7769C104.301 89.0148 104.242 88.0166 104.306 87.115H109.48C109.416 88.5104 109.298 89.9219 108.874 91.2636C108.546 92.3584 107.988 93.4156 107.108 94.167C106.067 95.0257 104.752 95.4658 103.437 95.7127C101.677 96.0615 99.8734 96.0078 98.0916 96.0132C96.1219 96.0132 94.1255 96.0561 92.2042 95.5624C90.7444 95.2189 89.3007 94.5159 88.4044 93.2761C87.578 92.1115 87.1862 90.6947 86.993 89.2993C86.73 87.5443 86.8266 85.7626 86.7998 83.9969C86.8159 81.5067 86.671 78.9467 87.4384 76.5423C87.8624 75.1309 88.7265 73.8053 90.036 73.0968Z" fill="white"/>
</svg>
