<svg width="180" height="40" viewBox="0 0 180 40" fill="none" xmlns="http://www.w3.org/2000/svg">
<path d="M119.749 26.5079C122.35 27.0423 123.662 28.6256 123.662 30.556C123.662 32.6969 122.001 34.8941 118.543 34.8941C115.057 34.8941 113.58 32.9103 113.167 31.41C113.104 31.1053 113.281 30.7935 113.585 30.706L115.829 30.2115C115.967 30.1889 116.108 30.2757 116.148 30.4182C116.331 31.3571 117.098 32.1626 118.515 32.1626C119.694 32.1626 120.261 31.5449 120.261 30.8486C120.261 30.26 119.855 29.7759 118.841 29.5648L117.095 29.16C114.55 28.5993 113.399 27.0703 113.399 25.222C113.399 22.8641 115.488 20.9062 118.329 20.9062C121.607 20.9062 122.983 22.7255 123.385 24.1337C123.441 24.4324 123.273 24.7358 122.971 24.8286L121.058 25.2612C120.7 25.3384 120.499 25.1505 120.384 24.8532C120.126 24.217 119.531 23.6118 118.355 23.6118C117.419 23.6118 116.668 24.1749 116.668 24.9236C116.668 25.5693 117.15 25.9705 117.875 26.106L119.749 26.5079ZM163.212 18.7093C163.212 20.7373 161.566 22.3826 159.538 22.3826C157.51 22.3826 155.865 20.7373 155.865 18.7093C155.865 16.6794 157.51 15.0358 159.538 15.0358C161.566 15.0358 163.212 16.6794 163.212 18.7093ZM162.974 13.2694C159.567 13.2694 156.8 10.5048 156.8 7.09116C156.8 3.67822 159.567 0.911621 162.974 0.911621C166.389 0.911621 169.158 3.67822 169.158 7.09116C169.158 10.5048 166.389 13.2694 162.974 13.2694ZM175.888 5.15975C177.751 5.15975 179.264 6.66905 179.264 8.53721C179.264 10.4003 177.751 11.9124 175.888 11.9124C174.025 11.9124 172.511 10.4003 172.511 8.53721C172.511 6.66905 174.025 5.15975 175.888 5.15975ZM171.412 13.0851C174.969 13.0851 177.848 15.9633 177.848 19.5229C177.848 23.0741 174.969 25.953 171.412 25.953C167.862 25.953 164.98 23.0741 164.98 19.5229C164.98 15.9633 167.862 13.0851 171.412 13.0851ZM157.349 35.8496C158.272 35.8496 159.02 36.5985 159.02 37.5225C159.02 38.4457 158.272 39.1928 157.349 39.1928C156.425 39.1928 155.677 38.4457 155.677 37.5225C155.677 36.5985 156.425 35.8496 157.349 35.8496ZM162.194 24.86C164.866 24.86 167.038 27.0272 167.038 29.705C167.038 32.378 164.866 34.5486 162.194 34.5486C159.516 34.5486 157.349 32.378 157.349 29.705C157.349 27.0272 159.516 24.86 162.194 24.86ZM154.046 38.5994V12.0597C153.951 8.00451 151.505 4.53163 148.017 2.95069C146.859 2.44865 145.609 2.12632 144.309 2.05721C137.869 1.71634 132.896 5.52489 131.568 10.6647C130.705 13.7948 131.373 17.5569 133.528 20.7184C136.172 24.6007 147.045 34.8935 152.294 39.4794C152.475 39.6122 152.697 39.6941 152.94 39.6941C153.548 39.6941 154.038 39.2053 154.046 38.5994ZM151.778 26.4132C151.778 27.4884 150.906 28.363 149.83 28.363C148.751 28.363 147.88 27.4884 147.88 26.4132C147.88 25.3387 148.751 24.4645 149.83 24.4645C150.906 24.4645 151.778 25.3387 151.778 26.4132ZM114.419 17.9636C114.314 18.1972 112.427 21.9284 112.427 21.9284C112.364 22.0449 112.226 22.1281 112.112 22.1281H110.921C110.798 22.1281 110.7 22.0294 110.7 21.9062C110.7 21.8872 110.702 21.8681 110.707 21.8502L111.897 19.1874C110.952 18.9524 110.242 18.0998 110.242 17.085C110.242 15.8922 111.222 14.9123 112.415 14.9123C113.632 14.9123 114.611 15.8922 114.611 17.085C114.611 17.4986 114.524 17.7293 114.419 17.9636H114.419ZM70.4135 31.6248C68.5336 31.6248 67.1419 30.231 67.1419 27.8743C67.1419 25.5157 68.5892 24.1742 70.4135 24.1742C72.2352 24.1742 73.6555 25.4881 73.6555 27.8468C73.6555 30.231 72.2352 31.6248 70.4135 31.6248ZM73.5848 22.5916C73.1943 21.8967 72.1225 20.9847 69.8764 20.9847C66.151 20.9847 63.5526 24.0154 63.5526 27.8743C63.5526 31.8662 66.2291 34.8143 69.984 34.8143C71.7519 34.8143 73.0912 34.0094 73.6805 32.9656C73.6841 33.3986 73.7399 34.0496 73.7799 34.272C73.8002 34.3862 73.9714 34.4957 74.1049 34.4957H76.4909C76.8277 34.4957 77.1005 34.2205 77.1005 33.887V15.6976C77.1005 15.3611 76.8277 15.0891 76.4909 15.0891H74.194C73.8582 15.0891 73.5848 15.3611 73.5848 15.6976V22.5916ZM86.2679 31.6248C84.3872 31.6248 82.9959 30.231 82.9959 27.8743C82.9959 25.5157 84.4432 24.1742 86.2679 24.1742C88.0888 24.1742 89.5095 25.4881 89.5095 27.8468C89.5095 30.231 88.0888 31.6248 86.2679 31.6248ZM89.4391 22.5916C89.0481 21.8967 87.9758 20.9847 85.7309 20.9847C82.0054 20.9847 79.4062 24.0154 79.4062 27.8743C79.4062 31.8662 82.0835 34.8143 85.8377 34.8143C87.6057 34.8143 88.9452 34.0094 89.5342 32.9656C89.5377 33.3986 89.5939 34.0496 89.6336 34.272C89.6537 34.3862 89.8251 34.4957 89.9594 34.4957H92.345C92.6812 34.4957 92.9539 34.2205 92.9539 33.887V15.6976C92.9539 15.3611 92.6812 15.0891 92.345 15.0891H90.048C89.7119 15.0891 89.4391 15.3611 89.4391 15.6976V22.5916ZM52.1222 26.3987C52.2034 25.1913 53.2202 23.7997 55.0693 23.7997C57.1069 23.7997 57.9646 25.0855 58.0179 26.3987H52.1222ZM55.016 20.9055C51.6391 20.9055 48.5325 23.6374 48.5325 27.8468C48.5325 32.2951 51.7196 34.8941 55.3372 34.8941C58.3604 34.8941 60.3618 33.2435 61.1649 31.1778C61.2535 30.9357 61.127 30.6764 60.8854 30.5881L58.8264 29.966C58.6066 29.922 58.318 29.9863 58.1899 30.2411C57.7067 31.196 56.8268 31.8395 55.365 31.8395C53.5966 31.8395 52.1222 30.5807 52.0413 28.8386H60.9123C61.2437 28.8386 61.4962 28.5736 61.5138 28.2388C61.5222 28.0798 61.5289 27.9128 61.5289 27.7372C61.5289 23.5036 59.0903 20.9055 55.016 20.9055ZM108.882 21.9105L101.13 39.1203C100.949 39.4366 100.558 39.6941 100.233 39.6941H97.669C97.3358 39.6941 97.2118 39.4245 97.3692 39.0856L100.202 32.8315L94.8965 21.9177C94.7057 21.5818 94.8298 21.3074 95.1622 21.3074H97.9184C98.2532 21.3074 98.679 21.5818 98.8685 21.914L102.104 29.0271L105.093 21.9126C105.281 21.5818 105.708 21.3091 106.038 21.3067H108.62C108.95 21.3067 109.041 21.563 108.882 21.9105ZM25.3638 21.2016C25.6588 21.2016 25.9258 21.2265 26.1945 21.2527V24.8433C25.7922 24.7625 25.4427 24.7363 25.122 24.7363C23.3011 24.7363 21.7179 25.622 21.7179 28.4625V33.8903C21.7131 34.222 21.4421 34.4947 21.1096 34.4947H18.7624C18.4296 34.4947 18.1589 34.222 18.1539 33.8903V21.8978C18.1646 21.5735 18.4347 21.3072 18.7624 21.3072H21.0402C21.3564 21.3275 21.6089 21.588 21.6089 21.9099V23.2633C22.4151 21.5213 24.239 21.2013 25.3638 21.2013V21.2016ZM40.9454 23.9891H37.9424V18.7067H40.9454C42.821 18.7067 43.9201 19.7518 43.9201 21.3611C43.9201 22.9183 42.821 23.9891 40.9454 23.9891ZM43.6511 26.7193C46.1422 25.9981 47.7002 23.9891 47.7002 21.3368C47.7002 18.0354 45.3421 15.493 41.6409 15.493H34.8262C34.4897 15.493 34.2172 15.7681 34.2172 16.1018V33.887C34.2172 34.2235 34.4897 34.4957 34.8262 34.4957H37.3335C37.6687 34.4957 37.9424 34.2198 37.9424 33.887V27.1778H39.8716L43.299 33.887C43.4717 34.2235 43.8854 34.4957 44.2211 34.4957H47.1065C47.4385 34.4957 47.5761 34.2198 47.4071 33.887L43.6511 26.7193ZM27.9322 29.8008C29.2999 29.8008 30.3987 30.9006 30.3987 32.2414C30.3987 33.58 29.2999 34.6814 27.9322 34.6814C26.592 34.6814 25.4943 33.58 25.4943 32.2414C25.4943 30.9006 26.592 29.8008 27.9322 29.8008ZM6.29334 31.0682H4.4329V18.9234H6.32296C9.43082 18.9234 12.0043 20.8802 12.0043 25.0063C12.0043 29.1363 9.40513 31.0682 6.29334 31.0682ZM6.45379 15.4903H1.34467C1.01283 15.4903 0.735107 15.767 0.735107 16.0994V33.8864C0.735107 34.2235 1.01283 34.4949 1.34467 34.4949H6.42678C11.8431 34.4949 15.8401 31.0129 15.8401 25.0063C15.8401 19.003 11.8707 15.4903 6.45379 15.4903Z" fill="#F5F5F5"/>
</svg>
