<svg width="178" height="44" viewBox="0 0 178 44" fill="none" xmlns="http://www.w3.org/2000/svg">
<g clip-path="url(#clip0_209_2)">
<path d="M58.024 16.0541C57.3235 22.0996 56.6346 28.1134 55.9045 34.1221C55.8712 34.3965 55.4754 34.8307 55.232 34.8422C53.7879 34.9105 52.3388 34.8759 50.7441 34.8759C52.0079 26.4594 53.2484 18.1983 54.5046 9.83281C56.2443 9.83281 57.9329 9.78771 59.6143 9.87671C59.8986 9.89171 60.2824 10.4428 60.4006 10.8158C62.0714 16.0892 63.7041 21.3748 65.3482 26.6567C65.3704 26.728 65.4212 26.7905 65.3675 26.695C67.0942 21.4 68.8482 15.9829 70.653 10.5829C70.7603 10.2619 71.2633 9.88421 71.6028 9.86301C72.9365 9.77991 74.2815 9.78091 75.6151 9.86471C75.927 9.88431 76.4287 10.3164 76.4757 10.6163C77.6864 18.3402 78.8498 26.0715 80.0129 33.8029C80.0584 34.1051 80.0187 34.4201 80.0187 34.8049H75.0717C74.331 28.5906 73.5934 22.4025 72.89 16.5012C71.0646 22.1373 69.1238 28.0164 67.2767 33.9248C66.8867 35.1721 66.0273 34.817 65.2276 34.8826C64.4287 34.9481 63.8735 34.8685 63.5782 33.8755C61.8338 28.0103 60.0023 22.171 58.1956 16.3243C58.1633 16.2197 58.0749 16.1324 58.024 16.0541Z" fill="white"/>
<path d="M103.222 34.998V9.81335C107.658 9.98375 112.079 9.34485 116.401 10.4747C121.248 11.7417 124.378 15.7802 124.711 21.011C124.92 24.3063 124.452 27.4514 122.44 30.1989C120.543 32.7879 117.939 34.3181 114.791 34.5731C110.999 34.8804 107.18 34.8674 103.222 34.998ZM108.542 14.417V30.2176C112.025 30.098 115.872 31.0288 118.02 27.4154C119.96 24.1532 119.978 20.4308 117.954 17.1952C115.785 13.7285 112.01 14.5277 108.542 14.417Z" fill="white"/>
<path d="M145.059 34.8087V24.5455H134.461V34.799H129.179V9.89185H134.377V19.7064H144.982V9.91455H150.294V34.8088L145.059 34.8087Z" fill="white"/>
<path d="M43.0738 22.3564C42.941 34.588 33.3673 44.0327 21.2354 43.9241C9.83641 43.822 0.0562105 33.9271 0.340011 21.6522C0.606111 10.1442 10.389 0.543057 21.9959 0.682157C33.5896 0.821057 43.2003 10.7037 43.0738 22.3564ZM21.7047 3.18856C11.2233 3.20616 2.76821 11.769 2.77061 22.364C2.77291 32.9087 11.3119 41.5123 21.7637 41.5007C32.1477 41.4892 40.5964 32.9063 40.6022 22.3631C40.608 11.7172 32.1852 3.17096 21.7047 3.18856Z" fill="white"/>
<path d="M152.838 34.8802C153.754 32.4047 154.599 30.0944 155.464 27.7914C157.574 22.1733 159.709 16.5647 161.79 10.9359C162.091 10.1232 162.443 9.74515 163.369 9.80465C164.779 9.89545 166.202 9.79045 167.615 9.85815C167.936 9.87355 168.413 10.1887 168.525 10.4789C171.587 18.4201 174.612 26.3758 177.638 34.3309C177.676 34.4325 177.652 34.558 177.666 34.8713C175.824 34.8713 174.002 34.896 172.182 34.8402C171.953 34.8332 171.645 34.44 171.531 34.1615C171.012 32.8915 170.597 31.5769 170.035 30.3275C169.874 29.9696 169.352 29.5531 168.985 29.5438C166.351 29.4769 163.714 29.5321 161.078 29.4908C160.424 29.4805 160.188 29.7731 160.021 30.3123C159.639 31.5488 159.197 32.7675 158.845 34.0121C158.667 34.6409 158.386 34.9147 157.7 34.8945C156.14 34.8485 154.578 34.8802 152.838 34.8802ZM168.432 25.1964C167.277 21.6755 166.16 18.2722 165.103 15.0524C164.06 18.3326 162.978 21.7319 161.876 25.1964H168.432Z" fill="white"/>
<path d="M83.5767 34.7873V9.89575H97.9553V14.3634H88.8773V19.4108H97.9357V24.0122H88.9051V30.1617H97.9389V34.7872L83.5767 34.7873Z" fill="white"/>
<path d="M29.3925 13.0691C31.3894 19.1202 33.3863 25.1713 35.4104 31.3047H23.0986C25.1226 25.1679 27.1154 19.1259 29.1082 13.0839C29.203 13.079 29.2977 13.074 29.3925 13.0691Z" fill="white"/>
<path d="M14.295 13.0618C16.286 19.0906 18.2769 25.1193 20.3067 31.2658H8.02051C10.0256 25.1831 12.0198 19.1334 14.0139 13.0837C14.1076 13.0764 14.2014 13.0691 14.295 13.0618Z" fill="white"/>
<path d="M21.5161 29.2978C19.5184 23.2538 17.5207 17.2098 15.4917 11.0708H27.7992C25.7776 17.1907 23.7761 23.2495 21.7747 29.3084C21.6885 29.3049 21.6023 29.3013 21.5161 29.2978Z" fill="white"/>
</g>
<defs>
<clipPath id="clip0_209_2">
<rect width="177.332" height="43.2443" fill="white" transform="translate(0.333984 0.680664)"/>
</clipPath>
</defs>
</svg>
