<svg width="39" height="28" viewBox="0 0 39 28" fill="none" xmlns="http://www.w3.org/2000/svg">
<path d="M34.2878 4.25446C29.6081 0.784822 25.1249 0.882019 25.1249 0.882019L24.6666 1.40067C30.23 3.05463 32.8153 5.48656 32.8153 5.48656C24.856 1.14413 14.7174 1.17521 6.43853 5.48656C6.43853 5.48656 9.12191 2.92476 15.0125 1.27081L14.6852 0.881621C14.6852 0.881621 10.2347 0.784423 5.52236 4.25406C5.52236 4.25406 0.810059 12.6529 0.810059 22.9973C0.810059 22.9973 3.55897 27.6667 10.7914 27.8938C10.7914 27.8938 12.0023 26.4669 12.984 25.2348C8.82764 24.0027 7.25701 21.4409 7.25701 21.4409C9.86803 23.0598 12.5084 24.0732 15.7984 24.7162C21.1515 25.808 27.8099 24.6855 32.7827 21.4409C32.7827 21.4409 31.1465 24.0676 26.8596 25.2675C27.8412 26.4673 29.0195 27.8615 29.0195 27.8615C36.2512 27.6349 39.0001 22.9654 39.0001 22.9977C39.0001 12.6533 34.2878 4.25446 34.2878 4.25446ZM13.8016 19.9822C11.9689 19.9822 10.4638 18.3931 10.4638 16.4149C10.5977 11.6777 17.0394 11.6925 17.1399 16.4149C17.1395 18.3931 15.6669 19.9822 13.8016 19.9822ZM25.7464 19.9822C23.9137 19.9822 22.4086 18.3931 22.4086 16.4149C22.5557 11.6869 28.917 11.6849 29.0846 16.4149C29.0842 18.3931 27.6117 19.9822 25.7464 19.9822Z" fill="#A0A1A2"/>
</svg>
