<svg width="86" height="84" viewBox="0 0 86 84" fill="none" xmlns="http://www.w3.org/2000/svg">
<mask id="path-1-inside-1_2828_790" fill="white">
<path d="M0 1.58926C0.676083 0.517601 1.52141 -0.308064 2.90922 0.111254C3.43721 0.270776 3.94558 0.65164 4.34635 1.04847C9.61334 6.26359 14.8652 11.494 20.1014 16.7398C20.5879 17.2272 21.0631 17.4454 21.7705 17.4441C34.1655 17.4207 46.5605 17.4271 58.9555 17.4274C60.3133 17.4274 60.9309 17.822 60.9218 18.6806C60.9128 19.5337 60.274 19.9402 58.939 19.9402C46.8232 19.9403 34.7073 19.9402 22.5915 19.9402C22.2647 19.9402 21.9379 19.9402 21.5723 19.9402V62.4584H64.2423V61.2651C64.2423 47.3587 64.2506 33.4522 64.2248 19.5459C64.223 18.5472 64.5298 17.8314 65.2411 17.1291C70.6744 11.7651 76.0598 6.35287 81.502 0.997867C81.997 0.510748 82.7613 0.118614 83.4439 0.0355874C84.687 -0.115562 85.7177 0.97933 85.7687 2.25076C85.7776 2.47293 85.7716 2.6957 85.7716 2.9182C85.7717 28.2279 85.7489 53.5376 85.8064 78.8472C85.8123 81.4095 84.1127 84.0037 80.6365 84C55.4835 83.9728 30.3306 83.9791 5.17764 83.9949C2.55241 83.9966 0.901012 82.7463 0 80.3686V46.6537C0.45928 46.1396 0.954948 45.6978 1.71757 46.0003C2.48711 46.3056 2.51851 46.9616 2.51597 47.6623C2.50277 51.2755 2.50895 54.8887 2.51159 58.5018C2.51182 58.7878 2.53648 59.0738 2.55398 59.4502C4.85472 58.369 7.0342 57.3267 9.23252 56.3256C9.73696 56.0959 9.90851 55.8177 9.90463 55.2587C9.8771 51.2566 9.89073 47.2542 9.88786 43.2519C9.88768 43.0119 9.85789 42.7718 9.8433 42.5529C9.73169 42.5191 9.68053 42.49 9.62922 42.4899C6.97911 42.4837 4.32876 42.4585 1.67905 42.4895C0.932044 42.4982 0.378793 42.2864 0 41.6466L0 1.58926ZM83.2649 79.6332V78.5255C83.2649 74.1058 83.2693 69.6861 83.2615 65.2664C83.2598 64.2701 83.5466 63.0717 83.0946 62.3359C82.666 61.6383 81.4463 61.4176 80.5679 61.001C79.0425 60.2773 77.5121 59.5643 75.9768 58.8435C75.9282 58.9717 75.8941 59.0196 75.894 59.0676C75.8894 63.3483 75.8835 67.629 75.897 71.9096C75.8977 72.1283 76.0122 72.4011 76.167 72.5566C78.4637 74.8651 80.7763 77.1579 83.2649 79.6332ZM83.2649 2.8492C82.9759 3.11291 82.8145 3.24947 82.6651 3.398C80.5738 5.47748 78.4698 7.54482 76.4101 9.65503C76.1226 9.9496 75.9109 10.4554 75.9071 10.8657C75.8701 14.8645 75.8842 18.8637 75.8866 22.8628C75.8867 23.0945 75.9128 23.3262 75.9316 23.6382C78.2076 22.5596 80.3781 21.5017 82.5783 20.509C83.1331 20.2586 83.279 19.9517 83.2767 19.3816C83.2566 14.1607 83.2648 8.93967 83.2648 3.71865L83.2649 2.8492ZM2.50988 79.6678C5.01537 77.1665 7.34543 74.8539 9.64834 72.5148C9.82659 72.3337 9.87909 71.9663 9.88006 71.6852C9.89433 67.5982 9.89031 63.5111 9.88796 59.424C9.88786 59.2487 9.86131 59.0733 9.84076 58.8201C7.5626 59.898 5.39014 60.957 3.18642 61.9469C2.62435 62.1994 2.49713 62.5166 2.49912 63.0769C2.51731 68.2761 2.50988 73.4753 2.50988 78.6745C2.50988 78.9178 2.50988 79.1609 2.50988 79.6678ZM2.50988 2.75458C2.50988 3.32845 2.50988 3.62749 2.50988 3.92652C2.50988 8.51621 2.61696 13.1096 2.45784 17.6938C2.393 19.5613 2.77941 20.7681 4.70007 21.201C4.83218 21.2308 4.9498 21.3221 5.07581 21.3813C6.65231 22.1222 8.22908 22.8624 9.88929 23.6419C9.88929 19.178 9.89234 14.8415 9.87951 10.505C9.87891 10.3074 9.78747 10.0588 9.65047 9.92039C7.34017 7.58535 5.01592 5.26405 2.50988 2.75458ZM9.88929 39.9401C9.88929 35.5398 9.89655 31.2091 9.86805 26.8787C9.86662 26.6605 9.60281 26.3542 9.38259 26.2423C8.16803 25.6254 6.93062 25.0528 5.69792 24.4716C4.67426 23.989 3.6463 23.5153 2.56044 23.0098V39.9401L9.88929 39.9401ZM83.223 23.0453C82.9881 23.1374 82.8084 23.1964 82.6384 23.2761C80.5998 24.2328 78.571 25.211 76.5192 26.1388C75.999 26.374 75.8693 26.6801 75.8724 27.2189C75.8954 31.1927 75.8841 35.1666 75.8865 39.1404C75.8867 39.4066 75.911 39.6728 75.9226 39.9083H83.223V23.0453ZM75.9356 42.4928C75.9134 42.6695 75.8887 42.775 75.8886 42.8804C75.886 47.0763 75.8756 51.2722 75.9089 55.4678C75.9109 55.7302 76.1986 56.1075 76.4521 56.2321C78.5227 57.2493 80.6161 58.2205 82.7051 59.2002C82.8618 59.2737 83.0385 59.305 83.1956 59.3527V42.4928L75.9356 42.4928ZM44.2254 81.3441H61.6038C60.4846 79.1184 59.3934 77.002 58.3606 74.8578C58.092 74.3002 57.778 74.1021 57.1592 74.1063C53.145 74.1335 49.1304 74.1193 45.116 74.1222C44.8228 74.1225 44.5296 74.1509 44.2253 74.1668L44.2254 81.3441ZM41.5479 74.195C41.4008 74.167 41.2962 74.1298 41.1916 74.1297C36.893 74.1248 32.5943 74.1129 28.296 74.1462C28.0306 74.1483 27.6572 74.4525 27.5216 74.7131C26.4696 76.7335 25.462 78.7767 24.4469 80.816C24.3672 80.976 24.3345 81.1592 24.2759 81.3448H41.5479V74.195ZM24.8803 74.2015C24.6347 74.1638 24.5018 74.1256 24.3689 74.1255C20.2988 74.1217 16.2287 74.11 12.1588 74.1427C11.8276 74.1454 11.432 74.3874 11.1796 74.6335C9.26742 76.4986 7.3869 78.3959 5.48749 80.2741C5.1624 80.5956 4.79418 80.8738 4.28567 81.3092C4.69767 81.3762 4.79912 81.4071 4.90057 81.4072C10.1973 81.4101 15.494 81.4184 20.7905 81.3876C21.0546 81.3861 21.4302 81.1011 21.5618 80.8487C22.575 78.9056 23.5414 76.9384 24.5201 74.9775C24.6383 74.7406 24.7434 74.4973 24.8803 74.2015ZM60.8694 74.1202C61.0539 74.529 61.1563 74.7785 61.2767 75.019C62.2204 76.9037 63.1938 78.7743 64.0975 80.6778C64.3627 81.2364 64.6627 81.43 65.2843 81.4267C70.3292 81.3996 75.3744 81.4122 80.4194 81.4093C80.6789 81.4092 80.9385 81.3783 81.3151 81.3543C81.0536 81.072 80.8944 80.8878 80.7224 80.7164C78.693 78.6933 76.6778 76.6555 74.6138 74.668C74.2991 74.365 73.758 74.1484 73.3189 74.1436C69.6122 74.1026 65.9048 74.1202 62.1977 74.1202C61.8112 74.1202 61.4246 74.1202 60.8694 74.1202ZM44.2436 65.0211V71.5136H56.6659C55.5986 69.3866 54.5747 67.334 53.5296 65.2921C53.4617 65.1595 53.2316 65.0333 53.0763 65.0325C50.1552 65.0171 47.2339 65.0211 44.2436 65.0211ZM18.9588 39.9477C18.9588 36.9618 18.9698 34.0508 18.9367 31.1403C18.9342 30.9217 18.6617 30.6185 18.4378 30.5049C17.2984 29.9266 16.1346 29.3958 14.9775 28.8524C14.1568 28.467 13.333 28.0882 12.4582 27.682V39.9477H18.9588ZM73.3067 39.9479V27.684C71.2865 28.6359 69.3641 29.5623 67.4208 30.4428C66.9352 30.6628 66.7979 30.9451 66.8032 31.4548C66.8287 33.9535 66.8148 36.4525 66.8147 38.9514V39.948L73.3067 39.9479ZM18.9584 42.5462H12.4583V54.7801C14.5799 53.7775 16.6155 52.8237 18.6383 51.8435C18.7918 51.7691 18.9439 51.508 18.945 51.3328C18.9639 48.4167 18.9584 45.5006 18.9584 42.5462ZM73.3093 54.771V42.5383H66.8156C66.8156 45.4823 66.8093 48.3662 66.8292 51.25C66.8306 51.4511 66.9746 51.7555 67.1388 51.8355C69.1553 52.8185 71.188 53.7685 73.3093 54.771ZM41.5522 65.0198C39.1619 65.0198 36.8684 65.1601 34.6018 64.9743C32.8602 64.8315 31.9312 65.3821 31.3258 67.0026C30.7508 68.5419 29.8872 69.9741 29.1342 71.4862H41.5522L41.5522 65.0198ZM66.8163 54.5118C66.8163 57.4265 66.805 60.1768 66.8349 62.9268C66.8377 63.1823 67.0537 63.4821 67.2516 63.6818C69.095 65.5429 70.955 67.3876 72.8145 69.2329C72.9548 69.3721 73.1278 69.4787 73.3695 69.6652C73.3695 65.7201 73.3755 61.9105 73.3542 58.101C73.3529 57.8792 73.186 57.5454 73.0017 57.4551C71.0058 56.4779 68.9909 55.539 66.8163 54.5118ZM66.8147 27.9374C68.8479 26.9777 70.7425 26.0591 72.6611 25.1937C73.1936 24.9535 73.3899 24.6686 73.3848 24.0751C73.3546 20.5484 73.3699 17.0213 73.3699 13.4944V12.7546C73.1599 12.9068 73.0664 12.9574 72.9942 13.0293C71.0421 14.9724 69.0838 16.9094 67.1542 18.8746C66.9527 19.0799 66.836 19.4514 66.8296 19.7489C66.7973 21.2479 66.8147 22.7479 66.8147 24.2476C66.8147 25.4316 66.8147 26.6156 66.8147 27.9374ZM12.4053 69.7308C12.7179 69.4496 12.9038 69.2966 13.0737 69.1276C14.8705 67.3396 16.6813 65.5652 18.4428 63.7433C18.729 63.4473 18.9294 62.9409 18.9375 62.5273C18.9839 60.1649 18.9617 57.8012 18.9576 55.4379C18.9571 55.18 18.9228 54.9221 18.8959 54.5495C16.7485 55.5631 14.7124 56.5132 12.6935 57.4984C12.5356 57.5755 12.4181 57.8978 12.4172 58.1068C12.4008 61.915 12.4053 65.7234 12.4053 69.7308ZM12.5826 12.7968C12.5235 12.8357 12.4644 12.8746 12.4053 12.9135C12.4053 16.7231 12.3939 20.5327 12.4302 24.3419C12.4327 24.6028 12.7357 24.9709 12.9943 25.101C14.4352 25.8263 15.9047 26.4952 17.3663 27.1796C17.8589 27.4102 18.3567 27.6297 18.9585 27.9024C18.9585 25.0078 18.9699 22.2577 18.9395 19.508C18.9367 19.2532 18.7132 18.9579 18.5159 18.7552C17.4471 17.6571 16.3529 16.5836 15.2701 15.4992C14.3725 14.6002 13.4783 13.6978 12.5826 12.7968ZM29.5144 65.021C26.6234 65.021 23.8701 65.0093 21.1173 65.0405C20.8643 65.0433 20.5729 65.2779 20.3697 65.4764C18.995 66.8188 17.6411 68.1824 16.2765 69.5352C15.6543 70.1521 15.0231 70.7601 14.2096 71.554C14.7506 71.554 15.0179 71.554 15.2853 71.554C18.1869 71.554 21.0956 71.4314 23.9872 71.6002C25.7086 71.7007 26.6737 71.2336 27.2784 69.5848C27.8447 68.0411 28.7205 66.6102 29.5144 65.021ZM71.503 71.5114C69.3111 69.3346 67.2851 67.3051 65.228 65.3074C65.0262 65.1115 64.6338 65.0346 64.3288 65.0319C61.8737 65.0103 59.4183 65.0183 56.963 65.0227C56.7618 65.0231 56.5607 65.0637 56.2932 65.0929C57.2923 67.0882 58.2678 68.9887 59.1918 70.9136C59.4341 71.4183 59.7281 71.5711 60.2757 71.567C63.7073 71.5413 67.1392 71.5546 70.571 71.5525C70.8106 71.5524 71.0502 71.5321 71.503 71.5114Z"/>
</mask>
<path d="M0 1.58926C0.676083 0.517601 1.52141 -0.308064 2.90922 0.111254C3.43721 0.270776 3.94558 0.65164 4.34635 1.04847C9.61334 6.26359 14.8652 11.494 20.1014 16.7398C20.5879 17.2272 21.0631 17.4454 21.7705 17.4441C34.1655 17.4207 46.5605 17.4271 58.9555 17.4274C60.3133 17.4274 60.9309 17.822 60.9218 18.6806C60.9128 19.5337 60.274 19.9402 58.939 19.9402C46.8232 19.9403 34.7073 19.9402 22.5915 19.9402C22.2647 19.9402 21.9379 19.9402 21.5723 19.9402V62.4584H64.2423V61.2651C64.2423 47.3587 64.2506 33.4522 64.2248 19.5459C64.223 18.5472 64.5298 17.8314 65.2411 17.1291C70.6744 11.7651 76.0598 6.35287 81.502 0.997867C81.997 0.510748 82.7613 0.118614 83.4439 0.0355874C84.687 -0.115562 85.7177 0.97933 85.7687 2.25076C85.7776 2.47293 85.7716 2.6957 85.7716 2.9182C85.7717 28.2279 85.7489 53.5376 85.8064 78.8472C85.8123 81.4095 84.1127 84.0037 80.6365 84C55.4835 83.9728 30.3306 83.9791 5.17764 83.9949C2.55241 83.9966 0.901012 82.7463 0 80.3686V46.6537C0.45928 46.1396 0.954948 45.6978 1.71757 46.0003C2.48711 46.3056 2.51851 46.9616 2.51597 47.6623C2.50277 51.2755 2.50895 54.8887 2.51159 58.5018C2.51182 58.7878 2.53648 59.0738 2.55398 59.4502C4.85472 58.369 7.0342 57.3267 9.23252 56.3256C9.73696 56.0959 9.90851 55.8177 9.90463 55.2587C9.8771 51.2566 9.89073 47.2542 9.88786 43.2519C9.88768 43.0119 9.85789 42.7718 9.8433 42.5529C9.73169 42.5191 9.68053 42.49 9.62922 42.4899C6.97911 42.4837 4.32876 42.4585 1.67905 42.4895C0.932044 42.4982 0.378793 42.2864 0 41.6466L0 1.58926ZM83.2649 79.6332V78.5255C83.2649 74.1058 83.2693 69.6861 83.2615 65.2664C83.2598 64.2701 83.5466 63.0717 83.0946 62.3359C82.666 61.6383 81.4463 61.4176 80.5679 61.001C79.0425 60.2773 77.5121 59.5643 75.9768 58.8435C75.9282 58.9717 75.8941 59.0196 75.894 59.0676C75.8894 63.3483 75.8835 67.629 75.897 71.9096C75.8977 72.1283 76.0122 72.4011 76.167 72.5566C78.4637 74.8651 80.7763 77.1579 83.2649 79.6332ZM83.2649 2.8492C82.9759 3.11291 82.8145 3.24947 82.6651 3.398C80.5738 5.47748 78.4698 7.54482 76.4101 9.65503C76.1226 9.9496 75.9109 10.4554 75.9071 10.8657C75.8701 14.8645 75.8842 18.8637 75.8866 22.8628C75.8867 23.0945 75.9128 23.3262 75.9316 23.6382C78.2076 22.5596 80.3781 21.5017 82.5783 20.509C83.1331 20.2586 83.279 19.9517 83.2767 19.3816C83.2566 14.1607 83.2648 8.93967 83.2648 3.71865L83.2649 2.8492ZM2.50988 79.6678C5.01537 77.1665 7.34543 74.8539 9.64834 72.5148C9.82659 72.3337 9.87909 71.9663 9.88006 71.6852C9.89433 67.5982 9.89031 63.5111 9.88796 59.424C9.88786 59.2487 9.86131 59.0733 9.84076 58.8201C7.5626 59.898 5.39014 60.957 3.18642 61.9469C2.62435 62.1994 2.49713 62.5166 2.49912 63.0769C2.51731 68.2761 2.50988 73.4753 2.50988 78.6745C2.50988 78.9178 2.50988 79.1609 2.50988 79.6678ZM2.50988 2.75458C2.50988 3.32845 2.50988 3.62749 2.50988 3.92652C2.50988 8.51621 2.61696 13.1096 2.45784 17.6938C2.393 19.5613 2.77941 20.7681 4.70007 21.201C4.83218 21.2308 4.9498 21.3221 5.07581 21.3813C6.65231 22.1222 8.22908 22.8624 9.88929 23.6419C9.88929 19.178 9.89234 14.8415 9.87951 10.505C9.87891 10.3074 9.78747 10.0588 9.65047 9.92039C7.34017 7.58535 5.01592 5.26405 2.50988 2.75458ZM9.88929 39.9401C9.88929 35.5398 9.89655 31.2091 9.86805 26.8787C9.86662 26.6605 9.60281 26.3542 9.38259 26.2423C8.16803 25.6254 6.93062 25.0528 5.69792 24.4716C4.67426 23.989 3.6463 23.5153 2.56044 23.0098V39.9401L9.88929 39.9401ZM83.223 23.0453C82.9881 23.1374 82.8084 23.1964 82.6384 23.2761C80.5998 24.2328 78.571 25.211 76.5192 26.1388C75.999 26.374 75.8693 26.6801 75.8724 27.2189C75.8954 31.1927 75.8841 35.1666 75.8865 39.1404C75.8867 39.4066 75.911 39.6728 75.9226 39.9083H83.223V23.0453ZM75.9356 42.4928C75.9134 42.6695 75.8887 42.775 75.8886 42.8804C75.886 47.0763 75.8756 51.2722 75.9089 55.4678C75.9109 55.7302 76.1986 56.1075 76.4521 56.2321C78.5227 57.2493 80.6161 58.2205 82.7051 59.2002C82.8618 59.2737 83.0385 59.305 83.1956 59.3527V42.4928L75.9356 42.4928ZM44.2254 81.3441H61.6038C60.4846 79.1184 59.3934 77.002 58.3606 74.8578C58.092 74.3002 57.778 74.1021 57.1592 74.1063C53.145 74.1335 49.1304 74.1193 45.116 74.1222C44.8228 74.1225 44.5296 74.1509 44.2253 74.1668L44.2254 81.3441ZM41.5479 74.195C41.4008 74.167 41.2962 74.1298 41.1916 74.1297C36.893 74.1248 32.5943 74.1129 28.296 74.1462C28.0306 74.1483 27.6572 74.4525 27.5216 74.7131C26.4696 76.7335 25.462 78.7767 24.4469 80.816C24.3672 80.976 24.3345 81.1592 24.2759 81.3448H41.5479V74.195ZM24.8803 74.2015C24.6347 74.1638 24.5018 74.1256 24.3689 74.1255C20.2988 74.1217 16.2287 74.11 12.1588 74.1427C11.8276 74.1454 11.432 74.3874 11.1796 74.6335C9.26742 76.4986 7.3869 78.3959 5.48749 80.2741C5.1624 80.5956 4.79418 80.8738 4.28567 81.3092C4.69767 81.3762 4.79912 81.4071 4.90057 81.4072C10.1973 81.4101 15.494 81.4184 20.7905 81.3876C21.0546 81.3861 21.4302 81.1011 21.5618 80.8487C22.575 78.9056 23.5414 76.9384 24.5201 74.9775C24.6383 74.7406 24.7434 74.4973 24.8803 74.2015ZM60.8694 74.1202C61.0539 74.529 61.1563 74.7785 61.2767 75.019C62.2204 76.9037 63.1938 78.7743 64.0975 80.6778C64.3627 81.2364 64.6627 81.43 65.2843 81.4267C70.3292 81.3996 75.3744 81.4122 80.4194 81.4093C80.6789 81.4092 80.9385 81.3783 81.3151 81.3543C81.0536 81.072 80.8944 80.8878 80.7224 80.7164C78.693 78.6933 76.6778 76.6555 74.6138 74.668C74.2991 74.365 73.758 74.1484 73.3189 74.1436C69.6122 74.1026 65.9048 74.1202 62.1977 74.1202C61.8112 74.1202 61.4246 74.1202 60.8694 74.1202ZM44.2436 65.0211V71.5136H56.6659C55.5986 69.3866 54.5747 67.334 53.5296 65.2921C53.4617 65.1595 53.2316 65.0333 53.0763 65.0325C50.1552 65.0171 47.2339 65.0211 44.2436 65.0211ZM18.9588 39.9477C18.9588 36.9618 18.9698 34.0508 18.9367 31.1403C18.9342 30.9217 18.6617 30.6185 18.4378 30.5049C17.2984 29.9266 16.1346 29.3958 14.9775 28.8524C14.1568 28.467 13.333 28.0882 12.4582 27.682V39.9477H18.9588ZM73.3067 39.9479V27.684C71.2865 28.6359 69.3641 29.5623 67.4208 30.4428C66.9352 30.6628 66.7979 30.9451 66.8032 31.4548C66.8287 33.9535 66.8148 36.4525 66.8147 38.9514V39.948L73.3067 39.9479ZM18.9584 42.5462H12.4583V54.7801C14.5799 53.7775 16.6155 52.8237 18.6383 51.8435C18.7918 51.7691 18.9439 51.508 18.945 51.3328C18.9639 48.4167 18.9584 45.5006 18.9584 42.5462ZM73.3093 54.771V42.5383H66.8156C66.8156 45.4823 66.8093 48.3662 66.8292 51.25C66.8306 51.4511 66.9746 51.7555 67.1388 51.8355C69.1553 52.8185 71.188 53.7685 73.3093 54.771ZM41.5522 65.0198C39.1619 65.0198 36.8684 65.1601 34.6018 64.9743C32.8602 64.8315 31.9312 65.3821 31.3258 67.0026C30.7508 68.5419 29.8872 69.9741 29.1342 71.4862H41.5522L41.5522 65.0198ZM66.8163 54.5118C66.8163 57.4265 66.805 60.1768 66.8349 62.9268C66.8377 63.1823 67.0537 63.4821 67.2516 63.6818C69.095 65.5429 70.955 67.3876 72.8145 69.2329C72.9548 69.3721 73.1278 69.4787 73.3695 69.6652C73.3695 65.7201 73.3755 61.9105 73.3542 58.101C73.3529 57.8792 73.186 57.5454 73.0017 57.4551C71.0058 56.4779 68.9909 55.539 66.8163 54.5118ZM66.8147 27.9374C68.8479 26.9777 70.7425 26.0591 72.6611 25.1937C73.1936 24.9535 73.3899 24.6686 73.3848 24.0751C73.3546 20.5484 73.3699 17.0213 73.3699 13.4944V12.7546C73.1599 12.9068 73.0664 12.9574 72.9942 13.0293C71.0421 14.9724 69.0838 16.9094 67.1542 18.8746C66.9527 19.0799 66.836 19.4514 66.8296 19.7489C66.7973 21.2479 66.8147 22.7479 66.8147 24.2476C66.8147 25.4316 66.8147 26.6156 66.8147 27.9374ZM12.4053 69.7308C12.7179 69.4496 12.9038 69.2966 13.0737 69.1276C14.8705 67.3396 16.6813 65.5652 18.4428 63.7433C18.729 63.4473 18.9294 62.9409 18.9375 62.5273C18.9839 60.1649 18.9617 57.8012 18.9576 55.4379C18.9571 55.18 18.9228 54.9221 18.8959 54.5495C16.7485 55.5631 14.7124 56.5132 12.6935 57.4984C12.5356 57.5755 12.4181 57.8978 12.4172 58.1068C12.4008 61.915 12.4053 65.7234 12.4053 69.7308ZM12.5826 12.7968C12.5235 12.8357 12.4644 12.8746 12.4053 12.9135C12.4053 16.7231 12.3939 20.5327 12.4302 24.3419C12.4327 24.6028 12.7357 24.9709 12.9943 25.101C14.4352 25.8263 15.9047 26.4952 17.3663 27.1796C17.8589 27.4102 18.3567 27.6297 18.9585 27.9024C18.9585 25.0078 18.9699 22.2577 18.9395 19.508C18.9367 19.2532 18.7132 18.9579 18.5159 18.7552C17.4471 17.6571 16.3529 16.5836 15.2701 15.4992C14.3725 14.6002 13.4783 13.6978 12.5826 12.7968ZM29.5144 65.021C26.6234 65.021 23.8701 65.0093 21.1173 65.0405C20.8643 65.0433 20.5729 65.2779 20.3697 65.4764C18.995 66.8188 17.6411 68.1824 16.2765 69.5352C15.6543 70.1521 15.0231 70.7601 14.2096 71.554C14.7506 71.554 15.0179 71.554 15.2853 71.554C18.1869 71.554 21.0956 71.4314 23.9872 71.6002C25.7086 71.7007 26.6737 71.2336 27.2784 69.5848C27.8447 68.0411 28.7205 66.6102 29.5144 65.021ZM71.503 71.5114C69.3111 69.3346 67.2851 67.3051 65.228 65.3074C65.0262 65.1115 64.6338 65.0346 64.3288 65.0319C61.8737 65.0103 59.4183 65.0183 56.963 65.0227C56.7618 65.0231 56.5607 65.0637 56.2932 65.0929C57.2923 67.0882 58.2678 68.9887 59.1918 70.9136C59.4341 71.4183 59.7281 71.5711 60.2757 71.567C63.7073 71.5413 67.1392 71.5546 70.571 71.5525C70.8106 71.5524 71.0502 71.5321 71.503 71.5114Z" fill="white" stroke="white" mask="url(#path-1-inside-1_2828_790)"/>
<path d="M1.68722 42.656H1.68722C3.67361 42.6326 5.65968 42.6409 7.64807 42.6493C8.31088 42.6521 8.97396 42.6549 9.63739 42.6565C9.6391 42.6769 9.64082 42.6973 9.64255 42.7175C9.65573 42.8726 9.66849 43.0226 9.66861 43.1799C9.66943 44.3409 9.6689 45.5022 9.66836 46.6637C9.66704 49.5634 9.66571 52.464 9.68543 55.3641C9.68719 55.625 9.64766 55.7833 9.57703 55.8972C9.5071 56.01 9.38624 56.1121 9.15662 56.2178C7.54302 56.9611 5.93894 57.7271 4.29185 58.5136C3.7962 58.7502 3.29666 58.9888 2.79179 59.2291C2.77971 59.017 2.76954 58.8371 2.76939 58.6529C2.76899 58.0848 2.76849 57.5167 2.768 56.9487C2.7653 53.8505 2.7626 50.7531 2.77379 47.6556V47.6556C2.77505 47.3051 2.77008 46.9184 2.64946 46.5776C2.52191 46.2172 2.26992 45.9184 1.816 45.7363C1.3664 45.5559 0.976258 45.595 0.635485 45.7656C0.497078 45.8348 0.369157 45.9247 0.25 46.0254V42.2323C0.35687 42.3191 0.472078 42.3916 0.595816 42.4508C0.921835 42.6066 1.28953 42.6607 1.68722 42.656Z" fill="#121316" stroke="white" stroke-width="0.5"/>
<path d="M82.7648 78.8665L82.7648 79.2246C82.3866 78.8366 82.0125 78.4529 81.642 78.0729C79.7437 76.1259 77.9372 74.273 76.1406 72.4099C75.9907 72.2545 75.8798 71.9819 75.8792 71.7634C75.8669 67.7698 75.8711 63.7763 75.8754 59.7827C75.8757 59.5038 75.876 59.2249 75.8762 58.946C75.9596 58.9863 76.0428 59.0266 76.1261 59.0669M82.7648 78.8665C82.8479 78.9518 82.9313 79.0373 83.0148 79.123L83.0148 78.3743C83.0148 77.1979 83.0151 76.0216 83.0154 74.8452C83.0163 71.6052 83.0171 68.3652 83.0115 65.1252C83.0111 64.8467 83.0325 64.5524 83.0539 64.2569C83.1093 63.4958 83.1652 62.7264 82.8499 62.1968C82.5573 61.7055 81.8841 61.4509 81.2143 61.1977C80.9338 61.0916 80.6539 60.9858 80.4028 60.8629M82.7648 78.8665L82.7648 78.3743C82.7648 77.1978 82.7651 76.0213 82.7654 74.8449C82.7663 71.6049 82.7671 68.3653 82.7615 65.1256C82.7611 64.8665 82.7788 64.5966 82.7978 64.3331C82.8 64.3015 82.8023 64.27 82.8046 64.2386C82.8216 64.0052 82.8381 63.7776 82.8443 63.5563C82.8587 63.0465 82.8148 62.6266 82.6351 62.3247C82.4718 62.0505 82.1409 61.847 81.6913 61.6544C81.5109 61.5771 81.3222 61.5057 81.1278 61.4322C81.0844 61.4158 81.0407 61.3993 80.9968 61.3826C80.7596 61.2923 80.5168 61.197 80.2929 61.0874M82.7648 78.8665C82.4474 78.5408 82.1328 78.2182 81.8208 77.8981C79.9225 75.9512 78.1166 74.0989 76.3206 72.2364L76.1407 72.4098L76.3206 72.2364C76.2155 72.1274 76.1296 71.9167 76.1292 71.7626L76.1292 71.7626C76.1169 67.7696 76.1211 63.7765 76.1254 59.7828C76.1256 59.5442 76.1259 59.3056 76.1261 59.0669M80.4028 60.8629C79.3638 60.3543 78.3224 59.851 77.2786 59.3465C76.9135 59.1701 76.5481 58.9935 76.1824 58.8165C76.1652 58.8616 76.1493 58.8988 76.1383 58.9245C76.1348 58.9326 76.1319 58.9395 76.1295 58.9452C76.1282 58.9483 76.1271 58.9509 76.1262 58.9531C76.1262 58.9911 76.1262 59.029 76.1261 59.0669M80.4028 60.8629L80.2929 61.0874C80.2929 61.0874 80.2929 61.0874 80.2929 61.0874M80.4028 60.8629L80.2929 61.0874M76.1261 59.0669C76.4746 59.2356 76.8227 59.4038 77.1704 59.5719C78.214 60.0763 79.2545 60.5792 80.2929 61.0874" fill="#121316" stroke="white" stroke-width="0.5"/>
<path d="M82.6775 3.43855C82.2254 3.89824 81.7729 4.35715 81.3206 4.81592C79.7267 6.43244 78.1344 8.04729 76.5681 9.68844C76.3307 9.93715 76.1488 10.3818 76.1457 10.7279L76.1457 10.728C76.1162 13.9858 76.1199 17.2438 76.1235 20.5033C76.1244 21.2401 76.1252 21.977 76.1257 22.7141C76.1257 22.8397 76.1334 22.9613 76.1436 23.1025C76.6352 22.8636 77.1224 22.6258 77.6065 22.3894C79.1913 21.6156 80.7433 20.8578 82.3096 20.1351L82.4144 20.3621L82.3096 20.1351C82.5537 20.0225 82.6749 19.9123 82.7431 19.7939C82.8137 19.6713 82.8479 19.5048 82.8469 19.2365C82.8316 15.1938 82.833 11.151 82.8344 7.10869C82.8348 5.93363 82.8352 4.75862 82.8352 3.58368V3.28575C82.7779 3.33928 82.7274 3.3878 82.6775 3.43855ZM82.6775 3.43855C82.6775 3.43855 82.6775 3.43855 82.6775 3.43855L82.4992 3.26326L82.6775 3.43855Z" fill="#121316" stroke="white" stroke-width="0.5"/>
<path d="M9.6716 59.0888C9.17586 59.3285 8.68455 59.5674 8.19632 59.8047C6.60967 60.576 5.05537 61.3316 3.48598 62.0502M9.6716 59.0888L2.7205 79.1246C2.80403 79.0396 2.88736 78.9548 2.9705 78.8703M9.6716 59.0888C9.67872 59.1675 9.68341 59.2365 9.68344 59.309V59.309C9.68364 59.6484 9.68384 59.9878 9.68404 60.3272C9.68628 64.0605 9.68851 67.7933 9.67573 71.5259C9.6753 71.653 9.66328 71.7949 9.63396 71.9208C9.60337 72.052 9.56056 72.1371 9.51935 72.1798M9.6716 59.0888L9.93344 59.3089C9.93364 59.6482 9.93384 59.9876 9.93404 60.3269C9.93628 64.0602 9.93851 67.7935 9.92573 71.5268C9.92478 71.8069 9.8734 72.173 9.69919 72.3534M3.48598 62.0502L3.3819 61.8229L3.48598 62.0502C3.48598 62.0502 3.48598 62.0502 3.48598 62.0502ZM3.48598 62.0502C3.24075 62.1625 3.12308 62.2739 3.05803 62.3917C2.98964 62.5155 2.95908 62.6822 2.95998 62.948M2.95998 62.948L2.70998 62.9489L2.95998 62.948ZM2.95998 62.948C2.97377 66.9644 2.9725 70.9809 2.97124 74.9968C2.97087 76.1618 2.9705 77.3266 2.9705 78.4914V78.4928V78.4942V78.4957V78.4971V78.4985V78.4999V78.5013V78.5028V78.5042V78.5056V78.507V78.5084V78.5099V78.5113V78.5127V78.5141V78.5156V78.517V78.5184V78.5198V78.5212V78.5227V78.5241V78.5255V78.5269V78.5284V78.5298V78.5312V78.5326V78.5341V78.5355V78.5369V78.5383V78.5398V78.5412V78.5426V78.544V78.5455V78.5469V78.5483V78.5498V78.5512V78.5526V78.5541V78.5555V78.5569V78.5584V78.5598V78.5612V78.5627V78.5641V78.5655V78.567V78.5684V78.5698V78.5713V78.5727V78.5742V78.5756V78.577V78.5785V78.5799V78.5814V78.5828V78.5843V78.5857V78.5871V78.5886V78.59V78.5915V78.5929V78.5944V78.5958V78.5973V78.5987V78.6002V78.6017V78.6031V78.6046V78.606V78.6075V78.6089V78.6104V78.6119V78.6133V78.6148V78.6162V78.6177V78.6192V78.6206V78.6221V78.6236V78.6251V78.6265V78.628V78.6295V78.6309V78.6324V78.6339V78.6354V78.6369V78.6383V78.6398V78.6413V78.6428V78.6443V78.6458V78.6473V78.6487V78.6502V78.6517V78.6532V78.6547V78.6562V78.6577V78.6592V78.6607V78.6622V78.6637V78.6652V78.6667V78.6682V78.6697V78.6712V78.6728V78.6743V78.6758V78.6773V78.6788V78.6803V78.6819V78.6834V78.6849V78.6864V78.6879V78.6895V78.691V78.6925V78.6941V78.6956V78.6971V78.6987V78.7002V78.7018V78.7033V78.7048V78.7064V78.7079V78.7095V78.711V78.7126V78.7142V78.7157V78.7173V78.7188V78.7204V78.722V78.7235V78.7251V78.7267V78.7282V78.7298V78.7314V78.733V78.7345V78.7361V78.7377V78.7393V78.7409V78.7425V78.744V78.7456V78.7472V78.7488V78.7504V78.752V78.7536V78.7552V78.7569V78.7585V78.7601V78.7617V78.7633V78.7649V78.7665V78.7682V78.7698V78.7714V78.773V78.7747V78.7763V78.7779V78.7796V78.7812V78.7829V78.7845V78.7862V78.7878V78.7895V78.7911V78.7928V78.7944V78.7961V78.7977V78.7994V78.8011V78.8028V78.8044V78.8061V78.8078V78.8095V78.8111V78.8128V78.8145V78.8162V78.8179V78.8196V78.8213V78.823V78.8247V78.8264V78.8281V78.8298V78.8315V78.8333V78.835V78.8367V78.8384V78.8401V78.8419V78.8436V78.8453V78.8471V78.8488V78.8506V78.8523V78.8541V78.8558V78.8576V78.8593V78.8611V78.8628V78.8646V78.8664V78.8681V78.8699V78.8703M2.9705 78.8703V78.8717V78.8735V78.8753V78.877V78.8788V78.8806V78.8824V78.8842V78.886V78.8878V78.8896V78.8914V78.8933V78.8951V78.8969V78.8987V78.9005V78.9024V78.9042V78.906V78.9079V78.9097V78.9115V78.9134V78.9152V78.9171V78.919V78.9208V78.9227V78.9245V78.9264V78.9283V78.9302V78.932V78.9339V78.9358V78.9377V78.9396V78.9415V78.9434V78.9453V78.9472V78.9491V78.951V78.9529V78.9548V78.9568V78.9587V78.9606V78.9626V78.9645V78.9664V78.9684V78.9703V78.9723V78.9742V78.9762V78.9781V78.9801V78.9821V78.984V78.986V78.988V78.99V78.992V78.994V78.996V78.998V79V79.002V79.004V79.006V79.008V79.01V79.012V79.0141V79.0161V79.0181V79.0202V79.0222V79.0243V79.0263V79.0284V79.0304V79.0325V79.0345V79.0366V79.0387V79.0408V79.0428V79.0449V79.047V79.0491V79.0512V79.0533V79.0554V79.0575V79.0596V79.0618V79.0639V79.066V79.0681V79.0703V79.0724V79.0745V79.0767V79.0788V79.081V79.0832V79.0853V79.0875V79.0896V79.0918V79.094V79.0962V79.0984V79.1006V79.1028V79.105V79.1072V79.1094V79.1116V79.1138V79.116V79.1183V79.1205V79.1227V79.125V79.1272V79.1294V79.1317V79.134V79.1362V79.1385V79.1408V79.143V79.1453V79.1476V79.1499V79.1522V79.1545V79.1568V79.1591V79.1614V79.1637V79.166V79.1684V79.1707V79.173V79.1754V79.1777V79.18V79.1824V79.1848V79.1871V79.1895V79.1919V79.1942V79.1966V79.199V79.2014V79.2038V79.2062V79.2086V79.211V79.2134V79.2158V79.2183V79.2207V79.2231V79.2256V79.2269C3.38258 78.8077 3.78991 78.3937 4.19317 77.9838C6.09427 76.0515 7.90516 74.2108 9.69919 72.3534M2.9705 78.8703C3.32209 78.5127 3.67022 78.1589 4.01536 77.8081C5.91634 75.8758 7.7262 74.0363 9.51935 72.1798M9.51935 72.1798L9.69919 72.3534M9.51935 72.1798C9.51936 72.1798 9.51937 72.1797 9.51938 72.1797L9.69919 72.3534" fill="#121316" stroke="white" stroke-width="0.5"/>
<path d="M9.68547 23.0915C9.68549 22.5076 9.68555 21.9258 9.68561 21.346C9.68601 17.6552 9.68641 14.0396 9.67595 10.424M9.68547 23.0915L4.95073 20.8177C4.06825 20.6141 3.57828 20.2404 3.30175 19.7327C3.01605 19.2081 2.93509 18.5007 2.96626 17.5816C3.07667 14.3248 3.05534 11.0608 3.03405 7.80264C3.0255 6.494 3.01696 5.18632 3.01696 3.88043V3.87869V3.87695V3.87521V3.87346V3.87172V3.86998V3.86823V3.86649V3.86475V3.863V3.86126V3.85952V3.85777V3.85603V3.85429V3.85254V3.8508V3.84905V3.84731V3.84556V3.84382V3.84207V3.84033V3.83858V3.83684V3.83509V3.83334V3.83159V3.82985V3.8281V3.82635V3.8246V3.82285V3.8211V3.81935V3.8176V3.81585V3.8141V3.81235V3.8106V3.80884V3.80709V3.80534V3.80358V3.80183V3.80007V3.79832V3.79656V3.7948V3.79305V3.79129V3.78953V3.78777V3.78601V3.78425V3.78249V3.78072V3.77896V3.7772V3.77543V3.77367V3.7719V3.77014V3.76837V3.7666V3.76483V3.76306V3.76129V3.75952V3.75775V3.75598V3.7542V3.75243V3.75065V3.74887V3.7471V3.74532V3.74354V3.74176V3.73998V3.7382V3.73641V3.73463V3.73284V3.73106V3.72927V3.72748V3.72569V3.7239V3.72211V3.72032V3.71852V3.71673V3.71493V3.71313V3.71134V3.70954V3.70774V3.70593V3.70413V3.70233V3.70052V3.69871V3.69691V3.6951V3.69329V3.69147V3.68966V3.68785V3.68603V3.68421V3.68239V3.68057V3.67875V3.67693V3.67511V3.67328V3.67145V3.66963V3.6678V3.66596V3.66413V3.6623V3.66046V3.65862V3.65678V3.65494V3.6531V3.65126V3.64941V3.64757V3.64572V3.64387V3.64202V3.64016V3.63831V3.63645V3.63459V3.63273V3.63087V3.62901V3.62714V3.62528V3.62341V3.62154V3.61967V3.61779V3.61592V3.61404V3.61216V3.61028V3.6084V3.60651V3.60463V3.60274V3.60085V3.59895V3.59706V3.59516V3.59327V3.59137V3.58946V3.58756V3.58565V3.58375V3.58184V3.57992V3.57801V3.57609V3.57418V3.57226V3.57033V3.56841V3.56648V3.56455V3.56262V3.56069V3.55875V3.55682V3.55488V3.55294V3.55099V3.54905V3.5471V3.54515V3.54319V3.54124V3.53928V3.53732V3.53536V3.5334V3.53143V3.52946V3.52749V3.52551V3.52354V3.52156V3.51958V3.51759V3.51561V3.51362V3.51163V3.50964V3.50764V3.50564V3.50364V3.50164V3.49963V3.49763V3.49561V3.4936V3.49159V3.48957V3.48755V3.48552V3.4835V3.48147V3.47943V3.4774V3.47536V3.47332V3.47128V3.46924V3.46719V3.46514V3.46308V3.46103V3.45897V3.45691V3.45484V3.45278V3.45071V3.44863V3.44656V3.44448V3.4424V3.44031V3.43822V3.43613V3.43404V3.43195V3.42985V3.42774V3.42564V3.42353V3.42142V3.41931V3.41719V3.41507V3.41295V3.41082V3.40869V3.40656V3.40442V3.40229V3.40014V3.398V3.39585V3.3937V3.39155V3.38939V3.38723V3.38507V3.3829V3.38073V3.37856V3.37638V3.3742V3.37202V3.36983V3.36764V3.36545V3.36325V3.36105V3.35885V3.35664V3.35443V3.35222V3.35V3.34778V3.34556V3.34333V3.3411V3.33887V3.33663V3.33439V3.33215V3.3299V3.32914C3.31671 3.63639 3.61388 3.94092 3.90877 4.24312C5.84901 6.23144 7.69083 8.1189 9.52367 10.0155M9.68547 23.0915C9.48039 22.9929 9.27655 22.8949 9.07377 22.7974C7.81097 22.1903 6.58937 21.6031 5.36795 21.0154L5.36791 21.0154C5.3346 20.9993 5.30678 20.983 5.27115 20.9622C5.2513 20.9505 5.22904 20.9375 5.20205 20.9222C5.13747 20.8858 5.05123 20.8409 4.95077 20.8177L9.68547 23.0915ZM9.67595 10.424L9.92595 10.4233L9.67595 10.424ZM9.67595 10.424C9.67553 10.2823 9.60557 10.1003 9.52367 10.0155M9.52367 10.0155L9.70346 9.84183L9.52367 10.0155Z" fill="#121316" stroke="white" stroke-width="0.5"/>
<path d="M9.31971 26.0841L9.31972 26.0842C9.38874 26.1202 9.4817 26.1991 9.5578 26.2976C9.63902 26.4026 9.66385 26.4813 9.66403 26.5092C9.68732 30.1551 9.68633 33.801 9.68533 37.4885C9.68515 38.1566 9.68496 38.8261 9.68493 39.4972H2.95996V22.9826C3.16913 23.0825 3.37621 23.1814 3.58164 23.2794C4.29974 23.6221 4.99762 23.9551 5.69392 24.2927C5.89503 24.3902 6.09608 24.4873 6.29697 24.5844C7.31231 25.0752 8.32366 25.564 9.31971 26.0841Z" fill="#121316" stroke="white" stroke-width="0.5"/>
<path d="M76.6083 26.6993C78.0246 26.0711 79.4309 25.4186 80.835 24.7671C81.4325 24.4898 82.0295 24.2128 82.6268 23.9379C82.698 23.9051 82.7683 23.8773 82.8469 23.8479V39.4963H76.1559C76.1454 39.3348 76.1351 39.173 76.135 39.0058M76.6083 26.6993L76.507 26.4707L76.6083 26.6993ZM76.6083 26.6993C76.3821 26.7996 76.2734 26.9003 76.2133 27.0057C76.1502 27.116 76.1197 27.267 76.1211 27.5107C76.1372 30.2455 76.1362 32.9807 76.1351 35.7151C76.1347 36.8122 76.1343 37.9091 76.135 39.0058M76.135 39.0058L75.885 39.006L76.135 39.0058Z" fill="#121316" stroke="white" stroke-width="0.5"/>
<path d="M76.1385 42.7032H82.8469V59.2833C82.8007 59.2683 82.759 59.2525 82.7209 59.2341L82.7209 59.234C82.395 59.0767 82.0691 58.9195 81.7434 58.7625C80.0035 57.9236 78.2661 57.0858 76.5445 56.2149C76.4671 56.1757 76.362 56.0816 76.2741 55.9573C76.1836 55.8293 76.1451 55.7172 76.1447 55.6581C76.1168 52.0366 76.12 48.4149 76.1231 44.7919C76.1237 44.1439 76.1242 43.4959 76.1246 42.8478L76.1246 42.8478C76.1246 42.8124 76.1286 42.773 76.1372 42.7126C76.1376 42.7095 76.1381 42.7064 76.1385 42.7032Z" fill="#121316" stroke="white" stroke-width="0.5"/>
<path d="M45.1378 74.3285C46.2982 74.3276 47.4589 74.3282 48.6198 74.3288C51.4233 74.3303 54.2279 74.3317 57.0319 74.3126C57.312 74.3106 57.4883 74.3556 57.6193 74.4386C57.7509 74.5219 57.8687 74.6638 57.991 74.9204C58.7323 76.4762 59.5044 78.0182 60.2942 79.5956C60.5332 80.0728 60.7737 80.5533 61.0156 81.0383L44.5081 81.0383V74.3582C44.5288 74.3568 44.5495 74.3554 44.5699 74.354C44.7656 74.3409 44.9489 74.3286 45.1378 74.3285ZM45.1378 74.3285L45.1376 74.0785M45.1378 74.3285L45.1376 74.0785M45.1376 74.0785C44.9405 74.0786 44.7434 74.0918 44.5429 74.1052C44.4488 74.1115 44.354 74.1179 44.2581 74.123L61.2949 81.0383C61.0337 80.5142 60.7742 79.9958 60.5167 79.4815C59.7273 77.905 58.9568 76.3663 58.2167 74.8128C57.9514 74.2562 57.6413 74.0584 57.0302 74.0626C54.2272 74.0817 51.4241 74.0803 48.6209 74.0788C47.4598 74.0782 46.2987 74.0776 45.1376 74.0785Z" fill="#121316" stroke="white" stroke-width="0.5"/>
<path d="M24.7813 80.87L24.7813 80.87C24.7573 80.9187 24.7375 80.9735 24.7179 81.0383H41.2986V74.3343C41.247 74.3228 41.2175 74.3187 41.1943 74.3186L24.7813 80.87ZM24.7813 80.87C24.929 80.5713 25.0764 80.2725 25.2238 79.9739M24.7813 80.87L25.2238 79.9739M25.2238 79.9739C26.084 78.2312 26.9431 76.4909 27.8343 74.7673M25.2238 79.9739L27.8343 74.7673M27.8343 74.7673C27.8806 74.6776 27.9792 74.5631 28.1004 74.4704M27.8343 74.7673L28.1004 74.4704M28.1004 74.4704C28.2278 74.373 28.3329 74.3356 28.3836 74.3352M28.1004 74.4704L28.3836 74.3352M28.3836 74.3352C32.0841 74.3063 35.7847 74.3113 39.4868 74.3164M28.3836 74.3352L39.4868 74.3164M39.4868 74.3164C40.0559 74.3172 40.625 74.318 41.1942 74.3186L39.4868 74.3164Z" fill="#121316" stroke="white" stroke-width="0.5"/>
<path d="M24.0393 74.9121C23.8422 75.3178 23.6456 75.7238 23.4489 76.1297C22.7037 77.6686 21.9584 79.2076 21.1849 80.7315L11.1676 74.5712C11.4111 74.3272 11.7928 74.0874 12.1123 74.0847C15.4456 74.0572 18.7791 74.0614 22.1126 74.0655C22.7062 74.0663 23.2998 74.067 23.8934 74.0676C23.9666 74.0677 24.0398 74.08 24.1332 74.0976C24.0978 74.1766 24.065 74.2509 24.0337 74.3217C24.0321 74.3254 24.0305 74.3291 24.0289 74.3327M24.0393 74.9121C24.1158 74.7547 24.1866 74.5944 24.2648 74.4175C24.2704 74.4048 24.276 74.392 24.2817 74.3791C24.2202 74.3685 24.1655 74.3582 24.1188 74.3493C24.0953 74.3449 24.0739 74.3408 24.0545 74.3373C24.0456 74.3356 24.037 74.3341 24.0289 74.3327M24.0393 74.9121L23.8144 74.8029C23.8874 74.6527 23.9539 74.5023 24.0289 74.3327M24.0393 74.9121L23.8144 74.8029C23.617 75.2092 23.4202 75.6156 23.2234 76.0218C22.4783 77.5605 21.7343 79.0967 20.9619 80.6183L20.9619 80.6183C20.9209 80.6993 20.829 80.8045 20.7123 80.8907C20.5905 80.9805 20.4886 81.0154 20.4392 81.0157M24.0289 74.3327C23.9684 74.3222 23.9287 74.3176 23.8931 74.3176C23.2994 74.317 22.7057 74.3163 22.112 74.3155C18.7785 74.3114 15.4463 74.3072 12.1144 74.3347C12.0116 74.3356 11.878 74.3765 11.7315 74.4567C11.5879 74.5354 11.4506 74.6415 11.3445 74.7478C10.1881 75.9064 9.04499 77.0764 7.90074 78.2475C7.21975 78.9444 6.53838 79.6418 5.8536 80.3374L5.8536 80.3374C5.63937 80.555 5.40121 80.7578 5.12555 80.9926C5.1098 81.006 5.09393 81.0195 5.07794 81.0331C5.09113 81.0346 5.10054 81.035 5.10928 81.0351H5.1093C5.71791 81.0354 6.3265 81.0358 6.93507 81.0363C11.4371 81.0394 15.9383 81.0426 20.4392 81.0157M20.4392 81.0157C20.4392 81.0157 20.4392 81.0157 20.4392 81.0157L20.4407 81.2657L20.4392 81.0157Z" fill="#121316" stroke="white" stroke-width="0.5"/>
<path d="M60.9057 74.3162C60.91 74.3257 60.9142 74.3351 60.9184 74.3443C61.008 74.5419 61.0757 74.6912 61.1523 74.8402L61.1523 74.8402C61.4376 75.3944 61.7261 75.9484 62.0149 76.503C62.6943 77.8078 63.3755 79.1159 64.0209 80.4384C64.1453 80.6933 64.2623 80.8321 64.3945 80.9137C64.5272 80.9954 64.7078 81.0398 65.0007 81.0383M60.9057 74.3162L80.3802 81.0211C78.9449 81.0219 77.5094 81.0215 76.0738 81.0211C72.3831 81.0201 68.6917 81.019 65.0007 81.0383M60.9057 74.3162H60.907H60.9099H60.9128H60.9156H60.9185H60.9213H60.9242H60.927H60.9299H60.9327H60.9356H60.9384H60.9413H60.9441H60.9469H60.9497H60.9526H60.9554H60.9582H60.961H60.9638H60.9666H60.9695H60.9723H60.9751H60.9779H60.9807H60.9834H60.9862H60.989H60.9918H60.9946H60.9974H61.0001H61.0029H61.0057H61.0085H61.0112H61.014H61.0168H61.0195H61.0223H61.025H61.0278H61.0305H61.0333H61.036H61.0387H61.0415H61.0442H61.047H61.0497H61.0524H61.0551H61.0579H61.0606H61.0633H61.066H61.0687H61.0714H61.0741H61.0768H61.0795H61.0822H61.0849H61.0876H61.0903H61.093H61.0957H61.0984H61.1011H61.1037H61.1064H61.1091H61.1118H61.1144H61.1171H61.1198H61.1224H61.1251H61.1278H61.1304H61.1331H61.1357H61.1384H61.141H61.1437H61.1463H61.1489H61.1516H61.1542H61.1569H61.1595H61.1621H61.1647H61.1674H61.17H61.1726H61.1752H61.1778H61.1805H61.1831H61.1857H61.1883H61.1909H61.1935H61.1961H61.1987H61.2013H61.2039H61.2065H61.2091H61.2116H61.2142H61.2168H61.2194H61.222H61.2246H61.2271H61.2297H61.2323H61.2348H61.2374H61.24H61.2425H61.2451H61.2477H61.2502H61.2528H61.2553H61.2579H61.2604H61.263H61.2655H61.2681H61.2706H61.2731H61.2757H61.2782H61.2807H61.2833H61.2858H61.2883H61.2909H61.2934H61.2959H61.2984H61.3009H61.3035H61.306H61.3085H61.311H61.3135H61.316H61.3185H61.321H61.3235H61.326H61.3285H61.331H61.3335H61.336H61.3385H61.341H61.3435H61.346H61.3485H61.351H61.3534H61.3559H61.3584H61.3609H61.3633H61.3658H61.3683H61.3708H61.3732H61.3757H61.3782H61.3806H61.3831H61.3856H61.388H61.3905H61.3929H61.3954H61.3978H61.4003H61.4027H61.4052H61.4076H61.4101H61.4125H61.415H61.4174H61.4199H61.4223H61.4247H61.4272H61.4296H61.432H61.4345H61.4369H61.4393H61.4418H61.4442H61.4466H61.449H61.4514H61.4539H61.4563H61.4587H61.4611H61.4635H61.4659H61.4684H61.4708H61.4732H61.4756H61.478H61.4804H61.4828H61.4852H61.4876H61.49H61.4924H61.4948H61.4972H61.4996H61.502H61.5044H61.5068H61.5092H61.5116H61.514H61.5163H61.5187H61.5211H61.5235H61.5259H61.5283H61.5306H61.533H61.5354H61.5378H61.5402H61.5425H61.5449H61.5473H61.5497H61.552H61.5544H61.5568H61.5591H61.5615H61.5639H61.5662H61.5686H61.571H61.5733H61.5757H61.578H61.5804H61.5828H61.5851H61.5875H61.5898H61.5922H61.5945H61.5969H61.5993H61.6016H61.604H61.6063H61.6087H61.611H61.6133H61.6157H61.618H61.6204H61.6227H61.6251H61.6274H61.6298H61.6321H61.6344H61.6368H61.6391H61.6414H61.6438H61.6461H61.6485H61.6508H61.6531H61.6555H61.6578H61.6601H61.6625H61.6648H61.6671H61.6694H61.6718H61.6741H61.6764H61.6788H61.6811H61.6834H61.6857H61.6881H61.6904H61.6927H61.695H61.6973H61.6997H61.702H61.7043H61.7066H61.7089H61.7113H61.7136H61.7159H61.7182H61.7205H61.7228H61.7252H61.7275H61.7298H61.7321H61.7344H61.7367H61.739H61.7414H61.7437H61.746H61.7483H61.7506H61.7529H61.7552H61.7575H61.7598H61.7622H61.7645H61.7668H61.7691H61.7714H61.7737H61.776H61.7783H61.7806H61.7829H61.7852H61.7875H61.7898H61.7921H61.7944H61.7967H61.7991H61.8014H61.8037H61.806H61.8083H61.8106H61.8129H61.8152H61.8175H61.8198H61.8221H61.8244H61.8267H61.829H61.8313H61.8336H61.8359H61.8382H61.8405H61.8428H61.8451H61.8474H61.8497H61.852H61.8543H61.8566H61.8589H61.8612H61.8635H61.8658C62.7358 74.3162 63.6056 74.3153 64.4752 74.3143C67.3723 74.3113 70.2677 74.3082 73.163 74.3393L73.163 74.3393C73.5494 74.3435 74.0384 74.5352 74.3105 74.7902C75.9322 76.3093 77.5238 77.8578 79.1174 79.4082C79.5825 79.8607 80.0478 80.3134 80.5141 80.7656C80.5916 80.8408 80.6652 80.9172 80.7482 81.0052C80.6165 81.0146 80.4999 81.021 80.3802 81.0211L60.9057 74.3162ZM65.0007 81.0383L65.002 81.2883M65.0007 81.0383L65.002 81.2883M65.002 81.2883C68.6923 81.269 72.3827 81.2701 76.073 81.2711C77.5088 81.2715 78.9446 81.2719 80.3803 81.2711L63.7962 80.5481C64.0657 81.1002 64.3704 81.2915 65.002 81.2883Z" fill="#121316" stroke="white" stroke-width="0.5"/>
<path d="M44.5081 65.2778C44.9137 65.2778 45.318 65.2777 45.7211 65.2776C48.0412 65.277 50.3234 65.2765 52.6056 65.2888C52.6203 65.2889 52.668 65.2992 52.7266 65.3332C52.7529 65.3486 52.7751 65.3651 52.7913 65.3803C52.8068 65.3948 52.8117 65.4032 52.8118 65.4032C52.8118 65.4032 52.8118 65.4032 52.8117 65.4032C53.611 67.012 54.3971 68.6275 55.203 70.2837C55.3348 70.5546 55.4671 70.8267 55.6002 71.0999H44.5081V65.2778Z" fill="#121316" stroke="white" stroke-width="0.5"/>
<path d="M18.7159 39.4919H12.895V28.389C13.0395 28.4549 13.1827 28.5201 13.3247 28.5849C13.8916 28.8432 14.4412 29.0937 14.9897 29.3473C15.2272 29.457 15.4645 29.5661 15.7015 29.675C16.591 30.0838 17.4762 30.4906 18.3475 30.9259L18.3475 30.9259C18.4196 30.9619 18.5142 31.0375 18.5906 31.129C18.6739 31.2287 18.6942 31.2973 18.6944 31.3135C18.7201 33.5403 18.7185 35.7673 18.7168 38.0328C18.7164 38.5173 18.716 39.0035 18.7159 39.4919Z" fill="#121316" stroke="white" stroke-width="0.5"/>
<path d="M67.1001 39.4919H72.9113V28.3918C72.4989 28.5837 72.0902 28.7745 71.6841 28.964C70.2854 29.617 68.9183 30.2552 67.5412 30.8697L67.1001 39.4919ZM67.1001 39.4919V38.7878C67.1001 38.1628 67.101 37.5374 67.102 36.9119C67.1046 35.1447 67.1073 33.3758 67.0889 31.6077C67.0865 31.3833 67.1173 31.2472 67.1753 31.1493C67.2314 31.0545 67.3327 30.9627 67.5412 30.8697L67.1001 39.4919Z" fill="#121316" stroke="white" stroke-width="0.5"/>
<path d="M13.771 54.2537C13.4805 54.3994 13.1886 54.5457 12.895 54.6931V42.7031H18.7169C18.717 43.1772 18.7171 43.6504 18.7173 44.1227C18.718 46.608 18.7188 49.0708 18.7038 51.5335L18.7038 51.5336C18.7036 51.5673 18.6858 51.6378 18.6421 51.716C18.6218 51.7523 18.5996 51.7834 18.5787 51.8067C18.5684 51.8182 18.5594 51.8267 18.5523 51.8326C18.5487 51.8355 18.5459 51.8375 18.5439 51.8389C18.5419 51.8403 18.5409 51.8408 18.541 51.8407C16.9714 52.6491 15.394 53.44 13.771 54.2537Z" fill="#121316" stroke="white" stroke-width="0.5"/>
<path d="M67.0892 44.2223C67.0894 43.7175 67.0896 43.2112 67.0897 42.7031H72.9113V54.6932C72.6062 54.5403 72.303 54.3885 72.0014 54.2375C70.3895 53.4305 68.8245 52.6469 67.2692 51.8418C67.2693 51.8419 67.2693 51.8419 67.269 51.8417C67.2672 51.8404 67.2547 51.8318 67.2348 51.8071C67.2134 51.7804 67.1906 51.7439 67.1695 51.7C67.1254 51.6081 67.1032 51.5142 67.1029 51.4569C67.0873 49.0565 67.0882 46.6562 67.0892 44.2223Z" fill="#121316" stroke="white" stroke-width="0.5"/>
<path d="M34.4514 65.2976L34.4514 65.2976C36.0706 65.4237 37.71 65.3956 39.3732 65.3671C40.0114 65.3561 40.653 65.3451 41.2984 65.3428V71.0999H29.3195C29.4888 70.7862 29.6632 70.4728 29.838 70.1588C30.3948 69.1584 30.9553 68.1513 31.3675 67.1026C31.6637 66.3491 32.0251 65.8796 32.4949 65.6058C32.9679 65.3301 33.5891 65.2304 34.4514 65.2976Z" fill="#121316" stroke="white" stroke-width="0.5"/>
<path d="M67.0907 54.5945C67.4222 54.7588 67.7499 54.921 68.0743 55.0816C69.6693 55.871 71.1858 56.6216 72.6915 57.3962L72.6915 57.3962C72.7101 57.4058 72.7646 57.4562 72.8188 57.5637C72.8699 57.6649 72.8955 57.7672 72.8958 57.8296C72.8958 57.8296 72.8958 57.8296 72.8958 57.8296L73.1458 57.8283M67.0907 54.5945L72.9106 69.3511C72.9106 69.2447 72.9106 69.1384 72.9106 69.0321C72.9403 69.0572 72.9731 69.0833 73.0098 69.1119C73.0344 69.131 73.0612 69.1516 73.0899 69.1736C73.1124 69.1908 73.136 69.2089 73.1606 69.2278C73.1606 68.6113 73.1608 67.9979 73.161 67.3873C73.1618 64.1506 73.1626 60.9894 73.1458 57.8283M67.0907 54.5945C67.0906 55.1002 67.0902 55.6011 67.0898 56.0981C67.0879 58.3583 67.0862 60.5369 67.1087 62.7156L66.8587 62.7182L67.1087 62.7156C67.1094 62.7843 67.1396 62.8814 67.2062 62.998C67.2706 63.1108 67.3574 63.2216 67.4425 63.3118L67.0907 54.5945ZM73.1458 57.8283C73.1446 57.6036 72.9836 57.2653 72.8059 57.1739L73.1458 57.8283Z" fill="#121316" stroke="white" stroke-width="0.5"/>
<path d="M67.1075 19.7233C67.1129 19.4605 67.2144 19.1525 67.3525 19.0045C68.8798 17.3686 70.4257 15.752 71.9729 14.1342C72.2809 13.8122 72.5889 13.4901 72.8968 13.1678V13.3927C72.8968 14.2891 72.8959 15.1858 72.895 16.0826C72.8922 18.7528 72.8894 21.4244 72.9112 24.0953C72.9135 24.3713 72.8705 24.5396 72.795 24.6607C72.7198 24.7814 72.5922 24.8877 72.3582 24.9988C71.0227 25.6322 69.6984 26.2943 68.3297 26.9786C67.922 27.1824 67.5103 27.3882 67.0932 27.5959V27.5885V27.5809V27.5732V27.5655V27.5579V27.5502V27.5425V27.5349V27.5272V27.5196V27.5119V27.5043V27.4967V27.489V27.4814V27.4738V27.4661V27.4585V27.4509V27.4433V27.4356V27.428V27.4204V27.4128V27.4052V27.3976V27.39V27.3824V27.3748V27.3672V27.3596V27.352V27.3444V27.3369V27.3293V27.3217V27.3141V27.3066V27.299V27.2914V27.2839V27.2763V27.2687V27.2612V27.2536V27.2461V27.2385V27.231V27.2234V27.2159V27.2084V27.2008V27.1933V27.1858V27.1782V27.1707V27.1632V27.1557V27.1481V27.1406V27.1331V27.1256V27.1181V27.1106V27.1031V27.0956V27.0881V27.0806V27.0731V27.0656V27.0581V27.0506V27.0432V27.0357V27.0282V27.0207V27.0132V27.0058V26.9983V26.9908V26.9834V26.9759V26.9684V26.961V26.9535V26.9461V26.9386V26.9312V26.9237V26.9163V26.9089V26.9014V26.894V26.8865V26.8791V26.8717V26.8643V26.8568V26.8494V26.842V26.8346V26.8271V26.8197V26.8123V26.8049V26.7975V26.7901V26.7827V26.7753V26.7679V26.7605V26.7531V26.7457V26.7383V26.7309V26.7236V26.7162V26.7088V26.7014V26.694V26.6867V26.6793V26.6719V26.6645V26.6572V26.6498V26.6424V26.6351V26.6277V26.6204V26.613V26.6057V26.5983V26.591V26.5836V26.5763V26.5689V26.5616V26.5543V26.5469V26.5396V26.5323V26.5249V26.5176V26.5103V26.5029V26.4956V26.4883V26.481V26.4737V26.4664V26.459V26.4517V26.4444V26.4371V26.4298V26.4225V26.4152V26.4079V26.4006V26.3933V26.386V26.3787V26.3714V26.3642V26.3569V26.3496V26.3423V26.335V26.3277V26.3205V26.3132V26.3059V26.2986V26.2914V26.2841V26.2768V26.2696V26.2623V26.2551V26.2478V26.2405V26.2333V26.226V26.2188V26.2115V26.2043V26.197V26.1898V26.1825V26.1753V26.1681V26.1608V26.1536V26.1463V26.1391V26.1319V26.1246V26.1174V26.1102V26.103V26.0957V26.0885V26.0813V26.0741V26.0669V26.0596V26.0524V26.0452V26.038V26.0308V26.0236V26.0164V26.0092V26.002V25.9948V25.9876V25.9804V25.9732V25.966V25.9588V25.9516V25.9444V25.9372V25.93V25.9228V25.9156V25.9085V25.9013V25.8941V25.8869V25.8797V25.8726V25.8654V25.8582V25.851V25.8439V25.8367V25.8295V25.8223V25.8152V25.808V25.8009V25.7937V25.7865V25.7794V25.7722V25.7651V25.7579V25.7507V25.7436V25.7364V25.7293V25.7221V25.715V25.7079V25.7007V25.6936V25.6864V25.6793V25.6721V25.665V25.6579V25.6507V25.6436V25.6365V25.6293V25.6222V25.6151V25.6079V25.6008V25.5937V25.5866V25.5794V25.5723V25.5652V25.5581V25.5509V25.5438V25.5367V25.5296V25.5225V25.5154V25.5082V25.5011V25.494V25.4869V25.4798V25.4727V25.4656V25.4585V25.4514V25.4443V25.4372V25.4301V25.423V25.4159V25.4088V25.4017V25.3946V25.3875V25.3804V25.3733V25.3662V25.3591V25.352V25.3449V25.3378V25.3308V25.3237V25.3166V25.3095V25.3024V25.2953V25.2882V25.2812V25.2741V25.267V25.2599V25.2528V25.2458V25.2387V25.2316V25.2245V25.2175V25.2104V25.2033V25.1963V25.1892V25.1821V25.1751V25.168V25.1609V25.1539V25.1468V25.1397V25.1327V25.1256V25.1185V25.1115V25.1044V25.0974V25.0903V25.0832V25.0762V25.0691V25.0621V25.055V25.048V25.0409V25.0338V25.0268V25.0197V25.0127V25.0056V24.9986V24.9915V24.9845V24.9774V24.9704V24.9633V24.9563V24.9493V24.9422V24.9352V24.9281V24.9211V24.914V24.907V24.8999V24.8929V24.8859V24.8788V24.8718V24.8647V24.8577V24.8507V24.8436V24.8366V24.8296V24.8225V24.8155V24.8085V24.8014V24.7944V24.7873V24.7803V24.7733V24.7663V24.7592V24.7522V24.7452V24.7381V24.7311V24.7241V24.717V24.71V24.703V24.696V24.6889V24.6819V24.6749V24.6678V24.6608V24.6538V24.6468V24.6397V24.6327V24.6257V24.6187V24.6116V24.6046V24.5976V24.5906V24.5836V24.5765V24.5695V24.5625V24.5555V24.5484V24.5414V24.5344V24.5274V24.5204V24.5133V24.5063V24.4993V24.4923V24.4853V24.4782V24.4712V24.4642V24.4572V24.4502V24.4431V24.4361V24.4291V24.4221V24.4151V24.4081V24.401V24.394V24.387V24.38V24.373V24.366V24.3589V24.3519V24.3449V24.3379V24.3309V24.3239V24.3168V24.3098V24.3028V24.2958V24.2888V24.2818V24.2747V24.2677C67.0932 23.8731 67.0921 23.479 67.091 23.0853C67.0878 21.9625 67.0846 20.8432 67.1075 19.7233ZM67.1075 19.7233L66.8576 19.7181M67.1075 19.7233L66.8576 19.7181M66.8576 19.7181C66.8346 20.8412 66.8378 21.9648 66.841 23.0885C66.8421 23.4816 66.8432 23.8747 66.8432 24.2677V27.7202L72.8968 12.8283C72.8506 12.8625 72.8161 12.8903 72.7856 12.9223C72.4547 13.2687 72.1237 13.6149 71.7926 13.961C70.2454 15.5789 68.6982 17.1967 67.1697 18.8339C66.976 19.0415 66.8637 19.4172 66.8576 19.7181Z" fill="#121316" stroke="white" stroke-width="0.5"/>
<path d="M18.709 55.0904C18.7098 55.5887 18.7114 56.0868 18.713 56.5846C18.719 58.4772 18.725 60.3666 18.6897 62.2557C18.6829 62.6182 18.51 63.0702 18.2791 63.3209L18.2791 63.3209C16.96 64.7531 15.6125 66.1558 14.2629 67.5607C13.8783 67.9611 13.4934 68.3617 13.1091 68.7632C13.0426 68.8326 12.9749 68.8979 12.8955 68.9722C12.8955 68.4484 12.8954 67.9278 12.8953 67.4101C12.8947 64.1283 12.8941 60.9593 12.907 57.7903L12.907 57.7903C12.9073 57.7217 12.9275 57.6188 12.9653 57.5252C12.9837 57.4796 13.0033 57.4435 13.021 57.4187C13.0322 57.403 13.0395 57.3962 13.0416 57.3943C14.5857 56.6034 16.1401 55.835 17.7523 55.038C18.0591 54.8863 18.368 54.7336 18.6793 54.5795C18.6957 54.7747 18.7087 54.9295 18.709 55.0904ZM18.709 55.0904L18.959 55.09M18.709 55.0904L18.959 55.09M18.959 55.09C18.9587 54.9182 18.9443 54.7464 18.927 54.5415C18.9248 54.5149 18.9225 54.4879 18.9202 54.4602L12.8955 69.3131C12.9052 69.3042 12.9146 69.2954 12.924 69.2868C13.0715 69.1504 13.1838 69.0466 13.2896 68.9361C13.6734 68.5353 14.0578 68.1351 14.4422 67.735C15.792 66.3298 17.1419 64.9245 18.463 63.4903C18.7387 63.1909 18.9319 62.6787 18.9397 62.2603C18.9751 60.3683 18.969 58.4753 18.963 56.5823C18.9614 56.0849 18.9598 55.5874 18.959 55.09Z" fill="#121316" stroke="white" stroke-width="0.5"/>
<path d="M17.541 27.0405L17.5409 27.0405C17.236 26.8899 16.9311 26.7403 16.6265 26.5909C15.5202 26.0481 14.4179 25.5072 13.3318 24.9309C13.2497 24.8874 13.1412 24.7907 13.052 24.6684C12.9592 24.5412 12.9212 24.4333 12.9207 24.3779C12.8924 21.2524 12.8941 18.1269 12.8958 15C12.8962 14.3643 12.8965 13.7285 12.8966 13.0927C13.0725 13.2793 13.2485 13.4661 13.4244 13.6529C14.0248 14.2902 14.6254 14.9278 15.2276 15.5635C15.5512 15.9052 15.8753 16.2453 16.1992 16.585C16.9225 17.3438 17.6442 18.1009 18.3551 18.8709C18.4424 18.9654 18.5315 19.0774 18.5977 19.1904C18.6662 19.3075 18.6966 19.4027 18.6973 19.4692C18.7203 21.6568 18.7185 23.8443 18.7166 26.1042C18.7162 26.6002 18.7158 27.0998 18.7156 27.6035C18.6524 27.5736 18.5904 27.5441 18.5293 27.5152C18.1775 27.3484 17.8586 27.1973 17.541 27.0405Z" fill="#121316" stroke="white" stroke-width="0.5"/>
<path d="M21.3846 65.2981L21.3846 65.2981C23.5475 65.2746 25.7104 65.2765 27.9415 65.2784C28.4212 65.2788 28.904 65.2792 29.3907 65.2793C29.2111 65.613 29.0275 65.9429 28.8448 66.2711C28.2819 67.2826 27.7281 68.2776 27.3297 69.3156C27.0396 70.0714 26.677 70.5219 26.2105 70.7819C25.7374 71.0457 25.1197 71.135 24.2751 71.0879C22.2242 70.9734 20.1601 70.9981 18.1059 71.0226C17.2452 71.0329 16.3863 71.0432 15.5308 71.0432H15.5293H15.5277H15.5261H15.5246H15.523H15.5214H15.5198H15.5183H15.5167H15.5151H15.5136H15.512H15.5104H15.5088H15.5073H15.5057H15.5041H15.5025H15.501H15.4994H15.4978H15.4962H15.4947H15.4931H15.4915H15.4899H15.4884H15.4868H15.4852H15.4836H15.4821H15.4805H15.4789H15.4773H15.4757H15.4742H15.4726H15.471H15.4694H15.4678H15.4663H15.4647H15.4631H15.4615H15.4599H15.4583H15.4567H15.4552H15.4536H15.452H15.4504H15.4488H15.4472H15.4456H15.444H15.4425H15.4409H15.4393H15.4377H15.4361H15.4345H15.4329H15.4313H15.4297H15.4281H15.4265H15.4249H15.4233H15.4217H15.4201H15.4185H15.4169H15.4153H15.4137H15.4121H15.4105H15.4089H15.4073H15.4057H15.404H15.4024H15.4008H15.3992H15.3976H15.396H15.3944H15.3927H15.3911H15.3895H15.3879H15.3863H15.3846H15.383H15.3814H15.3798H15.3781H15.3765H15.3749H15.3732H15.3716H15.37H15.3683H15.3667H15.3651H15.3634H15.3618H15.3601H15.3585H15.3569H15.3552H15.3536H15.3519H15.3503H15.3486H15.347H15.3453H15.3436H15.342H15.3403H15.3387H15.337H15.3353H15.3337H15.332H15.3304H15.3287H15.327H15.3253H15.3237H15.322H15.3203H15.3186H15.317H15.3153H15.3136H15.3119H15.3102H15.3085H15.3068H15.3052H15.3035H15.3018H15.3001H15.2984H15.2967H15.295H15.2933H15.2916H15.2899H15.2881H15.2864H15.2847H15.283H15.2813H15.2796H15.2779H15.2761H15.2744H15.2727H15.271H15.2692H15.2675H15.2658H15.264H15.2623H15.2605H15.2588H15.2571H15.2553H15.2536H15.2518H15.2501H15.2483H15.2465H15.2448H15.243H15.2413H15.2395H15.2377H15.236H15.2342H15.2324H15.2306H15.2289H15.2271H15.2253H15.2235H15.2217H15.2199H15.2181H15.2163H15.2146H15.2128H15.2109H15.2091H15.2073H15.2055H15.2037H15.2019H15.2001H15.1983H15.1964H15.1946H15.1928H15.191H15.1891H15.1873H15.1855H15.1836H15.1818H15.1799H15.1781H15.1763H15.1744H15.1725H15.1707H15.1688H15.167H15.1651H15.1632H15.1614H15.1595H15.1576H15.1557H15.1539H15.152H15.1501H15.1482H15.1463H15.1444H15.1425H15.1406H15.1387H15.1368H15.1349H15.133H15.1311H15.1291H15.1272H15.1253H15.1234H15.1214H15.1195H15.1176H15.1156H15.1137H15.1118H15.1098H15.1079H15.1059H15.1039H15.102H15.1H15.0981H15.0961H15.0941H15.0921H15.0902H15.0882H15.0869C15.1841 70.9528 15.2789 70.8647 15.3716 70.7786C15.8523 70.3319 16.277 69.9372 16.6972 69.5391C17.1616 69.0991 17.6241 68.6585 18.0864 68.2182C18.9891 67.3584 19.8908 66.4996 20.8023 65.6489C20.8981 65.5596 21.0086 65.4679 21.1193 65.3996C21.2347 65.3284 21.3246 65.2987 21.3846 65.2981Z" fill="#121316" stroke="white" stroke-width="0.5"/>
<path d="M70.7592 71.0754C70.4137 70.747 70.0721 70.422 69.7336 70.1C68.0613 68.509 66.4651 66.9905 64.8496 65.4904L70.7592 71.0754ZM70.7592 71.0754C70.6292 71.0818 70.5224 71.0858 70.4136 71.0859C69.4336 71.0865 68.4533 71.0858 67.4729 71.0852C64.9886 71.0836 62.5032 71.082 60.0185 71.0999M70.7592 71.0754L60.0185 71.0999M60.0185 71.0999C59.7611 71.1017 59.599 71.0673 59.4796 71.0005C59.3639 70.9357 59.2582 70.8234 59.1495 70.6069M60.0185 71.0999L56.6764 65.2823C56.5817 65.2825 56.4928 65.2915 56.3892 65.3044C56.6087 65.7226 56.8271 66.137 57.0442 66.5487C57.7654 67.917 58.4714 69.2562 59.1495 70.6069M59.1495 70.6069L58.926 70.7191L59.1495 70.6069ZM64.1099 65.2912L64.1099 65.2912L56.6764 65.2823C56.9479 65.2818 57.2194 65.2813 57.4909 65.2808C59.6983 65.2767 61.9042 65.2726 64.1099 65.2912Z" fill="#121316" stroke="white" stroke-width="0.5"/>
</svg>
