<svg width="85" height="82" viewBox="0 0 85 82" fill="none" xmlns="http://www.w3.org/2000/svg">
<g clip-path="url(#clip0_2828_371)">
<path d="M0 45.8927C1.32202 35.3012 7.70609 26.7688 10.8735 16.4619C12.5516 11.0009 12.5861 3.85955 19.4227 2.23398C25.8406 0.707978 31.5023 5.76216 30.6927 12.1338L27.8923 23.9419L50.6328 1.7454C55.029 -1.6268 61.6917 0.0757353 63.5972 5.23201C65.3876 4.60062 66.8467 4.09786 68.8107 4.27012C71.8542 4.53706 74.8329 6.96074 75.8317 9.75123C76.3517 11.2038 76.1772 12.4995 76.2182 14.0073C82.4812 15.4018 85.0868 22.5387 80.854 27.442C80.2347 28.1593 77.4064 30.5279 77.1987 31.0171C77.0834 31.2888 77.3079 31.2367 77.4089 31.2943C78.0027 31.633 78.6338 31.9019 79.1756 32.3293C82.6993 35.1098 83.2121 40.2925 80.4207 43.7653C71.1675 52.2486 62.6413 62.0438 53.2933 70.366C33.3981 88.0779 2.61107 76.4359 0.153775 50.541L0 50.2828V45.8927ZM55.5804 4.95245C54.9147 5.01664 54.1213 5.3746 53.6214 5.81067L24.906 33.9453C23.1014 35.4914 20.6375 34.2199 20.5807 31.998C21.9381 25.8115 23.7861 19.7185 25.1536 13.5379C25.4915 12.0106 26.029 10.7933 25.358 9.26837C24.0738 6.34992 19.6793 6.15514 18.1955 8.99938C17.2554 10.8014 16.5495 15.3295 15.8539 17.6001C13.5646 25.0732 10.2963 30.7004 7.27585 37.6532C-3.80391 63.1578 28.0319 85.5272 48.977 67.4392C58.3231 59.3679 66.6401 49.2391 76.039 41.0998C79.031 37.9836 75.1734 33.6571 71.632 36.4583C67.1031 40.0408 63.0418 45.6288 58.5244 49.311C55.6824 51.6277 52.5227 48.6787 54.6985 45.889L77.1699 23.9964C79.4197 20.8112 75.5213 17.2531 72.3788 19.6291L52.1847 39.362C49.5801 41.1369 46.6249 38.0623 48.7219 35.6454L70.5293 14.4031C72.7697 11.2555 68.8624 7.62448 65.7406 10.0382L43.9835 31.3296C41.1274 33.2458 38.3938 29.692 40.7549 27.3546L58.5768 9.85095C60.099 7.75319 58.0585 4.71353 55.5804 4.95245Z" fill="white"/>
<path d="M85 64.9182V66.0564C82.0694 72.6829 76.6811 78.3658 69.8384 81.2062C68.1651 81.9008 65.7178 82.8387 64.7896 80.5662C63.5589 77.5529 66.9441 77.0921 68.8431 76.1665C73.5053 73.8942 76.9051 70.2928 79.446 65.9011C79.7425 65.3886 79.8582 64.7337 80.2134 64.2137C81.6042 62.1775 84.2349 62.6747 85 64.9182Z" fill="white"/>
<path d="M74.0028 58.2837C75.1482 58.1185 76.5242 58.9019 76.7933 60.0253C77.1323 61.4408 76.1597 63.0506 75.4408 64.2516C73.2333 67.9392 69.3775 71.3785 65.356 73.0731C63.6664 73.7851 61.2029 74.7232 60.2317 72.5074C58.855 69.3664 62.9646 68.796 64.9628 67.6475C67.0151 66.4678 69.1338 64.5564 70.4585 62.6237C71.4432 61.1871 72.0892 58.5597 74.0028 58.2837Z" fill="white"/>
</g>
<defs>
<clipPath id="clip0_2828_371">
<rect width="85" height="82" fill="white"/>
</clipPath>
</defs>
</svg>
