<svg width="1728" height="941" viewBox="0 0 1728 941" fill="none" xmlns="http://www.w3.org/2000/svg">
<mask id="mask0_2840_481" style="mask-type:luminance" maskUnits="userSpaceOnUse" x="0" y="-1" width="1729" height="942">
<path d="M1728 -0.00405732L0 -0.00390625L8.22384e-05 940.694L1728 940.694L1728 -0.00405732Z" fill="white"/>
</mask>
<g mask="url(#mask0_2840_481)">
<path d="M22.2057 224.908C-65.1664 273.533 -116.47 338.259 -188.647 393.458C-238.079 431.263 -285.481 469.822 -336.332 507.082C-412.631 562.988 -494.773 616.338 -585.815 665.31C-777.48 768.41 -972.621 869.632 -1166.82 971.309" stroke="url(#paint0_linear_2840_481)" stroke-miterlimit="10"/>
<path d="M79.5099 238.097C-1.83876 280.007 -46.2137 339.073 -118.738 385.608C-166.992 416.57 -202.093 451.289 -243.332 484.924C-318.391 546.142 -397.594 605.887 -484.905 662.133C-652.781 770.279 -842.415 869.528 -1023.04 971.309" stroke="url(#paint1_linear_2840_481)" stroke-miterlimit="10"/>
<path d="M136.605 254.635C66.2132 282.654 35.6338 335.603 -27.3739 368.695C-57.1311 384.323 -91.6354 397.145 -115.925 415.773C-141.215 435.167 -155.278 458.897 -175.368 479.869C-233.896 540.965 -309.905 598.56 -384.285 654.196C-534.279 766.394 -709.83 867.88 -879.264 971.309" stroke="url(#paint2_linear_2840_481)" stroke-miterlimit="10"/>
<path d="M193.641 272.723C131.207 296.465 112.78 339.347 45.4423 363.634C8.5737 376.932 -34.4119 385.142 -62.9716 404.761C-85.947 420.545 -94.1324 441.378 -105.851 459.927C-147.403 525.693 -214.991 585.223 -283.517 643.577C-419.294 759.197 -576.277 865.159 -735.485 971.309" stroke="url(#paint3_linear_2840_481)" stroke-miterlimit="10"/>
<path d="M251.89 291.183C207.193 310.541 200.71 339.056 144.327 354.416C51.6367 379.667 -22.5155 374.575 -43.1896 437.768C-65.3066 505.372 -120.958 572.258 -182.472 632.072C-304.257 750.491 -443.543 862.291 -591.707 971.309" stroke="url(#paint4_linear_2840_481)" stroke-miterlimit="10"/>
<path d="M310.481 307.094C279.887 331.859 277.534 345.762 208.969 355.661C126.944 367.503 23.1458 358.519 17.0072 416.881C9.83014 485.118 -24.6742 558.462 -80.9735 620.552C-190.197 741.01 -313.553 858.46 -447.93 971.309" stroke="url(#paint5_linear_2840_481)" stroke-miterlimit="10"/>
<path d="M367.967 317.244C332.9 348.172 378.923 321.338 375.288 334.366C368.857 357.411 334.443 357.466 283.208 360.155C221.17 363.411 82.7213 349.43 77.6606 397.541C76.6453 407.195 89.1336 417.739 90.2308 427.476C92.3504 446.286 78.5654 467.883 72.0187 486.2C57.4755 526.889 52.6776 572.877 19.6887 610.683C-5.75125 639.838 -56.2827 658.54 -77.113 689.582C-99.2611 722.586 -119.076 756.132 -141.9 789.132C-185.838 852.661 -244.194 911.866 -304.152 971.309" stroke="url(#paint6_linear_2840_481)" stroke-miterlimit="10"/>
<path d="M419.271 321.299C398.632 352.068 441.253 327.927 442.477 343.464C443.97 362.422 422.104 363.619 382.914 365.784C331.125 368.645 148.078 349.957 149.406 391.445C149.662 399.442 165.937 405.923 168.814 413.877C173.797 427.65 163.578 444.994 159.97 458.411C148.023 502.835 156.998 563.852 119.464 604.303C91.4172 634.529 22.0455 640.196 -1.93843 673.564C-24.9768 705.616 -52.5322 741.528 -67.3951 775.126C-81.8709 807.848 -64.1602 842.218 -81.4627 874.565C-99.0295 907.407 -134.439 940.134 -160.373 971.293" stroke="url(#paint7_linear_2840_481)" stroke-miterlimit="10"/>
<path d="M465.704 320.789C453.352 351.311 550.873 339.174 482.183 369.93C459.43 380.118 207.771 370.071 225.371 394.824C246.953 425.177 267.839 395.603 255.82 441.529C248.138 471.07 243.004 500.744 240.419 530.552C238.817 556.111 233.375 581.411 224.094 606.45C193.928 634.624 117.726 622.698 84.399 648.9C74.9576 666.994 62.0261 684.33 45.6042 700.908C26.0225 718.129 9.40783 736.156 -4.24094 754.991C-27.3668 799.3 45.9029 825.147 47.1643 866.879C48.1531 899.574 3.93089 941.175 -16.5953 971.281" stroke="url(#paint8_linear_2840_481)" stroke-miterlimit="10"/>
<path d="M508.986 317.106C502.616 349.44 597.759 335.339 540.07 370.816C512.749 387.618 306.9 389.246 314.268 413.516C320.139 418.763 328.518 422.101 339.403 423.531C348.195 431.796 349.316 440.833 342.767 450.643C339.809 478.979 338.935 507.336 340.143 535.715C341.247 561.505 336.699 586.961 326.501 612.083C291.704 641.963 212.856 617.233 174.411 642.128C164.242 660.172 149.542 677.083 130.309 692.861C105.876 709.923 84.4952 728.046 66.1656 747.231C34.6196 799.19 157.939 819.391 174.001 864.372C185.456 896.45 143.814 941.168 127.184 971.281" stroke="url(#paint9_linear_2840_481)" stroke-miterlimit="10"/>
<path d="M550.836 311.621C550.708 349.116 648.511 327.054 588.02 372.56C542.429 406.857 438.283 404.828 407.339 442.828C363.326 496.877 505.423 568.658 444.909 618.537C408.992 648.142 347.053 629.579 296.529 646.078C277.189 658.784 262.361 672.952 252.043 688.583C224.623 705.919 198.392 723.771 173.349 742.14C113.13 798.509 266.132 816.273 298.098 860.573C322.287 894.096 285.444 938.45 270.962 971.281" stroke="url(#paint10_linear_2840_481)" stroke-miterlimit="10"/>
<path d="M592.976 305.719C598.623 347.226 684.938 316.031 643.181 370.317C615.172 394.893 582.49 417.451 545.134 437.99C526.495 448.66 511.492 460.608 500.123 473.832C463.849 489.385 429.955 481.848 459.081 515.695C485.101 545.932 617.607 591.433 588.727 629.688C564.054 662.37 478.591 648.24 431.505 666.178C413.796 677.444 400.412 690.106 391.354 704.163C368.92 718.412 347.48 733.09 327.034 748.199C273.824 798.542 399.751 823.927 429.747 864.776C453.747 897.459 425.604 938.394 414.74 971.281" stroke="url(#paint11_linear_2840_481)" stroke-miterlimit="10"/>
<path d="M637.125 300.802C644.209 326.393 691.378 317.499 706.374 336.408C725.356 360.343 666.474 415.517 648.946 437.221C632.998 456.97 626.466 490.522 592.972 504.111C566.496 514.853 515.071 517.288 485.08 526.169C532.212 564.781 613.556 578.098 680.714 604.468C727.135 622.695 766.302 634.064 716.401 657.972C678.665 676.051 613.962 671.631 577.157 690.337C558.982 699.576 557.02 713.222 545.357 724.142C530.152 738.38 506.662 748.863 499.138 765.28C487.58 790.499 514.567 812.393 534.846 834.441C579.665 883.172 569.469 919.132 558.516 971.293" stroke="url(#paint12_linear_2840_481)" stroke-miterlimit="10"/>
<path d="M685.004 298.251C695.824 323.19 742.673 314.673 760.177 333.292C783.56 358.165 737.605 423.605 727.183 449.645C717.555 473.703 725.456 513.02 684.352 528.927C651.08 541.802 571.332 545.301 532.447 553.934C601.62 592.512 706.675 599.372 796.098 619.626C825.527 626.962 854.955 634.299 884.384 641.636C900.002 655.805 893.975 664.991 866.305 669.192C829.722 691.449 755.752 689.59 719.851 712.393C704.556 722.107 704.83 731.955 697.44 742.733C674.593 776.058 679.847 802.93 693.021 838.659C709.576 883.554 705.815 925.864 702.292 971.309" stroke="url(#paint13_linear_2840_481)" stroke-miterlimit="10"/>
<path d="M738.333 299.433C753.349 323.769 802.063 315.588 820.977 334.281C847.28 360.277 810.136 430.141 804.311 458.835C799.245 483.791 814.531 526.301 772.731 543.529C738.869 557.485 640.369 561.982 599.138 570.215C679.527 610.627 802.43 611.861 904.639 628.81C939.288 635.238 973.937 641.667 1008.59 648.096C1027.33 661.829 1022.56 671.243 994.272 676.337C946.485 709.526 837.994 704.408 830.993 754.135C821.136 824.147 841.261 900.622 846.068 971.309" stroke="url(#paint14_linear_2840_481)" stroke-miterlimit="10"/>
<path d="M809.392 303.583C823.824 326.514 866.362 321.601 887.353 340.267C889.425 351.222 891.496 362.176 893.568 373.131C894.645 402.144 895.781 431.157 896.975 460.169C897.827 481.176 916.55 525.894 883.957 542.445C852.811 558.261 768.279 559.91 728.972 569.096C786.141 598.182 863.348 605.845 937.496 618.012C975.276 624.211 1119.58 632.55 1102.23 666.082C1091.82 686.21 1030.82 700.927 1008.14 716.625C988.27 730.382 982.789 738.595 974.596 755.731C943.041 821.719 975.86 902.397 989.85 971.309" stroke="url(#paint15_linear_2840_481)" stroke-miterlimit="10"/>
<path d="M881.405 305.967C895.803 325.521 930.699 331.746 947.763 349.863C976.081 379.929 975.05 424.345 989.236 457.284C996.416 473.956 1028.82 514.583 1002.5 530.035C979.241 543.693 909.003 546.239 878.09 555.636C946.074 593.989 1139.47 604.525 1162.84 657.057C1169.33 671.637 1151.47 694.449 1151.31 709.801C1151.11 729.771 1159.01 736.431 1137.48 754.511C1126.17 764.008 1098.97 769.181 1090.16 779.907C1076.9 796.046 1091.67 823.905 1094.68 840.717C1102.84 886.263 1118.25 926.827 1133.63 971.309" stroke="url(#paint16_linear_2840_481)" stroke-miterlimit="10"/>
<path d="M957.367 309.054C979.341 336.039 996.662 361.677 1015.77 389.213C1028.86 408.088 1157.91 490.374 1138.75 509.859C1116.32 532.674 1035.58 510.847 1054.41 547.523C1083.51 563.399 1114.07 578.394 1146.11 592.507C1174.8 603.229 1193.45 617.524 1202.05 635.392C1213.59 651.172 1231.08 664.773 1254.49 676.196C1281.57 690.43 1308.14 704.943 1334.2 719.734C1361.39 758.009 1241.51 767.403 1215.13 795.281C1192.25 819.453 1226.34 883.048 1235.12 908.115C1243.36 931.626 1266.26 948.801 1277.41 971.32" stroke="url(#paint17_linear_2840_481)" stroke-miterlimit="10"/>
<path d="M1035.93 312.531C1051.58 341.811 1042.48 377.79 1072.12 404.163C1088.37 418.628 1283.58 475.722 1271.61 491.131C1252.75 515.412 1214.08 493.653 1218.78 527.95C1229.14 543.981 1237.38 560.332 1243.49 577.004C1249 592.582 1248.63 608.085 1242.39 623.514C1274.03 642.104 1311.46 656.432 1354.67 666.499C1406.82 680.516 1457.53 695.93 1506.8 712.741C1544.98 757.45 1370.74 772.121 1340.45 804.482C1317.52 828.982 1355.33 890.834 1366.92 915.585C1377.93 939.102 1409.49 949.555 1421.19 971.32" stroke="url(#paint18_linear_2840_481)" stroke-miterlimit="10"/>
<path d="M1115.38 316.06C1123.74 349.256 1085.36 391.264 1128.55 418.869C1157.88 437.615 1401.89 448.768 1398.16 474.614C1393.53 480.9 1385.27 485.118 1373.38 487.269C1360.04 494.487 1358.1 502.975 1367.59 512.731C1364.31 531.381 1355.2 549.177 1340.26 566.118C1324.58 581.889 1313.52 598.537 1307.08 616.063C1351.3 636.621 1401.43 651.696 1457.48 661.287C1523.54 674.613 1587.08 690.828 1648.09 709.932C1680.17 758.963 1493.27 770.165 1462.33 806.924C1442.83 830.096 1486.62 890.806 1500.32 913.247C1514.82 936.992 1548.73 948.842 1564.97 971.32" stroke="url(#paint19_linear_2840_481)" stroke-miterlimit="10"/>
<path d="M1193.98 319.334C1195.21 340.646 1190.28 354.997 1178.37 375.399C1169.39 390.779 1149.17 415.038 1178.13 429.083C1216.5 447.693 1336.97 443.073 1385.12 445.221C1407.02 446.198 1496.83 443.261 1507.42 460.886C1512.83 469.879 1493.99 471.058 1492.71 476.472C1491.17 482.992 1485.83 491.955 1483.55 499.38C1473.02 533.622 1391.41 586.128 1418.16 616.772C1464.18 669.505 1650 663.219 1704.89 713.377C1731.23 719.554 1733.56 727.299 1711.86 736.612C1703 746.774 1689.44 754.606 1671.17 760.108C1645.32 773.354 1604.03 783.814 1589.33 802.329C1569.97 826.719 1610.49 868.971 1628.27 894.331C1648.23 922.789 1682.3 944.721 1708.75 971.309" stroke="url(#paint20_linear_2840_481)" stroke-miterlimit="10"/>
<path d="M1270.01 322.036C1268.46 345.925 1259.56 360.65 1243.08 382.875C1231.15 398.952 1206.53 423.4 1241.1 437.885C1295.79 460.801 1575.64 413.969 1593.51 458.915C1597.25 468.338 1579.88 471.747 1575.17 478.51C1567.69 489.251 1566.15 494.444 1563.34 506.191C1554.77 541.987 1499.46 593.459 1530.33 626.443C1572.36 671.343 1707.04 680.519 1744.6 727.752C1770.86 760.783 1699.24 772.101 1698.12 804.555C1697.3 828.399 1741.28 863.471 1760.92 884.982C1788.12 914.787 1823.4 942.042 1852.53 971.309" stroke="url(#paint21_linear_2840_481)" stroke-miterlimit="10"/>
<path d="M1341.75 323.822C1339.86 348.298 1329.46 361.979 1311.56 384.485C1298.7 400.654 1279.34 415.212 1312.34 427.97C1372.3 451.156 1647.52 403.727 1653.63 468.136C1655.39 486.657 1625.4 506.12 1625 527.342C1624.35 562.007 1606.99 608.252 1638.35 640.21C1673.75 676.278 1750.37 698.968 1772.28 740.001C1785.23 764.233 1772.19 781.476 1799.86 803.191C1869.13 857.547 1933.46 914.036 1996.31 971.309" stroke="url(#paint22_linear_2840_481)" stroke-miterlimit="10"/>
<path d="M1407.84 324.335C1410.98 344.004 1404.36 352.34 1391.93 370.769C1370.81 402.094 1386.68 404.226 1442.06 412.655C1515.22 423.79 1681.51 424.321 1702.04 475.302C1712.3 500.793 1674.22 524.536 1683.67 552.765C1696.4 590.834 1717 620.756 1751.41 654.606C1783.32 686 1796.88 714.489 1810.41 749.08C1825.93 788.735 1870.32 786.859 1925.02 806.621C1966.82 821.722 1992.44 851.412 2019.84 873.597C2060.01 906.134 2100.12 938.696 2140.09 971.309" stroke="url(#paint23_linear_2840_481)" stroke-miterlimit="10"/>
<path d="M1476.37 316.683C1496.43 332.56 1470.31 345.953 1468.29 362.755C1465.43 386.607 1465.16 383.519 1503.85 399.024C1569.59 425.369 1740 431.851 1750.48 490.939C1756.55 525.179 1713.79 544.589 1743.92 579.918C1772.64 613.598 1827.65 633.943 1861.46 664.71C1894.19 694.495 1868.25 729.98 1895.22 759.212C1924.23 790.662 1998.54 789.371 2047.02 807.005C2093.8 824.019 2124.59 854.16 2157.85 878.553C2199.94 909.436 2241.96 940.352 2283.87 971.309" stroke="url(#paint24_linear_2840_481)" stroke-miterlimit="10"/>
<path d="M1546.93 297.953C1594.42 321.434 1504.54 369.176 1584.22 400.478C1661.92 431 1782.58 448.623 1795.16 509.713C1801.66 541.241 1772.44 563.956 1808.97 593.025C1849.19 625.03 1930.77 635.486 1970.19 666.697C2004.09 693.531 1984.66 730.973 2018.64 757.528C2051.54 783.237 2118.93 786.617 2164.37 803.262C2267.67 841.107 2349.79 918.768 2427.65 971.309" stroke="url(#paint25_linear_2840_481)" stroke-miterlimit="10"/>
<path d="M1617.73 270.576C1644.6 276.048 1622.18 332.776 1622.57 339.42C1624.42 371.602 1643.41 387.628 1683.01 410.527C1747.06 447.569 1826.3 471.962 1850.86 524.706C1863.34 551.498 1853.79 574.095 1892.86 595.664C1944.81 624.345 2025.93 635.111 2072.82 666.965C2106.71 689.977 2108.68 721.644 2141.56 745.189C2180.71 773.217 2249.22 782.526 2298.1 804.723C2399.97 850.981 2484.13 917.098 2571.43 971.309" stroke="url(#paint26_linear_2840_481)" stroke-miterlimit="10"/>
<path d="M1684.43 239.568C1719.98 250.582 1704.19 315.749 1705.53 328.3C1710.19 371.995 1720.1 397.337 1773.41 429.408C1822.74 459.087 1879.87 487.365 1917.66 522.26C1947.75 550.035 1953.88 577.416 2002.06 598.831C2057.63 623.529 2128.45 637.614 2177.69 666.753C2216.16 689.514 2235.41 719.364 2276.43 741.366C2320.69 765.108 2377.6 780.602 2422.61 804.225C2524.09 857.488 2618.35 915.564 2715.21 971.309" stroke="url(#paint27_linear_2840_481)" stroke-miterlimit="10"/>
<path d="M-50.9199 214.049C140.831 232.182 244.769 314.653 415.081 321.078C530.367 325.427 599.616 291.759 742.751 299.442C918.74 308.887 1106.84 317.142 1283.47 322.175C1400.98 328.289 1461.28 325.287 1550.88 295.835C1662.04 259.297 1749.34 202.292 1859.66 164.384" stroke="url(#paint28_linear_2840_481)" stroke-miterlimit="10"/>
<path d="M-72.6398 233.457C107.948 242.588 243.291 325.246 420.635 331.277C535.005 335.166 639.119 304.443 755.45 309.846C927.973 317.859 1100.47 329.972 1273.21 336.146C1373.21 339.72 1449.81 335.652 1538.03 306.852C1654.76 268.747 1750.36 217.839 1873.07 184.117" stroke="url(#paint29_linear_2840_481)" stroke-miterlimit="10"/>
<path d="M-95.9598 251.055C8.4574 250.639 98.092 267.581 192.987 290.461C267.43 308.411 340.883 332.008 423.621 335.711C540.021 340.922 647.088 309.293 765.302 314.832C934.078 322.74 1100.57 340.452 1269.17 348.226C1372.62 352.996 1448.36 342.575 1538.7 313.482C1654.78 276.099 1753.63 234.588 1882.41 209.698" stroke="url(#paint30_linear_2840_481)" stroke-miterlimit="10"/>
<path d="M-121.139 272.846C-15.2076 266.28 80.0153 276.342 180.365 294.63C264.222 309.913 348.597 335.398 438.247 339.001C555.031 343.695 661.966 312.966 780.563 318.772C946.363 326.889 1105.94 353.226 1271.06 362.338C1372.07 367.912 1453.35 348.385 1541.44 322.003C1655.14 287.948 1760.17 259.48 1889.21 245.699" stroke="url(#paint31_linear_2840_481)" stroke-miterlimit="10"/>
<path d="M-148.086 298.218C-33.3218 284.75 76.1629 288.817 189.978 303.588C273.081 314.373 353.989 334.335 438.972 340.264C559.474 348.67 672.78 315.506 794.781 321.854C957.334 330.312 1107.23 367.735 1268.47 377.81C1364.98 383.84 1456.12 355.946 1541.6 334.379C1656.09 305.49 1769.1 292.832 1895.26 289.411" stroke="url(#paint32_linear_2840_481)" stroke-miterlimit="10"/>
<path d="M-176.213 325.92C-60.2444 306.75 55.3154 302.882 175.562 310.979C265.222 317.016 350.529 333.815 439.349 341.216C566.444 351.807 684.162 317.462 811.989 325.491C964.632 335.079 1095.58 380.013 1245.65 392.579C1345.25 400.918 1448.1 366.432 1541.58 349.668C1659.98 328.433 1780.04 332.613 1902.73 336.645" stroke="url(#paint33_linear_2840_481)" stroke-miterlimit="10"/>
<path d="M-204.224 353.761C-87.4673 330.302 33.1277 319.708 157.547 321.141C265.298 322.382 364.39 339.773 470.2 346.398C591.107 353.968 703.97 321.622 825.811 329.823C971.446 339.625 1083.93 394.892 1225.4 407.579C1329.32 416.898 1441.84 376.009 1544.02 365.941C1667.66 353.758 1791.63 373.996 1914.11 381.188" stroke="url(#paint34_linear_2840_481)" stroke-miterlimit="10"/>
<path d="M-229.805 377.85C-112.225 353.488 9.12936 337.852 134.928 333.833C250.269 330.148 350.828 343.428 463.252 352.009C590.41 361.715 708.551 328.277 836.113 336.952C906.659 341.75 967.473 354.456 1028.48 373.601C1089.71 392.814 1155.85 420.137 1229.3 423.218C1281.36 425.401 1318.41 412.653 1366.07 403.102C1426.86 390.919 1491.08 380.876 1556.24 379.617C1684.29 377.143 1802.91 410.2 1929.95 413.832" stroke="url(#paint35_linear_2840_481)" stroke-miterlimit="10"/>
<path d="M-252.711 395.981C-18.3319 349.176 198.887 337.737 443.296 361.734C577.499 374.91 704.102 341.447 838.128 349.438C913.976 353.96 979.373 369.945 1044.73 390.492C1105.31 409.537 1177.86 438.103 1251 436.713C1299.77 435.786 1349.73 417.087 1394.68 408.682C1455.69 397.273 1518.81 390.318 1583.59 392.588C1710.49 397.033 1823.68 429.146 1952.66 429.791" stroke="url(#paint36_linear_2840_481)" stroke-miterlimit="10"/>
<path d="M-275.541 413.088C-53.6976 369.401 155.303 341.808 390.035 367.431C538.741 383.663 686.272 369.886 835.568 378.492C915.67 383.109 990.887 394.601 1066.51 409.239C1138 423.074 1222.01 444.734 1299.52 443.292C1352.78 442.301 1405.62 423.839 1458.58 416.469C1509.24 409.419 1558.87 406.919 1610.86 409.573C1669.04 412.541 1723.2 422.716 1779.17 431.161C1846.56 441.328 1909.8 443.003 1979.29 443.539" stroke="url(#paint37_linear_2840_481)" stroke-miterlimit="10"/>
<path d="M-299.297 430.697C-78.5484 388.526 122.959 341.804 359.45 371.628C513.987 391.116 670.004 406.87 827.927 415.69C917.274 420.679 1006.44 423.314 1095.67 429.439C1182.14 435.374 1277.8 447.11 1365.48 443.914C1464.05 440.321 1543.79 414.236 1646.71 423.296C1705.05 428.432 1758.87 441.723 1815.61 450.024C1879.27 459.34 1942.62 458.167 2007.9 458.699" stroke="url(#paint38_linear_2840_481)" stroke-miterlimit="10"/>
<path d="M-324.17 448.726C-130.529 413.352 66.9997 343.078 278.418 367.383C461.719 388.457 632.39 443.925 820.755 453.933C918.994 459.152 1022.49 451.452 1121.11 449.233C1233.57 446.702 1355.12 451.322 1465.99 440.632C1553.31 432.214 1619.99 426.563 1707.62 441.235C1756.51 449.422 1801.8 462.785 1851.89 469.12C1912.28 476.758 1976.4 473.88 2037.92 474.286" stroke="url(#paint39_linear_2840_481)" stroke-miterlimit="10"/>
<path d="M-350.249 467.179C-236.639 447.654 -137.398 422.062 -31.1209 393.507C45.5663 372.902 121.123 359.543 207.58 366.392C422.613 383.428 598.781 478.963 817.04 490.645C932.871 496.844 1061.77 477.166 1175.74 467.006C1293.97 456.465 1411.93 447.392 1531.15 441.11C1614.54 436.716 1676.84 442.781 1753.35 461.274C1862.1 487.557 1950.14 489.801 2068.94 490.192" stroke="url(#paint40_linear_2840_481)" stroke-miterlimit="10"/>
<path d="M-377.62 485.96C-262.299 467.681 -162.065 447.298 -60.6831 412.169C18.3186 384.795 90.9401 364.138 187.852 373.21C411.069 394.104 582.386 509.321 810.053 521.623C944.706 528.9 1099.48 496.662 1228.71 479.801C1342.4 464.967 1460.67 446.367 1578.28 446.071C1659.12 445.867 1715.28 464.119 1784.4 483.761C1884.39 512.178 1990.72 505.723 2100.46 505.727" stroke="url(#paint41_linear_2840_481)" stroke-miterlimit="10"/>
<path d="M-406.36 505.088C-292.468 488.838 -181.72 472.411 -82.6082 436.918C-6.52543 409.672 56.8127 381.952 153.038 384.65C395.344 391.442 566.695 525.04 806.907 537.982C1078.97 552.64 1340.98 437.994 1613.71 459.453C1687.41 465.252 1737.77 489.986 1802.92 506.312C1901.33 530.971 2025.41 520.464 2130.68 520.401" stroke="url(#paint42_linear_2840_481)" stroke-miterlimit="10"/>
<path d="M-436.56 524.506C-321.5 510.158 -199.881 495.182 -98.8299 460.786C-19.4093 433.753 52.5868 398.607 150.694 395.808C392.568 388.908 545.557 537.024 779.896 547.428C922.175 553.745 1077.23 521.82 1213.45 503.07C1334.71 486.379 1476.23 458.757 1602.96 469.659C1678.61 476.166 1729.76 503.748 1796.37 521.044C1901 548.212 2043.54 535.311 2156.07 535.343" stroke="url(#paint43_linear_2840_481)" stroke-miterlimit="10"/>
<path d="M-468.354 544.116C-350.861 531.876 -222.33 517.613 -117.365 485.259C-22.3969 455.987 60.9899 411.966 173.679 404.926C403.174 390.591 510.397 540.743 724.183 554.701C870.778 564.272 1042.32 527.897 1182.68 509.218C1305.24 492.906 1456.31 462.721 1584.05 476.674C1667.04 485.74 1720.7 521.772 1795.84 539.307C1906.93 565.232 2062.87 550.935 2181.05 551.082" stroke="url(#paint44_linear_2840_481)" stroke-miterlimit="10"/>
<path d="M-501.87 563.828C-376.363 553.664 -239.481 539.54 -127.094 506.435C-24.8338 476.313 64.0276 428.253 180.301 414.114C415.366 385.531 463.733 546.119 667.713 561.166C817.943 572.249 998.733 534.685 1143.09 516.332C1269.89 500.21 1440.42 465.703 1572.26 485.946C1655.71 498.759 1707.02 538.898 1785.12 556.692C1843.93 570.092 1909.23 567.195 1971.5 567.302C2051.04 567.438 2130.58 567.596 2210.12 567.75" stroke="url(#paint45_linear_2840_481)" stroke-miterlimit="10"/>
<path d="M-537.247 583.575C-412.709 576.675 -276.419 563.19 -160.889 535.819C-41.6498 507.568 52.8336 453.148 178.705 432.537C284.398 415.231 368.781 432.25 431.051 480.635C482.839 520.875 517.122 563.964 616.026 571.546C689.206 577.157 771.874 566.317 843.544 559.184C943.707 549.216 1042.98 536.73 1142.5 525.073C1270.68 510.06 1436.64 477.612 1566.54 501.927C1654.98 518.479 1708.52 566.355 1799.3 580.508C1855.1 589.209 1917.33 585.714 1974.67 585.73C2065.46 585.754 2156.26 585.821 2247.06 585.874" stroke="url(#paint46_linear_2840_481)" stroke-miterlimit="10"/>
<path d="M-575.013 603.282C-443.718 599.694 -299.476 586.504 -176.344 560.53C-56.516 535.254 43.097 486.814 166.469 465.931C279.952 446.723 365.722 463.001 446.064 508.245C507.771 542.995 560.954 583.672 655.337 590.798C811.401 602.58 993.778 564.941 1144.25 546.466C1273.31 530.621 1436.97 500.088 1567.15 527.05C1657.96 545.857 1723.95 589.955 1821.24 600.991C1968.19 617.659 2144.68 604.64 2294.19 604.657" stroke="url(#paint47_linear_2840_481)" stroke-miterlimit="10"/>
<path d="M-615.55 623.191C-478.974 622.599 -345.569 608.414 -213.809 589.361C-86.2517 570.915 27.3819 530.76 156.63 515.504C405.217 486.162 563.798 601.152 797.397 612.453C1052.58 624.799 1292.88 517.276 1548.87 560.941C1661.55 580.162 1757.33 619.239 1878.29 623.819C2032.89 629.672 2191.65 624.424 2346.61 624.404" stroke="url(#paint48_linear_2840_481)" stroke-miterlimit="10"/>
<path d="M-658.387 644.207C-511.939 643.904 -375.593 631.972 -232.932 614.702C-106.922 599.449 17.5208 574.735 146.362 567.591C423.753 552.211 689.645 629.144 964.795 635.575C1055.18 637.687 1129.36 620.118 1212.27 603.564C1318.28 582.396 1422.07 583.577 1531.5 597.586C1663.17 614.441 1787.06 644.185 1924.3 645.5C2081.99 647.011 2240.01 645.267 2397.73 645.301" stroke="url(#paint49_linear_2840_481)" stroke-miterlimit="10"/>
<path d="M-703.726 666.463C-551.347 666.167 -408.457 658.507 -259.118 641.836C-126.881 627.074 5.67835 608.76 141.287 606.735C276.112 604.722 411.576 620.229 544.786 629.459C710.416 640.935 878.553 655.198 1045.53 658.945C1120.86 660.636 1159.91 647.101 1223.04 629.827C1320.41 603.187 1447.91 618.859 1548.87 630.399C1695.8 647.193 1835.93 667.81 1987.18 667.73C2140.01 667.65 2292.84 667.187 2445.66 667.46" stroke="url(#paint50_linear_2840_481)" stroke-miterlimit="10"/>
<path d="M-751.852 690.146C-599.501 689.621 -453.352 686.982 -303.132 671.844C-174.111 658.842 -46.4173 637.557 83.4758 627.929C387.632 605.383 695.826 677.973 999.174 684.251C1098.12 686.299 1186.34 668.746 1280.95 656.314C1395.92 641.206 1503.97 646.806 1617.18 663.571C1746.28 682.688 1861.78 698.276 1996.67 697.322C2162.93 696.146 2328.93 690.516 2495.24 691.037" stroke="url(#paint51_linear_2840_481)" stroke-miterlimit="10"/>
<path d="M-803.226 715.487C-644.828 714.389 -490.523 715.023 -333.65 701.263C-200.864 689.615 -86.2554 665.374 41.1148 644.53C327.934 597.59 621.443 702.103 906.907 712.869C1057.47 718.548 1212.23 700.336 1361.36 691.165C1478.97 683.932 1597.4 674.06 1706.73 703.354C1809.36 730.852 1885.52 736.412 2002.49 732.877C2184.67 727.37 2365.15 716.011 2547.86 715.923" stroke="url(#paint52_linear_2840_481)" stroke-miterlimit="10"/>
<path d="M-857.95 742.3C-691.83 741.56 -526.174 743.934 -361.214 731.559C-293.756 726.498 -222.282 723.134 -156.868 712.53C-98.8823 703.131 -47.9778 686.101 6.10377 671.917C283.097 599.269 572.982 731.014 851.919 741.601C1049.69 749.107 1255.75 729.765 1452.94 722.47C1546.74 719 1688.65 698.624 1761.28 741.279C1782.22 753.577 1785.28 760.86 1818.42 766.096C1885.91 776.759 1973.41 767.308 2041.96 763.773C2230.31 754.059 2414.24 742.521 2603.77 742.446" stroke="url(#paint53_linear_2840_481)" stroke-miterlimit="10"/>
<path d="M-916.362 770.769C-623.968 770.008 -296.995 784.757 -25.3323 716.36C92.5719 686.675 198.226 691.308 323.746 704.252C500.518 722.482 677.075 751.239 857.388 756.773C1037.54 762.301 1219.99 757.952 1400.36 758.012C1517.04 758.051 1622.67 757.286 1734.58 775.804C1855.2 795.764 1977.66 789.345 2102.08 784.217C2289.77 776.48 2475.03 770.794 2663.32 770.744" stroke="url(#paint54_linear_2840_481)" stroke-miterlimit="10"/>
<path d="M-978.85 801.131C-805.311 800.906 -629.926 804.122 -456.735 797.682C-321.007 792.635 -178.441 788.999 -52.9148 758.65C59.634 731.439 163.735 739.02 284.786 744.217C476.493 752.449 667.781 760.118 859.768 765.699C1005.49 769.935 1149.18 784.178 1293.95 793.232C1437.19 802.19 1582.81 800.621 1726.86 803.423C2059.69 809.896 2393.82 801.085 2726.84 801.047" stroke="url(#paint55_linear_2840_481)" stroke-miterlimit="10"/>
<path d="M-1045.85 833.619C-865.498 833.524 -684.216 835.811 -503.982 832.122C-359.454 829.165 -205.225 827.019 -67.521 801.231C49.4504 779.325 148.505 780.817 271.866 784.232C469 789.688 666.335 791.804 863.515 796.418C1011.63 799.883 1152.78 822.718 1299.27 832.232C1449.57 841.995 1604.45 835.288 1755.44 833.966C2101.71 830.936 2448.42 833.558 2794.73 833.55" stroke="url(#paint56_linear_2840_481)" stroke-miterlimit="10"/>
<path d="M-1117.88 868.517C-762.944 868.465 -406.406 874.044 -53.8476 847.927C251.766 825.288 558.673 846.342 865.529 853.693C1019.69 857.386 1167.65 880.039 1320.76 887.572C1474.53 895.136 1627.97 880.796 1780.75 873.205C2138.79 855.418 2508.18 868.457 2867.49 868.479" stroke="url(#paint57_linear_2840_481)" stroke-miterlimit="10"/>
<path d="M-1195.52 906.139C-821.289 906.119 -448.678 904.477 -74.7884 896.078C240.127 889.005 553.972 900.125 868.633 905.938C1021.51 908.762 1170.04 928.398 1322.04 935.463C1490.03 943.272 1653.17 921.332 1819.04 910.972C1994.92 899.988 2176.05 906.111 2352.84 906.106C2550.45 906.101 2748.06 906.117 2945.66 906.131" stroke="url(#paint58_linear_2840_481)" stroke-miterlimit="10"/>
</g>
<defs>
<linearGradient id="paint0_linear_2840_481" x1="-572.298" y1="972.074" x2="-572.298" y2="224.154" gradientUnits="userSpaceOnUse">
<stop stop-color="#D9232A"/>
<stop offset="1" stop-color="#7C0502"/>
</linearGradient>
<linearGradient id="paint1_linear_2840_481" x1="-471.781" y1="972.061" x2="-471.781" y2="237.329" gradientUnits="userSpaceOnUse">
<stop stop-color="#D9232A"/>
<stop offset="1" stop-color="#7C0502"/>
</linearGradient>
<linearGradient id="paint2_linear_2840_481" x1="-371.395" y1="972.046" x2="-371.395" y2="253.832" gradientUnits="userSpaceOnUse">
<stop stop-color="#D9232A"/>
<stop offset="1" stop-color="#7C0502"/>
</linearGradient>
<linearGradient id="paint3_linear_2840_481" x1="-271.008" y1="972.027" x2="-271.008" y2="271.915" gradientUnits="userSpaceOnUse">
<stop stop-color="#D9232A"/>
<stop offset="1" stop-color="#7C0502"/>
</linearGradient>
<linearGradient id="paint4_linear_2840_481" x1="-169.993" y1="972.005" x2="-169.993" y2="290.39" gradientUnits="userSpaceOnUse">
<stop stop-color="#D9232A"/>
<stop offset="1" stop-color="#7C0502"/>
</linearGradient>
<linearGradient id="paint5_linear_2840_481" x1="-68.7303" y1="971.97" x2="-68.7303" y2="306.423" gradientUnits="userSpaceOnUse">
<stop stop-color="#D9232A"/>
<stop offset="1" stop-color="#7C0502"/>
</linearGradient>
<linearGradient id="paint6_linear_2840_481" x1="35.7993" y1="971.922" x2="35.7992" y2="316.596" gradientUnits="userSpaceOnUse">
<stop stop-color="#D9232A"/>
<stop offset="1" stop-color="#7C0502"/>
</linearGradient>
<linearGradient id="paint7_linear_2840_481" x1="141.188" y1="971.846" x2="141.187" y2="320.818" gradientUnits="userSpaceOnUse">
<stop stop-color="#D9232A"/>
<stop offset="1" stop-color="#7C0502"/>
</linearGradient>
<linearGradient id="paint8_linear_2840_481" x1="245.234" y1="971.768" x2="245.234" y2="320.465" gradientUnits="userSpaceOnUse">
<stop stop-color="#D9232A"/>
<stop offset="1" stop-color="#7C0502"/>
</linearGradient>
<linearGradient id="paint9_linear_2840_481" x1="309.873" y1="971.699" x2="309.873" y2="316.939" gradientUnits="userSpaceOnUse">
<stop stop-color="#D9232A"/>
<stop offset="1" stop-color="#7C0502"/>
</linearGradient>
<linearGradient id="paint10_linear_2840_481" x1="383.607" y1="971.63" x2="383.607" y2="311.618" gradientUnits="userSpaceOnUse">
<stop stop-color="#D9232A"/>
<stop offset="1" stop-color="#7C0502"/>
</linearGradient>
<linearGradient id="paint11_linear_2840_481" x1="484.312" y1="971.552" x2="484.312" y2="305.603" gradientUnits="userSpaceOnUse">
<stop stop-color="#D9232A"/>
<stop offset="1" stop-color="#7C0502"/>
</linearGradient>
<linearGradient id="paint12_linear_2840_481" x1="611.89" y1="971.471" x2="611.89" y2="300.572" gradientUnits="userSpaceOnUse">
<stop stop-color="#D9232A"/>
<stop offset="1" stop-color="#7C0502"/>
</linearGradient>
<linearGradient id="paint13_linear_2840_481" x1="711.872" y1="971.375" x2="711.872" y2="297.907" gradientUnits="userSpaceOnUse">
<stop stop-color="#D9232A"/>
<stop offset="1" stop-color="#7C0502"/>
</linearGradient>
<linearGradient id="paint14_linear_2840_481" x1="808.58" y1="971.367" x2="808.58" y2="298.979" gradientUnits="userSpaceOnUse">
<stop stop-color="#D9232A"/>
<stop offset="1" stop-color="#7C0502"/>
</linearGradient>
<linearGradient id="paint15_linear_2840_481" x1="915.505" y1="971.48" x2="915.504" y2="303.123" gradientUnits="userSpaceOnUse">
<stop stop-color="#D9232A"/>
<stop offset="1" stop-color="#7C0502"/>
</linearGradient>
<linearGradient id="paint16_linear_2840_481" x1="1020.52" y1="971.591" x2="1020.52" y2="305.455" gradientUnits="userSpaceOnUse">
<stop stop-color="#D9232A"/>
<stop offset="1" stop-color="#7C0502"/>
</linearGradient>
<linearGradient id="paint17_linear_2840_481" x1="1147.87" y1="971.704" x2="1147.87" y2="308.509" gradientUnits="userSpaceOnUse">
<stop stop-color="#D9232A"/>
<stop offset="1" stop-color="#7C0502"/>
</linearGradient>
<linearGradient id="paint18_linear_2840_481" x1="1274.14" y1="971.73" x2="1274.14" y2="312.124" gradientUnits="userSpaceOnUse">
<stop stop-color="#D9232A"/>
<stop offset="1" stop-color="#7C0502"/>
</linearGradient>
<linearGradient id="paint19_linear_2840_481" x1="1379.69" y1="971.826" x2="1379.69" y2="315.849" gradientUnits="userSpaceOnUse">
<stop stop-color="#D9232A"/>
<stop offset="1" stop-color="#7C0502"/>
</linearGradient>
<linearGradient id="paint20_linear_2840_481" x1="1444.83" y1="971.918" x2="1444.83" y2="319.284" gradientUnits="userSpaceOnUse">
<stop stop-color="#D9232A"/>
<stop offset="1" stop-color="#7C0502"/>
</linearGradient>
<linearGradient id="paint21_linear_2840_481" x1="1537.83" y1="971.918" x2="1537.83" y2="321.98" gradientUnits="userSpaceOnUse">
<stop stop-color="#D9232A"/>
<stop offset="1" stop-color="#7C0502"/>
</linearGradient>
<linearGradient id="paint22_linear_2840_481" x1="1645.06" y1="971.947" x2="1645.06" y2="323.755" gradientUnits="userSpaceOnUse">
<stop stop-color="#D9232A"/>
<stop offset="1" stop-color="#7C0502"/>
</linearGradient>
<linearGradient id="paint23_linear_2840_481" x1="1761.36" y1="971.978" x2="1761.36" y2="324.199" gradientUnits="userSpaceOnUse">
<stop stop-color="#D9232A"/>
<stop offset="1" stop-color="#7C0502"/>
</linearGradient>
<linearGradient id="paint24_linear_2840_481" x1="1875.34" y1="972.004" x2="1875.34" y2="316.006" gradientUnits="userSpaceOnUse">
<stop stop-color="#D9232A"/>
<stop offset="1" stop-color="#7C0502"/>
</linearGradient>
<linearGradient id="paint25_linear_2840_481" x1="1987.34" y1="972.025" x2="1987.34" y2="297.179" gradientUnits="userSpaceOnUse">
<stop stop-color="#D9232A"/>
<stop offset="1" stop-color="#7C0502"/>
</linearGradient>
<linearGradient id="paint26_linear_2840_481" x1="2094.72" y1="972.043" x2="2094.72" y2="269.729" gradientUnits="userSpaceOnUse">
<stop stop-color="#D9232A"/>
<stop offset="1" stop-color="#7C0502"/>
</linearGradient>
<linearGradient id="paint27_linear_2840_481" x1="2199.91" y1="972.058" x2="2199.91" y2="238.743" gradientUnits="userSpaceOnUse">
<stop stop-color="#D9232A"/>
<stop offset="1" stop-color="#7C0502"/>
</linearGradient>
<linearGradient id="paint28_linear_2840_481" x1="904.472" y1="325.657" x2="904.472" y2="163.568" gradientUnits="userSpaceOnUse">
<stop stop-color="#D9232A"/>
<stop offset="1" stop-color="#7C0502"/>
</linearGradient>
<linearGradient id="paint29_linear_2840_481" x1="900.31" y1="338.102" x2="900.31" y2="183.284" gradientUnits="userSpaceOnUse">
<stop stop-color="#D9232A"/>
<stop offset="1" stop-color="#7C0502"/>
</linearGradient>
<linearGradient id="paint30_linear_2840_481" x1="893.307" y1="350.2" x2="893.307" y2="208.85" gradientUnits="userSpaceOnUse">
<stop stop-color="#D9232A"/>
<stop offset="1" stop-color="#7C0502"/>
</linearGradient>
<linearGradient id="paint31_linear_2840_481" x1="884.053" y1="364.157" x2="884.052" y2="244.84" gradientUnits="userSpaceOnUse">
<stop stop-color="#D9232A"/>
<stop offset="1" stop-color="#7C0502"/>
</linearGradient>
<linearGradient id="paint32_linear_2840_481" x1="873.549" y1="379.509" x2="873.549" y2="288.548" gradientUnits="userSpaceOnUse">
<stop stop-color="#D9232A"/>
<stop offset="1" stop-color="#7C0502"/>
</linearGradient>
<linearGradient id="paint33_linear_2840_481" x1="863.2" y1="394.724" x2="863.2" y2="306.126" gradientUnits="userSpaceOnUse">
<stop stop-color="#D9232A"/>
<stop offset="1" stop-color="#7C0502"/>
</linearGradient>
<linearGradient id="paint34_linear_2840_481" x1="854.885" y1="409.813" x2="854.885" y2="320.149" gradientUnits="userSpaceOnUse">
<stop stop-color="#D9232A"/>
<stop offset="1" stop-color="#7C0502"/>
</linearGradient>
<linearGradient id="paint35_linear_2840_481" x1="850" y1="424.329" x2="850" y2="332.337" gradientUnits="userSpaceOnUse">
<stop stop-color="#D9232A"/>
<stop offset="1" stop-color="#7C0502"/>
</linearGradient>
<linearGradient id="paint36_linear_2840_481" x1="849.892" y1="437.626" x2="849.892" y2="347.324" gradientUnits="userSpaceOnUse">
<stop stop-color="#D9232A"/>
<stop offset="1" stop-color="#7C0502"/>
</linearGradient>
<linearGradient id="paint37_linear_2840_481" x1="851.792" y1="444.403" x2="851.792" y2="356.717" gradientUnits="userSpaceOnUse">
<stop stop-color="#D9232A"/>
<stop offset="1" stop-color="#7C0502"/>
</linearGradient>
<linearGradient id="paint38_linear_2840_481" x1="854.223" y1="459.563" x2="854.223" y2="361.331" gradientUnits="userSpaceOnUse">
<stop stop-color="#D9232A"/>
<stop offset="1" stop-color="#7C0502"/>
</linearGradient>
<linearGradient id="paint39_linear_2840_481" x1="856.798" y1="475.356" x2="856.798" y2="361.516" gradientUnits="userSpaceOnUse">
<stop stop-color="#D9232A"/>
<stop offset="1" stop-color="#7C0502"/>
</linearGradient>
<linearGradient id="paint40_linear_2840_481" x1="859.275" y1="492.692" x2="859.275" y2="363.718" gradientUnits="userSpaceOnUse">
<stop stop-color="#D9232A"/>
<stop offset="1" stop-color="#7C0502"/>
</linearGradient>
<linearGradient id="paint41_linear_2840_481" x1="861.351" y1="523.54" x2="861.351" y2="370.179" gradientUnits="userSpaceOnUse">
<stop stop-color="#D9232A"/>
<stop offset="1" stop-color="#7C0502"/>
</linearGradient>
<linearGradient id="paint42_linear_2840_481" x1="862.099" y1="540.145" x2="862.099" y2="383.604" gradientUnits="userSpaceOnUse">
<stop stop-color="#D9232A"/>
<stop offset="1" stop-color="#7C0502"/>
</linearGradient>
<linearGradient id="paint43_linear_2840_481" x1="859.702" y1="549.106" x2="859.702" y2="394.711" gradientUnits="userSpaceOnUse">
<stop stop-color="#D9232A"/>
<stop offset="1" stop-color="#7C0502"/>
</linearGradient>
<linearGradient id="paint44_linear_2840_481" x1="856.306" y1="557.141" x2="856.306" y2="403.099" gradientUnits="userSpaceOnUse">
<stop stop-color="#D9232A"/>
<stop offset="1" stop-color="#7C0502"/>
</linearGradient>
<linearGradient id="paint45_linear_2840_481" x1="854.089" y1="568.614" x2="854.089" y2="409.85" gradientUnits="userSpaceOnUse">
<stop stop-color="#D9232A"/>
<stop offset="1" stop-color="#7C0502"/>
</linearGradient>
<linearGradient id="paint46_linear_2840_481" x1="854.88" y1="587.274" x2="854.88" y2="425.081" gradientUnits="userSpaceOnUse">
<stop stop-color="#D9232A"/>
<stop offset="1" stop-color="#7C0502"/>
</linearGradient>
<linearGradient id="paint47_linear_2840_481" x1="859.575" y1="610.345" x2="859.575" y2="457.135" gradientUnits="userSpaceOnUse">
<stop stop-color="#D9232A"/>
<stop offset="1" stop-color="#7C0502"/>
</linearGradient>
<linearGradient id="paint48_linear_2840_481" x1="865.526" y1="627.45" x2="865.526" y2="509.864" gradientUnits="userSpaceOnUse">
<stop stop-color="#D9232A"/>
<stop offset="1" stop-color="#7C0502"/>
</linearGradient>
<linearGradient id="paint49_linear_2840_481" x1="869.67" y1="646.981" x2="869.67" y2="564.699" gradientUnits="userSpaceOnUse">
<stop stop-color="#D9232A"/>
<stop offset="1" stop-color="#7C0502"/>
</linearGradient>
<linearGradient id="paint50_linear_2840_481" x1="870.966" y1="668.595" x2="870.966" y2="605.693" gradientUnits="userSpaceOnUse">
<stop stop-color="#D9232A"/>
<stop offset="1" stop-color="#7C0502"/>
</linearGradient>
<linearGradient id="paint51_linear_2840_481" x1="871.694" y1="698.227" x2="871.694" y2="622.738" gradientUnits="userSpaceOnUse">
<stop stop-color="#D9232A"/>
<stop offset="1" stop-color="#7C0502"/>
</linearGradient>
<linearGradient id="paint52_linear_2840_481" x1="872.314" y1="734.692" x2="872.314" y2="631.609" gradientUnits="userSpaceOnUse">
<stop stop-color="#D9232A"/>
<stop offset="1" stop-color="#7C0502"/>
</linearGradient>
<linearGradient id="paint53_linear_2840_481" x1="872.91" y1="771.884" x2="872.91" y2="649.304" gradientUnits="userSpaceOnUse">
<stop stop-color="#D9232A"/>
<stop offset="1" stop-color="#7C0502"/>
</linearGradient>
<linearGradient id="paint54_linear_2840_481" x1="873.48" y1="790.298" x2="873.48" y2="693.331" gradientUnits="userSpaceOnUse">
<stop stop-color="#D9232A"/>
<stop offset="1" stop-color="#7C0502"/>
</linearGradient>
<linearGradient id="paint55_linear_2840_481" x1="873.995" y1="806.661" x2="873.995" y2="738.274" gradientUnits="userSpaceOnUse">
<stop stop-color="#D9232A"/>
<stop offset="1" stop-color="#7C0502"/>
</linearGradient>
<linearGradient id="paint56_linear_2840_481" x1="874.441" y1="838.306" x2="874.441" y2="781.384" gradientUnits="userSpaceOnUse">
<stop stop-color="#D9232A"/>
<stop offset="1" stop-color="#7C0502"/>
</linearGradient>
<linearGradient id="paint57_linear_2840_481" x1="874.805" y1="890.575" x2="874.805" y2="836.862" gradientUnits="userSpaceOnUse">
<stop stop-color="#D9232A"/>
<stop offset="1" stop-color="#7C0502"/>
</linearGradient>
<linearGradient id="paint58_linear_2840_481" x1="875.07" y1="937.974" x2="875.07" y2="892.935" gradientUnits="userSpaceOnUse">
<stop stop-color="#D9232A"/>
<stop offset="1" stop-color="#7C0502"/>
</linearGradient>
</defs>
</svg>
