<svg width="24" height="21" viewBox="0 0 24 21" fill="none" xmlns="http://www.w3.org/2000/svg">
<path d="M4.69336 17.3594C3.95841 17.3594 3.24569 17.3163 2.53996 17.3685C1.12696 17.4731 -0.207468 16.4984 0.026921 14.5545C0.336661 11.9852 1.6123 10.0969 3.91874 8.91152C3.95486 8.89296 3.98897 8.87028 4.083 8.8146C3.97664 8.73292 3.88695 8.67957 3.81638 8.60755C2.51385 7.27846 2.07163 5.70186 2.63521 3.93044C3.20212 2.14846 4.48176 1.09243 6.32498 0.788695C8.47404 0.434611 10.5801 1.73281 11.3038 3.8023C11.3482 3.92922 11.3608 4.05581 11.5637 4.05525C11.7724 4.05469 11.7728 3.91599 11.8158 3.7933C12.5318 1.75681 14.5299 0.527633 16.7262 0.773469C18.7579 1.00097 20.4319 2.68759 20.6708 4.77253C20.8428 6.273 20.3621 7.55164 19.2967 8.61533C19.23 8.68191 19.1579 8.74303 19.0628 8.83005C19.1664 8.88729 19.2453 8.93063 19.324 8.97453C21.7119 10.3081 22.9992 12.3316 23.0972 15.0721C23.1439 16.3757 22.1625 17.3505 20.8604 17.3584C20.0558 17.3633 19.2512 17.3593 18.4303 17.3593C18.4573 17.6289 18.4842 17.8758 18.5063 18.1229C18.6403 19.6255 17.6705 20.6872 16.1624 20.6874C13.0943 20.6881 10.0261 20.6881 6.9579 20.6874C5.46988 20.6871 4.51377 19.6556 4.62179 18.1675C4.64057 17.9089 4.66725 17.651 4.69336 17.3594ZM11.5507 19.0236C13.1013 19.0236 14.6517 19.0244 16.2023 19.0231C16.6644 19.0228 16.8748 18.8124 16.8496 18.35C16.8326 18.0397 16.8055 17.7264 16.7422 17.4228C16.1992 14.812 13.7785 12.9882 11.1651 13.211C8.44803 13.4426 6.36976 15.6044 6.26629 18.3068C6.24651 18.8225 6.43711 19.0231 6.95101 19.0234C8.48427 19.0239 10.0174 19.0236 11.5507 19.0236ZM11.5614 11.5339C13.1489 11.5367 14.4638 10.2345 14.4714 8.65212C14.4791 7.02107 13.1728 5.70887 11.5432 5.71087C9.95828 5.71276 8.65031 7.01996 8.64664 8.60578C8.64297 10.2246 9.9435 11.531 11.5614 11.5339ZM8.60518 12.1673C8.31311 11.8145 7.98859 11.4852 7.74109 11.1058C7.49414 10.7273 7.32432 10.2984 7.11583 9.88186C4.37896 9.75683 1.73844 11.9519 1.68787 15.1068C1.68187 15.4839 1.90637 15.6929 2.29468 15.6944C3.17889 15.6975 4.06321 15.6904 4.94731 15.6996C5.12636 15.7015 5.21782 15.6495 5.29751 15.4833C5.83741 14.3577 6.62494 13.4388 7.65996 12.7392C7.97292 12.5276 8.30678 12.3467 8.60518 12.1673ZM14.4682 12.1515C14.5111 12.1851 14.5283 12.2039 14.5495 12.2144C16.0381 12.952 17.1459 14.0645 17.8699 15.5622C17.9039 15.6326 18.0429 15.6886 18.1336 15.6896C19.0173 15.699 19.9012 15.6965 20.785 15.6948C21.2441 15.6939 21.4475 15.4813 21.4289 15.0157C21.3858 13.932 21.0686 12.9366 20.4184 12.0646C19.3617 10.6476 17.9402 9.91753 16.1716 9.87697C16.0862 9.87497 15.9429 9.93998 15.9207 10.0057C15.6357 10.8464 15.1629 11.557 14.4682 12.1515ZM9.73212 4.42089C9.38404 3.011 7.85123 2.11679 6.34887 2.43042C4.82217 2.74905 3.84416 4.22096 4.1239 5.82289C4.4103 7.46306 5.93955 8.27692 7.00025 8.17923C7.23141 6.4446 8.13741 5.18996 9.73212 4.42089ZM13.4139 4.42078C15.0129 5.19308 15.9163 6.45738 16.147 8.19212C17.5945 8.24625 18.8945 7.04996 19.0398 5.5535C19.1819 4.08804 18.1181 2.67948 16.6847 2.43531C15.2295 2.18747 13.7257 3.09213 13.4139 4.42078Z" fill="#979797"/>
</svg>
