<svg width="205" height="42" viewBox="0 0 205 42" fill="none" xmlns="http://www.w3.org/2000/svg">
<path d="M41.5077 0.522461H2.53782C1.13595 0.522461 -0.000488281 1.80182 -0.000488281 3.37998V38.3786C-0.000488281 39.9568 1.13595 41.2362 2.53782 41.2362H41.5077C42.9095 41.2362 44.046 39.9568 44.046 38.3786V3.37998C44.046 1.80182 42.9095 0.522461 41.5077 0.522461Z" fill="#D9232A"/>
<path d="M31.9526 19.5733C31.878 19.8668 31.8016 20.4053 31.5656 20.7762C30.5009 22.4491 29.8121 24.3842 29.3564 26.3772C28.8925 28.4062 28.5666 29.0343 27.4037 28.7077C25.9145 28.2896 24.9262 27.1395 24.1423 25.7444C21.8988 21.7513 19.6836 17.738 17.4534 13.7356C17.3353 13.5238 17.2209 13.3091 17.1225 13.085C16.8297 12.4186 16.5892 11.6613 16.5403 10.9244C16.4658 9.80003 17.2275 9.18663 18.1727 9.55949C19.595 10.1206 20.9889 10.7745 22.3886 11.4063C24.3819 12.3061 26.3825 13.1877 28.3555 14.1412C30.1108 14.9896 31.2286 16.5258 31.824 18.555C31.8622 18.6853 31.8827 18.8234 31.9001 18.9597C31.9205 19.1193 31.9283 19.2811 31.9526 19.5733Z" fill="#121316"/>
<path d="M0.920349 39.3216V37.6888C0.920349 37.3281 1.21321 37.0547 1.52725 37.126C2.37832 37.3192 3.21458 37.5265 4.0609 37.6303C5.09377 37.7569 6.14253 37.7666 7.1836 37.7531C13.5955 37.6698 20.0072 37.5689 26.4189 37.4669C30.7204 37.3985 35.0218 37.3186 39.3233 37.2448C39.5941 37.2402 39.865 37.2442 40.142 37.3375C36.8467 37.7286 33.551 38.1144 30.2564 38.5125C27.6965 38.8218 25.1409 39.1811 22.578 39.4527C20.6751 39.6545 18.7642 39.8532 16.8553 39.8752C11.8065 39.9334 6.75679 39.8949 1.70739 39.8949H1.42953C1.14829 39.8949 0.920349 39.6381 0.920349 39.3216Z" fill="#121316"/>
<path d="M0.888585 29.8956C0.884025 29.553 1.18424 29.3079 1.47121 29.422C2.74728 29.9296 3.98005 30.4918 5.26117 30.7961C7.66763 31.3676 10.1154 31.7199 12.5469 32.1559C15.4215 32.6714 18.2977 33.1751 21.1725 33.6884C25.5789 34.4752 29.9849 35.2656 34.3909 36.0556C34.7228 36.1151 35.0533 36.1838 35.3759 36.3454C33.9484 36.2314 32.5208 36.1198 31.0935 36.003C28.972 35.8293 26.8505 35.6554 24.7294 35.4751C21.7371 35.2209 18.7452 34.9587 15.7528 34.7037C13.1225 34.4796 10.4925 34.2505 7.86111 34.0429C5.69661 33.872 3.53275 33.7369 1.49215 32.7615C1.03244 32.5417 0.836073 32.2855 0.869512 31.7048C0.904666 31.0951 0.89638 30.4822 0.888585 29.8956Z" fill="#121316"/>
<path d="M31.0508 34.4883C29.3843 34.0428 27.7166 33.6036 26.0517 33.1507C19.3856 31.337 12.72 29.5201 6.05487 27.7016C4.31591 27.2271 2.73428 26.3662 1.32274 25.1372C1.09764 24.9412 0.922851 24.5307 0.902307 24.2051C0.863377 23.5875 0.868574 22.9663 0.875732 22.2979C0.879606 21.934 1.26597 21.746 1.502 21.9946C1.81241 22.3214 2.10213 22.6245 2.40156 22.9148C4.15729 24.6173 6.31277 25.363 8.46349 26.1399C15.8424 28.8056 23.214 31.497 30.5881 34.1794C30.7477 34.2375 30.9043 34.3057 31.0623 34.3693L31.0508 34.4883Z" fill="#121316"/>
<path d="M2.7263 12.6918C2.34347 14.5328 2.94032 16.046 3.87121 17.4373C4.97101 19.081 6.43982 20.3661 8.08396 21.2655C14.5503 24.8027 21.0113 28.3527 27.4735 31.8995C27.5617 31.9479 27.6418 32.0148 27.6879 32.162C25.0778 30.9741 22.468 29.7853 19.8575 28.5985C15.7227 26.7187 11.5826 24.8536 7.45431 22.9556C5.34943 21.9879 3.47794 20.6184 2.22904 18.4248C1.75932 17.5998 1.43337 16.6264 1.22156 15.6702C0.946595 14.429 1.3659 13.2996 2.3395 12.4018C2.52052 12.2349 2.77965 12.4354 2.7263 12.6918Z" fill="#121316"/>
<path d="M24.4701 29.1861C24.118 28.9716 23.7592 28.7703 23.4281 28.5147C19.4862 25.4716 15.4441 22.5965 11.07 20.4274C8.86791 19.3354 6.8912 17.9456 5.56051 15.75C4.95189 14.7457 4.51694 13.6635 4.57794 12.4053C4.62775 11.3777 5.02304 10.6522 5.77958 10.2202C5.9986 10.0952 6.25664 10.3368 6.17035 10.5956C5.73614 11.8978 6.06101 13.1459 6.6633 14.3596C7.49236 16.0303 8.72189 17.2686 10.1258 18.3105C14.7421 21.7365 19.3558 25.1669 23.97 28.5966C24.1634 28.7404 24.3509 28.8944 24.5411 29.0437C24.5175 29.0911 24.4938 29.1386 24.4701 29.1861Z" fill="#121316"/>
<path d="M37.9267 35.9063C38.5965 35.636 39.4717 35.4356 40.2028 34.9562C41.7648 33.9321 42.3447 32.1588 41.7058 30.1774C41.1056 28.3163 40.3212 26.5291 39.5917 24.7227C37.7188 20.0841 35.831 15.453 33.9513 10.8179C33.876 10.6321 33.8231 10.435 33.8669 10.186C34.0155 10.4905 34.1663 10.7939 34.3124 11.1C37.0505 16.8371 39.7545 22.5955 42.5483 28.2981C43.2914 29.8148 43.1884 31.3741 43.0442 32.908C42.9431 33.9841 42.0625 34.6731 41.2005 35.1495C40.114 35.7499 38.9556 36.0175 37.9267 35.9063Z" fill="#121316"/>
<path d="M7.99938 8.59851C8.52087 8.2527 9.03975 7.90187 9.56423 7.56186C12.5472 5.628 15.5278 3.68934 18.5211 1.77595C18.8177 1.58641 19.1939 1.47094 19.5347 1.46647C21.7047 1.43821 23.875 1.44792 26.0453 1.45394C26.2761 1.4546 26.5313 1.45041 26.7339 1.55241C28.8569 2.6214 30.6589 4.12539 31.8471 6.43784C31.8889 6.5192 31.92 6.6079 31.9514 6.69528C31.9573 6.71156 31.941 6.73795 31.9151 6.83101C31.75 6.62794 31.6069 6.44695 31.4591 6.27082C29.2358 3.62056 26.5522 1.99641 23.2804 1.91383C22.3631 1.89071 21.3809 2.19721 20.5234 2.60533C16.5347 4.50354 12.5795 6.49072 8.61182 8.44473C8.42418 8.53713 8.23149 8.61656 8.04115 8.702C8.02723 8.66745 8.01335 8.63306 7.99938 8.59851Z" fill="#121316"/>
<path d="M22.5522 26.4376C21.9784 25.9593 21.4013 25.4857 20.8312 25.0019C17.5867 22.2486 14.3402 19.4982 11.1023 16.735C9.88292 15.6943 8.82597 14.4721 8.25555 12.8458C8.03629 12.2208 7.92896 11.4993 7.94465 10.8269C7.96583 9.91841 8.41485 9.29199 9.14742 9.0249C9.38565 8.93802 9.61159 9.22338 9.49931 9.47541C8.91584 10.7853 9.32432 12.0535 9.93225 13.3017C10.6866 14.8506 11.8886 15.9353 13.0558 17.0555C16.1164 19.9931 19.1719 22.9376 22.2283 25.8809C22.3725 26.0198 22.5053 26.1736 22.6434 26.3204C22.613 26.3595 22.5826 26.3985 22.5522 26.4376Z" fill="#121316"/>
<path d="M12.0376 7.85373C14.4415 6.99526 16.845 6.13558 19.2494 5.27893C20.1388 4.96205 21.0458 4.69898 21.9172 4.329C23.3994 3.6997 24.8825 3.74099 26.3502 4.28059C29.109 5.29477 31.38 7.03826 32.7898 9.99441C32.8496 10.1197 32.9019 10.2502 32.9476 10.3828C32.9591 10.4164 32.9319 10.4671 32.9158 10.5404C31.8641 8.78026 30.4888 7.4556 28.8654 6.44153C26.7961 5.14889 24.6647 4.92606 22.3427 5.56021C18.9459 6.4879 15.4999 7.18685 12.0749 7.98328C12.0625 7.94011 12.0501 7.89689 12.0376 7.85373Z" fill="#121316"/>
<path d="M32.8576 1.53386C33.5781 1.38869 34.086 1.44074 34.5999 1.94993C37.2533 4.57921 39.9336 7.17443 42.6243 9.75536C42.9856 10.1019 43.1605 10.4363 43.1203 10.9696C43.0796 11.5081 43.1113 12.0535 43.1113 12.7789C39.6473 8.97996 36.2998 5.30885 32.8576 1.53386Z" fill="#121316"/>
<path d="M31.0574 1.42962C31.2244 1.57004 31.4169 1.68424 31.5545 1.85469C35.1739 6.33873 38.747 10.8716 42.4326 15.2855C43.2935 16.3165 43.033 17.3315 42.9759 18.4689C38.9576 12.8522 34.9393 7.23562 30.9211 1.619C30.9665 1.55585 31.012 1.49277 31.0574 1.42962Z" fill="#121316"/>
<path d="M35.1821 34.9837C35.6792 34.8671 36.188 34.7933 36.6714 34.6262C38.3098 34.0598 39.1237 32.5176 38.6595 30.6609C37.8604 27.4646 36.9819 24.2936 36.1353 21.1124C35.5154 18.783 34.893 16.4543 34.3875 14.0788C34.8938 15.5709 35.4037 17.0613 35.9058 18.5552C37.16 22.2875 38.4151 26.0194 39.6612 29.7551C40.6625 32.7569 39.4023 34.8977 36.5418 35.0596C36.0767 35.0859 35.6093 35.0633 35.143 35.0633C35.156 35.0368 35.169 35.0103 35.1821 34.9837Z" fill="#121316"/>
<path d="M32.197 4.99786C32.968 6.2129 33.7419 7.42562 34.5096 8.64331C37.2928 13.0583 40.0761 17.4731 42.8489 21.8963C42.9864 22.1157 43.0865 22.4094 43.0992 22.6748C43.1335 23.3888 43.1109 24.1061 42.9859 24.8833C39.348 18.286 35.71 11.6887 32.072 5.09142C32.1137 5.06024 32.1553 5.02905 32.197 4.99786Z" fill="#121316"/>
<path d="M0.840485 12.4726C0.922905 12.2225 0.965316 11.9421 1.09378 11.7268C3.05892 8.43355 5.02989 5.14462 7.0219 1.87197C7.14624 1.66769 7.44881 1.52087 7.68102 1.49597C7.95005 1.46716 8.22119 1.46352 8.51527 1.46672C8.87182 1.47058 9.05966 1.94604 8.82818 2.25133C6.16735 5.76012 3.58413 9.16651 1.00096 12.573C0.947469 12.5395 0.893928 12.506 0.840485 12.4726Z" fill="#121316"/>
<path d="M12.2045 8.64489C12.4906 8.56215 12.7119 8.91496 12.5601 9.20027C12.1336 10.0013 12.2304 10.8892 12.5049 11.8163C12.8641 13.0294 13.5341 14.002 14.2914 14.9255C16.7762 17.9557 19.2489 20.9983 21.7251 24.0374C21.8049 24.1354 21.8718 24.247 21.8739 24.4292C21.1779 23.6742 20.4815 22.9197 19.7861 22.1638C17.6253 19.8149 15.4531 17.4792 13.3095 15.1107C12.2208 13.9076 11.2761 12.5844 11.063 10.7924C10.948 9.82576 11.391 8.88014 12.2045 8.64489Z" fill="#121316"/>
<path d="M16.2248 8.02203C18.8007 7.72088 21.387 7.50407 23.9499 7.09854C27.7041 6.50452 30.2989 8.56434 32.4957 11.6044C32.896 12.1585 33.1351 12.8601 33.3799 13.5434C32.3604 11.6957 31.0237 10.2386 29.356 9.16603C28.0908 8.35238 26.7398 8.00442 25.2687 8.04775C22.3554 8.13358 19.4399 8.12851 16.5253 8.15942C16.4221 8.16052 16.3188 8.14473 16.2156 8.13679C16.2187 8.09853 16.2217 8.06028 16.2248 8.02203Z" fill="#121316"/>
<path d="M3.76082 10.6041C5.31386 8.97475 6.8669 7.3454 8.41989 5.71601C9.542 4.53872 10.6775 3.377 11.7806 2.17764C12.2375 1.68082 12.8532 1.42134 13.4876 1.45771C13.5727 1.46257 13.6581 1.46627 13.7439 1.47019C14.1347 1.48813 14.2876 2.05008 13.9729 2.31155C10.6028 5.11221 7.23267 7.91282 3.86256 10.7135C3.82863 10.677 3.79475 10.6406 3.76082 10.6041Z" fill="#121316"/>
<path d="M32.8527 33.764C33.0008 33.764 33.1489 33.7674 33.2969 33.7635C35.2725 33.7107 36.1841 32.362 35.8754 30.1647C35.3084 26.1285 34.8164 22.079 34.2956 18.0346C34.2808 17.9198 34.2937 17.8005 34.3887 17.6649C34.7123 19.2827 35.0362 20.9004 35.3595 22.5182C35.8948 25.1974 36.464 27.8689 36.9539 30.5586C37.3238 32.5899 36.3602 33.9261 34.5236 34.0234C33.9612 34.0532 33.3939 33.9652 32.8288 33.9311C32.8367 33.8754 32.8448 33.8197 32.8527 33.764Z" fill="#121316"/>
<path d="M43.1095 6.80547C41.0031 5.00028 39.0339 3.31254 37.0646 1.6248C38.3321 1.54195 39.5942 1.09165 40.7068 2.17593C41.3283 2.78166 42.0785 3.21804 42.7548 3.75604C42.907 3.87719 43.0846 4.09842 43.0936 4.28316C43.1312 5.06309 43.1095 5.84671 43.1095 6.80547Z" fill="#121316"/>
<path d="M4.44836 1.45316C3.26359 3.98933 2.15207 6.36868 1.0406 8.74809C0.96774 8.73787 0.894881 8.72766 0.822021 8.71745C0.894587 7.43844 0.858451 6.13569 1.07389 4.88792C1.24878 3.87496 1.73943 2.93381 2.06156 1.94899C2.18374 1.57542 2.36374 1.42761 2.71622 1.44604C3.24359 1.47364 3.77297 1.45316 4.44836 1.45316Z" fill="#121316"/>
<path d="M20.9616 21.8471C19.7964 20.2335 18.6312 18.6199 17.466 17.0063C16.7683 16.0399 16.0027 15.1244 15.393 14.0922C14.8367 13.1503 14.3035 12.1302 14.0238 11.0575C13.7106 9.85589 14.2231 8.91573 15.1778 8.83277C15.4105 8.81257 15.551 9.10903 15.4162 9.32341C14.2698 11.1459 15.5018 12.8497 16.4383 14.4174C17.7067 16.5408 18.9822 18.6615 20.3872 20.6729C20.6312 21.0223 20.8485 21.3933 21.0726 21.7587C21.0356 21.7882 20.9986 21.8176 20.9616 21.8471Z" fill="#121316"/>
<path d="M33.7515 19.5037C33.9304 22.4581 34.1096 25.4125 34.2882 28.3669C34.33 29.0592 34.3854 29.751 34.4072 30.444C34.4526 31.8917 33.9029 32.6628 32.6285 32.8075C32.0604 32.8721 31.4743 32.7367 30.8964 32.6921C30.9001 32.627 30.9037 32.5619 30.9074 32.4967C31.1059 32.4967 31.3045 32.5034 31.5028 32.4956C32.7985 32.4442 33.5085 31.6483 33.5122 30.1964C33.521 26.6333 33.5151 23.0702 33.5151 19.5071C33.5939 19.506 33.6727 19.5048 33.7515 19.5037Z" fill="#121316"/>
<path d="M33.3099 16.1681C32.663 14.5336 31.6636 13.2352 30.427 12.1234C29.041 10.8772 27.3919 10.5964 25.7287 10.3082C23.7562 9.9664 21.7854 9.61165 19.8217 9.12256C20.7012 9.18189 21.5814 9.23234 22.4603 9.30266C23.713 9.4029 24.9634 9.54603 26.2172 9.62021C28.7 9.76709 30.5496 11.2084 32.0466 13.2849C32.634 14.0997 33.0316 15.0879 33.5156 15.9972C33.4471 16.0542 33.3784 16.1111 33.3099 16.1681Z" fill="#121316"/>
<path d="M43.1456 37.6456C43.0672 37.857 43.0505 38.0183 42.9936 38.039C40.125 39.0776 37.3115 40.4659 34.1118 39.7613C37.1203 39.0567 40.0848 38.3624 43.1456 37.6456Z" fill="#121316"/>
<path d="M32.9014 22.1709C32.7525 23.6621 32.6014 25.153 32.4554 26.6446C32.3461 27.762 32.2724 28.8849 32.1296 29.9966C31.9793 31.1667 31.2711 31.719 30.2302 31.5412C29.9434 31.4922 29.6624 31.4 29.379 31.2073C29.4847 31.1964 29.5903 31.1794 29.6962 31.1756C30.7512 31.1373 31.2462 30.6742 31.4543 29.5107C31.8441 27.3315 32.2276 25.151 32.6168 22.9717C32.6659 22.6965 32.733 22.4253 32.7917 22.1523C32.8283 22.1585 32.8648 22.1647 32.9014 22.1709Z" fill="#121316"/>
<path d="M22.7913 10.6766C24.793 11.2616 26.8447 11.6904 28.7826 12.4752C30.741 13.2683 32.0269 15.0238 32.8523 17.1721C32.9377 17.3943 32.9593 17.6474 33.0201 17.931C32.5652 17.1056 32.1973 16.2914 31.7085 15.5828C30.7914 14.253 29.6254 13.3048 28.1583 12.8164C26.5132 12.2689 24.8923 11.6291 23.2615 11.0274C23.0907 10.9644 22.924 10.8873 22.7554 10.8167C22.7673 10.77 22.7794 10.7233 22.7913 10.6766Z" fill="#121316"/>
<path d="M28.0075 29.896C28.9969 29.9429 29.4832 29.3405 29.8135 28.3874C30.3798 26.7532 31.0176 25.1506 31.7498 23.585C31.3249 25.1297 30.9003 26.6746 30.4748 28.2191C30.4244 28.4019 30.3632 28.5811 30.3171 28.7651C29.9637 30.1755 29.2114 30.5575 28.0075 29.896Z" fill="#121316"/>
<path d="M66.1506 29.6086C63.4706 29.6086 61.6466 29.1086 60.6786 28.1086C59.7186 27.1006 59.2386 25.5966 59.2386 23.5966H62.6466C62.6466 25.1646 62.9546 26.1726 63.5706 26.6206C64.1866 27.0686 65.0386 27.2926 66.1266 27.2926C67.2066 27.2926 68.0546 27.1126 68.6706 26.7526C69.2946 26.3926 69.6066 25.8686 69.6066 25.1806C69.6066 24.3566 69.2026 23.7886 68.3946 23.4766C67.5946 23.1566 66.4746 22.8446 65.0346 22.5406C62.9066 22.0606 61.4106 21.5166 60.5466 20.9086C59.6826 20.3006 59.2506 19.3126 59.2506 17.9446C59.2506 16.6326 59.7426 15.5086 60.7266 14.5726C61.7186 13.6366 63.5106 13.1686 66.1026 13.1686C68.7186 13.1686 70.5146 13.6846 71.4906 14.7166C72.4666 15.7486 72.9546 17.2086 72.9546 19.0966H69.5346C69.5346 17.5686 69.2186 16.5846 68.5866 16.1446C67.9546 15.7046 67.1146 15.4846 66.0666 15.4846C64.9706 15.4846 64.1106 15.6726 63.4866 16.0486C62.8626 16.4246 62.5506 16.9286 62.5506 17.5606C62.5506 18.3846 62.9586 18.9566 63.7746 19.2766C64.5986 19.5966 65.7186 19.9126 67.1346 20.2246C69.3266 20.7126 70.8466 21.2366 71.6946 21.7966C72.5426 22.3566 72.9666 23.3286 72.9666 24.7126C72.9666 26.0726 72.4826 27.2286 71.5146 28.1806C70.5546 29.1326 68.7666 29.6086 66.1506 29.6086ZM75.2205 34.8286V15.2926H77.8365L78.5805 17.6086V34.8286H75.2205ZM83.1045 29.5966C81.4725 29.5966 80.0645 29.2086 78.8805 28.4326C77.6965 27.6486 77.1045 26.8006 77.1045 25.8886L78.5805 24.3166C78.5805 25.1326 78.9125 25.8326 79.5765 26.4166C80.2485 27.0006 81.0365 27.2926 81.9405 27.2926C82.9165 27.2926 83.6725 26.9566 84.2085 26.2846C84.7525 25.6046 85.0245 24.3046 85.0245 22.3846C85.0245 20.4806 84.7525 19.1886 84.2085 18.5086C83.6725 17.8286 82.9165 17.4886 81.9405 17.4886C81.0365 17.4886 80.2485 17.7806 79.5765 18.3646C78.9125 18.9486 78.5805 19.6406 78.5805 20.4406L77.1045 18.8926C77.1045 17.9806 77.6965 17.1326 78.8805 16.3486C80.0645 15.5566 81.4725 15.1606 83.1045 15.1606C84.9445 15.1606 86.2925 15.7846 87.1485 17.0326C88.0045 18.2806 88.4325 20.0606 88.4325 22.3726C88.4325 24.6766 88.0045 26.4566 87.1485 27.7126C86.2925 28.9686 84.9445 29.5966 83.1045 29.5966ZM95.4566 29.6566C94.6406 29.6566 93.9126 29.5886 93.2726 29.4526C92.6326 29.3086 92.0806 29.0726 91.6166 28.7446C91.1606 28.4166 90.8126 27.9726 90.5726 27.4126C90.3326 26.8446 90.2126 26.1366 90.2126 25.2886C90.2126 24.4806 90.3286 23.8046 90.5606 23.2606C90.7926 22.7166 91.1286 22.2846 91.5686 21.9646C92.0166 21.6366 92.5646 21.4006 93.2126 21.2566C93.8606 21.1126 94.5966 21.0406 95.4206 21.0406H99.9806V20.3926C99.9806 19.6726 99.8526 19.0966 99.5966 18.6646C99.3486 18.2326 98.9926 17.9206 98.5286 17.7286C98.0646 17.5286 97.5086 17.4286 96.8606 17.4286C96.3326 17.4286 95.8486 17.5166 95.4086 17.6926C94.9686 17.8686 94.5966 18.1566 94.2926 18.5566C93.9966 18.9486 93.7886 19.4806 93.6686 20.1526L90.3686 19.2526C90.5206 18.4926 90.7926 17.8526 91.1846 17.3326C91.5846 16.8046 92.0726 16.3846 92.6486 16.0726C93.2246 15.7526 93.8686 15.5206 94.5806 15.3766C95.2926 15.2246 96.0486 15.1486 96.8486 15.1486C98.2566 15.1486 99.4446 15.3286 100.413 15.6886C101.381 16.0486 102.113 16.6246 102.609 17.4166C103.113 18.2006 103.365 19.2486 103.365 20.5606V29.5126H100.557L100.269 27.8086C100.149 28.0246 99.9526 28.2406 99.6806 28.4566C99.4086 28.6646 99.0646 28.8606 98.6486 29.0446C98.2406 29.2286 97.7686 29.3766 97.2326 29.4886C96.6966 29.6006 96.1046 29.6566 95.4566 29.6566ZM96.2126 27.4726C96.8366 27.4726 97.4006 27.4006 97.9046 27.2566C98.4086 27.1046 98.8326 26.9086 99.1766 26.6686C99.5286 26.4286 99.7806 26.1766 99.9326 25.9126V22.9006H96.2126C95.8446 22.9006 95.5006 22.9326 95.1806 22.9966C94.8686 23.0526 94.5966 23.1606 94.3646 23.3206C94.1326 23.4806 93.9526 23.7126 93.8246 24.0166C93.6966 24.3126 93.6326 24.6966 93.6326 25.1686C93.6326 25.6406 93.6966 26.0286 93.8246 26.3326C93.9526 26.6286 94.1326 26.8606 94.3646 27.0286C94.6046 27.1886 94.8806 27.3046 95.1926 27.3766C95.5046 27.4406 95.8446 27.4726 96.2126 27.4726ZM112.208 29.6806C111.032 29.6806 110.04 29.4286 109.232 28.9246C108.432 28.4206 108.032 27.5046 108.032 26.1766V17.6206H104.744V15.2926H108.032V12.0526H111.404V15.2926H115.916V17.6206H111.404V25.4206C111.404 26.2366 111.572 26.7726 111.908 27.0286C112.252 27.2846 112.732 27.4126 113.348 27.4126C113.94 27.4126 114.516 27.3126 115.076 27.1126V29.3686C114.164 29.5766 113.208 29.6806 112.208 29.6806ZM118.189 29.5126V15.2806H121.573V29.5126H118.189ZM118.189 11.1646H121.573V13.7086H118.189V11.1646ZM129.324 29.6566C128.508 29.6566 127.78 29.5886 127.14 29.4526C126.5 29.3086 125.948 29.0726 125.484 28.7446C125.028 28.4166 124.68 27.9726 124.44 27.4126C124.2 26.8446 124.08 26.1366 124.08 25.2886C124.08 24.4806 124.196 23.8046 124.428 23.2606C124.66 22.7166 124.996 22.2846 125.436 21.9646C125.884 21.6366 126.432 21.4006 127.08 21.2566C127.728 21.1126 128.464 21.0406 129.288 21.0406H133.848V20.3926C133.848 19.6726 133.72 19.0966 133.464 18.6646C133.216 18.2326 132.86 17.9206 132.396 17.7286C131.932 17.5286 131.376 17.4286 130.728 17.4286C130.2 17.4286 129.716 17.5166 129.276 17.6926C128.836 17.8686 128.464 18.1566 128.16 18.5566C127.864 18.9486 127.656 19.4806 127.536 20.1526L124.236 19.2526C124.388 18.4926 124.66 17.8526 125.052 17.3326C125.452 16.8046 125.94 16.3846 126.516 16.0726C127.092 15.7526 127.736 15.5206 128.448 15.3766C129.16 15.2246 129.916 15.1486 130.716 15.1486C132.124 15.1486 133.312 15.3286 134.28 15.6886C135.248 16.0486 135.98 16.6246 136.476 17.4166C136.98 18.2006 137.232 19.2486 137.232 20.5606V29.5126H134.424L134.136 27.8086C134.016 28.0246 133.82 28.2406 133.548 28.4566C133.276 28.6646 132.932 28.8606 132.516 29.0446C132.108 29.2286 131.636 29.3766 131.1 29.4886C130.564 29.6006 129.972 29.6566 129.324 29.6566ZM130.08 27.4726C130.704 27.4726 131.268 27.4006 131.772 27.2566C132.276 27.1046 132.7 26.9086 133.044 26.6686C133.396 26.4286 133.648 26.1766 133.8 25.9126V22.9006H130.08C129.712 22.9006 129.368 22.9326 129.048 22.9966C128.736 23.0526 128.464 23.1606 128.232 23.3206C128 23.4806 127.82 23.7126 127.692 24.0166C127.564 24.3126 127.5 24.6966 127.5 25.1686C127.5 25.6406 127.564 26.0286 127.692 26.3326C127.82 26.6286 128 26.8606 128.232 27.0286C128.472 27.1886 128.748 27.3046 129.06 27.3766C129.372 27.4406 129.712 27.4726 130.08 27.4726ZM139.962 29.5126V10.6726H143.334V29.5126H139.962ZM155.876 29.6086C153.324 29.6086 151.548 28.9246 150.548 27.5566C149.548 26.1806 149.048 24.1166 149.048 21.3646C149.048 18.5806 149.56 16.5206 150.584 15.1846C151.608 13.8406 153.468 13.1686 156.164 13.1686C158.708 13.1686 160.472 13.7766 161.456 14.9926C162.448 16.2086 162.968 17.6486 163.016 19.3126H159.608C159.544 17.9206 159.244 16.9366 158.708 16.3606C158.18 15.7846 157.336 15.4966 156.176 15.4966C154.976 15.4966 154.06 15.8526 153.428 16.5646C152.804 17.2686 152.492 18.9046 152.492 21.4726C152.492 23.7686 152.804 25.3126 153.428 26.1046C154.06 26.8886 154.984 27.2806 156.2 27.2806C157.328 27.2806 158.148 27.0446 158.66 26.5726C159.172 26.1006 159.46 25.3086 159.524 24.1966V23.3686H156.452V21.3406H163.016V29.5126H161.084L160.712 27.3166C160.048 28.8286 158.436 29.5926 155.876 29.6086ZM174.471 22.1326C174.471 20.2766 174.255 19.0406 173.823 18.4246C173.391 17.8086 172.771 17.5006 171.963 17.5006C171.043 17.5006 170.315 17.8166 169.779 18.4486C169.243 19.0806 168.975 19.7966 168.975 20.5966L167.679 19.7806C167.679 18.4846 168.183 17.3926 169.191 16.5046C170.207 15.6086 171.551 15.1606 173.223 15.1606C174.999 15.1606 176.211 15.7246 176.859 16.8526C177.515 17.9726 177.843 19.7326 177.843 22.1326H174.471ZM165.627 29.5126V15.2926H168.243L168.987 17.8726V29.5126H165.627ZM180.635 29.5126V15.2806H184.019V29.5126H180.635ZM180.635 11.1646H184.019V13.7086H180.635V11.1646ZM196.522 29.5126L196.294 27.2926V10.6726H199.654V29.5126H196.522ZM191.806 29.5966C189.966 29.5966 188.614 28.9726 187.75 27.7246C186.886 26.4766 186.454 24.6926 186.454 22.3726C186.454 20.0446 186.886 18.2606 187.75 17.0206C188.614 15.7806 189.966 15.1606 191.806 15.1606C193.438 15.1606 194.842 15.5566 196.018 16.3486C197.194 17.1326 197.782 17.9806 197.782 18.8926L196.294 20.4406C196.294 19.6406 195.966 18.9486 195.31 18.3646C194.654 17.7806 193.87 17.4886 192.958 17.4886C191.99 17.4886 191.23 17.8246 190.678 18.4966C190.134 19.1686 189.862 20.4646 189.862 22.3846C189.862 24.3126 190.134 25.6126 190.678 26.2846C191.23 26.9566 191.99 27.2926 192.958 27.2926C193.87 27.2926 194.654 27.0006 195.31 26.4166C195.966 25.8246 196.294 25.1246 196.294 24.3166L197.782 25.8886C197.782 26.8006 197.194 27.6486 196.018 28.4326C194.842 29.2086 193.438 29.5966 191.806 29.5966Z" fill="white"/>
</svg>
