<svg width="24" height="24" viewBox="0 0 24 24" fill="none" xmlns="http://www.w3.org/2000/svg">
<path d="M23.0988 4.42147V19.3096C23.0845 19.3429 23.0621 19.3751 23.0571 19.4097C22.7198 21.7466 20.7997 23.4131 18.4361 23.4139C13.8441 23.4153 9.25208 23.4149 4.66007 23.4125C4.44309 23.4124 4.22471 23.3979 4.00935 23.3711C1.75194 23.0898 0.00446107 21.1208 0.00256861 18.8457C-0.00129464 14.2009 -0.000245959 9.55611 0.00209249 4.9113C0.00315925 2.80018 1.46738 0.947034 3.51957 0.449004C3.71429 0.401751 3.91038 0.360164 4.10584 0.315948C9.06836 0.315948 14.0309 0.315948 18.9934 0.315948C19.0268 0.330136 19.059 0.351611 19.0939 0.357464C21.0693 0.689434 22.3399 1.8273 22.9388 3.72737C23.0099 3.95312 23.0463 4.18983 23.0988 4.42147ZM9.2581 8.03894V21.8648C9.33469 21.869 9.40035 21.8758 9.46601 21.8759C12.4356 21.8764 15.4053 21.8793 18.3749 21.8716C18.6724 21.8708 18.9783 21.8374 19.2658 21.7631C20.6695 21.4006 21.557 20.2067 21.5584 18.6913C21.5616 15.2179 21.5595 11.7444 21.5591 8.27092C21.559 8.19763 21.5529 8.12433 21.549 8.03894L9.2581 8.03894ZM21.5496 6.46144C21.5496 5.86745 21.5669 5.29725 21.5447 4.72861C21.5223 4.15448 21.3345 3.62405 20.9962 3.15657C20.3592 2.27644 19.4819 1.85842 18.406 1.85627C15.9934 1.85146 13.5807 1.85476 11.1681 1.85476C9.0035 1.85476 6.83888 1.85111 4.67429 1.856C3.11701 1.85952 1.87119 2.84704 1.61228 4.37139C1.49914 5.03745 1.56419 5.7338 1.5497 6.41642C1.54946 6.42795 1.56672 6.43985 1.58345 6.46144H21.5496ZM7.67941 21.8387V8.03945H1.53821C1.53821 8.14084 1.53821 8.22916 1.53821 8.31748C1.53821 11.7079 1.53743 15.0984 1.53983 18.4888C1.54 18.7362 1.55305 18.9847 1.57735 19.2309C1.70562 20.5306 2.88151 21.7523 4.18346 21.8252C5.33642 21.8897 6.49584 21.8387 7.67941 21.8387Z" fill="#979797"/>
</svg>
