<svg width="24" height="21" viewBox="0 0 24 21" fill="none" xmlns="http://www.w3.org/2000/svg">
<path d="M21.4286 0.362549H2.57143C1.88944 0.362549 1.23539 0.633467 0.753154 1.1157C0.270918 1.59794 0 2.25199 0 2.93398V18.3625C0 19.0445 0.270918 19.6986 0.753154 20.1808C1.23539 20.6631 1.88944 20.934 2.57143 20.934H21.4286C22.1106 20.934 22.7646 20.6631 23.2468 20.1808C23.7291 19.6986 24 19.0445 24 18.3625V2.93398C24 2.25199 23.7291 1.59794 23.2468 1.1157C22.7646 0.633467 22.1106 0.362549 21.4286 0.362549ZM2.57143 2.07683H21.4286C21.6559 2.07683 21.8739 2.16714 22.0347 2.32789C22.1954 2.48863 22.2857 2.70665 22.2857 2.93398V9.79112H18.8571C18.6989 9.7916 18.5438 9.8359 18.4091 9.91911C18.2745 10.0023 18.1655 10.1212 18.0943 10.2625L16.2857 13.8711L14.4771 10.2625C14.4059 10.1212 14.2969 10.0023 14.1623 9.91911C14.0276 9.8359 13.8726 9.7916 13.7143 9.79112H10.8171L8.47714 5.11969C8.40521 4.97929 8.29593 4.86146 8.16133 4.77919C8.02673 4.69691 7.87204 4.65337 7.71429 4.65337C7.55653 4.65337 7.40184 4.69691 7.26724 4.77919C7.13264 4.86146 7.02336 4.97929 6.95143 5.11969L4.61143 9.79112H1.71429V2.93398C1.71429 2.70665 1.80459 2.48863 1.96534 2.32789C2.12608 2.16714 2.3441 2.07683 2.57143 2.07683ZM21.4286 19.2197H2.57143C2.3441 19.2197 2.12608 19.1294 1.96534 18.9686C1.80459 18.8079 1.71429 18.5899 1.71429 18.3625V11.5054H5.14286C5.30114 11.5049 5.45621 11.4606 5.59086 11.3774C5.72551 11.2942 5.83449 11.1753 5.90571 11.034L7.71429 7.42541L9.52286 11.034C9.59409 11.1753 9.70306 11.2942 9.83772 11.3774C9.97237 11.4606 10.1274 11.5049 10.2857 11.5054H13.1829L15.5229 16.1768C15.5948 16.3172 15.7041 16.4351 15.8387 16.5173C15.9733 16.5996 16.128 16.6432 16.2857 16.6432C16.4435 16.6432 16.5982 16.5996 16.7328 16.5173C16.8674 16.4351 16.9766 16.3172 17.0486 16.1768L19.3886 11.5054H22.2857V18.3625C22.2857 18.5899 22.1954 18.8079 22.0347 18.9686C21.8739 19.1294 21.6559 19.2197 21.4286 19.2197Z" fill="#979797"/>
</svg>
