<svg width="20" height="23" viewBox="0 0 20 23" fill="none" xmlns="http://www.w3.org/2000/svg">
<path d="M16 7.25C16 5.6587 15.3679 4.13258 14.2426 3.00736C13.1174 1.88214 11.5913 1.25 10 1.25C8.4087 1.25 6.88258 1.88214 5.75736 3.00736C4.63214 4.13258 4 5.6587 4 7.25C4 14.25 1 16.25 1 16.25H19C19 16.25 16 14.25 16 7.25Z" stroke="#979797" stroke-width="2" stroke-linecap="round" stroke-linejoin="round"/>
<path d="M11.73 20.25C11.5542 20.5531 11.3019 20.8047 10.9982 20.9795C10.6946 21.1544 10.3504 21.2465 10 21.2465C9.64964 21.2465 9.30541 21.1544 9.00179 20.9795C8.69818 20.8047 8.44583 20.5531 8.27002 20.25" stroke="#979797" stroke-width="2" stroke-linecap="round" stroke-linejoin="round"/>
</svg>
