<svg width="22" height="21" viewBox="0 0 22 21" fill="none" xmlns="http://www.w3.org/2000/svg">
<path d="M1 1.5466H7C8.06087 1.5466 9.07828 1.96803 9.82843 2.71817C10.5786 3.46832 11 4.48573 11 5.5466V19.5466C11 18.751 10.6839 17.9879 10.1213 17.4253C9.55871 16.8627 8.79565 16.5466 8 16.5466H1V1.5466Z" stroke="#979797" stroke-width="2" stroke-linecap="round" stroke-linejoin="round"/>
<path d="M21 1.5466H15C13.9391 1.5466 12.9217 1.96803 12.1716 2.71817C11.4214 3.46832 11 4.48573 11 5.5466V19.5466C11 18.751 11.3161 17.9879 11.8787 17.4253C12.4413 16.8627 13.2044 16.5466 14 16.5466H21V1.5466Z" stroke="#979797" stroke-width="2" stroke-linecap="round" stroke-linejoin="round"/>
</svg>
