<svg width="8" height="12" viewBox="0 0 8 12" fill="none" xmlns="http://www.w3.org/2000/svg">
<path d="M2.65503 8.48105V8.37309C2.66261 7.66855 2.73268 7.10794 2.86526 6.69127C3.00162 6.27461 3.1948 5.93748 3.4448 5.67991C3.6948 5.42233 3.99594 5.18749 4.34821 4.97536C4.57548 4.83142 4.78003 4.67044 4.96185 4.49241C5.14367 4.31438 5.28761 4.10983 5.39367 3.87877C5.49973 3.64771 5.55276 3.39203 5.55276 3.11173C5.55276 2.77461 5.47321 2.48294 5.31412 2.23673C5.15503 1.99052 4.94291 1.80112 4.67776 1.66855C4.41639 1.53218 4.12473 1.464 3.80276 1.464C3.51109 1.464 3.23268 1.52461 2.96753 1.64582C2.70238 1.76703 2.48268 1.95642 2.30844 2.214C2.1342 2.46779 2.03382 2.79544 2.0073 3.19695H0.280029C0.306544 2.51514 0.478893 1.93938 0.797075 1.46968C1.11526 0.996197 1.53571 0.638242 2.05844 0.395818C2.58495 0.153394 3.16639 0.0321817 3.80276 0.0321817C4.49973 0.0321817 5.10957 0.162864 5.6323 0.424228C6.15503 0.681803 6.56033 1.04355 6.84821 1.50945C7.13988 1.97158 7.28571 2.51135 7.28571 3.12877C7.28571 3.55302 7.21942 3.93559 7.08685 4.2765C6.95427 4.61362 6.76488 4.91476 6.51867 5.17991C6.27624 5.44506 5.98457 5.67991 5.64367 5.88445C5.3217 6.08521 5.06033 6.29355 4.85957 6.50945C4.66261 6.72536 4.51867 6.98105 4.42776 7.2765C4.33685 7.57195 4.28761 7.93749 4.28003 8.37309V8.48105H2.65503ZM3.51298 11.9356C3.20238 11.9356 2.93533 11.8257 2.71185 11.606C2.48836 11.3826 2.37662 11.1136 2.37662 10.7992C2.37662 10.4886 2.48836 10.2235 2.71185 10.0038C2.93533 9.78029 3.20238 9.66855 3.51298 9.66855C3.8198 9.66855 4.08495 9.78029 4.30844 10.0038C4.53571 10.2235 4.64935 10.4886 4.64935 10.7992C4.64935 11.0076 4.59632 11.1988 4.49026 11.3731C4.38798 11.5435 4.25162 11.6799 4.08117 11.7822C3.91071 11.8845 3.72132 11.9356 3.51298 11.9356Z" fill="white"/>
</svg>
