<svg width="31" height="30" viewBox="0 0 31 30" fill="none" xmlns="http://www.w3.org/2000/svg">
<path d="M23.2017 5.17514C22.848 5.17514 22.5022 5.28003 22.2081 5.47654C21.914 5.67306 21.6848 5.95237 21.5494 6.27916C21.4141 6.60595 21.3786 6.96554 21.4477 7.31245C21.5167 7.65937 21.687 7.97804 21.9371 8.22815C22.1872 8.47826 22.5059 8.64859 22.8528 8.7176C23.1997 8.7866 23.5593 8.75119 23.8861 8.61583C24.2129 8.48047 24.4922 8.25124 24.6887 7.95714C24.8852 7.66304 24.9901 7.31727 24.9901 6.96355C24.9901 6.48924 24.8017 6.03435 24.4663 5.69895C24.1309 5.36356 23.676 5.17514 23.2017 5.17514ZM30.0573 8.78177C30.0283 7.54523 29.7967 6.32181 29.3717 5.16024C28.9928 4.16638 28.403 3.26643 27.6429 2.52233C26.9049 1.75842 26.0029 1.17234 25.005 0.808436C23.8465 0.370515 22.6217 0.133624 21.3835 0.107975C19.8037 0.0185546 19.297 0.0185547 15.2433 0.0185547C11.1895 0.0185547 10.6828 0.0185546 9.10306 0.107975C7.86481 0.133624 6.64003 0.370515 5.48153 0.808436C4.4855 1.17603 3.58422 1.7616 2.84362 2.52233C2.07971 3.26031 1.49363 4.16236 1.12973 5.16024C0.691804 6.31874 0.454913 7.54352 0.429264 8.78177C0.339844 10.3615 0.339844 10.8682 0.339844 14.922C0.339844 18.9757 0.339844 19.4824 0.429264 21.0622C0.454913 22.3004 0.691804 23.5252 1.12973 24.6837C1.49363 25.6816 2.07971 26.5836 2.84362 27.3216C3.58422 28.0824 4.4855 28.6679 5.48153 29.0355C6.64003 29.4734 7.86481 29.7103 9.10306 29.736C10.6828 29.8254 11.1895 29.8254 15.2433 29.8254C19.297 29.8254 19.8037 29.8254 21.3835 29.736C22.6217 29.7103 23.8465 29.4734 25.005 29.0355C26.0029 28.6716 26.9049 28.0855 27.6429 27.3216C28.4063 26.5803 28.9967 25.6796 29.3717 24.6837C29.7967 23.5221 30.0283 22.2987 30.0573 21.0622C30.0573 19.4824 30.1467 18.9757 30.1467 14.922C30.1467 10.8682 30.1467 10.3615 30.0573 8.78177ZM27.3747 20.8834C27.3638 21.8294 27.1925 22.7667 26.8679 23.6554C26.63 24.304 26.2478 24.89 25.7502 25.3693C25.2668 25.8619 24.6819 26.2433 24.0363 26.487C23.1476 26.8116 22.2103 26.9829 21.2643 26.9938C19.7739 27.0683 19.2225 27.0832 15.3029 27.0832C11.3833 27.0832 10.8319 27.0832 9.34151 26.9938C8.35921 27.0122 7.38111 26.8609 6.45025 26.5467C5.83292 26.2904 5.2749 25.91 4.81087 25.4289C4.31621 24.9501 3.93879 24.3636 3.70802 23.715C3.34416 22.8136 3.14235 21.855 3.11188 20.8834C3.11188 19.393 3.02246 18.8416 3.02246 14.922C3.02246 11.0024 3.02246 10.451 3.11188 8.96061C3.11856 7.99346 3.29512 7.03501 3.6335 6.12896C3.89587 5.4999 4.29859 4.93916 4.81087 4.48958C5.26366 3.97716 5.82324 3.57018 6.45025 3.29731C7.35869 2.9695 8.31615 2.79816 9.2819 2.79059C10.7722 2.79059 11.3237 2.70117 15.2433 2.70117C19.1629 2.70117 19.7143 2.70117 21.2046 2.79059C22.1507 2.80144 23.088 2.97278 23.9767 3.29731C24.6539 3.54866 25.2618 3.9573 25.7502 4.48958C26.2386 4.94738 26.6202 5.50709 26.8679 6.12896C27.1992 7.03648 27.3706 7.99454 27.3747 8.96061C27.4492 10.451 27.4641 11.0024 27.4641 14.922C27.4641 18.8416 27.4492 19.393 27.3747 20.8834ZM15.2433 7.27652C13.7318 7.27947 12.2551 7.73037 10.9998 8.57226C9.74442 9.41414 8.76681 10.6092 8.19042 12.0065C7.61404 13.4038 7.46476 14.9406 7.76144 16.4227C8.05813 17.9047 8.78746 19.2656 9.85729 20.3334C10.9271 21.4011 12.2894 22.1278 13.7721 22.4216C15.2548 22.7154 16.7912 22.5631 18.1874 21.984C19.5836 21.4049 20.7767 20.425 21.6162 19.168C22.4556 17.9111 22.9036 16.4335 22.9036 14.922C22.9056 13.9162 22.7087 12.9199 22.3242 11.9904C21.9398 11.061 21.3754 10.2167 20.6635 9.50615C19.9515 8.79562 19.1062 8.23284 18.176 7.8502C17.2458 7.46756 16.2491 7.27259 15.2433 7.27652ZM15.2433 19.8848C14.2617 19.8848 13.3022 19.5938 12.4861 19.0484C11.6699 18.5031 11.0338 17.728 10.6582 16.8212C10.2826 15.9143 10.1843 14.9165 10.3758 13.9538C10.5673 12.9911 11.0399 12.1068 11.734 11.4127C12.4281 10.7187 13.3124 10.246 14.2751 10.0545C15.2378 9.86301 16.2356 9.96129 17.1425 10.3369C18.0493 10.7125 18.8244 11.3486 19.3697 12.1648C19.915 12.9809 20.2061 13.9404 20.2061 14.922C20.2061 15.5737 20.0777 16.2191 19.8283 16.8212C19.5789 17.4233 19.2134 17.9704 18.7525 18.4312C18.2917 18.8921 17.7446 19.2576 17.1425 19.507C16.5403 19.7565 15.895 19.8848 15.2433 19.8848Z" fill="#A0A1A2"/>
</svg>
