<svg width="71" height="78" viewBox="0 0 71 78" fill="none" xmlns="http://www.w3.org/2000/svg">
<path d="M41.9519 41.9518C41.957 43.086 41.6632 44.2015 41.1 45.1859C40.5368 46.1704 39.7241 46.9891 38.7438 47.5595C37.7635 48.1299 36.6502 48.4319 35.5161 48.4351C34.3819 48.4383 33.2669 48.1426 32.2834 47.5778C31.2999 47.0129 30.4826 46.1988 29.9139 45.2176C29.3451 44.2363 29.045 43.1225 29.0437 41.9884C29.0424 40.8542 29.34 39.7397 29.9065 38.7572C30.473 37.7746 31.2885 36.9587 32.2707 36.3916V22.5895C32.2707 21.7336 32.6107 20.9128 33.2159 20.3076C33.821 19.7024 34.6419 19.3624 35.4977 19.3624C36.3536 19.3624 37.1744 19.7024 37.7796 20.3076C38.3848 20.9128 38.7248 21.7336 38.7248 22.5895V36.3916C39.703 36.9541 40.5161 37.7639 41.0825 38.7398C41.6489 39.7158 41.9487 40.8235 41.9519 41.9518ZM61.5079 17.8747C66.2097 22.9373 69.332 29.2619 70.4918 36.0731C71.6515 42.8843 70.7984 49.8858 68.037 56.2192C65.2756 62.5526 60.7259 67.9424 54.9459 71.7278C49.166 75.5131 42.4069 77.5294 35.4977 77.5294C28.5885 77.5294 21.8295 75.5131 16.0495 71.7278C10.2696 67.9424 5.71991 62.5526 2.95848 56.2192C0.197062 49.8858 -0.656075 42.8843 0.503696 36.0731C1.66347 29.2619 4.78573 22.9373 9.48759 17.8747L7.319 15.4641C6.00508 15.9266 4.61991 16.1538 3.22708 16.1353C2.37121 16.1353 1.5504 15.7953 0.945205 15.1901C0.340013 14.5849 1.9648e-05 13.7641 1.9648e-05 12.9083C1.9648e-05 12.0524 0.340013 11.2316 0.945205 10.6264C1.5504 10.0212 2.37121 9.6812 3.22708 9.6812C5.76033 9.6812 6.45415 8.98738 6.45415 6.45413C6.45415 5.59826 6.79414 4.77744 7.39933 4.17225C8.00453 3.56706 8.82534 3.22707 9.68121 3.22707C10.5371 3.22707 11.3579 3.56706 11.9631 4.17225C12.5683 4.77744 12.9083 5.59826 12.9083 6.45413C12.9271 8.02451 12.6194 9.58167 12.0047 11.0269L14.283 13.5569C19.5176 9.61754 25.7465 7.21493 32.2707 6.61871V3.22707C32.2707 2.37119 32.6107 1.55038 33.2159 0.945186C33.821 0.339993 34.6419 0 35.4977 0C36.3536 0 37.1744 0.339993 37.7796 0.945186C38.3848 1.55038 38.7248 2.37119 38.7248 3.22707V6.61871C45.2486 7.21399 51.4775 9.61546 56.7125 13.5537L58.9908 11.0237C58.3765 9.57944 58.0688 8.02343 58.0872 6.45413C58.0872 5.59826 58.4272 4.77744 59.0324 4.17225C59.6376 3.56706 60.4584 3.22707 61.3143 3.22707C62.1701 3.22707 62.9909 3.56706 63.5961 4.17225C64.2013 4.77744 64.5413 5.59826 64.5413 6.45413C64.5413 8.98738 65.2351 9.6812 67.7684 9.6812C68.6243 9.6812 69.4451 10.0212 70.0503 10.6264C70.6555 11.2316 70.9954 12.0524 70.9954 12.9083C70.9954 13.7641 70.6555 14.5849 70.0503 15.1901C69.4451 15.7953 68.6243 16.1353 67.7684 16.1353C66.3756 16.1538 64.9904 15.9266 63.6765 15.4641L61.5079 17.8747ZM64.5413 41.9518C64.5413 36.2076 62.8379 30.5923 59.6466 25.8161C56.4552 21.0399 51.9193 17.3173 46.6122 15.1191C41.3052 12.9208 35.4655 12.3457 29.8316 13.4663C24.1977 14.587 19.0226 17.3531 14.9608 21.4149C10.899 25.4767 8.13287 30.6518 7.01221 36.2857C5.89156 41.9196 6.46672 47.7593 8.66496 53.0663C10.8632 58.3734 14.5858 62.9094 19.362 66.1007C24.1382 69.2921 29.7535 70.9954 35.4977 70.9954C43.1979 70.9869 50.5803 67.9242 56.0252 62.4793C61.4701 57.0345 64.5328 49.6521 64.5413 41.9518Z" fill="#F2F2F2"/>
</svg>
