<svg width="21" height="15" viewBox="0 0 21 15" fill="none" xmlns="http://www.w3.org/2000/svg">
<path d="M18.4088 1.87309C15.8355 -0.0536005 13.3703 0.000373011 13.3703 0.000373011L13.1183 0.288381C16.1775 1.20682 17.5991 2.55727 17.5991 2.55727C13.2224 0.145925 7.6474 0.163179 3.09499 2.55727C3.09499 2.55727 4.57053 1.13471 7.80965 0.216268L7.62971 0.000151928C7.62971 0.000151928 5.18241 -0.053822 2.59121 1.87287C2.59121 1.87287 0 6.53673 0 12.281C0 12.281 1.51157 14.8739 5.48857 15C5.48857 15 6.15439 14.2076 6.69421 13.5235C4.40872 12.8393 3.54506 11.4167 3.54506 11.4167C4.98081 12.3157 6.4327 12.8784 8.24181 13.2355C11.1854 13.8418 14.8467 13.2184 17.5812 11.4167C17.5812 11.4167 16.6815 12.8753 14.3241 13.5416C14.864 14.2079 15.5119 14.9821 15.5119 14.9821C19.4884 14.8562 21 12.2633 21 12.2812C21 6.53695 18.4088 1.87309 18.4088 1.87309ZM7.14383 10.6067C6.13604 10.6067 5.30841 9.72428 5.30841 8.62578C5.38203 5.99523 8.92421 6.00341 8.97947 8.62578C8.97925 9.72428 8.16953 10.6067 7.14383 10.6067ZM13.712 10.6067C12.7042 10.6067 11.8766 9.72428 11.8766 8.62578C11.9575 6.00031 15.4555 5.99921 15.5477 8.62578C15.5475 9.72428 14.7377 10.6067 13.712 10.6067Z" fill="#6F7BFD"/>
</svg>
