<svg width="32" height="30" viewBox="0 0 32 30" fill="none" xmlns="http://www.w3.org/2000/svg">
<path d="M7.83668 9.70417V29.8229H1.13747V9.70417H7.83668ZM8.2626 3.49296C8.26384 3.52897 8.26508 3.57119 8.26508 3.61465C8.26508 4.54472 7.87021 5.38165 7.2394 5.96776L7.23692 5.969C6.56017 6.58739 5.65494 6.96612 4.6603 6.96612C4.59945 6.96612 4.53736 6.96488 4.47652 6.96239H4.48521H4.44423C4.39332 6.96488 4.33372 6.96612 4.27411 6.96612C3.30059 6.96612 2.41646 6.58614 1.75958 5.96776L1.76082 5.969C1.13498 5.36303 0.747559 4.51616 0.747559 3.57864C0.747559 3.54884 0.747559 3.51903 0.7488 3.48799V3.49296C0.747559 3.46688 0.747559 3.43708 0.747559 3.40728C0.747559 2.46107 1.14988 1.60923 1.79187 1.01195L1.79435 1.01071C2.46986 0.396045 3.37261 0.0185547 4.36228 0.0185547C4.4194 0.0185547 4.47528 0.0197964 4.5324 0.0222799H4.52495C4.57834 0.0197964 4.63919 0.0185547 4.70252 0.0185547C5.67729 0.0185547 6.56514 0.394803 7.22823 1.00947L7.22574 1.00698C7.86524 1.62413 8.2626 2.48839 8.2626 3.44577V3.49792V3.49544V3.49296ZM31.9327 18.2946V29.8229H25.2546V19.0632C25.2609 18.9651 25.2633 18.8509 25.2633 18.7366C25.2633 17.624 24.9541 16.5847 24.4165 15.6981L24.4314 15.7241C23.9011 14.9841 23.0443 14.5085 22.077 14.5085C22.0025 14.5085 21.928 14.511 21.8535 14.5172H21.8634C21.8299 14.5159 21.7914 14.5147 21.7529 14.5147C20.983 14.5147 20.2752 14.7792 19.7152 15.2225L19.7227 15.2175C19.1602 15.6732 18.7193 16.2556 18.4412 16.9249L18.4313 16.9535C18.2872 17.3943 18.2053 17.9009 18.2053 18.4274C18.2053 18.487 18.2065 18.5466 18.209 18.6062V18.5975V29.8254H11.5309C11.5582 24.4255 11.5719 20.0471 11.5719 16.6902C11.5719 13.3334 11.5652 11.3304 11.552 10.6814L11.5321 9.70665H18.2102V12.6297H18.1692C18.435 12.2013 18.7094 11.83 19.0111 11.4823L19.0012 11.4935C19.3501 11.1098 19.7252 10.7634 20.1287 10.4529L20.1486 10.438C20.6503 10.0519 21.2388 9.74887 21.8771 9.56385L21.9143 9.55516C22.5824 9.35524 23.351 9.23975 24.1458 9.23975H24.2439H24.2389C24.3271 9.23603 24.4301 9.23355 24.5332 9.23355C26.6206 9.23355 28.5006 10.1202 29.8181 11.5382L29.8218 11.5432C31.2307 13.0796 31.9352 15.3297 31.9352 18.2933L31.9327 18.2946Z" fill="#A0A1A2"/>
</svg>
