<svg width="107" height="27" viewBox="0 0 107 27" fill="none" xmlns="http://www.w3.org/2000/svg">
<g clip-path="url(#clip0_1569_61)">
<path d="M34.6733 10.0124C34.2546 13.6471 33.8428 17.2628 33.4064 20.8755C33.3865 21.0405 33.1499 21.3015 33.0044 21.3084C32.1412 21.3495 31.275 21.3287 30.3218 21.3287C31.0772 16.2684 31.8187 11.3015 32.5696 6.27189C33.6095 6.27189 34.6189 6.24478 35.6239 6.29829C35.7939 6.30731 36.0233 6.63865 36.0939 6.86291C37.0927 10.0335 38.0686 13.2114 39.0514 16.387C39.0646 16.4299 39.095 16.4675 39.0629 16.41C40.095 13.2265 41.1435 9.96955 42.2223 6.72288C42.2865 6.52988 42.5871 6.3028 42.7901 6.29005C43.5873 6.24009 44.3912 6.24069 45.1884 6.29107C45.3748 6.30286 45.6747 6.56265 45.7028 6.74296C46.4265 11.3868 47.1219 16.0352 47.8172 20.6836C47.8444 20.8653 47.8207 21.0546 47.8207 21.286H44.8636C44.4208 17.5497 43.9799 13.8292 43.5595 10.2812C42.4683 13.6698 41.3082 17.2045 40.2041 20.7569C39.971 21.5068 39.4573 21.2933 38.9793 21.3327C38.5017 21.3721 38.1699 21.3242 37.9934 20.7272C36.9506 17.2008 35.8559 13.6901 34.7759 10.1748C34.7566 10.1119 34.7038 10.0594 34.6733 10.0124Z" fill="white"/>
<path d="M61.691 21.4026V6.2607C64.3423 6.36316 66.9851 5.97903 69.5685 6.6583C72.4659 7.42007 74.337 9.84816 74.5358 12.9931C74.661 14.9743 74.3811 16.8653 73.1781 18.5172C72.0445 20.0738 70.488 20.9938 68.6065 21.1471C66.3394 21.3319 64.0568 21.3241 61.691 21.4026ZM64.8709 9.02855V18.5284C66.9527 18.4565 69.2523 19.0162 70.5365 16.8436C71.6959 14.8823 71.707 12.6443 70.4968 10.6989C69.2003 8.6146 66.9438 9.09511 64.8709 9.02855Z" fill="white"/>
<path d="M86.6986 21.2885V15.1179H80.3634V21.2827H77.2065V6.30762H80.3135V12.2085H86.6525V6.32127H89.8276V21.2886L86.6986 21.2885Z" fill="white"/>
<path d="M25.7372 13.8017C25.6578 21.1558 19.9351 26.8343 12.6833 26.769C5.86952 26.7076 0.023414 20.7584 0.193055 13.3783C0.352116 6.45932 6.19984 0.686797 13.1379 0.770429C20.068 0.85394 25.8128 6.79571 25.7372 13.8017ZM12.9638 2.27736C6.69854 2.28795 1.64451 7.4362 1.64595 13.8063C1.64732 20.1461 6.7515 25.3189 12.9991 25.312C19.2061 25.305 24.2563 20.1447 24.2598 13.8057C24.2632 7.40506 19.2285 2.26678 12.9638 2.27736Z" fill="white"/>
<path d="M91.3487 21.3319C91.8965 19.8435 92.4016 18.4545 92.9185 17.0698C94.1796 13.692 95.456 10.32 96.6999 6.93572C96.8794 6.4471 97.0902 6.21983 97.6435 6.2556C98.4867 6.31019 99.337 6.24707 100.182 6.28777C100.374 6.29703 100.659 6.48648 100.726 6.66096C102.556 11.4355 104.364 16.2187 106.173 21.0016C106.196 21.0627 106.181 21.1382 106.19 21.3265C105.089 21.3265 104 21.3414 102.912 21.3078C102.775 21.3036 102.591 21.0672 102.523 20.8998C102.212 20.1362 101.964 19.3458 101.628 18.5946C101.532 18.3795 101.22 18.129 101.001 18.1234C99.4261 18.0832 97.8497 18.1164 96.2744 18.0916C95.8835 18.0854 95.7419 18.2613 95.6423 18.5855C95.4139 19.3289 95.1495 20.0616 94.9394 20.8099C94.8332 21.188 94.6648 21.3526 94.255 21.3405C93.3226 21.3128 92.389 21.3319 91.3487 21.3319ZM100.67 15.5096C99.9795 13.3927 99.3118 11.3466 98.6802 9.41071C98.0564 11.3829 97.41 13.4267 96.7512 15.5096H100.67Z" fill="white"/>
<path d="M49.9478 21.2752V6.30957H58.5426V8.99565H53.1162V12.0303H58.5308V14.7968H53.1328V18.4941H58.5328V21.2752L49.9478 21.2752Z" fill="white"/>
<path d="M17.5591 8.21777C18.7527 11.8559 19.9463 15.494 21.1562 19.1817H13.7969C15.0067 15.492 16.1979 11.8593 17.3891 8.22667C17.4458 8.22373 17.5024 8.22072 17.5591 8.21777Z" fill="white"/>
<path d="M8.53476 8.21387C9.72488 11.8386 10.9149 15.4633 12.1283 19.1588H4.78418C5.98273 15.5016 7.17476 11.8643 8.36673 8.22703C8.42274 8.22265 8.47881 8.21826 8.53476 8.21387Z" fill="white"/>
<path d="M12.8511 17.9753C11.657 14.3415 10.4628 10.7076 9.25 7.0166H16.6068C15.3984 10.6961 14.202 14.3389 13.0057 17.9817C12.9541 17.9796 12.9026 17.9774 12.8511 17.9753Z" fill="white"/>
</g>
<defs>
<clipPath id="clip0_1569_61">
<rect width="106" height="26" fill="white" transform="translate(0.189453 0.769531)"/>
</clipPath>
</defs>
</svg>
