<svg width="93" height="94" viewBox="0 0 93 94" fill="none" xmlns="http://www.w3.org/2000/svg">
<path d="M49.589 0C51.2593 0.236292 52.9364 0.43234 54.5988 0.715583C62.6103 2.08045 69.725 5.41184 76.0028 10.552C76.797 11.2023 77.5604 11.8899 78.3986 12.6124C80.2969 10.7052 82.1818 8.81152 84.2193 6.76439V24.516H66.8847C68.7024 22.7199 70.5756 20.8687 72.4466 19.0197C62.8283 9.25255 44.6942 4.40279 28.6274 13.0791C19.2972 18.1175 13.0395 25.802 10.0838 35.9942C7.14113 46.142 8.43727 55.9003 13.5239 65.3393C12.6882 65.3393 12.0106 65.3393 11.3328 65.3393C9.1534 65.3393 6.97334 65.3102 4.79492 65.3567C4.13267 65.3708 3.85712 65.1285 3.6139 64.5432C0.683178 57.4907 -0.459687 50.1709 0.165843 42.5572C1.6798 24.1315 14.1771 8.19742 31.7332 2.36809C35.2144 1.21214 38.7792 0.445425 42.4442 0.172518C42.7096 0.152727 42.9694 0.0592654 43.2319 0.000109954C45.3509 0.000109954 47.47 0 49.589 0Z" fill="white"/>
<path d="M93 49.7558C92.7615 51.3953 92.6058 53.0519 92.2718 54.6717C88.5649 72.6477 78.1049 85.038 60.6843 90.6672C43.9585 96.0719 28.655 92.479 15.3014 80.9518C15.0965 80.775 14.8919 80.5981 14.6585 80.3965C12.7636 82.3138 10.8849 84.2148 9.00614 86.1158C8.93533 86.0665 8.86463 86.0171 8.79382 85.9677V68.4694H26.3524C24.4071 70.3972 22.5337 72.2537 20.6602 74.1102C31.3072 84.554 49.4882 88.1706 64.7378 79.702C73.9448 74.5889 80.1058 66.9036 82.9792 56.763C85.8388 46.671 84.5269 36.9736 79.4669 27.6202C80.3117 27.6202 80.9917 27.6202 81.6718 27.6202C83.8811 27.6202 86.0905 27.6347 88.2995 27.6096C88.8187 27.6036 89.1116 27.7358 89.3229 28.2488C91.1989 32.803 92.4449 37.5081 92.8257 42.4301C92.8463 42.6958 92.9402 42.9559 92.9999 43.2186L93 49.7558Z" fill="white"/>
<path d="M53.6384 43.3737C55.1385 42.7621 56.6351 42.1518 57.9367 41.6211C57.5508 40.015 57.0287 38.4703 56.8357 36.8857C56.577 34.7604 57.1418 32.7475 58.325 30.9392C61.2096 26.5302 66.8217 26.5258 69.6318 30.9867C71.5818 34.0823 71.6856 37.3531 70.1686 40.6761C70.0437 40.9497 69.8947 41.2124 69.7083 41.5747C70.4391 41.8277 71.1402 42.074 71.8436 42.3133C75.1397 43.4348 76.9976 46.0162 77.003 49.5022C77.0082 52.7974 77.0041 56.0927 77.0041 59.4969H59.5823V65.2692H33.4758V59.5526H16.0414C16.0245 59.1919 15.9997 58.9037 15.9995 58.6154C15.9967 55.5291 15.991 52.4427 15.9999 49.3564C16.0094 46.0874 17.8666 43.4762 20.9512 42.3806C21.7116 42.1106 22.4801 41.8629 23.0736 41.6625C22.6585 40.1851 22.1037 38.8276 21.9181 37.4213C21.5358 34.5242 22.3126 31.8873 24.3479 29.7348C27.0288 26.8995 31.0494 26.9423 33.7516 29.772C36.3509 32.4938 36.983 37.0283 35.2611 40.6029C35.1183 40.8992 34.9719 41.1937 34.8147 41.5144C36.358 42.1488 37.8738 42.772 39.363 43.3843C39.0977 41.0497 39.5305 38.7774 40.8805 36.7234C43.7234 32.3983 49.2279 32.3853 52.1036 36.6871C53.3636 38.5718 53.8743 40.8253 53.6384 43.3737ZM56.7326 62.5123C56.7326 59.8965 56.7893 57.3323 56.7139 54.772C56.6576 52.8592 55.5811 51.564 53.8242 50.8716C52.8446 50.4856 51.8369 50.1537 50.8171 49.8951C50.4041 49.7905 49.8595 49.817 49.4874 50.0056C47.8652 50.8282 46.1232 51.1935 44.5204 50.3781C43.07 49.6403 41.8575 49.836 40.5311 50.4165C40.2013 50.5609 39.8446 50.6427 39.503 50.7612C37.3438 51.5105 36.2785 52.9546 36.254 55.2405C36.2308 57.4166 36.2466 59.5931 36.2512 61.7694C36.2516 62.0032 36.2918 62.2368 36.3174 62.5121L56.7326 62.5123ZM39.1007 47.9474C38.6018 46.4916 37.6988 45.5443 36.3467 45.0474C35.3569 44.6835 34.3591 44.3268 33.3394 44.0666C32.9292 43.9619 32.3882 43.9984 32.0149 44.186C30.3594 45.0179 28.5935 45.366 26.9619 44.5155C25.6323 43.8225 24.5307 43.9873 23.3069 44.4946C22.9179 44.6559 22.5069 44.7638 22.1075 44.9007C19.8588 45.672 18.7599 47.2022 18.7487 49.6068C18.739 51.6932 18.7447 53.7796 18.7491 55.866C18.7496 56.1271 18.7837 56.3883 18.804 56.6736H33.4548C33.179 52.3992 34.8055 49.3526 39.1007 47.9474ZM74.1345 56.6774C74.1817 56.5469 74.2377 56.464 74.2378 56.381C74.2423 53.9321 74.3234 51.4796 74.2154 49.0354C74.1255 46.9989 72.9954 45.6156 71.0325 44.9613C70.1172 44.6561 69.2151 44.2982 68.2813 44.0688C67.8679 43.9672 67.3263 43.9975 66.9535 44.1863C65.3296 45.0092 63.5855 45.3617 61.9825 44.5531C60.5331 43.8219 59.3246 44.0256 57.9966 44.5937C57.4439 44.8302 56.8432 44.9572 56.2967 45.2054C55.1165 45.7412 54.3171 46.6286 53.924 47.9538C58.1926 49.3189 59.8265 52.3965 59.5521 56.6774H74.1345ZM33.4587 37.0871C33.4514 34.5348 32.9775 32.9437 31.7511 31.6498C30.1738 29.9857 27.8938 30.0012 26.3031 31.6517C24.0792 33.9592 24.021 38.4291 26.1837 40.8052C27.891 42.681 30.3952 42.6287 31.9977 40.6638C33.0322 39.3954 33.4638 37.9131 33.4587 37.0871ZM68.4123 36.3175C68.3593 34.5649 67.9437 32.9847 66.7414 31.7032C65.0875 29.9402 62.7149 29.9847 61.1044 31.7935C58.985 34.1739 59.0287 38.5511 61.1951 40.8877C62.7501 42.5647 65.0292 42.6125 66.6429 40.9819C67.9309 39.6804 68.3602 38.0432 68.4123 36.3175ZM50.9115 42.1103C50.9401 40.5828 50.5491 39.1779 49.6327 37.9485C47.9456 35.6853 45.1409 35.6625 43.4112 37.8823C41.6078 40.1965 41.638 44.1436 43.4765 46.4265C45.161 48.5182 47.8571 48.5214 49.5278 46.414C50.5232 45.1586 50.9398 43.7009 50.9115 42.1103Z" fill="white"/>
<path d="M56.7326 62.5215H36.3174C36.2917 62.2462 36.2517 62.0125 36.2512 61.7789C36.2467 59.6025 36.2308 57.426 36.254 55.2499C36.2784 52.964 37.3437 51.5199 39.503 50.7707C39.8445 50.6521 40.2012 50.5702 40.531 50.426C41.8575 49.8454 43.0701 49.6497 44.5204 50.3875C46.1232 51.2029 47.8652 50.8376 49.4874 50.0151C49.8594 49.8264 50.404 49.7999 50.817 49.9046C51.8369 50.1631 52.8446 50.495 53.8242 50.8811C55.581 51.5734 56.6576 52.8686 56.7139 54.7815C56.7893 57.3418 56.7326 59.9057 56.7326 62.5215Z" fill="#121316"/>
<path d="M39.1005 47.9502C34.8054 49.3554 33.1788 52.4022 33.4546 56.6764H18.8038C18.7835 56.3911 18.7494 56.1299 18.7489 55.8688C18.7445 53.7824 18.7388 51.696 18.7485 49.6097C18.7597 47.2051 19.8586 45.6748 22.1073 44.9035C22.5067 44.7665 22.9177 44.6586 23.3067 44.4974C24.5305 43.9901 25.632 43.8253 26.9617 44.5183C28.5933 45.3688 30.3592 45.0207 32.0147 44.1888C32.388 44.0012 32.929 43.9648 33.3392 44.0694C34.3589 44.3295 35.3567 44.6863 36.3465 45.0502C37.6986 45.5472 38.6016 46.4944 39.1005 47.9502Z" fill="#121316"/>
<path d="M74.1346 56.6777H59.5521C59.8265 52.3968 58.1926 49.319 53.9241 47.9541C54.3173 46.6289 55.1165 45.7414 56.2968 45.2056C56.8432 44.9576 57.4439 44.8305 57.9967 44.594C59.3246 44.0259 60.5331 43.8222 61.9825 44.5534C63.5854 45.362 65.3296 45.0095 66.9535 44.1866C67.3263 43.9977 67.8679 43.9673 68.2814 44.069C69.2151 44.2986 70.1174 44.6565 71.0325 44.9615C72.9954 45.6159 74.1254 46.9992 74.2155 49.0357C74.3235 51.4799 74.2422 53.9324 74.2378 56.3813C74.2377 56.4643 74.1817 56.5472 74.1346 56.6777Z" fill="#121316"/>
<path d="M33.4585 37.0973C33.4637 37.9233 33.032 39.4056 31.9976 40.674C30.3951 42.6388 27.8909 42.6912 26.1835 40.8154C24.0208 38.4393 24.0792 33.9694 26.3029 31.6619C27.8936 30.0114 30.1737 29.9959 31.751 31.66C32.9774 32.9539 33.4513 34.545 33.4585 37.0973Z" fill="#121316"/>
<path d="M68.4123 36.3272C68.3602 38.0528 67.931 39.6899 66.643 40.9914C65.0293 42.6219 62.7501 42.5742 61.1952 40.8972C59.0287 38.5607 58.9851 34.1834 61.1044 31.803C62.7148 29.9942 65.0874 29.9497 66.7415 31.7127C67.9437 32.9942 68.3593 34.5746 68.4123 36.3272Z" fill="#121316"/>
<path d="M50.912 42.1118C50.9396 43.7049 50.5229 45.1628 49.5277 46.4181C47.8568 48.5255 45.1609 48.5222 43.4764 46.4307C41.6378 44.1478 41.6077 40.2007 43.4111 37.8865C45.1409 35.6667 47.9455 35.6895 49.6326 37.9526C50.5491 39.1819 50.9398 40.5869 50.912 42.1118Z" fill="#121316"/>
</svg>
