<svg width="573" height="377" viewBox="0 0 573 377" fill="none" xmlns="http://www.w3.org/2000/svg">
<mask id="mask0_2840_422" style="mask-type:alpha" maskUnits="userSpaceOnUse" x="0" y="0" width="573" height="377">
<rect y="0.34375" width="572.786" height="376.655" fill="#D9D9D9"/>
</mask>
<g mask="url(#mask0_2840_422)">
<path d="M-130.186 810.188C-153.752 810.188 -177.589 809.419 -201.65 807.88C-337.005 799.216 -423.888 756.407 -467.262 677.008C-504.846 608.208 -504.209 522.617 -503.648 447.101C-503.272 396.695 -502.918 349.085 -514.331 314.506C-552.321 199.395 -594.208 173.756 -619.235 158.437C-633.726 149.567 -643.299 143.707 -642.402 125.635C-641.523 107.926 -576.763 85.341 -438.599 54.5607C-378.844 41.2469 -332.445 52.7812 -295.161 62.049C-276.484 66.6915 -260.328 70.7077 -246.154 70.6636C-207.132 70.5613 -196.472 66.2992 -173.114 56.961C-153.637 49.1742 -124.202 37.4062 -61.15 21.5783C-5.74103 7.66886 80.783 4.76219 164.662 13.9945C212.388 19.2472 257.7 28.0735 299.338 40.2287C345.948 53.8352 386.864 71.3528 420.949 92.2957C484.09 131.091 522.929 180.863 536.388 240.229C549.646 298.714 547.94 358.542 531.315 418.052C514.802 477.163 484.426 532.948 441.031 583.857C377.863 657.961 289.471 717.706 185.407 756.632C129.932 777.384 69.903 792.315 6.98969 801.012C-37.2158 807.122 -83.1414 810.187 -130.186 810.188ZM-384.321 50.9474C-400.944 50.9474 -418.815 52.6293 -438.073 56.9197C-500.91 70.9189 -547.686 83.013 -581.076 93.8935C-629.239 109.588 -639.696 119.883 -639.988 125.755C-640.814 142.394 -632.701 147.36 -617.972 156.375C-592.664 171.867 -550.303 197.796 -512.035 313.748C-500.499 348.705 -500.854 396.509 -501.23 447.119C-501.79 522.341 -502.424 607.6 -465.141 675.849C-422.197 754.462 -335.957 796.861 -201.496 805.467C-129.564 810.072 -59.5306 807.766 6.65845 798.617C69.3962 789.945 129.251 775.058 184.561 754.369C288.24 715.585 376.29 656.081 439.191 582.288C482.357 531.649 512.569 476.172 528.987 417.401C545.503 358.282 547.199 298.853 534.03 240.763C520.721 182.056 482.249 132.797 419.683 94.3554C385.782 73.5254 345.064 56.0955 298.661 42.5492C257.157 30.4334 211.985 21.6346 164.398 16.3972C80.7877 7.19403 -5.41217 10.0786 -60.5613 23.9232C-123.456 39.7113 -152.8 51.4428 -172.217 59.2056C-195.869 68.6614 -206.664 72.977 -246.148 73.0809H-246.351C-260.801 73.0809 -277 69.0544 -295.744 64.395C-320.732 58.1834 -349.844 50.9474 -384.321 50.9474Z" fill="#D9232A"/>
<path d="M-118.181 766.161C-137.237 766.161 -156.489 765.611 -175.908 764.509C-298.159 757.825 -377.665 720.721 -418.967 651.079C-454.848 590.579 -456.813 514.322 -458.547 447.042C-459.754 400.176 -460.895 355.91 -473.356 323.617C-511.661 220.225 -551.846 195.052 -575.856 180.012C-590.367 170.922 -599.954 164.917 -599.322 147.368C-599.132 137.454 -581.326 125.519 -546.399 111.911C-514.978 99.67 -470.924 86.5761 -419 74.0449C-364.789 60.7346 -322.486 69.8139 -288.495 77.1089C-272.063 80.6357 -257.872 83.6812 -245.05 83.6974C-204.398 83.8134 -194.319 80.5955 -164.426 71.1059C-144.34 64.7299 -116.832 55.9976 -66.1433 43.7028C-14.2211 31.0956 66.5021 28.4829 144.522 36.8831C189.146 41.688 231.427 49.7806 270.19 60.9368C313.682 73.4539 351.775 89.602 383.41 108.933C440.482 143.807 475.895 188.458 488.662 241.646C501.375 295.172 500.402 350.009 485.769 404.638C471.229 458.923 443.965 510.2 404.734 557.047C348.047 624.737 268.425 679.534 174.477 715.512C124.386 734.695 70.1115 748.628 13.1635 756.923C-29.0583 763.073 -73.0497 766.161 -118.181 766.161ZM-363.282 69.5192C-380.183 69.5192 -398.513 71.3529 -418.464 76.2509C-528.289 102.757 -596.718 130.031 -597.052 147.431C-597.637 163.688 -588.985 169.108 -574.651 178.087C-550.395 193.281 -509.8 218.711 -471.233 322.814C-458.636 355.459 -457.49 399.916 -456.277 446.983C-454.55 513.986 -452.592 589.929 -417.014 649.921C-376.128 718.86 -297.22 755.602 -175.781 762.241C-110.522 765.947 -47.0618 763.4 12.8361 754.676C69.619 746.405 123.729 732.514 173.665 713.391C267.253 677.551 346.553 622.984 402.994 555.588C442.01 508.998 469.122 458.014 483.576 404.05C498.109 349.79 499.078 295.326 486.454 242.174C473.833 189.596 438.766 145.418 382.226 110.87C340.438 85.336 265.237 52.1644 144.279 39.141C66.5029 30.7667 -13.9229 33.361 -65.6075 45.9092C-116.22 58.1855 -143.685 66.9044 -163.739 73.2702C-193.068 82.5804 -204.064 86.0548 -245.054 85.9683C-258.114 85.9513 -272.414 82.8825 -288.971 79.3291C-310.193 74.7747 -334.684 69.5192 -363.282 69.5192Z" fill="#D9232A"/>
<path d="M-105.538 722.225C-120.248 722.226 -135.113 721.865 -150.165 721.143C-259.4 716.412 -331.524 684.94 -370.654 624.929C-404.751 572.635 -409.229 505.675 -413.18 446.597C-416.066 403.437 -418.793 362.672 -432.379 332.735C-470.853 241.078 -509.322 216.448 -532.306 201.732C-546.934 192.366 -556.598 186.179 -556.242 169.106C-556.494 145.795 -475.118 113.585 -399.404 93.536C-350.472 80.1069 -312.099 86.7795 -281.264 92.1413C-267.281 94.5727 -255.205 96.6729 -243.944 96.7378H-243.942C-197.762 97.1159 -189.295 94.9752 -142.288 83.1419C-124.588 78.6862 -102.56 73.1408 -71.1372 65.8328C-39.0102 58.3441 5.40533 54.6671 53.926 55.4827C108.527 56.399 163.518 62.9414 212.955 74.4017C271.463 87.965 320.267 107.774 358.012 133.28C401.981 162.992 429.881 199.93 440.937 243.069C453.111 291.64 452.876 341.493 440.24 391.25C427.677 440.716 403.524 487.494 368.455 530.285C318.238 591.557 247.381 641.398 163.544 674.421C82.8812 706.193 -7.46857 722.224 -105.538 722.225ZM-341.332 87.7907C-358.709 87.7907 -377.801 89.8094 -398.851 95.587C-489.025 119.464 -554.32 150.387 -554.118 169.117C-554.449 185.032 -545.683 190.645 -531.161 199.943C-507.968 214.793 -469.15 239.646 -430.432 331.885C-416.699 362.145 -413.96 403.098 -411.061 446.455C-407.128 505.274 -402.669 571.94 -368.875 623.768C-330.147 683.164 -258.574 714.322 -150.068 719.021C-34.9586 724.542 70.285 708.87 162.766 672.444C246.266 639.554 316.824 589.931 366.811 528.939C401.683 486.391 425.695 439.89 438.181 390.726C450.73 341.315 450.965 291.812 438.878 243.591C427.957 200.976 400.349 164.452 356.822 135.04C319.294 109.681 270.729 89.9755 212.475 76.4712C163.182 65.044 108.343 58.5204 53.8906 57.6065C5.53833 56.8003 -38.6915 60.4514 -70.6557 67.9018C-102.06 75.2056 -124.078 80.7482 -141.77 85.2019C-189 97.0907 -197.506 99.2279 -243.959 98.8624C-255.396 98.7954 -267.552 96.6819 -281.628 94.2344C-298.957 91.2211 -318.687 87.7907 -341.332 87.7907Z" fill="#D9232A"/>
<path d="M-93.7019 678.342C-103.849 678.342 -114.086 678.151 -124.42 677.769C-220.754 674.96 -285.495 649.026 -322.332 598.485C-354.549 554.281 -361.133 499.052 -367.501 445.641C-372.178 406.399 -376.597 369.334 -391.397 341.842C-429.835 261.95 -465.141 238.896 -488.505 223.64C-503.921 213.574 -513.226 207.497 -513.161 190.834C-514.019 169.557 -455.445 135.357 -379.81 113.019C-335.669 99.2231 -300.899 103.572 -272.96 107.065C-262.272 108.402 -252.177 109.665 -242.839 109.768H-242.835L-238.107 109.838C-183.731 110.648 -179.292 110.712 -76.1296 87.9532C-47.1461 81.5347 -5.60422 78.2066 37.827 78.8026C87.7845 79.4971 138.024 85.1276 183.113 95.0861C236.687 106.919 281.452 124.342 316.16 146.872C356.649 173.154 382.573 205.995 393.211 244.481C404.859 288.103 405.371 332.981 394.734 377.874C384.154 422.535 363.116 464.825 332.204 503.571C288.445 558.416 226.343 603.294 152.611 633.349C79.2776 663.243 -3.45679 678.341 -93.7019 678.342ZM-317.766 105.527C-335.964 105.527 -356.336 107.755 -379.235 114.911C-452.81 136.641 -511.995 170.681 -511.183 190.798C-511.245 206.429 -502.278 212.284 -487.424 221.984C-465.307 236.425 -428.292 260.596 -389.635 340.945C-374.678 368.728 -370.238 405.974 -365.537 445.407C-359.2 498.565 -352.647 553.534 -320.733 597.32C-284.281 647.334 -220.045 673.002 -124.354 675.792C-22.3842 679.561 70.5474 664.667 151.865 631.518C225.284 601.589 287.11 556.919 330.657 502.337C361.386 463.821 382.297 421.793 392.811 377.418C403.37 332.847 402.863 288.294 391.303 244.999C380.8 207.002 355.155 174.543 315.084 148.531C280.574 126.13 236.029 108.798 182.686 97.0175C137.726 87.0872 87.6255 81.4725 37.7994 80.7804C-5.48615 80.1769 -46.8604 83.4971 -75.7023 89.8846C-179.091 112.693 -183.554 112.629 -238.136 111.815L-242.861 111.746C-252.311 111.641 -262.46 110.372 -273.205 109.028C-286.43 107.374 -301.197 105.527 -317.766 105.527Z" fill="#D9232A"/>
<path d="M-81.9312 634.595C-87.4818 634.595 -93.0591 634.531 -98.6758 634.402C-285.99 632.336 -304.835 532.296 -321.463 444.033C-328.064 408.987 -334.3 375.886 -350.408 350.957C-388.509 282.876 -422.096 260.592 -444.321 245.847C-460.231 235.291 -469.835 228.92 -470.081 212.57C-470.798 202.232 -459.888 187.762 -440.145 172.921C-419.181 157.162 -390.797 142.811 -360.22 132.512C-319.763 117.75 -289.191 119.865 -262.216 121.731C-255.06 122.226 -248.3 122.693 -241.733 122.807H-241.728C-231.842 123.026 -223.229 123.403 -215.63 123.736C-180.532 125.273 -159.349 126.2 -81.1216 110.082C-31.2342 99.7424 63.3947 97.115 153.27 115.779C201.916 125.881 242.638 140.918 274.307 160.473C311.316 183.326 335.264 212.067 345.484 245.9C356.62 284.582 357.89 324.495 349.264 364.54C340.675 404.411 322.752 442.229 295.994 476.943C258.676 525.355 205.315 565.256 141.678 592.332C75.7115 620.399 0.555359 634.594 -81.9312 634.595ZM-291.62 122.248C-311.262 122.248 -333.346 124.655 -359.614 134.24C-425.308 156.367 -469.587 193.237 -468.251 212.493C-468.018 227.928 -458.718 234.098 -443.309 244.321C-420.937 259.164 -387.128 281.595 -348.841 350.013C-332.567 375.194 -326.299 408.467 -319.663 443.693C-311.242 488.396 -302.534 534.62 -272.616 570.519C-238.581 611.358 -181.675 631.655 -98.6443 632.571C-9.8187 634.606 70.7967 620.5 140.961 590.647C204.309 563.693 257.417 523.989 294.543 475.826C321.134 441.329 338.942 403.758 347.474 364.155C356.036 324.408 354.776 284.795 343.728 246.418C330.611 202.999 286.853 145.389 152.898 117.572C63.2766 98.9614 -31.0429 101.573 -80.751 111.875C-159.202 128.039 -180.473 127.108 -215.71 125.565C-223.299 125.233 -231.9 124.856 -241.765 124.638C-248.379 124.523 -255.162 124.054 -262.343 123.557C-271.59 122.918 -281.267 122.248 -291.62 122.248Z" fill="#D9232A"/>
<path d="M-78.9534 591.074C-146.824 591.074 -194.898 575.793 -225.781 544.433C-253.873 515.909 -264.635 478.093 -275.042 441.524C-283.715 411.05 -291.906 382.266 -309.415 360.067C-346.705 303.875 -378.48 282.593 -399.506 268.511C-416.282 257.274 -426.408 250.492 -426.999 234.303C-429.137 212.489 -392.66 172.627 -340.636 152.008C-300.49 134.288 -271.666 135.037 -243.789 135.764L-240.622 135.845C-227.187 136.263 -215.935 137.353 -205.054 138.407C-175.885 141.232 -148.334 143.9 -86.1116 132.21C-40.784 123.619 44.1222 121.288 123.427 136.47C190.266 149.267 274.768 178.884 297.757 247.315C319.041 314.788 305.223 388.816 259.852 450.431C228.95 492.396 184.308 527.303 130.751 551.378C72.1977 577.7 4.57657 591.039 -70.2664 591.04C-71.154 591.04 -72.0384 591.038 -72.9276 591.035C-74.9537 591.061 -76.9619 591.074 -78.9534 591.074ZM-260.604 137.159C-283.397 137.159 -308.102 139.489 -339.986 153.562C-395.602 175.605 -427.162 215.376 -425.319 234.19C-424.756 249.571 -414.899 256.172 -398.568 267.111C-377.431 281.268 -345.488 302.663 -308.052 359.079C-290.377 381.484 -282.141 410.423 -273.422 441.062C-263.073 477.428 -252.37 515.033 -224.581 543.251C-193.13 575.187 -143.543 590.25 -72.9354 589.35C-72.0533 589.353 -71.1603 589.356 -70.2805 589.356C4.34286 589.356 71.7216 576.067 130.06 549.841C183.353 525.885 227.765 491.164 258.496 449.432C280.954 418.933 295.656 385.796 302.191 350.941C308.744 315.998 306.713 281.308 296.154 247.837C273.43 180.192 189.509 150.837 123.11 138.125C44.02 122.983 -40.6227 125.303 -85.7992 133.865C-148.258 145.601 -175.926 142.92 -205.216 140.083C-216.071 139.032 -227.295 137.945 -240.674 137.529L-243.833 137.448C-249.358 137.304 -254.922 137.159 -260.604 137.159Z" fill="#D9232A"/>
<path d="M-65.2671 548.104C-114.908 548.106 -151.815 537.735 -177.743 516.575C-203.554 495.51 -216.143 466.144 -228.316 437.745C-238.717 413.483 -249.471 388.393 -268.416 369.176C-304.093 325.017 -333.854 305.125 -353.547 291.962C-371.868 279.716 -382.927 272.325 -383.917 256.043C-386.521 235.414 -363.334 192.188 -321.061 171.519C-291.274 154.723 -266.878 147.953 -239.521 148.889L-239.515 148.889C-224.99 149.497 -212.42 151.496 -199.112 153.612C-170.986 158.083 -141.902 162.707 -91.1016 154.344C-50.0931 147.504 25.1929 145.47 93.5828 157.168C152.847 167.306 228.096 191.421 250.026 248.734C270.458 306.522 260.908 370.434 223.83 424.102C199.302 459.603 163.343 489.491 119.841 510.535C71.7212 533.812 15.5278 546.307 -47.1785 547.672C-53.3838 547.96 -59.4183 548.104 -65.2671 548.104ZM-244.434 150.342C-269.558 150.342 -292.564 157.216 -320.346 172.88C-362.056 193.274 -384.939 235.666 -382.386 255.899C-381.438 271.47 -371.227 278.294 -352.693 290.683C-332.922 303.898 -303.044 323.868 -267.27 368.153C-248.172 387.521 -237.359 412.745 -226.902 437.139C-214.802 465.367 -202.289 494.557 -176.77 515.383C-148.095 538.785 -105.727 548.838 -47.2305 546.135C15.272 544.773 71.2514 532.33 119.171 509.15C162.435 488.222 198.188 458.51 222.564 423.227C259.359 369.971 268.842 306.564 248.582 249.265C226.918 192.647 152.193 168.755 93.3231 158.685C25.1103 147.017 -49.9641 149.042 -90.8498 155.861C-141.898 164.267 -171.106 159.623 -199.353 155.131C-212.616 153.022 -225.144 151.03 -239.58 150.426C-241.208 150.37 -242.825 150.342 -244.434 150.342Z" fill="#D9232A"/>
<path d="M-52.2883 505.867C-132.264 505.869 -156.392 469.89 -181.782 432.034C-194.304 413.365 -207.252 394.059 -227.411 378.262C-259.945 346.416 -286.092 329.361 -305.183 316.908C-327.205 302.544 -339.335 294.63 -340.835 277.767C-342.571 266.492 -339.899 249.738 -333.853 234.088C-326.546 215.172 -315.057 199.881 -301.502 191.032C-279.855 173.903 -261.434 160.86 -238.414 161.92L-238.408 161.92C-223.889 162.718 -209.815 165.863 -194.914 169.192C-168.018 175.201 -137.533 182.01 -96.0886 176.465C-67.3924 172.545 -1.43228 168.428 63.7369 177.853C97.6423 182.758 126.24 190.636 148.737 201.269C175.312 213.831 193.331 230.272 202.291 250.135C222.029 298.302 216.831 352.206 188.042 398.047C169.82 427.06 142.482 451.89 108.983 469.854C71.9377 489.719 28.0627 501.307 -21.4235 504.297C-32.5569 505.363 -42.8161 505.867 -52.2883 505.867ZM-241.016 163.251C-262.394 163.251 -280.034 175.819 -300.69 192.16C-331.68 212.394 -342.389 258.531 -339.454 277.6C-338.01 293.834 -326.08 301.616 -304.423 315.743C-285.283 328.227 -259.07 345.325 -226.495 377.217C-206.219 393.1 -193.209 412.499 -180.626 431.259C-166.28 452.647 -152.731 472.85 -129.582 486.707C-103.497 502.322 -69.1636 507.469 -21.5313 502.909C27.7762 499.93 71.4585 488.396 108.325 468.627C141.612 450.778 168.77 426.116 186.864 397.306C215.411 351.851 220.568 298.409 201.013 250.685C192.203 231.154 174.411 214.944 148.142 202.528C125.77 191.953 97.3055 184.115 63.5378 179.231C-1.478 169.828 -67.2743 173.935 -95.9021 177.844C-137.592 183.424 -168.207 176.585 -195.217 170.55C-210.059 167.234 -224.08 164.102 -238.483 163.31C-239.333 163.271 -240.178 163.251 -241.016 163.251Z" fill="#D9232A"/>
<path d="M-40.6317 465.347C-88.9376 465.349 -111.259 446.17 -138.024 423.18C-151.996 411.18 -166.443 398.77 -186.406 387.341C-212.273 368.467 -233.387 355.679 -250.353 345.404C-279.462 327.774 -295.497 318.063 -297.751 299.5C-301.506 278.794 -300.755 229.848 -281.997 210.624C-280.89 209.121 -279.79 207.603 -278.69 206.087C-267.198 190.238 -255.307 173.853 -237.307 174.959L-237.302 174.96C-223.295 175.959 -207.696 180.449 -191.181 185.202C-164.459 192.893 -134.174 201.61 -101.073 198.595C-65.2489 195.213 115.443 181.871 154.55 251.537C173.903 290.182 173.249 334.263 152.771 372.504C140.552 395.32 122.218 414.499 98.2787 429.51C72.1902 445.867 40.5848 456.438 4.34085 460.926C-12.8986 463.971 -27.6996 465.347 -40.6317 465.347ZM-239.009 176.152C-255.447 176.152 -266.744 191.733 -277.682 206.818C-278.792 208.348 -279.903 209.88 -281.019 211.397L-281.075 211.464C-299.55 230.345 -300.244 278.775 -296.521 299.314C-294.334 317.312 -278.483 326.911 -249.708 344.339C-232.722 354.627 -211.582 367.43 -185.73 386.298C-165.722 397.748 -151.229 410.197 -137.213 422.236C-103.532 451.166 -76.9269 474.016 4.15594 459.695C40.2496 455.224 71.6834 444.715 97.6178 428.454C121.371 413.561 139.558 394.539 151.672 371.916C171.958 334.037 172.605 290.373 153.45 252.12C137.868 224.364 97.5926 206.747 33.754 199.785C-22.4378 193.657 -79.1734 197.778 -100.959 199.835C-134.29 202.868 -164.698 194.119 -191.526 186.399C-207.976 181.664 -223.514 177.192 -237.39 176.202C-237.934 176.169 -238.475 176.152 -239.009 176.152Z" fill="#D9232A"/>
<path d="M-33.4231 429.692C-61.984 429.692 -84.9046 420.478 -116.59 407.74C-125.595 404.12 -134.906 400.377 -145.405 396.401C-152.936 392.715 -159.992 389.29 -166.637 386.066C-224.451 358.007 -250.838 345.201 -254.668 321.229C-258.369 303.454 -269.639 249.316 -262.449 230.291C-258.618 209.896 -252.146 186.687 -236.2 187.998L-236.194 187.999C-222.902 189.227 -205.442 195.366 -186.957 201.867C-160.886 211.034 -131.342 221.419 -106.052 220.725C-101.24 220.574 -95.4818 220.306 -88.8146 219.996C-61.4993 218.726 -20.2218 216.806 17.8477 220.265C63.3964 224.403 93.3218 235.392 106.793 252.926C126.191 281.724 130.703 317.211 118.886 347.881C105.782 381.889 74.2598 406.63 30.126 417.547C4.41507 426.104 -15.6021 429.692 -33.4231 429.692ZM-237.467 189.045C-251.726 189.045 -257.732 211.115 -261.378 230.542L-261.405 230.636C-268.516 249.319 -257.281 303.294 -253.588 321.03C-249.843 344.462 -223.618 357.19 -166.157 385.077C-159.512 388.302 -152.453 391.728 -144.97 395.394C-134.507 399.353 -125.19 403.099 -116.18 406.721C-64.9654 427.309 -36.7547 438.649 29.8207 416.493C73.6375 405.653 104.889 381.15 117.861 347.486C129.55 317.15 125.079 282.041 105.901 253.568C92.6442 236.314 62.9793 225.468 17.7486 221.359C-20.2469 217.908 -61.4788 219.824 -88.7635 221.093C-95.4354 221.403 -101.197 221.671 -106.02 221.823C-131.523 222.523 -161.162 212.102 -187.321 202.903C-205.738 196.427 -223.135 190.31 -236.291 189.093C-236.688 189.061 -237.081 189.045 -237.467 189.045Z" fill="#D9232A"/>
<path d="M-57.2085 414.568C-59.2898 414.568 -61.3702 414.531 -63.4531 414.458C-97.3498 413.262 -123.737 407.336 -141.879 396.845C-156.123 388.608 -165.08 377.785 -168.5 364.676C-174.1 343.212 -206.699 286.31 -223.002 269.543C-229.078 263.295 -234.324 252.952 -237.394 241.166C-240.173 230.502 -240.529 220.839 -238.302 216.546C-237.312 214.637 -235.813 213.784 -233.981 214.075C-221.148 216.117 -193.326 229.591 -166.419 242.621C-145.557 252.725 -125.85 262.268 -115.969 265.002C-104.762 268.103 -81.3701 264.543 -56.6057 260.775C-31.0955 256.892 -4.71425 252.876 11.127 255.701C27.6992 258.654 46.5873 268.511 60.4196 281.424C76.5858 296.517 84.1971 313.939 81.8523 330.479C79.1077 349.836 62.131 371.226 36.4398 387.698C9.26294 405.124 -23.7721 414.568 -57.2085 414.568ZM-234.68 214.824C-235.904 214.824 -236.858 215.513 -237.587 216.917C-241.902 225.235 -235.79 255.237 -222.425 268.981C-206.062 285.809 -173.342 342.925 -167.721 364.472C-164.357 377.365 -155.527 388.022 -141.476 396.147C-123.449 406.571 -97.1885 412.461 -63.4248 413.652C-28.0472 414.903 7.27214 405.443 36.0046 387.021C61.1207 370.917 78.383 349.208 81.0544 330.366C83.3615 314.093 75.8383 296.921 59.8696 282.013C46.145 269.2 27.4136 259.422 10.9854 256.494C-4.72519 253.694 -31.0381 257.698 -56.4846 261.571C-81.3362 265.353 -104.809 268.927 -116.184 265.779C-126.135 263.025 -145.874 253.467 -166.77 243.346C-193.624 230.342 -221.392 216.894 -234.107 214.871C-234.304 214.84 -234.495 214.824 -234.68 214.824Z" fill="#D9232A"/>
</g>
</svg>
