<svg width="484" height="1269" viewBox="0 0 484 1269" fill="none" xmlns="http://www.w3.org/2000/svg">
<path d="M223.702 907.403C210.054 899.523 197.099 891.546 184.913 883.504C117.991 839.347 76.0205 794.973 60.1666 751.611C43.9462 707.249 55.7534 664.955 95.2607 625.904C215.206 507.346 303.5 441.929 361.926 398.642C388.223 379.159 408.994 363.77 423.164 350.423C446.738 328.217 502.004 312.569 567.394 309.586C637.763 306.377 704.283 318.238 749.897 342.129C812.812 375.082 891.774 392.503 946.936 401.316C1011.19 411.581 1081.32 416.081 1134.54 413.354C1168.89 411.594 1194.81 425.821 1209.49 454.501C1234.91 504.162 1223.43 590.619 1179.53 680.135C1158.72 722.564 1137.21 766.437 1114.33 807.558C1089.03 853.02 1064.73 890.111 1040.03 920.95C1010.54 957.776 979.73 986.899 945.846 1009.98C908.012 1035.76 867.204 1053.5 821.091 1064.23C742.329 1082.55 571.41 1052.45 405.447 991.038C337.557 965.916 275.611 937.373 223.702 907.403ZM1179.62 425.062C1167 417.775 1151.78 414.474 1134.34 415.367C1081.02 418.1 1010.76 413.593 946.403 403.311C891.128 394.481 811.996 377.019 748.903 343.973C703.519 320.202 637.286 308.403 567.188 311.6C502.234 314.563 447.459 329.99 424.241 351.861C409.971 365.303 389.151 380.728 362.794 400.256C304.42 443.505 216.205 508.862 96.3792 627.303C57.5942 665.639 45.9928 707.132 61.8963 750.63C77.6272 793.654 119.394 837.764 186.035 881.736C244.476 920.297 320.633 957.429 406.269 989.118C571.972 1050.43 742.506 1080.51 820.978 1062.26C866.851 1051.59 907.435 1033.94 945.051 1008.32C978.742 985.365 1009.38 956.399 1038.72 919.761C1093.77 851.028 1136.56 763.781 1177.93 679.406C1221.52 590.52 1232.98 504.792 1207.84 455.679C1200.9 442.12 1191.39 431.857 1179.62 425.062Z" fill="#D9232A"/>
<path d="M249.788 881.743C238.994 875.512 228.689 869.213 218.913 862.867C157.255 822.842 118.509 782.562 103.752 743.146C88.8327 703.296 99.0812 665.257 134.214 630.087C239.726 523.112 322.23 459.335 376.825 417.131C402.454 397.319 422.697 381.671 436.961 368.107C460.026 346.196 512.005 330.408 572.615 326.904C637.513 323.151 699.698 333.675 743.224 355.776C801.449 385.841 873.917 402.325 924.459 410.86C983.833 420.887 1046.25 425.729 1095.71 424.144C1126.92 423.151 1150.44 436.674 1163.73 463.253C1186.81 509.392 1176.22 588.93 1136.11 670.828L1136.11 670.827C1098.32 748.125 1059.25 828.055 1007.62 892.386C980.42 926.271 952.01 953.113 920.763 974.447C885.906 998.245 848.34 1014.7 805.922 1024.75C733.114 1042.27 575.288 1015.72 422.12 960.203C357.492 936.777 298.656 909.956 249.788 881.743ZM1135.55 435.129C1124.31 428.638 1110.85 425.547 1095.5 426.036C1045.94 427.624 983.412 422.775 923.944 412.733C873.303 404.181 800.682 387.659 742.301 357.514C698.997 335.526 637.084 325.057 572.441 328.794C512.237 332.275 460.715 347.854 437.981 369.45C423.635 383.092 403.353 398.771 377.675 418.62C323.126 460.788 240.692 524.512 135.28 631.385C100.817 665.885 90.7563 703.171 105.373 742.211C120.013 781.313 158.565 821.347 219.959 861.2C273.907 896.224 344.079 929.832 422.883 958.396C575.805 1013.83 733.269 1040.35 805.806 1022.91C848.003 1012.91 885.36 996.543 920.015 972.883C951.082 951.673 979.335 924.976 1006.39 891.267C1057.86 827.139 1096.88 747.328 1134.6 670.145C1174.43 588.831 1185 509.973 1162.18 464.346C1155.69 451.374 1146.71 441.574 1135.55 435.129Z" fill="#D9232A"/>
<path d="M275.926 856.189C267.931 851.573 260.249 846.922 252.883 842.234C196.487 806.341 160.967 770.155 147.308 734.684C133.699 699.342 142.399 665.556 173.167 634.264C264.926 538.191 338.816 478.444 392.768 434.819C417.252 415.021 436.591 399.385 450.76 385.784C473.666 363.834 521.171 348.295 577.835 344.215C637.276 339.935 695.125 349.121 736.55 369.417C833.58 418.678 981.278 435.582 1056.88 434.926C1084.95 434.698 1106.08 447.522 1117.99 472.012C1138.71 514.634 1129.01 587.247 1092.68 661.515C1060.13 728.358 1023.24 804.123 975.202 863.816C950.302 894.759 924.29 919.321 895.68 938.904C863.799 960.726 829.477 975.894 790.753 985.273C757.206 993.655 704.994 992.479 639.768 981.874C577.11 971.685 505.728 953.039 438.769 929.371C377.418 907.684 321.702 882.617 275.926 856.189ZM1091.46 445.144C1081.61 439.455 1069.92 436.589 1056.65 436.698C980.908 437.354 832.932 420.413 735.699 371.049C694.488 350.857 636.894 341.72 577.693 345.982C521.411 350.034 474.318 365.381 451.72 387.035C437.489 400.696 418.12 416.358 393.598 436.185C339.689 479.775 265.859 539.474 174.181 635.46C144.029 666.126 135.5 699.208 148.818 733.796C162.365 768.976 197.704 804.932 253.851 840.668C303.312 872.146 367.499 902.235 439.473 927.676C506.36 951.32 577.66 969.945 640.241 980.121C705.275 990.695 757.28 991.88 790.634 983.548C829.156 974.217 863.285 959.136 894.978 937.443C923.421 917.974 949.288 893.547 974.057 862.768C1021.94 803.266 1058.78 727.62 1091.28 660.879L1091.28 660.877C1127.34 587.149 1137.02 515.166 1116.53 473.019C1110.49 460.604 1102.03 451.248 1091.46 445.144Z" fill="#D9232A"/>
<path d="M302.128 830.785C296.867 827.748 291.763 824.694 286.814 821.619C235.679 789.858 203.384 757.767 190.824 726.241C178.538 695.4 185.703 665.862 212.119 638.447C290.951 552.357 359.97 493.824 410.366 451.086C432.081 432.67 450.835 416.765 464.56 403.465C486.972 381.8 531.269 366.123 583.056 361.531C637.058 356.742 690.572 364.59 729.877 383.063C768.508 402.278 820.245 418.487 879.504 429.943C927.069 439.139 977.57 444.888 1018.06 445.716C1043 446.246 1061.75 458.376 1072.26 480.796C1090.6 519.905 1081.79 585.586 1049.26 652.207C1015.31 722.245 983.866 784.363 942.788 835.251C920.185 863.252 896.571 885.533 870.597 903.366C841.694 923.211 810.615 937.091 775.585 945.799C744.83 953.819 697.202 953.296 637.857 944.281C581.084 935.656 516.282 919.417 455.389 898.555C397.324 878.661 344.751 855.394 302.128 830.785ZM1047.36 455.102C1038.91 450.222 1028.99 447.603 1017.8 447.364C977.241 446.535 926.66 440.777 879.026 431.569C819.659 420.092 767.814 403.846 729.097 384.589C689.998 366.213 636.724 358.405 582.947 363.175C531.51 367.736 487.59 383.231 465.46 404.624C451.69 417.967 432.913 433.891 411.172 452.329C360.816 495.035 291.851 553.522 213.085 639.538C187.229 666.373 180.216 695.254 192.225 725.398C204.677 756.656 236.801 788.537 287.704 820.155C332.683 848.087 390.886 874.654 456.033 896.974C516.859 917.813 581.583 934.033 638.285 942.646C697.45 951.634 744.885 952.169 775.463 944.194C810.309 935.532 841.211 921.733 869.942 902.007C895.762 884.279 919.242 862.123 941.724 834.272C982.667 783.552 1014.05 721.543 1047.95 651.617L1047.95 651.615C1080.24 585.488 1089.03 520.386 1070.89 481.716C1065.31 469.817 1057.36 460.877 1047.36 455.102Z" fill="#D9232A"/>
<path d="M328.41 805.582C325.792 804.071 323.22 802.554 320.692 801.032C274.817 773.402 245.746 745.408 234.286 717.827C223.337 691.476 228.984 666.178 251.07 642.635C317.919 565.302 383.031 507.245 430.573 464.853C449.426 448.043 465.707 433.526 478.359 421.15C500.621 399.436 540.684 384.019 588.276 378.851C636.865 373.575 686.044 380.085 723.203 396.713C795.604 431.827 906.672 452.322 979.235 456.509C1001.07 457.796 1017.43 469.244 1026.55 489.614C1042.49 525.216 1034.55 583.953 1005.83 642.903L1005.84 642.899C977.02 702.692 948.037 760.212 910.374 806.69C890.068 831.748 868.853 851.748 845.515 867.832C819.589 885.699 791.753 898.291 760.417 906.327C732.447 913.992 689.395 914.123 635.927 906.703C585.028 899.64 526.8 885.811 471.97 867.762C417.207 849.736 367.799 828.323 328.41 805.582ZM1003.24 464.977C996.206 460.917 988.065 458.571 978.95 458.034C906.275 453.841 795.022 433.307 722.496 398.132C685.535 381.594 636.581 375.117 588.201 380.37C540.932 385.503 501.202 400.756 479.198 422.218C466.518 434.621 450.222 449.151 431.353 465.976C383.848 508.335 318.787 566.347 251.991 643.617C230.406 666.626 224.892 691.316 235.575 717.029C246.933 744.364 275.843 772.168 321.503 799.668C362.003 824.043 414.23 847.096 472.553 866.294C527.32 884.321 585.476 898.134 636.308 905.188C689.608 912.584 732.481 912.465 760.29 904.846C791.463 896.852 819.137 884.334 844.905 866.575C868.103 850.589 889.196 830.702 909.391 805.78C946.926 759.46 975.854 702.048 1004.62 642.359L1004.62 642.355C1033.12 583.854 1041.04 525.645 1025.28 490.444C1020.15 479.005 1012.7 470.439 1003.24 464.977Z" fill="#D9232A"/>
<path d="M354.792 780.642L354.503 780.475C313.884 756.98 288.034 733.083 277.671 709.45C268.077 687.57 272.232 666.497 290.021 646.818C345.792 576.665 408.825 517.527 454.85 474.345C469.263 460.824 481.71 449.145 492.16 438.828C513.96 417.37 550.896 401.82 593.496 396.165C636.709 390.429 681.554 395.601 716.53 410.357C748.035 425.156 787.737 438.165 834.552 449.033C869.769 457.208 908.354 463.865 940.415 467.296C959.16 469.337 973.149 480.117 980.873 498.473C994.38 530.573 987.305 582.348 962.41 633.592C938.459 683.659 912.207 736.064 877.96 778.122C859.953 800.237 841.135 817.956 820.433 832.291C797.485 848.181 772.893 859.484 745.25 866.849C695.317 881.338 592.132 869.341 488.501 836.991C437.064 820.935 390.837 801.452 354.792 780.642ZM959.087 474.716C953.499 471.49 947.142 469.462 940.098 468.695C907.996 465.259 869.364 458.594 834.106 450.41C787.219 439.525 747.448 426.491 715.896 411.67C681.109 396.995 636.474 391.848 593.456 397.559C551.144 403.176 514.507 418.574 492.937 439.805C482.473 450.136 470.019 461.82 455.598 475.35C409.611 518.496 346.63 577.586 290.9 647.683C273.551 666.879 269.508 687.392 278.848 708.693C289.113 732.106 314.813 755.831 355.233 779.211L355.522 779.377C391.503 800.152 437.654 819.6 489.023 835.635C592.462 867.925 695.379 879.923 745.118 865.49C772.617 858.164 797.064 846.928 819.869 831.137C840.444 816.89 859.152 799.273 877.058 777.282C911.184 735.372 937.382 683.072 961.291 633.095L961.293 633.09C985.993 582.247 993.042 530.947 979.688 499.213C975.032 488.145 968.048 479.89 959.087 474.716Z" fill="#D9232A"/>
<path d="M381.145 756.013C349.818 737.928 329.583 719.494 320.942 701.156C312.728 683.724 315.419 666.863 328.942 651.038C374.117 586.116 438.446 522.92 485.418 476.777C492.789 469.536 499.751 462.696 505.96 456.509C527.644 434.967 560.584 419.686 598.715 413.483C637.162 407.228 676.633 410.964 709.857 424.004C732.213 434.077 795.605 459.49 901.598 478.09C917.281 480.885 928.912 491.025 935.232 507.421C946.254 536.016 940.029 580.794 918.989 624.279C899.616 665.169 876.366 711.944 845.546 749.558C812.975 789.308 775.207 814.763 730.084 827.374C707.649 834.338 673.719 835.8 631.981 831.597C592.225 827.594 548.304 818.837 504.967 806.274C460.215 793.3 419.844 777.296 388.221 759.99C385.804 758.667 383.444 757.34 381.145 756.013ZM914.892 484.261C910.787 481.891 906.224 480.245 901.242 479.357C884.286 476.382 850.097 469.888 811.645 459.829C771.281 449.271 736.845 437.624 709.295 425.211C676.255 412.244 636.975 408.525 598.711 414.751C560.839 420.913 528.153 436.058 506.675 457.395C500.464 463.586 493.5 470.427 486.127 477.67C439.19 523.779 374.907 586.928 329.815 651.742L329.767 651.804C316.64 667.148 314.028 683.512 322.004 700.439C331.057 719.65 354.177 739.838 388.87 758.825C420.433 776.099 460.737 792.076 505.425 805.03C548.706 817.577 592.566 826.322 632.263 830.32C673.86 834.508 707.638 833.063 729.945 826.139C774.811 813.599 812.351 788.298 844.725 748.788C875.432 711.312 898.629 664.639 917.962 623.834L917.965 623.828C938.838 580.693 945.035 536.335 934.138 508.064C929.961 497.229 923.42 489.184 914.892 484.261Z" fill="#D9232A"/>
<path d="M408.228 732.304C385.984 719.462 370.832 706.027 364.037 693.022C357.216 679.967 358.507 667.259 367.873 655.25C401.622 593.017 484.405 509.748 519.761 474.186C563.998 429.819 639.423 414.795 703.182 437.649C752.29 458.551 814.527 475.633 851.713 485.838C855.662 486.922 859.365 487.939 862.785 488.885C875.455 492.438 884.742 501.997 889.645 516.521C898.11 541.596 892.713 579.321 875.563 614.97C858.527 651.41 839.171 689.477 813.131 720.991C785.34 754.622 753.215 776.506 714.918 787.895C676.224 800.915 600.24 796.109 521.357 775.644C483.428 765.803 449.011 753.351 421.826 739.633C417.039 737.218 412.501 734.77 408.228 732.304ZM870.631 493.471C868.076 491.995 865.321 490.838 862.379 490.013C858.962 489.067 855.259 488.05 851.311 486.967C814.105 476.755 751.833 459.664 702.694 438.749C639.308 416.029 564.341 430.925 520.412 474.984C485.09 510.512 402.37 593.716 368.738 655.774L368.71 655.826L368.673 655.874C359.627 667.445 358.385 679.713 364.981 692.337C372.993 707.672 392.845 723.659 422.387 738.566C449.518 752.257 483.876 764.687 521.747 774.512C600.466 794.935 676.232 799.752 714.771 786.784C799.821 761.491 840.379 687.841 874.633 614.571L874.636 614.564C891.643 579.215 897.01 541.854 888.641 517.062C884.981 506.22 878.832 498.206 870.631 493.471Z" fill="#D9232A"/>
<path d="M435.302 709.523C421.704 701.673 411.919 693.446 406.864 685.263C401.421 676.45 401.396 667.782 406.787 659.499C412.04 640.295 429.274 612.321 458.013 576.35C478.949 550.146 506.485 519.352 533.562 491.865C577.06 447.816 637.974 432.65 696.509 451.296C716.317 459.06 737.187 466.702 757.371 474.093C783.474 483.651 808.129 492.679 823.98 499.69C837.29 505.645 845.276 520.322 846.472 541.005C847.606 560.609 842.383 584.172 832.14 605.658C809.406 655.245 792.716 678.076 780.716 692.425C757.72 719.921 731.237 738.237 699.753 748.418C666.492 760.769 604.395 759.539 537.716 745.2C495.121 736.039 459.286 723.369 435.302 709.523ZM826.286 502.078C825.389 501.56 824.465 501.088 823.511 500.66C807.685 493.66 783.041 484.636 756.951 475.083C736.763 467.691 715.888 460.047 696.096 452.288C637.913 433.756 577.363 448.813 534.149 492.574C507.102 520.031 479.597 550.79 458.688 576.961C430.011 612.854 412.846 640.707 407.67 659.746L407.643 659.843L407.588 659.928C402.413 667.821 402.443 676.121 407.678 684.597C421.538 707.038 471.487 729.868 538.033 744.18C604.563 758.487 666.47 759.733 699.596 747.432C730.898 737.31 757.211 719.112 780.059 691.791C802.807 664.591 819.394 631.286 831.303 605.309L831.307 605.301C841.465 583.996 846.646 560.642 845.523 541.226C844.433 522.387 837.638 508.632 826.286 502.078Z" fill="#D9232A"/>
<path d="M462.449 688.587C456.826 685.341 452.43 681.99 449.472 678.607C445.145 673.66 443.874 668.698 445.692 663.857C440.917 648.611 459.944 617.199 476.783 593.489C495.768 566.756 522.154 535.375 547.364 509.545C569.08 487.336 590.996 472.909 614.364 465.438C638.229 457.81 662.916 457.648 689.837 464.945C729.175 478.483 766.594 496.367 785.183 510.515C794.204 517.46 799.354 530.508 799.685 547.258C799.996 562.927 795.998 580.82 788.717 596.348C770.293 637.816 741.807 688.087 684.592 708.941C656.98 720.548 608.377 722.89 554.599 715.196C515.301 709.574 481.698 699.7 462.449 688.587ZM767.774 500.312C747.592 488.66 719.089 476.014 689.5 465.83C662.742 458.577 638.196 458.734 614.482 466.315C591.266 473.737 569.482 488.081 547.886 510.166C500.765 558.446 438.17 637.966 446.538 663.596L446.59 663.756L446.523 663.928C444.751 668.461 445.962 673.169 450.12 677.924C463.104 692.772 504.205 707.046 554.831 714.287C608.477 721.962 656.921 719.643 684.42 708.083C741.301 687.352 769.639 637.321 787.974 596.051L787.979 596.041C795.193 580.657 799.154 562.935 798.846 547.417C798.52 530.925 793.472 518.096 784.635 511.292C780.071 507.819 774.366 504.118 767.774 500.312Z" fill="#D9232A"/>
<path d="M489.723 672.639C487.298 671.239 485.621 669.779 484.799 668.282C480.349 666.644 477.817 663.198 477.272 658.045C475.677 642.967 491.103 616.564 504.324 597.069C520.057 573.871 541.306 547.761 561.167 527.225C583.647 504.003 601.661 490.291 619.578 482.764C638.691 474.735 658.896 473.41 683.164 478.596C710.09 485.883 734.898 502.674 746.385 521.379C756.628 538.235 753.874 567.997 745.295 587.037C728.572 626.96 703.049 654.693 669.437 669.461C656.391 675.911 639.188 680.562 618.322 683.279C600.257 685.63 579.947 686.416 559.587 685.552C527.713 684.199 500.854 679.065 489.723 672.639ZM485.333 667.602L485.388 667.708C486.151 669.17 487.775 670.597 490.138 671.962C514.637 686.11 618.728 693.709 669.242 668.737C702.655 654.057 728.018 626.49 744.644 586.796L744.649 586.784C753.137 567.952 755.874 538.528 745.761 521.886C734.352 503.307 709.68 486.618 682.907 479.373C658.792 474.22 638.716 475.53 619.744 483.501C601.938 490.981 584.013 504.631 561.622 527.76C541.798 548.26 520.588 574.321 504.885 597.474C491.753 616.837 476.428 643.027 477.995 657.837C478.514 662.752 480.948 666.026 485.224 667.563L485.333 667.602Z" fill="#D9232A"/>
</svg>
