<svg width="40" height="28" viewBox="0 0 40 28" fill="none" xmlns="http://www.w3.org/2000/svg">
<path d="M39.0964 10.4014C39.1841 7.90189 38.6293 5.42109 37.4835 3.18935C36.7061 2.27361 35.6273 1.65563 34.4349 1.44309C29.5032 1.0022 24.5511 0.821499 19.5997 0.90175C14.6664 0.817857 9.73211 0.99273 4.81768 1.42563C3.84607 1.59976 2.94692 2.04876 2.22994 2.71786C0.634756 4.16725 0.457513 6.64694 0.280271 8.74244C0.0231129 12.5101 0.0231129 16.2905 0.280271 20.0582C0.331547 21.2376 0.509789 22.4084 0.811999 23.5507C1.02571 24.4327 1.45809 25.2487 2.07042 25.9256C2.79227 26.6301 3.71237 27.1047 4.71134 27.2877C8.53254 27.7524 12.3828 27.945 16.2321 27.864C22.4356 27.9513 27.877 27.864 34.3109 27.375C35.3344 27.2033 36.2804 26.7281 37.0227 26.0129C37.5189 25.5238 37.8895 24.9252 38.1039 24.2667C38.7377 22.3504 39.0491 20.3448 39.0255 18.3294C39.0964 17.3515 39.0964 11.4491 39.0964 10.4014ZM15.594 19.3771V8.56782L26.0868 13.9987C23.1446 15.6052 19.263 17.4213 15.594 19.3771Z" fill="#A0A1A2"/>
</svg>
