<svg width="26" height="29" viewBox="0 0 26 29" fill="none" xmlns="http://www.w3.org/2000/svg">
<path d="M5.10968 3.81874C5.13913 3.35009 5.13142 2.90901 5.20028 2.48023C5.42577 1.07627 6.67195 0.00727432 8.08794 0.00531523C12.8101 -0.00121506 17.5323 -0.00252112 22.2545 0.00591802C23.8442 0.00875619 25.1924 1.3569 25.1944 2.94929C25.2022 9.01993 25.2013 15.0906 25.1954 21.1612C25.1938 22.7122 24.0461 23.9162 22.3961 24.1186C22.2249 24.1396 22.1498 24.1944 22.0863 24.3511C21.624 25.4912 20.7563 26.1071 19.5518 26.2658C17.0194 26.5995 14.4866 26.9297 11.9537 27.2596C9.86521 27.5315 7.77657 27.8021 5.68771 28.0709C4.13136 28.2712 2.59017 27.0687 2.38292 25.4876C2.00076 22.572 1.62606 19.6554 1.24383 16.7398C0.898206 14.1034 0.546174 11.4678 0.198235 8.8317C0.134087 8.34567 0.0707309 7.85944 0.0161402 7.37228C-0.155004 5.84489 1.05664 4.34432 2.61802 4.14318C3.44514 4.03664 4.27203 3.92788 5.10968 3.81874ZM7.14409 12.0361C7.14409 15.0234 7.14354 18.0106 7.14449 20.9979C7.14472 21.7102 7.55655 22.1262 8.2707 22.1265C12.8659 22.1282 17.4611 22.1281 22.0563 22.1266C22.7902 22.1263 23.1927 21.7162 23.1928 20.9766C23.1933 15.0334 23.1933 9.0902 23.1928 3.14704C23.1927 2.408 22.7913 2.00803 22.0507 2.00794C17.4659 2.0074 12.8811 2.00744 8.2964 2.00788C7.53857 2.00795 7.1444 2.40527 7.14428 3.16836C7.14381 6.12428 7.14408 9.08019 7.14409 12.0361ZM19.6243 24.2167L19.6138 24.1349H19.2744C15.6182 24.1349 11.962 24.1367 8.30586 24.1342C6.43283 24.1329 5.13934 22.8351 5.13916 20.964C5.13871 16.0536 5.13901 11.1433 5.13901 6.233V5.83965C4.34388 5.94476 3.57944 6.03344 2.81942 6.15066C2.31292 6.22877 1.95832 6.75081 2.02856 7.26158C2.05981 7.48885 2.09535 7.71554 2.12472 7.94304C2.36233 9.78369 2.59603 11.6249 2.83667 13.4651C3.09757 15.4604 3.36574 17.4547 3.62872 19.4497C3.87943 21.3517 4.12311 23.2546 4.37921 25.1558C4.46749 25.811 4.97759 26.1579 5.63297 26.06C6.34433 25.9539 7.05834 25.8651 7.77174 25.773C9.61227 25.5354 11.4534 25.3019 13.2938 25.0633C15.0102 24.8407 16.7262 24.6145 18.4421 24.3876C18.8368 24.3354 19.2302 24.2739 19.6243 24.2167Z" fill="white"/>
<path d="M15.166 5.01847C16.8361 5.01847 18.5063 5.0156 20.1764 5.02017C20.7003 5.0216 21.1285 5.41015 21.1823 5.90957C21.2357 6.4045 20.9202 6.86164 20.4261 6.99034C20.3172 7.01871 20.1995 7.02228 20.0858 7.02234C16.8082 7.02393 13.5305 7.02407 10.2529 7.02324C9.5994 7.02308 9.14398 6.60027 9.15096 6.00615C9.15778 5.4263 9.60827 5.01921 10.2495 5.01875C11.8883 5.01757 13.5272 5.01833 15.166 5.01847Z" fill="white"/>
<path d="M15.1714 9.03088C16.8416 9.03088 18.5117 9.02775 20.1818 9.03272C20.704 9.03428 21.1317 9.42754 21.1826 9.92745C21.233 10.4228 20.915 10.8788 20.421 11.0047C20.3119 11.0325 20.1941 11.0348 20.0803 11.0348C16.8027 11.0363 13.525 11.0365 10.2474 11.0356C9.60945 11.0354 9.15637 10.6232 9.15093 10.0444C9.14533 9.44855 9.59751 9.03152 10.2549 9.03108C11.8938 9.02997 13.5326 9.03073 15.1714 9.03088Z" fill="white"/>
<path d="M15.1589 15.0484C13.4992 15.0484 11.8395 15.0506 10.1798 15.0471C9.64954 15.046 9.21932 14.6728 9.15521 14.1764C9.09022 13.6732 9.41598 13.1971 9.91985 13.071C10.0193 13.0461 10.1263 13.0443 10.2299 13.0443C13.518 13.043 16.8061 13.0427 20.0941 13.0437C20.7301 13.0438 21.1826 13.4594 21.1856 14.0394C21.1887 14.6216 20.7369 15.0472 20.1067 15.0479C18.4574 15.0497 16.8082 15.0485 15.1589 15.0484Z" fill="white"/>
<path d="M15.1721 19.0608C13.5019 19.0608 11.8318 19.0637 10.1616 19.0591C9.63746 19.0576 9.20761 18.6683 9.15432 18.1706C9.10106 17.6733 9.41374 17.2182 9.90805 17.0888C10.0169 17.0603 10.1346 17.057 10.2483 17.0569C13.5259 17.0553 16.8036 17.0552 20.0812 17.056C20.7361 17.0562 21.1919 17.4768 21.1858 18.0702C21.1798 18.6494 20.7275 19.06 20.0885 19.0605C18.4497 19.0618 16.8109 19.0609 15.1721 19.0608Z" fill="white"/>
</svg>
