<svg width="33" height="33" viewBox="0 0 33 33" fill="none" xmlns="http://www.w3.org/2000/svg">
<path d="M29.1726 13.5791C28.8082 7.02154 23.3276 1.64105 16.5357 1.57908C9.58437 1.51565 4.01238 6.9653 3.62025 13.5768C3.7158 13.6047 3.81599 13.638 3.9182 13.6631C4.87714 13.8986 5.55663 14.711 5.56488 15.7144C5.58204 17.8043 5.58906 19.8946 5.5646 21.9843C5.54784 23.4172 4.30596 24.3597 2.84907 24.0964C1.18326 23.7953 0.0234483 22.4267 0.00997051 20.7271C0.000130416 19.4862 -0.00726274 18.245 0.0121165 17.0043C0.0330005 15.6673 0.63254 14.6526 1.80313 13.9946C1.96637 13.9029 2.02951 13.8099 2.03944 13.6214C2.37074 7.33661 6.82754 1.94011 12.9293 0.426152C20.5083 -1.45434 28.2243 3.05948 30.2623 10.6008C30.5295 11.5897 30.598 12.6317 30.7719 13.6468C30.7918 13.7626 30.8723 13.9091 30.9688 13.9643C32.1828 14.6593 32.7834 15.7055 32.7899 17.0963C32.7954 18.2828 32.7989 19.4694 32.789 20.6559C32.7776 22.0194 32.1884 23.0575 30.9919 23.7283C30.8226 23.8232 30.777 23.9307 30.7737 24.113C30.7589 24.9277 30.8012 25.7523 30.6892 26.5546C30.4157 28.5145 28.6162 30.2096 26.6514 30.3808C25.7542 30.4589 24.8475 30.4351 23.9451 30.4415C23.7445 30.443 23.6493 30.5014 23.5544 30.6851C23.1073 31.5507 22.3905 32.0121 21.4065 32.0205C20.5792 32.0276 19.7517 32.03 18.9245 32.0179C17.6762 31.9996 16.6843 30.9948 16.636 29.7164C16.5894 28.4802 17.5301 27.383 18.7713 27.3141C19.7257 27.2611 20.6868 27.2691 21.6422 27.3107C22.5306 27.3493 23.1705 27.8363 23.5563 28.6275C23.6556 28.8311 23.7601 28.8888 23.9699 28.882C24.8175 28.8545 25.6713 28.898 26.512 28.8114C27.9861 28.6594 29.1736 27.3065 29.2026 25.8301C29.2134 25.2758 29.2043 24.7212 29.2043 24.1803C29.1786 24.1535 29.167 24.13 29.1506 24.1259C27.7836 23.7861 27.226 23.0749 27.2257 21.6668C27.2254 19.8489 27.2256 18.0311 27.2257 16.2133C27.2257 14.6427 27.6566 14.0552 29.1726 13.5791ZM4.00341 18.8579C4.00341 17.8676 4.00341 16.8774 4.00339 15.8871C4.00339 15.8653 4.00354 15.8435 4.00276 15.8218C3.98686 15.3836 3.76165 15.1635 3.32994 15.1639C2.4049 15.165 1.59845 15.9528 1.58275 16.9229C1.5618 18.2175 1.56183 19.5129 1.58325 20.8076C1.59862 21.7369 2.36096 22.5143 3.24003 22.5543C3.7712 22.5785 4.0003 22.3655 4.00235 21.8287C4.00614 20.8385 4.00344 19.8482 4.00341 18.8579ZM28.795 18.8624C28.795 19.8636 28.7911 20.8648 28.7967 21.8659C28.7995 22.3589 29.0352 22.5727 29.5298 22.5555C30.4272 22.5245 31.1989 21.7487 31.2152 20.8029C31.2374 19.5083 31.2373 18.2128 31.2151 16.9182C31.1991 15.9891 30.4323 15.2043 29.5611 15.1659C29.0306 15.1426 28.798 15.3578 28.7959 15.8916C28.792 16.8819 28.7948 17.8721 28.795 18.8624ZM20.2129 30.4539C20.6156 30.4539 21.0184 30.4597 21.421 30.4524C21.8877 30.444 22.2125 30.1283 22.2243 29.6859C22.2367 29.2182 21.9326 28.8758 21.4464 28.8662C20.6305 28.8499 19.8137 28.8501 18.9977 28.8658C18.5098 28.8752 18.1944 29.2198 18.2073 29.6761C18.2201 30.1325 18.5512 30.4464 19.0374 30.4531C19.4291 30.4585 19.821 30.4542 20.2129 30.4539Z" fill="white"/>
<path d="M11.3771 21.1549C10.7848 20.959 10.2072 20.8527 9.71435 20.5882C8.54873 19.9628 8.00761 18.9202 8.00054 17.6116C7.98874 15.4242 7.98473 13.2366 8.00121 11.0493C8.01408 9.34052 9.03189 8.06057 10.6362 7.69927C10.8988 7.64014 11.1754 7.6213 11.4456 7.62088C14.7541 7.61576 18.0626 7.61095 21.3711 7.62032C23.0675 7.62512 24.355 8.64793 24.7175 10.2574C24.7744 10.5097 24.7972 10.7747 24.7979 11.0339C24.8041 13.2214 24.8149 15.4089 24.7973 17.5962C24.7836 19.2968 23.7821 20.5715 22.1976 20.9412C21.9043 21.0096 21.5947 21.0316 21.2923 21.0339C19.9863 21.0436 18.6803 21.0421 17.3744 21.0339C17.163 21.0326 17.0114 21.0915 16.8603 21.2433C15.9469 22.1612 15.0359 23.0823 14.099 23.9759C13.239 24.7962 11.8012 24.4087 11.47 23.2723C11.3838 22.9765 11.391 22.6499 11.3806 22.3365C11.3666 21.9146 11.3771 21.4919 11.3771 21.1549ZM12.9468 22.7895L13.032 22.825C13.1174 22.7456 13.2051 22.6685 13.2879 22.5864C14.2228 21.6592 15.161 20.7352 16.0884 19.8005C16.3189 19.5681 16.5699 19.4625 16.8989 19.4648C18.3571 19.4751 19.8154 19.4705 21.2737 19.4689C22.502 19.4675 23.2281 18.7543 23.2313 17.53C23.2368 15.3862 23.2375 13.2424 23.2309 11.0986C23.2273 9.90346 22.5085 9.18964 21.3189 9.18869C18.0432 9.18606 14.7675 9.18619 11.4917 9.19125C11.2661 9.19161 11.0316 9.21104 10.8166 9.27403C10.0121 9.50971 9.57072 10.1693 9.56923 11.1201C9.56588 13.253 9.56775 15.386 9.56921 17.5189C9.5693 17.6491 9.57905 17.7799 9.59347 17.9094C9.67923 18.6803 10.2351 19.2973 10.9975 19.4143C11.3707 19.4716 11.7554 19.4563 12.135 19.4694C12.6443 19.487 12.9342 19.775 12.945 20.289C12.9511 20.5827 12.9467 20.8766 12.9468 21.1705C12.9469 21.7101 12.9468 22.2498 12.9468 22.7895Z" fill="white"/>
<path d="M17.5627 14.457C17.5563 15.0823 17.0025 15.6248 16.3833 15.6122C15.7558 15.5994 15.2174 15.0427 15.2358 14.4255C15.2542 13.8078 15.7852 13.288 16.3984 13.2874C17.0228 13.2867 17.569 13.8354 17.5627 14.457Z" fill="white"/>
<path d="M11.4365 14.4484C11.437 13.8137 11.9712 13.2804 12.5998 13.2874C13.2358 13.2945 13.748 13.8242 13.7402 14.4669C13.7326 15.0931 13.2201 15.6069 12.5977 15.6123C11.9691 15.6177 11.4361 15.0834 11.4365 14.4484Z" fill="white"/>
<path d="M21.3625 14.4611C21.3573 15.0923 20.811 15.6277 20.1879 15.6123C19.5497 15.5964 19.0456 15.0652 19.0583 14.4218C19.0707 13.7967 19.5914 13.2842 20.2109 13.2874C20.8417 13.2906 21.3677 13.8266 21.3625 14.4611Z" fill="white"/>
</svg>
