<svg width="16" height="16" viewBox="0 0 16 16" fill="none" xmlns="http://www.w3.org/2000/svg">
<path d="M11.9348 0.697498L10.2491 2.38318L10.0526 2.18668C9.2319 1.36568 7.96774 1.29353 7.23744 2.0237C6.62467 2.63603 6.57032 3.63334 7.07684 4.43184L2.3821 9.12552C1.82726 9.68111 1.50089 10.4114 1.45782 11.1733L0.696527 11.9353C0.247619 12.3839 0 12.9822 0 13.6208C0 14.2586 0.247142 14.857 0.696924 15.307C1.14551 15.7548 1.73524 16 2.34093 16C2.35103 16 2.36152 16 2.37161 16C2.98779 16 3.61137 15.7626 4.06806 15.3063L4.82936 14.5451C5.59184 14.5016 6.32206 14.1757 6.87769 13.6209L11.572 8.92663C11.9329 9.15397 12.3301 9.273 12.7159 9.273C13.1897 9.273 13.6429 9.10303 13.9796 8.76628C14.7111 8.03532 14.6385 6.77197 13.8171 5.95098L13.6205 5.75439L15.3063 4.06839C15.7626 3.61212 16.0087 3.00997 15.9998 2.39462C16.0087 1.756 15.7627 1.15384 15.3063 0.697577C14.3763 -0.23291 12.8641 -0.232115 11.9348 0.697498ZM5.75403 12.4971C5.43084 12.8192 4.99195 12.9829 4.55543 12.9565C4.32689 12.948 4.10144 13.0255 3.93885 13.1877L2.94472 14.1818C2.79453 14.3324 2.60365 14.4161 2.37161 14.4107C2.18303 14.4425 1.97038 14.3331 1.82058 14.1826C1.67158 14.0336 1.58934 13.8341 1.58934 13.6208C1.58934 13.4074 1.67119 13.208 1.82019 13.059L2.81471 12.0641C2.9773 11.902 3.06146 11.6769 3.04557 11.448C3.01569 11.0088 3.18368 10.5719 3.50616 10.2491L8.04991 5.70648C8.08273 5.74541 8.1188 5.77902 8.15194 5.81764C8.46782 6.18642 8.79094 6.54399 9.12517 6.87821C9.45536 7.20789 9.81137 7.52978 10.1841 7.84874C10.2236 7.88251 10.258 7.91938 10.2978 7.95299L5.75403 12.4971ZM12.8564 7.64262C12.7923 7.70547 12.5914 7.71398 12.3694 7.55569C12.2476 7.47186 12.1265 7.37873 11.9698 7.2593C11.3532 6.78595 10.7743 6.27923 10.2489 5.75463C9.72276 5.22852 9.2164 4.64964 8.71663 3.99783C8.6258 3.87911 8.53156 3.75571 8.44033 3.6238C8.30182 3.42984 8.28783 3.2211 8.36118 3.14736C8.38796 3.12098 8.43493 3.1062 8.49389 3.1062C8.61531 3.1062 8.78609 3.16746 8.92889 3.31025L10.8112 5.19244L11.935 6.3165C11.9353 6.31681 11.9358 6.31689 11.9362 6.31729L12.6935 7.07463C12.9052 7.2864 12.9378 7.5603 12.8564 7.64262ZM14.1826 2.94473L12.4969 4.63081L11.9348 4.06879L11.373 3.5066L13.0585 1.82115C13.3681 1.51308 13.873 1.51158 14.1827 1.82115C14.3325 1.97094 14.4135 2.16649 14.4104 2.39462C14.4135 2.59947 14.3324 2.79503 14.1826 2.94473Z" fill="#E0E1E2"/>
</svg>
