<svg width="35" height="28" viewBox="0 0 35 28" fill="none" xmlns="http://www.w3.org/2000/svg">
<path d="M7.37475 8.59317C7.81239 7.02869 8.1815 5.51266 8.66281 4.03311C9.4454 1.6275 11.6237 0.035539 14.148 0.00235449C15.8972 -0.0206329 17.3963 0.624115 18.5929 1.91655C18.7441 2.07977 18.8921 2.1452 19.1111 2.14331C20.2067 2.13378 21.3027 2.14758 22.3982 2.12959C22.5617 2.1269 22.7688 2.04162 22.8789 1.92319C25.9542 -1.38481 31.3497 -0.2558 32.8323 4.01124C33.7916 6.77181 34.3672 9.60227 34.3338 12.5339C34.3176 13.9564 34.1462 15.3599 33.5368 16.6762C32.7273 18.4248 31.057 19.0476 29.3013 18.2475C28.4138 17.843 27.6714 17.2409 26.9836 16.5627C26.9063 16.4865 26.8258 16.4135 26.6967 16.2917C27.0581 18.0938 27.2376 19.8441 27.1606 21.6128C27.103 22.9358 26.909 24.2362 26.2931 25.4318C25.7802 26.4274 24.9903 27.0696 23.8441 27.1748C23.1339 27.24 22.4747 27.0229 21.8546 26.693C20.4926 25.9684 19.465 24.8701 18.529 23.6765C18.2125 23.2729 17.9218 22.8481 17.6356 22.4221C17.5194 22.249 17.4008 22.1715 17.1796 22.1724C14.7868 22.1823 12.394 22.1818 10.0012 22.1731C9.78097 22.1723 9.66234 22.2498 9.54502 22.4262C8.60605 23.8376 7.5582 25.1541 6.17588 26.1664C5.53984 26.6322 4.85128 26.9894 4.06703 27.1384C2.48398 27.4389 1.32887 26.3555 0.863987 25.4035C0.211474 24.0672 0.0206161 22.6335 0.00184738 21.1759C-0.0374098 18.1293 0.550682 15.1861 1.60547 12.3384C2.45975 10.0319 4.77889 8.51555 7.22508 8.60011C7.30093 8.60273 7.37721 8.59305 7.37475 8.59317ZM1.42055 20.9005C1.45639 22.1179 1.52582 23.4523 2.11722 24.6973C2.57159 25.6538 3.40514 26.0244 4.34812 25.5596C4.9594 25.2583 5.53501 24.8469 6.0508 24.3978C7.09424 23.4894 7.89806 22.3695 8.63315 21.2043C8.83286 20.8877 9.08436 20.7504 9.46005 20.7516C12.2099 20.7601 14.9597 20.7611 17.7095 20.7507C18.1023 20.7492 18.3451 20.9108 18.5644 21.2217C19.1172 22.0053 19.6664 22.7954 20.2786 23.5318C20.9732 24.3674 21.763 25.1148 22.7848 25.5552C23.811 25.9976 24.6185 25.6663 25.0871 24.6459C25.5627 23.61 25.715 22.5075 25.7425 21.3892C25.812 18.5691 25.2678 15.8484 24.3635 13.1879C23.7705 11.443 22.5758 10.3608 20.769 10.0786C19.0631 9.81226 17.6249 10.4022 16.5437 11.775C16.3241 12.0539 16.0597 12.1778 15.7079 12.1761C14.2995 12.1694 12.891 12.1693 11.4826 12.1761C11.1192 12.1778 10.8507 12.0495 10.6217 11.7587C9.56551 10.4171 8.15267 9.84684 6.48494 10.0674C4.75167 10.2967 3.51926 11.2836 2.91356 12.929C1.98291 15.4571 1.46769 18.0746 1.42055 20.9005ZM8.86344 8.85547C9.94466 9.21739 10.7985 9.78184 11.5126 10.5677C11.5997 10.6635 11.7808 10.7153 11.9191 10.7168C13.0033 10.7287 14.0878 10.7162 15.172 10.7287C15.4272 10.7317 15.5978 10.6549 15.7758 10.4664C18.7751 7.29069 23.9698 8.29042 25.5837 12.3462C25.6369 12.4799 25.692 12.6184 25.7755 12.7335C26.2868 13.4376 26.7746 14.1623 27.3314 14.829C28.049 15.6885 28.8432 16.4804 29.8896 16.9496C30.9602 17.4297 31.7876 17.0935 32.2627 16.0215C32.7954 14.8194 32.9136 13.5437 32.9069 12.2568C32.8929 9.53175 32.3614 6.89192 31.4245 4.34187C30.8193 2.69456 29.575 1.71758 27.8477 1.48197C26.1924 1.25618 24.7896 1.83053 23.7359 3.15259C23.489 3.46237 23.2079 3.596 22.8182 3.59299C21.4545 3.58246 20.0906 3.57851 18.727 3.59502C18.2968 3.60023 17.9958 3.45285 17.7244 3.11645C16.6702 1.81012 15.2682 1.25681 13.629 1.48793C11.9045 1.73108 10.6845 2.71431 10.0636 4.36035C9.79695 5.06712 9.58573 5.79744 9.39223 6.52841C9.19061 7.29 9.04067 8.06524 8.86344 8.85547Z" fill="white"/>
<path d="M6.43406 15.0162C6.43406 14.5374 6.43097 14.1037 6.4349 13.67C6.43918 13.1959 6.73997 12.8691 7.15766 12.8763C7.56062 12.8834 7.84777 13.1984 7.85502 13.6571C7.86189 14.091 7.8565 14.5251 7.8565 15.0166C8.32182 15.0166 8.76336 15.0091 9.20454 15.0186C9.68469 15.029 9.98266 15.2936 9.99854 15.703C10.0159 16.1518 9.7174 16.4498 9.21318 16.4632C8.77861 16.4747 8.34351 16.4656 7.85239 16.4656C7.85239 16.9655 7.86789 17.4419 7.84834 17.9169C7.82549 18.472 7.2574 18.773 6.78452 18.4953C6.54095 18.3522 6.43492 18.1299 6.43448 17.8529C6.43377 17.4076 6.43429 16.9622 6.43429 16.466C5.9953 16.466 5.57403 16.4893 5.15714 16.4566C4.93599 16.4393 4.68799 16.3714 4.51404 16.2428C4.28819 16.0757 4.22894 15.8019 4.32792 15.516C4.43611 15.2035 4.67021 15.0499 4.98205 15.0255C5.25983 15.0037 5.54042 15.0174 5.81979 15.0163C6.00872 15.0155 6.19763 15.0162 6.43406 15.0162Z" fill="white"/>
<path d="M13.5696 18.6092C13.3468 18.6092 13.1233 18.621 12.9015 18.6067C12.4698 18.5789 12.1642 18.2813 12.1555 17.8985C12.1464 17.5036 12.4599 17.184 12.9098 17.1671C13.3658 17.1499 13.8235 17.1491 14.2794 17.1674C14.7219 17.1851 15.0122 17.4792 15.0191 17.8736C15.0263 18.2808 14.7291 18.5796 14.2711 18.6072C14.038 18.6213 13.8034 18.6097 13.5696 18.6092Z" fill="white"/>
<path d="M20.7338 13.5911C20.7352 13.9938 20.4073 14.3239 20.0157 14.3139C19.6361 14.3042 19.3188 13.9791 19.3169 13.5979C19.3149 13.2027 19.652 12.8675 20.0424 12.8764C20.4261 12.8851 20.7325 13.2018 20.7338 13.5911Z" fill="white"/>
<path d="M18.5873 15.7371C18.5887 16.1398 18.2608 16.4699 17.8693 16.4599C17.4896 16.4502 17.1723 16.1251 17.1704 15.7439C17.1685 15.3487 17.5055 15.0135 17.8959 15.0224C18.2796 15.0311 18.586 15.3478 18.5873 15.7371Z" fill="white"/>
<path d="M22.8808 15.7394C22.8811 16.1417 22.5515 16.4712 22.1603 16.4595C21.7802 16.4481 21.4645 16.1226 21.4639 15.7415C21.4633 15.3465 21.802 15.0118 22.1917 15.0225C22.5762 15.0329 22.8804 15.3495 22.8808 15.7394Z" fill="white"/>
<path d="M20.7338 17.8865C20.7337 18.277 20.4307 18.593 20.0456 18.6044C19.6565 18.6159 19.3169 18.2812 19.3169 17.8863C19.3169 17.4912 19.6562 17.1571 20.0459 17.1685C20.4306 17.1798 20.7339 17.4963 20.7338 17.8865Z" fill="white"/>
<path d="M15.0206 7.88108C15.0206 8.35771 15.0239 8.79119 15.0198 9.22459C15.0152 9.70001 14.7165 10.0261 14.2987 10.0205C13.8964 10.0151 13.6069 9.69888 13.5997 9.24135C13.5929 8.80738 13.5983 8.37322 13.5983 7.88066C13.134 7.88066 12.6925 7.8881 12.2514 7.87862C11.7854 7.86861 11.4879 7.6169 11.458 7.22856C11.422 6.76205 11.7227 6.44767 12.2398 6.43398C12.6744 6.42247 13.1095 6.43161 13.6017 6.43161C13.6017 5.93273 13.5865 5.45672 13.6057 4.98213C13.6286 4.41325 14.2452 4.08601 14.6883 4.42721C14.8567 4.55694 14.9819 4.82462 15.006 5.04275C15.0546 5.483 15.0205 5.93238 15.0205 6.43132C15.4682 6.43132 15.9011 6.40297 16.3276 6.44278C16.5551 6.46402 16.8095 6.55724 16.9833 6.70077C17.1876 6.86941 17.2216 7.14001 17.1159 7.40944C16.9999 7.7054 16.7711 7.84647 16.4752 7.87072C16.1975 7.89346 15.9169 7.87957 15.6375 7.88089C15.4483 7.88178 15.2592 7.88108 15.0206 7.88108Z" fill="white"/>
<path d="M26.4844 4.99693C26.4896 4.60972 26.804 4.29327 27.1856 4.29115C27.5751 4.28898 27.9091 4.6304 27.9016 5.02298C27.8944 5.4015 27.5689 5.72594 27.193 5.7294C26.8011 5.73298 26.4791 5.40017 26.4844 4.99693Z" fill="white"/>
<path d="M24.3374 7.14982C24.3398 6.76118 24.6482 6.44445 25.0313 6.43725C25.4213 6.42992 25.758 6.76704 25.7546 7.16131C25.7513 7.54063 25.431 7.86659 25.0532 7.8751C24.6623 7.88391 24.335 7.55229 24.3374 7.14982Z" fill="white"/>
<path d="M28.6319 7.16813C28.6268 6.76455 28.9484 6.43264 29.341 6.43631C29.7169 6.43982 30.0424 6.76478 30.0491 7.14319C30.056 7.53601 29.7221 7.87676 29.3325 7.87453C28.9513 7.87235 28.6368 7.55526 28.6319 7.16813Z" fill="white"/>
<path d="M27.1902 8.58228C27.5794 8.58342 27.9117 8.92746 27.9017 9.31898C27.892 9.69766 27.564 10.0203 27.1885 10.0205C26.7958 10.0208 26.4773 9.68747 26.4845 9.28383C26.4914 8.89746 26.8096 8.58115 27.1902 8.58228Z" fill="white"/>
</svg>
