<svg width="32" height="33" viewBox="0 0 32 33" fill="none" xmlns="http://www.w3.org/2000/svg">
<path d="M15.8582 0.00247794C16.2618 0.00247794 16.6656 -0.00398816 17.0691 0.00397011C17.6941 0.0163078 18.1575 0.466775 18.1765 1.08384C18.1881 1.45698 18.1785 1.83076 18.1804 2.20424C18.1833 2.75127 18.5743 3.17565 19.0977 3.32288C19.7639 3.5103 20.419 3.74353 21.066 3.99072C21.4691 4.14473 21.9652 4.02837 22.2331 3.69167C22.57 3.26836 22.9135 2.84654 23.2922 2.46152C23.5981 2.15045 24.0997 2.16802 24.4495 2.43046C25.1492 2.95544 25.8556 3.47153 26.5512 4.00175C26.9874 4.33419 27.0598 5.08353 26.7213 5.5463C26.4719 5.88736 26.2252 6.23051 25.9819 6.57604C25.7309 6.93266 25.7477 7.28643 25.9951 7.63726C26.4508 8.28338 26.8881 8.94251 27.3496 9.58436C27.4353 9.70357 27.588 9.8176 27.7279 9.84671C28.1605 9.93667 28.5892 9.90165 28.9952 9.69494C29.146 9.6181 29.3081 9.55103 29.4729 9.5157C30.2519 9.3487 30.6517 9.53385 30.9299 10.2714C31.1919 10.9662 31.3946 11.6842 31.6049 12.3974C31.6608 12.5869 31.678 12.7987 31.6625 12.9963C31.6131 13.6259 31.2494 13.9701 30.5404 14.1484C30.1943 14.2355 29.8599 14.372 29.524 14.4963C29.2352 14.6032 29.0942 14.8366 29.086 15.1291C29.068 15.7637 29.0565 16.3993 29.0721 17.0338C29.083 17.4766 29.2978 17.8012 29.7449 17.937C30.0334 18.0246 30.3169 18.1324 30.6095 18.2017C31.4486 18.4005 31.8359 18.8917 31.6347 19.7097C31.4579 20.429 31.2054 21.1296 30.9858 21.8383C30.9739 21.8768 30.944 21.9138 30.9442 21.9513C30.9467 22.4066 30.6069 22.5682 30.2792 22.7528C29.9156 22.9576 29.5889 22.837 29.2395 22.7037C28.7396 22.513 28.2222 22.3295 27.6819 22.5278C27.5282 22.5842 27.3785 22.715 27.2812 22.8506C26.8534 23.4462 26.4537 24.062 26.0273 24.6587C25.7779 25.0076 25.7306 25.3267 25.9667 25.6873C26.1979 26.0405 26.4451 26.385 26.7081 26.7152C27.0297 27.1191 27.0004 27.9218 26.6061 28.2719C26.3432 28.5053 26.0517 28.7073 25.7673 28.9155C25.3287 29.2364 24.8984 29.5713 24.4403 29.8621C23.9336 30.1839 23.3519 30.0546 22.9724 29.576C22.7467 29.2914 22.5081 29.0139 22.3132 28.709C22.1335 28.4279 21.8782 28.2872 21.5798 28.3158C21.2182 28.3504 20.8636 28.4659 20.5082 28.5556C20.4024 28.5823 20.3076 28.6504 20.2024 28.6816C19.7305 28.8216 19.2555 28.9508 18.784 29.0923C18.446 29.1937 18.1839 29.6373 18.1815 30.0912C18.1794 30.4848 18.1867 30.8787 18.1746 31.272C18.1583 31.8052 17.6811 32.2959 17.1451 32.3072C16.3078 32.3247 15.4698 32.3318 14.6325 32.3165C13.9542 32.3042 13.4538 31.6781 13.4794 30.9462C13.4931 30.5547 13.4997 30.1589 13.4579 29.7707C13.4118 29.3411 13.1385 29.1307 12.7064 29.0242C12.135 28.8835 11.5918 28.6317 11.0245 28.4692C10.6919 28.3739 10.3369 28.3279 9.99051 28.3196C9.75939 28.3141 9.58328 28.4686 9.43078 28.6761C9.14156 29.0695 8.83489 29.4636 8.47216 29.7861C8.01313 30.1943 7.49427 30.0412 7.04708 29.7317C6.39355 29.2794 5.76123 28.7954 5.13306 28.308C4.70213 27.9736 4.63784 27.1954 4.97547 26.7725C5.20833 26.4808 5.43787 26.186 5.65918 25.8855C5.91632 25.5363 5.91316 24.9482 5.6641 24.602C5.2525 24.0298 4.84026 23.458 4.42988 22.8849C4.1674 22.5184 3.76703 22.3582 3.3275 22.4747C2.96996 22.5694 2.6147 22.6776 2.26689 22.8032C1.64899 23.0264 0.888426 22.5984 0.722649 21.9628C0.560815 21.3422 0.379764 20.722 0.145481 20.1259C-0.217542 19.2022 0.153621 18.4421 1.10633 18.1971C1.50311 18.0951 1.89951 17.9525 2.25785 17.758C2.41803 17.671 2.56684 17.4153 2.57792 17.2278C2.61952 16.5235 2.61894 15.8154 2.60099 15.1096C2.58949 14.6568 2.2258 14.4662 1.87084 14.307C1.70816 14.2341 1.51465 14.2324 1.34674 14.1681C1.01148 14.0396 0.637899 13.9494 0.364721 13.7354C-0.0299164 13.4262 -0.0550407 12.9304 0.059602 12.4798C0.205216 11.9075 0.425452 11.3543 0.613393 10.7928C0.632573 10.7355 0.660815 10.6791 0.668118 10.6203C0.822686 9.37452 1.95139 9.31387 2.75667 9.65713C3.02879 9.77312 3.33161 9.83698 3.62675 9.87366C3.93837 9.9124 4.19444 9.76544 4.37278 9.50075C4.62601 9.12491 4.8707 8.74299 5.13359 8.37405C5.29054 8.1538 5.48731 7.96201 5.64512 7.74228C5.97965 7.2765 5.93721 6.73089 5.57259 6.29707C5.33288 6.01184 5.10756 5.71296 4.89506 5.40681C4.65162 5.05605 4.6975 4.43254 5.01053 4.1459C5.35089 3.83423 5.72208 3.55513 6.0892 3.27407C6.4942 2.96402 6.90166 2.65583 7.32353 2.36967C7.63556 2.15803 8.00951 2.17114 8.2972 2.3648C8.58725 2.56004 8.84555 2.83879 9.04032 3.13236C9.58565 3.95431 10.0084 4.35 11.1033 3.80784C11.5586 3.58238 12.0679 3.44153 12.5683 3.33806C13.1021 3.22769 13.5561 2.84402 13.5055 2.20449C13.4777 1.85339 13.4977 1.49818 13.5023 1.1449C13.511 0.468716 13.937 0.0289003 14.6168 0.00813122C15.0302 -0.00449768 15.4443 0.00580197 15.8581 0.00580197C15.8581 0.00468587 15.8582 0.00360617 15.8582 0.00247794ZM15.5779 5.44989C14.8978 5.56459 13.94 5.69348 12.9976 5.89487C12.1664 6.0725 11.3944 6.43392 10.6746 6.88689C10.0463 7.28229 9.38749 7.65082 8.83229 8.13472C8.26787 8.62667 7.78019 9.21926 7.3202 9.81514C6.8116 10.474 6.37181 11.1858 6.09831 11.9845C5.88092 12.6194 5.60273 13.24 5.45481 13.8904C5.30814 14.5354 5.28037 15.2088 5.22123 15.8716C5.19536 16.1614 5.19143 16.4597 5.22867 16.7475C5.39016 17.9962 5.56593 19.244 6.10839 20.4012C6.23593 20.6732 6.367 20.9454 6.52077 21.203C6.80894 21.6858 7.07155 22.193 7.42245 22.6272C8.15124 23.5291 8.95369 24.3661 9.95414 24.9809C10.3995 25.2545 10.8355 25.553 11.3079 25.7704C11.8242 26.0079 12.383 26.1507 12.9136 26.3594C13.8338 26.7213 14.8232 26.7574 15.7684 26.7676C16.8358 26.7791 17.9218 26.6611 18.9772 26.3032C19.7346 26.0464 20.4743 25.7666 21.1553 25.3719C22.3096 24.7028 23.3008 23.8348 24.1567 22.793C24.8255 21.9789 25.3051 21.0688 25.7298 20.1283C26.1635 19.1678 26.3501 18.1189 26.4678 17.0831C26.6819 15.1983 26.269 13.3979 25.4932 11.6779C24.8706 10.2975 23.9682 9.11399 22.8371 8.12294C22.0579 7.44028 21.1856 6.88413 20.2258 6.45579C18.8308 5.83329 17.3755 5.54319 15.5779 5.44989Z" fill="white"/>
<path d="M23.2806 15.8539C23.2806 16.7417 23.2814 17.6295 23.2804 18.5173C23.2793 19.4622 22.8816 20.1789 22.0636 20.6668C20.4202 21.647 18.78 22.6326 17.1419 23.6217C16.2744 24.1455 15.4187 24.1498 14.5488 23.6232C12.9116 22.6321 11.2709 21.6469 9.62643 20.668C8.80751 20.1806 8.40643 19.4676 8.4061 18.5216C8.40547 16.7158 8.41071 14.9098 8.40285 13.104C8.4007 12.6108 8.60042 12.2679 9.0252 12.0158C10.8784 10.9158 12.7262 9.80673 14.5718 8.69403C15.4217 8.18164 16.2607 8.18033 17.1095 8.69078C18.9567 9.8016 20.8034 10.9133 22.657 12.0134C23.0935 12.2724 23.2914 12.626 23.2842 13.13C23.2713 14.0378 23.2805 14.9459 23.2806 15.8539ZM11.2691 12.9389C12.7155 13.8061 14.1179 14.6382 15.509 15.4887C15.7645 15.6449 15.9569 15.6235 16.1979 15.4758C17.1764 14.8762 18.1641 14.2916 19.1483 13.7011C19.559 13.4547 19.9692 13.2074 20.4133 12.9403C20.356 12.9024 20.3314 12.8847 20.3056 12.8692C18.8986 12.0245 17.4906 11.1812 16.0853 10.3337C15.8938 10.2183 15.735 10.2544 15.554 10.3645C14.6766 10.8982 13.793 11.4216 12.9122 11.9496C12.378 12.2699 11.845 12.5921 11.2691 12.9389ZM10.3459 14.6488C10.3459 16.0157 10.3366 17.3155 10.3593 18.6148C10.3617 18.7545 10.5205 18.9387 10.656 19.0217C11.9618 19.8212 13.2781 20.6035 14.5916 21.3904C14.6722 21.4387 14.7551 21.4832 14.8731 21.5499C14.8731 20.1602 14.8754 18.8291 14.8669 17.4981C14.8664 17.4218 14.7953 17.3164 14.7265 17.2744C13.9699 16.8128 13.207 16.3613 12.4463 15.9064C11.7647 15.4989 11.0836 15.0906 10.3459 14.6488ZM21.3394 14.6704C21.2132 14.737 21.1252 14.7784 21.042 14.828C19.6753 15.6429 18.3076 16.4563 16.947 17.2813C16.871 17.3274 16.8167 17.4715 16.816 17.5704C16.8073 18.8113 16.8099 20.0522 16.8114 21.2931C16.8114 21.3662 16.8269 21.4392 16.8375 21.5321C16.9019 21.4993 16.9377 21.4836 16.9711 21.4636C18.3365 20.6462 19.7004 19.8264 21.0681 19.0129C21.2779 18.8882 21.3431 18.716 21.3417 18.4847C21.3361 17.5566 21.3394 16.6284 21.3394 15.7003C21.3394 15.371 21.3394 15.0418 21.3394 14.6704Z" fill="white"/>
</svg>
