<svg width="30" height="30" viewBox="0 0 30 30" fill="none" xmlns="http://www.w3.org/2000/svg">
<path d="M2.56339 22.0096V7.80309C2.24519 7.7803 1.93342 7.77659 1.62747 7.73253C0.721348 7.60206 0.0271586 6.8399 0.0148957 5.92364C-0.0033769 4.5581 -0.00534771 3.19186 0.0161244 1.8264C0.0314895 0.849243 0.849195 0.03234 1.82525 0.0159409C3.15032 -0.00630989 4.47605 -0.00174782 5.80137 0.00843473C6.93332 0.0171331 7.73275 0.815374 7.77707 1.9556C7.78451 2.14681 7.77812 2.33855 7.77812 2.55493H21.987C22.0093 2.23892 22.0121 1.9265 22.0565 1.62011C22.1857 0.728865 22.9467 0.0285443 23.8413 0.01588C25.217 -0.00358481 26.5934 -0.00503251 27.969 0.0164275C28.9426 0.0316222 29.7562 0.85136 29.7733 1.83167C29.7961 3.14653 29.79 4.4621 29.7813 5.77727C29.7736 6.94152 28.9639 7.74797 27.7958 7.7775C27.6152 7.78206 27.4345 7.77813 27.2316 7.77813V21.9841C27.5309 22.0052 27.8416 22.0081 28.1462 22.0523C29.0762 22.1873 29.7622 22.9412 29.775 23.878C29.7933 25.2234 29.7949 26.5693 29.7755 27.9146C29.7607 28.949 28.9525 29.7575 27.9187 29.7738C26.6138 29.7944 25.3083 29.7894 24.0032 29.7795C22.8426 29.7708 22.0353 28.9531 22.0112 27.7863C22.0075 27.6064 22.0107 27.4264 22.0107 27.2273H7.80424C7.78196 27.5364 7.7779 27.8474 7.7341 28.1528C7.60354 29.0632 6.84662 29.7591 5.93148 29.7721C4.56591 29.7914 3.1996 29.7932 1.83409 29.7714C0.840959 29.7556 0.0304311 28.9362 0.0145916 27.939C-0.00628446 26.6241 -0.00135742 25.3086 0.008375 23.9934C0.0168544 22.8486 0.827918 22.0423 1.9791 22.0104C2.16849 22.0051 2.35816 22.0096 2.56339 22.0096ZM11.0004 18.1471H3.91137V22.0096C4.54388 22.0096 5.15866 22.0008 5.77311 22.0115C6.84426 22.0301 7.61722 22.707 7.75098 23.7666C7.79881 24.1455 7.77414 24.5338 7.77831 24.9179C7.78178 25.2372 7.77902 25.5567 7.77902 25.8711H11.0004V18.1471ZM18.7965 18.1402V25.8767H22.0105C22.0105 25.2543 22.0044 24.6497 22.0118 24.0453C22.0265 22.8529 22.8492 22.0287 24.0388 22.0103C24.4232 22.0044 24.8077 22.0093 25.1922 22.0092C25.4204 22.0092 25.6485 22.0092 25.8753 22.0092V18.1402L18.7965 18.1402ZM17.478 25.8765C17.4842 25.7992 17.4915 25.7501 17.4915 25.7011C17.4922 23.2626 17.4895 20.8242 17.497 18.3858C17.4977 18.1589 17.4071 18.121 17.2101 18.1218C15.6822 18.1276 14.1542 18.132 12.6265 18.1185C12.3535 18.116 12.29 18.1966 12.2911 18.4601C12.3011 20.8277 12.2968 23.1953 12.2975 25.5629C12.2976 25.6616 12.306 25.7603 12.3113 25.8765H17.478ZM10.9902 16.8255V11.6849H3.91348V16.8255H10.9902ZM25.8756 16.8263V11.6848H18.7994V16.8263H25.8756ZM17.4694 10.3325V3.90977H12.3152V10.3325H17.4694ZM22.0104 3.9152H18.7984V10.3319H25.8789V7.77847C25.2981 7.77847 24.7343 7.77918 24.1706 7.77833C22.8245 7.77629 22.0131 6.9698 22.0106 5.63129C22.0095 5.0664 22.0104 4.50152 22.0104 3.9152ZM10.9903 10.3398V3.91368H7.77882C7.77882 4.53947 7.78622 5.14465 7.77726 5.74958C7.7596 6.94008 6.9351 7.7605 5.7429 7.77716C5.22711 7.78436 4.71113 7.77781 4.19524 7.77908C4.09901 7.77931 4.00279 7.78699 3.91645 7.79078V10.3398H10.9903ZM17.4787 11.6808H12.3158V16.8172H17.4787V11.6808ZM6.45796 27.1979C5.32767 27.2702 4.33153 27.0402 3.52907 26.2374C2.7269 25.4349 2.52738 24.4285 2.58119 23.324C2.34019 23.324 2.13969 23.3174 1.93977 23.3254C1.55373 23.3409 1.29812 23.5914 1.29613 23.9829C1.28962 25.2674 1.28906 26.5521 1.29661 27.8366C1.29885 28.2184 1.56845 28.489 1.95043 28.4912C3.24515 28.4987 4.53996 28.4984 5.83466 28.4903C6.16903 28.4882 6.4286 28.2501 6.45427 27.9392C6.47317 27.7102 6.45796 27.4783 6.45796 27.1979ZM6.46335 2.58715C6.46335 2.33004 6.47091 2.12827 6.46171 1.92725C6.44474 1.55612 6.19789 1.29921 5.82335 1.29692C4.52852 1.28901 3.23358 1.28875 1.93875 1.29708C1.57174 1.29944 1.30026 1.5668 1.29777 1.93179C1.28891 3.23667 1.28857 4.54169 1.29849 5.84655C1.30119 6.2013 1.56517 6.44411 1.92142 6.4608C2.13043 6.47059 2.34028 6.46259 2.58497 6.46259C2.5241 5.34664 2.73351 4.34428 3.53747 3.5416C4.34086 2.73949 5.34021 2.52091 6.46335 2.58715ZM27.2031 6.46271C27.4625 6.46271 27.6646 6.47042 27.8659 6.46102C28.2226 6.44435 28.4877 6.20322 28.4905 5.84848C28.501 4.54369 28.5002 3.23875 28.4917 1.93395C28.4894 1.58034 28.2286 1.30232 27.8826 1.29933C26.5677 1.28796 25.2525 1.28968 23.9376 1.29838C23.6214 1.30047 23.3617 1.5404 23.3364 1.8351C23.316 2.07261 23.3323 2.31325 23.3323 2.58563C24.4468 2.52273 25.4495 2.73475 26.2512 3.53908C27.0518 4.34222 27.2679 5.34364 27.2031 6.46271ZM23.3232 27.2006C23.3232 27.3964 23.3226 27.537 23.3233 27.6776C23.3263 28.2834 23.5383 28.4943 24.1477 28.4946C25.3312 28.4952 26.5147 28.4955 27.6982 28.4944C28.2575 28.4939 28.4951 28.2586 28.4959 27.7041C28.4972 26.6218 28.4715 25.5388 28.5032 24.4575C28.5353 23.3622 28.2149 23.2782 27.3226 23.3254C27.2944 23.3269 27.267 23.3411 27.2025 23.3602C27.2727 24.4431 27.0513 25.4433 26.2526 26.2462C25.4519 27.0509 24.4497 27.266 23.3232 27.2006ZM3.91333 6.45505C4.60275 6.45505 5.2766 6.46955 5.94929 6.44783C6.21422 6.43928 6.4284 6.24227 6.4398 5.98672C6.47058 5.2967 6.45034 4.60442 6.45034 3.91784C4.80854 3.6845 3.68772 4.67592 3.91333 6.45505ZM23.3301 3.92389C23.3301 4.59554 23.3206 5.25054 23.3344 5.90504C23.3405 6.19304 23.5679 6.44213 23.8477 6.44973C24.5199 6.46799 25.193 6.45564 25.8613 6.45564C26.1271 4.76119 25.0597 3.69011 23.3301 3.92389ZM3.91541 23.3302C3.66419 25.2664 5.02288 26.1301 6.4575 25.8506C6.4575 25.1902 6.46855 24.526 6.45232 23.8625C6.44539 23.5787 6.2061 23.3418 5.92167 23.3351C5.25849 23.3195 4.59469 23.3302 3.91541 23.3302ZM23.3281 25.8606C25.1937 26.1552 26.1621 24.793 25.8435 23.327C25.201 23.327 24.5558 23.3178 23.911 23.3308C23.579 23.3375 23.3386 23.5777 23.3319 23.9093C23.3189 24.5541 23.3281 25.1993 23.3281 25.8606Z" fill="white"/>
</svg>
