<svg width="30" height="28" viewBox="0 0 30 28" fill="none" xmlns="http://www.w3.org/2000/svg">
<path d="M24.5024 3.21715C24.227 2.20615 24.4226 1.33491 25.1857 0.623015C25.9127 -0.0551869 27.0628 -0.194301 27.9477 0.277758C28.8411 0.75436 29.3802 1.77739 29.2364 2.72306C29.0728 3.79875 28.3049 4.6197 27.2954 4.81926C26.7406 4.92893 26.2237 4.84208 25.7148 4.60867C25.6101 4.5607 25.4337 4.56581 25.3353 4.6233C23.9898 5.40927 22.6529 6.20988 21.3116 7.00303C21.1875 7.0764 21.1264 7.14841 21.1244 7.31071C21.1092 8.52877 20.2273 9.54971 19.0624 9.71847C17.8643 9.89207 16.7651 9.20531 16.3636 8.04531C16.3255 7.93529 16.2324 7.81196 16.1314 7.76095C14.8943 7.13612 13.6524 6.52061 12.4058 5.91495C12.325 5.87567 12.1677 5.90026 12.0926 5.9569C11.3279 6.53319 10.5032 6.64621 9.62094 6.28883C9.45761 6.22268 9.35483 6.23099 9.21542 6.33569C7.77821 7.41511 6.33632 8.48832 4.89265 9.55909C4.75865 9.65848 4.7363 9.74664 4.77792 9.91603C5.02496 10.9218 4.77154 11.7967 3.96233 12.4479C3.16523 13.0894 2.25498 13.1858 1.34154 12.723C0.404675 12.2484 -0.0401519 11.4394 0.00621183 10.3918C0.0800712 8.72269 1.88226 7.64174 3.41525 8.34198C3.608 8.43001 3.7293 8.41162 3.89397 8.28745C5.29109 7.23399 6.69346 6.18745 8.10131 5.14836C8.25832 5.03247 8.28956 4.94202 8.23382 4.75297C7.8373 3.40819 8.62087 2.02863 9.96021 1.68853C11.2913 1.35053 12.625 2.16975 12.9391 3.52647C12.9816 3.70978 13.0227 3.91176 12.9878 4.09016C12.9395 4.33784 13.0531 4.42171 13.2415 4.51336C14.3087 5.03248 15.3714 5.56084 16.4359 6.08564C16.4683 6.10164 16.5029 6.11336 16.5346 6.12632C17.5607 4.52431 19.4111 4.57793 20.4539 5.6228C21.7979 4.82419 23.1493 4.0212 24.5024 3.21715ZM2.42211 9.7431C1.97772 9.7539 1.61736 10.1351 1.6313 10.5796C1.64486 11.0121 2.01504 11.3747 2.43989 11.3716C2.87626 11.3684 3.25702 10.9817 3.25129 10.5477C3.24552 10.1108 2.85565 9.73256 2.42211 9.7431ZM27.6189 2.43036C27.6174 1.98593 27.2418 1.61278 26.8024 1.61914C26.3617 1.62552 25.9882 2.01008 25.9981 2.44723C26.0079 2.87935 26.3705 3.23488 26.8054 3.23876C27.2568 3.24277 27.6205 2.8813 27.6189 2.43036ZM10.5722 3.2575C10.1071 3.25323 9.76199 3.59284 9.76132 4.05554C9.76067 4.50778 10.122 4.87239 10.5675 4.86888C10.9988 4.86548 11.3601 4.50769 11.3688 4.07528C11.378 3.61989 11.029 3.26169 10.5722 3.2575ZM19.4878 7.3166C19.4917 6.85486 19.1468 6.50341 18.6883 6.50188C18.2471 6.5004 17.8898 6.84653 17.8805 7.28452C17.871 7.7321 18.2271 8.10942 18.6697 8.12081C19.1097 8.13213 19.4841 7.76409 19.4878 7.3166Z" fill="white"/>
<path d="M24.3821 18.6639C24.3821 16.037 24.3819 13.4101 24.3823 10.7832C24.3824 10.012 24.6584 9.73679 25.4302 9.73638C26.3727 9.73589 27.3151 9.73473 28.2576 9.73671C28.9457 9.73815 29.2501 10.0438 29.2502 10.7286C29.2504 16.03 29.2504 21.3314 29.2502 26.6328C29.2502 27.3132 28.9584 27.6082 28.2836 27.6089C27.3126 27.6099 26.3416 27.6095 25.3706 27.6089C24.6643 27.6085 24.3828 27.3318 24.3825 26.6303C24.3813 23.9748 24.382 21.3193 24.3821 18.6639ZM26.022 11.392V25.9766H27.6122V11.392H26.022Z" fill="white"/>
<path d="M8.11749 19.481C8.11749 17.1217 8.1173 14.7625 8.11761 12.4032C8.11771 11.653 8.39693 11.3765 9.15337 11.3763C10.1334 11.3761 11.1134 11.3745 12.0935 11.377C12.6685 11.3784 12.972 11.6691 13.0041 12.2406C13.0073 12.2975 13.0054 12.3547 13.0054 12.4118C13.0055 17.1303 13.0057 21.8488 13.0044 26.5673C13.0044 26.6904 12.9978 26.815 12.9781 26.9363C12.9136 27.3343 12.6194 27.6018 12.2133 27.6046C11.1191 27.6121 10.0249 27.6122 8.9307 27.6054C8.47431 27.6026 8.15609 27.2845 8.12232 26.8154C8.10869 26.626 8.11762 26.435 8.1176 26.2448C8.11741 23.9902 8.11749 21.7356 8.11749 19.481ZM9.78448 13.0027V25.9828H11.3462V13.0027H9.78448Z" fill="white"/>
<path d="M21.1329 21.1497C21.1329 22.967 21.1334 24.7843 21.1327 26.6017C21.1324 27.3186 20.8444 27.6083 20.1337 27.6088C19.163 27.6095 18.1923 27.6097 17.2216 27.6087C16.5441 27.6081 16.2476 27.3171 16.246 26.6374C16.2426 25.1626 16.2448 23.6878 16.2448 22.213C16.2448 20.0246 16.239 17.8362 16.2533 15.6479C16.2548 15.4046 16.3117 15.1174 16.4515 14.9327C16.574 14.7709 16.8472 14.6462 17.0574 14.6407C18.1415 14.6121 19.2268 14.6199 20.3116 14.6302C20.8323 14.6352 21.1308 14.9824 21.1319 15.555C21.1348 17.0012 21.1329 18.4475 21.1329 19.8937C21.1329 20.3124 21.1329 20.731 21.1329 21.1497ZM19.47 25.9835V16.2608H17.8952V25.9835H19.47Z" fill="white"/>
<path d="M0.000258847 22.7486C0.000258847 21.4353 -0.000313262 20.1219 0.000510576 18.8086C0.00089961 18.1909 0.302665 17.8756 0.924033 17.8707C1.93295 17.8627 2.94202 17.8622 3.95094 17.8706C4.57733 17.8758 4.86696 18.1775 4.86746 18.8091C4.86958 21.4357 4.86978 24.0624 4.8671 26.689C4.86646 27.3139 4.56413 27.6075 3.93561 27.6084C2.92662 27.6098 1.91764 27.6106 0.908666 27.6081C0.311567 27.6066 0.00115134 27.2909 0.000624998 26.6886C-0.000530664 25.3752 0.000258847 24.0619 0.000258847 22.7486ZM1.64875 19.5074V25.9783H3.24007V19.5074H1.64875Z" fill="white"/>
</svg>
