<svg width="32" height="31" viewBox="0 0 32 31" fill="none" xmlns="http://www.w3.org/2000/svg">
<path d="M0 0.583312C0.248144 0.189976 0.558405 -0.11307 1.06778 0.0408339C1.26157 0.0993834 1.44815 0.239173 1.59525 0.384821C3.52841 2.29894 5.456 4.21868 7.37787 6.14406C7.55642 6.32294 7.73082 6.40305 7.99048 6.40256C12.5398 6.39398 17.0892 6.39633 21.6386 6.39641C22.1369 6.39641 22.3636 6.54125 22.3603 6.85638C22.357 7.16949 22.1225 7.31868 21.6325 7.31868C17.1856 7.31875 12.7387 7.31872 8.29181 7.31872C8.17188 7.31872 8.05193 7.31872 7.91775 7.31872V22.9243H23.579V22.4863C23.579 17.3822 23.582 12.2781 23.5726 7.17396C23.5719 6.8074 23.6845 6.54469 23.9456 6.28694C25.9398 4.31819 27.9164 2.33171 29.9139 0.36625C30.0956 0.187461 30.3761 0.0435352 30.6266 0.0130617C31.0829 -0.0424151 31.4612 0.359446 31.4799 0.826103C31.4832 0.907647 31.4809 0.98941 31.4809 1.07107C31.481 10.3606 31.4726 19.65 31.4937 28.9395C31.4959 29.8799 30.8721 30.8321 29.5962 30.8307C20.3642 30.8207 11.1323 30.823 1.90036 30.8289C0.936816 30.8295 0.330701 30.3706 0 29.4979V17.1234C0.168571 16.9347 0.350497 16.7726 0.630403 16.8836C0.912851 16.9956 0.924376 17.2364 0.923444 17.4936C0.918596 18.8198 0.920867 20.1459 0.921833 21.4721C0.921918 21.577 0.930969 21.682 0.937392 21.8201C1.78184 21.4233 2.58178 21.0408 3.38863 20.6733C3.57378 20.589 3.63674 20.4869 3.63532 20.2817C3.62522 18.8128 3.63022 17.3438 3.62917 15.8749C3.6291 15.7868 3.61817 15.6986 3.61281 15.6183C3.57185 15.6059 3.55307 15.5952 3.53424 15.5952C2.56156 15.5929 1.58879 15.5837 0.616267 15.595C0.34209 15.5982 0.139029 15.5205 0 15.2856L0 0.583312ZM30.5609 29.228V28.8214C30.5609 27.1992 30.5625 25.5771 30.5597 23.9549C30.559 23.5892 30.6643 23.1494 30.4984 22.8793C30.3411 22.6233 29.8934 22.5423 29.571 22.3893C29.0112 22.1237 28.4494 21.862 27.8859 21.5975C27.8681 21.6445 27.8556 21.6621 27.8556 21.6797C27.8539 23.2509 27.8517 24.822 27.8567 26.3931C27.8569 26.4734 27.8989 26.5736 27.9557 26.6306C28.7987 27.4779 29.6475 28.3195 30.5609 29.228ZM30.5609 1.04575C30.4548 1.14254 30.3956 1.19266 30.3408 1.24718C29.5732 2.01041 28.801 2.76919 28.045 3.54371C27.9394 3.65183 27.8618 3.83749 27.8604 3.98808C27.8468 5.45575 27.8519 6.92359 27.8528 8.39138C27.8529 8.47642 27.8625 8.56146 27.8693 8.67597C28.7047 8.28011 29.5014 7.89182 30.3089 7.52746C30.5125 7.43558 30.5661 7.3229 30.5653 7.11369C30.5579 5.19745 30.5609 3.28115 30.5609 1.36487L30.5609 1.04575ZM0.921206 29.2406C1.8408 28.3226 2.69601 27.4738 3.54125 26.6153C3.60668 26.5488 3.62595 26.414 3.6263 26.3108C3.63154 24.8107 3.63006 23.3106 3.6292 21.8105C3.62917 21.7462 3.61942 21.6818 3.61188 21.5889C2.77572 21.9845 1.97836 22.3732 1.16952 22.7365C0.963222 22.8292 0.916529 22.9456 0.917257 23.1513C0.923935 25.0595 0.921206 26.9678 0.921206 28.8761C0.921206 28.9654 0.921206 29.0546 0.921206 29.2406ZM0.921206 1.01102C0.921206 1.22165 0.921206 1.3314 0.921206 1.44116C0.921206 3.12572 0.96051 4.81164 0.902105 6.4942C0.878309 7.17962 1.02014 7.62256 1.72508 7.78146C1.77357 7.79238 1.81674 7.82591 1.86299 7.84764C2.44161 8.11955 3.02034 8.39123 3.62969 8.67736C3.62969 7.03894 3.63081 5.44731 3.6261 3.85569C3.62588 3.78314 3.59232 3.69192 3.54203 3.64111C2.69408 2.78407 1.84101 1.93208 0.921206 1.01102ZM3.62969 14.6593C3.62969 13.0443 3.63235 11.4548 3.6219 9.86535C3.62137 9.78528 3.52454 9.67284 3.44371 9.63178C2.99793 9.40534 2.54376 9.19521 2.09132 8.98187C1.7156 8.80472 1.33831 8.63088 0.939765 8.44534V14.6593L3.62969 14.6593ZM30.5455 8.45839C30.4593 8.49217 30.3934 8.51383 30.331 8.54309C29.5827 8.89424 28.8381 9.25325 28.085 9.59377C27.8941 9.68011 27.8465 9.79247 27.8476 9.99023C27.8561 11.4487 27.8519 12.9073 27.8528 14.3658C27.8529 14.4635 27.8618 14.5612 27.866 14.6476H30.5455V8.45839ZM27.8708 15.5962C27.8627 15.6611 27.8536 15.6998 27.8536 15.7385C27.8526 17.2785 27.8488 18.8186 27.861 20.3585C27.8618 20.4548 27.9674 20.5933 28.0604 20.639C28.8204 21.0123 29.5887 21.3688 30.3555 21.7284C30.413 21.7554 30.4778 21.7668 30.5355 21.7844V15.5962L27.8708 15.5962ZM16.2321 29.8559H22.6106C22.1998 29.039 21.7993 28.2622 21.4202 27.4752C21.3216 27.2706 21.2064 27.1979 20.9793 27.1994C19.5059 27.2094 18.0325 27.2042 16.559 27.2053C16.4514 27.2053 16.3438 27.2158 16.2321 27.2216L16.2321 29.8559ZM15.2494 27.232C15.1954 27.2217 15.157 27.208 15.1186 27.208C13.5409 27.2062 11.9632 27.2018 10.3855 27.2141C10.2881 27.2148 10.1511 27.3265 10.1013 27.4221C9.7152 28.1637 9.34538 28.9136 8.9728 29.6621C8.94356 29.7208 8.93156 29.7881 8.91004 29.8562H15.2494V27.232ZM9.13188 27.2344C9.04175 27.2205 8.99297 27.2065 8.94417 27.2064C7.45033 27.2051 5.95644 27.2008 4.46268 27.2128C4.34111 27.2138 4.19591 27.3026 4.10329 27.3929C3.40144 28.0775 2.71123 28.7738 2.01408 29.4632C1.89477 29.5812 1.75962 29.6833 1.57298 29.8431C1.7242 29.8677 1.76143 29.8791 1.79867 29.8791C3.74272 29.8802 5.68679 29.8832 7.63078 29.8719C7.72772 29.8713 7.86557 29.7667 7.91387 29.6741C8.28574 28.9609 8.64044 28.2389 8.99968 27.5192C9.04307 27.4322 9.08164 27.3429 9.13188 27.2344ZM22.341 27.2045C22.4088 27.3546 22.4463 27.4461 22.4905 27.5344C22.8369 28.2261 23.1942 28.9127 23.5259 29.6114C23.6232 29.8164 23.7333 29.8875 23.9614 29.8862C25.8131 29.8763 27.6648 29.8809 29.5165 29.8799C29.6118 29.8798 29.707 29.8685 29.8453 29.8597C29.7493 29.756 29.6908 29.6884 29.6277 29.6255C28.8829 28.883 28.1432 28.1351 27.3857 27.4056C27.2702 27.2943 27.0716 27.2149 26.9104 27.2131C25.5499 27.198 24.1892 27.2045 22.8286 27.2045C22.6867 27.2045 22.5448 27.2045 22.341 27.2045ZM16.2388 23.8649V26.2478H20.7982C20.4065 25.4671 20.0307 24.7137 19.6471 23.9643C19.6222 23.9156 19.5377 23.8693 19.4807 23.869C18.4086 23.8634 17.3364 23.8649 16.2388 23.8649ZM6.95851 14.6621C6.95851 13.5662 6.96254 12.4977 6.95038 11.4295C6.94946 11.3493 6.84943 11.238 6.76726 11.1963C6.34906 10.984 5.92194 10.7892 5.49722 10.5898C5.19601 10.4483 4.89365 10.3093 4.57256 10.1602V14.6621H6.95851ZM26.9059 14.6622V10.1609C26.1644 10.5103 25.4589 10.8503 24.7456 11.1735C24.5674 11.2542 24.517 11.3578 24.5189 11.5449C24.5283 12.462 24.5232 13.3793 24.5232 14.2964V14.6622L26.9059 14.6622ZM6.95836 15.6158H4.57259V20.1061C5.35129 19.7381 6.09844 19.388 6.84085 19.0282C6.89719 19.0009 6.95304 18.9051 6.95344 18.8408C6.96036 17.7705 6.95836 16.7002 6.95836 15.6158ZM26.9069 20.1027V15.6129H24.5235C24.5235 16.6935 24.5212 17.752 24.5285 18.8104C24.529 18.8842 24.5818 18.9959 24.6421 19.0253C25.3822 19.3861 26.1283 19.7348 26.9069 20.1027ZM15.251 23.8644C14.3737 23.8644 13.5319 23.9159 12.7 23.8477C12.0608 23.7953 11.7198 23.9973 11.4976 24.5921C11.2865 25.1571 10.9696 25.6828 10.6932 26.2377H15.251L15.251 23.8644ZM24.5237 20.0076C24.5237 21.0774 24.5196 22.0869 24.5306 23.0962C24.5316 23.19 24.6109 23.3 24.6835 23.3733C25.3601 24.0563 26.0428 24.7334 26.7253 25.4107C26.7768 25.4618 26.8403 25.5009 26.929 25.5694C26.929 24.1214 26.9312 22.7231 26.9233 21.3249C26.9229 21.2436 26.8616 21.121 26.794 21.0879C26.0614 20.7292 25.3219 20.3846 24.5237 20.0076ZM24.5232 10.2539C25.2694 9.9017 25.9648 9.56455 26.669 9.24692C26.8644 9.15876 26.9365 9.05417 26.9346 8.83633C26.9235 7.54192 26.9291 6.24739 26.9291 4.95288V4.68136C26.852 4.7372 26.8177 4.75579 26.7912 4.78216C26.0747 5.49534 25.356 6.20631 24.6478 6.92759C24.5738 7.00292 24.531 7.13929 24.5286 7.2485C24.5168 7.79866 24.5232 8.34921 24.5232 8.89964C24.5232 9.33422 24.5232 9.7688 24.5232 10.2539ZM4.55313 25.5935C4.66789 25.4903 4.73613 25.4341 4.79848 25.3721C5.45795 24.7158 6.12259 24.0645 6.76909 23.3959C6.87414 23.2872 6.9477 23.1014 6.95068 22.9495C6.9677 22.0825 6.95956 21.2149 6.95804 20.3475C6.95787 20.2528 6.94527 20.1582 6.93541 20.0214C6.14725 20.3935 5.39992 20.7422 4.65893 21.1038C4.60098 21.1321 4.55785 21.2504 4.55751 21.3271C4.55151 22.7248 4.55313 24.1226 4.55313 25.5935ZM4.61823 4.69684C4.59654 4.71112 4.57483 4.7254 4.55313 4.73969C4.55313 6.1379 4.54897 7.53617 4.56229 8.93425C4.5632 9.03001 4.6744 9.16512 4.76931 9.21288C5.29818 9.47907 5.83755 9.7246 6.37399 9.97578C6.55478 10.0604 6.73752 10.141 6.95838 10.2411C6.95838 9.17868 6.96256 8.16931 6.95143 7.16009C6.95039 7.06654 6.86836 6.95817 6.79592 6.88375C6.40365 6.48074 6.00205 6.08673 5.60463 5.6887C5.27516 5.35874 4.94699 5.02752 4.61823 4.69684ZM10.8327 23.8648C9.77165 23.8648 8.76111 23.8605 7.75074 23.872C7.65786 23.873 7.55092 23.9591 7.47633 24.032C6.97177 24.5247 6.47485 25.0251 5.97402 25.5217C5.74562 25.7481 5.51395 25.9712 5.21537 26.2626C5.41394 26.2626 5.51207 26.2626 5.61022 26.2626C6.67518 26.2626 7.74277 26.2176 8.80409 26.2796C9.43589 26.3165 9.79009 26.145 10.0121 25.5399C10.2199 24.9733 10.5414 24.4481 10.8327 23.8648ZM26.2439 26.247C25.4394 25.448 24.6958 24.7031 23.9408 23.9699C23.8667 23.898 23.7227 23.8698 23.6107 23.8688C22.7096 23.8609 21.8085 23.8638 20.9073 23.8654C20.8334 23.8656 20.7596 23.8805 20.6614 23.8912C21.0281 24.6235 21.3862 25.3211 21.7253 26.0276C21.8142 26.2128 21.9221 26.2689 22.1231 26.2674C23.3827 26.258 24.6423 26.2629 25.9019 26.2621C25.9898 26.2621 26.0777 26.2546 26.2439 26.247Z" fill="white"/>
<path d="M15.7447 10.7285C15.8511 10.8718 15.9383 10.9519 15.9795 11.0509C16.2209 11.6305 16.4599 12.2114 16.6837 12.7978C17.0058 13.6416 17.5907 14.2112 18.4396 14.5276C19.0137 14.7415 19.5846 14.9648 20.1499 15.2005C20.2613 15.2469 20.3405 15.3693 20.4346 15.4567C20.3424 15.5449 20.2657 15.6694 20.1557 15.7154C19.5653 15.9624 18.9684 16.1946 18.3703 16.4227C17.5704 16.7278 17.0207 17.2785 16.705 18.0645C16.4676 18.6555 16.2393 19.2503 15.9899 19.8363C15.9446 19.9426 15.817 20.0144 15.7274 20.102C15.6449 20.0174 15.5286 19.9469 15.4856 19.8458C15.2397 19.2683 15.0044 18.6861 14.7786 18.1005C14.4691 17.2977 13.9178 16.7387 13.1127 16.4238C12.5162 16.1904 11.9178 15.9614 11.3275 15.7134C11.2206 15.6685 11.1489 15.5409 11.061 15.4514C11.1466 15.3691 11.2178 15.2526 11.3201 15.21C11.9029 14.9675 12.4925 14.7411 13.081 14.5123C13.9048 14.1921 14.4727 13.6258 14.7869 12.8017C15.0104 12.2153 15.2476 11.6339 15.4901 11.0549C15.5336 10.9508 15.6323 10.8695 15.7447 10.7285Z" fill="white"/>
</svg>
