<svg width="71" height="72" viewBox="0 0 71 72" fill="none" xmlns="http://www.w3.org/2000/svg">
<g clip-path="url(#clip0_2860_339)">
<path d="M65.8206 0.211227C72.9821 1.73988 71.6214 12.3381 64.232 11.7187C63.528 11.6596 62.9087 11.3461 62.2304 11.2306L51.2822 20.5197L51.1676 20.7932C53.128 27.0715 44.7808 31.3163 40.944 25.9103C40.1967 24.8571 40.035 23.7051 39.8172 22.4637L30.6853 18.7071C30.5326 18.6389 30.4242 18.6568 30.2753 18.7215C29.7327 18.9573 29.1024 19.6703 28.3286 19.9701C26.3608 20.7325 24.3178 20.3231 22.5884 19.214L12.8329 24.9696L12.7218 25.1151C13.7083 31.1935 5.37498 34.3174 2.15747 29.0124C-1.21008 23.4602 5.52878 17.5322 10.6671 21.4058L20.3085 15.6748C20.568 15.3841 20.4129 14.2802 20.4809 13.7676C20.7142 12.012 21.9717 10.2728 23.5324 9.47666C27.4917 7.45684 32.0412 10.3656 31.9435 14.7563L41.1622 18.488C41.7704 18.7058 41.9298 18.1534 42.3146 17.9034C43.6183 17.0561 44.9276 16.6799 46.5074 16.8665C47.2122 16.9497 47.8556 17.3816 48.5667 17.3861L59.3313 8.187L59.4314 7.93396C58.2664 4.95743 59.9474 1.60887 62.8761 0.51855L63.8839 0.210938L65.8206 0.211227Z" fill="white"/>
<path d="M70.9391 21.2891H59.5952V71.2109H70.9391V21.2891Z" fill="white"/>
<path d="M31.9273 28.2227H20.4451V71.211H31.9273V28.2227Z" fill="white"/>
<path d="M51.4334 37.375H39.9512V71.2109H51.4334V37.375Z" fill="white"/>
<path d="M12.2831 44.4453H0.939209V71.2089H12.2831V44.4453Z" fill="white"/>
</g>
<defs>
<clipPath id="clip0_2860_339">
<rect width="70" height="71" fill="white" transform="translate(0.939209 0.210938)"/>
</clipPath>
</defs>
</svg>
