<svg width="29" height="26" viewBox="0 0 29 26" fill="none" xmlns="http://www.w3.org/2000/svg">
<path fill-rule="evenodd" clip-rule="evenodd" d="M0.854248 4.5C0.854248 2.15279 2.75704 0.25 5.10425 0.25H24.2292C26.5765 0.25 28.4792 2.15279 28.4792 4.5V21.5C28.4792 23.8472 26.5765 25.75 24.2292 25.75H5.10425C2.75704 25.75 0.854248 23.8472 0.854248 21.5V4.5ZM6.47795 5.8737C6.89288 5.45877 7.56562 5.45877 7.98055 5.8737L11.168 9.0612C11.583 9.47613 11.583 10.1489 11.168 10.5638L7.98055 13.7513C7.56562 14.1662 6.89288 14.1662 6.47795 13.7513C6.06301 13.3364 6.06301 12.6636 6.47795 12.2487L8.91415 9.8125L6.47795 7.3763C6.06301 6.96137 6.06301 6.28863 6.47795 5.8737ZM12.5417 11.9375C11.9549 11.9375 11.4792 12.4132 11.4792 13C11.4792 13.5868 11.9549 14.0625 12.5417 14.0625H16.7917C17.3785 14.0625 17.8542 13.5868 17.8542 13C17.8542 12.4132 17.3785 11.9375 16.7917 11.9375H12.5417Z" fill="#EE2B2A"/>
</svg>
