<svg width="31" height="31" viewBox="0 0 31 31" fill="none" xmlns="http://www.w3.org/2000/svg">
<path d="M15.3553 27.0741C18.4986 27.0741 21.5132 25.8254 23.7359 23.6027C25.9585 21.3801 27.2072 18.3655 27.2072 15.2222C27.2072 12.0789 25.9585 9.06433 23.7359 6.84168C21.5132 4.61902 18.4986 3.37035 15.3553 3.37035C12.212 3.37035 9.19747 4.61902 6.97482 6.84168C4.75216 9.06433 3.50349 12.0789 3.50349 15.2222C3.50349 18.3655 4.75216 21.3801 6.97482 23.6027C9.19747 25.8254 12.212 27.0741 15.3553 27.0741ZM15.3553 0.407387C17.3008 0.407387 19.2273 0.790583 21.0247 1.5351C22.8221 2.27961 24.4553 3.37086 25.831 4.74655C27.2067 6.12223 28.2979 7.7554 29.0424 9.55282C29.787 11.3502 30.1702 13.2767 30.1702 15.2222C30.1702 19.1513 28.6093 22.9195 25.831 25.6979C23.0527 28.4762 19.2845 30.037 15.3553 30.037C7.16275 30.037 0.540527 23.3703 0.540527 15.2222C0.540527 11.2931 2.10137 7.52486 4.87969 4.74655C7.658 1.96823 11.4262 0.407387 15.3553 0.407387ZM16.0961 7.81479V15.5926L22.7627 19.5481L21.6516 21.3703L13.8739 16.7037V7.81479H16.0961Z" fill="#D9232A"/>
</svg>
