<svg width="31" height="34" viewBox="0 0 31 34" fill="none" xmlns="http://www.w3.org/2000/svg">
<path d="M2.45192 32.0962C4.67178 34.3303 7.54622 34.3588 9.73763 32.1674C11.4879 30.4171 13.1813 26.4612 14.4762 24.4833L17.9198 27.9411C18.9728 29.0083 20.2536 29.0083 21.2496 27.9838L22.4734 26.7601C23.5122 25.707 23.498 24.5117 22.4308 23.4445L11.1179 12.1174C10.0365 11.0502 8.82692 11.036 7.78813 12.0748L6.56437 13.2985C5.53981 14.3231 5.53981 15.5611 6.60705 16.6283L10.0507 20.072C8.08696 21.3669 4.14528 23.0603 2.38077 24.8105C0.203593 27.002 0.217822 29.8906 2.45192 32.0962ZM6.25131 30.2464C5.26944 30.2464 4.4868 29.4495 4.4868 28.4818C4.4868 27.5143 5.26944 26.7315 6.25131 26.7315C7.21894 26.7315 8.00158 27.5143 8.00158 28.4818C8.00158 29.4495 7.21894 30.2464 6.25131 30.2464ZM24.1241 22.7898L29.6453 17.2687C31.2247 15.6892 31.1821 13.8108 29.5742 12.1743L28.8484 11.4344C27.3685 13.3554 23.1422 15.6038 22.3311 14.7927C22.2031 14.6646 22.1888 14.4085 22.3738 14.2092C24.0956 12.4875 25.2197 10.8083 25.476 8.07615L18.1617 0.747746C16.8098 -0.604095 14.462 -0.162968 13.8216 2.39842C12.9251 6.04128 12.114 8.16153 11.2318 9.91181L24.1241 22.7898Z" fill="#EE2B2A"/>
</svg>
