<svg width="18" height="18" viewBox="0 0 18 18" fill="none" xmlns="http://www.w3.org/2000/svg">
<path d="M8.99996 0.666672C13.6025 0.666672 17.3333 4.39751 17.3333 9C17.3333 13.6025 13.6025 17.3333 8.99996 17.3333C4.39746 17.3333 0.666626 13.6025 0.666626 9C0.666626 4.39751 4.39746 0.666672 8.99996 0.666672ZM8.99996 2.33334C7.23185 2.33334 5.53616 3.03572 4.28591 4.28596C3.03567 5.5362 2.33329 7.23189 2.33329 9C2.33329 10.7681 3.03567 12.4638 4.28591 13.7141C5.53616 14.9643 7.23185 15.6667 8.99996 15.6667C10.7681 15.6667 12.4638 14.9643 13.714 13.7141C14.9642 12.4638 15.6666 10.7681 15.6666 9C15.6666 7.23189 14.9642 5.5362 13.714 4.28596C12.4638 3.03572 10.7681 2.33334 8.99996 2.33334ZM8.99996 11.5C9.22097 11.5 9.43293 11.5878 9.58921 11.7441C9.74549 11.9004 9.83329 12.1123 9.83329 12.3333C9.83329 12.5544 9.74549 12.7663 9.58921 12.9226C9.43293 13.0789 9.22097 13.1667 8.99996 13.1667C8.77894 13.1667 8.56698 13.0789 8.4107 12.9226C8.25442 12.7663 8.16663 12.5544 8.16663 12.3333C8.16663 12.1123 8.25442 11.9004 8.4107 11.7441C8.56698 11.5878 8.77894 11.5 8.99996 11.5ZM8.99996 4.00001C9.22097 4.00001 9.43293 4.0878 9.58921 4.24408C9.74549 4.40036 9.83329 4.61232 9.83329 4.83334V9.83334C9.83329 10.0544 9.74549 10.2663 9.58921 10.4226C9.43293 10.5789 9.22097 10.6667 8.99996 10.6667C8.77894 10.6667 8.56698 10.5789 8.4107 10.4226C8.25442 10.2663 8.16663 10.0544 8.16663 9.83334V4.83334C8.16663 4.61232 8.25442 4.40036 8.4107 4.24408C8.56698 4.0878 8.77894 4.00001 8.99996 4.00001Z" fill="white"/>
</svg>
