<svg width="18" height="19" viewBox="0 0 18 19" fill="none" xmlns="http://www.w3.org/2000/svg">
<path d="M18 1.69521C17.9774 1.95085 17.9513 2.20623 17.9329 2.46217C17.786 4.50946 17.4452 6.52285 16.8721 8.49477C16.4564 9.92523 15.9049 11.301 15.156 12.5913C14.5293 13.6713 13.7879 14.6654 12.8264 15.4728C11.813 16.3237 10.6431 16.8414 9.32866 17.0177C7.76334 17.2277 6.2874 16.9487 4.91591 16.1657C4.54153 15.952 4.19759 15.685 3.78116 15.4028C3.76141 15.4367 3.73667 15.5091 3.68811 15.5579C2.77896 16.4714 1.86615 17.3811 0.956406 18.294C0.79576 18.4552 0.614655 18.5424 0.387583 18.4795C0.0233408 18.3786 -0.118021 17.95 0.111095 17.6485C0.15336 17.5929 0.205104 17.5441 0.254721 17.4945C1.14903 16.5993 2.04338 15.7042 2.9391 14.8104C2.98424 14.7654 3.04172 14.7327 3.09068 14.6963C2.86188 14.3697 2.64174 14.0828 2.45084 13.7776C1.92605 12.9387 1.60388 12.0259 1.47589 11.0426C1.32085 9.85142 1.46091 8.69868 1.89525 7.58033C2.26115 6.6382 2.8152 5.81987 3.53962 5.11885C5.09823 3.61055 6.97975 2.65442 9.00435 1.94871C10.4874 1.43179 12.0095 1.06612 13.5644 0.856063C14.5895 0.717572 15.6226 0.638263 16.6521 0.5314C16.7035 0.526064 16.7539 0.510697 16.8047 0.5C17.0742 0.5 17.3438 0.5 17.6133 0.5C17.7904 0.580675 17.9193 0.709559 18 0.886685V1.69521ZM16.93 1.58638C16.8429 1.58638 16.7908 1.5823 16.7396 1.58699C15.9939 1.65522 15.2472 1.71446 14.5029 1.7959C13.0411 1.95584 11.6092 2.26673 10.1977 2.67616C10.0848 2.7089 10.0424 2.75294 10.0428 2.8778C10.0479 4.42435 10.046 5.97092 10.0467 7.51748C10.0467 7.56509 10.0547 7.6127 10.0637 7.71355C10.1425 7.62145 10.1848 7.56484 10.2343 7.51533C11.1616 6.58673 12.0895 5.65874 13.0183 4.73161C13.0759 4.67405 13.1359 4.61527 13.2046 4.57291C13.5513 4.35912 13.9972 4.6022 14.0066 5.00841C14.011 5.19805 13.9142 5.33856 13.7846 5.46773C12.8426 6.4065 11.9029 7.34756 10.9628 8.28817C10.9193 8.33168 10.8784 8.37783 10.8281 8.43159C10.8604 8.44212 10.8754 8.45131 10.8905 8.45132C12.484 8.45238 14.0776 8.45373 15.6712 8.44836C15.7181 8.4482 15.7951 8.38453 15.8072 8.3374C16.0049 7.56836 16.2332 6.80433 16.376 6.02477C16.5643 4.99649 16.6929 3.95682 16.8291 2.91968C16.8861 2.48606 16.8966 2.04634 16.93 1.58638ZM3.84892 13.8969C4.4034 13.3429 4.95208 12.7986 5.49336 12.247C5.54144 12.198 5.56078 12.1019 5.56089 12.0275C5.56432 9.69085 5.56378 7.35416 5.56328 5.01746C5.56326 4.96287 5.5568 4.90827 5.55276 4.84431C1.98802 7.10468 1.65466 11.2848 3.84892 13.8969ZM13.6825 12.9952C13.6673 12.9771 13.6521 12.959 13.6369 12.9409C13.5964 12.9391 13.5559 12.9357 13.5155 12.9357C11.1611 12.9354 8.80666 12.9344 6.45228 12.9399C6.37149 12.9401 6.27192 12.9863 6.21311 13.0438C5.72734 13.5186 5.24972 14.0018 4.76783 14.4806C4.71173 14.5364 4.64461 14.581 4.56835 14.6423C6.06803 15.8352 7.71483 16.2504 9.54424 15.9058C10.7024 15.6876 11.7019 15.1416 12.5302 14.3081C12.9399 13.8959 13.3 13.4344 13.6825 12.9952ZM8.97647 3.09299C8.905 3.11599 8.85966 3.12586 8.81833 3.14457C8.14271 3.45059 7.46879 3.76042 6.7913 4.06222C6.66358 4.11911 6.63008 4.19713 6.63035 4.33183C6.63463 6.51711 6.63331 8.7024 6.63375 10.8877C6.63376 10.9482 6.6392 11.0086 6.6434 11.096C6.70994 11.0335 6.75263 10.9954 6.79304 10.955C7.47688 10.2718 8.15872 9.58644 8.84605 8.90668C8.9411 8.81267 8.97946 8.71854 8.97915 8.58514C8.97514 6.82755 8.97648 5.06994 8.97648 3.31233L8.97647 3.09299ZM7.39303 11.8543C7.4703 11.8604 7.50373 11.8654 7.53717 11.8654C9.7636 11.8658 11.99 11.8651 14.2165 11.868C14.3195 11.8681 14.375 11.8343 14.4178 11.7421C14.676 11.1857 14.942 10.633 15.1985 10.0759C15.2777 9.90396 15.3357 9.7223 15.4078 9.53368C15.3485 9.52878 15.314 9.52343 15.2796 9.52342C13.4691 9.52299 11.6587 9.52196 9.84824 9.52686C9.77703 9.52705 9.69035 9.56777 9.63752 9.61776C9.40356 9.83912 9.17956 10.071 8.95156 10.2987C8.44219 10.8073 7.93258 11.3158 7.39303 11.8543Z" fill="#D9D9D9"/>
</svg>
