<svg width="29" height="18" viewBox="0 0 29 18" fill="none" xmlns="http://www.w3.org/2000/svg">
<path d="M0 16.3853C0.122511 16.1803 0.229889 15.9636 0.369778 15.7719C3.03339 12.1222 5.70065 8.47525 8.36763 4.82811C8.89458 4.10749 9.51079 4.11479 10.0435 4.84393C10.5972 5.60175 11.1528 6.35814 11.7312 7.14753C11.9118 6.90533 12.0767 6.68789 12.2377 6.46753C13.5623 4.65529 14.886 2.84241 16.2103 1.02995C16.7276 0.321991 17.3481 0.322331 17.8708 1.03711C21.4948 5.99273 25.1177 10.9492 28.7401 15.9061C29.1922 16.5248 29.0396 17.2275 28.3985 17.4397C28.2335 17.4943 28.0458 17.4898 27.8685 17.4899C19.5415 17.4921 11.2146 17.4918 2.88761 17.4918C2.29283 17.4918 1.69712 17.4706 1.10354 17.4981C0.561181 17.5231 0.197893 17.3074 0 16.7922C0 16.6566 0 16.5209 0 16.3853ZM9.19952 6.73566C7.02659 9.70824 4.86541 12.6648 2.67865 15.6562H26.3325C23.2185 11.3966 20.1349 7.17851 17.0391 2.94377C15.5199 5.02132 14.0308 7.05807 12.5411 9.09432C12.0548 9.75899 11.4161 9.76259 10.933 9.10376C10.3603 8.32271 9.78878 7.54075 9.19952 6.73566Z" fill="#D9D9D9"/>
</svg>
