<svg width="25" height="26" viewBox="0 0 25 26" fill="none" xmlns="http://www.w3.org/2000/svg">
<path d="M25 12.1317V13.8881C24.9804 14.0316 24.9578 14.1746 24.9416 14.3185C24.6809 16.6372 23.8728 18.7424 22.4396 20.5881C20.4618 23.1353 17.8895 24.7278 14.7057 25.3058C14.2685 25.3852 13.826 25.436 13.386 25.5H11.6293C11.5673 25.4845 11.5061 25.4638 11.4431 25.4543C10.8659 25.3667 10.2805 25.3163 9.71208 25.1896C2.93685 23.6795 -1.32907 16.7228 0.375891 9.98052C2.23489 2.62911 10.1188 -1.43938 17.1446 1.4202C21.3622 3.13683 23.9094 6.33012 24.8047 10.8106C24.8918 11.2466 24.9359 11.6912 25 12.1317ZM1.47825 13.0645C1.49094 13.9829 1.60339 14.9569 1.87504 15.907C1.90517 16.0124 2.01103 16.1348 2.11156 16.1751C2.72576 16.4218 3.30282 16.3417 3.82693 15.9269C4.02404 15.7709 4.20935 15.5939 4.42409 15.4673C5.6229 14.7603 7.1002 14.9185 8.1546 15.8529C8.79517 16.4206 9.74479 16.4544 10.3526 15.8698C11.5319 14.7354 13.5581 14.7737 14.69 15.8849C15.2842 16.4682 16.2385 16.4469 16.8711 15.9046C18.2339 14.7361 19.8687 14.7369 21.2235 15.8989C21.717 16.3221 22.2814 16.3895 22.8913 16.1942C23.0401 16.1466 23.1102 16.0582 23.1496 15.9098C23.5355 14.4545 23.6384 12.9802 23.4279 11.4901C23.1533 9.54517 22.4167 7.79133 21.2047 6.24009C18.326 2.55571 13.593 1.12826 9.23409 2.48522C4.59592 3.92911 1.50738 8.15006 1.47825 13.0645ZM22.4856 17.8032C22.37 17.7851 22.3312 17.7746 22.2922 17.7735C21.4545 17.7493 20.7365 17.4515 20.1084 16.8893C19.4916 16.3373 18.5731 16.3751 17.9267 16.937C16.629 18.0652 14.9557 18.0685 13.6547 16.9456C12.9354 16.3247 12.0532 16.335 11.344 16.9726C10.2087 17.9933 8.38735 18.0076 7.23362 17.005C6.44553 16.3201 5.60507 16.3206 4.82849 17.0066C4.43763 17.3519 3.99259 17.597 3.47999 17.6995C3.19221 17.7571 2.89791 17.782 2.53984 17.8307C2.97042 18.5155 3.38204 19.1701 3.80218 19.8383C3.92567 19.7342 3.99926 19.6709 4.07431 19.6093C5.19257 18.6915 6.97366 18.7168 8.05587 19.6655C8.85408 20.3653 9.67617 20.3675 10.4745 19.672C11.609 18.6836 13.4682 18.6545 14.5401 19.6767C15.236 20.3404 16.3069 20.3469 17.0163 19.7006C17.8739 18.9192 18.9213 18.7468 20.0199 19.1046C20.4424 19.2422 20.8245 19.5036 21.2828 19.7382C21.6585 19.1338 22.0617 18.4853 22.4856 17.8032ZM20.2045 20.886C19.5789 20.2571 18.5915 20.2446 17.9228 20.8437C16.6831 21.9544 14.9056 21.962 13.6691 20.862C12.9706 20.2407 12.083 20.2343 11.3749 20.8437C11.2703 20.9337 11.1644 21.0234 11.0512 21.1018C9.89907 21.8991 8.34051 21.8382 7.27411 20.9281C6.8418 20.5592 6.37964 20.3469 5.80744 20.4223C5.4282 20.4722 5.10224 20.6269 4.83788 20.9112C9.06596 25.0654 15.9814 25.0749 20.2045 20.886Z" fill="#D9D9D9"/>
</svg>
