<svg width="11" height="17" viewBox="0 0 11 17" fill="none" xmlns="http://www.w3.org/2000/svg">
<path d="M4.88876 16.5C4.29952 16.3141 3.67424 16.204 3.12763 15.9285C1.29106 15.0028 0.254898 13.4613 0.0309205 11.3641C-0.0896438 10.2352 0.146548 9.18092 0.666355 8.17379C1.81098 5.95607 2.93001 3.72435 4.0559 1.49643C4.29364 1.02599 4.61631 0.662291 5.13847 0.545868C5.92372 0.37079 6.53872 0.698331 6.94736 1.50426C8.08081 3.73964 9.19679 5.98457 10.3502 8.20897C10.88 9.23056 11.0855 10.3056 10.9679 11.4353C10.8091 12.9616 10.1373 14.2296 8.98542 15.2136C8.20262 15.8823 7.30018 16.2842 6.29375 16.4398C6.23801 16.4484 6.18554 16.4794 6.13155 16.5L4.88876 16.5ZM5.49791 2.64624C5.43605 2.76219 5.38811 2.84831 5.34349 2.93622C4.28623 5.01943 3.23399 7.10534 2.1698 9.18478C1.80569 9.89625 1.70345 10.65 1.82153 11.4255C2.2436 14.1975 5.30284 15.5726 7.57301 14.0167C9.10872 12.9641 9.6791 10.8072 8.80263 9.12815C7.73126 7.07578 6.70309 4.99954 5.65571 2.9339C5.6117 2.84711 5.56227 2.76321 5.49791 2.64624Z" fill="#D9D9D9"/>
</svg>
