<svg width="26" height="16" viewBox="0 0 26 16" fill="none" xmlns="http://www.w3.org/2000/svg">
<path d="M0 10.451C0.0501743 10.2521 0.0917074 10.0506 0.151877 9.85461C0.687237 8.11107 1.86599 7.03688 3.65654 6.60177C3.72107 6.58609 3.78429 6.56521 3.84501 6.54764C3.84945 3.57241 5.94865 1.3502 8.34337 0.711008C10.7975 0.0559655 13.6036 0.923243 15.1507 3.35184C15.6673 3.17861 16.1632 2.95995 16.6828 2.8471C19.083 2.32582 21.5402 3.91314 22.0389 6.28828C22.0804 6.4862 22.1594 6.5708 22.368 6.60962C24.1968 6.94992 25.7151 8.54376 25.9586 10.3609C26.3257 13.0997 24.2042 15.4959 21.4006 15.4976C15.798 15.5011 10.1953 15.5004 4.59265 15.4978C2.32982 15.4967 0.406734 13.8692 0.0489594 11.6653C0.0398664 11.6093 0.0166429 11.5555 4.14173e-06 11.5007C4.14173e-06 11.1508 0 10.8009 0 10.451ZM5.60771 7.97533C5.07721 8.00116 4.59316 7.99449 4.11748 8.05332C2.41218 8.26418 1.2063 9.99938 1.6034 11.6439C1.94479 13.0577 3.1757 13.9995 4.69896 14.0001C10.1845 14.0022 15.67 14.0016 21.1555 13.999C21.4 13.9988 21.6462 13.9827 21.8886 13.9515C23.5912 13.7322 24.8008 12.0003 24.4031 10.3582C24.0692 8.97928 22.8591 8.02561 21.4103 8.0018C21.1517 7.99755 20.893 8.0012 20.6463 8.0012C20.6229 7.58204 20.6243 7.19789 20.5763 6.81983C20.3609 5.12247 18.6099 3.93862 16.9212 4.3293C16.3186 4.46872 15.8084 4.75687 15.3742 5.18572C15.1326 5.42421 14.8866 5.65832 14.6268 5.90975C13.7971 2.47926 10.6432 1.57133 8.68035 2.18565C7.62301 2.51657 6.77711 3.11059 6.15766 4.01197C5.31761 5.23437 5.24033 6.57066 5.60771 7.97533Z" fill="#D9D9D9"/>
</svg>
