<svg width="18" height="24" viewBox="0 0 18 24" fill="none" xmlns="http://www.w3.org/2000/svg">
<path d="M8.31306 23.5C7.94768 23.4408 7.58002 23.3927 7.21729 23.3206C5.25058 22.9302 3.60307 21.9868 2.26991 20.5202C1.09535 19.2281 0.369314 17.7162 0.107064 16.0056C-0.204633 13.9725 0.165288 12.0525 1.20331 10.2633C1.44273 9.85063 1.70332 9.44979 1.97493 9.00986C2.16158 9.39776 2.32745 9.74672 2.49707 10.0939C2.69378 10.4965 2.95165 10.854 3.31925 11.1246C3.78863 11.4701 4.31484 11.4829 4.77989 11.1652C5.12164 10.9317 5.22635 10.6372 5.09536 10.2502C5.05731 10.1379 5.00528 10.0282 4.94566 9.92504C3.89062 8.09986 4.57223 5.88371 6.50477 4.89327C7.65888 4.30178 8.13361 3.33551 8.26368 2.14767C8.31219 1.70464 8.2733 1.25238 8.2742 0.80432C8.27436 0.725227 8.27423 0.646133 8.27423 0.5C8.81703 0.854659 9.33362 1.15422 9.80679 1.50956C10.6896 2.17251 11.4141 2.97228 11.8089 4.01499C12.1205 4.83824 12.0986 5.65844 11.7994 6.48945C11.6133 7.00639 11.4679 7.54169 11.3592 8.07946C11.3082 8.33186 11.3488 8.61905 11.4146 8.87387C11.5618 9.44431 12.1629 9.6766 12.647 9.32606C12.9316 9.12 13.1541 8.81944 13.3673 8.53445C13.5037 8.35209 13.5768 8.12265 13.6694 7.91055C13.7617 7.69889 13.843 7.48253 13.9427 7.23436C14.2342 7.4662 14.5135 7.67796 14.7814 7.90294C16.5954 9.42689 17.6561 11.3558 17.9383 13.6814C18.4766 18.1165 15.4363 22.3024 10.9803 23.2789C10.5526 23.3726 10.1159 23.4272 9.68344 23.5L8.31306 23.5ZM14.4462 9.4627C14.2343 9.69967 14.0513 9.94134 13.831 10.1439C13.1684 10.7528 12.4009 11.0099 11.5051 10.7286C10.5685 10.4344 10.0004 9.6167 9.96084 8.54397C9.92879 7.675 10.1363 6.85548 10.483 6.06606C10.9221 5.06628 10.4631 3.88804 9.5165 3.09255C9.4288 3.3447 9.35184 3.60272 9.25044 3.85112C8.83992 4.85676 8.13447 5.58681 7.15236 6.0895C6.13069 6.61243 5.64097 7.61745 5.89957 8.62747C5.987 8.96894 6.18346 9.28294 6.32452 9.61181C6.81818 10.7627 6.38687 11.9051 5.24977 12.4649C4.24369 12.9602 3.16888 12.8132 2.30876 12.0617C2.20237 11.9688 2.09961 11.8718 1.97461 11.758C1.15694 13.8175 1.16894 15.8327 2.0982 17.8252C2.73143 19.1829 4.36587 20.903 5.16938 21.0858C4.74806 20.0308 4.74885 19.3465 4.8916 18.408C4.99551 17.725 5.22707 17.0785 5.51318 16.4497C5.70421 16.0298 5.7014 16.0295 6.156 16.1617C6.40732 16.2348 6.65964 16.3046 6.91224 16.376C7.44227 14.1738 9.24146 13.0443 10.7372 12.6756C10.7656 12.9368 10.7963 13.196 10.8214 13.4558C10.9059 14.3293 11.1303 15.1583 11.6254 15.901C11.9003 16.3133 12.1688 16.7302 12.4572 17.1334C13.3026 18.3152 13.3759 19.5779 12.8903 20.905C12.8668 20.9692 12.8474 21.0349 12.8178 21.125C17.224 18.5996 17.8179 12.7741 14.4462 9.4627ZM6.50396 17.6757C6.27977 18.2824 6.17353 18.887 6.19917 19.5136C6.26502 21.1222 7.7341 22.3349 9.36075 22.1185C11.713 21.8056 12.3753 19.1875 11.3033 17.8523C10.5494 16.9133 9.87692 15.899 9.63275 14.6798C9.59339 14.6947 9.56938 14.6983 9.55263 14.711C8.74663 15.324 8.27309 16.1169 8.22019 17.1278C8.20272 17.4616 8.21744 17.7969 8.21744 18.1639C7.61496 17.9922 7.07068 17.8372 6.50396 17.6757Z" fill="#D9D9D9"/>
</svg>
