<svg width="18" height="21" viewBox="0 0 18 21" fill="none" xmlns="http://www.w3.org/2000/svg">
<path d="M9.20205 0.5C9.28854 0.554301 9.38154 0.600726 9.46023 0.664488C9.64483 0.814068 9.72206 1.01232 9.72077 1.24901C9.71703 1.93231 9.71945 2.61565 9.71945 3.34045C9.79897 3.2872 9.85552 3.2526 9.90854 3.21333C10.424 2.83152 10.9362 2.44522 11.4551 2.06812C11.7137 1.88025 11.9961 1.8715 12.2673 2.03854C12.5409 2.20713 12.6394 2.46547 12.5911 2.77811C12.5569 2.99954 12.4149 3.14786 12.2414 3.27631C11.4524 3.86061 10.6664 4.4491 9.87461 5.0297C9.76276 5.11171 9.71614 5.19482 9.71676 5.33434C9.72221 6.55831 9.71991 7.78232 9.71991 9.00631C9.71991 9.06895 9.71991 9.13159 9.71991 9.21999C9.79184 9.1838 9.838 9.164 9.88075 9.13858C10.9667 8.49287 12.0534 7.8482 13.1355 7.19623C13.1991 7.15793 13.2571 7.06341 13.2654 6.98934C13.3768 5.98759 13.4796 4.98488 13.5832 3.98228C13.6286 3.54246 13.9725 3.26083 14.4084 3.30957C14.8209 3.3557 15.0771 3.71864 15.0276 4.17653C14.9591 4.81012 14.8955 5.44425 14.8304 6.07819C14.8278 6.10319 14.83 6.12869 14.83 6.17551C14.8854 6.14887 14.9307 6.13106 14.972 6.1066C15.5408 5.76953 16.1064 5.4272 16.6784 5.09547C17.0015 4.90808 17.3722 4.97829 17.6033 5.25185C17.8227 5.51161 17.8264 5.90875 17.5994 6.16721C17.528 6.2486 17.4325 6.31359 17.3384 6.37045C16.8174 6.68512 16.2934 6.99477 15.7708 7.30673C15.71 7.34299 15.6515 7.38287 15.5705 7.43478C16.2406 7.70635 16.8902 7.96157 17.533 8.23269C18.0626 8.45609 18.1605 9.11208 17.7222 9.45665C17.4833 9.64453 17.2189 9.65187 16.9425 9.54007C16.0324 9.17187 15.1202 8.80861 14.2123 8.43501C14.064 8.37396 13.9545 8.38186 13.8155 8.46583C12.751 9.10881 11.6807 9.74232 10.6124 10.3791C10.5573 10.412 10.5038 10.4477 10.4311 10.4938C10.4838 10.533 10.5207 10.5657 10.5623 10.5905C11.6638 11.2483 12.7665 11.9042 13.8668 12.564C13.9659 12.6234 14.046 12.6308 14.1566 12.5855C15.0953 12.201 16.0358 11.8206 16.9789 11.4467C17.5363 11.2257 18.066 11.6235 17.9933 12.2037C17.9552 12.5074 17.7573 12.6846 17.4839 12.7945C16.8949 13.031 16.3062 13.2685 15.7176 13.5059C15.6761 13.5226 15.6358 13.542 15.57 13.5712C15.7772 13.6956 15.9666 13.8097 16.1563 13.9231C16.5833 14.1782 17.0141 14.4272 17.4364 14.6898C17.7299 14.8723 17.8404 15.2138 17.7288 15.5259C17.6161 15.8413 17.3128 16.0439 16.9767 15.9998C16.8455 15.9826 16.7129 15.9223 16.5967 15.8549C16.0146 15.5169 15.4378 15.1701 14.8215 14.8042C14.845 15.0731 14.8621 15.3079 14.8865 15.5419C14.9317 15.9753 14.9827 16.408 15.0283 16.8413C15.0763 17.2971 14.8068 17.6547 14.3905 17.6926C13.9405 17.7336 13.6243 17.4364 13.5782 16.9609C13.4817 15.9642 13.3731 14.9686 13.2642 13.9731C13.2584 13.9196 13.2167 13.8511 13.1709 13.8237C12.0535 13.1542 10.9332 12.4893 9.81318 11.8241C9.79261 11.8118 9.7682 11.806 9.71968 11.787V11.9931C9.71968 13.2171 9.72192 14.4411 9.71659 15.6651C9.71599 15.804 9.76081 15.888 9.87317 15.9703C10.6705 16.5545 11.4631 17.145 12.2555 17.7357C12.6751 18.0485 12.7231 18.5801 12.3641 18.8932C12.0921 19.1305 11.7272 19.1363 11.4068 18.9005C10.9113 18.5357 10.4191 18.1665 9.92507 17.7997C9.86903 17.7581 9.81046 17.7198 9.72985 17.6639C9.72553 17.7524 9.71997 17.814 9.7199 17.8755C9.71922 18.4941 9.7216 19.1126 9.71869 19.7311C9.71654 20.1861 9.42694 20.4965 9.00942 20.5C8.58276 20.5035 8.27788 20.1925 8.27313 19.7318C8.26688 19.1263 8.27148 18.5208 8.27141 17.9153C8.2714 17.8452 8.27141 17.7751 8.27141 17.6689C8.19052 17.7223 8.13718 17.7541 8.08756 17.7909C7.57724 18.1686 7.07225 18.5537 6.55626 18.9237C6.08979 19.2581 5.48785 19.011 5.39964 18.4516C5.35395 18.1619 5.47954 17.9344 5.71379 17.7605C6.52314 17.1595 7.33275 16.5589 8.13764 15.9521C8.20046 15.9047 8.26529 15.8111 8.2657 15.7386C8.27301 14.4496 8.27052 13.1605 8.2696 11.8714C8.26959 11.8524 8.26265 11.8333 8.25571 11.7978C8.20639 11.8212 8.16017 11.8388 8.11836 11.8637C7.0438 12.5026 5.97099 13.1445 4.89365 13.7788C4.77781 13.847 4.72923 13.9283 4.7169 14.053C4.64906 14.739 4.57866 15.4247 4.50725 16.1103C4.47155 16.453 4.44358 16.7971 4.3908 17.1374C4.33266 17.5122 3.98394 17.7618 3.60695 17.7226C3.24037 17.6845 2.94531 17.3751 2.97191 17.0026C3.01682 16.3737 3.09232 15.747 3.15428 15.1193C3.16314 15.0295 3.16825 14.9394 3.17802 14.8111C3.0899 14.86 3.02889 14.8919 2.96981 14.927C2.42375 15.251 1.88167 15.5819 1.33109 15.8983C0.856181 16.1711 0.304164 15.9057 0.234909 15.3704C0.194177 15.0556 0.340824 14.8176 0.613657 14.6556C1.15404 14.3347 1.69467 14.0142 2.2348 13.6929C2.29569 13.6567 2.35405 13.6163 2.43304 13.5653C1.76286 13.294 1.11461 13.0326 0.467209 12.7691C0.210473 12.6646 0.0518578 12.4782 0.0153393 12.2021C-0.0219851 11.9198 0.0748391 11.6873 0.30824 11.521C0.542215 11.3543 0.794905 11.3544 1.05599 11.4601C1.96586 11.8286 2.87788 12.1919 3.78554 12.5657C3.93347 12.6266 4.04336 12.6199 4.18219 12.5361C5.24156 11.8971 6.30655 11.2671 7.3697 10.6342C7.43131 10.5975 7.49208 10.5594 7.58336 10.5036C7.51624 10.4591 7.46719 10.4237 7.41536 10.3929C6.32411 9.74311 5.23166 9.09532 4.14243 8.44225C4.03619 8.37856 3.95175 8.3712 3.83561 8.41876C2.90292 8.80067 1.96778 9.17679 1.03186 9.55089C0.704944 9.68156 0.382536 9.60422 0.172906 9.35741C-0.0190673 9.13139 -0.0666516 8.778 0.109225 8.54126C0.212201 8.40266 0.369131 8.27922 0.528773 8.2104C1.14742 7.94374 1.77689 7.70173 2.4343 7.43771C2.35701 7.38848 2.30187 7.35143 2.24489 7.31738C1.68853 6.98495 1.12948 6.65687 0.576227 6.31944C0.271812 6.13379 0.155172 5.79267 0.267988 5.47219C0.376442 5.1641 0.689938 4.95793 1.02361 5.0004C1.14881 5.01634 1.27623 5.07124 1.38669 5.13535C1.91891 5.4443 2.44557 5.76264 2.97458 6.07704C3.02917 6.10948 3.08617 6.13795 3.17956 6.1886C3.15614 5.93889 3.13692 5.72312 3.11547 5.50758C3.06783 5.02875 3.00808 4.5508 2.97405 4.07105C2.94383 3.64514 3.21288 3.33629 3.6247 3.28658C3.9954 3.24184 4.34894 3.51576 4.40117 3.929C4.48921 4.62563 4.55204 5.32539 4.62561 6.02381C4.66036 6.35361 4.69118 6.68391 4.7342 7.01264C4.74203 7.07246 4.78653 7.14829 4.83732 7.17882C5.94805 7.84649 7.06206 8.50884 8.17567 9.17182C8.19654 9.18424 8.22026 9.19196 8.262 9.21045C8.26572 9.12933 8.27105 9.06684 8.27107 9.00435C8.27156 7.78035 8.26919 6.55635 8.27457 5.33238C8.27517 5.19413 8.23312 5.10837 8.12061 5.02571C7.31344 4.43276 6.51001 3.83478 5.70866 3.23412C5.38449 2.99114 5.29979 2.62555 5.47912 2.30167C5.69494 1.91188 6.18404 1.8066 6.56247 2.08061C7.07146 2.44916 7.57292 2.82794 8.07794 3.20189C8.12894 3.23965 8.18222 3.27438 8.25998 3.3282C8.26471 3.23319 8.2709 3.16556 8.27099 3.09791C8.27178 2.54451 8.28743 1.99052 8.26635 1.4379C8.24967 1.00045 8.39121 0.67907 8.80776 0.500005C8.93919 0.500005 9.07062 0.5 9.20205 0.5Z" fill="#D9D9D9"/>
</svg>
