<svg width="36" height="36" viewBox="0 0 36 36" fill="none" xmlns="http://www.w3.org/2000/svg">
<path d="M35.5925 17.5461C35.5925 27.237 27.7373 35.0923 18.0461 35.0923C8.35489 35.0923 0.5 27.237 0.5 17.5461C0.5 7.8551 8.35526 0 18.0461 0C27.7369 0 35.5925 7.85526 35.5925 17.5461Z" fill="#D24103"/>
<path d="M13.1119 18.5222C13.1119 19.9341 12.3054 21.0801 11.31 21.0801C10.3155 21.0801 9.50854 19.9341 9.50854 18.5222C9.50854 17.1095 10.3155 15.9647 11.31 15.9647C12.3054 15.9647 13.1119 17.1095 13.1119 18.5222Z" fill="#562912"/>
<path d="M26.5827 18.5222C26.5827 19.9341 25.7766 21.0801 24.7809 21.0801C23.7859 21.0801 22.979 19.9341 22.979 18.5222C22.979 17.1095 23.7859 15.9647 24.7809 15.9647C25.7766 15.9647 26.5827 17.1095 26.5827 18.5222Z" fill="#562912"/>
<path d="M14.175 16.8411C13.962 16.8411 13.764 16.7015 13.7007 16.4862C13.1713 14.6873 11.3706 13.3144 9.22116 13.0707C8.95033 13.0406 8.75512 12.7955 8.78561 12.5235C8.8165 12.2523 9.05919 12.0549 9.33282 12.0884C11.8719 12.3762 14.0088 14.032 14.6502 16.2074C14.7269 16.4695 14.5773 16.7441 14.3152 16.8217C14.2685 16.8358 14.221 16.8411 14.175 16.8411Z" fill="#562912"/>
<path d="M21.9169 16.8411C21.8706 16.8411 21.8239 16.8358 21.7768 16.8217C21.5143 16.7441 21.365 16.4696 21.4426 16.2074C22.0824 14.032 24.2189 12.3762 26.7592 12.0884C27.0348 12.0561 27.2751 12.2523 27.3056 12.5235C27.3365 12.7955 27.1416 13.0396 26.8704 13.0707C24.7209 13.3144 22.9206 14.6873 22.3909 16.4862C22.3275 16.7016 22.1304 16.8411 21.9169 16.8411Z" fill="#562912"/>
<path d="M21.5779 26.8002C21.3831 26.8002 21.1879 26.7292 21.0347 26.5863C20.3002 25.9012 19.2969 25.5015 18.2097 25.4601C17.0041 25.407 15.8583 25.8214 15.0636 26.5796C14.7449 26.8837 14.2405 26.8716 13.9364 26.5533C13.6327 26.2347 13.6442 25.7299 13.963 25.4259C15.0672 24.3723 16.6394 23.8045 18.2715 23.8669C19.74 23.9227 21.1075 24.4739 22.1215 25.4193C22.4438 25.7196 22.4608 26.2244 22.1611 26.5461C22.0043 26.7148 21.7913 26.8002 21.5779 26.8002Z" fill="#562912"/>
</svg>
