<svg width="36" height="36" viewBox="0 0 36 36" fill="none" xmlns="http://www.w3.org/2000/svg">
<path d="M35.546 17.5468C35.546 27.238 27.6907 35.0921 17.9995 35.0921C8.30834 35.0921 0.453857 27.238 0.453857 17.5468C0.453857 7.85566 8.30794 0 17.9995 0C27.6911 0 35.546 7.85603 35.546 17.5468Z" fill="#FFCE00"/>
<path d="M27.3828 14.7964C27.3828 16.3409 26.5545 17.5925 25.531 17.5925C24.5083 17.5925 23.6785 16.3409 23.6785 14.7964C23.6785 13.2519 24.5083 11.9991 25.531 11.9991C26.5545 11.9991 27.3828 13.2523 27.3828 14.7964Z" fill="#562912"/>
<path d="M12.7262 14.7963C12.7262 16.3409 11.8971 17.5924 10.8741 17.5924C9.851 17.5924 9.02148 16.3409 9.02148 14.7963C9.02148 13.2518 9.85096 11.9991 10.8741 11.9991C11.8972 11.9991 12.7262 13.2522 12.7262 14.7963Z" fill="#562912"/>
<path d="M24.2885 27.0416H11.0823C10.6921 27.0416 10.3748 26.6576 10.3748 26.1845C10.3748 25.7093 10.6921 25.3257 11.0823 25.3257H24.2885C24.679 25.3257 24.9961 25.7093 24.9961 26.1845C24.9961 26.6576 24.679 27.0416 24.2885 27.0416Z" fill="#562912"/>
</svg>
