<svg width="36" height="36" viewBox="0 0 36 36" fill="none" xmlns="http://www.w3.org/2000/svg">
<path d="M35.5693 17.5464C35.5693 27.2372 27.7143 35.0921 18.023 35.0921C8.33182 35.0921 0.476807 27.2372 0.476807 17.5464C0.476807 7.85566 8.33227 0 18.023 0C27.7138 0 35.5693 7.85526 35.5693 17.5464Z" fill="#FFCE00"/>
<path d="M24.8027 24.6407C24.5931 24.6407 24.3839 24.5643 24.2184 24.4107C22.7904 23.0808 20.8472 22.3039 18.7474 22.2232C16.4134 22.1349 14.1914 22.9283 12.6465 24.4036C12.3042 24.731 11.7608 24.7175 11.4332 24.3751C11.1057 24.0325 11.1188 23.4889 11.4615 23.1623C13.3404 21.3687 16.0234 20.3995 18.8129 20.5084C21.3239 20.6046 23.6591 21.5438 25.3877 23.1544C25.7346 23.4779 25.7542 24.0211 25.4311 24.3675C25.2622 24.5489 25.0328 24.6407 24.8027 24.6407Z" fill="#562912"/>
<path d="M29.0221 19.62C28.9689 19.62 28.9153 19.6129 28.8616 19.5966L25.1349 18.509C24.9106 18.4433 24.7483 18.2477 24.7261 18.0153C24.7033 17.7825 24.8245 17.5596 25.0323 17.4515C25.0323 17.4515 27.9316 15.9525 28.7992 15.49C29.0784 15.3404 29.4242 15.4465 29.5733 15.7252C29.7219 16.004 29.6162 16.3508 29.3375 16.4997C28.8499 16.7594 27.7237 17.3458 26.8263 17.811L29.1823 18.4987C29.4854 18.587 29.6596 18.9045 29.5711 19.2079C29.4983 19.4573 29.2702 19.62 29.0221 19.62Z" fill="#562912"/>
<path d="M7.99601 19.62C7.74817 19.62 7.51991 19.4572 7.44705 19.2078C7.35834 18.9045 7.53235 18.587 7.83586 18.4986L10.1916 17.8109C9.29485 17.3457 8.16783 16.7593 7.68046 16.4996C7.40193 16.3507 7.29619 16.0039 7.44466 15.7252C7.59297 15.4464 7.93799 15.3403 8.21892 15.49C9.08678 15.9525 11.9856 17.4514 11.9856 17.4514C12.1935 17.5595 12.315 17.782 12.2923 18.0153C12.2697 18.2476 12.1077 18.4432 11.8833 18.5089L8.15636 19.5966C8.10312 19.6128 8.04908 19.62 7.99601 19.62Z" fill="#562912"/>
<path d="M29.8677 13.5246C29.8388 13.5246 29.8095 13.5222 29.7802 13.5179C26.9277 13.078 25.4947 10.7642 25.4355 10.6656C25.2714 10.3956 25.3577 10.0444 25.6275 9.88006C25.8981 9.71537 26.2487 9.80205 26.4128 10.0721C26.4348 10.1065 27.6513 12.0316 29.9544 12.3867C30.2666 12.4354 30.4806 12.7272 30.4327 13.0396C30.3887 13.3227 30.1455 13.5246 29.8677 13.5246Z" fill="#562912"/>
<path d="M7.15056 13.5246C6.87279 13.5246 6.6293 13.3227 6.58535 13.0396C6.53726 12.7272 6.75185 12.4354 7.06384 12.3867C9.39467 12.0272 10.593 10.0919 10.6048 10.0721C10.768 9.80205 11.1188 9.71496 11.3906 9.88005C11.6606 10.0444 11.7467 10.3956 11.5828 10.6656C11.5236 10.7642 10.0905 13.078 7.23805 13.5179C7.20874 13.5222 7.17942 13.5246 7.15056 13.5246Z" fill="#562912"/>
</svg>
