<svg width="36" height="36" viewBox="0 0 36 36" fill="none" xmlns="http://www.w3.org/2000/svg">
<path d="M17.977 35.0926C27.6675 35.0926 35.5233 27.2369 35.5233 17.5463C35.5233 7.85575 27.6675 0 17.977 0C8.28641 0 0.430664 7.85575 0.430664 17.5463C0.430664 27.2369 8.28641 35.0926 17.977 35.0926Z" fill="#FFCE00"/>
<path d="M27.2936 11.4763C27.2936 12.0187 27.1813 12.5226 26.9856 12.9424C26.86 13.2127 26.5167 13.3299 26.2778 13.1531C26.0191 12.9623 25.7241 12.8549 25.4113 12.8549C25.1023 12.8549 24.8095 12.9616 24.5512 13.1531C24.3124 13.3299 23.968 13.2127 23.843 12.9424C23.6469 12.5226 23.5344 12.0187 23.5344 11.4763C23.5344 10.0058 24.3758 8.8103 25.4113 8.8103C26.452 8.8103 27.2936 10.0058 27.2936 11.4763Z" fill="#562912"/>
<path d="M12.4191 11.4763C12.4191 12.0187 12.3066 12.5226 12.112 12.9424C11.9859 13.2127 11.642 13.3299 11.4035 13.1531C11.1455 12.9623 10.8499 12.8549 10.5376 12.8549C10.2285 12.8549 9.93456 12.9616 9.67682 13.1531C9.43827 13.3299 9.09382 13.2127 8.96829 12.9424C8.77312 12.5226 8.66064 12.0187 8.66064 11.4763C8.66064 10.0058 9.50143 8.8103 10.5376 8.8103C11.5783 8.8103 12.4191 10.0058 12.4191 11.4763Z" fill="#562912"/>
<path d="M9.05605 18.3339C8.5362 18.3339 8.17748 18.8331 8.31569 19.3342C9.23384 22.6802 13.2022 25.1991 17.9718 25.1991C22.7707 25.1991 26.7591 22.6479 27.645 19.2708C27.7703 18.7939 27.3831 18.3339 26.8896 18.3339H9.05605Z" fill="#562912"/>
<path d="M17.9709 19.6448C20.5744 19.6448 22.9613 19.1525 24.8558 18.3335H11.0847C12.9793 19.1525 15.3667 19.6448 17.9709 19.6448Z" fill="white"/>
<path d="M18.1356 23.3765C16.7521 23.3765 15.508 23.9112 14.6267 24.7644C15.6708 25.0445 16.7966 25.1991 17.9717 25.1991C19.2435 25.1991 20.4544 25.015 21.57 24.6892C20.693 23.8791 19.4788 23.3765 18.1356 23.3765Z" fill="#CC342F"/>
</svg>
