<svg width="71" height="71" viewBox="0 0 71 71" fill="none" xmlns="http://www.w3.org/2000/svg">
<g clip-path="url(#clip0_2862_4023)">
<path d="M70.246 61.1284C70.1117 61.6767 69.9897 62.2283 69.841 62.7727C69.0944 65.5067 67.5352 67.6631 65.1836 69.237C62.3082 71.1614 58.5864 69.5914 57.9 66.194C57.8593 65.9925 57.6144 65.7107 57.4278 65.6783C54.0829 65.0989 50.7334 64.5454 47.3819 64.0047C46.7589 63.9042 46.123 63.8838 45.4653 63.8239C45.0943 66.5884 44.1857 68.9851 41.3113 69.8453C38.8521 70.5812 36.7895 69.7012 35.14 67.7241C33.4375 69.7411 31.3417 70.5705 28.7896 69.7867C26.5796 69.108 25.4697 67.4015 24.7882 63.8196C23.671 63.9293 22.5337 63.9801 21.418 64.1626C18.6073 64.6222 15.8072 65.146 13.0006 65.6312C12.5936 65.7016 12.4158 65.8433 12.3282 66.3026C11.7168 69.5071 8.03385 71.1181 5.28995 69.3503C1.91945 67.1787 0.188353 64.0286 0.0445534 60.0277C-0.00714658 58.5899 0.0308534 57.1486 0.0371534 55.709C0.0404534 54.9583 0.424053 54.5278 1.06195 54.5285C1.70075 54.5293 2.07015 54.9583 2.08755 55.7111C2.12965 57.5367 2.03365 59.379 2.25025 61.1838C2.58415 63.9652 4.05845 66.1322 6.44215 67.6119C8.14565 68.6694 10.3195 67.4535 10.3239 65.447C10.3424 56.9462 10.3545 48.4452 10.3129 39.9445C10.3036 38.0467 9.22165 36.7851 7.49275 36.0206C5.68645 35.2219 3.91015 34.3555 2.08735 33.5031C2.08735 33.5611 2.08735 33.7924 2.08735 34.0237C2.08735 39.4396 2.08735 44.8555 2.08695 50.2714C2.08695 50.477 2.10705 50.6868 2.07345 50.8873C1.98175 51.4351 1.61775 51.7522 1.08875 51.763C0.526553 51.7745 0.137353 51.4573 0.0492534 50.8756C0.00855342 50.6072 0.0354534 50.3283 0.0354534 50.0541C0.0350534 43.4956 0.0974534 36.9362 0.000853417 30.3792C-0.0322466 28.1301 0.898453 26.5856 2.62615 25.3664C4.95495 23.723 7.58905 22.7292 10.3219 22.0852C13.7116 21.2864 17.1521 20.7037 20.5692 20.0206C20.7823 19.978 21.0347 19.9277 21.1815 19.7887C23.0595 18.0103 25.2606 16.8965 27.8191 16.4943C27.9233 16.4779 28.0223 16.4286 28.0756 16.4107C27.5656 15.5249 27.0716 14.6589 26.5667 13.7993C26.5004 13.6865 26.39 13.5899 26.2806 13.5136C25.2111 12.7682 24.7652 11.7291 24.8113 10.4487C24.8302 9.9238 24.8182 9.3975 24.8452 8.8732C24.894 7.9248 25.3654 7.2057 26.0621 6.5856C26.4743 6.2188 26.8942 5.8204 27.1775 5.3552C30.8478 -0.672797 39.6764 -0.572297 43.2172 5.5414C43.4228 5.8964 43.7377 6.2127 44.0633 6.4688C44.8589 7.0946 45.3871 7.858 45.4313 8.8867C45.4627 9.6159 45.4585 10.3484 45.4317 11.078C45.3988 11.9732 44.9523 12.6658 44.3208 13.2784C43.9889 13.6003 43.711 13.9862 43.4504 14.3713C43.0058 15.0283 42.5941 15.7076 42.1426 16.4183C42.575 16.5107 42.9943 16.5971 43.4122 16.6901C45.1566 17.0783 46.8006 17.764 48.0941 18.9777C49.0591 19.8831 50.1414 20.1024 51.3456 20.2816C55.9982 20.9741 60.6037 21.885 64.9225 23.8387C65.9747 24.3147 66.9622 24.9522 67.9314 25.5886C69.0461 26.3205 69.7434 27.4091 70.2462 28.6272V38.6381C69.8831 39.0683 69.5073 39.4597 68.8602 39.2077C68.2215 38.959 68.18 38.4338 68.187 37.8557C68.2021 36.599 68.1917 35.342 68.1917 34.0851C68.1917 33.8316 68.1917 33.5782 68.1917 33.2147C66.4602 34.5323 64.6512 35.3331 62.7879 36.0368C61.0067 36.7095 59.9491 38.2471 59.9477 40.1548C59.9418 48.5188 59.9488 56.8827 59.9403 65.2467C59.9392 66.3307 60.3664 67.1582 61.3063 67.677C62.2869 68.2182 63.2402 68.0577 64.1402 67.4363C65.9353 66.1968 67.1951 64.5437 67.7584 62.4402C68.0266 61.4388 68.1653 60.3739 68.1731 59.3364C68.2131 53.9892 68.1904 48.6416 68.193 43.2942C68.1935 42.369 68.8065 41.8201 69.5543 42.1011C69.8128 42.1983 70.0171 42.4396 70.2462 42.615C70.2462 48.7861 70.246 54.9573 70.246 61.1284ZM43.3777 48.6237H43.382C43.382 43.7556 43.382 38.8875 43.3822 34.0194C43.3822 33.8137 43.3701 33.6066 43.3896 33.4027C43.4475 32.7954 43.918 32.3491 44.4636 32.3688C45 32.3881 45.4026 32.7995 45.4531 33.4001C45.4741 33.6499 45.4658 33.9025 45.4658 34.1538C45.4668 37.7877 45.4507 41.4218 45.4744 45.0556C45.4854 46.7441 46.585 47.8665 48.1122 47.8445C49.5984 47.8231 50.6329 46.6749 50.6343 45.0168C50.6389 39.5088 50.6501 34.0006 50.6317 28.4927C50.6157 23.6974 47.4926 19.7641 42.8235 18.7C41.3099 18.3551 39.7995 18.2767 38.2676 18.9019C36.2304 19.7333 34.0868 19.738 32.0491 18.9151C30.4937 18.287 28.9674 18.3544 27.4279 18.7065C22.8004 19.765 19.6676 23.7037 19.6466 28.4509C19.628 32.6561 19.6425 36.8615 19.6425 41.0668C19.6425 42.461 19.6257 43.8554 19.6488 45.2492C19.6691 46.473 20.3954 47.4164 21.5186 47.7546C22.5429 48.063 23.7349 47.7179 24.2858 46.7765C24.6019 46.2363 24.7818 45.5387 24.7898 44.9089C24.836 41.2984 24.8122 37.687 24.8129 34.0759C24.8129 33.8475 24.8061 33.6178 24.8262 33.3908C24.8794 32.7931 25.2873 32.382 25.8236 32.3684C26.3397 32.3553 26.8134 32.7806 26.8838 33.3441C26.912 33.5694 26.8962 33.8006 26.8962 34.029C26.8967 43.5824 26.8994 53.1358 26.8933 62.6892C26.8925 63.891 27.0202 65.0597 27.5815 66.1433C28.1605 67.261 29.0516 67.941 30.338 67.9884C32.4741 68.067 34.0695 66.482 34.0758 64.2473C34.0901 59.1507 34.0793 54.054 34.0844 48.9573C34.0847 48.6635 34.035 48.2913 34.1876 48.094C34.425 47.787 34.8169 47.4117 35.142 47.4129C35.4674 47.4141 35.8563 47.792 36.0923 48.1005C36.2442 48.2991 36.1936 48.6704 36.1941 48.9643C36.2024 54.1752 36.1871 59.3862 36.2183 64.5969C36.2283 66.2654 37.5081 67.646 39.1935 67.962C40.6764 68.2401 42.1618 67.48 42.7716 65.9422C43.1169 65.0715 43.3406 64.0925 43.3514 63.1592C43.4076 58.3146 43.3777 53.469 43.3777 48.6237ZM45.4968 61.5723C49.6242 62.2035 53.7132 62.8289 57.8543 63.4622V62.7295C57.8543 55.4171 57.8538 48.1048 57.8557 40.7924C57.8558 40.4042 57.8628 40.0152 57.8895 39.6281C58.0101 37.8775 58.7165 36.3785 60.0788 35.2969C60.8483 34.686 61.8103 34.3176 62.6854 33.8395C64.1202 33.0557 65.6492 32.4026 66.9655 31.4544C68.6269 30.2575 68.5676 28.7972 66.9589 27.5072C66.2523 26.9406 65.4693 26.4436 64.6603 26.0352C61.81 24.5964 58.746 23.7901 55.6394 23.1407C54.1649 22.8324 52.6762 22.5922 51.0618 22.297C52.1012 24.2221 52.6832 26.1026 52.6857 28.1301C52.6928 33.8657 52.6969 39.6014 52.6863 45.337C52.6812 48.1017 50.2482 50.2479 47.5073 49.8848C46.8295 49.795 46.1769 49.5154 45.4967 49.3184L45.4968 61.5723ZM24.7719 61.5752V49.253C24.5754 49.3385 24.4337 49.3961 24.2954 49.4608C21.1048 50.9526 17.5946 48.7385 17.5906 45.22C17.584 39.5545 17.5798 33.8889 17.6008 28.2235C17.6037 27.4538 17.6685 26.6611 17.8631 25.9206C18.1785 24.72 18.6251 23.5538 19.019 22.3651C15.7322 22.8457 12.4147 23.5114 9.18775 24.5836C7.14785 25.2614 5.14785 26.0364 3.44135 27.3867C1.67385 28.7854 1.61235 30.2713 3.44505 31.5613C4.78975 32.5079 6.30305 33.2574 7.82195 33.9054C11.0468 35.2813 12.4229 37.2333 12.4233 40.7528C12.4243 48.086 12.4236 55.4192 12.4236 62.7524C12.4236 63.0176 12.4236 63.2828 12.4236 63.4613C16.5625 62.8291 20.6309 62.2078 24.7719 61.5752ZM43.382 9.9662C43.4896 8.3123 42.9941 8.1289 42.1954 7.9408C37.7996 6.9059 33.3901 6.7982 28.963 7.7571C26.8975 8.2045 26.8938 8.1873 26.8967 10.2973C26.8987 11.7481 27.4165 12.0875 28.8821 11.859C30.7035 11.575 32.5413 11.3438 34.3806 11.2388C36.8043 11.1004 39.2092 11.3809 41.588 11.8826C42.8429 12.1473 43.378 11.6768 43.3819 10.3775C43.3823 10.2404 43.382 10.1033 43.382 9.9662ZM41.2932 13.9549C37.1555 13.0752 33.1205 13.0611 28.9726 13.9652C30.6143 16.3431 32.7545 17.5003 35.5016 17.3734C37.9619 17.2598 39.8734 16.1115 41.2932 13.9549ZM29.7497 5.4859C33.3818 4.8642 36.9092 4.8945 40.4907 5.4619C38.2589 2.2038 32.168 2.193 29.7497 5.4859Z" fill="white"/>
</g>
<defs>
<clipPath id="clip0_2862_4023">
<rect width="70.2461" height="69.2087" fill="white" transform="translate(0 0.894531)"/>
</clipPath>
</defs>
</svg>
