<svg width="74" height="74" viewBox="0 0 74 74" fill="none" xmlns="http://www.w3.org/2000/svg">
<g clip-path="url(#clip0_2862_4063)">
<path d="M35.9488 0.710938H37.648C39.2566 1.21464 40.4972 2.11994 41.0894 3.77764C41.1456 3.93504 41.4405 4.07324 41.6419 4.10294C47.0345 4.89754 51.933 6.89914 56.3291 10.1159C56.7436 10.4192 57.0336 10.4626 57.5075 10.2235C59.2195 9.35984 61.3123 9.74074 62.6614 11.0911C64.0169 12.448 64.3946 14.5247 63.5371 16.2448C63.3055 16.7094 63.3277 17.0028 63.6371 17.4246C66.8597 21.8179 68.8498 26.7216 69.6599 32.1104C69.6933 32.3324 69.9078 32.6179 70.1117 32.7093C71.9677 33.5418 73.0409 34.9184 73.0325 36.9828C73.0243 39.0158 71.9563 40.373 70.1331 41.2004C69.9254 41.2947 69.6949 41.5674 69.6624 41.7854C68.8517 47.2256 66.8272 52.1635 63.5711 56.5932C63.3133 56.9439 63.2979 57.1919 63.5014 57.5886C64.3954 59.331 64.0421 61.4308 62.6771 62.8118C61.2991 64.2059 59.1807 64.5607 57.3988 63.6461C57.0232 63.4533 56.7978 63.492 56.4618 63.7129C55.1243 64.592 53.7707 65.4484 52.3972 66.2699C52.0395 66.4838 51.9156 66.7039 51.9214 67.1038C51.9419 68.5192 51.9336 69.9351 51.928 71.3507C51.9228 72.646 51.364 73.2055 50.0798 73.2057C41.2318 73.2068 32.3837 73.2067 23.5357 73.2057C22.241 73.2056 21.6745 72.6509 21.6691 71.3699C21.6629 69.9306 21.6898 68.4907 21.6469 67.0527C21.6392 66.7934 21.4248 66.4493 21.2017 66.3023C19.8457 65.4081 18.4673 64.547 17.0754 63.7096C16.8671 63.5843 16.4984 63.5335 16.2896 63.6313C14.3751 64.5281 12.3524 64.2402 10.9332 62.8242C9.52206 61.4164 9.22876 59.3619 10.1243 57.4673C10.2229 57.2588 10.1878 56.8715 10.0524 56.6849C6.79686 52.1968 4.72456 47.2316 3.93516 41.7356C3.90956 41.5571 3.76576 41.3015 3.61766 41.2489C1.95986 40.6596 1.05406 39.4177 0.549561 37.8095V36.1103C1.05396 34.502 1.95836 33.2587 3.61756 32.6704C3.76566 32.6179 3.91016 32.3634 3.93576 32.1853C4.72596 26.689 6.79586 21.7222 10.0537 17.2345C10.1892 17.0478 10.2248 16.6605 10.1264 16.4519C9.22926 14.55 9.52046 12.501 10.932 11.0945C12.351 9.68064 14.3904 9.39004 16.2891 10.2871C16.498 10.3858 16.8858 10.351 17.0725 10.2154C21.5599 6.95654 26.5285 4.89084 32.0237 4.09754C32.2017 4.07184 32.4557 3.92744 32.5085 3.77924C33.0989 2.12204 34.3391 1.21404 35.9488 0.710938ZM66.6728 41.1318C64.9641 40.2111 63.9814 38.8677 63.9929 36.9243C64.0043 34.9851 65.023 33.6617 66.6721 32.7776C65.9494 27.7457 64.117 23.2117 61.1472 19.1344C60.8977 18.7918 60.688 18.6574 60.2239 18.7539C57.2033 19.3822 54.3806 16.5509 55.0026 13.524C55.0882 13.1074 55.0103 12.89 54.6742 12.6453C52.3352 10.9424 49.8162 9.58754 47.0945 8.60114C45.0987 7.87784 43.0546 7.37374 40.9676 7.09234C40.0409 8.79944 38.6968 9.77984 36.7523 9.76554C34.8124 9.75124 33.4963 8.72044 32.6113 7.07864C32.3562 7.12534 32.1489 7.16754 31.9402 7.20074C27.1535 7.96344 22.8175 9.79624 18.911 12.6628C18.6033 12.8886 18.501 13.0801 18.5806 13.4752C19.2126 16.6101 16.4513 19.3358 13.2773 18.7623C13.0516 18.7215 12.6795 18.8701 12.5418 19.0547C9.49576 23.1375 7.64876 27.7157 6.92336 32.7837C8.59536 33.6755 9.59526 35.0091 9.60426 36.9481C9.61336 38.9185 8.56746 40.2498 6.91696 41.1533C6.96496 41.4147 7.00756 41.6222 7.04066 41.8311C7.80136 46.6203 9.64336 50.9564 12.5281 54.847C12.6678 55.0354 13.0331 55.2008 13.2557 55.1618C16.4935 54.5948 19.1792 57.2717 18.5844 60.4919C18.5507 60.6745 18.5605 60.9768 18.6709 61.0569C19.6127 61.7408 20.5825 62.3861 21.668 63.1277C21.668 61.3287 21.6171 59.7265 21.6773 58.1285C21.8744 52.9016 24.354 49.1725 29.1115 46.9722C29.2723 46.8978 29.4257 46.8076 29.6063 46.7122C23.3912 41.8884 23.3983 33.559 27.9361 28.7421C32.5574 23.8365 40.165 23.595 45.0385 28.0991C50.0457 32.7268 50.5838 41.663 44.0109 46.7315C44.1915 46.8231 44.3487 46.9146 44.5147 46.9853C46.7933 47.955 48.6065 49.4815 49.962 51.5498C51.3051 53.5993 51.9162 55.8665 51.9278 58.3041C51.9351 59.8508 51.9292 61.3975 51.9292 63.1212C52.9341 62.4443 53.7978 61.8447 54.6814 61.2761C55.038 61.0467 55.0863 60.8044 55.0022 60.394C54.3813 57.366 57.2016 54.5359 60.2239 55.1639C60.6882 55.2604 60.8973 55.1278 61.1469 54.7849C64.1154 50.707 65.9497 46.1741 66.6728 41.1318ZM48.8102 70.1307C48.8274 69.9492 48.852 69.8106 48.852 69.6719C48.8522 65.6853 48.8837 61.6984 48.839 57.7123C48.7897 53.3038 45.0432 49.3697 40.6325 49.1275C38.4684 49.0087 36.2943 49.0608 34.1247 49.063C33.4677 49.0637 32.797 49.0883 32.156 49.2181C27.6768 50.125 24.7566 53.6917 24.745 58.2462C24.7355 61.9733 24.7422 65.7004 24.7442 69.4275C24.7443 69.6548 24.7657 69.882 24.7783 70.1306L48.8102 70.1307ZM27.7351 36.9659C27.7389 41.9125 31.8404 46.0165 36.7872 46.0234C41.7331 46.0303 45.843 41.9375 45.8611 36.9873C45.8793 32.0147 41.7464 27.8805 36.7727 27.896C31.8251 27.9115 27.7313 32.0199 27.7351 36.9659ZM38.2733 5.22734C38.266 4.38924 37.6228 3.75794 36.7838 3.76544C35.9453 3.77284 35.3147 4.41594 35.3224 5.25564C35.3302 6.09424 35.9737 6.72594 36.8121 6.71804C37.6501 6.71014 38.2806 6.06684 38.2733 5.22734ZM14.1538 15.7802C14.9917 15.7737 15.6235 15.1316 15.6181 14.2922C15.6127 13.4545 14.97 12.8216 14.1308 12.8277C13.292 12.8337 12.6606 13.4752 12.6666 14.3152C12.6726 15.1537 13.3153 15.7867 14.1538 15.7802ZM59.4409 15.7802C60.2793 15.7862 60.922 15.154 60.9292 14.3162C60.9364 13.4773 60.3043 12.8344 59.4659 12.8277C58.6265 12.821 57.9843 13.4525 57.9777 14.2912C57.9711 15.1304 58.6037 15.7742 59.4409 15.7802ZM5.09236 38.4357C5.93046 38.4288 6.56116 37.787 6.55546 36.9469C6.54976 36.1091 5.90706 35.4768 5.06766 35.4832C4.22886 35.4896 3.59796 36.1314 3.60466 36.9715C3.61126 37.8104 4.25366 38.4426 5.09236 38.4357ZM69.991 36.9652C69.9949 36.1263 69.3605 35.4865 68.5216 35.4832C67.6821 35.4799 67.0433 36.1139 67.0403 36.9532C67.0373 37.7933 67.6712 38.4329 68.5097 38.4357C69.3483 38.4385 69.9871 37.8043 69.991 36.9652ZM15.6177 59.5929C15.6072 58.7558 14.9604 58.1275 14.1206 58.1387C13.2827 58.1498 12.6556 58.7959 12.667 59.6365C12.6783 60.4744 13.3252 61.1029 14.1642 61.0912C15.0012 61.0796 15.6282 60.4332 15.6177 59.5929ZM60.9288 59.648C60.9462 58.8077 60.3232 58.1558 59.4868 58.1387C58.6455 58.1216 57.9947 58.744 57.9781 59.5814C57.9614 60.4223 58.5845 61.0745 59.4202 61.0912C60.2602 61.1079 60.9116 60.4848 60.9288 59.648Z" fill="white"/>
<path d="M36.7062 12.7618C40.7434 12.8249 44.4453 13.6953 47.9169 15.4953C48.711 15.907 49.0811 16.5609 48.9364 17.2463C48.7158 18.2916 47.6924 18.6916 46.5996 18.2605C44.8755 17.5804 43.166 16.7896 41.3743 16.3697C36.6017 15.2513 31.972 15.8518 27.5471 17.975C27.2923 18.0973 27.0456 18.2397 26.7834 18.3429C25.9834 18.658 25.1534 18.354 24.797 17.6296C24.4331 16.8901 24.6545 15.9935 25.4509 15.6369C27.0143 14.9368 28.5995 14.2655 30.2231 13.7245C32.3599 13.0125 34.5944 12.8041 36.7062 12.7618Z" fill="white"/>
<path d="M12.4398 36.9746C12.6532 33.0466 13.5279 29.3456 15.316 25.8695C15.7624 25.0018 16.4487 24.6395 17.1874 24.8526C18.1962 25.1436 18.5959 26.1399 18.0675 27.1864C17.1603 28.9831 16.478 30.8513 16.0903 32.8292C15.1906 37.4194 15.7576 41.824 17.7341 46.0547C17.8736 46.3533 18.0398 46.6404 18.1648 46.9447C18.4951 47.7487 18.2128 48.577 17.4981 48.9473C16.745 49.3375 15.8164 49.1076 15.4598 48.2723C14.6953 46.4814 13.8782 44.6871 13.3824 42.8148C12.8801 40.9179 12.7391 38.9252 12.4398 36.9746Z" fill="white"/>
<path d="M58.015 36.9751C57.9159 33.6812 57.184 30.5699 55.7454 27.6228C55.6524 27.4324 55.5517 27.2453 55.4677 27.051C55.0885 26.1741 55.3682 25.3197 56.1513 24.9487C56.9153 24.5868 57.7984 24.8419 58.1627 25.6985C58.9064 27.4472 59.7212 29.1939 60.2 31.0218C61.7438 36.9155 61.0084 42.6023 58.2857 48.0394C57.8497 48.91 57.1566 49.277 56.4199 49.0702C55.4068 48.7858 54.9974 47.7881 55.5239 46.7459C56.4531 44.9066 57.1794 42.9965 57.5223 40.964C57.745 39.6442 57.8547 38.3054 58.015 36.9751Z" fill="white"/>
<path d="M54.9275 37.0118C54.9301 39.726 54.3188 42.3352 53.1208 44.8093C52.6521 45.7772 51.8364 46.1342 51.0058 45.7397C50.1801 45.3475 49.9257 44.4994 50.3757 43.5232C52.3989 39.1346 52.3916 34.7537 50.3647 30.3682C49.9169 29.3993 50.192 28.5492 51.0351 28.1685C51.8513 27.8 52.6491 28.1452 53.1029 29.0735C54.3214 31.5658 54.933 34.1984 54.9275 37.0118Z" fill="white"/>
<path d="M36.6743 21.8836C34.5747 21.8709 32.4423 22.3631 30.4014 23.3029C30.0113 23.4825 29.5464 23.613 29.1265 23.5882C28.4766 23.5498 27.958 22.9486 27.8901 22.3211C27.8099 21.5799 28.0947 20.9678 28.7868 20.725C30.509 20.1207 32.2237 19.4038 34.0047 19.0779C37.7429 18.3939 41.3568 19.0171 44.7757 20.6916C45.4997 21.0462 45.8211 21.6303 45.7032 22.3479C45.5922 23.0238 45.1697 23.4994 44.5125 23.5743C44.08 23.6236 43.5817 23.4795 43.1733 23.2911C41.1538 22.3594 39.0419 21.8839 36.6743 21.8836Z" fill="white"/>
<path d="M18.6692 37.1321C18.6661 34.1919 19.2749 31.5824 20.4734 29.1085C20.9429 28.1395 21.7559 27.7833 22.5878 28.1773C23.4142 28.5688 23.6705 29.4208 23.2217 30.3931C21.2084 34.7552 21.1973 39.1147 23.2063 43.4813C23.6753 44.5006 23.421 45.3586 22.5609 45.7478C21.7279 46.1247 20.9297 45.7605 20.4593 44.7816C19.269 42.3047 18.6591 39.6952 18.6692 37.1321Z" fill="white"/>
</g>
<defs>
<clipPath id="clip0_2862_4063">
<rect width="72.483" height="72.4955" fill="white" transform="translate(0.549561 0.710938)"/>
</clipPath>
</defs>
</svg>
