<svg width="73" height="73" viewBox="0 0 73 73" fill="none" xmlns="http://www.w3.org/2000/svg">
<path d="M14.003 0.253896L59.8508 0.210938C66.735 0.841854 72.276 6.45583 72.9314 13.3344L72.9394 49.3344C72.4061 56.2393 66.6299 62.1312 59.7092 62.6079C55.447 62.9014 50.874 62.3501 46.5786 62.6329L38.5537 71.6799C37.7701 72.3339 36.6886 72.3645 35.8063 71.8785L27.5308 62.6331C23.2354 62.3503 18.6625 62.9017 14.4002 62.6081C7.54405 62.1358 1.768 56.313 1.17796 49.4765C1.72789 37.7271 0.440297 25.2958 1.16885 13.6253C1.5996 6.73249 7.18201 0.972013 14.003 0.253896ZM36.7194 14.6396C35.9161 14.7576 35.2655 15.2746 34.9337 16.0039C32.9817 20.2927 34.6002 25.5321 28.6772 27.5749C26.684 28.2622 23.1545 28.4651 21.5002 29.3734C19.9038 30.2499 19.9693 32.6756 21.6007 33.4867C24.9232 35.1383 29.1544 34.0344 31.9688 37.483C34.2428 40.2695 33.5543 44.3057 35.0294 47.011C35.9023 48.6122 38.3222 48.5469 39.1292 46.9102C40.9637 43.1896 39.5082 38.6824 43.9126 35.961C46.4735 34.3787 50.2838 34.7139 52.6095 33.4376C54.2054 32.5618 54.1404 30.134 52.509 29.3243C50.226 28.1914 46.6692 28.368 44.2779 27.0836C40.1409 24.8614 40.6306 20.5171 39.4047 16.6744C38.999 15.4026 38.2053 14.4215 36.7194 14.6396Z" fill="white"/>
</svg>
