<svg width="24" height="24" viewBox="0 0 24 24" fill="none" xmlns="http://www.w3.org/2000/svg">
<path fill-rule="evenodd" clip-rule="evenodd" d="M22.6667 2.66921H21.1067C20.8312 1.88871 20.3203 1.21285 19.6445 0.734787C18.9687 0.256724 18.1612 0 17.3333 0C16.5054 0 15.6979 0.256724 15.0221 0.734787C14.3463 1.21285 13.8355 1.88871 13.56 2.66921H1.33333C0.979711 2.66921 0.640573 2.80964 0.390524 3.05963C0.140476 3.30961 0 3.64865 0 4.00218C0 4.3557 0.140476 4.69475 0.390524 4.94473C0.640573 5.19471 0.979711 5.33515 1.33333 5.33515H13.56C13.8355 6.11565 14.3463 6.79151 15.0221 7.26957C15.6979 7.74763 16.5054 8.00436 17.3333 8.00436C18.1612 8.00436 18.9687 7.74763 19.6445 7.26957C20.3203 6.79151 20.8312 6.11565 21.1067 5.33515H22.6667C23.0203 5.33515 23.3594 5.19471 23.6095 4.94473C23.8595 4.69475 24 4.3557 24 4.00218C24 3.64865 23.8595 3.30961 23.6095 3.05963C23.3594 2.80964 23.0203 2.66921 22.6667 2.66921ZM17.3333 5.33515C17.687 5.33515 18.0261 5.19471 18.2761 4.94473C18.5262 4.69475 18.6667 4.3557 18.6667 4.00218C18.6667 3.64865 18.5262 3.30961 18.2761 3.05963C18.0261 2.80964 17.687 2.66921 17.3333 2.66921C16.9797 2.66921 16.6406 2.80964 16.3905 3.05963C16.1405 3.30961 16 3.64865 16 4.00218C16 4.3557 16.1405 4.69475 16.3905 4.94473C16.6406 5.19471 16.9797 5.33515 17.3333 5.33515ZM0 12C0 11.6465 0.140476 11.3074 0.390524 11.0574C0.640573 10.8075 0.979711 10.667 1.33333 10.667H2.89333C3.1688 9.88653 3.67965 9.21067 4.35547 8.73261C5.03128 8.25455 5.83878 7.99782 6.66667 7.99782C7.49455 7.99782 8.30205 8.25455 8.97787 8.73261C9.65368 9.21067 10.1645 9.88653 10.44 10.667H22.6667C23.0203 10.667 23.3594 10.8075 23.6095 11.0574C23.8595 11.3074 24 11.6465 24 12C24 12.3535 23.8595 12.6926 23.6095 12.9426C23.3594 13.1925 23.0203 13.333 22.6667 13.333H10.44C10.1645 14.1135 9.65368 14.7893 8.97787 15.2674C8.30205 15.7455 7.49455 16.0022 6.66667 16.0022C5.83878 16.0022 5.03128 15.7455 4.35547 15.2674C3.67965 14.7893 3.1688 14.1135 2.89333 13.333H1.33333C0.979711 13.333 0.640573 13.1925 0.390524 12.9426C0.140476 12.6926 0 12.3535 0 12ZM6.66667 13.333C7.02029 13.333 7.35943 13.1925 7.60948 12.9426C7.85952 12.6926 8 12.3535 8 12C8 11.6465 7.85952 11.3074 7.60948 11.0574C7.35943 10.8075 7.02029 10.667 6.66667 10.667C6.31305 10.667 5.97391 10.8075 5.72386 11.0574C5.47381 11.3074 5.33333 11.6465 5.33333 12C5.33333 12.3535 5.47381 12.6926 5.72386 12.9426C5.97391 13.1925 6.31305 13.333 6.66667 13.333ZM1.33333 18.6649C0.979711 18.6649 0.640573 18.8053 0.390524 19.0553C0.140476 19.3053 0 19.6443 0 19.9978C0 20.3513 0.140476 20.6904 0.390524 20.9404C0.640573 21.1904 0.979711 21.3308 1.33333 21.3308H13.56C13.8355 22.1113 14.3463 22.7872 15.0221 23.2652C15.6979 23.7433 16.5054 24 17.3333 24C18.1612 24 18.9687 23.7433 19.6445 23.2652C20.3203 22.7872 20.8312 22.1113 21.1067 21.3308H22.6667C23.0203 21.3308 23.3594 21.1904 23.6095 20.9404C23.8595 20.6904 24 20.3513 24 19.9978C24 19.6443 23.8595 19.3053 23.6095 19.0553C23.3594 18.8053 23.0203 18.6649 22.6667 18.6649H21.1067C20.8312 17.8844 20.3203 17.2085 19.6445 16.7304C18.9687 16.2524 18.1612 15.9956 17.3333 15.9956C16.5054 15.9956 15.6979 16.2524 15.0221 16.7304C14.3463 17.2085 13.8355 17.8844 13.56 18.6649H1.33333ZM18.6667 19.9978C18.6667 20.3513 18.5262 20.6904 18.2761 20.9404C18.0261 21.1904 17.687 21.3308 17.3333 21.3308C16.9797 21.3308 16.6406 21.1904 16.3905 20.9404C16.1405 20.6904 16 20.3513 16 19.9978C16 19.6443 16.1405 19.3053 16.3905 19.0553C16.6406 18.8053 16.9797 18.6649 17.3333 18.6649C17.687 18.6649 18.0261 18.8053 18.2761 19.0553C18.5262 19.3053 18.6667 19.6443 18.6667 19.9978Z" fill="#F5F5F5"/>
</svg>
