<svg width="32" height="28" viewBox="0 0 32 28" fill="none" xmlns="http://www.w3.org/2000/svg">
<path fill-rule="evenodd" clip-rule="evenodd" d="M9.67659 5.87208C10.1745 6.37 10.1745 7.17729 9.67659 7.67521L3.35315 13.9986L9.67659 20.3221C10.1745 20.82 10.1745 21.6273 9.67659 22.1252C9.17867 22.6231 8.37138 22.6231 7.87346 22.1252L0.648463 14.9002C0.150545 14.4023 0.150545 13.595 0.648463 13.0971L7.87346 5.87208C8.37138 5.37417 9.17867 5.37417 9.67659 5.87208ZM22.3235 5.87208C22.8214 5.37417 23.6287 5.37417 24.1266 5.87208L31.3516 13.0971C31.8495 13.595 31.8495 14.4023 31.3516 14.9002L24.1266 22.1252C23.6287 22.6231 22.8214 22.6231 22.3235 22.1252C21.8255 21.6273 21.8255 20.82 22.3235 20.3221L28.6469 13.9986L22.3235 7.67521C21.8255 7.17729 21.8255 6.37 22.3235 5.87208Z" fill="#EE2B2A"/>
<path fill-rule="evenodd" clip-rule="evenodd" d="M18.3417 0.417183C19.0356 0.536826 19.5011 1.19635 19.3815 1.89028L15.1315 26.5403C15.0118 27.2342 14.3523 27.6997 13.6584 27.5801C12.9645 27.4605 12.4989 26.8009 12.6186 26.107L16.8686 1.45701C16.9882 0.763089 17.6477 0.297541 18.3417 0.417183Z" fill="#EE2B2A"/>
</svg>
