<svg width="31" height="32" viewBox="0 0 31 32" fill="none" xmlns="http://www.w3.org/2000/svg">
<path d="M20.4744 14.7242C21.2738 14.7242 21.8805 13.9884 21.5578 13.257C20.5034 10.8673 18.1132 9.19922 15.3333 9.19922C15.0847 9.19922 14.8392 9.21256 14.5975 9.23856C13.8021 9.32415 13.4676 10.2176 13.8676 10.9104L15.7014 14.0867C15.9292 14.4812 16.3501 14.7242 16.8056 14.7242L20.4744 14.7242Z" fill="#EE2B2A"/>
<path d="M11.6604 12.1876C11.2603 11.4945 10.3188 11.3374 9.84563 11.9828C9.02056 13.1082 8.53333 14.4968 8.53333 15.9992C8.53333 17.5017 9.02058 18.8903 9.8457 20.0157C10.3189 20.6611 11.2604 20.504 11.6605 19.811L13.4931 16.6368C13.7209 16.2423 13.7209 15.7563 13.4931 15.3618L11.6604 12.1876Z" fill="#EE2B2A"/>
<path d="M13.8677 21.088C13.4677 21.7809 13.8022 22.6743 14.5977 22.7599C14.8393 22.7859 15.0848 22.7992 15.3333 22.7992C18.1132 22.7992 20.5034 21.1312 21.5578 18.7414C21.8805 18.01 21.2738 17.2742 20.4744 17.2742H16.8057C16.3502 17.2742 15.9293 17.5172 15.7015 17.9117L13.8677 21.088Z" fill="#EE2B2A"/>
<path fill-rule="evenodd" clip-rule="evenodd" d="M22.3535 6.38953L23.4498 4.49069C23.8019 3.88087 23.593 3.10109 22.9831 2.74901C22.3733 2.39693 21.5935 2.60587 21.2415 3.21569L20.1462 5.11268C19.0447 4.62497 17.8553 4.29954 16.6083 4.16672V1.97422C16.6083 1.27006 16.0375 0.699219 15.3333 0.699219C14.6292 0.699219 14.0583 1.27006 14.0583 1.97422V4.16672C12.8114 4.29955 11.6219 4.62497 10.5204 5.11268L9.42519 3.21573C9.0731 2.6059 8.29333 2.39696 7.6835 2.74905C7.07368 3.10113 6.86474 3.8809 7.21682 4.49073L8.3131 6.38954C7.32265 7.11434 6.44844 7.98855 5.72364 8.979L3.82447 7.88251C3.21465 7.53043 2.43487 7.73937 2.08279 8.3492C1.73071 8.95902 1.93965 9.7388 2.54947 10.0909L4.44679 11.1863C3.95908 12.2878 3.63365 13.4773 3.50083 14.7242H1.30833C0.604162 14.7242 0.0333252 15.2951 0.0333252 15.9992C0.0333252 16.7034 0.604162 17.2742 1.30833 17.2742H3.50083C3.63365 18.5212 3.95907 19.7106 4.44677 20.8121L2.54947 21.9075C1.93965 22.2596 1.73071 23.0394 2.08279 23.6492C2.43487 24.259 3.21465 24.468 3.82447 24.1159L5.72362 23.0194C6.44836 24.0098 7.32249 24.8839 8.31285 25.6087L7.21646 27.5077C6.86438 28.1175 7.07332 28.8973 7.68315 29.2494C8.29297 29.6015 9.07275 29.3925 9.42483 28.7827L10.5201 26.8856C11.6217 27.3734 12.8112 27.6989 14.0583 27.8317V30.0242C14.0583 30.7284 14.6292 31.2992 15.3333 31.2992C16.0375 31.2992 16.6083 30.7284 16.6083 30.0242V27.8317C17.8554 27.6989 19.0449 27.3734 20.1465 26.8856L21.2418 28.7828C21.5939 29.3926 22.3737 29.6015 22.9835 29.2494C23.5933 28.8974 23.8023 28.1176 23.4502 27.5077L22.3538 25.6087C23.3441 24.884 24.2182 24.0099 24.9429 23.0195L26.8419 24.1159C27.4517 24.468 28.2315 24.259 28.5836 23.6492C28.9357 23.0394 28.7267 22.2596 28.1169 21.9075L26.2198 20.8122C26.7076 19.7107 27.033 18.5212 27.1658 17.2742H29.3583C30.0625 17.2742 30.6333 16.7034 30.6333 15.9992C30.6333 15.2951 30.0625 14.7242 29.3583 14.7242H27.1658C27.033 13.4772 26.7075 12.2877 26.2198 11.1862L28.1169 10.0909C28.7267 9.7388 28.9357 8.95902 28.5836 8.3492C28.2315 7.73937 27.4517 7.53043 26.8419 7.88251L24.9429 8.97889C24.2181 7.98848 23.344 7.1143 22.3535 6.38953ZM15.3333 6.64922C13.6524 6.64922 12.075 7.09281 10.7119 7.86932C10.6945 7.88055 10.6767 7.89141 10.6585 7.9019C10.641 7.91203 10.6233 7.9217 10.6054 7.93091C9.22469 8.74175 8.07051 9.89691 7.26085 11.2784C7.25279 11.2938 7.24439 11.309 7.23564 11.3242C7.22654 11.34 7.21715 11.3555 7.20749 11.3707C6.42847 12.7354 5.98333 14.3153 5.98333 15.9992C5.98333 17.6829 6.42837 19.2627 7.20724 20.6273C7.21699 20.6427 7.22646 20.6583 7.23564 20.6742C7.24447 20.6895 7.25294 20.7049 7.26107 20.7204C8.07125 22.1027 9.22634 23.2583 10.6082 24.0691C10.6249 24.0779 10.6416 24.087 10.6581 24.0965C10.6753 24.1065 10.6922 24.1167 10.7087 24.1273C12.0725 24.9049 13.651 25.3492 15.3333 25.3492C17.0158 25.3492 18.5946 24.9048 19.9585 24.127C19.9749 24.1165 19.9915 24.1064 20.0085 24.0966C20.0249 24.0871 20.0414 24.0781 20.0579 24.0694C21.4386 23.2594 22.5929 22.1052 23.4031 20.7246C23.4119 20.7077 23.4211 20.6909 23.4307 20.6742C23.4407 20.6569 23.4511 20.6399 23.4617 20.6233C24.2392 19.2596 24.6833 17.6813 24.6833 15.9992C24.6833 14.317 24.2391 12.7385 23.4615 11.3748C23.4509 11.3582 23.4407 11.3414 23.4307 11.3242C23.4212 11.3076 23.412 11.291 23.4033 11.2742C22.5937 9.89436 21.4402 8.74062 20.0607 7.93059C20.043 7.92147 20.0255 7.91189 20.0081 7.90186C19.9902 7.89148 19.9725 7.88072 19.9552 7.86961C18.592 7.09292 17.0145 6.64922 15.3333 6.64922Z" fill="#EE2B2A"/>
</svg>
