<svg width="29" height="30" viewBox="0 0 29 30" fill="none" xmlns="http://www.w3.org/2000/svg">
<path d="M0 17.4825C0.241281 16.8103 0.730762 16.5797 1.42683 16.5829C4.96546 16.5991 8.5042 16.5902 12.0429 16.5904C12.9808 16.5905 13.4095 17.0189 13.4096 17.9563C13.4098 21.495 13.4011 25.0337 13.417 28.5723C13.4201 29.2681 13.1881 29.7573 12.5176 30H0.90625C0.449009 29.8531 0.145763 29.5522 0 29.0938V17.4825ZM2.27524 27.7163H11.1226V18.8759H2.27524V27.7163Z" fill="#DFDFDF"/>
<path d="M14.7266 0C15.1486 0.130689 15.407 0.429948 15.6286 0.800974C17.7505 4.35338 19.883 7.8995 22.0097 11.4491C22.1106 11.6176 22.2117 11.7936 22.2684 11.9796C22.4521 12.5823 22.0596 13.2361 21.4447 13.3673C21.2986 13.3985 21.1454 13.4079 20.9954 13.408C16.6649 13.4101 12.3345 13.4091 8.004 13.4108C7.65489 13.4109 7.32841 13.358 7.05952 13.1103C6.62427 12.7094 6.56295 12.1634 6.90344 11.5945C7.99263 9.77483 9.08531 7.95723 10.1763 6.13859C11.2478 4.35228 12.3244 2.56895 13.3857 0.776535C13.602 0.411196 13.862 0.127056 14.2734 7.55208e-06L14.7266 0ZM9.82706 11.1241H19.1737C17.6095 8.51735 16.0668 5.94647 14.5 3.33539C12.929 5.95396 11.389 8.52077 9.82706 11.1241Z" fill="#DFDFDF"/>
<path d="M21.6933 30C21.1365 29.867 20.5636 29.7803 20.0257 29.5931C17.1197 28.5818 15.3303 25.6852 15.6371 22.5341C15.9215 19.6134 18.3058 17.1284 21.2538 16.6804C25.0346 16.1059 28.4727 18.7082 28.9494 22.5039C28.9574 22.5682 28.9827 22.6303 28.9999 22.6934V23.8828C28.9824 23.9547 28.9576 24.0257 28.9483 24.0987C28.5972 26.8747 26.6376 29.1032 23.9306 29.7926C23.5861 29.8803 23.2323 29.9317 22.8828 30L21.6933 30ZM26.734 23.2858C26.7288 20.8477 24.7317 18.8557 22.2933 18.8563C19.8599 18.857 17.8612 20.8563 17.8574 23.2936C17.8536 25.7394 19.8627 27.7406 22.3154 27.7341C24.7525 27.7276 26.7393 25.7276 26.734 23.2858Z" fill="#DFDFDF"/>
</svg>
