<svg width="33" height="27" viewBox="0 0 33 27" fill="none" xmlns="http://www.w3.org/2000/svg">
<path d="M21.9637 19.1813L16.5087 13.7263L11.0537 19.1813" stroke="#8A8C96" stroke-width="2" stroke-linecap="round" stroke-linejoin="round"/>
<path d="M16.5085 13.7263V26" stroke="#8A8C96" stroke-width="2" stroke-linecap="round" stroke-linejoin="round"/>
<path d="M27.9505 22.4406C29.2806 21.7155 30.3314 20.568 30.9369 19.1794C31.5425 17.7907 31.6684 16.24 31.2947 14.7718C30.921 13.3037 30.069 12.0018 28.8733 11.0716C27.6775 10.1415 26.206 9.63599 24.6911 9.63499H22.9728C22.56 8.03836 21.7906 6.55609 20.7225 5.2996C19.6544 4.04312 18.3153 3.04512 16.806 2.38064C15.2967 1.71616 13.6563 1.40249 12.0083 1.46321C10.3603 1.52393 8.74753 1.95746 7.29119 2.7312C5.83485 3.50495 4.57287 4.59878 3.60012 5.93046C2.62737 7.26214 1.96916 8.79701 1.67499 10.4197C1.38081 12.0424 1.45832 13.7106 1.90169 15.299C2.34505 16.8874 3.14274 18.3546 4.23478 19.5904" stroke="#8A8C96" stroke-width="2" stroke-linecap="round" stroke-linejoin="round"/>
<path d="M21.9637 19.1813L16.5087 13.7263L11.0537 19.1813" stroke="#8A8C96" stroke-width="2" stroke-linecap="round" stroke-linejoin="round"/>
</svg>
