<svg width="32" height="26" viewBox="0 0 32 26" fill="none" xmlns="http://www.w3.org/2000/svg">
<path d="M0.181641 6.17755C0.357128 5.79571 0.674382 5.60768 1.05956 5.46887C5.66289 3.80999 10.2636 2.14384 14.8618 0.47074C15.2127 0.343079 15.5337 0.336265 15.8825 0.46304C20.526 2.15116 25.1717 3.8333 29.8167 5.51749C30.444 5.74495 30.7119 6.21088 30.5223 6.74008C30.416 7.03657 30.1979 7.21433 29.9084 7.31756C29.4836 7.46905 29.0615 7.62835 28.6344 7.77297C28.483 7.82426 28.4102 7.88757 28.4107 8.06682C28.4173 10.6718 28.4132 13.2769 28.4221 15.8819C28.4225 15.9926 28.4992 16.1266 28.581 16.2099C29.2852 16.9276 29.9996 17.6354 30.7094 18.3478C31.2047 18.8448 31.2039 19.3421 30.705 19.8436C30.0171 20.5351 29.3321 21.2297 28.6327 21.9095C28.4654 22.072 28.4047 22.2355 28.4106 22.4623C28.4246 23.0051 28.4181 23.5485 28.4142 24.0916C28.4102 24.6366 28.0071 25.0562 27.5012 25.0499C27.0009 25.0437 26.6117 24.6375 26.6069 24.1053C26.6018 23.5421 26.5986 22.9787 26.6092 22.4156C26.6129 22.2212 26.5603 22.0802 26.4181 21.9409C25.7071 21.2441 25.006 20.5372 24.3038 19.8316C23.8161 19.3414 23.8141 18.8471 24.2992 18.3587C25.0079 17.6452 25.7232 16.9384 26.4266 16.2199C26.5146 16.13 26.5975 15.9863 26.598 15.8671C26.6077 13.4633 26.605 11.0594 26.6043 8.65554C26.6043 8.6258 26.5973 8.59606 26.5883 8.52419C26.4814 8.55959 26.3827 8.59 26.2856 8.62476C25.7573 8.81393 25.2327 9.0144 24.6996 9.18902C24.4851 9.25927 24.4072 9.35904 24.4086 9.59216C24.4191 11.3724 24.4063 13.1527 24.4198 14.9329C24.4233 15.3882 24.2805 15.7452 23.9509 16.0566C22.954 16.9981 21.7506 17.5527 20.4602 17.9427C18.5154 18.5305 16.5179 18.6593 14.5001 18.6123C12.6309 18.5688 10.7996 18.3176 9.04658 17.6363C8.12247 17.2772 7.26974 16.7957 6.54127 16.1095C6.19307 15.7816 6.02328 15.4096 6.02956 14.912C6.05216 13.122 6.03387 11.3315 6.04412 9.54118C6.04542 9.3133 5.97853 9.20829 5.76325 9.13014C4.21745 8.56895 2.67879 7.98804 1.13248 7.42831C0.736854 7.2851 0.38533 7.10939 0.181657 6.72075L0.181641 6.17755ZM3.74349 6.44289C3.88969 6.4979 3.97341 6.5298 4.05742 6.56094C7.64609 7.89121 11.2358 9.2187 14.8214 10.5572C15.0839 10.6552 15.3054 10.6542 15.5666 10.5594C19.0623 9.29099 22.5616 8.03261 26.0598 6.77096C26.3416 6.66932 26.6214 6.562 26.9567 6.43696C26.8306 6.38257 26.7691 6.35217 26.705 6.32894C23.0014 4.98721 19.2982 3.64414 15.591 2.31218C15.4485 2.26097 15.2529 2.27685 15.1064 2.3294C12.5506 3.2459 9.99862 4.1727 7.44605 5.09799C6.23174 5.53818 5.01799 5.9799 3.74349 6.44289ZM7.85636 9.91561C7.85636 11.5452 7.85268 13.1228 7.86459 14.7004C7.86539 14.8062 7.9627 14.936 8.05145 15.0124C8.60777 15.4914 9.26095 15.8015 9.95286 16.0212C12.9596 16.9757 16.01 17.0323 19.0822 16.4087C20.2491 16.1719 21.3598 15.7728 22.3327 15.0529C22.5093 14.9223 22.5875 14.7828 22.5848 14.5532C22.5716 13.4276 22.5788 12.3017 22.5788 11.1759C22.5788 10.785 22.5788 10.3942 22.5788 9.97142C22.4545 10.013 22.3612 10.0421 22.2694 10.0752C20.0928 10.8597 17.9155 11.642 15.7409 12.4319C15.3884 12.5599 15.0591 12.5951 14.6924 12.4547C13.2511 11.9029 11.8016 11.3729 10.3545 10.8363C9.53857 10.5338 8.7215 10.2343 7.85636 9.91561ZM27.4807 20.372C27.9249 19.9278 28.3677 19.485 28.7596 19.0931C28.3445 18.6774 27.9019 18.2341 27.511 17.8427C27.0944 18.2584 26.6511 18.7007 26.2307 19.1203C26.6419 19.532 27.0793 19.9701 27.4807 20.372Z" fill="#B9B9B9"/>
</svg>
