<svg width="33" height="33" viewBox="0 0 33 33" fill="none" xmlns="http://www.w3.org/2000/svg">
<path d="M1.24708 32.4997C0.995818 32.3357 0.922503 32.1046 0.92967 31.8081C0.946813 31.099 0.934921 30.3892 0.935298 29.6797C0.935582 29.1362 1.07429 28.9968 1.6158 28.9943C1.70865 28.9939 1.80149 28.9943 1.93677 28.9943C1.93677 28.3984 1.93671 27.8182 1.93679 27.2381C1.93687 26.6086 2.05484 26.4898 2.6796 26.4897C2.91833 26.4896 3.15708 26.4896 3.43915 26.4896C3.43915 26.3622 3.43915 26.252 3.43915 26.1419C3.43915 22.3648 3.44663 18.5877 3.42832 14.8107C3.42634 14.4042 3.2704 13.9992 3.19279 13.5921C2.46887 9.79558 3.13461 6.2557 5.20434 2.99646C5.71098 2.19864 6.32725 1.47045 6.89393 0.710858C7.10712 0.425089 7.37171 0.38303 7.69486 0.519791C8.212 0.738639 8.73425 0.945952 9.25884 1.14633C9.54929 1.25728 9.70387 1.44586 9.76336 1.75785C9.94069 2.68785 10.155 3.61089 10.3256 4.54202C10.3784 4.83044 10.5543 4.91955 10.7816 5.01093C16.8512 7.45134 22.9195 9.8948 28.9881 12.3378C29.1618 12.4077 29.3358 12.4768 29.509 12.548C29.9806 12.7421 30.075 12.9578 29.8873 13.4239C29.5258 14.3216 29.1548 15.2156 28.806 16.1182C28.7478 16.269 28.7396 16.4663 28.7801 16.6236C29.1098 17.9028 29.4567 19.1776 29.805 20.4785C30.2968 20.4785 30.7855 20.4783 31.2742 20.4785C31.852 20.4788 31.9814 20.6108 31.9815 21.2002C31.9817 22.0454 31.9872 22.8906 31.9775 23.7356C31.9752 23.94 32.0231 24.0784 32.1996 24.2048C32.476 24.4026 32.7241 24.6399 32.9842 24.8605V25.4241C32.7882 26.0859 32.5349 26.717 32.0299 27.2146C32.0035 27.2406 31.9851 27.2879 31.9849 27.3254C31.982 27.8743 31.9829 28.4232 31.9829 28.9863C32.3664 29.0082 32.7618 28.9078 32.9842 29.3062V32.4997L1.24708 32.4997ZM4.45182 26.4896C4.72546 26.4896 4.97404 26.4895 5.22263 26.4897C5.80852 26.4899 5.9405 26.6205 5.94074 27.201C5.94098 27.7917 5.94079 28.3825 5.94079 28.9833H9.55784C9.58836 28.8864 9.62082 28.7898 9.64926 28.692C10.834 24.6172 12.0117 20.5403 13.2062 16.4684C13.6634 14.91 14.1075 13.3513 14.3234 11.7362C14.3579 11.478 14.3356 11.3378 14.0524 11.2291C12.6343 10.6848 11.2275 10.1111 9.81648 9.54837C9.51126 9.42664 9.20503 9.30742 8.88446 9.18123C8.82955 9.30929 8.78798 9.40309 8.74885 9.49791C7.99456 11.3257 7.24098 13.1537 6.48619 14.9813C6.28564 15.4669 6.15175 15.5335 5.6471 15.4111C5.25525 15.316 4.8631 15.2222 4.45182 15.1232V26.4896ZM18.9205 13.1912C18.8755 13.5916 22.7993 27.4389 23.124 28.0442C23.3597 27.5747 23.6002 27.1286 23.8072 26.6676C23.8973 26.4668 23.9613 26.2357 23.964 26.0175C23.9791 24.8287 23.9669 23.6395 23.9727 22.4505C23.978 21.3639 24.8557 20.4907 25.9433 20.4791C26.1588 20.4768 26.3743 20.4787 26.5996 20.4787C26.5948 20.4031 26.599 20.3605 26.5885 20.3219C26.1944 18.8667 25.804 17.4105 25.3946 15.9597C25.3605 15.8389 25.215 15.7103 25.091 15.6599C23.5208 15.0215 21.945 14.3968 20.3706 13.7688C19.8898 13.577 19.4089 13.3857 18.9205 13.1912ZM1.94831 31.4763H31.9578V30.011H1.94831V31.4763ZM9.27524 8.22215C9.33004 8.25115 9.36402 8.27331 9.40096 8.28809C11.1675 8.99464 12.9333 9.70292 14.7036 10.3998C14.7949 10.4358 14.9472 10.4074 15.0331 10.351C15.3811 10.1224 15.7211 9.87987 16.0507 9.62527C16.2835 9.44549 16.5118 9.41897 16.7771 9.53854C17.1941 9.72653 17.6125 9.9136 18.0394 10.0774C18.3413 10.1932 18.4787 10.4023 18.5139 10.709C18.5544 11.0606 18.6107 11.4103 18.6502 11.762C18.6696 11.9353 18.7421 12.0288 18.9144 12.0968C20.6553 12.7833 22.3916 13.4816 24.1295 14.1758C24.5786 14.3552 25.0288 14.5319 25.492 14.7153C25.8122 13.9333 26.1184 13.1855 26.4382 12.4044C21.0307 10.2266 15.6438 8.05705 10.2404 5.88086C9.91131 6.6792 9.59494 7.44661 9.27524 8.22215ZM3.86903 10.73C3.9773 11.6283 4.09284 12.5259 4.19081 13.4253C4.24038 13.8804 4.43056 14.1678 4.92412 14.1953C5.07751 14.2038 5.23603 14.2433 5.37812 14.3024C5.58582 14.3889 5.6712 14.3135 5.7494 14.1229C6.94596 11.2066 8.15117 8.29388 9.34214 5.37533C9.40628 5.21814 9.39471 5.01105 9.36309 4.83725C9.26069 4.27462 9.12629 3.71792 9.01556 3.15668C8.86691 2.40328 8.4386 1.89419 7.73061 1.62942C7.72086 1.62578 7.70971 1.61915 7.70078 1.62112C7.59572 1.64426 7.44692 1.63235 7.39244 1.6982C5.22671 4.31625 3.92327 7.26786 3.86903 10.73ZM30.9694 28.0098C30.4408 28.1198 29.9291 28.2828 29.4078 28.3237C28.1329 28.4237 27.0839 27.9652 26.3147 26.9186C26.1292 26.6663 26.1136 26.417 26.2529 26.1305C26.6353 25.3442 27.0021 24.5503 27.3695 23.7569C27.4105 23.6684 27.4538 23.5539 27.432 23.4676C27.2647 22.805 27.0815 22.1463 26.9011 21.4782C26.6156 21.4782 26.3555 21.4765 26.0955 21.4785C25.3781 21.484 24.9732 21.8889 24.9712 22.6076C24.9687 23.5049 24.9277 24.4049 24.9825 25.2988C25.0386 26.2154 24.8646 27.0435 24.378 27.8224C24.1548 28.1797 23.995 28.5767 23.797 28.9747H30.9694L30.9694 28.0098ZM19.0842 24.834C17.2142 26.2219 15.3848 27.5797 13.5047 28.9751H20.2862C19.8859 27.5959 19.4927 26.2414 19.0842 24.834ZM22.2906 28.9801C20.8827 24.1294 19.4809 19.2997 18.084 14.4866H17.1356C18.5432 19.3359 19.9432 24.1586 21.3428 28.9801H22.2906ZM11.5724 28.9824C12.9748 24.1501 14.3759 19.3219 15.7805 14.4817H14.8328C13.4295 19.3172 12.0298 24.1401 10.6245 28.9824H11.5724ZM14.593 22.2051C14.019 24.1849 13.4522 26.1403 12.8853 28.0956C12.9054 28.1059 12.9256 28.1162 12.9458 28.1265C14.7536 26.7853 16.5613 25.4441 18.3995 24.0803C17.1042 23.4422 15.8633 22.8309 14.593 22.2051ZM26.5445 16.2356C26.5576 16.3217 26.5591 16.3518 26.5668 16.3802C27.0652 18.217 27.5642 20.0535 28.0629 21.8902C28.3273 22.8638 28.5875 23.8384 28.8567 24.8106C29.0007 25.3306 29.4008 25.4754 29.7207 25.1C29.8368 24.9637 29.8801 24.6835 29.8322 24.5017C29.1657 21.9675 28.479 19.4386 27.7899 16.9104C27.7637 16.8146 27.6823 16.6997 27.5962 16.6603C27.2662 16.5094 26.9238 16.3858 26.5445 16.2356ZM17.8731 13.4504C17.7837 12.8275 17.6478 12.2423 17.6297 11.6535C17.6121 11.0772 17.3426 10.8124 16.8313 10.653C16.5954 10.5795 16.432 10.5708 16.2407 10.7336C16.0273 10.9153 15.7848 11.0624 15.5596 11.2308C15.4962 11.2783 15.4124 11.3411 15.4004 11.4081C15.2798 12.0808 15.1722 12.7558 15.0576 13.4504H17.8731ZM30.9175 24.4906C30.867 25.5737 30.4298 26.1329 29.5446 26.2831C28.8083 26.408 28.253 26.0263 27.866 25.0992C27.6817 25.4905 27.5211 25.8605 27.3339 26.2164C27.24 26.3947 27.2601 26.5063 27.4034 26.646C28.1197 27.3443 28.98 27.4436 29.8968 27.2313C30.8421 27.0123 31.575 26.5122 31.8785 25.5333C31.9076 25.4393 31.9132 25.276 31.8577 25.2279C31.5627 24.9719 31.2447 24.7425 30.9175 24.4906ZM15.1019 20.4568C15.8504 20.0493 16.5203 19.6727 17.2028 19.3204C17.4081 19.2144 17.4273 19.1046 17.3669 18.9029C17.093 17.9876 16.8342 17.0677 16.5678 16.1501C16.5442 16.0689 16.5047 15.9924 16.442 15.8389C15.9867 17.4078 15.5548 18.8962 15.1019 20.4568ZM27.3764 12.7869C27.0577 13.5679 26.7501 14.3217 26.433 15.0986C26.9404 15.2992 27.4069 15.4837 27.8867 15.6734C28.2022 14.8912 28.5044 14.1422 28.8178 13.3654C28.3314 13.1702 27.8641 12.9827 27.3764 12.7869ZM15.3747 21.4611C16.447 21.9888 17.4678 22.491 18.5602 23.0286C18.2737 22.0414 18.0093 21.1307 17.7331 20.1791C16.9402 20.6101 16.1842 21.0211 15.3747 21.4611ZM4.92361 28.9792V27.5098H2.95955V28.9792H4.92361ZM30.0789 21.489C30.1747 21.8406 30.2893 22.1457 30.3359 22.4609C30.3935 22.8507 30.6511 23.0316 30.9576 23.2158V21.489H30.0789Z" fill="#B9B9B9"/>
<path d="M7.44226 4.94667C7.15322 4.94623 6.93625 4.72146 6.94457 4.43108C6.95249 4.15454 7.16603 3.94821 7.44389 3.94861C7.73288 3.94903 7.95042 4.17401 7.942 4.46376C7.93399 4.73921 7.71887 4.94708 7.44226 4.94667Z" fill="#B9B9B9"/>
<path d="M6.43261 5.95229C6.7228 5.94747 6.9441 6.1674 6.94081 6.45734C6.93769 6.73381 6.7272 6.94574 6.45115 6.95035C6.16144 6.95521 5.94016 6.7349 5.94339 6.44484C5.94649 6.16743 6.15561 5.95689 6.43261 5.95229Z" fill="#B9B9B9"/>
</svg>
