<svg width="14" height="12" viewBox="0 0 14 12" fill="none" xmlns="http://www.w3.org/2000/svg">
<path d="M0 2.38842C0.053605 2.1815 0.0859137 1.96625 0.16437 1.76907C0.587365 0.705973 1.3738 0.10483 2.52658 0.016472C3.94744 -0.0924302 5.1663 0.95524 5.34997 2.28408C5.35412 2.31409 5.36528 2.34315 5.38333 2.3758C5.49992 1.60556 5.85321 0.974883 6.48963 0.51588C7.12719 0.0560587 7.84425 -0.0979412 8.61033 0.0601829C9.98684 0.344306 10.8793 1.56871 10.7496 2.95842C10.6275 4.26642 9.511 5.29915 8.13735 5.34318C6.82796 5.38515 5.58525 4.45467 5.37301 2.96713C5.36275 3.0254 5.35192 3.08359 5.34232 3.14198C5.10888 4.56228 3.67776 5.56287 2.24677 5.30617C1.1034 5.10105 0.262045 4.28818 0.0418483 3.17622C0.0289363 3.11102 0.0139945 3.04622 0 2.98123C0 2.78363 0 2.58602 0 2.38842ZM3.7864 2.69216C3.80676 2.10049 3.31559 1.58647 2.70064 1.58425C2.07118 1.58197 1.60547 2.0538 1.59507 2.62266C1.58382 3.23773 2.05256 3.74676 2.6639 3.76378C3.26962 3.78065 3.76522 3.30752 3.7864 2.69216ZM6.97502 2.66323C6.97052 3.25928 7.46177 3.75752 8.06042 3.7641C8.66464 3.77073 9.17093 3.27451 9.17186 2.67474C9.17278 2.08283 8.67829 1.5784 8.07539 1.58397C7.41898 1.59004 6.98089 2.08039 6.97502 2.66323Z" fill="#F5F5F5"/>
<path d="M13.9024 10.8764C13.8908 10.9284 13.8808 10.9808 13.8673 11.0324C13.7755 11.3814 13.3586 11.5572 13.042 11.3753C12.2758 10.9352 11.5124 10.4905 10.7455 10.0516C10.6679 10.0072 10.6421 9.95923 10.6425 9.87175C10.646 9.07272 10.6459 8.27366 10.6426 7.47462C10.6423 7.39212 10.6683 7.34773 10.7402 7.30664C11.4606 6.89539 12.1846 6.48977 12.8951 6.06228C13.2556 5.84544 13.6453 5.82077 13.9024 6.32254L13.9024 10.8764Z" fill="#F5F5F5"/>
<path d="M5.38172 11.9993C4.26404 11.9994 3.14635 11.9999 2.02867 11.9991C1.56822 11.9988 1.18284 11.8349 0.891723 11.4734C0.711272 11.2494 0.604297 10.991 0.603032 10.7064C0.596906 9.32784 0.594877 7.94922 0.603276 6.57071C0.605806 6.15604 0.803905 5.82473 1.13183 5.56846C1.21064 5.50687 1.27845 5.49322 1.37432 5.54206C1.8056 5.7618 2.27075 5.84329 2.75081 5.83671C3.31309 5.829 3.83709 5.6796 4.32173 5.39264C4.3871 5.35394 4.47177 5.32987 4.54779 5.32916C5.10884 5.32392 5.66998 5.32465 6.23105 5.32864C6.29444 5.32909 6.36488 5.3491 6.41978 5.3809C7.36423 5.92794 8.34042 5.98558 9.34121 5.55815C9.48206 5.498 9.57061 5.51569 9.67633 5.60534C9.9974 5.87758 10.1755 6.2224 10.1776 6.63868C10.1845 7.97232 10.1836 9.30603 10.1788 10.6397C10.1761 11.416 9.56111 11.9969 8.74833 11.9987C7.62613 12.0012 6.50392 11.9993 5.38172 11.9993Z" fill="#F5F5F5"/>
</svg>
