<svg width="23" height="23" viewBox="0 0 23 23" fill="none" xmlns="http://www.w3.org/2000/svg">
<path d="M2.29137 23C2.15805 22.9593 2.02399 22.9209 1.89151 22.8776C0.735218 22.5 0.00164591 21.489 0.00142387 20.271C0.000895784 17.3593 0.000751759 14.4477 0.00145388 11.5361C0.00182594 9.99285 1.18617 8.80665 2.72723 8.80586C4.55353 8.80493 6.37983 8.80463 8.20613 8.8064C8.68245 8.80686 9.06278 9.14422 9.11348 9.60098C9.16319 10.0488 8.87434 10.4671 8.43003 10.5767C8.33024 10.6013 8.22251 10.5998 8.11844 10.5999C6.3595 10.6012 4.60057 10.6006 2.84163 10.601C2.1492 10.6011 1.79658 10.9565 1.79652 11.6543C1.79627 14.4911 1.7962 17.3279 1.79657 20.1646C1.79666 20.8442 2.15544 21.2037 2.83379 21.2038C5.67802 21.2042 8.52226 21.2042 11.3665 21.2038C12.0417 21.2037 12.3991 20.8421 12.3992 20.1599C12.3997 18.371 12.3983 16.5821 12.4002 14.7932C12.4007 14.3172 12.7395 13.936 13.1954 13.8865C13.6441 13.8379 14.0619 14.1267 14.1706 14.5704C14.195 14.6702 14.1936 14.7779 14.1937 14.882C14.1949 16.6784 14.1952 18.4748 14.1944 20.2711C14.1938 21.5965 13.3245 22.6686 12.0235 22.953C11.9823 22.962 11.9441 22.984 11.9044 23L2.29137 23Z" fill="#DFDFDF"/>
<path d="M23 6.33414C22.9669 6.39899 22.9345 6.46424 22.9005 6.52865C22.7096 6.89057 22.2829 7.08539 21.894 6.98854C21.4895 6.8878 21.2072 6.54196 21.2053 6.12771C21.2014 5.32669 21.205 4.52563 21.2038 3.72459C21.202 2.56152 20.4401 1.7981 19.2794 1.79644C18.5009 1.79533 17.7223 1.79707 16.9437 1.79592C16.3808 1.79509 15.9897 1.41973 15.9933 0.886969C15.9968 0.370404 16.391 0.00195083 16.944 0.00130285C17.7825 0.000318882 18.6209 -0.00119307 19.4594 0.00159684C21.1849 0.00733264 22.6907 1.31009 22.9561 3.02234C22.9627 3.06438 22.985 3.10397 23 3.1447L23 6.33414Z" fill="#DFDFDF"/>
<path d="M16.6662 23.0001C16.6152 22.9727 16.5651 22.9433 16.513 22.9182C16.1274 22.732 15.9198 22.3239 16.0051 21.9178C16.0928 21.5003 16.4532 21.2064 16.8908 21.2049C17.6907 21.2021 18.4907 21.2053 19.2906 21.2037C20.4337 21.2015 21.2012 20.4341 21.2037 19.2906C21.2054 18.5205 21.2037 17.7505 21.2041 16.9804C21.2044 16.4622 21.4704 16.0991 21.9178 16.005C22.361 15.9118 22.7575 16.1451 22.9595 16.6164C22.9676 16.6353 22.9863 16.6497 23 16.6661V19.8555C22.9858 19.8887 22.9648 19.9207 22.9584 19.9553C22.6916 21.3987 21.8593 22.3564 20.4772 22.837C20.2755 22.9072 20.063 22.9465 19.8555 23.0001H16.6662Z" fill="#DFDFDF"/>
<path d="M23 13.5216C22.9726 13.5726 22.9432 13.6226 22.9181 13.6747C22.7323 14.0602 22.322 14.2685 21.9169 14.182C21.4991 14.0928 21.2057 13.7327 21.2048 13.2949C21.2025 12.1131 21.2034 10.9312 21.2043 9.74938C21.2047 9.27138 21.4832 8.90944 21.9171 8.81772C22.3451 8.72725 22.7597 8.95626 22.9473 9.38573C22.9615 9.41817 22.9823 9.44774 23 9.47864L23 13.5216Z" fill="#DFDFDF"/>
<path d="M17.6105 6.73414C14.5211 9.82332 11.4401 12.9042 8.35093 15.9932C8.50333 15.9932 8.66479 15.9907 8.82614 15.9937C9.3187 16.0027 9.70115 16.3934 9.70245 16.8863C9.70375 17.3807 9.32396 17.7831 8.83433 17.7863C7.91361 17.7922 6.99279 17.7925 6.07209 17.786C5.60291 17.7826 5.21708 17.3933 5.21418 16.9231C5.2085 16.0024 5.20825 15.0816 5.21429 14.1609C5.21744 13.6816 5.61456 13.3018 6.096 13.2979C6.59343 13.2939 6.99287 13.669 7.00621 14.1561C7.01071 14.3205 7.00692 14.4851 7.00692 14.5985C10.068 11.5373 13.1506 8.45451 16.2153 5.38973C16.1162 5.38973 15.9549 5.39223 15.7937 5.38926C15.3004 5.38017 14.9171 4.99048 14.9153 4.49863C14.9134 3.99347 15.2968 3.59809 15.803 3.5959C16.7088 3.59199 17.6146 3.5919 18.5204 3.59598C19.0168 3.59822 19.4017 3.98248 19.4042 4.47928C19.4086 5.38505 19.4084 6.29088 19.4043 7.19666C19.4019 7.7026 19.0053 8.08705 18.5014 8.08505C18.0006 8.08305 17.6163 7.69477 17.6107 7.18379C17.609 7.03026 17.6105 6.87668 17.6105 6.73414Z" fill="#DFDFDF"/>
<path d="M4.73962 0.00145502C5.19629 0.00141902 5.65298 -0.00123289 6.10963 0.002127C6.6195 0.00587687 7.00626 0.393782 7.00713 0.896043C7.008 1.39904 6.62229 1.7929 6.115 1.79541C5.31397 1.79937 4.51291 1.79539 3.71186 1.79682C2.56444 1.79888 1.79886 2.5642 1.79676 3.71127C1.79532 4.49735 1.79764 5.28344 1.79605 6.06952C1.79495 6.6167 1.41783 7.00796 0.896665 7.00728C0.377324 7.00661 0.00247556 6.61384 0.00165942 6.06544C0.000405206 5.21947 -0.00151512 4.37348 0.00202548 3.52752C0.0100069 1.61946 1.61907 0.0110307 3.52682 0.00177901C3.93107 -0.000182922 4.33535 0.00148502 4.73962 0.00145502Z" fill="#DFDFDF"/>
<path d="M11.4953 1.79614C10.9043 1.79616 10.3134 1.79805 9.72247 1.79559C9.19508 1.7934 8.80609 1.41061 8.80591 0.899217C8.80573 0.386667 9.19369 0.00259566 9.72073 0.00168969C10.9101 -0.00035024 12.0994 -0.000668229 13.2888 0.00185769C13.811 0.00296165 14.1977 0.394412 14.1944 0.908697C14.1913 1.40836 13.8028 1.79266 13.2905 1.79539C12.6921 1.79857 12.0937 1.79613 11.4953 1.79614Z" fill="#DFDFDF"/>
</svg>
