<svg width="33" height="33" viewBox="0 0 33 33" fill="none" xmlns="http://www.w3.org/2000/svg">
<path d="M33 27.1299V30.6097C32.9786 30.6799 32.9535 30.7492 32.9364 30.8204C32.622 32.1304 31.5637 32.9817 30.2195 32.9924C29.2961 32.9997 28.3724 33.0042 27.4492 32.9896C26.2213 32.9702 25.1696 32.1421 24.8515 30.9576C24.7911 30.7327 24.7651 30.4986 24.7218 30.2606H8.26898C8.26057 30.3339 8.25392 30.3866 8.24854 30.4394C8.09503 31.9458 6.95734 32.9842 5.4412 32.9929C4.51777 32.9981 3.59395 33.0081 2.67092 32.9878C1.22271 32.9558 0.0392753 31.7693 0.0118388 30.3225C-0.0064809 29.3564 -0.00107452 28.3896 0.0114256 27.4234C0.019914 26.767 0.254833 26.1871 0.687654 25.6914C1.22595 25.075 1.92018 24.7834 2.74236 24.734V8.26757C2.67755 8.25807 2.62603 8.24849 2.57408 8.2432C1.04702 8.08791 0.0133798 6.95214 0.00708671 5.4159C0.00339349 4.51392 -0.00252942 3.61178 0.0103064 2.70995C0.0215583 1.91941 0.335232 1.25807 0.911778 0.714735C1.31483 0.334898 1.81575 0.160962 2.32617 0C3.52906 0 4.73196 0 5.93486 0C6.03365 0.0338677 6.13146 0.0710413 6.2314 0.101087C7.2383 0.403847 7.88086 1.06677 8.16554 2.07371C8.22571 2.28653 8.24405 2.51117 8.28172 2.73077H24.7416C24.7978 1.77332 25.1761 0.99952 25.9663 0.484548C26.2987 0.267877 26.7009 0.158276 27.0714 0C28.2743 0 29.4772 0 30.6801 0C30.7883 0.0369583 30.8955 0.0772484 31.0049 0.110358C31.9031 0.382282 32.5118 0.962613 32.8386 1.83849C32.9047 2.01583 32.9468 2.20216 33 2.38434V5.86419C32.9786 5.93435 32.9548 6.00386 32.9363 6.07476C32.6267 7.2603 31.879 7.98064 30.6694 8.20957C30.536 8.23482 30.4009 8.25099 30.2675 8.27122V24.7315C31.4306 24.8189 32.2813 25.3462 32.7651 26.4021C32.8705 26.6322 32.9231 26.8866 33 27.1299ZM5.51684 24.7353C6.26923 24.777 6.91593 25.0252 7.44328 25.5497C7.9773 26.0808 8.22003 26.7404 8.26898 27.4742H24.7336C24.8176 26.1493 25.6499 24.8914 27.4879 24.7165V8.2592C26.7386 8.21475 26.0908 7.96808 25.5634 7.44386C25.0295 6.91322 24.7848 6.25429 24.7365 5.51991H8.27262C8.18482 6.83908 7.36893 8.1004 5.51684 8.2772L5.51684 24.7353ZM5.4846 2.77441H2.7865V5.47436H5.4846V2.77441ZM30.2285 2.77842H27.5244V5.47037H30.2285V2.77842ZM2.77686 30.2187H5.47466V27.5211H2.77686V30.2187ZM30.2274 30.2218V27.525H27.5254V30.2218H30.2274Z" fill="#DFDFDF"/>
<path d="M17.8882 12.3962V20.6213C18.3183 20.6213 18.7333 20.6197 19.1482 20.6216C20.0066 20.6256 20.6219 21.1951 20.6264 21.9873C20.6309 22.7791 20.0199 23.3703 19.1648 23.3738C17.3931 23.3811 15.6212 23.3805 13.8494 23.3741C12.9917 23.371 12.3794 22.7864 12.3796 21.9953C12.3799 21.2022 12.9953 20.6261 13.8496 20.6217C14.2656 20.6195 14.6816 20.6213 15.1154 20.6213V12.3967H12.3774C12.3774 12.8577 12.3874 13.3259 12.3749 13.7934C12.3593 14.3746 11.9774 14.873 11.4338 15.0518C10.8861 15.232 10.2677 15.0726 9.94002 14.5912C9.77382 14.347 9.65133 14.0254 9.6389 13.7332C9.60059 12.8328 9.61315 11.9296 9.62814 11.0278C9.64186 10.2031 10.2119 9.62448 11.0381 9.62239C14.6784 9.61316 18.3187 9.61345 21.959 9.62201C22.8008 9.62399 23.3668 10.2051 23.3789 11.0512C23.3913 11.9316 23.3911 12.8124 23.3789 13.6928C23.3675 14.5184 22.7616 15.1323 21.9918 15.1251C21.2136 15.1178 20.6336 14.5019 20.6279 13.673C20.625 13.2552 20.6274 12.8373 20.6274 12.3962H17.8882Z" fill="#DFDFDF"/>
</svg>
