<svg width="27" height="27" viewBox="0 0 27 27" fill="none" xmlns="http://www.w3.org/2000/svg">
<path d="M10.1416 26.3003C9.9926 26.2563 9.84208 26.2168 9.69474 26.1677C8.53522 25.7816 7.79351 24.7499 7.796 23.5297C7.7962 23.4313 7.79603 23.3329 7.79603 23.2171C6.91912 23.0984 6.22039 22.6955 5.73509 21.9594C5.3795 21.4201 5.24017 20.8196 5.31028 20.1825C5.44625 18.9468 6.46027 17.7517 8.13633 17.7281C8.01601 17.0616 7.89764 16.3987 7.77658 15.7364C7.36904 13.5067 6.95959 11.2773 6.55272 9.0475C6.23347 7.29786 5.9141 5.54824 5.60359 3.79706C5.57204 3.61914 5.44872 3.60107 5.32671 3.56213C4.01514 3.14358 2.70253 2.72822 1.39116 2.30904C1.00824 2.18665 0.806215 1.92356 0.806641 1.56645C0.807035 1.23693 1.00629 0.948171 1.33196 0.864718C1.477 0.827553 1.65189 0.823965 1.79346 0.868107C3.33684 1.34936 4.87633 1.84301 6.41681 2.33352C6.7419 2.43703 6.92545 2.66339 6.98577 2.9931C7.20314 4.18115 7.42727 5.36806 7.62911 6.55873C7.66516 6.77144 7.74994 6.79992 7.93497 6.79979C13.7431 6.79573 19.5513 6.7963 25.3594 6.79757C25.4832 6.79759 25.6124 6.79416 25.7296 6.82659C26.1176 6.93402 26.3324 7.29832 26.2555 7.72074C25.8181 10.1217 25.3769 12.5219 24.9371 14.9224C24.7164 16.1267 24.498 17.3315 24.2746 18.5353C24.1822 19.0335 23.9287 19.2338 23.4086 19.2338C18.3327 19.234 13.2568 19.2337 8.18086 19.2342C7.50431 19.2342 7.00068 19.5785 6.84799 20.1408C6.63731 20.9167 7.17856 21.6621 7.99196 21.7223C8.29781 21.7449 8.5429 21.6871 8.79795 21.4651C9.8363 20.5615 11.4069 20.6229 12.4167 21.5564C12.5134 21.6457 12.671 21.7158 12.8008 21.7165C14.6231 21.7268 16.4454 21.7263 18.2677 21.7173C18.3916 21.7167 18.5442 21.6579 18.6341 21.5738C19.6993 20.5765 21.3527 20.5682 22.406 21.575C22.5265 21.6901 22.6439 21.727 22.802 21.7261C23.684 21.7208 24.566 21.7227 25.4481 21.7239C25.9374 21.7245 26.2658 22.023 26.2676 22.4649C26.2694 22.9085 25.9414 23.213 25.4562 23.2141C24.8155 23.2155 24.1747 23.2145 23.534 23.2145C23.453 23.2145 23.372 23.2145 23.3061 23.2145C23.267 23.5668 23.2716 23.9038 23.1872 24.217C22.8888 25.3238 22.1641 26.0047 21.0364 26.2528C20.9981 26.2613 20.9629 26.2841 20.9263 26.3003H20.1275C20.0992 26.2854 20.0724 26.2629 20.0423 26.2566C18.8389 26.0065 18.0349 25.1924 17.8173 23.9804C17.773 23.7338 17.7815 23.4778 17.7658 23.2293H13.2861C13.2861 23.3582 13.2867 23.4725 13.2861 23.5867C13.2798 24.7688 12.4948 25.8277 11.3639 26.178C11.2236 26.2215 11.0817 26.2596 10.9405 26.3003L10.1416 26.3003ZM24.6154 8.30541H7.94996C8.51029 11.368 9.07125 14.4102 9.61593 17.4553C9.66059 17.7049 9.75193 17.7487 9.98068 17.748C12.3355 17.7398 14.6903 17.743 17.0451 17.743C18.9173 17.743 20.7895 17.7411 22.6617 17.7462C22.8302 17.7466 22.9058 17.7158 22.9357 17.5268C23.0415 16.8571 23.1734 16.1914 23.2954 15.5242C23.7342 13.1242 24.1731 10.7243 24.6154 8.30541ZM10.5362 24.8071C11.2048 24.8103 11.7768 24.2503 11.7888 23.5807C11.801 22.9064 11.2265 22.3236 10.5461 22.3201C9.86706 22.3166 9.28863 22.8942 9.29352 23.5709C9.29835 24.2383 9.86691 24.8039 10.5362 24.8071ZM20.5265 24.8071C21.1957 24.8071 21.7658 24.245 21.7747 23.5763C21.7836 22.9012 21.2071 22.3205 20.5275 22.3201C19.8481 22.3197 19.2713 22.8997 19.2793 23.5753C19.2873 24.2441 19.8573 24.8071 20.5265 24.8071Z" fill="#B9B9B9"/>
<path d="M11.6184 16.2483C11.2206 16.2505 10.9056 15.9728 10.8566 15.543C10.7292 14.4257 10.6138 13.307 10.4936 12.1888C10.4397 11.6872 10.3877 11.1855 10.3312 10.6842C10.2794 10.2242 10.5402 9.84279 10.9504 9.78604C11.3961 9.72436 11.769 10.0215 11.8265 10.4998C11.9006 11.1155 11.9641 11.7325 12.0305 12.3492C12.1394 13.3605 12.2456 14.3721 12.3558 15.3832C12.4074 15.8574 12.0794 16.2457 11.6184 16.2483Z" fill="#B9B9B9"/>
<path d="M20.9555 16.2483C20.5158 16.2488 20.1604 15.8755 20.2044 15.4393C20.2947 14.5425 20.3948 13.6467 20.4922 12.7506C20.5717 12.0189 20.6552 11.2878 20.7327 10.5559C20.7731 10.174 20.9672 9.90654 21.2887 9.80861C21.5705 9.72276 21.8973 9.80384 22.0669 10.0554C22.1671 10.204 22.2568 10.4088 22.241 10.5781C22.1265 11.8048 21.9839 13.0289 21.8505 14.2538C21.8066 14.6566 21.7592 15.059 21.721 15.4624C21.676 15.9373 21.3779 16.2479 20.9555 16.2483Z" fill="#B9B9B9"/>
<path d="M15.3894 13.0393C15.4197 13.8507 15.4615 14.6618 15.4765 15.4735C15.4873 16.0541 14.9092 16.4242 14.4031 16.1765C14.1355 16.0456 13.991 15.8251 13.9795 15.5244C13.9327 14.3074 13.8862 13.0904 13.8396 11.8734C13.8234 11.4512 13.8012 11.029 13.7927 10.6067C13.7833 10.1387 14.0842 9.7981 14.5062 9.78238C14.9548 9.76567 15.2671 10.0664 15.2936 10.5557C15.316 10.9692 15.3232 11.3836 15.3398 11.7975C15.3565 12.2114 15.3765 12.6252 15.395 13.039C15.3931 13.0391 15.3912 13.0392 15.3894 13.0393Z" fill="#B9B9B9"/>
<path d="M18.6883 13.0231C18.6556 13.8427 18.628 14.6625 18.5884 15.4817C18.5649 15.9676 18.2438 16.2679 17.7945 16.2479C17.3743 16.2291 17.0721 15.8871 17.0885 15.4167C17.1456 13.7856 17.208 12.1546 17.2758 10.5239C17.295 10.0617 17.6273 9.76275 18.0674 9.78255C18.4802 9.80111 18.7858 10.1372 18.7733 10.5888C18.7507 11.4004 18.7139 12.2116 18.6831 13.0229C18.6848 13.023 18.6865 13.0231 18.6883 13.0231Z" fill="#B9B9B9"/>
</svg>
