<svg width="16" height="11" viewBox="0 0 16 11" fill="none" xmlns="http://www.w3.org/2000/svg">
<path d="M7 11C6.2018 10.9867 5.46732 10.8037 4.75114 10.5397C3.2488 9.98602 1.88811 9.18407 0.867994 7.84741C-0.312838 6.30016 -0.28897 4.60788 0.94031 3.10009C2.21385 1.53801 3.87478 0.677735 5.73417 0.212893C6.14121 0.111134 6.56202 0.0718899 7 -9.53674e-07L7 11Z" fill="#F5F5F5"/>
<path d="M7.00001 10.9509L7 0.0513516C7.64375 -0.173027 8.00558 0.366091 7.99993 1.12002C7.97819 4.02695 7.97734 6.9346 7.99981 9.84151C8.00626 10.6764 7.65553 11.1616 7.00001 10.9509Z" fill="#F5F5F5"/>
<path d="M10.5771 10.4414C11.1314 10.4478 11.6858 10.4431 12.2401 10.4432C12.8056 10.4434 13.371 10.4471 13.9364 10.4421C13.9769 10.4418 14.0152 10.439 14.052 10.4347L14.052 10.7495C14.052 10.8632 14.1759 10.9335 14.2735 10.8752L15.5437 10.1158C15.6362 10.0605 15.6393 9.92771 15.5496 9.86814L14.2793 9.02467C14.182 8.96006 14.052 9.02983 14.052 9.14663L14.052 9.46326C14.0236 9.46 13.9946 9.45767 13.9643 9.45746C12.8334 9.44928 11.7025 9.44921 10.5716 9.45794C10.2204 9.46065 9.98784 9.68999 10.0005 9.97477C10.0129 10.2536 10.2297 10.4373 10.5771 10.4414Z" fill="#F5F5F5"/>
<path d="M10.5868 6.4396C11.7076 6.44259 12.8283 6.44233 13.9491 6.43979C13.985 6.43971 14.0192 6.43719 14.0524 6.43336L14.0524 6.7495C14.0524 6.86319 14.1763 6.93349 14.2739 6.87515L15.5441 6.11575C15.6366 6.0605 15.6397 5.92771 15.55 5.86814L14.2797 5.02467C14.1824 4.96006 14.0524 5.02983 14.0524 5.14663L14.0524 5.46261C14.0212 5.4591 13.9893 5.45665 13.9558 5.45642C13.3899 5.45246 12.8239 5.45536 12.258 5.45535C11.7031 5.45534 11.1483 5.45269 10.5934 5.45628C10.2317 5.45862 10.0025 5.65138 10 5.94392C9.99754 6.23575 10.2301 6.43864 10.5868 6.4396Z" fill="#F5F5F5"/>
<path d="M10.6034 2.43776C11.7118 2.44269 12.8202 2.44273 13.9286 2.4379C13.9718 2.43771 14.0127 2.43477 14.0518 2.42997L14.0518 2.7495C14.0518 2.86319 14.1757 2.93349 14.2733 2.87515L15.5435 2.11575C15.636 2.0605 15.6391 1.92771 15.5494 1.86814L14.2791 1.02467C14.1818 0.960063 14.0518 1.02983 14.0518 1.14663L14.0518 1.46572C14.0154 1.46127 13.9777 1.45836 13.9378 1.4579C13.3947 1.45162 12.8515 1.45629 12.3084 1.45625C11.7431 1.45621 11.1777 1.45178 10.6125 1.45774C10.2251 1.46183 9.99139 1.6607 10.0002 1.95999C10.0087 2.24732 10.2343 2.43612 10.6034 2.43776Z" fill="#F5F5F5"/>
</svg>
