<svg width="37" height="34" viewBox="0 0 37 34" fill="none" xmlns="http://www.w3.org/2000/svg">
<path d="M17.6325 0.499977C18.2895 0.783157 18.5114 1.28165 18.5097 1.99143C18.4929 8.84354 18.5023 13.1957 18.4914 20.0479C18.4909 20.3688 18.5932 20.5204 18.8851 20.6176C20.0194 20.9952 21.1977 21.0986 22.3751 21.1117C24.891 21.1398 27.4075 21.1113 29.9238 21.1021C30.5365 21.0999 31.1589 21.1483 31.76 21.0596C33.4183 20.8149 34.6352 19.4189 34.6829 17.7877C34.7309 16.1459 33.5806 14.6321 31.9785 14.2684C31.62 14.187 31.2384 14.1631 30.8702 14.1786C30.0072 14.215 29.5264 13.8153 29.4668 12.9595C29.2128 9.3064 26.8518 6.47506 23.3454 5.71215C22.5814 5.54592 21.7695 5.55996 20.98 5.56298C20.281 5.56564 19.7154 5.16518 19.6586 4.51275C19.6022 3.86439 20.051 3.32 20.7314 3.26486C21.258 3.2222 21.7918 3.18843 22.3172 3.22525C27.0472 3.55677 30.7936 6.91704 31.6288 11.5741C31.6745 11.8291 31.7711 11.9065 32.0081 11.9392C34.901 12.3389 37.0136 14.7851 36.9983 17.7059C36.9833 20.5735 34.844 23.027 31.9783 23.3637C30.9558 23.4839 29.9113 23.4289 28.8768 23.4327C26.5647 23.4411 24.2525 23.435 21.9404 23.4374C20.8502 23.4385 19.7808 23.2981 18.7349 22.9864C18.6677 22.9664 18.5981 22.9546 18.4996 22.9322V23.382C18.4996 26.8021 18.5005 30.2221 18.4973 33.6422C18.4971 32.8265 18.4882 33.0122 18.4395 33.1819C18.2856 33.7174 17.7703 34.0554 17.2268 34C16.674 33.9436 16.2291 33.4824 16.1908 32.9203C16.1818 32.7884 16.1873 32.6554 16.1873 33.5171C16.1871 25.4245 16.1872 17.332 16.1872 9.23946V8.77043C15.3758 8.98018 14.6614 9.33542 13.9967 9.78729C9.07662 13.1319 9.24887 20.3161 14.3203 23.4263C14.8967 23.7798 15.1303 24.24 15.0003 24.7657C14.8043 25.5579 13.9633 25.8976 13.2293 25.4641C11.3951 24.3808 10.0115 22.8779 9.09961 20.9516C6.32358 15.0875 9.50691 8.1812 15.7748 6.45982C15.9013 6.42507 16.0279 6.39076 16.1872 6.34736V5.9566C16.1872 3.80099 16.2049 4.14517 16.1771 1.98994C16.1679 1.2816 16.3927 0.779759 17.0543 0.50007L17.6325 0.499977Z" fill="#DFDFDF"/>
<path d="M-0.000244141 16.2107C0.292176 15.5343 0.819505 15.3155 1.53338 15.3402C2.55555 15.3754 3.57992 15.3411 4.60316 15.3535C5.22447 15.361 5.70244 15.7931 5.77368 16.3729C5.84148 16.9246 5.48966 17.4627 4.94481 17.6144C4.79729 17.6555 4.63607 17.659 4.48109 17.6596C3.46977 17.6633 2.45744 17.6347 1.4474 17.6707C0.743933 17.6958 0.268552 17.434 -0.000244141 16.7888L-0.000244141 16.2107Z" fill="#DFDFDF"/>
<path d="M26.4429 33.6677C23.9669 33.6411 22.351 31.1192 23.2527 29.0198C23.83 27.6756 24.6624 26.503 25.5992 25.4C26.0524 24.8663 26.8704 24.8664 27.3261 25.4017C28.2564 26.4944 29.0765 27.6603 29.6588 28.9883C30.5935 31.12 28.9364 33.6748 26.4429 33.6677ZM26.4532 28.0562C26.2871 28.2944 26.1329 28.4793 26.0193 28.6864C25.8125 29.0636 25.6431 29.4614 25.4339 29.8372C25.0618 30.5059 25.6498 31.2019 26.2103 31.33C26.957 31.5008 27.7887 30.7833 27.5819 30.1127C27.3545 29.3755 26.9843 28.7067 26.4532 28.0562Z" fill="#DFDFDF"/>
<path d="M3.57445 26.3327C2.97522 26.3323 2.5423 26.02 2.38443 25.5448C2.22735 25.072 2.36583 24.523 2.79143 24.2657C3.85975 23.62 4.9387 22.9897 6.03626 22.3955C6.55586 22.1142 7.20784 22.3725 7.49319 22.8858C7.78237 23.4059 7.65744 24.0703 7.14207 24.3841C6.0964 25.0209 5.02873 25.6219 3.96339 26.2257C3.82346 26.3051 3.64402 26.3146 3.57445 26.3327Z" fill="#DFDFDF"/>
<path d="M9.91897 32.6855C8.98939 32.6969 8.38982 31.8001 8.79447 31.0412C9.3646 29.972 9.98323 28.9276 10.6089 27.8894C10.9265 27.3623 11.607 27.224 12.132 27.5231C12.6572 27.8223 12.8726 28.4677 12.5979 29.0195C12.3842 29.4486 12.1283 29.8568 11.8888 30.2729C11.5415 30.8763 11.1929 31.4791 10.8433 32.0812C10.6206 32.4648 10.2842 32.663 9.91897 32.6855Z" fill="#DFDFDF"/>
<path d="M6.47269 10.7663C6.26183 10.6898 6.03551 10.6407 5.8427 10.5321C4.88026 9.98998 3.92407 9.4366 2.9708 8.87853C2.33764 8.50784 2.14267 7.82855 2.4876 7.24785C2.82207 6.68473 3.49906 6.52404 4.12053 6.8773C5.10174 7.43505 6.08057 7.99724 7.0526 8.57082C7.54853 8.86345 7.74066 9.37414 7.58891 9.89965C7.44724 10.3903 7.00342 10.7225 6.47269 10.7663Z" fill="#DFDFDF"/>
<path d="M12.7178 4.40602C12.7108 5.0164 12.3849 5.4479 11.8871 5.59763C11.41 5.74116 10.8819 5.58457 10.6219 5.1513C9.992 4.10183 9.37423 3.04419 8.78702 1.97047C8.49457 1.43576 8.74016 0.774001 9.2687 0.480836C9.784 0.19498 10.4568 0.324688 10.7663 0.83505C11.401 1.88147 12.0018 2.94863 12.6052 4.01366C12.6847 4.15396 12.6976 4.33194 12.7178 4.40602Z" fill="#DFDFDF"/>
</svg>
