<svg width="27" height="23" viewBox="0 0 27 23" fill="none" xmlns="http://www.w3.org/2000/svg">
<path d="M0.473633 11.2803C0.659014 10.8599 0.975909 10.6815 1.43138 10.7204C1.67985 10.7416 1.93156 10.7242 2.15783 10.7242C0.812285 6.95038 1.5676 3.83589 5.06893 1.71482C7.42959 0.284757 10.9556 0.572002 13.3119 3.18317C14.8233 1.54697 16.6856 0.756393 18.9051 0.910674C20.2274 1.00258 21.4118 1.48679 22.4716 2.29583C24.5203 3.85988 26.0266 7.15872 24.3998 10.7242C24.7096 10.7242 25.005 10.7236 25.3003 10.7243C25.8094 10.7255 26.1403 11.0285 26.1372 11.4893C26.1341 11.9385 25.8042 12.2402 25.312 12.2412C24.7273 12.2424 24.1424 12.2338 23.5581 12.248C23.4415 12.2509 23.2973 12.3073 23.2157 12.3896C20.1163 15.5113 17.023 18.6392 13.9281 21.7656C13.5097 22.1883 13.1032 22.1885 12.6873 21.7683C9.58703 18.6355 6.48777 15.5017 3.38349 12.3729C3.31175 12.3006 3.18572 12.2496 3.08371 12.2473C2.54106 12.235 1.99704 12.2214 1.45537 12.2477C0.994894 12.27 0.662114 12.1205 0.47364 11.6854L0.473633 11.2803ZM13.2425 12.396C13.3112 12.282 13.3595 12.206 13.404 12.1277C14.1462 10.8189 14.8875 9.50972 15.6299 8.20111C16.0193 7.51485 16.6623 7.49638 17.0789 8.15958C17.5797 8.95678 18.0805 9.75398 18.5771 10.5538C18.6491 10.6697 18.7235 10.7292 18.8722 10.7283C20.0585 10.7208 21.2448 10.7214 22.4311 10.7277C22.5757 10.7285 22.6561 10.6789 22.7308 10.5592C23.4607 9.39052 23.7302 8.12943 23.493 6.76362C22.8479 3.04928 18.6445 1.19534 15.5339 3.28274C14.9298 3.6882 14.4318 4.25688 13.8924 4.75861C13.5043 5.11971 13.0963 5.12733 12.7221 4.7568C12.4357 4.47324 12.1607 4.1777 11.868 3.90107C10.568 2.67244 9.03678 2.19508 7.28213 2.5121C3.65956 3.16659 1.85322 7.42392 3.86656 10.5378C3.95327 10.6719 4.04014 10.731 4.20555 10.7288C4.97401 10.7184 5.7428 10.7169 6.51121 10.7291C6.71453 10.7323 6.8149 10.6748 6.89537 10.4772C7.47224 9.06044 8.06556 7.65057 8.64896 6.23656C8.78483 5.90725 8.989 5.67646 9.36423 5.66188C9.73781 5.64735 9.96746 5.85161 10.123 6.17523C10.294 6.53123 10.4753 6.88222 10.6524 7.23523C11.5081 8.94031 12.3639 10.6453 13.2425 12.396ZM13.266 20.1613C15.8862 17.5144 18.5016 14.8724 21.1059 12.2415C20.2197 12.2415 19.2946 12.2335 18.3697 12.2455C18.0042 12.2502 17.7532 12.1031 17.5651 11.7945C17.2242 11.2348 16.871 10.6828 16.5218 10.1282C16.4848 10.0694 16.4408 10.0151 16.3893 9.94378C16.3319 10.0433 16.2897 10.1155 16.2484 10.1883C15.4854 11.533 14.7225 12.8778 13.9597 14.2226C13.939 14.2591 13.9194 14.2963 13.8988 14.3329C13.7375 14.6189 13.5065 14.7888 13.1683 14.7722C12.8419 14.7562 12.6371 14.5719 12.4942 14.2864C11.5318 12.363 10.5658 10.4416 9.60059 8.51972C9.56084 8.44056 9.51768 8.36314 9.46112 8.25671C9.41365 8.362 9.37773 8.43651 9.34601 8.51281C8.90745 9.568 8.46695 10.6224 8.03269 11.6794C7.87348 12.0669 7.60663 12.2572 7.18215 12.245C6.66481 12.2302 6.14674 12.2409 5.62899 12.2424C5.5704 12.2425 5.51184 12.2546 5.4462 12.2619C8.07404 14.9165 10.6836 17.5526 13.266 20.1613Z" fill="#B9B9B9"/>
</svg>
