<svg width="26" height="26" viewBox="0 0 26 26" fill="none" xmlns="http://www.w3.org/2000/svg">
<path d="M26 13.2087C25.8546 13.401 25.7285 13.6122 25.5607 13.7824C24.6577 14.6983 23.7449 15.6045 22.8345 16.5131C22.3926 16.9541 22.0256 16.9367 21.5641 16.5163C20.9253 15.9343 20.9 15.5025 21.5541 14.921C21.8549 14.6536 22.1304 14.3577 22.4731 14.0199C22.306 14.0199 22.2177 14.0199 22.1294 14.0199C20.8598 14.0199 19.5902 14.0204 18.3206 14.0197C17.7538 14.0194 17.4702 13.7327 17.4691 13.1617C17.4689 13.0263 17.4673 12.891 17.4696 12.7556C17.4772 12.2969 17.7763 11.9936 18.2345 11.9925C19.5041 11.9897 20.7737 11.9915 22.0433 11.9915C22.1343 11.9915 22.2253 11.9915 22.363 11.9915C22.2897 11.9055 22.2477 11.8487 22.1983 11.7993C21.8872 11.4881 21.5703 11.1826 21.2635 10.8673C20.9237 10.5182 20.924 10.1154 21.2557 9.76399C21.3602 9.65327 21.4684 9.5458 21.5788 9.44097C21.9418 9.09636 22.3403 9.09528 22.7027 9.44556C23.0009 9.73367 23.2905 10.0306 23.5838 10.3236C24.2483 10.9874 24.9183 11.6459 25.5734 12.3189C25.7401 12.4902 25.8591 12.7078 26 12.9042L26 13.2087Z" fill="#DFDFDF"/>
<path d="M12.7451 25.9999C12.5582 25.8464 12.3578 25.7063 12.1865 25.5369C11.29 24.6505 10.4003 23.7571 9.50921 22.8651C9.05033 22.4057 9.06764 22.0525 9.50121 21.5751C10.0705 20.9482 10.5283 20.9368 11.0829 21.5672C11.3491 21.8697 11.6431 22.1477 11.9843 22.4129C11.9843 22.3243 11.9843 22.2357 11.9843 22.1472C11.9843 20.8783 11.9989 19.6091 11.9766 18.3405C11.9685 17.8821 12.3068 17.4713 12.8605 17.4591C13.7887 17.4387 14.0462 17.751 14.0219 18.6158C13.9893 19.7739 14.0138 20.9335 14.0138 22.0925C14.0138 22.1751 14.0138 22.2577 14.0138 22.4163C14.3421 22.0857 14.6383 21.8143 14.9031 21.5151C15.5046 20.8355 15.9507 20.9097 16.5021 21.5144C16.9283 21.9817 16.9454 22.3407 16.5013 22.7854C15.5386 23.7493 14.5764 24.7138 13.6098 25.6737C13.487 25.7956 13.3387 25.8918 13.2022 25.9999H12.7451Z" fill="#DFDFDF"/>
<path d="M3.6225 11.9914C5.00573 11.9914 6.32516 11.9911 7.64459 11.9915C8.24775 11.9917 8.50066 12.273 8.53535 12.8714C8.58899 13.7965 8.2268 14.0533 7.38012 14.0285C6.20494 13.9941 5.02799 14.0199 3.85179 14.0199C3.77033 14.0199 3.68887 14.0199 3.52552 14.0199C3.90583 14.3957 4.23465 14.7181 4.5607 15.0433C5.05443 15.5358 5.05409 15.8902 4.56272 16.3807C4.49087 16.4524 4.4207 16.5259 4.34652 16.5951C3.99427 16.9239 3.58521 16.9292 3.24318 16.59C2.24611 15.6011 1.25283 14.6083 0.263458 13.6118C-0.0901318 13.2556 -0.0875345 12.8287 0.269622 12.469C1.27096 11.4605 2.27621 10.4558 3.28449 9.45415C3.65072 9.09033 4.05816 9.09349 4.42717 9.44716C4.53708 9.5525 4.64588 9.65932 4.7499 9.77041C5.07059 10.1129 5.07328 10.5145 4.74537 10.8553C4.44634 11.1662 4.13449 11.4647 3.82916 11.7695C3.77141 11.8272 3.71772 11.8889 3.6225 11.9914Z" fill="#DFDFDF"/>
<path d="M11.9843 3.53509C11.5981 3.92232 11.261 4.26197 10.922 4.5998C10.497 5.02345 10.1155 5.00531 9.66776 4.60005C9.01404 4.00829 9.02271 3.59107 9.66341 2.9822C10.5648 2.12558 11.4277 1.22844 12.3078 0.349404C12.7717 -0.114 13.1587 -0.116324 13.6174 0.341651C14.5815 1.30423 15.5452 2.26719 16.508 3.2311C16.9405 3.66414 16.9263 4.03516 16.5148 4.48454C15.9384 5.11406 15.5173 5.18394 14.901 4.49433C14.6376 4.19953 14.3419 3.93349 14.0138 3.60763V3.9218C14.0138 5.17385 14.0142 6.42589 14.0136 7.67793C14.0134 8.2693 13.7412 8.53709 13.1422 8.53795C13.0237 8.53813 12.9052 8.53875 12.7867 8.53782C12.2926 8.53391 11.986 8.22755 11.9851 7.72676C11.9828 6.44088 11.9843 5.15499 11.9843 3.86911L11.9843 3.53509Z" fill="#DFDFDF"/>
<path d="M13.0007 15.0348C11.8827 15.0356 10.9697 14.1242 10.9691 13.0069C10.9685 11.8895 11.8805 10.9769 12.9982 10.9766C14.1175 10.9762 15.0286 11.8859 15.0292 13.0044C15.0298 14.123 14.1197 15.0341 13.0007 15.0348Z" fill="#DFDFDF"/>
</svg>
