<svg width="19" height="31" viewBox="0 0 19 31" fill="none" xmlns="http://www.w3.org/2000/svg">
<path d="M2.7468 30.311C2.73607 30.2962 2.72839 30.2729 2.71416 30.2678C2.04614 30.0301 1.76162 29.5431 1.80672 28.8565C1.8231 28.6072 1.75109 28.4732 1.50979 28.3487C0.779967 27.9721 0.371061 27.3541 0.292526 26.5318C0.278785 26.3879 0.274021 26.2426 0.273997 26.098C0.27308 20.9506 0.274961 15.8032 0.270997 10.6558C0.270508 10.0167 0.405981 9.43182 0.838133 8.93946C1.33687 8.37123 1.9776 8.13039 2.72238 8.13032C3.36102 8.13026 3.99966 8.13031 4.68336 8.13031C4.68336 8.00734 4.68336 7.90555 4.68336 7.80377C4.68336 6.75111 4.68701 5.69842 4.6789 4.64582C4.67785 4.50918 4.61875 4.37231 4.58147 4.23692C4.56367 4.17226 4.51152 4.11024 4.51318 4.04804C4.53071 3.3942 4.47416 2.72459 4.59899 2.09078C4.77025 1.22128 5.60983 0.638323 6.50105 0.636472C8.34335 0.63264 10.1857 0.631711 12.028 0.636681C13.1162 0.639616 14.0033 1.51238 14.0295 2.59982C14.0398 3.02451 14.0327 3.44963 14.0312 3.87455C14.031 3.94154 14.0399 4.02181 14.0079 4.07331C13.7654 4.46371 13.8531 4.89506 13.8492 5.312C13.8403 6.2372 13.8464 7.16255 13.8464 8.13023C13.9829 8.13023 14.0951 8.12867 14.2073 8.13048C14.8854 8.14147 15.5668 8.1157 16.2409 8.17338C17.2929 8.26339 18.1376 9.14846 18.2314 10.1931C18.2486 10.3851 18.2558 10.5786 18.2559 10.7715C18.2572 15.8223 18.2469 20.8732 18.2646 25.924C18.2685 27.0586 17.9219 27.9422 16.8467 28.4557C16.7809 28.4871 16.7435 28.6208 16.7312 28.7121C16.6994 28.9496 16.7188 29.1971 16.6635 29.4278C16.5526 29.8899 16.1829 30.1214 15.7828 30.311H14.6189C13.865 30.005 13.5729 29.4258 13.6832 28.6455H4.85537C4.85537 28.7655 4.87757 28.8756 4.85121 28.9726C4.77215 29.2636 4.72991 29.5872 4.56682 29.826C4.42212 30.0378 4.13499 30.1531 3.91073 30.311H2.7468ZM1.16585 18.3831C1.16585 20.9719 1.188 23.5611 1.15417 26.1495C1.14188 27.0905 1.78723 27.7687 2.78229 27.7651C7.10796 27.7494 11.4337 27.7502 15.7594 27.7644C16.7677 27.7677 17.3784 27.0627 17.3746 26.166C17.3524 20.9787 17.3517 15.7912 17.3752 10.6039C17.3793 9.70623 16.7468 9.00895 15.7904 9.01412C11.4357 9.03769 7.08077 9.03701 2.72607 9.01452C1.78539 9.00967 1.14363 9.7083 1.15444 10.5876C1.18636 13.1857 1.16585 15.7845 1.16585 18.3831ZM7.05048 8.11451H11.4496C11.4615 8.07341 11.4759 8.04672 11.4759 8.01999C11.4777 6.85133 11.4791 5.68266 11.4767 4.514C11.4765 4.45089 11.4427 4.38812 11.4264 4.32472C11.3819 4.15118 11.3253 3.97936 11.2986 3.80308C11.2777 3.66488 11.2944 3.52105 11.2944 3.37616H7.25414C7.23671 3.64359 7.291 3.92725 7.18764 4.13197C7.03627 4.4318 7.05466 4.72465 7.05177 5.02757C7.047 5.52977 7.05048 6.03205 7.05048 6.5343L7.05048 8.11451ZM13.1425 3.69117C13.1425 3.29132 13.169 2.92362 13.1365 2.56117C13.0818 1.95004 12.6301 1.51302 12.0263 1.5087C10.1855 1.49557 8.34448 1.49775 6.50364 1.50792C5.99145 1.51075 5.51589 1.86405 5.43803 2.33353C5.36507 2.77342 5.38238 3.22818 5.35941 3.68743H6.35826C6.35826 3.51929 6.35653 3.36716 6.35858 3.21508C6.36504 2.73755 6.61382 2.48853 7.09865 2.48768C8.5423 2.48514 9.98595 2.4851 11.4296 2.48768C11.9243 2.48856 12.1669 2.74049 12.1712 3.24316C12.1725 3.39257 12.1714 3.54199 12.1714 3.69116L13.1425 3.69117ZM6.15253 8.11496V4.5968H5.60363V8.11496H6.15253ZM12.3736 4.58671V8.10844H12.9302V4.58671H12.3736ZM3.97264 28.6423H2.68317C2.7118 28.9027 2.56628 29.2416 2.86133 29.3468C3.1366 29.445 3.49426 29.4461 3.77551 29.36C4.08481 29.2652 3.95188 28.9211 3.97264 28.6423ZM14.5568 28.6425C14.5782 28.9202 14.4438 29.2646 14.7529 29.3597C15.034 29.4462 15.3921 29.4455 15.6669 29.3468C15.9575 29.2425 15.8284 28.9052 15.8367 28.6425L14.5568 28.6425Z" fill="#B9B9B9"/>
<path d="M10.7566 18.6316C10.7566 20.6505 10.7591 22.6695 10.7554 24.6884C10.7539 25.5321 10.3132 26.1022 9.54936 26.2715C8.77159 26.444 7.94887 25.8982 7.81419 25.1143C7.78656 24.9534 7.77491 24.7879 7.77482 24.6245C7.77271 20.6349 7.77509 16.6453 7.771 12.6556C7.77041 12.0801 7.93188 11.5909 8.42151 11.2471C9.30932 10.6239 10.5637 11.1584 10.7224 12.2293C10.7463 12.3909 10.7552 12.556 10.7553 12.7196C10.7575 14.6902 10.7568 16.6609 10.7566 18.6316ZM9.85945 18.6407C9.85945 16.6712 9.85951 14.7017 9.85927 12.7323C9.85925 12.6261 9.86251 12.5195 9.85422 12.4138C9.82852 12.0868 9.58472 11.8678 9.25619 11.8711C8.94182 11.8743 8.70366 12.0894 8.67614 12.4017C8.66685 12.5072 8.67038 12.6139 8.67038 12.7201C8.67015 16.6687 8.67015 20.6173 8.6704 24.566C8.6704 24.6721 8.66584 24.7791 8.67673 24.8843C8.70609 25.1676 8.86824 25.341 9.14457 25.4014C9.54545 25.4891 9.85726 25.2095 9.85792 24.7519C9.86085 22.7149 9.85919 20.6778 9.85945 18.6407Z" fill="#B9B9B9"/>
<path d="M15.6119 18.6485C15.6119 20.6964 15.6148 22.7443 15.6103 24.7921C15.6088 25.4983 15.1831 26.0659 14.5431 26.2455C13.5887 26.5134 12.6561 25.8144 12.6475 24.8104C12.6379 23.6803 12.6451 22.55 12.6451 21.4198C12.645 19.739 12.6442 18.0582 12.6471 16.3774C12.6473 16.2641 12.6355 16.1115 12.6999 16.046C12.8164 15.9276 12.9815 15.8 13.1351 15.7881C13.3373 15.7724 13.4907 15.9261 13.5157 16.1503C13.5285 16.265 13.5263 16.3817 13.5263 16.4975C13.5268 19.1829 13.5264 21.8683 13.5277 24.5537C13.5277 24.6787 13.5286 24.8061 13.5512 24.9282C13.607 25.2288 13.8521 25.4267 14.1432 25.4213C14.4443 25.4157 14.6918 25.1914 14.7325 24.8828C14.7412 24.8162 14.7373 24.7478 14.7373 24.6802C14.7375 20.6521 14.7377 16.624 14.7371 12.5958C14.7371 12.1867 14.5609 11.9302 14.25 11.8773C13.8434 11.8082 13.5384 12.079 13.5295 12.5386C13.5191 13.0697 13.5255 13.6011 13.5261 14.1324C13.5263 14.3595 13.4363 14.5294 13.2098 14.595C12.9366 14.6742 12.66 14.4938 12.6531 14.2021C12.638 13.5651 12.6114 12.9241 12.6639 12.2908C12.7282 11.5148 13.4282 10.948 14.1825 10.9848C15.0063 11.025 15.6065 11.6396 15.6093 12.476C15.6161 14.5335 15.6115 16.591 15.6119 18.6485Z" fill="#B9B9B9"/>
<path d="M5.88405 18.6496C5.88405 20.6974 5.8885 22.7452 5.88142 24.793C5.87922 25.4304 5.57821 25.9076 4.99412 26.1715C4.42921 26.4267 3.89222 26.3301 3.42213 25.9332C3.10562 25.6659 2.92524 25.3175 2.92157 24.8965C2.916 24.2591 2.91495 23.6215 2.91942 22.984C2.92144 22.6956 3.10284 22.5027 3.35063 22.5022C3.59796 22.5016 3.78683 22.6976 3.78977 22.9806C3.7957 23.5505 3.79086 24.1204 3.79221 24.6903C3.79326 25.1413 4.02676 25.4227 4.39616 25.422C4.76725 25.4214 4.99942 25.1475 5.00131 24.6883C5.0053 23.7224 5.0026 22.7564 5.00261 21.7905C5.00262 18.7671 5.00291 15.7437 5.00156 12.7203C5.00151 12.5954 4.9992 12.4679 4.97514 12.3461C4.91524 12.043 4.6796 11.8631 4.37398 11.8714C4.08034 11.8793 3.84166 12.0888 3.7992 12.3855C3.78563 12.4804 3.79212 12.5783 3.79211 12.6748C3.79183 15.3602 3.79228 18.0455 3.79047 20.7308C3.79039 20.8451 3.79332 20.9684 3.75349 21.0717C3.67552 21.2739 3.50969 21.3675 3.29 21.336C3.07098 21.3046 2.9464 21.1736 2.92189 20.9531C2.91658 20.9053 2.91728 20.8566 2.91728 20.8084C2.91718 18.0361 2.91333 15.2638 2.91957 12.4916C2.92177 11.514 3.71916 10.8534 4.67811 11.0119C5.37155 11.1265 5.88142 11.7498 5.88284 12.5062C5.88668 14.554 5.88415 16.6018 5.88405 18.6496Z" fill="#B9B9B9"/>
</svg>
