<svg width="26" height="27" viewBox="0 0 26 27" fill="none" xmlns="http://www.w3.org/2000/svg">
<path d="M0.233887 5.82874C0.649093 5.40348 1.05385 4.96704 1.48711 4.56111C1.59084 4.46393 1.78911 4.43331 1.94455 4.43159C3.0461 4.41936 4.14789 4.42799 5.2494 4.41382C5.37977 4.41214 5.53817 4.34363 5.63357 4.25322C6.08456 3.82581 6.50817 3.36937 6.96013 2.94303C7.82514 2.12707 9.20918 2.53164 9.49295 3.68366C9.54722 3.90401 9.52932 4.14217 9.54748 4.41343C9.98619 4.41343 10.4408 4.37892 10.8879 4.42232C11.4244 4.4744 11.8151 4.2956 12.1499 3.88192C12.3989 3.57434 12.705 3.31297 12.9873 3.03268C13.5165 2.50726 14.1621 2.37226 14.7789 2.6561C15.3883 2.93657 15.7074 3.53093 15.6449 4.26786C15.6421 4.3003 15.6445 4.33317 15.6445 4.39898C16.11 4.39898 16.571 4.40458 17.0315 4.39278C17.0986 4.39106 17.1717 4.31442 17.2281 4.25842C17.734 3.75633 18.2319 3.2461 18.7442 2.75065C18.858 2.64053 19.009 2.54759 19.1597 2.50023C21.0508 1.90588 22.945 1.32138 24.8383 0.734193C24.8541 0.729307 24.8689 0.721325 24.8845 0.716C25.1134 0.638095 25.3391 0.602926 25.5334 0.794703C25.7272 0.985956 25.6954 1.20908 25.6227 1.44214C25.2338 2.68907 24.8484 3.9371 24.4617 5.18471C24.2561 5.84797 24.0574 6.51355 23.8391 7.1726C23.7868 7.33072 23.6921 7.48958 23.5767 7.60945C23.0884 8.11706 22.5805 8.60576 22.0915 9.11276C22.0103 9.19697 21.9497 9.33616 21.9448 9.45273C21.9272 9.86424 21.9379 10.277 21.9379 10.6954C22.1298 10.6954 22.2947 10.6802 22.4559 10.6981C23.0724 10.7666 23.504 11.1016 23.7197 11.6754C23.9396 12.2603 23.827 12.8082 23.3966 13.2642C22.9701 13.716 22.5154 14.1412 22.0872 14.5916C22.0017 14.6815 21.9403 14.8311 21.9363 14.9554C21.9189 15.4939 21.9268 16.0333 21.9256 16.5723C21.9255 16.653 21.9256 16.7336 21.9256 16.8339C22.0477 16.8278 22.1376 16.8221 22.2275 16.8189C22.8648 16.796 23.4341 17.1326 23.6819 17.7072C23.9424 18.3111 23.8628 18.8846 23.417 19.3697C22.9855 19.8393 22.5148 20.2725 22.0753 20.735C21.9899 20.8249 21.9261 20.9756 21.9246 21.0991C21.9116 22.1936 21.9098 23.2884 21.9172 24.383C21.9189 24.6414 21.8498 24.8434 21.6574 25.0219C21.3598 25.2978 21.0807 25.5936 20.7928 25.8801C20.4991 26.1725 20.1651 26.1721 19.8701 25.8769C17.4918 23.4965 15.1137 21.1157 12.7365 18.7342C12.6722 18.6698 12.6177 18.5958 12.5511 18.5174C12.1084 18.824 11.6853 19.1094 11.2743 19.4112C11.2227 19.4491 11.2195 19.5736 11.2193 19.6581C11.2159 21.0927 11.2127 22.5274 11.22 23.9621C11.2213 24.2051 11.1458 24.3895 10.9732 24.5567C10.5804 24.9373 10.1993 25.3299 9.81147 25.7157C9.49785 26.0277 9.2432 26.0313 8.93593 25.7238C6.1706 22.9568 3.40592 20.189 0.641947 17.4206C0.331981 17.1101 0.334715 16.8581 0.64606 16.5447C1.0433 16.1449 1.44574 15.7502 1.83896 15.3465C1.98814 15.1934 2.15415 15.128 2.36862 15.1288C3.80991 15.1344 5.25125 15.1288 6.69253 15.1356C6.86077 15.1364 6.95858 15.0847 7.05058 14.9435C7.29409 14.5696 7.55684 14.2083 7.86625 13.764C7.79439 13.7199 7.69556 13.6823 7.62722 13.614C5.27561 11.2655 2.92658 8.91429 0.578637 6.56202C0.457132 6.44029 0.34851 6.30567 0.233887 6.17705C0.233887 6.06095 0.233887 5.94484 0.233887 5.82874ZM5.78005 20.564C5.87338 20.5532 5.92946 20.5521 5.98289 20.5397C8.68622 19.9096 11.0729 18.6679 13.0505 16.7174C16.3127 13.5002 19.536 10.2437 22.7724 7.00034C22.8496 6.92296 22.9068 6.81197 22.9399 6.70616C23.4085 5.20771 23.8716 3.70754 24.3346 2.20735C24.3596 2.12616 24.3723 2.04114 24.3957 1.93519C24.3223 1.95219 24.2826 1.9588 24.2445 1.97058C22.6988 2.44842 21.1527 2.92481 19.6091 3.40898C19.4974 3.44399 19.3877 3.51999 19.3038 3.60379C16.1744 6.73148 13.0488 9.86298 9.92121 12.9925C8.50584 14.4087 7.3948 16.0301 6.61941 17.8791C6.26071 18.7345 5.9791 19.614 5.78005 20.564ZM20.3962 24.9189C20.4594 24.8389 20.5209 24.7209 20.6166 24.6477C20.865 24.458 20.9209 24.2209 20.9204 23.9154C20.9133 19.4871 20.9189 15.0588 20.9215 10.6306C20.9215 10.5357 20.9215 10.4408 20.9215 10.2731C18.3612 12.8513 15.854 15.3761 13.3595 17.8882C13.8867 18.4179 14.4389 18.9726 15.0299 19.5664C15.0751 19.5045 15.1207 19.4221 15.1845 19.3578C15.8207 18.7165 16.4596 18.0778 17.0986 17.4392C17.393 17.1451 17.6687 17.1105 17.9012 17.3357C18.137 17.564 18.1025 17.8556 17.8009 18.1584C17.3097 18.6517 16.8187 19.1453 16.3244 19.6355C16.1132 19.845 15.8941 20.0464 15.7101 20.2214C16.4098 20.9265 17.0792 21.6011 17.7564 22.2835C17.8034 22.2389 17.8638 22.184 17.9216 22.1263C18.3435 21.7044 18.7548 21.2709 19.1933 20.8669C19.3118 20.7576 19.5205 20.6696 19.6731 20.6888C20.0866 20.741 20.2173 21.2326 19.9098 21.5469C19.4293 22.038 18.9343 22.5149 18.4621 22.9813C19.108 23.6283 19.7317 24.2532 20.3962 24.9189ZM8.46667 12.9843C10.9757 10.4879 13.4978 7.97841 16.0566 5.43251C15.9224 5.42604 15.8434 5.41888 15.7644 5.41891C12.9812 5.42011 10.1979 5.42198 7.41458 5.42375C5.69159 5.42485 3.96861 5.42472 2.24563 5.43009C2.14547 5.43041 2.02491 5.44789 1.94943 5.50474C1.76523 5.64345 1.60193 5.80999 1.44983 5.94757C2.11095 6.60903 2.73517 7.23356 3.37357 7.87229C3.82956 7.41432 4.30099 6.93736 4.77656 6.46457C5.02806 6.21455 5.3366 6.19558 5.54447 6.40784C5.76208 6.63004 5.74113 6.91047 5.47972 7.17457C5.05407 7.60458 4.62469 8.03088 4.19788 8.45974C4.14796 8.50989 4.10431 8.56629 4.06736 8.60876C4.75032 9.29344 5.41686 9.96165 6.13776 10.6844C6.18347 10.6136 6.2218 10.5245 6.28525 10.4604C6.91484 9.82411 7.54848 9.19181 8.18134 8.55875C8.23401 8.50606 8.28541 8.45094 8.34414 8.4057C8.55122 8.24616 8.82158 8.25656 9.00244 8.42669C9.18947 8.60263 9.21126 8.88731 9.04791 9.10246C8.99314 9.17459 8.92525 9.2371 8.8608 9.30144C8.17498 9.98609 7.48864 10.6702 6.82141 11.3356C7.38941 11.9048 7.94249 12.4591 8.46667 12.9843ZM9.41493 24.704C9.62461 24.4892 9.86352 24.2596 10.0821 24.012C10.1553 23.9291 10.2147 23.8006 10.2156 23.6923C10.2256 22.5404 10.2228 21.3883 10.2225 20.2362C10.2224 20.1756 10.2123 20.115 10.2044 20.0266C8.91914 20.7083 7.59489 21.1991 6.22491 21.5166C7.28444 22.5753 8.33648 23.6264 9.41493 24.704ZM1.6651 16.93C2.73996 18.0078 3.79283 19.0636 4.84645 20.1201C5.15844 18.7506 5.65982 17.4221 6.3378 16.1276C5.05569 16.1276 3.81615 16.1269 2.57663 16.1302C2.52532 16.1304 2.4621 16.1563 2.4248 16.1918C2.15559 16.4475 1.89163 16.7087 1.6651 16.93ZM6.97525 4.41449C7.36459 4.41449 7.76454 4.41511 8.16447 4.41427C8.43781 4.4137 8.57739 4.29201 8.52574 4.02635C8.49497 3.86806 8.38405 3.66631 8.25214 3.60276C8.10905 3.53384 7.84482 3.53374 7.73022 3.62519C7.45185 3.84735 7.22961 4.13999 6.97525 4.41449ZM21.9245 19.456C22.2162 19.1624 22.4629 18.9319 22.6879 18.682C22.8639 18.4865 22.8522 18.1906 22.6915 18.0007C22.5378 17.819 22.2671 17.7568 22.0658 17.8738C22.0046 17.9093 21.9323 17.9911 21.9307 18.0534C21.919 18.496 21.9245 18.9389 21.9245 19.456ZM13.0571 4.40732C13.4956 4.40732 13.8824 4.40776 14.2693 4.40718C14.5747 4.40673 14.7088 4.28399 14.6415 3.98898C14.6062 3.83401 14.4768 3.63825 14.3413 3.58524C14.1935 3.52742 13.945 3.55415 13.8194 3.64898C13.5534 3.84991 13.3388 4.11903 13.0571 4.40732ZM21.9363 13.2991C22.2207 13.0181 22.4644 12.7948 22.6866 12.5519C22.8552 12.3675 22.8589 12.1424 22.7331 11.9306C22.6086 11.721 22.4029 11.6501 22.1769 11.7077C22.0855 11.731 21.9506 11.8367 21.947 11.9103C21.9255 12.3533 21.9363 12.7979 21.9363 13.2991Z" fill="#B9B9B9"/>
<path d="M18.8826 8.05389C18.8337 8.12676 18.7567 8.29169 18.6362 8.41338C17.4417 9.61958 16.2399 10.8186 15.0402 12.0197C14.1564 12.9043 13.2769 13.7933 12.3839 14.6684C12.2636 14.7863 12.0788 14.8944 11.9181 14.9034C11.5504 14.9238 11.3237 14.4985 11.5053 14.1735C11.5488 14.0957 11.6137 14.0277 11.6774 13.9638C13.7658 11.8712 15.8535 9.77791 17.9491 7.69267C18.0622 7.5802 18.2377 7.49068 18.3943 7.47096C18.6664 7.43667 18.8788 7.67173 18.8826 8.05389Z" fill="#B9B9B9"/>
<path d="M10.529 15.327C10.8166 15.3255 11.0266 15.5364 11.0247 15.8246C11.0229 16.1077 10.7996 16.3287 10.5221 16.3223C10.2626 16.3163 10.0365 16.0894 10.0309 15.8293C10.0249 15.5526 10.2472 15.3284 10.529 15.327Z" fill="#B9B9B9"/>
<path d="M10.0544 7.87667C9.76933 7.87116 9.56554 7.65349 9.57398 7.36356C9.5818 7.09534 9.80154 6.87985 10.0669 6.88019C10.3356 6.88053 10.5706 7.11945 10.5673 7.38873C10.5638 7.66685 10.3375 7.88214 10.0544 7.87667Z" fill="#B9B9B9"/>
</svg>
