<svg width="21" height="27" viewBox="0 0 21 27" fill="none" xmlns="http://www.w3.org/2000/svg">
<path d="M9.31785 10.4768C7.75808 9.72426 7.5137 8.3289 7.7841 7.348C8.09744 6.2113 9.1345 5.45707 10.3361 5.47686C11.4762 5.49565 12.492 6.28812 12.7678 7.3907C13.0519 8.52626 12.6141 9.8252 11.2217 10.4697C12.6401 15.2929 14.0596 20.1198 15.4866 24.9726C15.5753 24.9769 15.6688 24.9853 15.7623 24.9854C16.3851 24.9866 17.008 24.9852 17.6308 24.9863C18.132 24.9873 18.4503 25.2663 18.4443 25.6963C18.4384 26.1124 18.1221 26.3851 17.6381 26.3852C14.378 26.3859 11.1179 26.3856 7.85785 26.3856C6.18401 26.3856 4.51017 26.3868 2.83633 26.3846C2.44891 26.3841 2.15742 26.1502 2.10122 25.8094C2.04469 25.4665 2.23405 25.1371 2.56534 25.0266C2.66378 24.9938 2.77471 24.9883 2.88001 24.9878C3.52228 24.9844 4.16477 24.9771 4.80674 24.9914C5.00844 24.9959 5.08733 24.9346 5.14397 24.7399C6.01116 21.7594 6.88794 18.7818 7.76164 15.8032C8.25588 14.1183 8.74861 12.4329 9.24182 10.7477C9.26845 10.6567 9.29313 10.5651 9.31785 10.4768ZM13.9961 24.9752C13.7786 24.2334 13.5701 23.5073 13.3465 22.786C13.3274 22.7241 13.2084 22.6541 13.1356 22.6538C11.2283 22.6466 9.32105 22.6502 7.41379 22.6444C7.24652 22.6439 7.20495 22.7233 7.16577 22.8593C6.98326 23.4933 6.79043 24.1242 6.6038 24.757C6.58362 24.8254 6.57969 24.8986 6.56733 24.9752H13.9961ZM12.8951 21.2401C12.678 20.492 12.4686 19.7581 12.2459 19.0283C12.2294 18.9742 12.1177 18.9159 12.05 18.9156C10.8633 18.9087 9.6765 18.9087 8.48978 18.9156C8.42229 18.916 8.31119 18.9749 8.29462 19.0292C8.072 19.7587 7.86259 20.4922 7.64543 21.2401H12.8951ZM11.7849 17.5031C11.2827 15.7886 10.7902 14.1079 10.2978 12.4271C10.2759 12.4299 10.2539 12.4328 10.232 12.4356C9.7384 14.1193 9.24484 15.803 8.74649 17.5031H11.7849ZM9.10327 8.05192C9.10003 8.6912 9.62509 9.21902 10.2663 9.2211C10.9085 9.22318 11.4392 8.69601 11.4361 8.05934C11.4329 7.42435 10.897 6.89711 10.2581 6.90046C9.6358 6.90372 9.10642 7.43155 9.10327 8.05192Z" fill="#B9B9B9"/>
<path d="M20.291 7.83691C20.2406 10.7647 19.3083 13.1056 17.4295 15.0597C17.0372 15.4678 16.6388 15.5169 16.3173 15.2056C15.9952 14.8939 16.0414 14.4667 16.4377 14.0598C17.7095 12.7538 18.5191 11.2006 18.7853 9.40175C19.2061 6.559 18.4047 4.08177 16.4213 1.99431C16.1468 1.70538 16.0997 1.43331 16.2786 1.12768C16.5091 0.734076 17.0264 0.655894 17.3477 0.980154C18.8338 2.48006 19.7683 4.27118 20.1291 6.35115C20.2267 6.91396 20.2544 7.48891 20.291 7.83691Z" fill="#B9B9B9"/>
<path d="M0.272461 7.47351C0.3054 5.31143 1.25606 2.95948 3.1583 0.998463C3.46579 0.681483 3.87163 0.668727 4.161 0.956887C4.44786 1.24254 4.4466 1.65609 4.13998 1.96961C2.97683 3.15898 2.18399 4.55415 1.85105 6.18644C1.24249 9.16988 1.99898 11.7787 4.0568 14.018C4.19815 14.1719 4.3462 14.3453 4.41213 14.5368C4.51793 14.8442 4.34522 15.171 4.06111 15.3247C3.78759 15.4728 3.51894 15.4315 3.26548 15.1823C2.42583 14.3567 1.7503 13.4119 1.2433 12.3491C0.593358 10.9867 0.273218 9.55153 0.272461 7.47351Z" fill="#B9B9B9"/>
<path d="M16.586 8.04025C16.5526 9.78731 15.9397 11.273 14.7188 12.5045C14.5135 12.7116 14.2764 12.8113 13.9804 12.7242C13.7214 12.648 13.5681 12.4723 13.5061 12.2199C13.4363 11.9358 13.5556 11.7102 13.7532 11.5133C14.5208 10.7481 15.007 9.83067 15.1483 8.75726C15.3634 7.12261 14.895 5.70257 13.7092 4.54133C13.3641 4.20336 13.3048 3.77177 13.599 3.46673C13.8955 3.15929 14.3289 3.19324 14.6748 3.53756C15.9272 4.78427 16.5576 6.29096 16.586 8.04025Z" fill="#B9B9B9"/>
<path d="M3.97019 8.07903C3.98575 6.27805 4.65968 4.75898 5.94785 3.5084C6.23141 3.23312 6.67539 3.24559 6.94226 3.52333C7.20845 3.80035 7.20561 4.24994 6.91635 4.51902C5.74143 5.61195 5.23632 6.96504 5.36221 8.55216C5.45223 9.68706 5.92206 10.6589 6.70303 11.4852C7.10775 11.9134 6.97516 12.5018 6.44261 12.677C6.18692 12.761 5.96274 12.7072 5.77569 12.516C4.80843 11.5271 4.21863 10.3503 4.02222 8.97907C4.00296 8.84456 3.97938 8.70995 3.97225 8.57463C3.96357 8.40986 3.97019 8.24427 3.97019 8.07903Z" fill="#B9B9B9"/>
</svg>
