<svg width="14" height="15" viewBox="0 0 14 15" fill="none" xmlns="http://www.w3.org/2000/svg">
<path d="M6.72722 5.04015e-05C6.90642 0.121951 7.10314 0.227512 7.26178 0.368596C7.89819 0.934642 8.52602 1.50884 9.15064 2.08572C9.55817 2.46212 9.38512 3.05689 8.8367 3.17866C8.58108 3.23542 8.35536 3.17169 8.16836 3.00289C7.90756 2.76743 7.64875 2.53015 7.38877 2.29396C7.353 2.26147 7.31529 2.23081 7.24779 2.173V2.36218C7.24779 4.46315 7.24814 6.56411 7.24744 8.66508C7.24732 9.03608 7.03425 9.29609 6.68267 9.36126C6.25306 9.4409 5.86699 9.16611 5.8355 8.75729C5.83153 8.70571 5.83355 8.6537 5.83355 8.6019C5.83348 6.53862 5.83348 4.47534 5.83348 2.41205C5.83348 2.35786 5.83348 2.30369 5.83348 2.20722C5.52894 2.48571 5.25658 2.73389 4.9854 2.98313C4.8493 3.10821 4.69064 3.18835 4.4939 3.19555C4.19947 3.20633 3.93761 3.06352 3.81678 2.82711C3.69463 2.58815 3.74185 2.31817 3.94371 2.11881C4.01378 2.0496 4.08899 1.9847 4.16213 1.91808C4.74728 1.3851 5.32782 0.847836 5.921 0.322381C6.06489 0.194899 6.25043 0.106425 6.41682 7.62939e-06C6.52028 7.62939e-06 6.62376 5.04015e-05 6.72722 5.04015e-05Z" fill="#F5F5F5"/>
<path d="M4.62068 5.00903V6.35148C4.56917 6.35148 4.5193 6.35148 4.46943 6.35148C3.79563 6.35148 3.12183 6.35024 2.44803 6.35211C2.14421 6.35297 1.8551 6.41964 1.59259 6.58733C1.39783 6.71174 1.29178 6.87446 1.29284 7.13386C1.30057 9.04726 1.30008 10.9607 1.29308 12.8741C1.29221 13.1076 1.38137 13.2628 1.55343 13.3835C1.85344 13.5941 2.19222 13.6475 2.54411 13.6475C4.81699 13.6471 7.08987 13.6483 9.36275 13.6465C9.87498 13.6461 10.3875 13.6443 10.8994 13.626C11.1536 13.6169 11.3904 13.5219 11.6003 13.3649C11.7569 13.2479 11.836 13.0998 11.8354 12.8869C11.8303 10.9636 11.8297 9.0402 11.836 7.11685C11.8367 6.88998 11.7493 6.7373 11.5825 6.61864C11.3145 6.42806 11.0123 6.35398 10.6935 6.35252C10.0197 6.3494 9.34588 6.35152 8.6721 6.35148C8.62096 6.35148 8.56982 6.35148 8.51052 6.35148V5.01033C8.55545 5.007 8.59655 5.00133 8.63765 5.00131C9.32569 5.00077 10.0137 4.99847 10.7018 5.00169C11.3618 5.00478 11.9682 5.18479 12.482 5.63541C12.9051 6.00647 13.1265 6.47787 13.125 7.06633C13.1202 8.9698 13.1232 10.8733 13.1232 12.7768C13.1232 13.7452 12.7137 14.3866 11.8571 14.7607C11.5071 14.9136 11.1415 14.9964 10.7637 14.9967C7.96409 14.9996 5.1645 15.0032 2.36494 14.9946C1.70123 14.9926 1.09354 14.7827 0.590043 14.3086C0.199342 13.9406 0.00249471 13.4835 0.00411033 12.9251C0.00964653 11.0167 0.0204389 9.10802 0.000168215 7.19979C-0.00984865 6.25613 0.42792 5.65829 1.20019 5.27274C1.56467 5.09077 1.95367 5.00524 2.3573 5.00348C3.08327 5.00032 3.80927 5.0016 4.53524 5.0014C4.55872 5.0014 4.58225 5.00548 4.62068 5.00903Z" fill="#F5F5F5"/>
</svg>
