<svg width="16" height="16" viewBox="0 0 16 16" fill="none" xmlns="http://www.w3.org/2000/svg">
<path d="M8.12542 0C8.40474 0.116447 8.51473 0.323137 8.50396 0.626557C8.48809 1.07348 8.50089 1.52139 8.49948 1.96887C8.49849 2.28322 8.28738 2.5024 7.99261 2.49925C7.70792 2.49619 7.50228 2.27594 7.50134 1.96887C7.49997 1.52139 7.51274 1.07348 7.49687 0.626557C7.4861 0.32314 7.59609 0.116451 7.87541 3.26174e-06L8.12542 0Z" fill="#F5F5F5"/>
<path d="M0 7.87541C0.116451 7.59609 0.323137 7.4861 0.626557 7.49687C1.07348 7.51274 1.52139 7.49994 1.96887 7.50135C2.28322 7.50233 2.50241 7.71345 2.49925 8.00822C2.49619 8.29291 2.27594 8.49855 1.96887 8.49949C1.52139 8.50086 1.07348 8.48809 0.626557 8.50396C0.323141 8.51473 0.116451 8.40474 3.26174e-06 8.12542L0 7.87541Z" fill="#F5F5F5"/>
<path d="M7.99578 3.4993C10.486 3.49525 12.5043 5.51292 12.5016 8.00363C12.4988 10.4908 10.4927 12.4976 8.00506 12.5016C5.51482 12.5057 3.49651 10.488 3.49927 7.99729C3.50203 5.51008 5.50809 3.50335 7.99578 3.4993Z" fill="#F5F5F5"/>
<path d="M14.7509 8.49984C14.5062 8.49984 14.2615 8.50154 14.0169 8.49941C13.7154 8.4968 13.4986 8.28199 13.5016 7.99272C13.5046 7.71263 13.7217 7.5029 14.0167 7.50164C14.5061 7.49955 14.9954 7.49951 15.4848 7.50165C15.7863 7.50296 16.0031 7.71892 16 8.0082C15.997 8.28828 15.7799 8.49689 15.4849 8.49942C15.2403 8.50152 14.9956 8.49984 14.7509 8.49984Z" fill="#F5F5F5"/>
<path d="M8.49981 14.7507C8.49981 14.9953 8.50151 15.24 8.49938 15.4847C8.49677 15.7862 8.28196 16.003 7.99269 15.9999C7.7126 15.9969 7.50287 15.7799 7.50161 15.4848C7.49952 14.9955 7.49948 14.5061 7.50162 14.0168C7.50293 13.7153 7.71889 13.4985 8.00816 13.5016C8.28826 13.5045 8.49685 13.7216 8.49939 14.0166C8.50149 14.2613 8.49981 14.506 8.49981 14.7507Z" fill="#F5F5F5"/>
<path d="M4.28638 3.74554C4.251 3.96849 4.15618 4.12295 3.97027 4.20861C3.78627 4.29339 3.59298 4.28527 3.44508 4.14304C3.05897 3.77172 2.67832 3.39408 2.30962 3.00557C2.12747 2.81364 2.1623 2.51064 2.35514 2.33118C2.55557 2.14464 2.83713 2.14028 3.0445 2.33924C3.35605 2.63815 3.6573 2.9478 3.96268 3.25313C4.01785 3.30829 4.08345 3.35743 4.12363 3.42214C4.18705 3.52425 4.23302 3.63719 4.28638 3.74554Z" fill="#F5F5F5"/>
<path d="M12.3141 11.742C12.3728 11.7729 12.509 11.8122 12.6002 11.8988C12.9585 12.239 13.306 12.5908 13.6509 12.9448C13.8615 13.161 13.8585 13.4558 13.6581 13.6568C13.4577 13.8579 13.1619 13.8621 12.9461 13.652C12.5884 13.3035 12.2364 12.9491 11.8865 12.5927C11.733 12.4363 11.7024 12.2443 11.7864 12.0448C11.8686 11.8493 12.0267 11.7518 12.3141 11.742Z" fill="#F5F5F5"/>
<path d="M4.56296 12.0019C4.52514 12.0722 4.48426 12.208 4.3971 12.2998C4.06085 12.6539 3.71256 12.9968 3.36327 13.3383C3.14745 13.5493 2.8536 13.5474 2.65256 13.3459C2.45767 13.1505 2.45185 12.8553 2.65527 12.6461C3.00305 12.2885 3.35626 11.9359 3.71419 11.5884C3.8693 11.4378 4.05935 11.4043 4.26102 11.4966C4.44941 11.5829 4.53672 11.7393 4.56296 12.0019Z" fill="#F5F5F5"/>
<path d="M14.039 2.51062C13.9762 2.6251 13.9339 2.75911 13.847 2.85059C13.5135 3.2013 13.1684 3.54103 12.8224 3.87951C12.6103 4.08694 12.3054 4.08636 12.1097 3.88947C11.9134 3.69215 11.9145 3.38964 12.1231 3.17668C12.4617 2.83086 12.8055 2.48997 13.149 2.14895C13.3094 1.98977 13.5023 1.9504 13.7085 2.03678C13.9044 2.11878 14.0011 2.27761 14.039 2.51062Z" fill="#F5F5F5"/>
</svg>
