<svg width="30" height="28" viewBox="0 0 30 28" fill="none" xmlns="http://www.w3.org/2000/svg">
<path d="M14.4482 9.55307C14.4482 8.3116 14.4456 7.10885 14.4511 5.90613C14.4519 5.72908 14.4677 5.54533 14.5174 5.37649C14.7008 4.75389 15.2579 4.3224 15.9133 4.31333C16.9375 4.29914 17.9621 4.31287 18.9864 4.30235C19.6099 4.29595 20.1051 4.03844 20.3953 3.47755C20.6643 2.95787 20.6358 2.43285 20.3105 1.94491C19.9916 1.46649 19.5208 1.26448 18.9461 1.26495C15.6487 1.26763 12.3514 1.26625 9.05398 1.26611C8.95796 1.26611 8.86099 1.27264 8.76608 1.26203C8.48782 1.23091 8.29965 1.01922 8.30212 0.749571C8.30463 0.475941 8.49033 0.281468 8.77833 0.253942C8.84189 0.247865 8.90625 0.248618 8.97024 0.24861C12.2996 0.248398 15.629 0.244073 18.9584 0.250599C20.3169 0.253256 21.3045 1.04168 21.5745 2.30862C21.8922 3.79902 20.7021 5.29152 19.1576 5.31814C18.1548 5.33542 17.1515 5.32145 16.1484 5.3231C15.6518 5.32391 15.472 5.49875 15.4711 5.98724C15.4691 7.07527 15.4701 8.16331 15.4711 9.25134C15.4712 9.33403 15.4806 9.41672 15.4896 9.56401C16.1753 9.42833 16.8386 9.29697 17.502 9.16581C18.6492 8.93901 19.7888 8.66067 20.945 8.49663C23.1875 8.17845 24.9118 9.05289 26.1819 10.8763C27.3347 12.5313 28.0352 14.3693 28.5339 16.3075C29.1472 18.6912 29.4304 21.0975 29.2232 23.5504C29.1582 24.3192 28.9689 25.0682 28.6095 25.7632C27.8923 27.1502 26.6287 27.6633 24.9568 27.2254C23.4057 26.8192 22.1117 25.9563 20.9148 24.9341C20.5353 24.6101 20.1904 24.2447 19.7991 23.9363C18.2381 22.7058 16.4183 22.3455 14.4785 22.4666C13.833 22.5069 13.1903 22.6262 12.5524 22.7426C11.5507 22.9254 10.718 23.4329 9.94732 24.0799C9.06183 24.8233 8.16714 25.5617 7.22489 26.2311C6.41721 26.805 5.49929 27.1892 4.50238 27.3438C3.14782 27.5537 1.97493 26.9715 1.32895 25.7687C0.86928 24.9127 0.668585 23.9793 0.636292 23.0282C0.500423 19.0264 1.3735 15.2321 3.21914 11.6783C3.85395 10.456 4.78945 9.44016 6.10245 8.85577C7.15025 8.38942 8.25739 8.33676 9.3633 8.53726C10.7859 8.79519 12.1957 9.1224 13.6119 9.41542C13.8718 9.46921 14.1361 9.50232 14.4482 9.55307ZM28.3506 21.8016C28.3239 21.798 28.2972 21.7944 28.2705 21.7908C28.2283 19.6261 27.8803 17.5109 27.2168 15.4478C26.7134 13.8827 26.0716 12.382 25.0439 11.0734C24.0801 9.84602 22.7793 9.31918 21.2458 9.49293C20.1513 9.61695 19.0514 9.81769 17.9953 10.1241C16.0226 10.6965 14.0824 10.7001 12.1072 10.1635C11.0528 9.87702 9.97626 9.63496 8.89362 9.49335C7.23633 9.27657 5.84804 9.83779 4.83442 11.185C4.11845 12.1366 3.55422 13.1757 3.1073 14.2774C2.4514 15.8942 2.09794 17.5846 1.9054 19.3065C1.75677 20.6357 1.53996 21.9655 1.70036 23.3123C1.79207 24.0824 1.94558 24.8345 2.38069 25.4969C2.85644 26.2211 3.57219 26.5119 4.42453 26.3287C5.37555 26.1244 6.24505 25.7219 7.01429 25.1429C7.80283 24.5493 8.53395 23.8811 9.31987 23.2839C9.84904 22.8817 10.4047 22.4991 10.9931 22.1913C11.9304 21.7011 12.9752 21.5768 14.0166 21.4746C15.4227 21.3366 16.8067 21.437 18.1507 21.8866C19.2153 22.2427 20.1496 22.8175 20.9698 23.5813C21.9753 24.5178 23.0465 25.3701 24.3139 25.9414C24.6505 26.0931 25.0067 26.2252 25.3679 26.2962C26.6677 26.5516 27.6597 25.9421 27.942 24.6434C28.1449 23.7103 28.219 22.7499 28.3506 21.8016Z" fill="#B0B1B1"/>
<path d="M6.7888 14.3815C6.7888 14.1389 6.78381 13.9405 6.78969 13.7424C6.81179 12.9964 7.27058 12.5555 8.02428 12.553C8.39732 12.5517 8.77042 12.5494 9.14342 12.5536C9.79764 12.561 10.2718 13.0256 10.2831 13.6681C10.287 13.8887 10.2837 14.1095 10.2837 14.3817C10.5432 14.3817 10.7843 14.3734 11.0247 14.3833C11.6631 14.4096 12.1196 14.8667 12.1344 15.499C12.1438 15.8997 12.1434 16.301 12.1346 16.7017C12.1206 17.3341 11.6734 17.7872 11.0291 17.8228C10.797 17.8356 10.5635 17.8248 10.2837 17.8248C10.2837 18.0819 10.287 18.3094 10.2831 18.5367C10.2718 19.1809 9.79851 19.6432 9.14334 19.6487C8.75966 19.652 8.37593 19.6505 7.99223 19.6491C7.27942 19.6465 6.8203 19.207 6.79047 18.4936C6.78178 18.2857 6.78914 18.077 6.78914 17.8273C6.52913 17.8273 6.30759 17.836 6.08697 17.8256C5.40817 17.7939 4.9769 17.3668 4.95952 16.7013C4.94877 16.2901 4.94729 15.878 4.9617 15.467C4.9838 14.8366 5.42157 14.4095 6.06024 14.383C6.29118 14.3735 6.52285 14.3815 6.7888 14.3815ZM6.01834 15.3991V16.8048C6.41896 16.8048 6.79134 16.8034 7.1637 16.8051C7.65033 16.8074 7.8339 16.9908 7.83816 17.48C7.84083 17.7863 7.84501 18.0927 7.83655 18.3988C7.83174 18.5727 7.8905 18.6469 8.07539 18.6403C8.38439 18.6293 8.69438 18.6292 9.00338 18.6403C9.19986 18.6473 9.26955 18.5713 9.26334 18.3808C9.25336 18.0748 9.2599 17.7683 9.26104 17.462C9.26287 16.9734 9.43488 16.8068 9.93924 16.805C10.2273 16.8039 10.5159 16.7939 10.8033 16.8083C11.0181 16.819 11.1188 16.7583 11.1067 16.5277C11.0918 16.2433 11.0955 15.9573 11.1057 15.6725C11.1129 15.4727 11.0478 15.3852 10.8315 15.3954C10.5121 15.4104 10.1915 15.4018 9.87147 15.3984C9.45109 15.394 9.26564 15.2131 9.26153 14.8036C9.25825 14.4762 9.25346 14.1486 9.2634 13.8215C9.26925 13.6292 9.19488 13.5558 9.00126 13.5622C8.70286 13.572 8.40328 13.5762 8.10535 13.5609C7.88666 13.5497 7.82817 13.6406 7.83575 13.8398C7.84739 14.1457 7.84239 14.4523 7.83769 14.7585C7.83082 15.2068 7.6402 15.3955 7.19416 15.3986C6.81141 15.4012 6.42862 15.3991 6.01834 15.3991Z" fill="#B0B1B1"/>
<path d="M20.9703 20.7265C20.0129 20.7262 19.2466 19.9634 19.2535 19.0174C19.2601 18.0963 20.0413 17.3294 20.971 17.3311C21.9147 17.3329 22.7067 18.123 22.6934 19.0495C22.6802 19.978 21.9107 20.7269 20.9703 20.7265ZM20.961 18.3715C20.5911 18.371 20.2842 18.6653 20.2786 19.0256C20.2731 19.3864 20.6118 19.7198 20.9741 19.7102C21.3373 19.7006 21.6305 19.3944 21.6282 19.0274C21.6257 18.6474 21.3455 18.372 20.961 18.3715Z" fill="#B0B1B1"/>
<path d="M19.6964 16.0841C19.6977 17.0236 18.9395 17.7887 18.0045 17.7912C17.0331 17.7939 16.3068 17.0729 16.3086 16.1076C16.3104 15.1323 17.0506 14.3926 18.0208 14.3965C18.9412 14.4002 19.6951 15.1595 19.6964 16.0841ZM18.0086 16.7447C18.3858 16.7489 18.664 16.4894 18.6755 16.1227C18.6874 15.7432 18.3797 15.4334 17.9936 15.4361C17.6293 15.4386 17.3395 15.7214 17.3362 16.0777C17.3328 16.4344 17.6414 16.7405 18.0086 16.7447Z" fill="#B0B1B1"/>
<path d="M23.9387 14.3966C24.8711 14.3944 25.6394 15.1799 25.6369 16.1327C25.6344 17.0387 24.8625 17.768 23.8896 17.7834C22.9784 17.7979 22.2112 17.0346 22.2095 16.1119C22.2077 15.1847 23 14.3988 23.9387 14.3966ZM24.5717 16.1021C24.5762 15.7297 24.2893 15.4332 23.9179 15.4266C23.5557 15.4201 23.2395 15.7224 23.2329 16.0814C23.2263 16.4413 23.5283 16.7446 23.8978 16.749C24.2811 16.7537 24.5673 16.479 24.5717 16.1021Z" fill="#B0B1B1"/>
<path d="M22.651 13.174C22.6502 14.1114 21.8865 14.8851 20.9611 14.886C20.0533 14.8868 19.2613 14.0872 19.2617 13.1701C19.2622 12.2452 20.0364 11.4736 20.9654 11.4724C21.8998 11.4711 22.6518 12.2304 22.651 13.174ZM20.9685 13.8265C21.3521 13.8262 21.6296 13.5473 21.625 13.1665C21.6207 12.8015 21.3178 12.502 20.9544 12.5034C20.5924 12.5047 20.2818 12.8169 20.2877 13.1733C20.2937 13.5328 20.6001 13.8268 20.9685 13.8265Z" fill="#B0B1B1"/>
</svg>
