<svg width="31" height="29" viewBox="0 0 31 29" fill="none" xmlns="http://www.w3.org/2000/svg">
<path d="M28.1879 22.4262C28.6606 22.6079 29.1139 22.7116 29.4893 22.9422C30.1257 23.3329 30.4956 23.9353 30.5511 24.6992C30.6102 25.5124 30.69 26.3324 30.252 27.0807C29.8266 27.8076 29.1902 28.2123 28.3455 28.2764C28.2119 28.2866 28.0774 28.2912 27.9434 28.2912C19.7855 28.2919 11.6277 28.2889 3.46987 28.2962C2.60072 28.297 1.87051 28.0425 1.32651 27.3432C1.02681 26.958 0.869954 26.5181 0.841253 26.0315C0.799903 25.3305 0.738348 24.6196 1.04444 23.9618C1.51328 22.9542 2.35213 22.5229 3.43771 22.5228C8.34274 22.5224 13.2478 22.5226 18.1528 22.5226H18.585C18.585 22.3845 18.585 22.2743 18.585 22.1642C18.585 21.0489 18.5834 19.9337 18.5859 18.8184C18.5868 18.3865 18.7446 18.2206 19.1816 18.2143C19.8114 18.2052 20.4414 18.2116 21.0713 18.2114C21.1831 18.2114 21.2949 18.2114 21.4481 18.2114C21.4481 18.0726 21.4481 17.9632 21.4481 17.8538C21.4481 16.7696 21.4473 15.6853 21.4485 14.601C21.4491 14.059 21.6072 13.9009 22.1448 13.9006C23.4459 13.9001 24.747 13.9001 26.0482 13.9006C26.6022 13.9008 26.7532 14.0548 26.7537 14.6236C26.7547 15.6975 26.754 16.7715 26.754 17.8454V18.2118C27.0451 18.2118 27.3013 18.2069 27.5572 18.2128C28.0221 18.2235 28.1861 18.3906 28.187 18.8578C28.1892 20.0143 28.1878 21.1708 28.1879 22.3274C28.1879 22.3782 28.1879 22.429 28.1879 22.4262ZM15.7208 23.5023C11.5904 23.5023 7.45998 23.5013 3.32957 23.5031C2.45139 23.5034 1.84121 24.0613 1.797 24.9093C1.77929 25.2491 1.77954 25.5914 1.79798 25.9312C1.83301 26.5765 2.23206 27.0974 2.82542 27.2556C3.05083 27.3158 3.2942 27.3289 3.5294 27.329C11.6457 27.3326 19.7619 27.3321 27.8782 27.3312C28.012 27.3312 28.1468 27.3276 28.2795 27.3117C29.0774 27.2166 29.5825 26.6738 29.6169 25.871C29.6271 25.6339 29.6194 25.3961 29.619 25.1586C29.6174 24.0687 29.0496 23.5024 27.9572 23.5023C23.8784 23.5021 19.7996 23.5022 15.7208 23.5023ZM22.4369 18.187H25.7577V14.8945H22.4369V18.187ZM23.8791 19.1899V22.4978H27.1878V19.1899H23.8791ZM19.5768 19.1932V22.5018H22.8742V19.1932H19.5768Z" fill="#B9B9B9"/>
<path d="M4.61868 6.96966C4.0609 6.41224 3.48388 5.83669 2.90817 5.25984C2.52949 4.88041 2.52544 4.66737 2.8944 4.29616C3.48409 3.70287 4.07516 3.11094 4.6683 2.52109C5.02379 2.16758 5.25685 2.16898 5.61541 2.52517C6.14292 3.04918 6.67231 3.57148 7.18987 4.1052C7.32198 4.24143 7.4242 4.24868 7.59133 4.17151C7.98301 3.99065 8.38416 3.82884 8.78778 3.67598C8.93572 3.61996 8.98998 3.5495 8.98813 3.38841C8.97933 2.62429 8.98276 1.86002 8.98482 1.09581C8.98607 0.633375 9.15806 0.459468 9.61924 0.458078C10.4764 0.455489 11.3336 0.455571 12.1907 0.458034C12.6568 0.459372 12.823 0.626903 12.824 1.09172C12.8258 1.8456 12.8307 2.59958 12.8201 3.35332C12.8175 3.53677 12.8746 3.62038 13.0482 3.68397C13.4437 3.82877 13.8355 3.98775 14.2152 4.1694C14.3996 4.25759 14.5058 4.22685 14.6407 4.08816C15.1518 3.56258 15.6735 3.04713 16.1935 2.53027C16.5703 2.15582 16.7806 2.15741 17.159 2.53491C17.7513 3.12568 18.3431 3.71681 18.9326 4.31037C19.2816 4.66184 19.2823 4.88073 18.9363 5.22908C18.4051 5.76398 17.8744 6.29962 17.3347 6.82584C17.2115 6.94597 17.1917 7.03683 17.2663 7.19684C17.4487 7.58788 17.6172 7.9868 17.764 8.39245C17.8278 8.56895 17.9081 8.62905 18.0937 8.6266C18.8475 8.61661 19.6015 8.61991 20.3553 8.62358C20.8215 8.62585 20.992 8.79368 20.9942 9.25636C20.9982 10.1135 20.9983 10.9707 20.9941 11.8278C20.9919 12.2851 20.8085 12.4667 20.3527 12.4688C19.5988 12.4721 18.8448 12.4754 18.0911 12.4657C17.9071 12.4633 17.8247 12.5193 17.7608 12.6977C17.6188 13.0942 17.4547 13.4843 17.2735 13.8645C17.1917 14.0362 17.2164 14.1345 17.3467 14.2615C17.8792 14.7804 18.4025 15.3087 18.9266 15.8362C19.2854 16.1974 19.2846 16.4165 18.9237 16.7789C18.3262 17.379 17.7277 17.9781 17.1262 18.5742C16.7993 18.8982 16.5493 18.8983 16.2248 18.5765C15.6895 18.0456 15.1541 17.5148 14.628 16.975C14.5017 16.8453 14.4068 16.8207 14.2349 16.9027C13.8457 17.0884 13.4448 17.2522 13.0398 17.401C12.8756 17.4614 12.8187 17.5369 12.8208 17.7102C12.8296 18.464 12.8255 19.2179 12.8242 19.9718C12.8233 20.4519 12.6757 20.615 12.2076 20.6188C11.3402 20.6258 10.4726 20.6259 9.60521 20.6187C9.13939 20.6149 8.98567 20.4462 8.9847 19.9704C8.98316 19.2165 8.97887 18.4626 8.98825 17.7088C8.99042 17.5347 8.93378 17.46 8.76969 17.3995C8.36487 17.2503 7.96317 17.088 7.57518 16.9001C7.39812 16.8143 7.30568 16.8531 7.1827 16.9787C6.65537 17.5174 6.12085 18.0491 5.58529 18.5797C5.25752 18.9044 5.01949 18.9027 4.68842 18.574C4.08017 17.9701 3.47403 17.364 2.87001 16.7558C2.53674 16.4202 2.53558 16.1951 2.86811 15.859C3.39828 15.323 3.92995 14.7884 4.46912 14.2616C4.59641 14.1372 4.62869 14.0433 4.54425 13.8693C4.36494 13.5 4.20758 13.1182 4.06902 12.7316C3.99938 12.5373 3.91587 12.4589 3.69776 12.4637C2.96487 12.4796 2.23142 12.471 1.49819 12.4692C1.00252 12.468 0.820466 12.2928 0.818153 11.8031C0.814154 10.9562 0.813473 10.1094 0.818505 9.26258C0.821277 8.79626 0.992136 8.62611 1.45198 8.62369C2.19552 8.61979 2.93921 8.6152 3.68258 8.62718C3.88881 8.63051 3.98911 8.5771 4.06121 8.37007C4.22328 7.90475 4.42357 7.45274 4.61868 6.96966ZM16.6425 3.4554C16.0975 4.00092 15.5383 4.56389 14.9753 5.12296C14.6802 5.41596 14.5273 5.40886 14.1492 5.23483C13.5623 4.9647 12.9643 4.71549 12.359 4.48942C11.9741 4.34566 11.8599 4.24295 11.8568 3.82391C11.8518 3.1423 11.856 2.46062 11.8545 1.77898C11.8543 1.67062 11.8444 1.56229 11.8391 1.45592H9.96157C9.96157 2.2572 9.96391 3.03981 9.96062 3.8224C9.9589 4.23183 9.83826 4.34964 9.45691 4.48841C8.88807 4.69539 8.31838 4.90971 7.775 5.1742C7.24932 5.43008 7.16409 5.44734 6.75299 5.03647C6.22154 4.50533 5.6906 3.97369 5.17643 3.45926C4.72033 3.91706 4.28567 4.35336 3.83449 4.80622C3.88065 4.85548 3.94794 4.93125 4.01937 5.00288C4.52259 5.50746 5.02479 6.01307 5.53133 6.51431C5.75289 6.73356 5.76737 6.95603 5.63754 7.24102C5.35274 7.86614 5.08371 8.49983 4.84309 9.14306C4.73229 9.43925 4.56779 9.58446 4.25747 9.58287C3.68944 9.57995 3.1214 9.58251 2.55336 9.58273C2.3084 9.58282 2.06345 9.58274 1.80988 9.58274V11.4898C1.9387 11.4898 2.05 11.4898 2.16129 11.4898C2.85327 11.4898 3.54525 11.4917 4.23721 11.4891C4.54238 11.488 4.7235 11.618 4.83658 11.9159C5.08395 12.5676 5.3527 13.2122 5.64094 13.8469C5.77173 14.1349 5.74506 14.3569 5.52717 14.573C5.12383 14.973 4.72573 15.3782 4.32071 15.7765C4.14689 15.9474 3.96121 16.1063 3.81571 16.2389C4.30199 16.7249 4.73677 17.1594 5.19072 17.6131C5.72777 17.0738 6.28606 16.5099 6.84838 15.95C7.13903 15.6606 7.28227 15.666 7.6458 15.8314C8.24286 16.1029 8.84988 16.355 9.46334 16.5872C9.84023 16.7298 9.95882 16.8482 9.96076 17.2625C9.96394 17.9441 9.96098 18.6258 9.96237 19.3074C9.96259 19.4167 9.97192 19.526 9.97721 19.639H11.8552C11.8552 19.5092 11.8552 19.3981 11.8552 19.287C11.8553 18.6467 11.8547 18.0064 11.8554 17.366C11.8561 16.8101 11.9417 16.7234 12.4626 16.5613C12.8934 16.4273 13.3304 16.2853 13.7275 16.0762C14.6319 15.6 14.5089 15.4762 15.3758 16.3593C15.8004 16.7918 16.2308 17.2186 16.6284 17.6176C17.0943 17.1543 17.5313 16.7198 17.9862 16.2675C17.4346 15.7166 16.8691 15.1458 16.2962 14.5825C16.0632 14.3535 16.049 14.1232 16.1829 13.8287C16.4629 13.2127 16.7235 12.5871 16.9677 11.956C17.1028 11.6072 17.216 11.4934 17.5982 11.4917C18.2901 11.4885 18.9821 11.4907 19.6741 11.4907C19.7826 11.4907 19.8912 11.4907 20.0028 11.4907V9.5863C19.8788 9.5863 19.768 9.5863 19.6572 9.5863C18.9859 9.58627 18.3146 9.58879 17.6433 9.58532C17.182 9.58293 17.0983 9.48873 16.9426 9.04945C16.7473 8.49852 16.5404 7.94753 16.2827 7.42406C16.0162 6.88295 15.9991 6.79615 16.419 6.37682C16.9511 5.84549 17.4836 5.31455 17.9934 4.8058C17.5349 4.34747 17.0989 3.91163 16.6425 3.4554Z" fill="#B9B9B9"/>
<path d="M15.6836 26.8509C14.9008 26.844 14.248 26.18 14.2574 25.4001C14.2668 24.618 14.9305 23.9652 15.7106 23.9707C16.4964 23.9762 17.1513 24.6304 17.1528 25.4116C17.1543 26.2065 16.4893 26.858 15.6836 26.8509ZM16.1726 25.4059C16.1684 25.1545 15.9371 24.9312 15.6907 24.9406C15.4354 24.9503 15.2275 25.1776 15.2389 25.4344C15.2499 25.6829 15.4507 25.8724 15.7037 25.8729C15.9672 25.8735 16.1769 25.6647 16.1726 25.4059Z" fill="#B9B9B9"/>
<path d="M6.09622 26.8511C5.31218 26.8468 4.65447 26.1859 4.66019 25.4082C4.66596 24.6246 5.32204 23.9727 6.10679 23.9709C6.90324 23.969 7.56213 24.6363 7.55199 25.4346C7.54201 26.2217 6.89065 26.8555 6.09622 26.8511ZM6.57103 25.4132C6.5709 25.1519 6.35514 24.934 6.1017 24.9391C5.85781 24.9441 5.62919 25.1846 5.63769 25.4273C5.64615 25.6692 5.85393 25.8691 6.10048 25.8726C6.36856 25.8764 6.57117 25.6786 6.57103 25.4132Z" fill="#B9B9B9"/>
<path d="M25.297 26.8511C24.5059 26.8502 23.8602 26.2072 23.8584 25.4185C23.8566 24.63 24.4952 23.9836 25.2877 23.9719C26.0797 23.9601 26.7595 24.6362 26.7481 25.4242C26.7367 26.2116 26.0855 26.8519 25.297 26.8511ZM25.7725 25.42C25.7764 25.1759 25.5445 24.94 25.3004 24.9399C25.0584 24.9398 24.85 25.1433 24.8396 25.3899C24.8282 25.6589 25.0187 25.8648 25.2854 25.8715C25.548 25.8781 25.7684 25.6739 25.7725 25.42Z" fill="#B9B9B9"/>
<path d="M12.3416 25.4016C12.3474 26.1999 11.7181 26.8445 10.9267 26.8511C10.1257 26.8577 9.48356 26.2343 9.47423 25.4411C9.46464 24.6261 10.0968 23.976 10.9025 23.9722C11.6938 23.9685 12.3358 24.6061 12.3416 25.4016ZM11.3742 25.409C11.3718 25.1594 11.1409 24.9338 10.8957 24.9414C10.6444 24.9491 10.4382 25.1751 10.448 25.4321C10.4579 25.6903 10.644 25.8697 10.9037 25.8714C11.1714 25.8732 11.3767 25.6714 11.3742 25.409Z" fill="#B9B9B9"/>
<path d="M21.9365 25.4077C21.9392 26.2064 21.3092 26.8467 20.5165 26.8511C19.7057 26.8556 19.0617 26.2125 19.0674 25.404C19.0731 24.6076 19.7122 23.9709 20.5049 23.972C21.2964 23.973 21.934 24.6124 21.9365 25.4077ZM20.5095 25.8715C20.7798 25.8679 20.9701 25.669 20.9628 25.398C20.9562 25.1549 20.7497 24.9464 20.5103 24.9412C20.2659 24.9359 20.0343 25.165 20.034 25.4124C20.0336 25.673 20.2429 25.875 20.5095 25.8715Z" fill="#B9B9B9"/>
<path d="M16.181 10.5284C16.1946 13.4386 13.8386 15.8113 10.9272 15.8195C8.01278 15.8276 5.64822 13.4811 5.63386 10.5666C5.61941 7.63653 7.9749 5.26496 10.9034 5.26108C13.8155 5.25723 16.1673 7.60452 16.181 10.5284ZM15.2206 10.5324C15.2055 8.15127 13.2617 6.21283 10.8994 6.22301C8.52319 6.23324 6.59211 8.1776 6.60201 10.5499C6.61206 12.9555 8.54344 14.8632 10.9472 14.8418C13.3173 14.8206 15.2356 12.8862 15.2206 10.5324Z" fill="#B9B9B9"/>
<path d="M10.8965 6.7065C13.0238 6.70089 14.7395 8.4025 14.7438 10.5223C14.7482 12.6581 13.0253 14.392 10.9023 14.3885C8.79506 14.385 7.0671 12.6534 7.06446 10.5427C7.06181 8.42631 8.77419 6.71208 10.8965 6.7065ZM10.9039 7.67507C9.31785 7.68012 8.03545 8.974 8.04482 10.5597C8.05409 12.1299 9.3432 13.4112 10.9109 13.4085C12.4938 13.4057 13.7826 12.1039 13.7689 10.5217C13.7553 8.94372 12.4734 7.67006 10.9039 7.67507Z" fill="#B9B9B9"/>
</svg>
