<svg width="26" height="26" viewBox="0 0 26 26" fill="none" xmlns="http://www.w3.org/2000/svg">
<path d="M13.4563 0C14.2921 0.221982 14.9754 0.681527 15.4954 1.36551C15.7757 1.73413 16.0005 2.14445 16.2669 2.52426C16.3522 2.64573 16.4747 2.76912 16.6079 2.82391C17.1695 3.05473 17.7446 3.25246 18.3088 3.47727C18.6653 3.6193 18.83 3.92781 18.7875 4.31045C18.7525 4.62546 18.5007 4.89638 18.1551 4.94417C18.0122 4.96392 17.8557 4.92467 17.7119 4.88732C17.5501 4.84533 17.3957 4.7752 17.1862 4.69828C18.3334 8.53473 18.5205 12.416 18.1675 16.3886C18.7666 16.2518 19.3271 16.1388 19.8794 15.9943C21.0263 15.6943 22.1518 15.3247 23.1516 14.6712C23.5279 14.4252 23.8813 14.1172 24.1737 13.7763C24.58 13.3023 24.5847 12.7883 24.1681 12.3273C23.8278 11.9508 23.419 11.6187 22.9918 11.3422C22.2076 10.8346 21.3238 10.5338 20.4337 10.2629C20.1352 10.1721 19.9298 9.99963 19.8492 9.69162C19.7082 9.15275 20.2055 8.60499 20.7395 8.75776C22.2009 9.17583 23.6098 9.71745 24.7869 10.7228C25.3513 11.2048 25.7867 11.7818 25.9419 12.5261C26.1486 13.5179 25.7869 14.3383 25.1252 15.0476C24.3523 15.8761 23.3699 16.384 22.3379 16.8043C21.0028 17.3479 19.6123 17.692 18.1923 17.922C18.0197 17.95 17.9435 18.0086 17.9104 18.2008C17.5993 20.0125 17.1513 21.7847 16.2883 23.4248C15.9241 24.1169 15.4879 24.7594 14.8788 25.2664C13.6678 26.2745 12.2573 26.242 11.0972 25.1789C10.3852 24.5264 9.90448 23.7139 9.51178 22.8463C9.34242 22.4721 9.53231 22.0364 9.90056 21.8657C10.2722 21.6935 10.6935 21.8337 10.9013 22.2036C11.1038 22.5641 11.2707 22.9495 11.5098 23.2833C11.7482 23.6161 12.0265 23.9355 12.3419 24.1943C12.8045 24.5738 13.3016 24.5773 13.7536 24.1849C14.1053 23.8794 14.426 23.5139 14.6774 23.1218C15.4012 21.9926 15.7827 20.7213 16.0968 19.4297C16.1944 19.0286 16.2716 18.6226 16.3663 18.1805C16.2044 18.1953 16.0673 18.2142 15.9297 18.2196C14.9073 18.2599 13.8846 18.2921 12.8627 18.3424C12.727 18.3491 12.5678 18.4128 12.4671 18.5031C12.0451 18.8812 11.6419 19.2803 11.2305 19.6703C10.8463 20.0345 10.3778 20.0571 10.0618 19.7292C9.74028 19.3957 9.78691 18.9195 10.1804 18.5469C10.2697 18.4624 10.3665 18.3858 10.5096 18.2629C9.8811 18.1937 9.33702 18.1476 8.79706 18.072C6.48667 17.7486 4.22366 17.2609 2.1753 16.0718C1.60168 15.7388 1.0874 15.3304 0.665092 14.8099C0.327258 14.3935 0.130701 13.9164 0 13.4051V12.6942C0.142498 12.1311 0.353457 11.5944 0.770903 11.1804C1.11714 10.8371 1.4792 10.4964 1.88231 10.2262C3.21995 9.32962 4.7325 8.85191 6.28332 8.48597C6.88862 8.34314 7.50181 8.23374 8.11553 8.10827C8.3342 6.76646 8.62803 5.45146 9.09056 4.17866C9.37964 3.38319 9.72504 2.6154 10.1897 1.90441C10.7893 0.986952 11.544 0.271732 12.6438 6.78346e-06L13.4563 0ZM7.85127 9.73582C7.66607 9.76965 7.45268 9.80387 7.24136 9.84801C5.7984 10.1495 4.38824 10.5494 3.0926 11.2763C2.59622 11.5547 2.12866 11.8759 1.79249 12.3502C1.45472 12.8268 1.44648 13.2884 1.79875 13.7546C1.96511 13.9747 2.16563 14.1778 2.38115 14.3505C3.06159 14.8959 3.84926 15.2466 4.66184 15.5422C6.20977 16.1053 7.8155 16.4129 9.44621 16.6046C9.79412 16.6455 10.1435 16.6737 10.5593 16.7143C10.4194 16.5514 10.3211 16.4398 10.226 16.3256C10.0617 16.1283 9.96897 15.9063 10.0268 15.6461C10.0925 15.3509 10.267 15.1393 10.5615 15.0578C10.8602 14.9752 11.1354 15.0378 11.3473 15.2764C11.7573 15.7383 12.1569 16.2096 12.5724 16.6665C12.6405 16.7413 12.7683 16.8025 12.8679 16.8016C13.553 16.7953 14.2387 16.7838 14.9228 16.7483C15.4771 16.7195 16.0295 16.6549 16.5956 16.605C16.9711 12.8252 16.8467 9.11464 15.7828 5.47067C15.7112 5.57011 15.6689 5.67063 15.6236 5.76977C15.4197 6.21589 14.994 6.40203 14.5866 6.2241C14.1825 6.04758 14.0258 5.60634 14.2148 5.15678C14.4405 4.61988 14.6742 4.08635 14.899 3.54911C14.9287 3.47811 14.9633 3.37493 14.934 3.3187C14.6159 2.70745 14.2565 2.12457 13.6622 1.73551C13.253 1.4676 12.8235 1.45549 12.4282 1.73876C12.1706 1.92331 11.931 2.1498 11.7327 2.3971C11.1548 3.11796 10.8005 3.95933 10.4954 4.82304C10.1415 5.82487 9.89109 6.85199 9.71284 7.91581C9.77872 7.91581 9.81984 7.91701 9.86087 7.91563C11.2382 7.86933 12.6155 7.82084 13.993 7.7789C14.1522 7.77405 14.3164 7.78826 14.4716 7.82317C14.9109 7.92199 15.1611 8.38156 15.019 8.80551C14.9074 9.13864 14.6027 9.33539 14.2089 9.33566C13.2449 9.33634 12.2804 9.32301 11.3169 9.34777C10.7109 9.36336 10.1063 9.43759 9.49566 9.48595C9.4758 9.62311 9.45072 9.73043 9.44606 9.83863C9.39269 11.0803 9.34703 12.3224 9.28566 13.5636C9.27775 13.7236 9.22255 13.8987 9.13713 14.0338C8.95984 14.3143 8.62399 14.4147 8.31377 14.3201C7.97598 14.2172 7.76107 13.9532 7.76702 13.5847C7.78745 12.3169 7.82142 11.0494 7.85127 9.73582Z" fill="#DFDFDF"/>
</svg>
