<svg width="22" height="22" viewBox="0 0 22 22" fill="none" xmlns="http://www.w3.org/2000/svg">
<path d="M2.54142 9.25471C2.84195 9.04442 3.161 9.01282 3.48453 9.18813C3.81754 9.36859 3.9529 9.66338 3.93998 10.0388C3.92147 10.5767 3.86524 11.1188 3.90871 11.6523C4.04217 13.2906 4.71691 14.695 5.85452 15.8775C6.93259 16.9981 8.24632 17.6687 9.77912 17.9086C10.125 17.9627 10.4296 18.0679 10.5942 18.409C10.7469 18.7253 10.7301 19.0322 10.5237 19.3173C10.3177 19.6018 10.0319 19.7177 9.68435 19.6712C8.44244 19.5049 7.267 19.1229 6.22793 18.4228C3.19554 16.3798 1.82711 13.5339 2.19357 9.87931C2.2193 9.62273 2.32789 9.4098 2.54142 9.25471Z" fill="#D9D9D9"/>
<path d="M17.9322 5.63045C19.3516 7.54184 19.9335 9.67766 19.6415 12.047C19.5966 12.4117 19.4124 12.6719 19.066 12.8004C18.7266 12.9263 18.4177 12.8522 18.1555 12.6104C17.927 12.3998 17.8625 12.1277 17.9006 11.8254C18.0236 10.851 17.9811 9.88412 17.6731 8.94954C16.7855 6.25653 14.9579 4.60536 12.1646 4.04553C12.0641 4.02541 11.9618 4.01463 11.8614 3.99436C11.3718 3.89553 11.0705 3.46445 11.1535 2.98406C11.2348 2.51436 11.6553 2.20257 12.1398 2.26598C13.518 2.44633 14.7825 2.9283 15.9282 3.71506C16.6992 4.24444 17.3673 4.88313 17.9322 5.63045Z" fill="#D9D9D9"/>
<path d="M12.3578 12.8545C11.4653 13.5388 10.0992 13.2484 9.30039 12.2045C8.50231 11.1615 8.58044 9.7688 9.4755 9.08277C10.3694 8.39759 11.7319 8.68727 12.5324 9.73272C13.3308 10.7755 13.253 12.1681 12.3578 12.8545Z" fill="#D9D9D9"/>
<path d="M15.2324 7.6817C16.0153 8.74303 16.2746 9.9811 15.9993 11.3986C15.8905 11.9587 15.4295 12.3454 14.896 12.3326C14.3727 12.3201 14.0756 11.9214 14.1784 11.3696C14.5462 9.39571 13.3952 7.88922 11.3883 7.71756C10.8308 7.66987 10.5264 7.27461 10.6556 6.76606C10.7855 6.2549 11.2729 5.91249 11.8301 5.95295C13.2791 6.05816 14.411 6.6374 15.2324 7.6817Z" fill="#D9D9D9"/>
<path d="M6.31824 9.78516C6.59012 9.60077 6.92836 9.53448 7.25499 9.68267C7.59903 9.83875 7.73056 10.1304 7.6566 10.5162C7.5645 10.9966 7.52968 11.4685 7.63866 11.9137C7.97442 13.2854 8.8876 14.0632 10.3861 14.2161C10.7248 14.2507 11.0036 14.3498 11.1329 14.651C11.2631 14.9544 11.213 15.2668 10.9695 15.5711C10.7184 15.8849 10.396 16.0153 10.0311 15.991C8.80921 15.9095 7.78249 15.4954 6.98925 14.6972C5.88595 13.5871 5.51269 12.1854 5.83324 10.5128C5.89039 10.2146 6.02521 10.0071 6.31824 9.78516Z" fill="#D9D9D9"/>
</svg>
