<svg width="16" height="11" viewBox="0 0 16 11" fill="none" xmlns="http://www.w3.org/2000/svg">
<path d="M9.62635 0.729047C9.56834 0.942316 9.50528 1.18452 9.43658 1.42512C8.58193 4.41814 7.72229 7.40974 6.87499 10.4048C6.71884 10.9568 6.21072 11.1234 5.83844 10.9106C5.56406 10.7537 5.43231 10.4422 5.52173 10.1253C5.85374 8.94873 6.18958 7.77324 6.52531 6.59773C7.10296 4.57518 7.68121 2.55282 8.26025 0.530675C8.35344 0.205204 8.60812 0.00454762 8.92421 6.58905e-05C9.22325 -0.00417115 9.49679 0.196322 9.58542 0.490086C9.60522 0.555698 9.60928 0.626053 9.62635 0.729047Z" fill="#F5F5F5"/>
<path d="M13.464 5.53832C12.6854 4.76103 11.9513 4.02693 11.2156 3.2943C11.0251 3.10464 10.9256 2.88843 10.9881 2.61472C11.1054 2.10091 11.7155 1.90055 12.1114 2.24714C12.1475 2.27883 12.1809 2.31375 12.215 2.34781C13.0858 3.21818 13.9568 4.08835 14.8271 4.95921C15.1907 5.32308 15.1922 5.70274 14.8315 6.06364C13.9422 6.95338 13.0538 7.84396 12.1619 8.731C11.8241 9.06692 11.3133 9.01362 11.072 8.62568C10.8945 8.34035 10.9403 8.01098 11.2008 7.74958C11.8998 7.04814 12.6005 6.34831 13.3022 5.64949C13.3432 5.60863 13.3988 5.58241 13.464 5.53832Z" fill="#F5F5F5"/>
<path d="M1.656 5.52405C1.78725 5.64746 1.90668 5.75425 2.01998 5.86718C2.64979 6.4949 3.2805 7.12175 3.90598 7.75377C4.23877 8.09004 4.20406 8.57032 3.83875 8.82681C3.55267 9.02767 3.20118 8.99117 2.93492 8.72569C2.09658 7.88985 1.26017 7.05207 0.423022 6.21502C0.351048 6.14306 0.277485 6.0726 0.207508 5.99875C-0.0651352 5.711 -0.0724631 5.3123 0.205409 5.03261C1.12282 4.10917 2.04337 3.18884 2.96722 2.27184C3.23755 2.00352 3.65376 2.00928 3.923 2.26787C4.19515 2.52925 4.21192 2.95274 3.94119 3.23436C3.55146 3.63976 3.14873 4.03267 2.7511 4.43045C2.39536 4.78634 2.03901 5.14162 1.656 5.52405Z" fill="#F5F5F5"/>
</svg>
