<svg width="19" height="19" viewBox="0 0 19 19" fill="none" xmlns="http://www.w3.org/2000/svg">
<path d="M7.46826 10.4711C7.8144 10.9338 8.25602 11.3167 8.76315 11.5938C9.27028 11.8709 9.83107 12.0356 10.4075 12.0769C10.9839 12.1182 11.5624 12.035 12.1039 11.833C12.6453 11.6311 13.137 11.315 13.5455 10.9063L15.9636 8.4883C16.6977 7.72823 17.1039 6.71023 17.0947 5.65357C17.0855 4.59691 16.6617 3.58614 15.9145 2.83894C15.1673 2.09174 14.1565 1.6679 13.0998 1.65872C12.0432 1.64954 11.0252 2.05574 10.2651 2.78984L8.87877 4.16811" stroke="white" stroke-width="2" stroke-linecap="round" stroke-linejoin="round"/>
<path d="M10.6925 8.85902C10.3463 8.39627 9.90473 8.01337 9.39759 7.7363C8.89046 7.45923 8.32967 7.29447 7.75326 7.25319C7.17686 7.2119 6.59831 7.29507 6.05687 7.49704C5.51543 7.69902 5.02376 8.01507 4.61521 8.42377L2.19719 10.8418C1.46309 11.6019 1.05689 12.6199 1.06607 13.6765C1.07525 14.7332 1.49909 15.7439 2.24628 16.4911C2.99348 17.2383 4.00426 17.6622 5.06092 17.6714C6.11758 17.6805 7.13557 17.2743 7.89565 16.5402L9.27391 15.162" stroke="white" stroke-width="2" stroke-linecap="round" stroke-linejoin="round"/>
</svg>
