<svg width="21" height="23" viewBox="0 0 21 23" fill="none" xmlns="http://www.w3.org/2000/svg">
<path d="M1.42578 5.5293H3.42578H19.4258" stroke="#C0BCBC" stroke-width="2" stroke-linecap="round" stroke-linejoin="round"/>
<path d="M17.4258 5.5293V19.5293C17.4258 20.0597 17.2151 20.5684 16.84 20.9435C16.4649 21.3186 15.9562 21.5293 15.4258 21.5293H5.42578C4.89535 21.5293 4.38664 21.3186 4.01157 20.9435C3.63649 20.5684 3.42578 20.0597 3.42578 19.5293V5.5293M6.42578 5.5293V3.5293C6.42578 2.99886 6.6365 2.49016 7.01157 2.11508C7.38664 1.74001 7.89535 1.5293 8.42578 1.5293H12.4258C12.9562 1.5293 13.4649 1.74001 13.84 2.11508C14.2151 2.49016 14.4258 2.99886 14.4258 3.5293V5.5293" stroke="#C0BCBC" stroke-width="2" stroke-linecap="round" stroke-linejoin="round"/>
<path d="M8.42578 10.5293V16.5293" stroke="#C0BCBC" stroke-width="2" stroke-linecap="round" stroke-linejoin="round"/>
<path d="M12.4258 10.5293V16.5293" stroke="#C0BCBC" stroke-width="2" stroke-linecap="round" stroke-linejoin="round"/>
</svg>
