<svg width="31" height="22" viewBox="0 0 31 22" fill="none" xmlns="http://www.w3.org/2000/svg">
<path d="M28.4145 15.9929C28.9324 16.3999 29.0445 16.9732 29.0195 17.604C29.0046 17.9802 29.0232 18.3576 29.0146 18.7342C29.0034 19.2226 28.7621 19.4639 28.2837 19.468C27.7145 19.473 27.1451 19.4742 26.576 19.4675C26.1171 19.4621 25.8746 19.2073 25.8721 18.743C25.8699 18.3464 25.8884 17.949 25.8677 17.5535C25.8355 16.9363 25.9697 16.3931 26.4893 15.9771C26.1081 15.6239 25.8662 15.2212 25.8714 14.7009C25.8772 14.1196 26.1224 13.6674 26.6053 13.3607C26.7561 13.265 26.8205 13.173 26.8185 12.9893C26.8086 12.088 26.814 11.1866 26.814 10.2441C26.195 10.5095 25.6004 10.7574 25.0152 11.0263C24.9566 11.0532 24.9309 11.2071 24.9306 11.3022C24.9258 13.1959 24.9192 15.0896 24.9297 16.9833C24.9372 18.3307 24.3564 19.3098 23.198 19.9641C20.4437 21.5198 17.488 22.1807 14.3484 21.9579C11.9783 21.7897 9.75353 21.0976 7.69366 19.8922C6.62959 19.2695 6.0842 18.3307 6.08229 17.0832C6.07937 15.1597 6.07849 13.2363 6.08609 11.3129C6.08686 11.1168 6.03525 11.0222 5.8487 10.9439C4.47441 10.3671 3.10674 9.77433 1.73569 9.18963C0.951326 8.85515 0.528694 8.25694 0.500958 7.40326C0.475488 6.61936 0.959664 5.94073 1.72789 5.6123C5.87564 3.83912 10.0241 2.06764 14.1708 0.292012C15.0361 -0.0785007 15.902 -0.10584 16.7691 0.2641C20.9523 2.04879 25.1349 3.83473 29.3149 5.62681C30.0862 5.95746 30.5055 6.57414 30.5 7.41383C30.4945 8.24024 30.0701 8.83538 29.3158 9.17304C28.967 9.32924 28.6074 9.46234 28.2649 9.63118C28.1776 9.67422 28.0839 9.81286 28.0828 9.90872C28.0698 10.9496 28.0716 11.9907 28.0798 13.0317C28.0805 13.1227 28.13 13.2589 28.1988 13.297C29.1839 13.8441 29.2792 15.2319 28.447 15.9179C28.4342 15.9284 28.4318 15.9518 28.4145 15.9929ZM15.5085 1.22864C15.236 1.30405 14.9711 1.34625 14.7311 1.44839C10.5829 3.21437 6.43817 4.98852 2.29134 6.75766C1.99938 6.88222 1.77604 7.04873 1.77714 7.40168C1.77826 7.75484 2.00471 7.91913 2.29559 8.0433C6.42403 9.80569 10.5516 11.5701 14.678 13.3376C15.2328 13.5752 15.7758 13.575 16.3305 13.3375C20.4676 11.5662 24.606 9.79828 28.7447 8.03096C29.0282 7.90992 29.2322 7.73343 29.2312 7.39672C29.2302 7.05962 29.0229 6.8863 28.7401 6.76558C24.6102 5.00222 20.4819 3.23505 16.3501 1.47627C16.0833 1.3627 15.7911 1.31017 15.5085 1.22864ZM23.6264 11.6132C23.5128 11.6589 23.4137 11.6967 23.3163 11.7383C21.1622 12.6579 19.0067 13.574 16.8553 14.4997C15.9484 14.89 15.0552 14.8873 14.1484 14.4968C11.9875 13.5663 9.82187 12.6469 7.65788 11.7236C7.5653 11.6841 7.4701 11.6509 7.34198 11.6016C7.34198 11.753 7.34198 11.851 7.34198 11.9489C7.34199 13.6042 7.35401 15.2596 7.33726 16.9146C7.32808 17.8204 7.69786 18.4539 8.48878 18.8863C10.3856 19.9234 12.3971 20.5405 14.5522 20.6832C17.439 20.8742 20.134 20.2321 22.6521 18.8066C23.2713 18.4561 23.6463 17.9313 23.6524 17.2044C23.6679 15.371 23.6603 13.5374 23.6611 11.7039C23.6611 11.6862 23.6481 11.6685 23.6264 11.6132ZM27.7463 18.1613C27.7463 17.8356 27.77 17.5022 27.7315 17.1763C27.7203 17.0807 27.5305 16.9386 27.4263 16.9418C27.3286 16.9449 27.1664 17.1035 27.154 17.2084C27.1173 17.517 27.1409 17.8329 27.1409 18.1613H27.7463ZM27.4971 14.3459C27.4521 14.347 27.4071 14.3482 27.362 14.3493C27.2885 14.4667 27.1452 14.5944 27.1603 14.6987C27.177 14.8139 27.3271 14.9749 27.4404 14.9953C27.6225 15.0281 27.7699 14.8724 27.7389 14.6835C27.7187 14.5608 27.5818 14.4578 27.4971 14.3459Z" fill="#CCCCCD"/>
</svg>
