<svg width="26" height="25" viewBox="0 0 26 25" fill="none" xmlns="http://www.w3.org/2000/svg">
<path fill-rule="evenodd" clip-rule="evenodd" d="M5.5 0C2.73858 0 0.5 2.23857 0.5 4.99999V19.0741C0.5 21.8355 2.73858 24.0741 5.5 24.0741H20.5C23.2614 24.0741 25.5 21.8355 25.5 19.0741V5C25.5 2.23858 23.2614 0 20.5 0H5.5ZM6.42597 0.925915C3.66455 0.925915 1.42597 3.16449 1.42597 5.92591V18.1481C1.42597 20.9096 3.66455 23.1481 6.42598 23.1481H19.5741C22.3355 23.1481 24.5741 20.9096 24.5741 18.1481V5.92592C24.5741 3.16449 22.3355 0.925915 19.5741 0.925915H6.42597Z" fill="#D9D9D9"/>
<path d="M17.0123 6.48145C16.4802 6.48145 15.97 6.69281 15.5937 7.06904C15.2175 7.44527 15.0061 7.95555 15.0061 8.48762V16.5123C15.0061 17.0444 15.2175 17.5547 15.5937 17.9309C15.97 18.3071 16.4802 18.5185 17.0123 18.5185C17.5444 18.5185 18.0547 18.3071 18.4309 17.9309C18.8071 17.5547 19.0185 17.0444 19.0185 16.5123C19.0185 15.9802 18.8071 15.47 18.4309 15.0937C18.0547 14.7175 17.5444 14.5061 17.0123 14.5061H8.98762C8.45555 14.5061 7.94527 14.7175 7.56904 15.0937C7.19281 15.47 6.98145 15.9802 6.98145 16.5123C6.98145 17.0444 7.19281 17.5547 7.56904 17.9309C7.94527 18.3071 8.45555 18.5185 8.98762 18.5185C9.51969 18.5185 10.03 18.3071 10.4062 17.9309C10.7824 17.5547 10.9938 17.0444 10.9938 16.5123V8.48762C10.9938 7.95555 10.7824 7.44527 10.4062 7.06904C10.03 6.69281 9.51969 6.48145 8.98762 6.48145C8.45555 6.48145 7.94527 6.69281 7.56904 7.06904C7.19281 7.44527 6.98145 7.95555 6.98145 8.48762C6.98145 9.01969 7.19281 9.52997 7.56904 9.9062C7.94527 10.2824 8.45555 10.4938 8.98762 10.4938H17.0123C17.5444 10.4938 18.0547 10.2824 18.4309 9.9062C18.8071 9.52997 19.0185 9.01969 19.0185 8.48762C19.0185 7.95555 18.8071 7.44527 18.4309 7.06904C18.0547 6.69281 17.5444 6.48145 17.0123 6.48145Z" stroke="#D9D9D9" stroke-width="1.2" stroke-linecap="round" stroke-linejoin="round"/>
</svg>
