<svg width="27" height="19" viewBox="0 0 27 19" fill="none" xmlns="http://www.w3.org/2000/svg">
<path d="M0.5 1.95567C0.632347 1.67229 0.854099 1.57187 1.15797 1.58091C1.6555 1.59571 2.15376 1.58492 2.69231 1.58492C2.69231 1.40701 2.69001 1.24724 2.69277 1.08758C2.69942 0.705304 2.82844 0.544018 3.18908 0.450659C4.87898 0.013196 6.59289 -0.116382 8.32086 0.10863C10.2435 0.359001 11.9845 1.04453 13.3891 2.46445C13.4178 2.49342 13.4528 2.51589 13.4681 2.52806C13.9156 2.17768 14.3334 1.81337 14.7869 1.50303C15.8785 0.755931 17.1043 0.356763 18.3947 0.154477C20.2336 -0.133795 22.0514 0.00555283 23.8511 0.46041C24.1102 0.525888 24.2663 0.685907 24.2782 0.96389C24.2866 1.16015 24.2798 1.35708 24.2798 1.59043C24.7476 1.59043 25.1836 1.59043 25.6196 1.59043C26.4216 1.59043 26.4996 1.67035 26.4996 2.49267C26.4996 7.72941 26.4996 12.9662 26.4996 18.2029C26.4996 18.2804 26.5007 18.358 26.4992 18.4355C26.4905 18.8878 26.1294 19.1231 25.7335 18.9202C24.6023 18.3406 23.4073 17.9526 22.1719 17.6912C20.3214 17.2995 18.4525 17.1722 16.5735 17.4009C15.6619 17.5119 14.7555 17.6818 13.8548 17.866C13.4397 17.9509 13.0663 17.8362 12.6837 17.7518C10.7685 17.3295 8.8391 17.2041 6.8863 17.3928C4.92676 17.5822 3.04728 18.0595 1.26563 18.9202C0.943028 19.0761 0.778077 19.0125 0.500018 18.6501L0.5 1.95567ZM3.71557 1.40656V14.8921C5.31635 14.6983 6.90296 14.6401 8.48901 14.8349C10.0759 15.0299 11.5942 15.4545 12.9934 16.3414C12.9934 16.1918 12.9935 16.0895 12.9934 15.9872C12.9882 12.051 12.9734 8.11478 12.9905 4.17869C12.9925 3.70645 12.844 3.39619 12.516 3.09466C11.0144 1.7143 9.2009 1.18804 7.23873 1.08151C6.06028 1.01752 4.89122 1.13514 3.71557 1.40656ZM23.2517 14.8824V1.39856C21.6386 1.05741 20.0377 0.943865 18.4236 1.23083C16.7936 1.52061 15.34 2.16793 14.171 3.39818C14.0501 3.52538 14.0017 3.65069 14.0019 3.828C14.0068 7.90133 14.0056 11.9747 14.0056 16.048V16.3191C16.919 14.6031 20.0468 14.5384 23.2517 14.8824ZM24.3113 2.63128C24.3113 2.76852 24.3113 2.87915 24.3113 2.98977C24.3113 7.10643 24.3115 11.2231 24.3109 15.3397C24.3108 15.8277 24.0805 16.0344 23.6116 15.9713C22.116 15.7699 20.6167 15.67 19.1093 15.8053C18.208 15.8862 17.3239 16.0565 16.4642 16.357C17.9921 16.205 19.5174 16.2223 21.0361 16.4389C22.5575 16.656 24.0328 17.0653 25.4763 17.6575V2.6313L24.3113 2.63128ZM10.4895 16.3513C9.43864 15.9914 8.35202 15.8016 7.24408 15.7587C5.93173 15.7079 4.6246 15.7893 3.32556 15.9944C3.01909 16.0428 2.78036 15.8612 2.7265 15.5456C2.70644 15.4281 2.70334 15.3064 2.70331 15.1865C2.7022 11.1135 2.70237 7.04051 2.70237 2.96749V2.63683H1.5253V17.6566C4.42078 16.4724 7.40127 16.0461 10.4895 16.3513Z" fill="#D9D9D9"/>
</svg>
