<svg width="26" height="24" viewBox="0 0 26 24" fill="none" xmlns="http://www.w3.org/2000/svg">
<path d="M13.0158 0.029761C14.7586 0.029761 16.5016 0.0125938 18.244 0.0360066C19.3415 0.050745 20.4501 0.105848 21.469 0.553418C23.5859 1.48332 24.9725 3.01864 25.2971 5.29008C25.4607 6.43522 25.4691 7.6052 25.4881 8.76487C25.5135 10.314 25.4939 11.8642 25.4704 13.4136C25.4262 16.3356 23.3581 18.856 20.4231 19.5305C19.8119 19.6709 19.1669 19.6973 18.5352 19.7236C17.7559 19.756 16.9741 19.7375 16.1935 19.7335C15.032 19.7277 13.983 20.0462 13.0404 20.7116C12.0578 21.4052 11.0717 22.0949 10.071 22.7637C8.77115 23.6326 7.02944 22.9575 6.72746 21.4532C6.65815 21.108 6.73383 20.7198 6.81317 20.3662C6.90812 19.9431 6.78286 19.7258 6.33078 19.7375C5.42482 19.7611 4.53141 19.7054 3.69786 19.3262C1.63748 18.3889 0.538148 16.8112 0.51341 14.6024C0.484617 12.0317 0.506016 9.46018 0.541453 6.88948C0.556736 5.78074 0.651838 4.66452 1.1864 3.65315C2.26766 1.60747 3.95034 0.324528 6.35083 0.146775C8.08503 0.0183438 9.83144 0.0432106 11.5725 0.00512552C12.0534 -0.00538299 12.5347 0.0035228 13.0158 0.0035228L13.0158 0.029761ZM13.0012 1.71538V1.70907C11.8848 1.70907 10.7679 1.68779 9.65219 1.71491C8.47482 1.74351 7.29233 1.76226 6.1235 1.88644C4.51717 2.05709 2.90956 3.44854 2.55624 4.97913C2.36975 5.78707 2.29412 6.63226 2.28149 7.46225C2.24481 9.87403 2.25921 12.2866 2.26553 14.6989C2.26911 16.0618 3.15147 17.2799 4.45715 17.7943C5.09807 18.0468 5.7659 18.0237 6.43579 18.0582C6.80365 18.0771 7.20041 18.1594 7.52165 18.3263C8.45136 18.8094 8.82889 19.8327 8.49462 20.8161C8.42729 21.0142 8.39425 21.1968 8.57926 21.3449C8.7848 21.5094 8.97928 21.441 9.17264 21.3064C10.1453 20.6292 11.1194 19.9541 12.0945 19.2802C13.2817 18.4596 14.6003 18.0429 16.0629 18.0426C17.0791 18.0423 18.0956 18.026 19.1113 17.9956C20.604 17.951 21.7834 17.2987 22.7071 16.1865C23.4641 15.2751 23.7368 14.2096 23.7354 13.0601C23.7334 11.2465 23.7498 9.43274 23.7279 7.61938C23.7193 6.90883 23.6607 6.19526 23.5686 5.49C23.3608 3.90011 21.9621 2.33659 20.3534 1.99236C19.4937 1.80841 18.5951 1.74982 17.7115 1.72683C16.1424 1.68602 14.5714 1.71538 13.0012 1.71538Z" fill="#D9D9D9"/>
</svg>
