<svg width="31" height="27" viewBox="0 0 31 27" fill="none" xmlns="http://www.w3.org/2000/svg">
<path fill-rule="evenodd" clip-rule="evenodd" d="M10.0209 5.5625C10.0209 2.62849 12.3994 0.25 15.3334 0.25C18.2674 0.25 20.6459 2.62849 20.6459 5.5625C20.6459 8.49651 18.2674 10.875 15.3334 10.875C12.3994 10.875 10.0209 8.49651 10.0209 5.5625Z" fill="#EE2B2A"/>
<path fill-rule="evenodd" clip-rule="evenodd" d="M20.6459 9.8125C20.6459 7.46529 22.5487 5.5625 24.8959 5.5625C27.2431 5.5625 29.1459 7.46529 29.1459 9.8125C29.1459 12.1597 27.2431 14.0625 24.8959 14.0625C22.5487 14.0625 20.6459 12.1597 20.6459 9.8125Z" fill="#EE2B2A"/>
<path fill-rule="evenodd" clip-rule="evenodd" d="M1.52087 9.8125C1.52087 7.46529 3.42366 5.5625 5.77087 5.5625C8.11808 5.5625 10.0209 7.46529 10.0209 9.8125C10.0209 12.1597 8.11808 14.0625 5.77087 14.0625C3.42366 14.0625 1.52087 12.1597 1.52087 9.8125Z" fill="#EE2B2A"/>
<path fill-rule="evenodd" clip-rule="evenodd" d="M7.27234 17.4165C8.96947 14.7629 11.9452 13 15.3334 13C18.722 13 21.698 14.7633 23.395 17.4175C24.5683 19.2524 25.0758 21.4649 24.8377 23.6221C24.8005 23.9592 24.6046 24.2583 24.3104 24.4271C21.665 25.945 18.5989 26.8125 15.3334 26.8125C12.0678 26.8125 9.00171 25.945 6.35631 24.4271C6.06213 24.2583 5.86621 23.9592 5.829 23.6221C5.59086 21.4645 6.0987 19.2516 7.27234 17.4165Z" fill="#EE2B2A"/>
<path d="M5.53328 16.1927C5.51622 16.2189 5.49926 16.2452 5.48241 16.2716C4.11467 18.4101 3.48874 20.957 3.68088 23.4678C2.81949 23.3369 1.98369 23.1265 1.18148 22.8439L1.01862 22.7866C0.721532 22.682 0.513946 22.4122 0.488961 22.0982L0.475265 21.9261C0.464065 21.7853 0.458374 21.6432 0.458374 21.5C0.458374 18.6456 2.70952 16.317 5.53328 16.1927Z" fill="#EE2B2A"/>
<path d="M26.9864 23.4677C27.1784 20.9574 26.5528 18.4111 25.1856 16.2728C25.1685 16.246 25.1513 16.2193 25.134 16.1927C27.9575 16.3173 30.2084 18.6458 30.2084 21.5C30.2084 21.6432 30.2027 21.7853 30.1915 21.9261L30.1778 22.0982C30.1528 22.4122 29.9452 22.682 29.6481 22.7866L29.4853 22.8439C28.6832 23.1264 27.8476 23.3368 26.9864 23.4677Z" fill="#EE2B2A"/>
</svg>
