<svg width="69" height="70" viewBox="0 0 69 70" fill="none" xmlns="http://www.w3.org/2000/svg">
<g clip-path="url(#clip0_2862_4030)">
<path d="M48.9834 34.9593C48.9834 37.8061 48.9895 40.6529 48.9818 43.4997C48.9727 46.8843 46.434 49.4188 43.041 49.4229C37.3486 49.4297 31.6562 49.4305 25.9638 49.4225C22.6221 49.4178 20.068 46.8717 20.0631 43.5381C20.0546 37.8189 20.0545 32.0996 20.0631 26.3804C20.0681 23.0449 22.6202 20.5024 25.9639 20.4981C31.6819 20.4906 37.4 20.4896 43.1181 20.4986C46.4106 20.5038 48.9681 23.0565 48.9809 26.3421C48.9921 29.2145 48.9832 32.0869 48.9834 34.9593ZM21.9016 34.8826C21.9016 37.6268 21.8996 40.3711 21.9022 43.1153C21.9049 45.9206 23.5476 47.5808 26.3291 47.5824C31.7908 47.5856 37.2525 47.5855 42.7142 47.5824C45.463 47.5808 47.1388 45.9213 47.1411 43.1922C47.1458 37.7037 47.1458 32.2153 47.1411 26.7268C47.1388 23.9975 45.4636 22.3396 42.714 22.3382C37.2523 22.3353 31.7906 22.3352 26.3289 22.3382C23.5452 22.3397 21.9049 23.9967 21.9022 26.8039C21.8996 29.4968 21.9016 32.1897 21.9016 34.8826Z" fill="white"/>
<path d="M47.6148 8.20119C47.2167 7.92949 46.8776 7.75819 46.6129 7.50809C44.2103 5.23729 41.4181 3.69789 38.1694 3.05199C32.3551 1.89599 27.2181 3.30669 22.7606 7.20839C22.5485 7.39409 22.3577 7.60489 22.1392 7.78219C21.7054 8.13439 21.2328 8.18189 20.8253 7.77749C20.3814 7.33679 20.4196 6.80339 20.878 6.42639C22.082 5.43629 23.2514 4.37259 24.571 3.55979C31.9609 -0.992312 41.7486 0.145088 47.9693 6.20959C48.3279 6.55919 48.7037 6.93929 48.4077 7.47059C48.2545 7.74539 47.927 7.92309 47.6148 8.20119Z" fill="white"/>
<path d="M0.352539 34.2112C0.408539 29.7248 2.24064 25.2178 5.85434 21.4333C6.24284 21.0264 6.72494 20.7285 7.18464 21.1629C7.43684 21.4011 7.50144 21.9081 7.51534 22.2987C7.52214 22.4909 7.23334 22.7053 7.05834 22.8906C4.59904 25.4946 3.02844 28.5449 2.47514 32.0931C1.60794 37.654 3.08344 42.5321 6.79804 46.7445C6.96754 46.9367 7.15584 47.1127 7.32104 47.3083C7.70414 47.7618 7.76454 48.2504 7.32244 48.6788C6.86884 49.1183 6.35184 49.0357 5.97044 48.5869C5.10904 47.5734 4.20414 46.5803 3.47334 45.4754C1.37174 42.2981 0.357539 38.7727 0.352539 34.2112Z" fill="white"/>
<path d="M34.0018 69.1388C29.3012 69.0757 24.7922 67.2517 21.0076 63.6371C20.5999 63.2477 20.3026 62.7816 20.7225 62.3063C20.9419 62.058 21.4188 61.9538 21.7822 61.9477C22.0025 61.944 22.2474 62.2319 22.4485 62.4232C25.1479 64.9908 28.3424 66.5914 32.0234 67.0833C37.4288 67.8055 42.2086 66.3363 46.2975 62.6963C46.5081 62.5088 46.7004 62.2993 46.9207 62.1247C47.36 61.7765 47.8292 61.7449 48.2322 62.1552C48.6419 62.5722 48.6146 63.0701 48.2043 63.4534C47.4752 64.1346 46.7372 64.818 45.9334 65.4053C42.5428 67.883 38.7344 69.1189 34.0018 69.1388Z" fill="white"/>
<path d="M68.6993 35.053C68.6266 40.1449 66.8375 44.5931 63.3204 48.3471C63.2328 48.4406 63.1468 48.5363 63.0524 48.6226C62.6095 49.0274 62.1296 49.1052 61.6928 48.6561C61.293 48.2451 61.3373 47.7694 61.6976 47.3417C62.1598 46.7932 62.6673 46.2815 63.11 45.7184C68.4229 38.9602 67.9966 29.3192 62.1158 23.0357C61.3545 22.2222 61.2361 21.6463 61.7404 21.2095C62.2431 20.774 62.7195 20.9162 63.4781 21.7436C66.9159 25.4928 68.6499 29.9116 68.6993 35.053Z" fill="white"/>
<path d="M34.4797 5.70312C38.3387 5.73742 41.6512 7.06183 44.467 9.65532C44.8513 10.0092 45.1313 10.3836 44.9594 10.9269C44.735 11.6359 43.9382 11.7395 43.2812 11.1178C41.8249 9.73953 40.1682 8.70253 38.2369 8.14933C33.6377 6.83213 29.5443 7.78683 25.9554 10.9406C25.7827 11.0924 25.617 11.347 25.4288 11.3663C25.0609 11.4041 24.5167 11.4435 24.3452 11.2352C24.1345 10.9794 24.11 10.4297 24.2286 10.0838C24.3396 9.76023 24.7301 9.52213 25.0194 9.27163C27.7419 6.91403 30.9109 5.74382 34.4797 5.70312Z" fill="white"/>
<path d="M5.08604 35.0061C5.31164 31.1331 6.62494 27.8112 9.24294 25.0173C9.47054 24.7744 9.81694 24.5389 10.1278 24.5098C10.3925 24.485 10.7946 24.696 10.9352 24.9256C11.0751 25.1541 11.0274 25.5537 10.9443 25.8446C10.8804 26.0683 10.6408 26.2461 10.4677 26.4336C6.03914 31.2317 6.03694 38.6751 10.4645 43.4805C10.5687 43.5936 10.6774 43.7025 10.7793 43.8175C11.1718 44.2606 11.2736 44.747 10.8205 45.1811C10.3462 45.6355 9.83664 45.532 9.39964 45.0826C7.89644 43.5366 6.70614 41.7699 6.09314 39.703C5.63924 38.1725 5.41344 36.5741 5.08604 35.0061Z" fill="white"/>
<path d="M63.755 36.4595C63.7284 38.763 62.4258 42.0609 59.8556 44.859C59.769 44.9533 59.6846 45.0508 59.5897 45.1363C59.1472 45.5346 58.6647 45.6066 58.2217 45.1808C57.8016 44.777 57.8506 44.3091 58.2139 43.8757C58.5593 43.4638 58.9365 43.0773 59.2641 42.6521C63.0493 37.7378 62.7363 30.9396 58.522 26.3759C58.4004 26.2442 58.2694 26.1192 58.1623 25.9764C57.8405 25.5473 57.8336 25.103 58.2249 24.731C58.6407 24.3358 59.1129 24.3737 59.5376 24.736C59.7698 24.9341 59.9656 25.1767 60.1677 25.4081C62.5297 28.1128 63.7553 31.3798 63.755 36.4595Z" fill="white"/>
<path d="M34.0355 64.2104C30.712 64.1773 27.3882 62.8681 24.5942 60.2509C24.3373 60.0103 24.1016 59.6334 24.0637 59.2964C23.9874 58.6184 24.7124 58.1834 25.3283 58.4848C25.5079 58.5727 25.667 58.7126 25.8175 58.8486C30.9858 63.5175 38.0865 63.5286 43.1964 58.8732C43.2721 58.8042 43.3446 58.7313 43.4236 58.6662C43.8882 58.2831 44.3715 58.2381 44.7814 58.708C45.1572 59.1388 45.109 59.6379 44.7021 60.0154C44.1028 60.5714 43.4847 61.1183 42.8177 61.5882C40.3407 63.3331 37.575 64.2006 34.0355 64.2104Z" fill="white"/>
<path d="M58.8305 36.0933C58.8097 37.4661 57.9701 39.6295 56.287 41.4572C55.7099 42.0839 55.2328 42.1624 54.7705 41.7423C54.3241 41.3367 54.3702 40.8014 54.9038 40.1972C57.6888 37.0435 57.6816 32.8912 54.8737 29.6993C54.4488 29.2162 54.2736 28.7298 54.7478 28.2098C55.1698 27.7471 55.6879 27.8427 56.2661 28.4393C57.8915 30.1166 58.8326 32.5177 58.8305 36.0933Z" fill="white"/>
<path d="M34.5838 10.6328C36.9929 10.6534 39.1559 11.4932 40.9906 13.1663C41.6456 13.7636 41.7269 14.2857 41.2718 14.743C40.8631 15.1536 40.332 15.0846 39.7231 14.5416C36.67 11.8193 32.3768 11.8134 29.3364 14.5274C29.2982 14.5615 29.2619 14.5977 29.2232 14.6311C28.6699 15.1089 28.1081 15.1467 27.7422 14.7013C27.28 14.1385 27.5062 13.6648 27.975 13.2356C29.8245 11.5426 31.991 10.6523 34.5838 10.6328Z" fill="white"/>
<path d="M34.573 59.2902C32.0357 59.2613 29.8939 58.4184 28.0701 56.7707C27.4004 56.1656 27.3129 55.6624 27.7584 55.1943C28.1624 54.7698 28.7019 54.83 29.3074 55.3672C32.4172 58.126 36.6158 58.1168 39.7646 55.3297C40.1672 54.9734 40.5793 54.7718 41.0821 55.0324C41.687 55.3459 41.7017 56.0763 41.1046 56.6438C39.256 58.4007 37.0438 59.2608 34.573 59.2902Z" fill="white"/>
<path d="M10.1985 35.0423C10.2154 32.4611 11.0788 30.3011 12.7541 28.4644C13.3262 27.8371 13.8147 27.7606 14.2755 28.18C14.7171 28.582 14.6675 29.1223 14.1332 29.7288C11.3657 32.8703 11.3677 37.0474 14.1382 40.1923C14.6693 40.7952 14.7156 41.3392 14.27 41.7407C13.8057 42.159 13.3297 42.0802 12.751 41.4479C11.071 39.6123 10.2202 37.4478 10.1985 35.0423Z" fill="white"/>
<path d="M24.9843 34.9595C24.9843 32.1904 24.9821 29.4213 24.9855 26.6522C24.9867 25.6846 25.2491 25.4203 26.2139 25.4198C31.751 25.4173 37.288 25.4174 42.8251 25.4198C43.7909 25.4202 44.0576 25.6856 44.058 26.6486C44.0605 32.1868 44.0605 37.725 44.058 43.2632C44.0576 44.2286 43.7913 44.4958 42.8286 44.4963C37.2915 44.4988 31.7545 44.4988 26.2174 44.4963C25.2507 44.4959 24.9867 44.2314 24.9855 43.2668C24.9821 40.4977 24.9843 37.7286 24.9843 34.9595ZM26.8804 27.2943V42.5942H42.1768V27.2943H26.8804Z" fill="white"/>
<path d="M34.4785 39.5757C31.9138 39.5659 29.8945 37.4992 29.909 34.8989C29.9233 32.338 31.9958 30.3284 34.6027 30.3478C37.1253 30.3665 39.1403 32.4279 39.1349 34.9845C39.1295 37.5552 37.0703 39.5856 34.4785 39.5757ZM34.5145 32.1928C33.041 32.1978 31.7765 33.4513 31.7538 34.9293C31.7309 36.4235 33.0303 37.7355 34.5277 37.7303C35.9991 37.7252 37.2671 36.4683 37.2893 34.9927C37.3118 33.4979 36.0134 32.1877 34.5145 32.1928Z" fill="white"/>
</g>
<defs>
<clipPath id="clip0_2862_4030">
<rect width="68.3468" height="68.3614" fill="white" transform="translate(0.352539 0.777344)"/>
</clipPath>
</defs>
</svg>
