<svg width="15" height="21" viewBox="0 0 15 21" fill="none" xmlns="http://www.w3.org/2000/svg">
<path d="M7.65496 0.741943C7.75693 0.877607 7.89172 0.999225 7.95612 1.15097C10.1644 6.35498 12.3658 11.5619 14.5697 16.7678C14.6126 16.869 14.6651 16.9681 14.7265 17.0592C15.1407 17.6734 15.0804 18.3792 14.573 18.9211C14.1581 19.364 13.6458 19.6531 13.0959 19.8821C12.087 20.3022 11.0281 20.5201 9.94964 20.6628C8.94106 20.7962 7.9283 20.8477 6.91339 20.8112C5.2251 20.7504 3.55969 20.5425 1.97387 19.9116C1.42126 19.6918 0.903427 19.4107 0.47972 18.9767C-0.0911214 18.3921 -0.149436 17.7078 0.288344 17.0238C0.447861 16.7746 0.547791 16.4856 0.664362 16.2102C2.78942 11.1902 4.91189 6.16909 7.04145 1.151C7.10584 0.99925 7.24064 0.877617 7.34261 0.741943C7.44673 0.741943 7.55085 0.741943 7.65496 0.741943ZM7.50185 2.22699C7.45031 2.33941 7.41914 2.403 7.39158 2.46813C5.23698 7.56071 3.08412 12.654 0.923124 17.7439C0.834867 17.9517 0.865567 18.108 0.98744 18.2666C1.05442 18.3538 1.12548 18.4498 1.21693 18.504C1.60652 18.7348 1.98632 18.9965 2.40258 19.165C3.75013 19.7104 5.17421 19.8903 6.61366 19.9546C7.78489 20.0069 8.95498 19.9701 10.1166 19.7975C11.108 19.6501 12.0825 19.432 12.9966 19.0014C13.3567 18.8317 13.7 18.6324 13.9655 18.3243C14.1205 18.1444 14.1716 17.9685 14.0662 17.7204C12.0989 13.0932 10.1414 8.46174 8.1818 3.83121C7.96175 3.31125 7.74115 2.79153 7.50185 2.22699Z" fill="#D9D9D9"/>
<path d="M12.6121 16.0022C12.6162 16.2747 12.3751 16.4776 12.0995 16.4151C11.5943 16.3004 11.0908 16.1779 10.589 16.0492C10.3403 15.9853 10.2034 15.7697 10.253 15.5553C10.3096 15.3111 10.528 15.1748 10.7901 15.2344C11.2701 15.3433 11.7494 15.4559 12.2268 15.5756C12.4823 15.6397 12.6089 15.791 12.6121 16.0022Z" fill="#D9D9D9"/>
<path d="M4.32358 15.1826C4.53571 15.2169 4.71777 15.3595 4.75866 15.5513C4.80239 15.7564 4.69533 15.9661 4.47975 16.0259C4.14299 16.1192 3.79855 16.1842 3.45846 16.2659C3.2758 16.3098 3.09669 16.3688 2.91369 16.411C2.6921 16.4622 2.48807 16.3444 2.41856 16.1361C2.35057 15.9324 2.42645 15.6997 2.63757 15.6361C3.19459 15.4683 3.76095 15.3317 4.32358 15.1826Z" fill="#D9D9D9"/>
<path d="M7.48164 15.8044C7.22868 15.8044 6.97559 15.8096 6.72281 15.803C6.47063 15.7964 6.29499 15.6227 6.29443 15.3938C6.29388 15.1655 6.47049 14.9798 6.72069 14.9761C7.24575 14.9684 7.77109 14.968 8.29612 14.9766C8.54888 14.9808 8.71356 15.1626 8.71004 15.3994C8.70666 15.6271 8.54412 15.7956 8.29874 15.8037C8.02664 15.8127 7.75402 15.8057 7.48162 15.8057C7.48162 15.8053 7.48164 15.8048 7.48164 15.8044Z" fill="#D9D9D9"/>
</svg>
