<svg width="16" height="17" viewBox="0 0 16 17" fill="none" xmlns="http://www.w3.org/2000/svg">
<g clip-path="url(#clip0_19_669)">
<path d="M15.9392 3.99674C15.6468 2.11713 13.9565 0.597025 12.0578 0.505961C10.7772 0.444544 9.67447 0.857307 8.76609 1.76395C6.26388 4.26136 3.76547 6.76257 1.26503 9.26174C0.719894 9.80658 0.336828 10.4461 0.140908 11.1925C0.0819854 11.417 0.0463169 11.6476 0 11.8754V12.6878C0.0512716 12.9304 0.0837302 13.1788 0.156837 13.4147C0.674771 15.0851 1.79481 16.094 3.51086 16.4393C3.61152 16.4596 3.7122 16.4798 3.81288 16.5H4.62545C4.64901 16.4905 4.67191 16.4751 4.69623 16.4724C5.71426 16.3592 6.56517 15.913 7.28467 15.1924C9.76053 12.713 12.2415 10.2387 14.716 7.75781C15.7573 6.71382 16.1662 5.45631 15.9392 3.99674ZM10.2735 10.7939C9.67323 11.484 8.17004 11.1052 6.91608 9.94789C5.66212 8.79055 5.13224 7.29288 5.73255 6.60276C6.33288 5.91264 7.83607 6.29139 9.09002 7.44873C10.344 8.60608 10.8739 10.1037 10.2735 10.7939ZM6.56948 14.571C5.89837 15.2415 5.08542 15.5778 4.13898 15.559C2.54197 15.5274 1.18405 14.3235 0.97346 12.7506C0.833303 11.7039 1.11648 10.7716 1.85623 10.014C2.89316 8.95205 3.94972 7.9093 5.00069 6.86108C4.8136 7.82479 5.42455 9.20664 6.60953 10.3003C7.5491 11.1675 8.62416 11.6454 9.48264 11.6583C8.51177 12.6294 7.54096 13.6006 6.56948 14.571ZM14.2076 6.91536L11.0316 10.1046C10.9996 9.18867 10.4056 8.04019 9.39049 7.10334C8.2837 6.08183 6.98892 5.60035 6.08172 5.78313C6.09233 5.77121 6.10343 5.75904 6.11527 5.74719C7.22361 4.63857 8.33164 3.52964 9.44114 2.42219C10.0957 1.76884 10.8893 1.43613 11.8121 1.44149C13.4281 1.45089 14.8016 2.64767 15.0266 4.24922C15.1684 5.25872 14.9168 6.18139 14.2076 6.91536Z" fill="#D9D9D9"/>
</g>
<defs>
<clipPath id="clip0_19_669">
<rect width="16" height="16" fill="white" transform="translate(0 0.5)"/>
</clipPath>
</defs>
</svg>
