<svg width="20" height="18" viewBox="0 0 20 18" fill="none" xmlns="http://www.w3.org/2000/svg">
<path d="M8.52699 2.29773L1.23087 14.0142C1.08044 14.2648 1.00085 14.5489 1.00001 14.8383C0.999164 15.1276 1.0771 15.4121 1.22607 15.6635C1.37504 15.9149 1.58984 16.1244 1.84911 16.2712C2.10838 16.4179 2.40308 16.4968 2.70388 16.5H17.2961C17.5969 16.4968 17.8916 16.4179 18.1509 16.2712C18.4102 16.1244 18.625 15.9149 18.7739 15.6635C18.9229 15.4121 19.0008 15.1276 19 14.8383C18.9992 14.5489 18.9196 14.2648 18.7691 14.0142L11.473 2.29773C11.3194 2.05421 11.1032 1.85287 10.8452 1.71314C10.5872 1.57341 10.2961 1.5 10 1.5C9.7039 1.5 9.41281 1.57341 9.15479 1.71314C8.89678 1.85287 8.68056 2.05421 8.52699 2.29773Z" stroke="#D9D9D9" stroke-width="1.5" stroke-linecap="round" stroke-linejoin="round"/>
</svg>
