<svg width="18" height="19" viewBox="0 0 18 19" fill="none" xmlns="http://www.w3.org/2000/svg">
<g clip-path="url(#clip0_17_665)">
<path d="M8.99477 18.4985C6.56006 18.4985 4.12535 18.4996 1.69064 18.498C0.846672 18.4974 0.240304 18.0503 0.0592761 17.2898C0.0220006 17.1332 0.0151756 16.9665 0.0147865 16.8044C0.00766966 13.8586 0.000914883 10.9129 2.86564e-05 7.9671C-0.000544149 6.04034 0.00759401 4.11357 0.0133545 2.1868C0.0158781 1.34368 0.464309 0.741636 1.22455 0.554895C1.26859 0.544077 1.31367 0.534621 1.35875 0.531464C1.47588 0.523263 1.59326 0.513969 1.71056 0.513775C5.03306 0.508233 8.35556 0.50167 11.6781 0.500054C13.2315 0.499297 14.785 0.506644 16.3384 0.513824C17.1625 0.517629 17.7633 0.975449 17.9461 1.72998C17.9568 1.77409 17.9657 1.81931 17.9687 1.86446C17.9768 1.98167 17.986 2.09914 17.9862 2.21651C17.9918 5.53459 17.9983 8.85268 18 12.1708C18.0007 13.7252 17.9928 15.2797 17.9864 16.8341C17.9829 17.6718 17.5267 18.2805 16.7653 18.4568C16.6209 18.4903 16.4678 18.4936 16.3185 18.4968C16.0379 18.5028 15.7571 18.4986 15.4764 18.4986C13.3159 18.4986 11.1553 18.4985 8.99477 18.4985ZM6.71233 11.7846H11.2807V7.22701H6.71233V11.7846ZM11.2819 1.78924H6.72279V5.93228H11.2819L11.2819 1.78924ZM5.433 11.7893V7.22671H1.29225V11.7893H5.433ZM12.5683 11.7865H16.7091V7.2214H12.5683V11.7865ZM11.2821 13.0751H6.72222V17.2185H11.2821L11.2821 13.0751ZM5.42765 5.9367V1.77822C5.35711 1.77822 5.29959 1.77822 5.24207 1.77822C4.05468 1.77822 2.86729 1.77797 1.67989 1.77841C1.36179 1.77853 1.27761 1.86371 1.2775 2.18507C1.2771 3.36669 1.27733 4.54831 1.27732 5.72994C1.27732 5.79833 1.27732 5.86673 1.27732 5.9367H5.42765ZM12.5671 5.93089H16.7226C16.7226 5.85988 16.7226 5.80224 16.7226 5.7446C16.7226 4.55648 16.7229 3.36835 16.7224 2.18022C16.7223 1.86326 16.6361 1.77849 16.3148 1.77839C15.134 1.77801 13.9531 1.77823 12.7723 1.77823C12.7041 1.77823 12.6358 1.77823 12.5671 1.77823L12.5671 5.93089ZM5.43455 13.079H1.27732C1.27732 13.1542 1.27732 13.2179 1.27732 13.2816C1.27732 14.4632 1.27709 15.6448 1.2775 16.8264C1.27761 17.1473 1.36239 17.2331 1.68007 17.2332C2.86744 17.2336 4.05481 17.2335 5.24218 17.2329C5.30467 17.2329 5.36717 17.2268 5.43455 17.2233V13.079ZM12.5667 17.2334H12.7618C13.9491 17.2334 15.1365 17.2337 16.3238 17.2332C16.6374 17.233 16.7223 17.1451 16.7224 16.8221C16.7228 15.6406 16.7226 14.459 16.7226 13.2774C16.7226 13.2141 16.7226 13.1507 16.7226 13.0833H12.5667L12.5667 17.2334Z" fill="#D9D9D9"/>
</g>
<defs>
<clipPath id="clip0_17_665">
<rect width="18" height="18" fill="white" transform="translate(0 0.5)"/>
</clipPath>
</defs>
</svg>
