<svg width="22" height="16" viewBox="0 0 22 16" fill="none" xmlns="http://www.w3.org/2000/svg">
<g clip-path="url(#clip0_15_661)">
<path d="M0 7.47816C0.0375266 7.28647 0.0712667 7.09392 0.113188 6.90323C0.420767 5.50414 1.18588 4.39244 2.22897 3.4669C3.76441 2.1045 5.57913 1.32586 7.54594 0.877423C9.01436 0.542612 10.5027 0.438634 12.001 0.53355C14.2109 0.673545 16.3156 1.21045 18.2424 2.35881C19.4832 3.09826 20.5593 4.02485 21.2683 5.32239C22.3025 7.21492 22.2279 9.09123 21.1237 10.9325C20.9898 11.1556 20.814 11.2144 20.6418 11.1091C20.4608 10.9984 20.4318 10.81 20.5736 10.5775C20.9633 9.93863 21.2238 9.25482 21.3085 8.50298C21.4439 7.30147 21.1143 6.22492 20.4549 5.24512C19.5922 3.96331 18.3886 3.10327 17.0278 2.45506C15.4831 1.71928 13.8494 1.33594 12.1518 1.21385C10.103 1.06649 8.09753 1.28222 6.15155 1.96633C4.55508 2.52758 3.11118 3.34618 1.97916 4.65575C1.22228 5.53134 0.734743 6.53747 0.656689 7.71627C0.583156 8.82676 0.909037 9.82971 1.51768 10.7404C2.27268 11.87 3.30371 12.6759 4.47756 13.3051C6.00817 14.1256 7.64678 14.5729 9.36171 14.7489C11.6636 14.985 13.9147 14.7608 16.0953 13.95C17.4673 13.4399 18.7103 12.7106 19.7442 11.6414C19.9175 11.4621 20.1128 11.4471 20.2526 11.5887C20.4027 11.7406 20.3844 11.9246 20.1938 12.1211C19.1025 13.2455 17.7925 14.0148 16.3484 14.5603C14.4823 15.2653 12.5487 15.5461 10.5637 15.4939C8.48962 15.4393 6.49382 15.0273 4.6134 14.1157C3.23968 13.4497 2.02343 12.5699 1.11118 11.3047C0.539193 10.5115 0.155511 9.63671 0.0394313 8.65086C0.0344859 8.60886 0.0135224 8.56881 1.72114e-05 8.52786C1.72114e-05 8.17795 0 7.82806 0 7.47816Z" fill="#D9D9D9"/>
<path d="M16.3602 8.10129C15.8542 7.73311 15.3163 7.46751 14.7513 7.25997C13.3474 6.74428 11.8975 6.55601 10.4092 6.63208C9.47687 6.67973 8.56413 6.82941 7.67186 7.11012C7.421 7.18904 7.23277 7.10813 7.17956 6.91106C7.12462 6.70763 7.23312 6.55268 7.48883 6.47374C9.08419 5.98122 10.7098 5.84295 12.3658 6.02959C13.7289 6.18322 15.0296 6.53962 16.23 7.23043C16.4533 7.35891 16.6649 7.50851 16.8816 7.64819C16.8956 7.6433 16.9124 7.64261 16.9209 7.63369C17.6616 6.85925 17.6425 6.50456 16.9306 5.76249C16.7372 5.56084 16.5055 5.39624 16.2853 5.22254C16.0916 5.0697 16.0354 4.88519 16.1471 4.71937C16.2574 4.5557 16.466 4.52167 16.6553 4.68152C17.0062 4.97782 17.3752 5.26514 17.67 5.61452C18.287 6.34569 18.2692 7.03123 17.6718 7.77966C17.136 8.45091 16.4392 8.90423 15.6816 9.26524C14.2259 9.95898 12.6799 10.2435 11.084 10.2523C9.325 10.2619 7.62743 9.95188 6.04437 9.13316C5.40901 8.80457 4.82528 8.39851 4.36248 7.83542C4.26645 7.71858 4.1794 7.59256 4.1003 7.4631C3.78704 6.95045 3.78759 6.43435 4.09768 5.91932C4.42294 5.37909 4.88084 4.97663 5.39563 4.63633C5.55128 4.53344 5.73893 4.57502 5.83613 4.71245C5.94322 4.86386 5.90347 5.056 5.74325 5.19271C5.46436 5.43066 5.16316 5.648 4.91588 5.91654C4.37932 6.49925 4.39467 6.89405 4.92469 7.48816C4.97725 7.54709 5.0228 7.61252 5.05816 7.65773C5.43709 7.43417 5.77902 7.22434 6.12877 7.02906C6.34713 6.90714 6.53089 6.9596 6.62218 7.14493C6.71044 7.32413 6.64546 7.4888 6.43453 7.61158C6.1693 7.76598 5.90285 7.91819 5.6251 8.07815C8.08541 9.9528 13.3832 10.2032 16.3602 8.10129Z" fill="#D9D9D9"/>
</g>
<defs>
<clipPath id="clip0_15_661">
<rect width="22" height="15" fill="white" transform="translate(0 0.5)"/>
</clipPath>
</defs>
</svg>
