<svg width="20" height="20" viewBox="0 0 20 20" fill="none" xmlns="http://www.w3.org/2000/svg">
<path d="M9.99207 19.4995C8.57115 19.4995 7.15022 19.5007 5.7293 19.4992C4.32045 19.4977 3.25226 18.7353 2.81251 17.4106C1.93342 14.7626 1.05663 12.1138 0.182577 9.46407C-0.273952 8.08011 0.131791 6.87443 1.33109 6.01752C3.6152 4.3855 5.89893 2.75299 8.18261 1.12041C9.33611 0.29577 10.6617 0.292716 11.8117 1.11418C14.1024 2.75036 16.3933 4.38623 18.6829 6.02392C19.8665 6.87059 20.2715 8.08402 19.8201 9.45475C18.9447 12.1131 18.065 14.7701 17.1836 17.4265C16.7505 18.7318 15.6744 19.4974 14.2798 19.4991C12.8505 19.5009 11.4213 19.4995 9.99207 19.4995ZM9.97288 17.9244C11.3854 17.9244 12.7979 17.925 14.2104 17.9242C14.9959 17.9238 15.4392 17.6124 15.6782 16.889C16.5507 14.2475 17.4221 11.6056 18.2925 8.9635C18.5256 8.25604 18.3596 7.744 17.7563 7.31261C15.4663 5.67504 13.1756 4.03839 10.8842 2.40263C10.2731 1.96638 9.72732 1.9674 9.12102 2.40053C6.83054 4.0368 4.54028 5.67337 2.24994 7.30982C1.64446 7.74244 1.47436 8.25451 1.70615 8.95758C2.57729 11.6 3.44884 14.2423 4.32117 16.8843C4.56044 17.6089 5.004 17.9237 5.78517 17.9242C7.18106 17.9251 8.57697 17.9244 9.97288 17.9244Z" fill="#D9D9D9"/>
</svg>
