<svg width="17" height="18" viewBox="0 0 17 18" fill="none" xmlns="http://www.w3.org/2000/svg">
<path d="M8.36808 17.5C8.02676 17.3333 7.68566 17.166 7.34406 16.9999C5.02523 15.8718 2.70627 14.7439 0.387401 13.6159C-0.0151035 13.4201 -0.110579 13.0868 0.132082 12.7194C2.75389 8.75009 5.37658 4.78132 7.9964 0.810677C8.14168 0.5905 8.32623 0.469452 8.59258 0.506661C8.78874 0.534063 8.911 0.66549 9.01588 0.824568C10.304 2.77829 11.5946 4.73046 12.8842 6.68317C14.2075 8.68665 15.5309 10.69 16.8521 12.6948C16.9089 12.781 16.9644 12.8769 16.9855 12.9757C17.0453 13.2557 16.9191 13.4702 16.6282 13.6122C15.9025 13.9665 15.1767 14.3205 14.4497 14.6722C12.5227 15.6045 10.5951 16.5355 8.66801 17.4676C8.6547 17.4741 8.64552 17.489 8.63441 17.5L8.36808 17.5ZM7.94487 2.9605C7.93175 2.95736 7.91863 2.95422 7.90551 2.95109C5.90603 5.97848 3.90655 9.00588 1.88663 12.0642C1.94945 12.0483 1.97021 12.0443 1.99015 12.0379C3.93105 11.4077 5.8714 10.7758 7.81378 10.1502C7.94404 10.1083 7.94614 10.0325 7.94607 9.92725C7.94448 7.65889 7.94487 5.39053 7.94487 3.12216C7.94487 3.06828 7.94487 3.01439 7.94487 2.9605ZM15.122 12.0729C13.0949 9.0038 11.0949 5.97584 9.07114 2.91183C9.06388 2.99224 9.05785 3.0279 9.05784 3.06356C9.0574 5.3641 9.05867 7.66463 9.05411 9.96516C9.05387 10.0899 9.11166 10.1226 9.20956 10.1542C10.4505 10.5546 11.6907 10.9574 12.931 11.3601C13.6445 11.5918 14.3578 11.8242 15.122 12.0729ZM9.06752 11.2635V16.0609C11.0383 15.1032 12.9893 14.1551 14.9829 13.1862C12.9882 12.5378 11.036 11.9033 9.06752 11.2635ZM7.93257 16.0579V11.2663C5.96423 11.9058 4.01297 12.5398 2.02247 13.1865C4.0137 14.1539 5.96455 15.1017 7.93257 16.0579Z" fill="#D9D9D9"/>
</svg>
