<svg width="18" height="19" viewBox="0 0 18 19" fill="none" xmlns="http://www.w3.org/2000/svg">
<g clip-path="url(#clip0_15_624)">
<path d="M9.59929 18.5H8.40421C8.19658 18.4738 7.98834 18.4518 7.78142 18.4209C5.40795 18.066 3.45053 16.967 1.95901 15.0874C0.374173 13.0902 -0.250552 10.8001 0.0902489 8.27816C0.416101 5.86678 1.56768 3.89502 3.48678 2.40058C5.47153 0.855024 7.73724 0.26169 10.2274 0.585593C12.0078 0.817182 13.5804 1.54485 14.9263 2.7349C16.5598 4.17935 17.5552 5.98255 17.8957 8.14106C17.9356 8.39422 17.9655 8.64897 18 8.90298V10.0982C17.973 10.3118 17.9496 10.5258 17.9186 10.7388C17.6604 12.5078 16.9565 14.0769 15.7734 15.4181C14.328 17.0566 12.5225 18.0554 10.3596 18.3958C10.1069 18.4356 9.85276 18.4655 9.59929 18.5ZM13.201 12.7291C13.7613 12.5194 14.2875 12.3475 14.7927 12.1275C15.5327 11.8053 16.2184 11.3914 16.743 10.758C17.0204 10.423 17.1994 10.0476 17.2401 9.60217C17.2752 9.21868 17.0264 8.85688 17.1748 8.47107C17.0394 7.44701 16.7463 6.47152 16.2352 5.57189C14.8592 3.15003 12.7899 1.7338 10.0322 1.329C9.99421 1.32343 9.95392 1.33548 9.91463 1.33679C9.79013 1.34091 9.66465 1.35473 9.54136 1.34403C9.42633 1.33404 9.31476 1.28741 9.19968 1.27431C8.52536 1.19756 7.99172 1.48915 7.53751 1.94621C6.61757 2.87191 6.17349 4.04716 5.80988 5.28569C5.87324 5.27716 5.91824 5.2725 5.96271 5.26482C6.05466 5.24894 6.14574 5.22267 6.23823 5.21645C6.43585 5.20316 6.59654 5.32643 6.63817 5.51181C6.67823 5.69018 6.57556 5.88285 6.38594 5.9384C6.17908 5.999 5.9669 6.04771 5.7537 6.07801C5.62797 6.09588 5.58952 6.15051 5.57518 6.26503C5.47865 7.036 5.33337 7.80377 5.28734 8.57754C5.20334 9.98935 5.29328 11.3959 5.58331 12.7854C5.60305 12.8799 5.64084 12.9028 5.72716 12.9202C6.74513 13.125 7.77259 13.2288 8.81097 13.239C9.97901 13.2505 11.1356 13.1518 12.2811 12.9199C12.3754 12.9008 12.403 12.862 12.418 12.775C12.4528 12.5738 12.4936 12.373 12.5439 12.1751C12.6078 11.9233 12.7838 11.8066 13.0042 11.8559C13.214 11.9028 13.3261 12.1046 13.2781 12.3508C13.2572 12.458 13.2346 12.5648 13.201 12.7291ZM5.77952 13.7263C5.98794 14.2749 6.17068 14.8093 6.39268 15.3269C6.67347 15.9815 7.04176 16.5866 7.56324 17.0827C8.13852 17.63 8.79172 17.9028 9.59519 17.6412C9.68549 17.6118 9.79858 17.6513 9.90095 17.6606C9.94016 17.6641 9.9802 17.6821 10.0178 17.6772C11.0782 17.5394 12.0809 17.2215 13.0122 16.6933C14.5948 15.7957 15.7643 14.5151 16.5155 12.8591C16.6861 12.4831 16.8099 12.0859 16.9709 11.6566C16.6589 11.8859 16.4043 12.0928 16.1308 12.2705C15.2241 12.8593 14.2227 13.2266 13.1824 13.496C13.08 13.5225 13.0298 13.5637 12.995 13.6687C12.8996 13.9561 12.5707 14.0157 12.3617 13.8023C12.3149 13.7545 12.2252 13.7165 12.1605 13.7233C11.4109 13.8029 10.6642 13.9154 9.91317 13.9724C9.0014 14.0417 8.0875 14.008 7.17801 13.9057C6.72636 13.8549 6.27625 13.7905 5.77952 13.7263ZM6.81715 1.57908C5.90726 1.8148 5.06972 2.20261 4.30545 2.7444C2.45179 4.05844 1.31534 5.83495 0.889289 8.06583C0.857763 8.2309 0.799063 8.41285 0.839415 8.56386C0.887106 8.74231 0.849122 8.89146 0.829159 9.05829C0.798354 9.31576 0.765032 9.58458 0.80608 9.83665C0.900232 10.4148 1.26943 10.8367 1.69938 11.203C2.38632 11.7882 3.18828 12.1654 4.03427 12.4565C4.27703 12.54 4.52382 12.6118 4.74752 12.6823C4.67276 11.9229 4.58369 11.18 4.53026 10.4345C4.46402 9.5101 4.49646 8.5849 4.59824 7.66382C4.64764 7.21674 4.72511 6.77281 4.78109 6.32635C4.78793 6.27178 4.75682 6.18819 4.71448 6.15628C4.5915 6.06357 4.54947 5.94729 4.56835 5.80372C4.58888 5.64763 4.68625 5.54321 4.83151 5.50727C4.94171 5.48001 4.97431 5.42158 5.00639 5.32239C5.1913 4.7507 5.36371 4.1734 5.58344 3.61495C5.87616 2.87099 6.28346 2.18856 6.81715 1.57908ZM6.79961 17.4504C6.51893 17.0258 6.2249 16.6246 5.97703 16.1967C5.52014 15.4079 5.22925 14.5497 5.00334 13.6696C4.978 13.5708 4.93571 13.5244 4.83551 13.4995C4.59206 13.4389 4.35027 13.3697 4.11157 13.2924C3.01868 12.9383 1.98401 12.4735 1.1156 11.6969C1.10618 11.6885 1.08812 11.6897 1.04572 11.6798C1.97299 14.6173 3.88486 16.5296 6.79961 17.4504Z" fill="#D9D9D9"/>
<path d="M12.282 5.31542C12.3592 5.12969 12.4942 5.04158 12.685 5.06246C12.8722 5.08295 12.9659 5.20633 13.0143 5.38016C13.0259 5.42193 13.0724 5.4729 13.1129 5.48448C13.2878 5.5345 13.4024 5.63657 13.4264 5.81946C13.4504 6.00131 13.3546 6.11889 13.1852 6.19524C13.2146 6.34085 13.2424 6.48244 13.2718 6.62368C13.3261 6.8846 13.2102 7.09099 12.9816 7.13856C12.7792 7.18067 12.592 7.04004 12.5335 6.79293C12.4892 6.60561 12.4626 6.41377 12.4109 6.22872C12.3954 6.17303 12.33 6.1066 12.2745 6.09113C12.0726 6.03478 11.8635 6.0048 11.6604 5.95191C11.4218 5.88976 11.31 5.71354 11.3567 5.49808C11.4009 5.29382 11.5959 5.1779 11.8325 5.22068C11.9758 5.24658 12.1176 5.28046 12.282 5.31542Z" fill="#D9D9D9"/>
<path d="M13.4963 9.49479C13.4965 9.6996 13.5001 9.90449 13.4957 10.1092C13.4899 10.3742 13.3386 10.5483 13.1191 10.5518C12.8911 10.5553 12.7352 10.3768 12.7335 10.1015C12.7311 9.69201 12.7298 9.28245 12.734 8.87296C12.737 8.57502 12.9124 8.41233 13.1829 8.44522C13.3706 8.46804 13.487 8.6102 13.4946 8.84529C13.5015 9.06158 13.4961 9.27827 13.4963 9.49479Z" fill="#D9D9D9"/>
<path d="M9.00844 5.76908C8.79784 5.76908 8.58722 5.77105 8.37665 5.76858C8.11027 5.76547 7.94 5.61706 7.93964 5.3922C7.93926 5.16426 8.10125 5.01145 8.36859 5.00757C8.78397 5.00155 9.19954 5.00194 9.61494 5.00734C9.88612 5.01087 10.0644 5.17937 10.0531 5.40474C10.0417 5.63183 9.87089 5.77099 9.60518 5.76897C9.5057 5.76821 9.40625 5.76551 9.30677 5.76476C9.20734 5.76401 9.1079 5.7646 9.00846 5.7646C9.00845 5.76609 9.00844 5.76759 9.00844 5.76908Z" fill="#D9D9D9"/>
<path d="M15.0151 6.1615C15.0442 6.16902 15.1126 6.17278 15.1663 6.20284C15.5681 6.42776 15.9696 6.65344 16.3654 6.88876C16.5054 6.972 16.5778 7.11193 16.5426 7.27813C16.5087 7.43821 16.4104 7.55951 16.2389 7.57527C16.152 7.58326 16.0496 7.56403 15.9732 7.5223C15.5894 7.31261 15.2107 7.09362 14.8328 6.87332C14.6509 6.76725 14.586 6.61369 14.6318 6.43203C14.6702 6.27959 14.8174 6.16562 15.0151 6.1615Z" fill="#D9D9D9"/>
<path d="M11.3099 1.90613C11.409 1.97745 11.5416 2.02789 11.6013 2.12375C11.8449 2.51466 12.0755 2.91453 12.2919 3.32119C12.4026 3.52915 12.3135 3.74075 12.1134 3.83788C11.9363 3.92381 11.7365 3.85416 11.6231 3.65865C11.4034 3.28009 11.184 2.90132 10.972 2.51842C10.8181 2.24032 10.9839 1.94194 11.3099 1.90613Z" fill="#D9D9D9"/>
<path d="M12.34 15.5345C12.3299 15.5654 12.3187 15.6371 12.2853 15.6964C12.065 16.0875 11.8458 16.4795 11.6139 16.8638C11.4972 17.0571 11.2915 17.1036 11.1133 17.0042C10.9294 16.9017 10.8623 16.6887 10.9715 16.4901C11.1906 16.0917 11.4168 15.6969 11.6483 15.3055C11.7473 15.1381 11.9165 15.0819 12.0856 15.1348C12.2352 15.1816 12.3437 15.3353 12.34 15.5345Z" fill="#D9D9D9"/>
<path d="M1.40699 7.19886C1.48148 7.09571 1.53439 6.95815 1.63427 6.89549C2.01933 6.65395 2.4151 6.42833 2.81569 6.21318C3.01745 6.10483 3.23202 6.18334 3.32773 6.36595C3.42591 6.55326 3.36713 6.75409 3.16332 6.87446C2.77659 7.10286 2.38819 7.3288 1.99467 7.54519C1.73872 7.68594 1.45052 7.51236 1.40699 7.19886Z" fill="#D9D9D9"/>
</g>
<defs>
<clipPath id="clip0_15_624">
<rect width="18" height="18" fill="white" transform="translate(0 0.5)"/>
</clipPath>
</defs>
</svg>
