<svg width="16" height="21" viewBox="0 0 16 21" fill="none" xmlns="http://www.w3.org/2000/svg">
<path d="M6.80174 20.5C6.50426 20.4754 6.20707 20.4454 5.90923 20.4273C4.74475 20.3566 3.5854 20.2403 2.44266 19.9879C1.80239 19.8465 1.17168 19.6718 0.596492 19.3267C0.202617 19.0904 -0.00100477 18.7718 3.72788e-06 18.2701C0.0104827 13.0894 0.0104592 7.90857 5.53252e-05 2.72782C-0.000953168 2.22473 0.207716 1.90902 0.601586 1.67477C1.28971 1.2655 2.04876 1.08799 2.81441 0.93928C4.03007 0.703159 5.26035 0.607664 6.49391 0.541311C7.79239 0.471471 9.08994 0.491629 10.3848 0.590842C11.7953 0.698923 13.2057 0.835009 14.5614 1.29587C14.8726 1.40166 15.1734 1.55369 15.4612 1.71826C15.8187 1.92271 15.9998 2.23577 15.9991 2.68877C15.991 7.88906 15.9903 13.0894 16 18.2897C16.0009 18.7764 15.7979 19.0882 15.4201 19.3171C14.7856 19.7016 14.0844 19.8806 13.3747 20.0264C12.0811 20.2923 10.771 20.4039 9.45576 20.4624C9.36971 20.4663 9.28436 20.4871 9.19868 20.5L6.80174 20.5ZM15.3336 17.5717V3.41508C14.9586 3.55259 14.5969 3.71009 14.2221 3.81783C13.2468 4.09817 12.2492 4.26411 11.2411 4.33205C10.0964 4.40919 8.94974 4.48166 7.80328 4.49479C6.3368 4.5116 4.87363 4.40398 3.4225 4.1692C2.49939 4.01985 1.57836 3.85425 0.730331 3.41074C0.712286 3.4013 0.68721 3.4065 0.666852 3.40497V17.5886C1.04181 17.4511 1.40272 17.2896 1.77832 17.186C3.46373 16.7211 5.19058 16.5824 6.92439 16.5207C8.38494 16.4687 9.8455 16.4961 11.2973 16.6782C12.1801 16.7888 13.061 16.9334 13.9331 17.1132C14.4094 17.2114 14.8657 17.4148 15.3336 17.5717ZM7.69602 3.82973C9.37318 3.82924 10.742 3.76109 12.1038 3.56002C13.0237 3.42418 13.9362 3.25962 14.8054 2.90267C14.9544 2.84144 15.0997 2.76007 15.2311 2.66463C15.383 2.55428 15.3827 2.45067 15.2315 2.34208C15.0995 2.2473 14.9541 2.16729 14.8055 2.10396C14.0922 1.79989 13.3407 1.6458 12.5848 1.51797C11.3026 1.30116 10.0097 1.20477 8.71192 1.18132C7.13878 1.1529 5.56993 1.20969 4.00831 1.43183C3.05056 1.56808 2.10062 1.73364 1.19591 2.10422C1.04119 2.1676 0.8942 2.25786 0.754601 2.35316C0.625636 2.44121 0.625119 2.56437 0.754235 2.65146C0.90466 2.75294 1.06287 2.84801 1.22863 2.91754C1.9668 3.22716 2.74411 3.38473 3.52529 3.50875C5.00746 3.74407 6.50042 3.84136 7.69602 3.82973ZM8.00394 17.1413C7.0699 17.1914 6.13497 17.228 5.20208 17.2954C4.19467 17.368 3.19308 17.5051 2.21448 17.7713C1.78325 17.8887 1.36304 18.0558 0.947274 18.2254C0.834014 18.2717 0.75506 18.4093 0.66036 18.505C0.757467 18.5992 0.840069 18.7264 0.954545 18.781C1.23647 18.9153 1.52663 19.0403 1.82481 19.1265C3.3223 19.5591 4.85865 19.739 6.40447 19.7874C7.61904 19.8253 8.83706 19.8012 10.0519 19.7566C11.4488 19.7053 12.8329 19.516 14.1829 19.1229C14.5213 19.0244 14.8498 18.8721 15.1643 18.7062C15.4117 18.5757 15.4009 18.44 15.1603 18.2854C15.034 18.2043 14.8973 18.1376 14.7592 18.0803C14.0257 17.776 13.2549 17.6189 12.48 17.4956C10.9979 17.2598 9.50496 17.1623 8.00394 17.1413Z" fill="#D9D9D9"/>
</svg>
