<svg width="19" height="22" viewBox="0 0 19 22" fill="none" xmlns="http://www.w3.org/2000/svg">
<path d="M9.37673 21.5C8.92125 21.2673 8.46752 21.0311 8.00997 20.8026C5.46171 19.5297 2.91426 18.2552 0.361051 16.9922C0.0925243 16.8594 -0.000443959 16.685 1.59274e-06 16.3983C0.00569596 12.7839 0.00564163 9.16958 3.41941e-05 5.55526C-0.000400491 5.27531 0.0952845 5.1066 0.351466 4.97457C3.16259 3.52578 5.97 2.06977 8.77291 0.605278C9.03872 0.466391 9.25564 0.466705 9.52257 0.595674C12.5667 2.0664 15.6146 3.52927 18.6646 4.9878C18.9007 5.10071 18.9998 5.25561 18.9995 5.51388C18.9955 9.1556 18.9952 12.7973 19 16.439C19.0003 16.7058 18.8989 16.8631 18.658 16.9826C15.6831 18.4587 12.7121 19.9424 9.74037 21.4248C9.69924 21.4453 9.66258 21.4747 9.62384 21.5L9.37673 21.5ZM0.721839 5.95521C0.721839 6.0431 0.721839 6.09737 0.721839 6.15163C0.721839 9.49831 0.723078 12.845 0.717797 16.1917C0.717558 16.3424 0.776751 16.4045 0.899886 16.4658C3.57853 17.7984 6.25526 19.1348 8.93256 20.4701C8.99205 20.4998 9.05411 20.5244 9.13065 20.5583C9.13432 20.4786 9.13948 20.4186 9.13949 20.3587C9.13988 17.0188 9.13849 13.679 9.144 10.3391C9.14426 10.1809 9.08265 10.1148 8.95234 10.05C6.2864 8.72458 3.62261 7.39489 0.958264 6.06633C0.892116 6.03334 0.824468 6.00333 0.721839 5.95521ZM9.86073 20.5693C9.96441 20.5194 10.0316 20.4881 10.098 20.455C12.7571 19.1292 15.4154 17.8018 18.0769 16.4809C18.2353 16.4023 18.2836 16.3124 18.2833 16.1375C18.2771 12.8252 18.2787 9.51277 18.2787 6.20038V5.95884C18.1827 6.00207 18.1147 6.02994 18.049 6.06266C15.3846 7.39102 12.721 8.72119 10.0543 10.045C9.90256 10.1203 9.85695 10.2088 9.85719 10.3726C9.86192 13.6919 9.86074 17.0113 9.86074 20.3306L9.86073 20.5693ZM1.15834 5.36195C1.21079 5.39507 1.23279 5.41177 1.25708 5.42388C3.95818 6.77122 6.65996 8.11719 9.35908 9.46843C9.48523 9.53159 9.57487 9.49924 9.68298 9.44523C12.3284 8.12381 14.9747 6.80423 17.6207 5.48408C17.6814 5.45383 17.7407 5.4209 17.8168 5.38067C17.7478 5.34408 17.6965 5.31449 17.6432 5.28888C14.868 3.95491 12.0923 2.62215 9.31874 1.28479C9.19209 1.22371 9.09742 1.23726 8.97886 1.29895C6.63528 2.51815 4.28967 3.73346 1.94465 4.9499C1.69055 5.08171 1.43752 5.2156 1.15834 5.36195Z" fill="#D9D9D9"/>
</svg>
