<svg width="62" height="67" viewBox="0 0 62 67" fill="none" xmlns="http://www.w3.org/2000/svg">
<g clip-path="url(#clip0_2862_4047)">
<path d="M29.3252 0.957031C29.8598 1.11585 30.4116 1.23264 30.926 1.44053C33.7567 2.58472 35.3661 4.78868 35.8938 7.66724C36.5615 11.3101 36.0998 14.8088 33.7686 17.8796C33.7461 17.9092 33.749 17.9578 33.7337 18.0259C34.587 18.0889 35.4409 18.1096 36.282 18.2234C37.7294 18.4191 38.9818 19.0666 40.1324 19.9491C40.3946 20.1502 40.7818 20.2873 41.1123 20.289C45.3735 20.3115 49.6349 20.2956 53.8961 20.3078C56.0464 20.3139 57.5877 21.9274 57.4811 24.0181C57.388 25.8432 55.8114 27.2247 53.7671 27.2291C48.8786 27.2396 43.99 27.2326 39.1013 27.2327C38.1973 27.2327 37.2933 27.2327 36.324 27.2327C36.4345 28.293 36.5407 29.2872 36.6411 30.2819C36.7186 31.0504 36.811 31.8183 36.8555 32.5888C36.8902 33.1893 36.5147 33.6181 35.9823 33.6709C35.4483 33.724 34.983 33.3039 34.9148 32.69C34.6992 30.7497 34.481 28.8096 34.2797 26.8677C34.1443 25.5624 34.4316 25.2636 35.7698 25.2635C41.6101 25.2628 47.4506 25.2642 53.2909 25.2605C53.6357 25.2603 53.9866 25.2547 54.3241 25.1941C55.0058 25.0717 55.5164 24.4502 55.5288 23.783C55.5418 23.0852 55.0292 22.4547 54.3107 22.3252C54.0155 22.272 53.7089 22.2645 53.4075 22.2642C49.1245 22.2605 44.8416 22.256 40.5587 22.2686C39.9855 22.2702 39.544 22.1261 39.1177 21.7071C37.9941 20.6031 36.5872 20.083 35.0214 20.0377C33.6598 19.9984 32.2955 20.0026 30.9338 20.0396C30.4244 20.0534 29.9203 20.2216 29.4117 20.3072C27.4046 20.6448 25.5626 20.1924 23.9821 18.9594C22.9911 18.1864 21.9464 18.0387 20.8197 18.3255C20.0961 18.5097 19.4977 18.4127 18.8416 18.0953C15.0972 16.2832 11.3368 14.5038 7.5811 12.7147C7.37008 12.6142 7.15289 12.5267 6.88666 12.4105C5.96971 18.0365 6.49824 23.4594 8.58222 28.8897C8.89814 28.1503 9.14513 27.5482 9.41164 26.9548C9.69954 26.3137 10.2132 26.0694 10.7502 26.297C11.29 26.5257 11.4885 27.0644 11.2251 27.7039C10.6942 28.993 10.1528 30.278 9.5937 31.5553C9.30431 32.2164 8.8406 32.4055 8.17783 32.1366C6.85957 31.6017 5.5471 31.0521 4.24071 30.4893C3.62604 30.2245 3.41315 29.7247 3.63763 29.1931C3.85407 28.6804 4.39185 28.478 4.99222 28.6961C5.25528 28.7917 5.50768 28.9159 5.76746 29.021C6.01922 29.1228 6.27424 29.2168 6.54476 29.3207C6.11851 27.8012 5.67022 26.3353 5.29909 24.8505C4.67648 22.3596 4.45556 19.8176 4.47658 17.2563C4.47994 16.8494 4.36803 16.6346 3.98839 16.482C3.46939 16.2732 2.96729 16.0182 2.4721 15.7566C0.794103 14.87 0.0946186 13.0683 0.765705 11.3935C1.44641 9.69447 3.22772 8.86384 5.0762 9.38296C5.19502 9.41636 5.31534 9.44465 5.45798 9.4813C5.85714 8.23312 6.24509 7.0201 6.66527 5.70633C6.05322 5.95198 5.52786 6.17267 4.99521 6.37407C4.39699 6.60023 3.85687 6.40134 3.63791 5.8927C3.41203 5.36801 3.62912 4.8435 4.23006 4.58515C5.53664 4.02344 6.84901 3.47426 8.1683 2.94289C8.8321 2.67554 9.31084 2.87156 9.59417 3.52065C10.1604 4.81799 10.7129 6.12155 11.2488 7.43161C11.49 8.02124 11.2622 8.58276 10.7546 8.78304C10.2213 8.99343 9.71187 8.77089 9.4406 8.17968C9.17287 7.59609 8.93112 7.0008 8.50758 6.37342C8.12906 7.63978 7.73551 8.90234 7.39698 10.1792C7.36596 10.296 7.65574 10.5686 7.84892 10.6615C11.5591 12.4452 15.295 14.1772 18.9807 16.009C19.8864 16.4592 20.6965 16.3683 21.5173 16.2093C21.1973 14.9757 20.7881 13.7792 20.5875 12.549C20.1046 9.58649 20.3401 6.71526 22.1461 4.16603C23.312 2.52025 24.886 1.45361 26.9016 1.07531C26.9788 1.06084 27.0467 0.997663 27.119 0.957124C27.8545 0.957124 28.5897 0.957031 29.3252 0.957031ZM34.1581 10.2642C34.228 8.80289 33.9578 7.36816 33.2359 6.02842C31.9838 3.70442 29.7289 2.53676 27.2162 3.0249C25.0838 3.4391 23.7105 4.82643 22.9691 6.78669C21.9425 9.50087 22.1963 12.2376 23.2086 14.8877C24.1121 17.2528 25.9752 18.4802 28.3011 18.4623C30.6426 18.4443 32.4079 17.1905 33.372 14.84C33.9669 13.3894 34.1599 11.8652 34.1581 10.2642ZM4.57877 14.6315C4.73197 13.5824 4.8748 12.6751 4.98503 11.7638C4.99923 11.6468 4.87592 11.4579 4.76289 11.3902C4.10404 10.9953 3.24856 11.1699 2.79288 11.7669C2.35346 12.3425 2.3756 13.2231 2.95393 13.6908C3.42165 14.069 4.00428 14.3071 4.57877 14.6315Z" fill="white"/>
<path d="M45.6281 61.8678C44.5477 59.6161 43.5293 57.4915 42.5088 55.3679C40.2602 50.6882 38.0036 46.0122 35.773 41.3239C35.5778 40.9135 35.4935 40.4288 35.4565 39.9708C35.3646 38.8375 35.3283 37.6997 35.2733 36.5635C35.2362 35.7975 35.561 35.3732 36.1923 35.3523C36.8134 35.3318 37.1869 35.7428 37.2337 36.4857C37.2635 36.9569 37.3708 37.4327 37.3312 37.897C37.1785 39.6881 37.8627 41.2234 38.6266 42.7879C41.6301 48.939 44.5742 55.1188 47.5237 61.2957C47.7283 61.7244 47.9624 61.8916 48.4486 61.8799C49.8702 61.8457 51.2932 61.8678 52.9265 61.8678C52.3976 61.3396 51.9968 60.9468 51.6047 60.5456C51.0626 59.9911 51.0199 59.4666 51.4712 59.0263C51.9207 58.5877 52.4423 58.6338 53.001 59.1828C53.9541 60.1193 54.9032 61.0601 55.8453 62.0074C56.4628 62.6285 56.4593 63.0831 55.8301 63.7167C54.9039 64.6495 53.9701 65.575 53.0319 66.4959C52.4748 67.0429 51.8712 67.0938 51.4459 66.6504C51.0156 66.2016 51.0698 65.6849 51.6239 65.1264C52.0116 64.7357 52.4151 64.3604 52.9174 63.8762H48.3863C48.3469 64.0494 48.313 64.2349 48.2625 64.4159C47.9164 65.6557 47.1189 66.467 45.873 66.8063C44.6056 67.1515 43.5095 66.8074 42.6576 65.829C42.2221 65.3289 41.8941 64.7376 41.4931 64.2057C41.3768 64.0513 41.1773 63.8568 41.0139 63.8549C38.9224 63.8313 36.8305 63.8394 34.6288 63.9934C35.0295 64.3637 35.4406 64.7236 35.8283 65.1068C36.4138 65.6853 36.4659 66.226 36.0043 66.6743C35.5765 67.0899 35.0027 67.0404 34.4662 66.5146C33.5119 65.5793 32.5629 64.6385 31.6234 63.6885C31.0068 63.065 31.0198 62.618 31.6545 61.9823C32.5832 61.0519 33.5162 60.1256 34.453 59.2033C35.0369 58.6285 35.5829 58.5811 36.0294 59.0506C36.4579 59.5012 36.3999 60.0055 35.8473 60.5733C35.4868 60.9438 35.1195 61.3078 34.7564 61.6759C34.743 61.6895 34.7418 61.7153 34.7126 61.8016H39.8694C36.3681 56.636 32.902 51.5226 29.4358 46.4091C29.3905 46.4105 29.3452 46.4118 29.2999 46.4132C29.289 46.6477 29.2685 46.8823 29.2684 47.1168C29.2667 53.2162 29.2681 59.3155 29.2637 65.4149C29.2635 65.7132 29.3179 66.0896 29.1635 66.2907C28.9439 66.5766 28.5589 66.9084 28.2361 66.9173C26.2048 66.973 24.171 66.9594 22.1383 66.9374C21.2623 66.9279 20.6269 66.4674 20.2317 65.7028C19.8328 64.9311 19.8848 64.1604 20.3686 63.4457C20.7297 62.9121 21.1691 62.4297 21.5172 61.8887C21.6571 61.6715 21.6977 61.3575 21.6911 61.0898C21.6827 60.7516 21.5503 60.4179 21.5248 60.0784C21.4877 59.5853 21.7534 59.2406 22.2182 59.1191C22.705 58.9918 23.1762 59.1363 23.3418 59.6326C23.571 60.3193 23.7394 61.0347 23.8393 61.7507C23.8739 61.9986 23.6662 62.3135 23.499 62.5487C23.0504 63.1795 22.5603 63.781 22.0939 64.3995C21.8319 64.7468 21.9444 65.0005 22.3613 65.0062C23.9767 65.0282 25.5927 65.0152 27.2721 65.0152C27.2721 64.6985 27.2721 64.4466 27.2721 64.1948C27.2721 58.2672 27.2747 52.3397 27.2696 46.4123C27.2689 45.4733 27.5825 44.724 28.488 44.3279C29.4086 43.9252 30.3275 44.2319 30.9555 45.1533C32.8207 47.8899 34.6759 50.6332 36.5338 53.3747C38.3313 56.0271 40.1371 58.6741 41.9138 61.3401C42.1891 61.7532 42.4863 61.9001 42.9711 61.8782C43.8082 61.8404 44.6481 61.8678 45.6281 61.8678ZM43.7309 63.8676C44.1698 64.7608 44.5818 65.0677 45.1978 64.9485C45.7791 64.8361 46.2243 64.5526 46.3418 63.8676H43.7309Z" fill="white"/>
<path d="M20.4966 22.8658C21.0566 23.8181 21.5727 24.6375 22.023 25.4912C22.1932 25.8139 22.3159 26.2255 22.2825 26.5801C21.9823 29.7624 21.6267 32.9394 21.3186 36.121C20.9927 39.4865 20.9755 42.8615 21.3497 46.2188C21.7153 49.4982 22.2281 52.7615 22.6777 56.0316C22.7639 56.6583 22.4579 57.1596 21.9163 57.2664C21.3374 57.3805 20.8559 57.0536 20.7436 56.3625C20.3513 53.951 19.9056 51.5432 19.6447 49.1165C19.365 46.5154 19.1468 43.8953 19.1317 41.2822C19.1173 38.7986 19.3998 36.3134 19.552 33.8289C19.561 33.6811 19.5723 33.5334 19.5958 33.1975C19.3934 33.5125 19.2782 33.6776 19.1772 33.8509C17.6837 36.4125 16.2006 38.9801 14.6969 41.5358C13.7675 43.1152 12.1764 43.779 10.5798 43.2923C8.39862 42.6275 7.4642 40.2217 8.63365 38.1854C10.4844 34.9628 12.3638 31.7563 14.2338 28.5447C15.3126 26.6921 16.3968 24.8427 17.5106 22.9373C16.9294 22.6573 16.3351 22.3681 15.7383 22.084C13.4613 21.0003 11.1825 19.9202 8.90651 18.8344C8.14164 18.4695 7.8882 17.7716 8.33295 17.2393C8.75864 16.7298 9.25859 16.8221 9.79338 17.0784C12.689 18.466 15.5964 19.8294 18.4828 21.2359C18.9384 21.4579 19.236 21.4176 19.6502 21.1556C20.3211 20.7315 21.0458 20.3856 21.7673 20.0479C22.3025 19.7974 22.8389 20.0052 23.0823 20.4914C23.328 20.9821 23.1615 21.5004 22.6147 21.796C21.9365 22.1626 21.2385 22.4932 20.4966 22.8658ZM19.007 24.3598C18.8071 24.6619 18.6077 24.933 18.4396 25.2219C15.7719 29.8036 13.1079 34.3876 10.4445 38.9718C10.3585 39.1198 10.2755 39.2714 10.2113 39.4294C9.79703 40.4498 10.529 41.4912 11.6293 41.4554C12.3129 41.4332 12.7228 41.0363 13.0436 40.4832C15.3261 36.5474 17.6158 32.6157 19.8989 28.6804C19.9935 28.5172 20.0601 28.3346 20.1176 28.1541C20.5888 26.674 19.9315 25.5116 19.007 24.3598Z" fill="white"/>
<path d="M59.5561 22.0305C59.5561 17.3706 59.5545 12.7106 59.5577 8.05072C59.5582 7.28939 59.8574 6.90709 60.4509 6.86952C60.9887 6.83548 61.4239 7.17658 61.496 7.70758C61.5218 7.89766 61.5074 8.09349 61.5074 8.28672C61.5078 17.4778 61.5078 26.6688 61.5073 35.8599C61.5073 36.053 61.5281 36.2513 61.4924 36.4383C61.3905 36.9706 61.0481 37.292 60.5063 37.2757C59.9736 37.2596 59.6232 36.9543 59.568 36.3965C59.5469 36.1836 59.5563 35.9675 59.5562 35.7527C59.5556 31.1786 59.5558 26.6046 59.5561 22.0305Z" fill="white"/>
<path d="M54.0524 15.5052C53.8246 15.5052 53.5969 15.5052 53.369 15.5052C50.7336 15.5052 48.0981 15.5075 45.4626 15.5015C45.2074 15.5009 44.9397 15.488 44.6998 15.4125C44.2321 15.2654 43.9907 14.8982 44.039 14.4269C44.0863 13.9661 44.3601 13.6317 44.8609 13.5672C45.0953 13.5369 45.3346 13.5369 45.5717 13.5367C48.164 13.5348 50.7562 13.5355 53.3486 13.5355H54.2359C53.7313 13.0249 53.3506 12.6411 52.9716 12.2557C52.4077 11.6824 52.3464 11.1209 52.7983 10.6846C53.2492 10.2492 53.7679 10.2937 54.3287 10.8432C55.282 11.7773 56.2302 12.7169 57.1695 13.6649C57.7903 14.2917 57.7847 14.742 57.1546 15.3764C56.2294 16.3081 55.2964 17.2324 54.3601 18.1531C53.7961 18.7076 53.2117 18.7615 52.7768 18.3177C52.3424 17.8743 52.4108 17.3203 52.9884 16.7442C53.3614 16.3721 53.7508 16.0163 54.1329 15.6532C54.106 15.6039 54.0793 15.5546 54.0524 15.5052Z" fill="white"/>
</g>
<defs>
<clipPath id="clip0_2862_4047">
<rect width="61" height="66" fill="white" transform="translate(0.513184 0.957031)"/>
</clipPath>
</defs>
</svg>
