<svg width="19" height="20" viewBox="0 0 19 20" fill="none" xmlns="http://www.w3.org/2000/svg">
<path d="M19 3.87702V16.1233C18.9883 16.1507 18.9699 16.1772 18.9657 16.2057C18.6883 18.1279 17.1089 19.4987 15.1647 19.4993C11.3875 19.5005 7.61035 19.5001 3.83317 19.4982C3.65468 19.4981 3.47505 19.4862 3.29791 19.4641C1.44107 19.2328 0.00366948 17.6132 0.00211283 15.7418C-0.00106492 11.9212 -0.000202315 8.10054 0.00172119 4.27993C0.00259866 2.54342 1.207 1.0191 2.89504 0.609446C3.05521 0.570577 3.21651 0.536369 3.37728 0.5C7.45922 0.5 11.5412 0.5 15.6231 0.5C15.6506 0.51167 15.6771 0.529335 15.7058 0.534148C17.3307 0.807212 18.3758 1.74317 18.8684 3.30608C18.9269 3.49177 18.9568 3.68648 19 3.87702ZM7.6153 6.85259V18.2251C7.6783 18.2286 7.73231 18.2342 7.78631 18.2342C10.229 18.2346 12.6717 18.2371 15.1144 18.2307C15.3591 18.23 15.6107 18.2026 15.8472 18.1415C17.0018 17.8433 17.7318 16.8613 17.733 15.6148C17.7356 12.7577 17.7339 9.90053 17.7335 7.0434C17.7335 6.98311 17.7284 6.92282 17.7253 6.85258L7.6153 6.85259ZM17.7257 5.55501C17.7257 5.06641 17.74 4.5974 17.7217 4.12966C17.7033 3.65741 17.5488 3.2211 17.2705 2.83657C16.7466 2.11261 16.025 1.76877 15.1399 1.767C13.1554 1.76304 11.1709 1.76575 9.18638 1.76575C7.40587 1.76575 5.62536 1.76276 3.84486 1.76678C2.56391 1.76967 1.53916 2.58196 1.32619 3.83582C1.23313 4.3837 1.28663 4.95648 1.27472 5.51797C1.27451 5.52746 1.28871 5.53725 1.30247 5.55501H17.7257ZM6.31674 18.2037V6.853H1.26526C1.26526 6.93641 1.26526 7.00905 1.26526 7.0817C1.26526 9.87053 1.26462 12.6594 1.26659 15.4482C1.26674 15.6517 1.27747 15.856 1.29746 16.0586C1.40297 17.1277 2.3702 18.1326 3.44112 18.1925C4.3895 18.2456 5.34319 18.2037 6.31674 18.2037Z" fill="#D9D9D9"/>
</svg>
