<svg width="22" height="27" viewBox="0 0 22 27" fill="none" xmlns="http://www.w3.org/2000/svg">
<path fill-rule="evenodd" clip-rule="evenodd" d="M5.95474 6.8519C5.97009 7.42206 6.18016 7.90134 6.53867 8.13904L0.129495 23.0877C-0.120474 23.6002 -0.0111387 24.1536 0.480037 24.6067C0.675911 24.7874 0.904322 24.9617 1.15044 25.0558C1.77615 25.2952 2.40875 25.5347 3.05923 25.6899C5.01161 26.1554 7.00687 26.3047 9.00774 26.3679C11.9374 26.4604 14.8558 26.3468 17.7367 25.7635C18.7555 25.5572 19.7656 25.3096 20.6104 24.6425C20.9128 24.4038 21.0509 24.11 21.1035 23.7506C21.1673 23.557 21.1682 23.3766 21.1258 23.2108H21.1549L14.649 8.03668C15.0701 7.74371 15.2305 7.26169 15.2049 6.72011C15.1978 6.57024 15.1983 6.42 15.1987 6.26977C15.1992 6.1096 15.1996 5.94945 15.191 5.78975C15.1483 5.00199 14.6488 4.51253 13.853 4.46928C13.7081 4.4614 13.563 4.45917 13.4136 4.45686H13.4135H13.4135C13.3436 4.45578 13.2727 4.45469 13.2004 4.45299L13.1977 4.34659V4.34657V4.34656C13.1958 4.27658 13.194 4.21192 13.1936 4.14727C13.192 3.9075 13.192 3.66768 13.1921 3.42787C13.1923 2.89646 13.1925 2.36506 13.1743 1.83426C13.1472 1.0434 12.6415 0.537475 11.8429 0.515589C10.991 0.492248 10.1373 0.495935 9.2854 0.521187C8.50732 0.544246 7.989 1.05724 7.96494 1.82254C7.94818 2.3558 7.95041 2.88963 7.95263 3.42348L7.95263 3.42366C7.95365 3.66979 7.95468 3.91592 7.95384 4.162C7.95362 4.2266 7.95073 4.29119 7.94767 4.35976V4.35977V4.35978C7.94619 4.39276 7.94468 4.42667 7.9434 4.46193C7.86622 4.46414 7.79091 4.46556 7.71691 4.46696L7.71688 4.46696L7.71684 4.46696H7.71683C7.55932 4.46992 7.40774 4.47278 7.25665 4.48289C6.51001 4.53285 6.00895 5.02232 5.96441 5.76214C5.94261 6.12436 5.94497 6.4889 5.95474 6.8519ZM13.5326 8.32242L7.70768 8.30189L2.03727 21.7478C2.57242 21.5494 3.24933 21.3727 4.07661 21.2885C9.20131 20.6857 14.2475 20.5342 19.2343 21.8426L13.5326 8.32242ZM13.8739 5.70118C13.9023 5.70743 13.9306 5.71364 13.9587 5.71851C13.9609 5.75158 13.9633 5.78055 13.9654 5.80683V5.80684C13.9695 5.85694 13.9727 5.89729 13.9732 5.93766L13.9733 5.9441L13.9733 5.94423C13.9761 6.19008 13.979 6.43595 13.9781 6.6818C13.9766 7.09626 13.9754 7.10008 13.566 7.10117C12.404 7.10425 11.242 7.10578 10.08 7.10732H10.08H10.08L8.98883 7.10881C8.83995 7.10903 8.69106 7.10843 8.54216 7.10784C8.19759 7.10647 7.85302 7.10509 7.50871 7.11375C7.27066 7.11973 7.16072 7.0466 7.17469 6.79724C7.18953 6.53221 7.18876 6.26509 7.17375 6.00004C7.16031 5.76274 7.24713 5.67664 7.49301 5.67753C8.54825 5.68135 9.60352 5.67845 10.6588 5.67556C11.0576 5.67447 11.4565 5.67337 11.8553 5.67264L12.0633 5.67224H12.0635C12.6044 5.67118 13.1454 5.67012 13.6863 5.6734C13.7491 5.67378 13.8119 5.68756 13.8739 5.70118ZM11.9693 4.46018L9.17749 4.4677C9.17754 4.23686 9.17779 4.00914 9.17804 3.78369C9.17872 3.17213 9.17939 2.57732 9.17589 1.98254C9.17478 1.79434 9.23897 1.71373 9.44097 1.71549C10.194 1.72207 10.9471 1.71815 11.7001 1.71257C11.8735 1.71129 11.9637 1.75788 11.9627 1.95189C11.9599 2.55219 11.9629 3.15253 11.9661 3.76884C11.9672 3.99683 11.9684 4.22701 11.9693 4.46018ZM1.87732 23.6526L1.85891 23.5446C2.05366 23.4905 2.24766 23.4329 2.44166 23.3753C2.86352 23.2499 3.28538 23.1246 3.71497 23.0357C6.32431 22.4957 8.9708 22.4125 11.6253 22.4619C13.7814 22.502 15.9249 22.663 18.0255 23.1796C18.3046 23.2483 18.5772 23.3428 18.8498 23.4373L18.8501 23.4373C18.9757 23.4809 19.1014 23.5244 19.2276 23.5655L19.2369 23.7187C18.9955 23.7799 18.7551 23.846 18.5146 23.9121L18.5146 23.9121L18.5145 23.9121C17.9916 24.0559 17.4687 24.1997 16.9367 24.2925C13.7139 24.8549 10.467 24.9102 7.21 24.6675C5.60491 24.5479 4.01013 24.3687 2.4683 23.8807C2.33093 23.8372 2.19724 23.7824 2.06356 23.7276L2.06349 23.7276C2.00155 23.7022 1.93962 23.6768 1.87732 23.6526Z" fill="#F5F5F5"/>
</svg>
