<svg width="27" height="17" viewBox="0 0 27 17" fill="none" xmlns="http://www.w3.org/2000/svg">
<g clip-path="url(#clip0_20_712)">
<path d="M0 15.4426C0.231453 14.9847 0.612072 14.8594 1.10455 14.8652C2.74748 14.8842 4.39075 14.8724 6.03391 14.8724C6.13861 14.8724 6.24331 14.8724 6.32034 14.8724C7.26306 10.7538 9.69449 8.45599 13.9898 8.52252C15.7068 8.54912 17.2008 9.29374 18.4454 10.4915C19.6819 11.6814 20.389 13.1489 20.6135 14.8724C20.7372 14.8724 20.8412 14.8724 20.9451 14.8724C22.6585 14.8724 24.372 14.8712 26.0854 14.8732C26.6118 14.8738 26.9771 15.1795 26.9989 15.6268C27.021 16.0789 26.7081 16.4415 26.25 16.4882C26.1455 16.4989 26.0393 16.4931 25.9339 16.4931C17.6479 16.4933 9.36182 16.4906 1.07579 16.5C0.588919 16.5005 0.223883 16.3667 4.91565e-05 15.9199L0 15.4426ZM18.9702 14.8572C18.7323 12.596 16.6225 10.0327 13.363 10.1013C11.8178 10.1338 10.4987 10.7407 9.43856 11.877C8.65842 12.7132 8.18288 13.7039 8.01159 14.8572H18.9702Z" fill="#F5F5F5"/>
<path d="M25.8578 7.67056C26.246 7.69804 26.5427 7.92269 26.6458 8.28937C26.7445 8.64062 26.6082 8.99197 26.2686 9.19282C25.4596 9.67112 24.6449 10.1395 23.8324 10.6116C23.5135 10.7969 23.1963 10.9855 22.8744 11.1655C22.4507 11.4024 21.9783 11.2856 21.7524 10.8951C21.5248 10.5018 21.6524 10.0267 22.0733 9.77943C23.1939 9.12109 24.3187 8.46978 25.4455 7.82215C25.5707 7.75017 25.7197 7.72009 25.8578 7.67056Z" fill="#F5F5F5"/>
<path d="M1.12901 7.66699C1.28193 7.72471 1.44597 7.76287 1.58602 7.84327C2.69049 8.47716 3.79108 9.11787 4.8913 9.75918C5.33488 10.0177 5.4809 10.4753 5.25697 10.8819C5.03589 11.2833 4.54956 11.4086 4.1174 11.1598C2.99096 10.5113 1.86675 9.85884 0.745391 9.20152C0.390727 8.99362 0.253236 8.64205 0.358701 8.27925C0.462053 7.92375 0.752051 7.70236 1.12901 7.66699Z" fill="#F5F5F5"/>
<path d="M20.6449 2.43971C21.267 2.43674 21.6405 3.08136 21.3297 3.64505C20.9811 4.27721 20.6134 4.89867 20.2541 5.52487C19.965 6.02885 19.679 6.53468 19.3862 7.03651C19.1281 7.47879 18.6697 7.6179 18.2648 7.38485C17.8675 7.15619 17.7525 6.67468 18.0041 6.23358C18.641 5.11692 19.2851 4.00439 19.9241 2.88896C20.0856 2.60707 20.3138 2.44181 20.6449 2.43971Z" fill="#F5F5F5"/>
<path d="M8.33377 7.48792C8.03831 7.48493 7.80452 7.35816 7.6571 7.1038C6.98604 5.94591 6.31587 4.78745 5.65771 3.62215C5.43732 3.23192 5.58174 2.76032 5.95381 2.54125C6.32504 2.32266 6.80412 2.43183 7.03306 2.82352C7.70825 3.97862 8.37769 5.1374 9.03009 6.30562C9.33609 6.85354 8.94697 7.48891 8.33377 7.48792Z" fill="#F5F5F5"/>
<path d="M12.7077 3.29971C12.7078 2.65552 12.7054 2.0113 12.7085 1.36712C12.7109 0.864703 13.0528 0.496174 13.5051 0.50003C13.9589 0.503911 14.2916 0.870289 14.2923 1.37676C14.2943 2.66516 14.2945 3.95355 14.2922 5.24194C14.2913 5.75052 13.9576 6.10723 13.4956 6.10447C13.0334 6.1017 12.7103 5.74679 12.7083 5.23231C12.7057 4.58811 12.7077 3.94391 12.7077 3.29971Z" fill="#F5F5F5"/>
</g>
<defs>
<clipPath id="clip0_20_712">
<rect width="27" height="16" fill="white" transform="translate(0 0.5)"/>
</clipPath>
</defs>
</svg>
