<svg width="21" height="15" viewBox="0 0 21 15" fill="none" xmlns="http://www.w3.org/2000/svg">
<path d="M7.41927 1.25603C7.74351 1.17497 8.05899 1.12989 8.40906 1.08028L8.40906 13.9722C7.65553 13.9022 6.93772 13.7097 6.21978 13.4451C4.36279 12.7606 2.72427 11.7856 1.50216 10.1843C0.806033 9.27214 0.487031 8.3482 0.500369 7.45522C0.513706 6.5624 0.860013 5.64984 1.58425 4.76152C3.1203 2.87745 5.12865 1.82868 7.41927 1.25603Z" stroke="#F5F5F5"/>
<path d="M10.5706 13.9074C10.547 13.9353 10.5238 13.9548 10.5 13.9686L10.5 1.04165C10.5211 1.05617 10.5427 1.07563 10.5647 1.10165C10.6739 1.23064 10.7758 1.50495 10.7726 1.92174C10.7449 5.62387 10.7439 9.32705 10.7725 13.0294C10.7762 13.5117 10.6722 13.7874 10.5706 13.9074Z" stroke="#F5F5F5"/>
<path d="M13.8222 13.7805C14.6119 13.7907 15.4018 13.7832 16.1916 13.7835C16.9972 13.7838 17.8029 13.7895 18.6084 13.7817C18.6661 13.7812 18.7207 13.7768 18.773 13.77L18.773 14.268C18.773 14.4479 18.9496 14.5591 19.0886 14.4668L20.8984 13.2653C21.0301 13.1779 21.0346 12.9678 20.9068 12.8736L19.097 11.5391C18.9583 11.4368 18.773 11.5472 18.773 11.732L18.773 12.233C18.7326 12.2278 18.6913 12.2241 18.6481 12.2238C17.0369 12.2109 15.4256 12.2107 13.8144 12.2246C13.314 12.2288 12.9827 12.5917 13.0007 13.0423C13.0184 13.4834 13.3273 13.7741 13.8222 13.7805Z" fill="#F5F5F5"/>
<path d="M13.8359 8.7777C15.4326 8.78244 17.0294 8.78203 18.6261 8.77802C18.6772 8.77789 18.7259 8.77389 18.7732 8.76783L18.7732 9.26802C18.7732 9.4479 18.9497 9.55912 19.0888 9.46683L20.8985 8.26533C21.0301 8.1779 21.0346 7.96781 20.9068 7.87356L19.0971 6.53905C18.9585 6.43683 18.7732 6.54721 18.7732 6.73201L18.7732 7.23194C18.7288 7.22639 18.6833 7.22252 18.6356 7.22214C17.8293 7.21588 17.023 7.22048 16.2168 7.22045C15.4263 7.22043 14.6359 7.21624 13.8454 7.22192C13.3301 7.22563 13.0036 7.53062 13 7.99345C12.9965 8.45519 13.3278 8.77619 13.8359 8.7777Z" fill="#F5F5F5"/>
<path d="M13.8597 3.7748C15.4389 3.7826 17.0183 3.78266 18.5976 3.77502C18.6591 3.77472 18.7173 3.77006 18.7729 3.76248L18.7729 4.26802C18.7729 4.4479 18.9495 4.55912 19.0886 4.46683L20.8984 3.26533C21.0301 3.1779 21.0346 2.96781 20.9068 2.87356L19.0969 1.53905C18.9583 1.43683 18.7729 1.54721 18.7729 1.73201L18.7729 2.23686C18.7212 2.22982 18.6674 2.22522 18.6105 2.22448C17.8368 2.21455 17.0628 2.22194 16.289 2.22187C15.4835 2.22182 14.678 2.21481 13.8727 2.22424C13.3208 2.23071 12.9877 2.54536 13.0003 3.01889C13.0124 3.47349 13.3338 3.77221 13.8597 3.7748Z" fill="#F5F5F5"/>
</svg>
