<svg width="77" height="50" viewBox="0 0 77 50" fill="none" xmlns="http://www.w3.org/2000/svg">
<g clip-path="url(#clip0_2860_381)">
<path d="M23.7584 0.205672C29.5704 0.522011 36.1342 -0.351132 41.8601 0.170007C43.6156 0.329837 45.1523 1.26999 46.0786 2.70304L52.1898 23.2951C52.3585 23.5131 55.7917 24.9179 56.1867 24.929C56.8951 24.9491 57.5809 23.998 58.3634 23.6452C60.4951 22.6843 63.1771 22.8426 64.3981 25.0195C65.8978 27.6937 66.6857 31.3752 68.1685 34.1354C70.4613 35.6336 73.8009 36.5257 76.0203 37.9906C77.2181 38.7812 77.0328 41.7744 76.9095 43.1254C76.8027 44.2955 76.3128 45.1392 74.9948 45.1472C70.2846 44.8641 65.1598 45.5027 60.5005 45.1468C57.717 44.9342 55.5459 43.1267 55.2647 40.3671C55.1363 39.1082 55.4853 37.3101 55.2591 36.1663C55.2151 35.9435 55.1399 35.7881 54.9208 35.6861L22.7532 21.975C21.3433 21.2548 20.1974 19.3895 20.1516 17.8566C20.1324 17.2132 20.6562 16.4268 19.9746 15.9396L7.56882 15.8559C6.22262 15.6339 5.86452 18.6418 6.30798 19.1915C6.95544 19.9941 12.0086 18.5747 12.7286 20.2304C14.1237 23.4388 7.60689 22.3124 6.06488 22.4831C5.826 22.5095 5.6294 22.5034 5.50301 22.7459L3.15308 36.6589C3.7105 38.5941 4.28217 38.3648 5.49606 37.1372C8.81177 33.784 11.9097 30.2169 15.3273 26.9551C17.9717 25.048 20.3434 25.0954 23.344 26.0922C32.0973 28.9999 40.7443 33.2367 49.4912 36.2713C56.132 39.9231 54.0365 49.3837 46.3548 49.9916L10.0633 49.9999C6.13965 49.7727 2.87773 46.6485 2.82257 42.7863C2.8139 42.183 3.16151 41.4387 2.96788 40.8789C2.8971 40.6743 1.72003 40.088 1.41504 39.8006C0.538847 38.975 0.14269 37.8009 0 36.6471C1.0745 30.748 1.77587 24.776 2.85607 18.8792C3.34751 16.1961 3.67882 13.3107 7.11648 12.8278C11.1494 12.2612 16.3881 13.3075 20.3974 12.793C20.9418 12.7231 21.074 12.6007 21.1466 12.0649C21.4992 9.45935 20.5156 4.15315 21.4391 1.9956C21.8408 1.05722 22.7624 0.438606 23.7584 0.205672ZM31.2525 14.0398C31.7392 13.5643 31.3705 4.88153 31.3767 3.56367C31.2227 3.29407 31.0013 3.26893 30.7177 3.23348C30.1031 3.15662 24.9217 3.18453 24.6335 3.3211C24.3888 3.43696 24.2939 3.70899 24.2937 3.96153L24.384 12.1394C24.5891 12.5487 26.4656 12.5701 27.1009 12.7344C28.1357 13.002 29.7234 14.0748 30.5823 14.2121C30.7858 14.2446 31.1099 14.1792 31.2525 14.0398ZM43.055 3.7811C42.6711 3.4189 42.0544 3.28189 41.5364 3.23481C40.774 3.16548 35.3062 3.15983 34.9544 3.32154C34.5649 3.50053 34.4825 4.06952 34.4475 4.44656C34.127 7.89306 34.6435 11.8857 34.5276 15.3849L34.7146 15.8503L47.1021 21.2875C48.0584 21.397 48.1931 20.8376 48.0693 20.026C46.3037 15.2126 45.4752 9.62993 43.6589 4.89282C43.5302 4.55699 43.312 4.02345 43.055 3.7811ZM24.7519 15.5707C22.9032 15.9803 22.7735 18.7924 24.4868 19.4811L54.6753 32.2001C54.8813 32.181 55.0897 32.0553 55.18 31.8749C55.3248 31.5852 55.3291 28.8608 55.2723 28.3877C55.2444 28.1543 55.2562 27.9628 54.9956 27.8479L25.8684 15.5506C25.5007 15.5214 25.1151 15.4903 24.7519 15.5707ZM58.9811 41.5272C59.3017 41.8247 59.895 42.0234 60.3396 42.0674C64.3381 41.776 68.9056 42.4533 72.834 42.0766C74.0548 41.9595 74.0148 40.8123 73.4018 40.0501C70.8949 38.7405 68.0072 37.8326 65.7507 36.1615L61.4107 26.3007C60.6692 25.7322 58.5027 26.7344 58.4351 27.7593C58.7811 31.7197 57.9409 36.5133 58.4209 40.3729C58.4668 40.7409 58.7161 41.2812 58.9811 41.5272ZM18.9311 28.5164C18.3266 28.6161 17.5328 29.0589 17.056 29.4443C14.1572 32.5943 10.96 35.5156 8.06926 38.6676C6.4901 40.3894 5.19541 41.7708 6.14933 44.2589C6.72602 45.7632 8.27247 46.7831 9.89562 46.9273L46.5247 46.9214C50.7582 46.3239 51.9927 41.0077 48.0505 38.9656L21.2747 28.5885C20.5907 28.4332 19.6186 28.403 18.9311 28.5164Z" fill="white"/>
<path d="M25.9436 35.652C25.9436 37.9085 24.0614 39.7376 21.7398 39.7376C19.4181 39.7376 17.5359 37.9084 17.5359 35.652C17.5359 33.3957 19.4181 31.5664 21.7398 31.5664C24.0614 31.5664 25.9436 33.3957 25.9436 35.652ZM22.8415 35.6578C22.8415 35.0604 22.3432 34.5763 21.7287 34.5763C21.1142 34.5763 20.6159 35.0605 20.6159 35.6578C20.6159 36.255 21.1142 36.7392 21.7287 36.7392C22.3432 36.7392 22.8415 36.255 22.8415 35.6578Z" fill="white"/>
<path d="M44.3176 42.0702C44.3176 44.3074 42.4516 46.1209 40.1497 46.1209C37.8477 46.1209 35.9817 44.3074 35.9817 42.0702C35.9817 39.833 37.8477 38.0195 40.1497 38.0195C42.4516 38.0195 44.3176 39.833 44.3176 42.0702ZM41.2593 42.0651C41.2593 41.4916 40.7808 41.0266 40.1907 41.0266C39.6006 41.0266 39.1221 41.4916 39.1221 42.0651C39.1221 42.6387 39.6006 43.1037 40.1907 43.1037C40.7808 43.1037 41.2593 42.6387 41.2593 42.0651Z" fill="white"/>
<path d="M17.2691 42.0465C17.2691 44.2834 15.4032 46.0968 13.1015 46.0968C10.7997 46.0968 8.93384 44.2834 8.93384 42.0465C8.93384 39.8095 10.7997 37.9961 13.1015 37.9961C15.4032 37.9961 17.2691 39.8095 17.2691 42.0465ZM13.9414 41.2948C12.9522 40.3312 11.0539 41.9706 12.3871 42.8857C13.5609 43.6913 14.7603 42.0925 13.9414 41.2948Z" fill="white"/>
<path d="M21.7285 36.7372C22.3431 36.7372 22.8413 36.253 22.8413 35.6557C22.8413 35.0584 22.3431 34.5742 21.7285 34.5742C21.1139 34.5742 20.6157 35.0584 20.6157 35.6557C20.6157 36.253 21.1139 36.7372 21.7285 36.7372Z" fill="#37393F"/>
<path d="M40.1906 43.1005C40.7808 43.1005 41.2592 42.6355 41.2592 42.062C41.2592 41.4884 40.7808 41.0234 40.1906 41.0234C39.6005 41.0234 39.1221 41.4884 39.1221 42.062C39.1221 42.6355 39.6005 43.1005 40.1906 43.1005Z" fill="#37393F"/>
<path d="M13.9414 41.2975C14.7602 42.0952 13.5609 43.694 12.3871 42.8884C11.0539 41.9734 12.9523 40.3339 13.9414 41.2975Z" fill="#37393F"/>
</g>
<defs>
<clipPath id="clip0_2860_381">
<rect width="77" height="50" fill="white"/>
</clipPath>
</defs>
</svg>
