<svg width="74" height="74" viewBox="0 0 74 74" fill="none" xmlns="http://www.w3.org/2000/svg">
<g clip-path="url(#clip0_2860_352)">
<path d="M16.7277 24.2715C17.8056 23.5396 18.4284 21.8595 20.0059 22.5028C21.1647 22.9754 21.076 24.2692 20.4065 25.1418C19.731 26.0221 17.0318 28.7255 16.1528 29.4041C15.3492 30.0245 14.7748 30.0783 13.9134 29.4741C13.2971 29.0418 9.96037 25.6899 9.51733 25.0655C8.48273 23.6072 9.60658 21.9411 11.2552 22.4584C11.6669 22.5875 13.3562 24.6421 13.5531 24.4154C13.8487 17.2376 20.3572 10.6806 27.4708 10.1147C28.9569 9.99643 30.9406 9.87218 30.7163 11.9213C30.5376 13.5548 28.8137 13.1499 27.759 13.2933C21.9513 14.0829 17.4476 18.399 16.7277 24.2715Z" fill="white"/>
<path d="M0 44.2072C0.288401 43.7796 0.608953 43.5636 1.02188 43.2807C2.08131 42.5545 5.62598 40.3849 6.69836 40.0098C8.40441 39.4129 9.81499 41.6382 8.06551 42.9699C7.79834 43.1732 4.7447 44.6951 4.90257 44.9274C6.17087 45.7246 10.1521 47.0286 8.57656 49.1167C7.22957 50.9018 4.62293 48.097 3.17229 47.6749V52.2261C3.17229 52.3571 2.73621 52.8292 2.58673 52.9398C1.57145 53.6913 0.65478 53.2137 0.000119967 52.2984L0 44.2072Z" fill="white"/>
<path d="M0 58.0796C0.596716 57.1482 1.62951 56.6778 2.60209 57.4227C3.73337 58.2892 2.87405 60.9635 3.24211 62.2718L8.39697 65.3017C9.59688 66.6936 8.43152 68.5403 6.62782 67.981C4.97287 66.7138 2.10854 65.7685 0.5816 64.5044C0.289001 64.2621 0.256729 63.9556 0 63.7143L0 58.0796Z" fill="white"/>
<path d="M31.7223 47.6746C30.3863 48.169 27.1751 51.1774 26.2082 48.7936C25.327 46.6215 28.7944 45.9248 29.991 44.8555C30.0477 44.5676 29.9291 44.6792 29.8081 44.609C29.0961 44.1955 26.5554 42.9528 26.2613 42.3824C25.4972 40.9 26.8571 39.4352 28.4058 40.0903C29.492 40.5498 33.2576 42.7091 34.1635 43.4223C34.5767 43.7476 34.8334 44.0214 34.8977 44.5649C35.1739 46.9 34.7107 49.7996 34.8643 52.1954C34.4728 53.295 33.0901 53.698 32.2236 52.8794C32.1237 52.785 31.7223 52.1364 31.7223 52.0813V47.6746Z" fill="white"/>
<path d="M19.0639 54.9286C18.7791 55.4194 19.2697 58.9771 18.9689 59.9638C18.6313 61.0713 16.8652 61.2801 16.1719 60.295C15.4491 59.268 16.0897 56.3142 15.8381 54.9946C14.6816 53.8906 9.92086 52.653 11.6994 50.3679C13.0401 48.6453 16.0692 51.6528 17.4959 52.1306L21.3355 49.9102C22.4493 49.5872 23.4771 50.0703 23.5851 51.2816C23.7361 52.9774 20.1848 54.0752 19.0639 54.9286Z" fill="white"/>
<path d="M19.0333 69.4915C19.1871 69.6667 21.0473 68.3448 21.333 68.2572C23.0644 67.727 24.3112 69.6276 23.1285 70.9219C22.7636 71.3211 19.2848 73.2886 18.6031 73.6117C17.9169 73.937 17.5644 74.1474 16.7658 73.858C16.1116 73.6209 14.3562 72.4941 13.6547 72.0634C12.5353 71.3763 10.831 70.7458 11.5003 69.0948C12.3267 67.0563 14.6801 68.9864 15.8609 69.4915V65.9516C15.8609 65.4055 16.9642 64.8492 17.52 64.8555C18.0884 64.8621 19.033 65.3497 19.033 65.9516L19.0333 69.4915Z" fill="white"/>
<path d="M32.9814 57.1021C33.7598 56.9422 34.6876 57.3984 34.8642 58.1834C35.042 58.9734 34.9868 62.4314 34.9014 63.3613C34.8398 64.0305 34.6276 64.3221 34.0773 64.7029C33.315 65.2304 29.0519 67.7309 28.3656 67.9375C26.8183 68.4035 25.596 67.2859 26.2082 65.7752C26.6222 64.7535 30.692 63.1698 31.6493 62.2699C32.0383 60.812 30.9297 57.5236 32.9814 57.1021Z" fill="white"/>
<path d="M17.3978 34.0005C17.6603 33.9913 18.0234 34.1085 18.2686 34.2124C18.9485 34.5 22.6273 36.6186 23.0781 37.0496C23.7642 37.7056 23.7583 38.5829 23.1479 39.3012C21.7087 40.995 19.049 38.0528 17.5214 37.5683C16.1762 37.9294 13.981 40.0629 12.6533 39.8428C11.4122 39.6371 10.9688 38.0582 11.7628 37.1401C12.1143 36.7336 15.2282 34.9965 15.9084 34.6478C16.3525 34.4201 16.9115 34.0177 17.3978 34.0005Z" fill="white"/>
<path d="M56.9558 0C61.6699 2.97472 66.6575 5.51349 71.4184 8.40878C72.3575 8.97991 73.8307 9.51042 73.8336 10.7566C73.4146 16.717 74.3657 23.3891 73.8331 29.2647C73.7536 30.1429 73.4527 30.2382 72.8044 30.6902C67.7886 33.2764 62.9315 36.8153 57.9179 39.3244C57.0829 39.7423 56.5525 40.1214 55.5539 39.765L39.7486 30.6067C39.2981 30.2771 38.8839 29.8748 38.925 29.2647C39.3498 23.2623 38.3835 16.5281 38.925 10.6127C38.9762 10.0537 39.1029 9.72106 39.6064 9.41718L55.8023 0H56.9558ZM43.6913 10.8344C48.0024 13.1078 52.095 15.8101 56.4272 18.0277L68.921 10.7641L56.4295 3.49778L43.6913 10.8344ZM54.7929 35.5429V21.0224C50.6653 18.3849 46.3271 16.0655 42.104 13.5815V28.3188L54.7929 35.5429ZM57.9652 35.5429C62.1803 33.0449 66.5172 30.7234 70.6541 28.102V13.5815L57.9652 20.8056V35.5429Z" fill="white"/>
<path d="M60.273 49.5574C59.9824 56.7297 53.4606 63.2898 46.3554 63.8582C44.8176 63.9812 42.7695 64.0698 43.1224 61.9176C43.3649 60.4392 45.0971 60.8115 46.0671 60.6795C51.8749 59.8898 56.3826 55.5702 57.0986 49.7011C56.0207 50.433 55.3979 52.1131 53.8204 51.4698C52.6616 50.9972 52.7503 49.7034 53.4198 48.8308C54.0175 48.0518 56.9892 45.0445 57.7497 44.5003C58.4913 43.9696 59.0472 43.92 59.8329 44.4341C60.4616 44.8455 63.7213 48.1537 64.2409 48.8308C65.4878 50.4554 63.9719 52.2371 62.3813 51.4165C62.0981 51.2704 60.4649 49.3368 60.273 49.5574Z" fill="white"/>
</g>
<defs>
<clipPath id="clip0_2860_352">
<rect width="74" height="74" fill="white"/>
</clipPath>
</defs>
</svg>
