<svg width="24" height="29" viewBox="0 0 24 29" fill="none" xmlns="http://www.w3.org/2000/svg">
<path d="M23.8407 16.9891V6.10323C23.8407 4.60909 23.2003 4.12528 21.9907 3.62723C20.3116 2.94419 14.8901 0.880856 13.211 0.397042C12.8267 0.297433 12.414 0.183594 12.0156 0.183594C11.6172 0.183594 11.2045 0.268973 10.8345 0.397042C9.14116 0.980464 3.71957 2.92996 2.04044 3.62723C0.845127 4.13951 0.190552 4.60909 0.190552 6.10323V16.9891C0.190552 22.1831 2.96539 24.1041 11.0622 28.6434C11.4322 28.8427 11.7879 28.9281 12.0156 28.9281C12.2433 28.9281 12.6133 28.8427 12.969 28.6434C21.0516 24.0899 23.8407 22.1831 23.8407 16.9891ZM11.7168 26.2955C11.546 26.2527 11.361 26.1532 11.1334 26.0109C4.57337 22.0123 2.45311 20.8596 2.45311 16.4626V6.54437C2.45311 6.06055 2.53848 5.86133 2.93693 5.71903C5.14255 4.96484 9.2977 3.45648 11.4464 2.60268C11.5602 2.55998 11.6456 2.53153 11.7168 2.5173V26.2955Z" fill="#EE2B2A"/>
</svg>
