<svg width="73" height="73" viewBox="0 0 73 73" fill="none" xmlns="http://www.w3.org/2000/svg">
<g clip-path="url(#clip0_2860_327)">
<path d="M0.939209 3.69926C1.41886 2.14366 2.61458 0.682902 4.30106 0.392518C7.27227 -0.11918 11.2684 0.647014 14.3499 0.326722C16.0201 0.571107 16.8574 2.56406 15.6827 3.87258C15.5758 3.99163 14.69 4.5415 14.6276 4.5415H5.151V14.018C5.151 14.0805 4.60113 14.9663 4.48207 15.0731C3.23224 16.1951 1.55444 15.4897 0.939209 14.088V3.69926Z" fill="white"/>
<path d="M0.939209 58.4543C1.55444 57.0526 3.23224 56.3474 4.48207 57.4692C4.60127 57.5761 5.151 58.4619 5.151 58.5243V68.0008H14.6274C14.69 68.0008 15.5758 68.5506 15.6826 68.6697C16.8045 69.9195 16.0993 71.5973 14.6975 72.2126H4.30861C2.58567 71.6822 1.46942 70.5655 0.939209 68.8432V58.4543Z" fill="white"/>
<path d="M59.0617 72.2096C57.66 71.5944 56.9548 69.9166 58.0766 68.6668C58.1836 68.5477 59.0694 67.9978 59.1317 67.9978H68.6082V58.5214C68.6082 58.4589 69.1581 57.573 69.2771 57.4662C70.5856 56.2916 72.5787 57.1288 72.823 58.7991C72.5028 61.8804 73.2689 65.8767 72.7572 68.8479C72.4668 70.5344 71.006 71.7301 69.4504 72.2098L59.0617 72.2096Z" fill="white"/>
<path d="M34.7738 35.8474V63.224L34.2521 63.1139C27.6717 59.3436 19.9468 56.566 13.4803 52.7186C11.6488 51.6289 10.4451 50.0221 10.2 47.856C10.5388 40.2843 9.76753 32.349 10.1983 24.8203C10.2193 24.4556 10.2916 24.1281 10.3464 23.7734L34.7738 35.8474Z" fill="white"/>
<path d="M38.9856 35.849L63.2214 23.7912C63.5417 23.7033 63.5475 24.6062 63.561 24.8218C64.0326 32.3203 63.1901 40.3076 63.5593 47.8578C63.3026 50.0128 62.106 51.6333 60.2791 52.7204C53.813 56.568 46.0873 59.3453 39.5073 63.1157L38.9856 63.2258V35.849Z" fill="white"/>
<path d="M60.8864 20.1284L36.9391 32.199L12.8728 20.1284L34.257 9.43148C35.9401 8.6754 37.8138 8.71428 39.5022 9.43148L60.8864 20.1284Z" fill="white"/>
<path d="M59.1319 4.54009C59.0073 4.51445 58.1928 4.00048 58.0768 3.87116C56.9728 2.64141 57.6371 0.79941 59.1638 0.360201C62.3355 0.534517 65.9817 0.0156987 69.0983 0.330009C74.9117 0.916332 72.2345 10.1662 72.7885 13.9848C72.3493 15.5113 70.5073 16.1757 69.2776 15.0718C69.1585 14.9649 68.6087 14.0791 68.6087 14.0167V4.54009H59.1319Z" fill="white"/>
</g>
<defs>
<clipPath id="clip0_2860_327">
<rect width="72" height="72" fill="white" transform="translate(0.939209 0.210938)"/>
</clipPath>
</defs>
</svg>
