<svg width="22" height="23" viewBox="0 0 22 23" fill="none" xmlns="http://www.w3.org/2000/svg">
<path d="M19.723 22.5H2.27739C2.24514 22.4865 2.21409 22.4667 2.1805 22.4603C1.37697 22.309 0.756265 21.883 0.357618 21.1746C0.193363 20.8826 0.116572 20.5414 0 20.2226C0 14.4074 0 8.59227 0 2.7771C0.0143694 2.73726 0.0344219 2.69848 0.0423227 2.65735C0.285124 1.39627 1.35987 0.501295 2.64244 0.501017C8.22073 0.499862 13.799 0.499354 19.3772 0.501342C20.8232 0.50185 21.9983 1.67822 21.9988 3.12421C22.0005 8.70961 22.0002 14.295 21.9989 19.8804C21.9986 21.0436 21.2076 22.0856 20.0929 22.4023C19.9702 22.4371 19.8463 22.4676 19.723 22.5ZM6.59255 7.08311V2.69035H6.38412C5.18209 2.69035 3.98005 2.68998 2.77796 2.69054C2.35436 2.69072 2.19108 2.85224 2.19089 3.27163C2.19029 4.4737 2.19048 5.67572 2.19122 6.87779C2.19122 6.94604 2.19889 7.0143 2.20305 7.08311H6.59255ZM19.8097 7.0992C19.8097 7.01181 19.8097 6.94789 19.8097 6.88393C19.8097 5.68154 19.8101 4.4791 19.8095 3.27671C19.8093 2.85395 19.6473 2.69081 19.2273 2.69058C18.0249 2.68998 16.8225 2.69017 15.6201 2.69091C15.5517 2.69091 15.4833 2.69867 15.4148 2.70283V7.0992H19.8097ZM2.19066 15.9012C2.19066 15.979 2.19066 16.0355 2.19066 16.0919C2.19066 17.3085 2.18992 18.5252 2.19108 19.7417C2.19145 20.1421 2.36328 20.3089 2.77205 20.3091C3.97432 20.3097 5.17663 20.3095 6.3789 20.3088C6.44747 20.3088 6.51604 20.3014 6.58627 20.2973V15.9012L2.19066 15.9012ZM19.8093 15.9203H15.4115V20.2856C15.4376 20.2959 15.4505 20.3054 15.4635 20.3054C16.7589 20.3069 18.0543 20.3111 19.3497 20.3056C19.6233 20.3045 19.8059 20.1143 19.807 19.8367C19.8122 18.5415 19.8093 17.2463 19.8093 15.9203ZM6.59565 9.33359H2.20226V13.6627H6.5956L6.59565 9.33359ZM8.83852 2.70288V7.08649H13.1724V2.70288H8.83852ZM15.414 13.6677H19.7971V9.34316H15.414V13.6677ZM13.1656 20.2994V15.9213H8.83016V20.2994H13.1656ZM8.82655 9.32837V13.6572H13.1617V9.32837H8.82655Z" fill="#D9D9D9"/>
</svg>
