<svg width="21" height="20" viewBox="0 0 21 20" fill="none" xmlns="http://www.w3.org/2000/svg">
<path d="M3.75116e-05 9.99252C3.75116e-05 7.13131 -8.79483e-05 4.27014 0.000120018 1.40893C0.000161611 0.758516 0.394423 0.430355 1.0516 0.512395C2.78408 0.728709 4.51764 0.93646 6.25049 1.14984C7.53959 1.30858 8.82794 1.47323 10.1172 1.63058C11.1223 1.75323 12.1286 1.86545 13.1337 1.98814C14.2484 2.12421 15.3621 2.2681 16.4764 2.40637C17.6174 2.54795 18.7587 2.68679 19.8998 2.82705C20.0498 2.84548 20.2012 2.85743 20.3492 2.88626C20.7524 2.96479 20.9993 3.28839 20.9994 3.73512C21.0001 6.753 20.9998 9.77083 20.9998 12.7887C20.9998 13.9348 21.0003 15.081 20.9996 16.2271C20.9993 16.7723 20.7557 17.0592 20.2115 17.1275C18.6045 17.329 16.9962 17.521 15.389 17.7218C14.2674 17.8619 13.1476 18.0154 12.0257 18.1539C10.8793 18.2953 9.73092 18.4224 8.58416 18.5618C6.8847 18.7683 5.186 18.9807 3.48688 19.1895C2.65368 19.292 1.82099 19.3984 0.986668 19.4912C0.368261 19.56 0.000286956 19.2203 0.000245363 18.6009C-4.5789e-05 15.7315 3.75116e-05 12.8619 3.75116e-05 9.99252ZM7.25201 9.19997V2.8812C5.37042 2.65099 3.50592 2.42289 1.62916 2.19328V9.19993L7.25201 9.19997ZM1.62566 17.8075C3.51936 17.5755 5.38922 17.3463 7.24939 17.1183V10.8034H1.62566V17.8075ZM8.89603 10.8002V16.9095C10.5108 16.7127 12.1113 16.5176 13.7166 16.322V10.8002H8.89603ZM8.89977 3.09536V9.19231H13.7109V3.68142C12.0974 3.48488 10.5047 3.29083 8.89977 3.09536ZM19.3681 9.19748V4.3658C18.0221 4.20123 16.6935 4.03878 15.3585 3.87555V9.19744L19.3681 9.19748ZM15.3659 10.8025V16.1247C16.7164 15.9587 18.0459 15.7953 19.3732 15.6321V10.8025H15.3659Z" fill="#D9D9D9"/>
</svg>
