<svg width="27" height="30" viewBox="0 0 27 30" fill="none" xmlns="http://www.w3.org/2000/svg">
<path d="M26.4167 7.03125C26.4167 10.8455 20.7084 13.9375 13.6667 13.9375C6.62512 13.9375 0.916748 10.8455 0.916748 7.03125C0.916748 3.21703 6.62512 0.125 13.6667 0.125C20.7084 0.125 26.4167 3.21703 26.4167 7.03125Z" fill="#EE2B2A"/>
<path d="M13.6667 16.0625C17.4708 16.0625 21.02 15.2319 23.6945 13.7832C24.6719 13.2537 25.6018 12.5978 26.3809 11.822C26.4047 11.9943 26.4167 12.1682 26.4167 12.3438C26.4167 16.158 20.7084 19.25 13.6667 19.25C6.62512 19.25 0.916748 16.158 0.916748 12.3438C0.916748 12.1682 0.928834 11.9943 0.952581 11.822C1.73165 12.5978 2.66155 13.2537 3.63903 13.7832C6.31352 15.2319 9.86273 16.0625 13.6667 16.0625Z" fill="#EE2B2A"/>
<path d="M13.6667 21.375C17.4708 21.375 21.02 20.5444 23.6945 19.0957C24.6719 18.5662 25.6018 17.9103 26.3809 17.1345C26.4047 17.3068 26.4167 17.4807 26.4167 17.6562C26.4167 21.4705 20.7084 24.5625 13.6667 24.5625C6.62512 24.5625 0.916748 21.4705 0.916748 17.6562C0.916748 17.4807 0.928834 17.3068 0.952581 17.1345C1.73165 17.9103 2.66155 18.5662 3.63903 19.0957C6.31352 20.5444 9.86273 21.375 13.6667 21.375Z" fill="#EE2B2A"/>
<path d="M13.6667 26.6875C17.4708 26.6875 21.02 25.8569 23.6945 24.4082C24.6719 23.8787 25.6018 23.2228 26.3809 22.447C26.4047 22.6193 26.4167 22.7932 26.4167 22.9687C26.4167 26.783 20.7084 29.875 13.6667 29.875C6.62512 29.875 0.916748 26.783 0.916748 22.9687C0.916748 22.7932 0.928834 22.6193 0.952581 22.447C1.73165 23.2228 2.66155 23.8787 3.63903 24.4082C6.31352 25.8569 9.86273 26.6875 13.6667 26.6875Z" fill="#EE2B2A"/>
</svg>
