<svg width="34" height="34" viewBox="0 0 34 34" fill="none" xmlns="http://www.w3.org/2000/svg">
<path d="M1.75015 32.22C4.09808 34.5679 7.58442 34.6533 9.88965 31.907C11.583 29.8721 15.8662 22.9705 19.5375 19.2992C21.9851 16.8516 24.6887 18.1466 27.4067 17.0367L24.9876 8.21409C24.6887 7.11839 25.1299 6.20768 26.3964 5.86616L31.7326 4.44318C31.5618 3.94513 31.0923 3.26209 30.5088 2.66443C27.2217 -0.708057 21.7859 -0.750747 18.5414 2.32291C13.8029 6.8338 17.403 11.6008 14.2867 14.7172C10.3592 18.6304 4.95188 21.4764 2.06321 24.0662C-0.640476 26.4711 -0.626245 29.8435 1.75015 32.22ZM5.77722 29.9432C4.80958 29.9432 4.0127 29.1605 4.0127 28.1929C4.0127 27.2253 4.80958 26.4283 5.77722 26.4283C6.74485 26.4283 7.52749 27.2253 7.52749 28.1929C7.52749 29.1605 6.74485 29.9432 5.77722 29.9432ZM19.1533 10.932C18.8403 11.0174 18.57 10.8609 18.4703 10.5193C18.3849 10.2632 18.5556 9.95015 18.8545 9.86477L22.1843 8.96829C22.4547 8.89713 22.7677 9.06789 22.8389 9.36672C22.9385 9.694 22.7535 9.97861 22.4547 10.064L19.1533 10.932ZM19.5802 12.6253C19.2672 12.7108 18.9968 12.5543 18.883 12.2127C18.7976 11.9566 18.9826 11.6435 19.2814 11.5724L22.597 10.6616C22.8673 10.6047 23.1803 10.7613 23.2657 11.0601C23.3654 11.3874 23.1661 11.672 22.8673 11.7573L19.5802 12.6253ZM19.9929 14.3188C19.694 14.4041 19.381 14.2476 19.3241 13.906C19.253 13.6215 19.4095 13.3511 19.7225 13.2657L23.0238 12.3834C23.3369 12.2839 23.6357 12.4688 23.6927 12.7534C23.7638 13.038 23.5931 13.3511 23.3227 13.4222L19.9929 14.3188ZM28.972 16.3537C29.5269 16.0263 30.0961 15.5995 30.6795 15.0444C32.4725 13.4222 33.3975 10.9747 33.0275 9.23865L28.7158 10.4197C28.232 10.5478 27.8193 10.5763 27.3783 10.5051L28.972 16.3537Z" fill="#EE2B2A"/>
</svg>
