<svg width="597" height="392" viewBox="0 0 597 392" fill="none" xmlns="http://www.w3.org/2000/svg">
<mask id="mask0_2847_1833" style="mask-type:alpha" maskUnits="userSpaceOnUse" x="0" y="0" width="597" height="392">
<rect x="597" y="392" width="596.122" height="392" transform="rotate(180 597 392)" fill="#D9D9D9"/>
</mask>
<g mask="url(#mask0_2847_1833)">
<path d="M732.49 -450.839C757.016 -450.839 781.824 -450.038 806.865 -448.436C947.735 -439.419 1038.16 -394.867 1083.3 -312.232C1122.41 -240.63 1121.75 -151.552 1121.17 -72.9595C1120.78 -20.4999 1120.41 29.0504 1132.28 65.0377C1171.82 184.838 1215.42 211.522 1241.46 227.465C1256.54 236.697 1266.51 242.795 1265.57 261.603C1264.66 280.034 1197.26 303.539 1053.47 335.573C991.278 349.43 942.989 337.425 904.186 327.78C884.748 322.948 867.933 318.769 853.183 318.814C812.571 318.921 801.476 323.357 777.167 333.075C756.896 341.179 726.262 353.427 660.641 369.899C602.975 384.376 512.926 387.401 425.629 377.792C375.959 372.326 328.801 363.14 285.467 350.489C236.958 336.329 194.375 318.097 158.901 296.301C93.1882 255.925 52.7667 204.125 38.7599 142.341C24.9609 81.4736 26.7373 19.2079 44.0387 -42.7262C61.2247 -104.246 92.8385 -162.303 138.001 -215.286C203.742 -292.409 295.736 -354.589 404.039 -395.101C461.775 -416.698 524.249 -432.237 589.725 -441.288C635.732 -447.648 683.528 -450.838 732.49 -450.839ZM996.978 339.334C1014.28 339.334 1032.88 337.583 1052.92 333.118C1118.32 318.549 1167 305.962 1201.75 294.638C1251.87 278.305 1262.76 267.59 1263.06 261.479C1263.92 244.162 1255.48 238.993 1240.15 229.611C1213.81 213.488 1169.72 186.503 1129.9 65.8263C1117.89 29.4456 1118.26 -20.3058 1118.65 -72.9782C1119.23 -151.264 1119.89 -239.996 1081.09 -311.026C1036.4 -392.842 946.644 -436.968 806.705 -445.925C731.843 -450.717 658.956 -448.318 590.07 -438.796C524.776 -429.771 462.483 -414.277 404.92 -392.745C297.017 -352.382 205.38 -290.453 139.916 -213.654C94.9914 -160.951 63.5488 -103.215 46.462 -42.0489C29.2735 19.4781 27.5078 81.3291 41.2134 141.785C55.0647 202.884 95.1037 254.149 160.219 294.158C195.501 315.836 237.878 333.976 286.172 348.074C329.366 360.684 376.379 369.841 425.904 375.292C512.921 384.87 602.633 381.868 660.029 367.459C725.485 351.028 756.025 338.818 776.233 330.739C800.849 320.898 812.083 316.407 853.176 316.299L853.388 316.299C868.426 316.299 885.285 320.489 904.793 325.338C930.799 331.803 961.097 339.334 996.978 339.334Z" fill="#D9232A"/>
<path d="M719.996 -405.02C739.828 -405.02 759.864 -404.447 780.074 -403.3C907.305 -396.343 990.051 -357.728 1033.04 -285.249C1070.38 -222.284 1072.42 -142.92 1074.23 -72.8989C1075.48 -24.1237 1076.67 21.9458 1089.64 55.5537C1129.51 163.158 1171.33 189.357 1196.32 205.01C1211.42 214.47 1221.4 220.72 1220.74 238.984C1220.54 249.301 1202.01 261.723 1165.66 275.885C1132.96 288.625 1087.11 302.252 1033.07 315.294C976.65 329.146 932.624 319.697 897.248 312.105C880.147 308.434 865.377 305.265 852.033 305.248C809.726 305.127 799.236 308.476 768.124 318.353C747.22 324.988 718.591 334.076 665.838 346.872C611.8 359.993 527.788 362.712 446.589 353.97C400.148 348.969 356.145 340.547 315.802 328.936C270.539 315.909 230.894 299.103 197.97 278.985C138.572 242.69 101.717 196.219 88.4292 140.864C75.1986 85.1583 76.2116 28.0866 91.4403 -28.7678C106.572 -85.2638 134.947 -138.631 175.777 -187.385C234.774 -257.833 317.639 -314.863 415.415 -352.306C467.547 -372.271 524.032 -386.772 583.3 -395.405C627.242 -401.805 673.026 -405.019 719.996 -405.02ZM975.082 320.004C992.672 320.004 1011.75 318.095 1032.51 312.998C1146.81 285.412 1218.03 257.027 1218.38 238.918C1218.99 221.998 1209.98 216.358 1195.06 207.013C1169.82 191.2 1127.57 164.734 1087.43 56.3893C1074.32 22.415 1073.13 -23.8534 1071.87 -72.8383C1070.07 -142.571 1068.03 -221.608 1031 -284.043C988.451 -355.792 906.328 -394.03 779.942 -400.94C712.024 -404.796 645.979 -402.146 583.641 -393.067C524.545 -384.458 468.23 -370.002 416.26 -350.099C318.858 -312.799 236.328 -256.009 177.588 -185.868C136.982 -137.379 108.766 -84.3179 93.7228 -28.156C78.5972 28.315 77.589 84.9974 90.7278 140.315C103.863 195.035 140.359 241.012 199.202 276.968C242.692 303.543 320.957 338.066 446.843 351.62C527.788 360.335 611.49 357.635 665.28 344.576C717.954 331.799 746.538 322.725 767.409 316.1C797.933 306.411 809.378 302.795 852.037 302.885C865.629 302.902 880.512 306.096 897.744 309.794C919.83 314.534 945.319 320.004 975.082 320.004Z" fill="#D9232A"/>
<path d="M706.837 -359.291C722.147 -359.292 737.617 -358.917 753.282 -358.165C866.968 -353.242 942.031 -320.487 982.754 -258.031C1018.24 -203.607 1022.9 -133.919 1027.01 -72.4342C1030.02 -27.5161 1032.85 14.9104 1046.99 46.0664C1087.04 141.458 1127.07 167.091 1150.99 182.406C1166.22 192.154 1176.27 198.593 1175.9 216.362C1176.17 240.623 1091.47 274.145 1012.68 295.011C961.75 308.987 921.814 302.042 889.723 296.462C875.17 293.932 862.601 291.746 850.883 291.679L850.88 291.679C802.818 291.285 794.007 293.513 745.085 305.828C726.664 310.465 703.738 316.237 671.035 323.843C637.599 331.636 591.374 335.463 540.877 334.614C484.052 333.661 426.82 326.852 375.369 314.925C314.478 300.809 263.685 280.192 224.402 253.648C178.642 222.725 149.605 184.282 138.099 139.386C125.429 88.8357 125.674 36.9514 138.825 -14.8317C151.9 -66.3134 177.036 -114.998 213.534 -159.532C265.797 -223.3 339.54 -275.171 426.793 -309.539C510.742 -342.606 604.773 -359.29 706.837 -359.291ZM952.238 300.99C970.323 300.99 990.193 298.889 1012.1 292.876C1105.95 268.026 1173.9 235.844 1173.69 216.351C1174.04 199.787 1164.91 193.946 1149.8 184.269C1125.66 168.814 1085.26 142.948 1044.97 46.9513C1030.68 15.4582 1027.82 -27.1631 1024.81 -72.2867C1020.71 -133.501 1016.07 -202.883 980.903 -256.823C940.597 -318.639 866.108 -351.066 753.182 -355.957C633.383 -361.703 523.851 -345.393 427.603 -307.482C340.7 -273.253 267.268 -221.607 215.244 -158.131C178.952 -113.849 153.962 -65.4535 140.967 -14.287C127.907 37.1369 127.663 88.6572 140.242 138.843C151.608 183.194 180.341 221.206 225.641 251.816C264.698 278.208 315.242 298.716 375.868 312.771C427.17 324.664 484.242 331.453 540.914 332.404C591.236 333.243 637.268 329.443 670.534 321.689C703.217 314.088 726.133 308.319 744.545 303.684C793.7 291.311 802.552 289.087 850.898 289.467C862.8 289.537 875.452 291.737 890.101 294.284C908.136 297.42 928.671 300.99 952.238 300.99Z" fill="#D9232A"/>
<path d="M694.519 -313.622C705.079 -313.622 715.733 -313.423 726.488 -313.025C826.748 -310.102 894.126 -283.112 932.464 -230.511C965.994 -184.506 972.846 -127.027 979.472 -71.44C984.341 -30.6002 988.94 7.97493 1004.34 36.5869C1044.35 119.734 1081.09 143.728 1105.41 159.605C1121.45 170.082 1131.13 176.405 1131.07 193.748C1131.96 215.892 1071 251.484 992.284 274.732C946.344 289.091 910.158 284.565 881.08 280.929C869.957 279.537 859.451 278.224 849.732 278.116L849.728 278.116L844.808 278.043C788.216 277.2 783.596 277.134 676.231 300.82C646.067 307.5 602.832 310.963 557.632 310.343C505.639 309.62 453.353 303.76 406.427 293.396C350.67 281.082 304.082 262.948 267.959 239.5C225.82 212.147 198.841 177.969 187.769 137.915C175.646 92.5155 175.114 45.8098 186.184 -0.912851C197.195 -47.393 219.09 -91.4062 251.262 -131.73C296.803 -188.81 361.435 -235.516 438.172 -266.796C514.492 -297.908 600.597 -313.621 694.519 -313.622ZM927.711 282.529C946.652 282.529 967.853 280.211 991.685 272.763C1068.26 250.148 1129.85 214.721 1129.01 193.785C1129.07 177.517 1119.74 171.424 1104.28 161.328C1081.26 146.299 1042.74 121.143 1002.51 37.5209C986.942 8.60627 982.321 -30.1572 977.428 -71.1967C970.834 -126.521 964.014 -183.729 930.8 -229.298C892.862 -281.35 826.009 -308.064 726.42 -310.968C620.296 -314.89 523.578 -299.389 438.948 -264.891C362.537 -233.742 298.193 -187.252 252.871 -130.446C220.891 -90.3612 199.128 -46.6207 188.186 -0.438242C177.197 45.9494 177.724 92.3169 189.755 137.375C200.686 176.921 227.376 210.703 269.079 237.774C304.995 261.087 351.355 279.125 406.871 291.386C453.663 301.721 505.804 307.564 557.66 308.285C602.709 308.913 645.769 305.457 675.786 298.81C783.387 275.072 788.031 275.139 844.838 275.985L849.755 276.058C859.59 276.167 870.152 277.488 881.336 278.886C895.099 280.607 910.467 282.529 927.711 282.529Z" fill="#D9232A"/>
<path d="M682.269 -268.093C688.046 -268.093 693.85 -268.026 699.696 -267.892C894.642 -265.741 914.254 -161.626 931.559 -69.7669C938.43 -33.2936 944.92 1.15617 961.684 27.1005C1001.34 97.9556 1036.29 121.147 1059.42 136.493C1075.98 147.478 1085.98 154.11 1086.23 171.126C1086.98 181.885 1075.62 196.944 1055.08 212.39C1033.26 228.791 1003.72 243.726 971.895 254.445C929.79 269.809 897.972 267.607 869.899 265.666C862.45 265.151 855.415 264.664 848.581 264.545L848.576 264.545C838.287 264.318 829.323 263.925 821.415 263.579C784.887 261.979 762.841 261.015 681.426 277.789C629.506 288.55 531.022 291.284 437.486 271.86C386.858 261.347 344.476 245.697 311.518 225.345C273 201.561 248.077 171.649 237.44 136.438C225.851 96.1794 224.529 54.6406 233.507 12.9639C242.445 -28.5315 261.099 -67.8899 288.947 -104.018C327.785 -154.403 383.32 -195.929 449.55 -224.108C518.204 -253.318 596.422 -268.092 682.269 -268.093ZM900.5 265.127C920.943 265.127 943.926 262.622 971.264 252.647C1039.63 229.618 1085.72 191.246 1084.33 171.206C1084.09 155.142 1074.41 148.72 1058.37 138.081C1035.09 122.633 999.9 99.2887 960.052 28.0832C943.115 1.87636 936.593 -32.7523 929.686 -69.4139C920.922 -115.938 911.86 -164.045 880.722 -201.406C845.301 -243.909 786.076 -265.033 699.663 -265.986C607.218 -268.104 523.319 -253.423 450.296 -222.354C384.367 -194.302 329.095 -152.981 290.457 -102.855C262.783 -66.9531 244.249 -27.851 235.37 13.3651C226.458 54.7315 227.77 95.9579 239.268 135.899C252.919 181.086 298.46 241.043 437.873 269.994C531.145 289.363 629.307 286.645 681.041 275.922C762.688 259.1 784.825 260.069 821.498 261.675C829.396 262.021 838.347 262.413 848.614 262.64C855.498 262.759 862.557 263.248 870.03 263.765C879.655 264.43 889.726 265.127 900.5 265.127Z" fill="#D9232A"/>
<path d="M679.17 -222.799C749.805 -222.799 799.838 -206.896 831.98 -174.258C861.216 -144.571 872.416 -105.216 883.248 -67.156C892.273 -35.4407 900.798 -5.48436 919.021 17.6196C957.83 76.1003 990.899 98.2493 1012.78 112.906C1030.24 124.6 1040.78 131.659 1041.39 148.507C1043.62 171.21 1005.66 212.695 951.513 234.154C909.732 252.597 879.734 251.817 850.721 251.061L847.425 250.976C833.442 250.541 821.733 249.407 810.408 248.31C780.051 245.369 751.377 242.593 686.62 254.759C639.445 263.7 551.08 266.127 468.545 250.325C398.982 237.008 311.038 206.183 287.113 134.965C264.962 64.7426 279.342 -12.301 326.561 -76.4262C358.722 -120.101 405.183 -156.43 460.922 -181.486C521.861 -208.88 592.237 -222.763 670.129 -222.764C671.053 -222.764 671.973 -222.762 672.899 -222.758C675.007 -222.785 677.097 -222.799 679.17 -222.799ZM868.22 249.608C891.942 249.608 917.654 247.184 950.837 232.537C1008.72 209.596 1041.56 168.205 1039.65 148.624C1039.06 132.617 1028.8 125.746 1011.81 114.362C989.807 99.6284 956.563 77.3618 917.602 18.6473C899.207 -4.67076 890.635 -34.7888 881.561 -66.6752C870.79 -104.524 859.652 -143.66 830.73 -173.028C797.998 -206.265 746.39 -221.942 672.907 -221.005C671.989 -221.008 671.059 -221.011 670.144 -221.011C592.48 -221.011 522.356 -207.181 461.641 -179.887C406.177 -154.955 359.955 -118.819 327.973 -75.3861C304.6 -43.6446 289.299 -9.15762 282.497 27.1168C275.677 63.4839 277.792 99.5867 288.78 134.422C312.431 204.822 399.771 235.373 468.874 248.603C551.187 264.362 639.278 261.948 686.295 253.036C751.298 240.823 780.094 243.613 810.576 246.565C821.873 247.659 833.555 248.79 847.479 249.224L850.767 249.308C856.516 249.458 862.308 249.608 868.22 249.608Z" fill="#D9232A"/>
<path d="M664.926 -178.079C716.59 -178.08 755 -167.287 781.984 -145.265C808.847 -123.342 821.948 -92.7796 834.618 -63.2236C845.443 -37.9729 856.635 -11.8615 876.351 8.13871C913.482 54.0968 944.456 74.7992 964.951 88.4986C984.018 101.243 995.527 108.936 996.558 125.881C999.268 147.351 975.137 192.338 931.142 213.848C900.141 231.329 874.751 238.375 846.279 237.401L846.273 237.4C831.157 236.768 818.074 234.687 804.224 232.485C774.952 227.832 744.683 223.019 691.813 231.723C649.134 238.842 570.781 240.959 499.605 228.784C437.926 218.233 359.611 193.136 336.788 133.488C315.523 73.3457 325.463 6.82933 364.051 -49.0243C389.578 -85.9717 427.002 -117.078 472.277 -138.979C522.357 -163.205 580.84 -176.208 646.101 -177.629C652.559 -177.929 658.839 -178.079 664.926 -178.079ZM851.392 235.888C877.54 235.888 901.483 228.734 930.397 212.432C973.806 191.207 997.622 147.088 994.964 126.03C993.978 109.825 983.351 102.723 964.062 89.8298C943.485 76.0763 912.39 55.2924 875.159 9.2037C855.283 -10.9533 844.029 -37.2056 833.146 -62.5931C820.553 -91.9713 807.53 -122.35 780.972 -144.025C751.129 -168.38 707.034 -178.843 646.155 -176.03C581.106 -174.612 522.846 -161.663 472.974 -137.538C427.947 -115.757 390.738 -84.8351 365.369 -48.1145C327.075 7.31201 317.205 73.3018 338.29 132.935C360.837 191.859 438.606 216.725 499.875 227.206C570.867 239.349 649 237.241 691.551 230.144C744.679 221.396 775.077 226.229 804.475 230.904C818.278 233.099 831.316 235.172 846.34 235.801C848.035 235.859 849.718 235.888 851.392 235.888Z" fill="#D9232A"/>
<path d="M651.418 -134.12C734.652 -134.122 759.763 -96.6775 786.187 -57.279C799.22 -37.8491 812.695 -17.7569 833.676 -1.31652C867.535 31.827 894.747 49.5768 914.616 62.5371C937.535 77.4866 950.16 85.7222 951.72 103.272C953.527 115.007 950.746 132.444 944.454 148.732C936.85 168.418 924.893 184.332 910.785 193.541C888.257 211.368 869.085 224.942 845.127 223.84L845.12 223.839C830.011 223.008 815.362 219.736 799.854 216.271C771.863 210.017 740.136 202.931 697.003 208.702C667.138 212.781 598.49 217.066 530.666 207.257C495.38 202.153 465.617 193.954 442.203 182.887C414.545 169.813 395.793 152.702 386.467 132.031C365.926 81.9011 371.335 25.801 401.297 -21.9071C420.261 -52.1025 448.713 -77.9445 483.577 -96.6398C522.131 -117.314 567.794 -129.375 619.296 -132.486C630.883 -133.595 641.56 -134.12 651.418 -134.12ZM847.835 222.454C870.084 222.454 888.442 209.374 909.94 192.367C942.193 171.308 953.337 123.292 950.283 103.447C948.78 86.5509 936.364 78.4521 913.825 63.75C893.905 50.7569 866.625 32.9621 832.723 -0.228963C811.621 -16.7594 798.08 -36.9484 784.984 -56.4723C770.054 -78.7324 755.953 -99.7583 731.861 -114.18C704.713 -130.431 668.981 -135.788 619.408 -131.042C568.092 -127.942 522.63 -115.938 484.262 -95.3631C449.619 -76.7866 421.354 -51.1198 402.523 -21.1365C372.813 26.1707 367.445 81.7897 387.797 131.458C396.967 151.785 415.484 168.655 442.823 181.577C466.105 192.583 495.73 200.74 530.873 205.823C598.538 215.609 667.015 211.335 696.809 207.267C740.197 201.46 772.06 208.577 800.17 214.858C815.617 218.309 830.209 221.568 845.199 222.393C846.084 222.434 846.963 222.454 847.835 222.454Z" fill="#D9232A"/>
<path d="M639.287 -91.9488C689.561 -91.9513 712.792 -71.9908 740.647 -48.0642C755.189 -35.5748 770.224 -22.6595 791 -10.7654C817.921 8.87768 839.895 22.1864 857.553 32.8803C887.847 51.2284 904.535 61.3352 906.882 80.6548C910.789 102.204 910.007 153.144 890.485 173.151C889.334 174.716 888.189 176.295 887.044 177.874C875.084 194.368 862.708 211.42 843.975 210.269L843.969 210.268C829.392 209.228 813.157 204.556 795.97 199.609C768.159 191.605 736.64 182.532 702.191 185.67C664.907 189.19 476.853 203.076 436.153 130.572C416.012 90.3526 416.693 44.4752 438.005 4.67662C450.721 -19.0694 469.802 -39.0298 494.717 -54.6516C521.869 -71.6755 554.762 -82.6769 592.482 -87.3481C610.424 -90.5173 625.828 -91.9488 639.287 -91.9488ZM845.746 209.027C862.854 209.027 874.611 192.812 885.995 177.113C887.15 175.52 888.306 173.925 889.468 172.347L889.526 172.277C908.754 152.627 909.476 102.224 905.601 80.8485C903.325 62.1172 886.828 52.1263 856.881 33.9892C839.203 23.2821 817.202 9.95744 790.297 -9.68C769.473 -21.5965 754.39 -34.552 739.803 -47.0816C704.75 -77.1902 677.061 -100.972 592.675 -86.0673C555.111 -81.4142 522.396 -70.4766 495.405 -53.5535C470.684 -38.0529 451.756 -18.2561 439.148 5.28836C418.036 44.711 417.362 90.1536 437.298 129.964C453.515 158.852 495.431 177.186 561.871 184.432C620.352 190.81 679.399 186.52 702.072 184.38C736.761 181.223 768.408 190.329 796.328 198.363C813.449 203.291 829.62 207.945 844.061 208.975C844.628 209.01 845.19 209.027 845.746 209.027Z" fill="#D9232A"/>
<path d="M631.785 -54.8421C661.509 -54.8421 685.364 -45.2525 718.34 -31.9957C727.712 -28.2278 737.402 -24.3322 748.329 -20.1941C756.166 -16.3583 763.51 -12.7935 770.425 -9.43801C830.595 19.7637 858.057 33.0917 862.043 58.0406C865.895 76.5394 877.624 132.883 870.141 152.683C866.154 173.909 859.419 198.064 842.823 196.699L842.817 196.698C828.983 195.42 810.812 189.031 791.573 182.265C764.441 172.725 733.693 161.916 707.372 162.639C702.365 162.796 696.372 163.075 689.433 163.398C661.005 164.72 618.046 166.717 578.425 163.118C531.021 158.811 499.876 147.374 485.856 129.126C465.668 99.1548 460.972 62.2221 473.27 30.3021C486.909 -5.09153 519.715 -30.8401 565.647 -42.202C592.405 -51.1078 613.238 -54.842 631.785 -54.8421ZM844.141 195.61C858.982 195.61 865.232 172.64 869.026 152.422L869.054 152.324C876.455 132.879 864.762 76.7064 860.919 58.2474C857.022 33.8603 829.728 20.6137 769.926 -8.409C763.01 -11.7658 755.664 -15.3306 747.876 -19.1459C736.986 -23.2668 727.29 -27.1648 717.913 -30.9343C664.612 -52.3616 635.252 -64.1639 565.964 -41.1046C520.362 -29.823 487.837 -4.32174 474.337 30.7131C462.172 62.2851 466.825 98.8252 486.784 128.458C500.581 146.415 531.455 157.702 578.528 161.979C618.072 165.57 660.983 163.576 689.38 162.255C696.323 161.933 702.32 161.654 707.339 161.496C733.881 160.767 764.727 171.613 791.953 181.187C811.119 187.927 829.225 194.293 842.918 195.559C843.331 195.593 843.74 195.61 844.141 195.61Z" fill="#D9232A"/>
<path d="M656.539 -39.1021C658.705 -39.1021 660.87 -39.0636 663.038 -38.9874C698.316 -37.7426 725.778 -31.5753 744.66 -20.6566C759.484 -12.0841 768.806 -0.819741 772.365 12.8231C778.193 35.1618 812.12 94.3819 829.087 111.832C835.41 118.334 840.87 129.098 844.066 141.364C846.957 152.463 847.328 162.52 845.011 166.987C843.98 168.975 842.42 169.862 840.513 169.559C827.157 167.434 798.202 153.411 770.199 139.85C748.486 129.335 727.977 119.403 717.693 116.558C706.03 113.33 681.685 117.035 655.912 120.957C629.362 124.998 601.906 129.177 585.42 126.238C568.172 123.164 548.515 112.906 534.119 99.4662C517.294 83.7589 509.373 65.6275 511.813 48.4128C514.669 28.2681 532.338 6.00641 559.076 -11.1373C587.36 -29.2733 621.74 -39.1012 656.539 -39.1021ZM841.241 168.78C842.515 168.78 843.508 168.063 844.266 166.601C848.757 157.945 842.396 126.72 828.486 112.416C811.457 94.9027 777.404 35.4599 771.554 13.0348C768.053 -0.383263 758.863 -11.474 744.239 -19.9302C725.478 -30.7793 698.148 -36.9089 663.009 -38.1488C626.19 -39.4501 589.431 -29.605 559.528 -10.4319C533.389 6.32823 515.424 28.9216 512.643 48.5307C510.242 65.4665 518.072 83.3379 534.691 98.8533C548.975 112.189 568.469 122.366 585.567 125.413C601.918 128.326 629.302 124.159 655.786 120.128C681.65 116.192 706.078 112.473 717.918 115.749C728.274 118.615 748.816 128.563 770.565 139.096C798.512 152.63 827.411 166.625 840.644 168.731C840.85 168.764 841.049 168.78 841.241 168.78Z" fill="#D9232A"/>
</g>
</svg>
