<svg width="544" height="1268" viewBox="0 0 544 1268" fill="none" xmlns="http://www.w3.org/2000/svg">
<path d="M-529.868 906.661C-543.516 898.781 -556.471 890.803 -568.657 882.762C-635.579 838.605 -677.55 794.23 -693.404 750.869C-709.624 706.507 -697.817 664.212 -658.31 625.162C-538.365 506.604 -450.07 441.187 -391.644 397.9C-365.347 378.417 -344.576 363.028 -330.407 349.681C-306.832 327.475 -251.566 311.827 -186.177 308.844C-115.807 305.635 -49.2871 317.496 -3.67282 341.387C59.2417 374.34 138.204 391.761 193.366 400.574C257.622 410.839 327.754 415.339 380.967 412.612C415.319 410.851 441.237 425.079 455.918 453.759C481.338 503.42 469.859 589.877 425.961 679.392C405.155 721.822 383.64 765.695 360.759 806.816C335.462 852.278 311.159 889.369 286.461 920.208C256.968 957.034 226.16 986.157 192.276 1009.24C154.442 1035.02 113.634 1052.76 67.5202 1063.48C-11.241 1081.8 -182.16 1051.71 -348.123 990.296C-416.013 965.174 -477.959 936.631 -529.868 906.661ZM426.051 424.319C413.43 417.033 398.21 413.732 380.771 414.625C327.45 417.358 257.192 412.851 192.832 402.569C137.558 393.739 58.4254 376.276 -4.66723 343.23C-50.0518 319.46 -116.284 307.661 -186.382 310.858C-251.337 313.821 -306.111 329.248 -329.329 351.119C-343.6 364.561 -364.419 379.986 -390.777 399.514C-449.151 442.762 -537.365 508.119 -657.191 626.56C-695.976 664.897 -707.578 706.39 -691.674 749.887C-675.943 792.912 -634.177 837.022 -567.535 880.994C-509.094 919.555 -432.938 956.687 -347.302 988.375C-181.599 1049.69 -11.0639 1079.77 67.4077 1061.52C113.28 1050.85 153.865 1033.2 191.481 1007.58C225.172 984.623 255.812 955.656 285.154 919.019C340.201 850.286 382.986 763.039 424.362 678.664C467.952 589.777 479.413 504.05 454.273 454.937C447.332 441.378 437.822 431.115 426.051 424.319Z" fill="#D9232A"/>
<path d="M-503.783 881.001C-514.576 874.769 -524.881 868.471 -534.657 862.125C-596.315 822.1 -635.061 781.82 -649.818 742.404C-664.738 702.554 -654.489 664.515 -619.356 629.344C-513.844 522.37 -431.34 458.592 -376.745 416.389C-351.116 396.577 -330.873 380.929 -316.609 367.365C-293.544 345.454 -241.565 329.666 -180.956 326.161C-116.057 322.409 -53.8727 332.933 -10.3466 355.034C47.8787 385.099 120.347 401.583 170.888 410.118C230.262 420.145 292.681 424.986 342.14 423.402C373.348 422.408 396.87 435.932 410.163 462.511C433.238 508.65 422.653 588.188 382.537 670.086L382.538 670.084C344.752 747.383 305.681 827.313 254.047 891.644C226.85 925.529 198.44 952.37 167.193 973.705C132.336 997.503 94.7701 1013.96 52.3518 1024.01C-20.4559 1041.52 -178.282 1014.98 -331.45 959.46C-396.078 936.035 -454.915 909.214 -503.783 881.001ZM381.978 434.387C370.735 427.896 357.281 424.805 341.925 425.294C292.37 426.882 229.842 422.033 170.374 411.991C119.733 403.439 47.1116 386.917 -11.2693 356.771C-54.5738 334.783 -116.487 324.314 -181.129 328.052C-241.333 331.533 -292.855 347.112 -315.59 368.708C-329.935 382.35 -350.217 398.028 -375.895 417.878C-430.444 460.046 -512.878 523.77 -618.29 630.643C-652.753 665.143 -662.814 702.429 -648.197 741.469C-633.558 780.571 -595.005 820.604 -533.611 860.458C-479.663 895.482 -409.491 929.09 -330.688 957.653C-177.765 1013.08 -20.3016 1039.61 52.2358 1022.16C94.4326 1012.16 131.79 995.801 166.444 972.141C197.511 950.931 225.765 924.234 252.82 890.525C304.291 826.397 343.305 746.586 381.034 669.403C420.863 588.089 431.431 509.231 408.611 463.604C402.123 450.632 393.141 440.832 381.978 434.387Z" fill="#D9232A"/>
<path d="M-477.645 855.447C-485.639 850.831 -493.321 846.179 -500.688 841.492C-557.083 805.599 -592.603 769.413 -606.263 733.941C-619.872 698.6 -611.172 664.813 -580.404 633.521C-488.644 537.449 -414.754 477.702 -360.802 434.077C-336.318 414.279 -316.979 398.643 -302.81 385.041C-279.904 363.092 -232.399 347.553 -175.735 343.473C-116.294 339.193 -58.4452 348.379 -17.0202 368.675C80.0094 417.936 227.708 434.84 303.313 434.184C331.384 433.956 352.514 446.78 364.419 471.27C385.136 513.892 375.439 586.505 339.112 660.773C306.562 727.616 269.668 803.381 221.632 863.074C196.732 894.017 170.72 918.579 142.109 938.162C110.229 959.984 75.9069 975.152 37.183 984.531C3.63527 992.912 -48.5766 991.737 -113.803 981.131C-176.46 970.943 -247.842 952.297 -314.802 928.629C-376.152 906.942 -431.869 881.875 -477.645 855.447ZM337.891 444.402C328.037 438.713 316.352 435.847 303.078 435.955C227.338 436.612 79.3614 419.671 -17.8713 370.306C-59.082 350.115 -116.676 340.977 -175.877 345.24C-232.16 349.292 -279.253 364.639 -301.85 386.293C-316.082 399.954 -335.451 415.615 -359.972 435.443C-413.881 479.033 -487.712 538.732 -579.389 634.718C-609.541 665.384 -618.071 698.465 -604.752 733.054C-591.205 768.233 -555.867 804.19 -499.719 839.926C-450.258 871.403 -386.072 901.493 -314.097 926.934C-247.211 950.578 -175.91 969.203 -113.33 979.378C-48.2949 989.953 3.71018 991.138 37.0639 982.806C75.5856 973.475 109.715 958.394 141.408 936.7C169.851 917.232 195.718 892.805 220.487 862.026C268.368 802.524 305.205 726.877 337.705 660.136L337.706 660.135C373.769 586.407 383.446 514.424 362.959 472.277C356.925 459.862 348.464 450.506 337.891 444.402Z" fill="#D9232A"/>
<path d="M-451.442 830.043C-456.703 827.006 -461.807 823.951 -466.756 820.877C-517.891 789.115 -550.186 757.025 -562.746 725.499C-575.032 694.658 -567.868 665.12 -541.451 637.705C-462.619 551.615 -393.6 493.082 -343.205 450.343C-321.49 431.927 -302.736 416.022 -289.011 402.723C-266.598 381.057 -222.301 365.381 -170.514 360.789C-116.512 356 -62.9986 363.848 -23.6933 382.321C14.9381 401.536 66.6743 417.745 125.934 429.201C173.499 438.397 224 444.146 264.488 444.974C289.433 445.503 308.177 457.634 318.69 480.053C337.032 519.163 328.218 584.844 295.688 651.465C261.741 721.503 230.296 783.621 189.218 834.509C166.615 862.51 143.001 884.79 117.027 902.624C88.1237 922.469 57.0444 936.349 22.015 945.056C-8.74008 953.077 -56.3688 952.554 -115.713 943.539C-172.486 934.914 -237.288 918.675 -298.181 897.813C-356.247 877.919 -408.819 854.651 -451.442 830.043ZM293.791 454.36C285.339 449.48 275.423 446.86 264.23 446.622C223.671 445.793 173.09 440.035 125.456 430.827C66.0886 419.349 14.2439 403.104 -24.4729 383.846C-63.572 365.471 -116.846 357.663 -170.623 362.433C-222.06 366.994 -265.98 382.489 -288.11 403.882C-301.88 417.225 -320.657 433.149 -342.398 451.587C-392.754 494.292 -461.72 552.78 -540.485 638.796C-566.342 665.631 -573.354 694.512 -561.346 724.656C-548.893 755.914 -516.769 787.794 -465.867 819.413C-420.887 847.344 -362.684 873.912 -297.537 896.232C-236.712 917.071 -171.987 933.291 -115.285 941.904C-56.1208 950.892 -8.68559 951.427 21.8923 943.452C56.739 934.79 87.6403 920.991 116.371 901.265C142.191 883.537 165.672 861.38 188.154 833.53C229.097 782.81 260.484 720.801 294.377 650.875L294.378 650.872C326.667 584.746 335.459 519.644 317.323 480.974C311.743 469.075 303.793 460.135 293.791 454.36Z" fill="#D9232A"/>
<path d="M-425.161 804.84C-427.778 803.329 -430.351 801.812 -432.878 800.29C-478.753 772.66 -507.825 744.666 -519.285 717.085C-530.233 690.734 -524.586 665.436 -502.5 641.893C-435.651 564.56 -370.54 506.503 -322.997 464.111C-304.144 447.301 -287.863 432.784 -275.212 420.408C-252.949 398.694 -212.886 383.277 -165.294 378.109C-116.705 372.833 -67.5261 379.343 -30.3673 395.971C42.0338 431.085 153.101 451.58 225.665 455.767C247.5 457.054 263.861 468.502 272.982 488.871C288.924 524.474 280.985 583.211 252.264 642.161L252.265 642.157C223.45 701.95 194.467 759.47 156.804 805.948C136.498 831.006 115.282 851.005 91.9442 867.09C66.0184 884.957 38.1831 897.549 6.84718 905.585C-21.1234 913.249 -64.1756 913.381 -117.644 905.961C-168.542 898.898 -226.77 885.069 -281.601 867.02C-336.363 848.994 -385.772 827.58 -425.161 804.84ZM249.669 464.235C242.636 460.174 234.495 457.829 225.38 457.292C152.704 453.098 41.4514 432.565 -31.0743 397.39C-68.0355 380.852 -116.99 374.375 -165.369 379.628C-212.638 384.761 -252.368 400.014 -274.372 421.475C-287.052 433.878 -303.348 448.409 -322.217 465.234C-369.723 507.593 -434.784 565.605 -501.58 642.875C-523.164 665.884 -528.679 690.574 -517.995 716.287C-506.637 743.622 -477.727 771.426 -432.067 798.925C-391.567 823.3 -339.341 846.353 -281.017 865.551C-226.25 883.579 -168.094 897.392 -117.263 904.445C-63.9619 911.842 -21.0893 911.723 6.71998 904.103C37.8923 896.109 65.5665 883.592 91.3347 865.833C114.532 849.846 135.625 829.96 155.82 805.038C193.356 758.718 222.283 701.306 251.048 641.617L251.05 641.613C279.553 583.112 287.468 524.903 271.707 489.702C266.585 478.263 259.13 469.697 249.669 464.235Z" fill="#D9232A"/>
<path d="M-398.778 779.9L-399.068 779.733C-439.687 756.238 -465.536 732.341 -475.899 708.708C-485.493 686.828 -481.338 665.755 -463.55 646.076C-407.778 575.923 -344.745 516.784 -298.72 473.603C-284.308 460.081 -271.86 448.403 -261.41 438.086C-239.611 416.628 -202.675 401.078 -160.074 395.423C-116.861 389.686 -72.0166 394.859 -37.0399 409.614C-5.5354 424.413 34.167 437.423 80.982 448.291C116.199 456.466 154.784 463.123 186.845 466.554C205.59 468.594 219.579 479.375 227.302 497.731C240.809 529.831 233.735 581.605 208.84 632.85C184.889 682.916 158.637 735.321 124.39 777.38C106.383 799.495 87.5652 817.213 66.8624 831.549C43.9151 847.438 19.3231 858.742 -8.31975 866.107C-58.253 880.596 -161.438 868.598 -265.069 836.249C-316.506 820.192 -362.733 800.71 -398.778 779.9ZM205.517 473.974C199.928 470.748 193.572 468.72 186.528 467.952C154.426 464.517 115.793 457.852 80.5362 449.668C33.6491 438.783 -6.12258 425.749 -37.6745 410.928C-72.4615 396.253 -117.096 391.106 -160.114 396.817C-202.426 402.434 -239.064 417.831 -260.633 439.063C-271.097 449.394 -283.551 461.078 -297.972 474.608C-343.959 517.754 -406.941 576.844 -462.67 646.941C-480.019 666.137 -484.062 686.65 -474.722 707.951C-464.457 731.363 -438.757 755.089 -398.337 778.469L-398.048 778.635C-362.067 799.41 -315.916 818.858 -264.548 834.893C-161.108 867.183 -58.1912 879.18 -8.45186 864.748C19.0468 857.422 43.4937 846.186 66.2988 830.394C86.8743 816.147 105.581 798.531 123.488 776.54C157.614 734.629 183.812 682.329 207.72 632.353L207.723 632.348C232.423 581.505 239.472 530.205 226.118 498.47C221.462 487.403 214.478 479.148 205.517 473.974Z" fill="#D9232A"/>
<path d="M-372.426 755.271C-403.752 737.185 -423.988 718.752 -432.628 700.414C-440.843 682.982 -438.152 666.121 -424.628 650.296C-379.453 585.374 -315.124 522.178 -268.152 476.035C-260.781 468.794 -253.819 461.954 -247.61 455.767C-225.927 434.224 -192.986 418.944 -154.855 412.741C-116.408 406.486 -76.9373 410.222 -43.7138 423.262C-21.3577 433.334 42.0342 458.748 148.027 477.348C163.711 480.142 175.342 490.283 181.661 506.679C192.683 535.273 186.458 580.052 165.418 623.537C146.045 664.427 122.795 711.202 91.9753 748.816C59.4047 788.566 21.6365 814.02 -23.4866 826.632C-45.9217 833.596 -79.8511 835.058 -121.59 830.855C-161.345 826.852 -205.266 818.095 -248.604 805.532C-293.356 792.558 -333.726 776.554 -365.349 759.248C-367.767 757.925 -370.127 756.598 -372.426 755.271ZM161.321 483.518C157.217 481.149 152.653 479.502 147.671 478.615C130.715 475.64 96.5264 469.146 58.0743 459.087C17.7101 448.529 -16.7255 436.881 -44.2755 424.469C-77.3153 411.501 -116.595 407.783 -154.859 414.009C-192.732 420.171 -225.417 435.315 -246.895 456.653C-253.107 462.843 -260.071 469.684 -267.444 476.928C-314.381 523.037 -378.663 586.186 -423.755 651L-423.803 651.062C-436.93 666.406 -439.542 682.769 -431.566 699.697C-422.514 718.908 -399.394 739.096 -364.701 758.083C-333.137 775.356 -292.833 791.334 -248.146 804.288C-204.864 816.835 -161.004 825.58 -121.307 829.577C-79.7106 833.766 -45.9323 832.32 -23.6255 825.397C21.2409 812.856 58.7804 787.556 91.1545 748.046C121.861 710.57 145.059 663.897 164.392 623.092L164.394 623.086C185.267 579.951 191.464 535.593 180.567 507.322C176.391 496.487 169.849 488.442 161.321 483.518Z" fill="#D9232A"/>
<path d="M-345.343 731.562C-367.586 718.72 -382.738 705.285 -389.533 692.28C-396.354 679.225 -395.064 666.517 -385.697 654.507C-351.948 592.274 -269.165 509.006 -233.809 473.444C-189.573 429.077 -114.147 414.053 -50.3878 436.907C-1.27983 457.808 60.9572 474.89 98.1425 485.096C102.091 486.18 105.795 487.197 109.215 488.143C121.884 491.696 131.172 501.254 136.075 515.779C144.54 540.854 139.143 578.579 121.993 614.228C104.957 650.668 85.6006 688.735 59.5604 720.249C31.77 753.879 -0.355409 775.764 -38.6526 787.153C-77.3466 800.173 -153.331 795.366 -232.213 774.902C-270.142 765.061 -304.56 752.609 -331.745 738.891C-336.531 736.476 -341.069 734.028 -345.343 731.562ZM117.061 492.729C114.505 491.253 111.751 490.096 108.809 489.271C105.392 488.325 101.689 487.308 97.7405 486.225C60.5345 476.013 -1.73766 458.921 -50.8758 438.007C-114.262 415.287 -189.229 430.183 -233.158 474.242C-268.48 509.77 -351.201 592.974 -384.832 655.031L-384.861 655.084L-384.898 655.131C-393.943 666.703 -395.186 678.971 -388.59 691.595C-380.577 706.93 -360.725 722.917 -331.183 737.824C-304.052 751.515 -269.694 763.945 -231.823 773.77C-153.104 794.192 -77.3382 799.009 -38.7994 786.042C46.2509 760.748 86.8084 687.098 121.062 613.829L121.066 613.821C138.073 578.472 143.439 541.112 135.071 516.32C131.41 505.477 125.262 497.463 117.061 492.729Z" fill="#D9232A"/>
<path d="M-318.268 708.781C-331.866 700.931 -341.652 692.704 -346.706 684.521C-352.149 675.708 -352.175 667.04 -346.783 658.757C-341.53 639.553 -324.296 611.579 -295.557 575.608C-274.621 549.404 -247.085 518.61 -220.009 491.123C-176.511 447.074 -115.596 431.908 -57.0612 450.554C-37.2536 458.318 -16.3829 465.96 3.80099 473.35C29.9037 482.909 54.5589 491.936 70.4096 498.947C83.7201 504.903 91.7052 519.58 92.9015 540.263C94.0356 559.866 88.8125 583.43 78.5696 604.916C55.836 654.503 39.1456 677.333 27.1452 691.683C4.14961 719.179 -22.3335 737.495 -53.8174 747.675C-87.0785 760.027 -149.175 758.797 -215.855 744.458C-258.449 735.297 -294.285 722.627 -318.268 708.781ZM72.7154 501.335C71.8182 500.818 70.8942 500.345 69.941 499.918C54.1146 492.918 29.4708 483.894 3.38032 474.341C-16.8076 466.949 -37.6826 459.305 -57.4745 451.546C-115.658 433.014 -176.207 448.07 -219.421 491.832C-246.468 519.289 -273.973 550.047 -294.882 576.218C-323.559 612.112 -340.724 639.965 -345.9 659.004L-345.927 659.101L-345.982 659.186C-351.157 667.079 -351.127 675.379 -345.892 683.855C-332.032 706.296 -282.083 729.126 -215.538 743.437C-149.008 757.745 -87.1002 758.991 -53.9744 746.69C-22.6722 736.568 3.64109 718.37 26.4889 691.049C49.2372 663.848 65.824 630.544 77.7328 604.567L77.7369 604.558C87.8943 583.254 93.0758 559.9 91.9529 540.484C90.8627 521.645 84.0676 507.89 72.7154 501.335Z" fill="#D9232A"/>
<path d="M-291.122 687.845C-296.744 684.599 -301.14 681.248 -304.098 677.865C-308.425 672.918 -309.696 667.956 -307.879 663.114C-312.653 647.869 -293.626 616.457 -276.788 592.747C-257.802 566.013 -231.416 534.632 -206.206 508.802C-184.49 486.594 -162.574 472.167 -139.206 464.696C-115.342 457.067 -90.6544 456.906 -63.7338 464.203C-24.3959 477.741 13.0234 495.625 31.6126 509.773C40.6334 516.717 45.7832 529.766 46.1149 546.515C46.4252 562.185 42.4275 580.077 35.1466 595.606C16.723 637.074 -11.7633 687.345 -68.9785 708.198C-96.5905 719.806 -145.194 722.148 -198.971 714.454C-238.269 708.832 -271.872 698.958 -291.122 687.845ZM14.2036 499.57C-5.97821 487.918 -34.4814 475.271 -64.0709 465.088C-90.8286 457.835 -115.374 457.992 -139.088 465.573C-162.305 472.995 -184.089 487.339 -205.685 509.424C-252.805 557.704 -315.401 637.224 -307.032 662.854L-306.98 663.013L-307.048 663.186C-308.819 667.718 -307.609 672.427 -303.451 677.182C-290.466 692.03 -249.366 706.303 -198.74 713.545C-145.094 721.22 -96.6494 718.901 -69.1503 707.341C-12.2698 686.61 16.0684 636.579 34.4037 595.309L34.4085 595.298C41.6225 579.915 45.5833 562.193 45.276 546.675C44.9493 530.183 39.902 517.354 31.0644 510.549C26.5003 507.076 20.7958 503.376 14.2036 499.57Z" fill="#D9232A"/>
<path d="M-263.848 671.897C-266.272 670.497 -267.95 669.037 -268.771 667.54C-273.222 665.902 -275.753 662.456 -276.298 657.303C-277.894 642.225 -262.468 615.821 -249.246 596.326C-233.514 573.129 -212.264 547.019 -192.404 526.483C-169.924 503.261 -151.909 489.549 -133.993 482.022C-114.879 473.993 -94.6742 472.668 -70.4065 477.854C-43.4805 485.141 -18.6721 501.932 -7.18562 520.637C3.05717 537.493 0.303558 567.255 -8.27555 586.295C-24.9989 626.218 -50.5216 653.951 -84.1337 668.719C-97.1795 675.168 -114.383 679.82 -135.248 682.536C-153.313 684.888 -173.624 685.674 -193.983 684.81C-225.858 683.456 -252.716 678.323 -263.848 671.897ZM-268.238 666.86L-268.183 666.966C-267.42 668.428 -265.795 669.855 -263.433 671.219C-238.934 685.368 -134.842 692.967 -84.3284 667.995C-50.9155 653.314 -25.552 625.748 -8.92659 586.054L-8.92165 586.042C-0.433502 567.21 2.30334 537.785 -7.80961 521.144C-19.2189 502.564 -43.8907 485.876 -70.6637 478.631C-94.7789 473.477 -114.854 474.788 -133.826 482.758C-151.632 490.239 -169.557 503.889 -191.948 527.018C-211.772 547.517 -232.983 573.579 -248.685 596.732C-261.817 616.095 -277.143 642.285 -275.576 657.095C-275.056 662.01 -272.622 665.284 -268.346 666.821L-268.238 666.86Z" fill="#D9232A"/>
</svg>
