<svg width="70" height="50" viewBox="0 0 70 50" fill="none" xmlns="http://www.w3.org/2000/svg">
<path d="M35.0835 11.1133H45.4336V38.8675H35.0835V11.1133Z" fill="white"/>
<path d="M24.5549 11.1094V38.8631H17.6187V11.1094H24.5549Z" fill="white"/>
<path d="M54.5872 49.4787C53.3464 49.4787 52.1057 49.4821 50.865 49.4777C49.6995 49.4735 48.9286 48.7912 48.911 47.7585C48.8929 46.6994 49.6732 45.9509 50.8622 45.9423C53.0572 45.9264 55.2527 45.9529 57.4477 45.9332C61.9399 45.8929 65.4317 43.0267 66.1807 38.6281C66.4143 37.2559 66.2843 35.8224 66.3283 34.4171C66.3402 34.0368 66.3369 33.6482 66.4153 33.2794C66.5823 32.4947 67.3393 31.9479 68.1552 31.9694C68.9699 31.9908 69.7861 32.5864 69.8101 33.3743C69.9019 36.3931 70.1645 39.4465 68.7284 42.2807C66.3886 46.8982 62.6787 49.3827 57.4502 49.4763C56.4962 49.4934 55.5416 49.4787 54.5872 49.4787Z" fill="white"/>
<path d="M15.3804 0.525034C16.6444 0.525034 17.9084 0.520671 19.1724 0.52637C20.3014 0.531355 21.1179 1.26401 21.1274 2.2676C21.1369 3.25801 20.3185 4.04818 19.1972 4.05958C17.1225 4.08077 15.0463 4.10872 12.9728 4.05566C10.3588 3.98879 8.08766 4.77505 6.23737 6.62989C4.58571 8.28555 3.73766 10.3164 3.67819 12.6567C3.64854 13.8244 3.68166 14.9934 3.66902 16.1617C3.657 17.2771 2.87956 18.1304 1.91051 18.1201C0.957144 18.11 0.209707 17.3036 0.224932 16.1932C0.25547 13.9615 0.0387627 11.72 0.663956 9.516C2.18946 4.13837 6.91687 0.530198 12.5185 0.525123C13.4725 0.524233 14.4265 0.524945 15.3804 0.525034Z" fill="white"/>
<path d="M54.7202 0.480469C56.7743 0.685246 58.8872 0.651858 60.871 1.14128C66.0463 2.41802 69.69 7.14498 69.8461 12.466C69.8853 13.8001 69.8821 15.1381 69.8299 16.4715C69.7936 17.3949 68.8647 18.2094 68.023 18.1674C67.1431 18.1235 66.4452 17.3561 66.4113 16.3833C66.3989 16.0259 66.4257 15.6668 66.4051 15.3102C66.3171 13.793 66.4088 12.2347 66.0859 10.7681C65.2545 6.99291 61.7545 4.27178 57.8934 4.22281C55.5796 4.19352 53.2651 4.22994 50.9512 4.20937C49.4989 4.19646 48.5862 2.99255 49.095 1.78659C49.4005 1.06266 49.9628 0.668775 50.7657 0.666727C52.0778 0.663344 53.39 0.665837 54.7022 0.665837C54.7082 0.604047 54.7142 0.542258 54.7202 0.480469Z" fill="white"/>
<path d="M15.3584 49.5238C13.2818 49.3186 11.1457 49.3549 9.14001 48.8612C3.86041 47.5617 0.158305 42.63 0.118062 37.1939C0.109782 36.0737 0.105953 34.9532 0.119665 33.8331C0.133554 32.6988 0.869327 31.896 1.87781 31.883C2.91238 31.8696 3.65056 32.691 3.67362 33.8617C3.70362 35.3845 3.59758 36.9279 3.80975 38.4257C4.42586 42.7754 8.05406 45.8468 12.4871 45.8933C14.728 45.9168 16.9699 45.8711 19.2099 45.9205C19.6697 45.9307 20.2024 46.1255 20.5617 46.4111C21.1194 46.8545 21.3084 47.5278 20.9989 48.2174C20.6813 48.9251 20.0917 49.3171 19.3104 49.3296C17.9995 49.3506 16.6879 49.3354 15.3767 49.3354C15.3707 49.3983 15.3644 49.461 15.3584 49.5238Z" fill="white"/>
<path d="M55.9973 11.1094H59.3998V38.8917H55.9973V11.1094Z" fill="white"/>
<path d="M31.4587 38.8916H28.0603V11.125H31.4587V38.8916Z" fill="white"/>
<path d="M14.1008 38.89H10.7485V11.1211H14.1008V38.89Z" fill="white"/>
<path d="M48.9907 11.1094H52.3685V38.8835H48.9907V11.1094Z" fill="white"/>
</svg>
