<svg width="62" height="62" viewBox="0 0 62 62" fill="none" xmlns="http://www.w3.org/2000/svg">
<g clip-path="url(#clip0_2860_367)">
<path d="M41.9289 7.62097C49.5314 10.879 55.4328 18.2916 57.2176 26.4717C57.4908 27.7236 57.6401 28.9914 57.8585 30.2509C58.8987 30.3777 60.0783 30.0096 61.0147 30.629C62.81 31.8164 61.9918 34.7176 59.8508 34.7769H2.13743C-0.718087 34.5207 -0.619362 30.6282 1.87851 30.2829C2.26764 30.2291 4.03279 30.3767 4.16501 30.1886C5.05555 20.4421 11.1784 11.4752 20.0538 7.61447C19.2818 4.49808 21.0559 1.35555 24.278 1.01181C28.621 1.30621 33.4229 0.637206 37.7103 1.01181C40.9284 1.29295 42.719 4.57088 41.9289 7.62097ZM37.4286 5.51758H24.5597C24.3724 5.51758 24.3404 5.9674 24.3468 6.14336C24.498 10.2618 25.4052 14.7201 25.4703 18.8081C25.5028 20.8491 23.2708 22.1068 21.6906 20.709C21.0495 20.1417 21.0354 19.3157 20.8943 18.5254L20.4762 12.4092C13.974 15.8823 9.35043 22.7785 8.7158 30.2707H53.2723C52.6528 22.7819 48.0054 15.8817 41.5119 12.4092L41.0938 18.666C41.1666 22.0433 36.4647 22.1487 36.5179 18.8082C36.583 14.7202 37.4903 10.2618 37.6414 6.14348C37.6487 5.94369 37.6453 5.58656 37.4286 5.51758Z" fill="#E8E8E8"/>
<path d="M1.72798 48.2728C0.257757 48.025 -0.4692 46.0463 0.350838 44.7635C1.2548 43.3495 3.01819 43.8567 4.42669 43.7729C4.37325 41.5181 6.07417 39.6038 8.24639 39.2868L53.3475 39.2656C55.6986 39.3426 57.6029 41.407 57.5615 43.7729C58.6558 43.8703 60.0544 43.4959 61.0147 44.1306C62.2896 44.9734 62.3303 46.943 61.0919 47.8521C60.9568 47.9513 60.3595 48.2727 60.2604 48.2727H57.5621C57.4162 50.4762 57.756 52.9259 57.5677 55.0995C57.5365 55.4603 57.4778 55.7831 57.3129 56.1064L52.2358 61.3535C51.8221 61.6925 51.3621 61.7421 50.8569 61.7802C46.4117 62.1164 41.4462 61.5958 36.9699 61.678C36.4995 61.5535 36.2195 61.2856 35.9053 60.9317C34.3099 59.1352 33.1481 56.5641 31.0385 55.187C30.1237 55.0484 26.7702 60.1882 26.016 61.0039C25.6907 61.3556 25.3943 61.6048 24.9135 61.7116H10.5072C10.1747 61.6407 9.94655 61.4855 9.68086 61.2856C8.00917 60.0277 6.28429 57.5563 4.67545 56.1061C4.51062 55.7828 4.45191 55.4601 4.42067 55.0993C4.23238 52.9256 4.57221 50.4758 4.42632 48.2725C3.60126 48.1753 2.51465 48.4054 1.72798 48.2728ZM53.1341 43.7723H8.8543V54.1095L12.1092 57.2707L23.0387 57.2748L23.3137 57.1324C24.8539 54.8946 28.1325 50.4552 31.0657 50.5135C33.9361 50.5707 37.159 54.9316 38.675 57.1324L38.95 57.2748L49.8794 57.2707L53.1343 54.1095L53.1341 43.7723Z" fill="#E8E8E8"/>
</g>
<defs>
<clipPath id="clip0_2860_367">
<rect width="62" height="61" fill="white" transform="translate(0 0.894531)"/>
</clipPath>
</defs>
</svg>
