<svg width="32" height="28" viewBox="0 0 32 28" fill="none" xmlns="http://www.w3.org/2000/svg">
<path d="M0.880981 26.0033C0.880981 26.6864 1.33634 27.1275 2.01937 27.1275H30.3227C30.9488 27.1275 31.4753 26.6294 31.4753 25.9891C31.4753 25.363 30.9488 24.8507 30.3227 24.8507H3.57043C3.27161 24.8507 3.172 24.7512 3.172 24.4523V1.95479C3.172 1.34291 2.65972 0.816406 2.0336 0.816406C1.39326 0.816406 0.880981 1.34291 0.880981 1.95479V26.0033ZM2.37512 17.1524L11.5249 11.8588L18.1134 17.5081L29.8246 10.5354L28.9282 9.08399L18.2273 15.459L11.6673 9.83817L2.37512 15.2029V17.1524ZM11.34 13.7798C12.7345 13.7798 13.8729 12.6415 13.8729 11.2469C13.8729 9.8524 12.7345 8.72824 11.34 8.72824C9.94543 8.72824 8.80704 9.8524 8.80704 11.2469C8.80704 12.6415 9.94543 13.7798 11.34 13.7798ZM18.0564 19.0022C19.4511 19.0022 20.5752 17.8639 20.5752 16.4692C20.5752 15.0748 19.4511 13.9506 18.0564 13.9506C16.662 13.9506 15.5236 15.0748 15.5236 16.4692C15.5236 17.8639 16.662 19.0022 18.0564 19.0022ZM28.7859 12.5276C30.1804 12.5276 31.3188 11.3892 31.3188 9.9947C31.3188 8.60017 30.1804 7.46177 28.7859 7.46177C27.3913 7.46177 26.2529 8.60017 26.2529 9.9947C26.2529 11.3892 27.3913 12.5276 28.7859 12.5276Z" fill="#EE2B2A"/>
</svg>
