<svg width="18" height="18" viewBox="0 0 18 18" fill="none" xmlns="http://www.w3.org/2000/svg">
<path d="M8.99996 0.666672C13.6025 0.666672 17.3333 4.39751 17.3333 9C17.3333 13.6025 13.6025 17.3333 8.99996 17.3333C4.39746 17.3333 0.666626 13.6025 0.666626 9C0.666626 4.39751 4.39746 0.666672 8.99996 0.666672ZM8.99996 2.33334C7.23185 2.33334 5.53616 3.03572 4.28591 4.28596C3.03567 5.5362 2.33329 7.23189 2.33329 9C2.33329 10.7681 3.03567 12.4638 4.28591 13.7141C5.53616 14.9643 7.23185 15.6667 8.99996 15.6667C10.7681 15.6667 12.4638 14.9643 13.714 13.7141C14.9642 12.4638 15.6666 10.7681 15.6666 9C15.6666 7.23189 14.9642 5.5362 13.714 4.28596C12.4638 3.03572 10.7681 2.33334 8.99996 2.33334ZM8.99996 4.00001C9.20407 4.00003 9.40107 4.07497 9.5536 4.2106C9.70613 4.34623 9.80358 4.53313 9.82746 4.73584L9.83329 4.83334V8.65501L12.0891 10.9108C12.2386 11.0608 12.3254 11.262 12.3318 11.4737C12.3383 11.6853 12.2639 11.8914 12.1239 12.0502C11.9839 12.209 11.7887 12.3086 11.5779 12.3287C11.3671 12.3487 11.1566 12.2878 10.9891 12.1583L10.9108 12.0892L8.41079 9.58917C8.28128 9.45954 8.19809 9.29084 8.17413 9.10917L8.16663 9V4.83334C8.16663 4.61232 8.25442 4.40036 8.4107 4.24408C8.56698 4.0878 8.77894 4.00001 8.99996 4.00001Z" fill="white"/>
</svg>
