<svg width="29" height="30" viewBox="0 0 29 30" fill="none" xmlns="http://www.w3.org/2000/svg">
<path d="M15.4598 3.54053C16.1085 3.54053 16.6019 3.047 16.6019 2.39836C16.6019 1.76382 16.1085 1.27028 15.4598 1.27028H5.13793L7.37998 3.54053H15.4598ZM19.4222 7.57339C20.0567 7.57339 20.5643 7.06577 20.5643 6.41711C20.5643 5.78258 20.0567 5.30314 19.4222 5.30314H9.07209L11.3141 7.57339H19.4222ZM23.2999 11.5922C23.9345 11.5922 24.4281 11.0845 24.4281 10.4359C24.4281 9.80134 23.9345 9.32191 23.2999 9.32191H13.0063L15.2482 11.5922H23.2999ZM27.22 13.3407H16.9404C17.7864 14.2008 18.1672 14.7226 18.2236 15.6109H27.22C27.8545 15.6109 28.3622 15.1174 28.3622 14.4688C28.3622 13.8342 27.8545 13.3407 27.22 13.3407ZM14.1766 27.2724L9.1144 15.4418L8.43755 16.598L15.4598 16.9928C16.4046 17.0492 16.8558 16.0339 16.179 15.343L2.21904 1.07287C1.5986 0.438328 0.63974 0.790852 0.63974 1.67921L0.400024 21.5334C0.400024 22.5062 1.4858 22.9011 2.10624 22.1819L6.64674 17.162L5.33534 16.8236L10.2284 28.9222C10.4258 29.4016 10.9193 29.6272 11.3564 29.4299L13.7818 28.4286C14.233 28.2594 14.3881 27.7377 14.1766 27.2724Z" fill="#EE2B2A"/>
</svg>
