<svg width="64" height="69" viewBox="0 0 64 69" fill="none" xmlns="http://www.w3.org/2000/svg">
<g clip-path="url(#clip0_2862_4054)">
<path d="M33.4132 18.2212C34.6833 19.1595 35.989 19.9748 37.1058 20.9915C38.2035 21.9908 39.1096 23.1946 40.148 24.3631C41.4747 23.6743 42.8927 22.9381 44.3108 22.2019C44.5078 22.0996 44.7022 21.9923 44.9025 21.8968C45.6077 21.5606 46.2061 21.7041 46.4987 22.2751C46.7781 22.8205 46.5695 23.3589 45.8958 23.7155C44.5015 24.4537 43.0963 25.1721 41.6967 25.9008C41.4579 26.0252 41.2247 26.1604 40.9216 26.3279C41.9152 28.9691 42.0188 31.6517 41.2551 34.4527C41.623 34.4527 41.8878 34.4527 42.1525 34.4527C44.5811 34.4531 47.0097 34.4448 49.4381 34.4587C50.3346 34.4638 50.838 34.9862 50.6589 35.7096C50.4953 36.37 49.9831 36.5375 49.3512 36.5355C46.6254 36.5267 43.8993 36.5442 41.1736 36.5206C40.6694 36.5162 40.3882 36.6474 40.1463 37.1109C39.2987 38.7354 38.3907 40.3292 37.5117 41.9378C37.3953 42.1509 37.3138 42.3825 37.1931 42.6581C37.6825 42.9149 38.1573 43.1692 38.6366 43.4149C41.1161 44.6855 43.5946 45.958 46.0786 47.2199C46.6049 47.4873 46.9986 47.8272 46.8786 48.4656C46.7369 49.2192 45.9813 49.5047 45.1813 49.098C42.5876 47.7795 40.0012 46.4468 37.4119 45.1199C37.1048 44.9626 36.7968 44.8071 36.3361 44.573C35.9527 46.0219 35.5633 47.4188 35.2195 48.8267C35.0696 49.4403 34.994 50.0739 34.918 50.7024C34.7476 52.1108 34.9804 53.3721 36.0799 54.4367C36.7447 55.0804 37.2465 55.8885 37.8146 56.6279C38.3249 57.292 38.3083 57.9044 37.7817 58.3008C37.2507 58.7004 36.6877 58.5601 36.1394 57.8812C35.7739 57.4287 35.4188 56.9681 34.9127 56.3253C34.9127 57.1344 34.9213 57.7297 34.9106 58.3247C34.8965 59.1084 34.522 59.5218 33.7363 59.5231C28.4333 59.5323 23.13 59.5491 17.8272 59.5082C16.1553 59.4952 15.3164 58.6287 15.1411 56.9726C15.0718 56.318 15.0368 55.6599 14.9896 55.0032C14.9426 54.3501 14.686 53.9776 13.9249 54.0131C12.8618 54.0629 11.7943 54.0358 10.7288 54.0229C7.97084 53.9897 6.24038 52.257 6.24721 49.556C6.24985 48.5305 6.20632 47.5039 6.24311 46.48C6.26855 45.7717 5.95766 45.4233 5.29183 45.2261C4.41781 44.9674 3.55019 44.6715 2.71014 44.321C0.817911 43.5314 0.423452 42.0741 1.68331 40.457C2.81436 39.0053 4.03265 37.6193 5.15466 36.1611C5.44113 35.7888 5.63892 35.2569 5.6542 34.7912C5.72778 32.547 5.62218 30.2938 5.76952 28.056C6.13291 22.5388 9.09891 18.8444 14.3502 17.0994C19.7368 15.3093 25.2005 15.3856 30.6012 17.1918C31.2351 17.4038 31.5459 17.3268 31.8905 16.7487C32.6546 15.4667 33.5009 14.2321 34.3235 12.9845C34.7789 12.2938 35.3872 12.1152 35.9383 12.4861C36.469 12.8434 36.5336 13.4071 36.0913 14.0956C35.1935 15.4935 34.2825 16.8835 33.4132 18.2212ZM32.8301 57.4376C32.8301 56.3359 32.8719 55.3345 32.8106 54.3393C32.7843 53.9125 32.6417 53.4256 32.3849 53.0901C30.1336 50.1486 27.8332 47.2436 25.579 44.3041C25.236 43.8567 24.9468 43.7949 24.4124 43.9331C18.8931 45.3598 13.4047 41.1916 13.3693 35.5732C13.3336 29.8864 18.6885 25.6912 24.3114 27.0277C24.8797 27.1627 25.171 27.0852 25.4898 26.5741C26.6817 24.6632 27.9348 22.7893 29.1641 20.9011C29.5067 20.3747 29.8462 19.8464 30.2158 19.2746C29.9877 19.1803 29.8394 19.0897 29.6789 19.057C27.9178 18.6981 26.1695 18.1978 24.3891 18.0286C21.1626 17.7221 17.9556 17.9863 14.8778 19.0938C10.9457 20.5088 8.44144 23.1656 7.96768 27.3465C7.74617 29.3014 7.71706 31.3031 7.85945 33.2654C8.01096 35.3538 7.47864 37.0356 5.97345 38.5355C4.88739 39.6176 4.01114 40.9042 3.02171 42.1237C3.17886 42.2338 3.24826 42.3077 3.33379 42.3385C4.28473 42.6809 5.23694 43.0199 6.19112 43.3534C7.66055 43.8672 8.22992 44.5794 8.29556 46.0997C8.35028 47.3674 8.34285 48.6374 8.3834 49.9058C8.41976 51.0425 9.17061 51.8776 10.316 51.9234C12.1454 51.9964 13.9791 52.0244 15.8097 51.9947C17.468 51.9678 19.019 51.481 20.4759 50.6961C21.2326 50.2885 21.8201 50.4067 22.1434 50.993C22.4642 51.5749 22.24 52.1055 21.4585 52.5182C20.9585 52.7822 20.4515 53.0513 19.9174 53.2308C18.9681 53.55 17.996 53.8028 17.009 54.0905C17.0641 54.7784 17.0964 55.4608 17.1781 56.1374C17.319 57.3045 17.4835 57.4366 18.683 57.437C23.1175 57.4383 27.5522 57.4376 31.9868 57.4376H32.8301ZM22.1795 42.1278C25.9305 42.1435 28.9658 39.204 28.979 35.5428C28.9924 31.8496 26.0454 28.8925 22.2932 28.8341C18.5823 28.7763 15.4694 31.8243 15.4808 35.5042C15.4921 39.1408 18.4975 42.1124 22.1795 42.1278ZM38.1167 25.4183C36.6367 23.0214 34.6302 21.3586 32.1831 20.1009C30.4405 22.7789 28.7235 25.4175 27.0165 28.0407C27.7832 28.7175 28.5094 29.3585 29.2586 30.0197C32.1851 28.4995 35.1073 26.9816 38.1167 25.4183ZM31.1203 34.4658C33.6355 34.4658 36.1544 34.472 38.6731 34.4509C38.8289 34.4497 39.0746 34.2631 39.1238 34.1134C39.8671 31.85 39.8678 29.594 39.0101 27.2989C36.0907 28.8152 33.2149 30.3089 30.3472 31.7984C30.6097 32.7039 30.8578 33.5601 31.1203 34.4658ZM32.7344 50.1064C33.3007 47.8931 33.8462 45.7613 34.4028 43.5864C32.6972 42.7137 30.9522 41.8208 29.2431 40.9463C28.5126 41.6077 27.8291 42.2265 27.1046 42.8824C28.977 45.2849 30.8383 47.6734 32.7344 50.1064ZM35.237 41.6743C36.1714 39.9546 37.086 38.2715 38.0108 36.5694H31.1027C30.8485 37.4475 30.6062 38.2842 30.3498 39.1696C31.9515 39.9905 33.5714 40.8207 35.237 41.6743Z" fill="white"/>
<path d="M53.389 13.2539C56.4579 13.2546 58.9863 15.7491 58.9524 18.7429C58.9186 21.7274 56.412 24.1845 53.3986 24.1871C50.3419 24.1897 47.8501 21.7123 47.8574 18.678C47.8648 15.6792 50.3388 13.2532 53.389 13.2539ZM53.3712 22.073C55.2758 22.0921 56.7803 20.6522 56.8059 18.7857C56.8318 16.892 55.328 15.3328 53.4521 15.3084C51.5718 15.2841 49.9782 16.8111 49.9455 18.6685C49.9128 20.5288 51.4469 22.0535 53.3712 22.073Z" fill="white"/>
<path d="M52.9576 57.7883C49.9152 57.784 47.4289 55.3415 47.4241 52.3523C47.4193 49.3425 49.9645 46.8432 53.0053 46.8713C56.0534 46.8996 58.5307 49.3413 58.5397 52.3263C58.5488 55.346 56.0483 57.7927 52.9576 57.7883ZM53.0298 48.9744C51.0778 48.9681 49.5669 50.416 49.5462 52.313C49.5259 54.1679 51.0708 55.7125 52.974 55.7401C54.8243 55.7669 56.4297 54.18 56.4208 52.3329C56.4119 50.4752 54.9026 48.9804 53.0298 48.9744Z" fill="white"/>
<path d="M63.9546 35.496C63.9472 38.5416 61.4767 40.9481 58.3699 40.9364C55.322 40.9249 52.8857 38.4944 52.8921 35.472C52.8985 32.4656 55.3468 30.0366 58.3956 30.0119C61.4496 29.9872 63.962 32.4657 63.9546 35.496ZM58.469 32.1174C56.5241 32.1108 54.9941 33.5761 54.9828 35.4564C54.9714 37.331 56.4939 38.8549 58.4073 38.8842C60.2752 38.9128 61.8457 37.3573 61.8438 35.4805C61.8419 33.6134 60.3472 32.1238 58.469 32.1174Z" fill="white"/>
<path d="M45.3207 6.46291C45.3127 9.45196 42.8185 11.9078 39.791 11.9075C36.7444 11.9072 34.1989 9.3825 34.234 6.39614C34.2693 3.39826 36.7603 0.957031 39.7842 0.957031C42.8529 0.957031 45.3289 3.41928 45.3207 6.46291ZM36.3754 6.37696C36.3583 8.29972 37.8017 9.76263 39.7592 9.80636C41.6323 9.84824 43.2332 8.30367 43.243 6.44492C43.2526 4.6309 41.7109 3.07557 39.8636 3.03596C37.9603 2.99517 36.392 4.4971 36.3754 6.37696Z" fill="white"/>
<path d="M41.595 68.9563C38.4972 68.9421 36.0745 66.5134 36.0961 63.4438C36.1173 60.4284 38.5731 58.0458 41.6469 58.0586C44.7127 58.0715 47.1479 60.4751 47.1553 63.4956C47.1626 66.5384 44.6862 68.9705 41.595 68.9563ZM45.0421 63.533C45.0495 61.6638 43.5585 60.1429 41.702 60.1256C39.7327 60.1074 38.1764 61.6056 38.1811 63.515C38.1858 65.3918 39.7202 66.8835 41.6482 66.8857C43.5187 66.8878 45.0348 65.3901 45.0421 63.533Z" fill="white"/>
<path d="M21.3387 37.2529C22.3807 35.4799 23.3439 33.8408 24.3073 32.2019C24.4311 31.9913 24.5446 31.7737 24.6825 31.5724C25.0402 31.0503 25.5355 30.892 26.0927 31.1982C26.6601 31.5099 26.7709 32.0421 26.4852 32.5841C26.0418 33.4256 25.5378 34.2363 25.0564 35.0583C24.2418 36.4494 23.4344 37.8447 22.6053 39.2273C22.0817 40.1005 21.4216 40.1764 20.6814 39.4619C19.8687 38.6775 19.0637 37.885 18.2696 37.0823C17.7265 36.5333 17.6914 36.0009 18.1307 35.5398C18.5723 35.0762 19.2078 35.0982 19.7594 35.6316C20.2704 36.1257 20.7527 36.6487 21.3387 37.2529Z" fill="white"/>
</g>
<defs>
<clipPath id="clip0_2862_4054">
<rect width="63" height="68" fill="white" transform="translate(0.95459 0.957031)"/>
</clipPath>
</defs>
</svg>
