<svg width="24" height="27" viewBox="0 0 24 27" fill="none" xmlns="http://www.w3.org/2000/svg">
<path d="M7.88744 26.9197H20.1466C22.5223 26.9197 23.7101 25.7204 23.7101 23.2985V9.3095C23.7101 6.89919 22.5223 5.68827 20.1466 5.68827H9.1099L11.0013 7.54501H20.0428C21.2421 7.54501 21.8534 8.1793 21.8534 9.33256V23.2754C21.8534 24.4287 21.2421 25.063 20.0543 25.063H7.9797C6.79185 25.063 6.16909 24.4287 6.16909 23.2754V15.0412H4.31235V23.2985C4.31235 25.7204 5.51174 26.9197 7.88744 26.9197ZM9.64039 12.4925H18.1284C18.532 12.4925 18.8433 12.1811 18.8433 11.7775C18.8433 11.3854 18.532 11.074 18.1284 11.074H9.64039C9.21369 11.074 8.91384 11.3854 8.91384 11.7775C8.91384 12.1811 9.21369 12.4925 9.64039 12.4925ZM9.64039 17.0132H18.1284C18.532 17.0132 18.8433 16.6903 18.8433 16.2867C18.8433 15.8946 18.532 15.5947 18.1284 15.5947H9.64039C9.21369 15.5947 8.91384 15.8946 8.91384 16.2867C8.91384 16.6903 9.21369 17.0132 9.64039 17.0132ZM9.64039 21.5224H18.1284C18.532 21.5224 18.8433 21.2227 18.8433 20.8305C18.8433 20.4269 18.532 20.1039 18.1284 20.1039H9.64039C9.21369 20.1039 8.91384 20.4269 8.91384 20.8305C8.91384 21.2227 9.21369 21.5224 9.64039 21.5224ZM0.979433 10.359C0.9679 10.7972 1.4984 10.9472 1.78671 10.6588L3.5512 8.89433L5.52327 13.761C5.61553 13.9802 5.84618 14.084 6.05376 14.0032L7.20702 13.542C7.40307 13.4497 7.4838 13.2075 7.38 12.9884L5.31568 8.20237L7.79518 8.09858C8.23342 8.07551 8.45254 7.66034 8.14116 7.3259L1.83284 0.844599C1.54453 0.556285 1.09476 0.717741 1.08323 1.14445L0.979433 10.359Z" fill="#EE2B2A"/>
</svg>
