<svg width="23" height="25" viewBox="0 0 23 25" fill="none" xmlns="http://www.w3.org/2000/svg">
<path d="M11.7477 25H11.2546C10.6681 24.7554 10.359 24.3426 10.4514 23.6812C7.75344 22.1012 5.05615 20.5216 2.35571 18.9401C2.31687 18.969 2.28441 18.9931 2.25201 19.0173C1.71941 19.4149 1.03167 19.3125 0.679752 18.7832C0.324217 18.2485 0.510584 17.5555 1.11081 17.2514C1.25648 17.1776 1.26118 17.0866 1.26113 16.9612C1.25993 13.975 1.259 10.9887 1.26345 8.00248C1.2637 7.83819 1.22348 7.74505 1.0649 7.66457C0.656486 7.4573 0.450837 7.02804 0.512898 6.58394C0.572789 6.15539 0.910903 5.80731 1.35664 5.70279C1.74782 5.61105 2.06203 5.76277 2.35626 6.00155C5.05724 4.43876 7.75554 2.87751 10.4453 1.3212C10.4453 1.1676 10.4283 1.02882 10.4484 0.895501C10.519 0.426452 10.8362 0.166589 11.2546 0H11.7477C12.4234 0.331452 12.6204 0.649225 12.5549 1.30901C12.579 1.32571 12.6042 1.34612 12.632 1.36203C15.2733 2.87236 17.9154 4.38136 20.5545 5.89539C20.6822 5.96867 20.7655 5.95228 20.8854 5.88029C21.4052 5.56809 22.0524 5.74005 22.354 6.25789C22.6535 6.77211 22.4803 7.42571 21.9435 7.70589C21.7727 7.79503 21.7383 7.8937 21.7385 8.06456C21.743 11.0087 21.7432 13.9529 21.7382 16.897C21.7379 17.0845 21.7752 17.1942 21.9624 17.2933C22.4905 17.5726 22.6515 18.2411 22.3438 18.7487C22.0406 19.2489 21.3821 19.4215 20.8884 19.1056C20.7354 19.0076 20.641 19.0257 20.5002 19.1074C17.989 20.5648 15.476 22.0191 12.9596 23.4676C12.7214 23.6047 12.5512 23.7175 12.5467 24.0519C12.54 24.5405 12.1811 24.8204 11.7477 25ZM10.7777 23.1436C10.8426 23.1009 10.88 23.0615 10.9251 23.0491C11.1819 22.978 11.206 22.7978 11.2044 22.5664C11.1949 21.1994 11.1958 19.8323 11.2042 18.4652C11.2053 18.2721 11.1508 18.1607 10.9769 18.0617C9.52581 17.2354 8.0823 16.396 6.63158 15.5691C6.46963 15.4768 6.40558 15.3813 6.40655 15.191C6.41519 13.4985 6.40949 11.8059 6.41492 10.1134C6.41544 9.95015 6.37368 9.85126 6.2232 9.76494C4.98061 9.05214 3.74363 8.32975 2.50463 7.61081C2.27048 7.47495 1.88314 7.68796 1.88306 7.95451C1.88226 10.9653 1.88361 13.9761 1.87928 16.9869C1.87908 17.1298 1.92853 17.1934 2.05466 17.2592C2.45284 17.4667 2.6622 17.8027 2.6289 18.2534C2.61662 18.4195 2.66875 18.4959 2.80929 18.5757C4.14008 19.3313 5.46603 20.0953 6.79332 20.857C8.12044 21.6185 9.4475 22.3802 10.7777 23.1436ZM21.1198 12.4973C21.1198 11.0086 21.1201 9.51983 21.1196 8.03109C21.1195 7.73016 20.8016 7.54911 20.5358 7.69903C19.2886 8.4023 18.0441 9.11016 16.7926 9.80582C16.6313 9.89547 16.5862 9.99407 16.5868 10.1682C16.5933 11.844 16.5881 13.5199 16.5946 15.1957C16.5952 15.3702 16.5476 15.4698 16.3888 15.5602C14.9242 16.3942 13.4662 17.2397 12.0032 18.0766C11.8605 18.1582 11.7969 18.2454 11.7979 18.4185C11.8061 19.8421 11.8022 21.2658 11.8028 22.6894C11.8029 22.9954 12.1752 23.2049 12.4428 23.05C15.0208 21.5577 17.5976 20.0635 20.1788 18.5766C20.337 18.4855 20.3854 18.3873 20.3823 18.2124C20.3746 17.7881 20.5578 17.4514 20.9458 17.2591C21.0892 17.1879 21.1234 17.1097 21.1229 16.9635C21.1179 15.4748 21.1198 13.9861 21.1198 12.4973ZM20.3698 6.79555C20.4448 6.5815 20.3154 6.48713 20.1416 6.38717C17.5743 4.91073 15.0106 3.42799 12.4458 1.94708C12.1797 1.79339 11.803 2.00413 11.8028 2.30731C11.8022 3.72243 11.8067 5.13759 11.7976 6.55266C11.7963 6.74173 11.8568 6.84222 12.0195 6.93482C13.3845 7.71164 14.7457 8.49484 16.1035 9.28393C16.2421 9.36446 16.3374 9.37007 16.4786 9.28832C17.7033 8.579 18.9319 7.87646 20.1636 7.17906C20.3228 7.08893 20.4308 6.99702 20.3698 6.79555ZM11.1997 4.44146C11.1997 3.73401 11.2002 3.02656 11.1995 2.31911C11.1992 2.00025 10.8846 1.82272 10.6031 1.98299C8.00927 3.46001 5.41559 4.93734 2.82204 6.41488C2.54494 6.57275 2.53769 6.91587 2.80917 7.0743C4.06642 7.80805 5.32588 8.5381 6.57972 9.27752C6.71595 9.35786 6.80908 9.3379 6.93244 9.26637C8.291 8.47866 9.65098 7.69331 11.0147 6.91441C11.1548 6.83442 11.2055 6.74744 11.2036 6.58814C11.1947 5.87267 11.1997 5.15704 11.1997 4.44146ZM6.59876 9.9765C6.67135 10.0209 6.71928 10.0514 6.76834 10.08C8.15374 10.8882 9.53635 11.7012 10.9279 12.4989C11.1405 12.6208 11.2107 12.7527 11.2089 12.9936C11.1969 14.6047 11.2027 16.2159 11.2027 17.8271C11.2027 17.9143 11.2027 18.0015 11.2027 18.0984H11.7996C11.7996 17.9958 11.7996 17.9079 11.7996 17.8201C11.7996 16.1845 11.8024 14.5489 11.7955 12.9133C11.7947 12.7387 11.8399 12.6394 12 12.5504C12.7154 12.1527 13.4219 11.7392 14.1313 11.3309C14.8965 10.8904 15.6615 10.4495 16.4429 9.9994C16.3354 9.82267 16.2376 9.66171 16.1372 9.49664C16.0587 9.54053 16.0087 9.56781 15.9593 9.5962C14.5404 10.412 13.1203 11.2259 11.7046 12.0471C11.5605 12.1307 11.4561 12.1357 11.3091 12.0488C10.0547 11.3078 8.79485 10.5757 7.53642 9.84135C7.32683 9.71905 7.11611 9.59865 6.89814 9.47288C6.79361 9.64872 6.70278 9.80152 6.59876 9.9765Z" fill="#D9D9D9"/>
</svg>
