<svg width="33" height="26" viewBox="0 0 33 26" fill="none" xmlns="http://www.w3.org/2000/svg">
<path d="M0.0917969 4.7627C0.24664 4.52986 0.359273 4.24345 0.567987 4.07895C0.78444 3.90835 1.08786 3.79188 1.3641 3.76552C1.87323 3.71696 2.3903 3.75165 2.93882 3.75165C2.93882 3.32172 2.93765 2.92447 2.93906 2.52723C2.94242 1.57523 3.53101 0.815884 4.47807 0.706259C5.16147 0.62716 5.87021 0.640349 6.554 0.723994C7.38055 0.825093 7.96519 1.53007 8.00103 2.3584C8.0288 3.00009 8.01832 3.64382 8.01117 4.28647C8.00767 4.60168 7.80121 4.80974 7.53421 4.80587C7.2693 4.80203 7.0629 4.58578 7.05836 4.27709C7.05 3.7081 7.05809 3.1389 7.05459 2.56982C7.05098 1.98195 6.73145 1.64673 6.14399 1.6305C5.70169 1.61827 5.25856 1.619 4.81621 1.63013C4.21901 1.64516 3.88837 1.98728 3.88657 2.59083C3.88243 3.98196 3.8852 5.37311 3.88519 6.76425C3.88518 10.2105 3.88507 13.6567 3.88527 17.103C3.88532 17.9185 4.19076 18.2205 5.01508 18.2213C5.37341 18.2217 5.73182 18.2265 6.09004 18.2201C6.72713 18.2089 7.05474 17.8738 7.05496 17.2321C7.05616 13.691 7.0555 10.1499 7.0558 6.60881C7.05581 6.50348 7.04539 6.39562 7.06397 6.29332C7.11115 6.03367 7.27439 5.88163 7.53839 5.86696C7.78832 5.85306 7.99622 6.04665 8.00574 6.32264C8.02089 6.762 8.00979 7.20227 8.00979 7.65833H10.2765C10.2765 7.39779 10.303 7.12607 10.2722 6.86097C10.0793 5.19645 11.8163 4.05109 13.3067 5.09506C14.0585 4.22368 14.9416 4.07255 15.9418 4.65122C16.8771 3.33654 18.5182 3.51849 19.2392 4.7643C19.7591 4.44781 20.3095 4.34449 20.8974 4.55335C21.6677 4.82703 22.1155 5.48773 22.1318 6.38811C22.1394 6.80634 22.1331 7.22483 22.1331 7.65875H24.5481C24.5481 7.53402 24.5481 7.41196 24.5481 7.28989C24.5481 5.75121 24.5462 4.21251 24.5487 2.67383C24.5508 1.39333 25.2893 0.656749 26.5733 0.663077C27.1093 0.665721 27.6533 0.640907 28.1793 0.721957C29.0288 0.852865 29.617 1.60449 29.6246 2.46484C29.6283 2.87548 29.6252 3.28619 29.6252 3.75107C30.1483 3.75107 30.6596 3.74456 31.1706 3.75273C31.7918 3.76267 32.3056 4.17972 32.4441 4.78097C32.4698 4.89222 32.4702 5.01092 32.4702 5.12618C32.4715 8.31949 32.4722 11.5128 32.4707 14.7061C32.4703 15.5407 31.9259 16.0822 31.084 16.0894C30.6118 16.0934 30.1396 16.0901 29.6254 16.0901C29.6254 16.5119 29.6266 16.9082 29.6252 17.3046C29.6214 18.3909 28.8425 19.1701 27.7518 19.1771C27.3197 19.1798 26.8876 19.1789 26.4555 19.1773C25.3246 19.173 24.5582 18.4164 24.5509 17.2711C24.5409 15.7009 24.5482 14.1305 24.5481 12.5602C24.5481 12.4368 24.5481 12.3133 24.5481 12.1753H22.9237C22.9237 12.4242 22.9147 12.6727 22.9256 12.9203C22.9495 13.4645 22.7655 13.9289 22.4196 14.3415C22.0202 14.8177 21.6354 15.3064 21.2295 15.7769C21.0747 15.9565 21.0013 16.1384 21.0179 16.375C21.0347 16.6162 21.029 16.8599 21.0189 17.1019C21.0066 17.3934 20.8101 17.5917 20.5482 17.5961C20.2871 17.6004 20.0806 17.4027 20.0734 17.1135C20.0631 16.7028 20.0522 16.2904 20.0795 15.8812C20.0897 15.7286 20.1805 15.5625 20.2793 15.438C20.718 14.8852 21.1671 14.3403 21.6245 13.8027C21.8687 13.5158 21.9866 13.2033 21.9802 12.8224C21.9659 11.9796 21.9775 11.1363 21.9749 10.2932C21.9736 9.85116 21.8036 9.66391 21.3732 9.66193C20.0664 9.65591 18.7596 9.65939 17.4527 9.66067C17.1096 9.66101 16.8359 9.79265 16.6785 10.1094C16.5339 10.4005 16.5709 10.6835 16.7606 10.9422C16.9457 11.1947 17.2167 11.2679 17.5129 11.269C18.1452 11.2713 18.7776 11.2686 19.4099 11.2704C19.8239 11.2716 20.0185 11.4235 20.0191 11.7397C20.0198 12.0518 19.8113 12.2225 19.413 12.2199C16.6099 12.2016 13.8069 12.181 11.0038 12.1612C10.879 12.1603 10.7542 12.1611 10.6106 12.1611C10.5572 12.8157 10.5338 13.4167 11.0419 13.9372C11.4966 14.4029 11.8911 14.9297 12.2883 15.4478C12.4004 15.594 12.486 15.8043 12.4867 15.9856C12.499 18.81 12.496 21.6345 12.4944 24.4589C12.4942 24.8273 12.3147 25.0481 12.0282 25.0523C11.7313 25.0567 11.5432 24.8241 11.5431 24.441C11.5421 21.7535 11.5394 19.0661 11.5477 16.3787C11.5485 16.1288 11.4779 15.942 11.3167 15.7558C10.9307 15.3098 10.573 14.8395 10.1871 14.3935C9.80314 13.9498 9.60436 13.4517 9.63819 12.8614C9.65074 12.6425 9.64022 12.4223 9.64022 12.1816H8.01616C8.01616 12.3101 8.01616 12.4333 8.01616 12.5564C8.01615 14.0951 8.01831 15.6338 8.01545 17.1725C8.01309 18.4407 7.27698 19.1766 6.0174 19.1775C5.59584 19.1778 5.17422 19.1823 4.75274 19.1763C3.72597 19.1618 2.9449 18.3693 2.93926 17.3401C2.93707 16.9401 2.93891 16.5402 2.93891 16.0902C2.52879 16.0902 2.131 16.0652 1.73749 16.0955C0.928013 16.1578 0.378511 15.8336 0.0917969 15.0714C0.0917969 11.6352 0.0917969 8.19893 0.0917969 4.7627ZM29.6255 4.6976C29.6255 4.84695 29.6255 4.96051 29.6255 5.07405C29.6255 7.2339 29.6255 9.39375 29.6253 11.5536C29.6253 11.6484 29.6378 11.7466 29.6178 11.8373C29.5639 12.0812 29.4109 12.2241 29.1527 12.2243C28.8942 12.2245 28.7409 12.0804 28.6875 11.8372C28.6654 11.7364 28.6793 11.6273 28.6793 11.522C28.679 8.56146 28.6799 5.60088 28.6784 2.64031C28.678 1.96326 28.3502 1.63518 27.6713 1.6281C27.2605 1.62381 26.8493 1.61967 26.4387 1.62968C25.831 1.64448 25.5098 1.97484 25.5096 2.58219C25.5083 7.47082 25.5083 12.3594 25.5095 17.2481C25.5097 17.8702 25.838 18.2068 26.4583 18.2196C26.8585 18.2279 27.259 18.2241 27.6594 18.2207C28.3471 18.2148 28.6775 17.8785 28.6786 17.1825C28.6802 16.0763 28.6777 14.97 28.6799 13.8637C28.6805 13.5124 28.8502 13.3106 29.1388 13.3028C29.4399 13.2947 29.6225 13.504 29.6248 13.8676C29.6274 14.2849 29.6254 14.7023 29.6254 15.1393C30.0663 15.1393 30.4651 15.1393 30.864 15.1392C31.4448 15.1391 31.5249 15.061 31.5249 14.4923C31.525 12.2903 31.525 10.0883 31.525 7.88629C31.525 6.99075 31.5272 6.09519 31.5238 5.19965C31.5224 4.83713 31.3876 4.70182 31.0314 4.69859C30.579 4.69448 30.1266 4.6976 29.6255 4.6976ZM2.92347 4.69752C2.49028 4.69752 2.07171 4.69723 1.65313 4.6976C1.14469 4.69806 1.0395 4.80067 1.03945 5.30046C1.03912 8.37788 1.03925 11.4553 1.03945 14.5327C1.03945 14.617 1.01235 14.7188 1.04961 14.7819C1.12425 14.9082 1.22895 15.1055 1.33138 15.1119C1.86115 15.1451 2.3941 15.1273 2.92347 15.1273V4.69752ZM15.7898 9.73217C15.3851 9.77971 14.9646 9.91055 14.5723 9.85227C14.1794 9.79391 13.8146 9.54661 13.4095 9.36987C12.3474 10.2655 11.1719 10.0454 10.4122 8.76142C10.3771 8.702 10.2925 8.63485 10.2302 8.63408C9.5066 8.62519 8.78283 8.6284 8.03888 8.6284V11.2013H15.7595C15.5936 10.3567 15.5966 10.2679 15.7898 9.73217ZM18.4398 6.81531C18.4393 6.81531 18.4388 6.81531 18.4383 6.81531C18.4383 6.39483 18.4465 5.97414 18.4359 5.55392C18.4261 5.16719 18.2212 4.8995 17.866 4.76288C17.2673 4.53256 16.696 4.95635 16.681 5.65713C16.6643 6.43467 16.6758 7.21286 16.6787 7.99076C16.6791 8.08425 16.6956 8.17945 16.7176 8.27077C16.803 8.62653 16.9385 8.7202 17.3024 8.69811C17.4596 8.68857 17.6177 8.69306 17.7753 8.69286C18.2648 8.69224 18.4302 8.53595 18.4384 8.04522C18.4452 7.63535 18.4398 7.22528 18.4398 6.81531ZM15.7172 7.10369C15.7172 6.77773 15.7254 6.45153 15.7153 6.12588C15.7011 5.67048 15.349 5.30456 14.9063 5.26847C14.4621 5.23225 14.02 5.53414 13.9913 5.99557C13.9456 6.72735 13.9455 7.46601 13.9899 8.1979C14.0178 8.65864 14.4655 8.97103 14.8995 8.93391C15.3589 8.89462 15.7049 8.52534 15.7163 8.04999C15.7239 7.73473 15.7178 7.41913 15.7172 7.10369ZM21.1601 7.17106C21.1601 6.86559 21.1601 6.56011 21.1599 6.25464C21.1599 6.23359 21.1589 6.21247 21.1569 6.19151C21.1172 5.7742 20.7704 5.43961 20.3412 5.40427C19.9473 5.37183 19.4792 5.6647 19.4548 6.05639C19.4092 6.78933 19.4189 7.52775 19.4478 8.26224C19.4588 8.5437 19.6381 8.7414 19.9817 8.69698C20.1682 8.67286 20.3603 8.6928 20.5499 8.69266C20.9714 8.69233 21.1368 8.54528 21.1568 8.11895C21.1715 7.80364 21.1597 7.48706 21.1601 7.17106ZM12.9959 7.2899C12.9959 7.02714 13.0052 6.76397 12.9938 6.5017C12.9742 6.04728 12.6215 5.68576 12.1776 5.64927C11.75 5.61411 11.3102 5.90325 11.2729 6.35046C11.2208 6.97464 11.2213 7.60973 11.2737 8.23388C11.3111 8.67894 11.7582 8.9725 12.1801 8.93378C12.6264 8.89284 12.9746 8.53332 12.9939 8.07811C13.005 7.81581 12.9959 7.55267 12.9959 7.2899ZM21.9676 8.78926C23.1261 9.26871 22.9079 10.2781 22.9263 11.1957H24.5171V8.64703C23.3797 8.55208 22.1382 8.6085 21.9676 8.78926Z" fill="#B9B9B9"/>
</svg>
