<svg width="21" height="24" viewBox="0 0 21 24" fill="none" xmlns="http://www.w3.org/2000/svg">
<path d="M7.63077 6.26324C7.20724 5.02372 7.27713 3.71654 7.47277 2.44114C7.68899 1.03165 9.01714 0.0183807 10.4353 0.00447662C10.8646 0.000270605 11.2942 -0.00362971 11.7234 0.00592078C12.1217 0.0147861 12.362 0.244209 12.3636 0.642335C12.3698 2.18133 12.3786 3.72066 12.351 5.25921C12.3449 5.60124 12.1942 5.94063 12.1005 6.3196C12.5681 6.20396 12.8682 6.53329 13.1984 6.80113C13.9287 7.39365 14.6521 7.99572 15.3995 8.5655C15.5641 8.69101 15.8239 8.76883 16.0277 8.74773C16.7893 8.66883 17.5466 8.54448 18.3042 8.42834C19.3632 8.26599 20.3446 8.95781 20.4807 9.9704C20.6305 11.0846 19.8915 12.0234 18.7822 12.1545C17.5954 12.2949 16.4127 12.4729 15.2242 12.5925C14.9377 12.6213 14.6097 12.538 14.3451 12.4116C13.8939 12.1959 13.4777 11.9052 12.9924 11.6133C12.9924 12.0467 12.9732 12.4127 13.0039 12.7744C13.0133 12.885 13.1414 13.0116 13.2467 13.0835C14.2481 13.7677 15.253 14.4468 16.2648 15.1152C16.5558 15.3074 16.7287 15.5317 16.7647 15.9011C16.8972 17.2604 17.0652 18.6162 17.2021 19.9751C17.2324 20.2761 17.332 20.4553 17.61 20.6106C18.6316 21.1811 19.1817 22.0759 19.2342 23.2605C19.2561 23.7561 19.0191 23.9956 18.5362 23.997C17.131 24.0012 15.7258 24.0008 14.3205 23.9971C13.8855 23.996 13.6259 23.7587 13.6204 23.3784C13.6147 22.9805 13.8781 22.7408 14.3393 22.7395C15.4951 22.7364 16.6509 22.7385 17.8118 22.7385C17.6717 22.0369 16.9576 21.5037 16.1173 21.4778C15.5323 21.4597 14.9464 21.475 14.3609 21.4718C13.8877 21.4692 13.6956 21.3179 13.6144 20.8538C13.4313 19.807 13.2626 18.7577 13.0761 17.7115C13.0564 17.6007 12.9825 17.4583 12.8919 17.4087C12.4139 17.1474 11.9224 16.9111 11.4024 16.6493C10.9357 17.5928 10.4418 18.5006 10.0349 19.4468C9.77793 20.0444 9.37565 20.2413 8.77598 20.2878C7.33805 20.3994 5.90396 20.5609 4.46747 20.6928C4.17533 20.7197 3.99707 20.8233 3.84153 21.1067C3.28341 22.1238 2.40533 22.6732 1.24999 22.7307C0.735695 22.7564 0.503582 22.519 0.502414 22.0057C0.499213 20.5982 0.499171 19.1907 0.502435 17.7832C0.503635 17.269 0.726204 17.0293 1.25042 17.0605C2.82274 17.1541 4.35527 16.9094 5.88555 16.587C6.22459 16.5155 6.23543 16.2977 6.27503 16.0589C6.42311 15.166 6.55838 14.2708 6.71465 13.3793C6.82529 12.7481 6.97337 12.6344 7.59396 12.6342C8.95888 12.6337 10.3238 12.634 11.7453 12.634C11.7453 11.9896 11.7503 11.364 11.7432 10.7386C11.7397 10.4276 11.7388 10.1234 12.0498 9.94421C12.3702 9.75962 12.6453 9.90101 12.9211 10.0728C13.4409 10.3966 13.9996 10.6672 14.4815 11.0401C15.0343 11.468 15.6005 11.2488 16.1632 11.1949C16.9645 11.1183 17.7616 10.9966 18.5608 10.8966C18.9913 10.8427 19.2652 10.5738 19.2344 10.2287C19.2021 9.8679 18.9108 9.64759 18.4667 9.70282C17.6034 9.81018 16.7414 9.93219 15.8826 10.0714C15.5122 10.1314 15.2092 10.0812 14.9084 9.82822C14.0687 9.1221 13.2115 8.43681 12.3493 7.75874C12.2192 7.65642 12.026 7.5881 11.8612 7.58654C10.4561 7.5732 9.04838 7.52847 7.64643 7.59703C6.74453 7.64115 5.85503 7.9089 4.95243 7.98512C4.25533 8.04399 3.93642 8.36044 3.74555 9.02451C3.48925 9.91616 3.11412 10.7731 2.78552 11.6432C2.67824 11.9272 2.64462 12.1974 2.96467 12.3511C3.29077 12.5077 3.46823 12.2889 3.6182 12.0348C4.03771 11.3242 4.46544 10.6184 4.8775 9.90338C5.05317 9.59857 5.28741 9.46006 5.64116 9.47156C6.20007 9.48974 6.76006 9.47113 7.31946 9.47827C7.76166 9.48391 7.98203 9.71339 7.99353 10.1626C7.99791 10.3335 7.9913 10.5047 7.99489 10.6756C8.00261 11.0427 7.83594 11.2913 7.47985 11.356C7.12252 11.4208 6.88207 11.2403 6.76103 10.8977C6.74439 10.8506 6.73287 10.8017 6.72088 10.7601C6.68119 10.7511 6.65613 10.7448 6.63081 10.7398C6.07783 10.6308 5.71555 10.8173 5.47265 11.363C5.25023 11.8626 4.92821 12.3178 4.64036 12.7865C4.13319 13.6123 3.23196 13.9023 2.41625 13.5106C1.58813 13.113 1.24268 12.2109 1.5812 11.2797C2.03768 10.024 2.51411 8.77578 2.96926 7.51964C3.09373 7.17612 3.29276 6.98732 3.66312 6.92894C4.99364 6.7192 6.3204 6.4851 7.63077 6.26324ZM15.9612 20.1979C15.8268 18.932 15.6966 17.705 15.5662 16.4781C15.562 16.4389 15.569 16.3913 15.5496 16.3621C15.4672 16.2384 15.3997 16.0877 15.2854 16.0056C14.809 15.6628 14.2803 15.3853 13.8393 15.003C12.773 14.0788 11.5765 13.7218 10.1799 13.8793C9.43814 13.9629 8.67955 13.8941 7.9078 13.8941C7.74816 14.8753 7.5886 15.819 7.44265 16.7649C7.32551 17.524 7.22557 17.6281 6.47966 17.7627C5.80269 17.8849 5.12756 18.0187 4.45518 18.1642C4.37443 18.1817 4.26172 18.3009 4.25662 18.3792C4.23463 18.7168 4.24722 19.0566 4.24722 19.4217C4.37261 19.4217 4.461 19.4293 4.54778 19.4206C5.89278 19.2857 7.2385 19.1568 8.58104 19.0002C8.7228 18.9837 8.8983 18.8288 8.9688 18.6913C9.49456 17.6658 9.99405 16.6265 10.5098 15.5957C10.7293 15.157 11.0457 15.0458 11.4753 15.2579C12.257 15.6436 13.0436 16.0221 13.8033 16.4487C13.999 16.5586 14.1684 16.817 14.2339 17.0417C14.3579 17.4668 14.398 17.9169 14.4725 18.3567C14.5768 18.972 14.6806 19.5873 14.7837 20.1979L15.9612 20.1979ZM8.62345 3.80522C8.62345 4.27034 8.59967 4.70274 8.62898 5.13142C8.67373 5.78558 9.19782 6.28553 9.82493 6.3156C10.4372 6.34496 11.0203 5.87519 11.0942 5.22077C11.1463 4.75953 11.1043 4.28744 11.1043 3.80523L8.62345 3.80522ZM1.78156 18.3237V21.3196C2.96785 20.8463 3.13379 19.7661 2.93967 18.3237H1.78156ZM8.78877 2.50233H11.0902V1.2797C9.82578 1.20653 9.0572 1.61507 8.78877 2.50233Z" fill="#D9D9D9"/>
</svg>
