<svg width="37" height="17" viewBox="0 0 37 17" fill="none" xmlns="http://www.w3.org/2000/svg">
<path d="M36.6652 12.3643C36.3479 13.2843 35.6856 13.6501 34.7371 13.5963C34.2573 13.5691 33.7744 13.6017 33.2935 13.587C33.0813 13.5806 32.988 13.6487 32.9321 13.8583C32.5088 15.4444 31.2211 16.4556 29.6355 16.4625C28.04 16.4694 26.7321 15.4528 26.3139 13.8488C26.2394 13.5632 26.0703 13.591 25.8713 13.591C21.422 13.5917 16.9727 13.5916 12.5234 13.5916C11.7849 13.5916 11.0464 13.5916 10.4218 13.5916C10.0797 14.2038 9.84605 14.8041 9.45861 15.2789C8.53932 16.4054 7.05275 16.7499 5.69565 16.2457C4.37244 15.754 3.49699 14.5075 3.49345 13.0726C3.49285 12.8272 3.40678 12.725 3.19285 12.6395C2.64937 12.4223 2.11423 12.1839 1.57923 11.9461C0.922507 11.6543 0.593535 11.1492 0.596208 10.4248C0.600706 9.20386 0.595605 7.98292 0.598099 6.76201C0.599746 5.95584 1.09585 5.34966 1.88006 5.18509C2.59026 5.03605 3.29941 4.88184 4.01073 4.73832C4.77821 4.58348 5.48079 4.28368 6.14496 3.86844C7.41746 3.07285 8.70589 2.3028 9.98189 1.51275C10.6073 1.12551 11.2758 0.932912 12.014 0.935171C14.6671 0.943284 17.3203 0.942898 19.9734 0.935152C20.6476 0.933185 21.2662 1.0978 21.8575 1.4152C24.5003 2.83385 27.151 4.23793 29.7884 5.66657C30.2755 5.93041 30.8015 5.92343 31.3131 6.02518C31.5769 6.07767 31.8486 6.09328 32.1102 6.15379C32.4348 6.22884 32.5959 6.48606 32.5307 6.77524C32.4652 7.06552 32.2056 7.25771 31.8956 7.1934C30.3892 6.88098 28.8643 6.91909 27.3395 6.92063C22.4207 6.92558 17.5018 6.9189 12.5829 6.9252C11.472 6.92663 10.4869 6.61378 9.63243 5.89016C9.03252 5.38213 8.41278 4.89757 7.80455 4.39929C7.68031 4.29752 7.57472 4.21164 7.40856 4.34037C5.96843 5.45598 4.252 5.83376 2.51629 6.14647C1.72727 6.28861 1.56406 6.33846 1.6904 7.44035C2.04545 7.44035 2.40608 7.43685 2.76661 7.44127C3.17949 7.44634 3.41004 7.63896 3.41441 7.9729C3.41888 8.31464 3.20532 8.5052 2.78104 8.51641C2.41941 8.52598 2.05732 8.51839 1.65911 8.51839C1.65911 9.21707 1.63953 9.88255 1.67445 10.5452C1.6821 10.6902 1.85571 10.8831 2.00151 10.9541C2.55872 11.2255 3.13578 11.4562 3.73367 11.7144C3.79747 11.5994 3.85443 11.4891 3.9184 11.3831C4.0941 11.0919 4.40259 10.9919 4.6663 11.1376C4.91737 11.2762 5.01311 11.575 4.86758 11.8686C4.61643 12.3755 4.4835 12.8908 4.59165 13.4631C4.82362 14.6904 5.95703 15.543 7.17626 15.3886C8.39162 15.2348 9.33518 14.1179 9.24321 12.942C9.13978 11.6196 8.10391 10.6737 6.80906 10.7209C6.66836 10.7261 6.52814 10.7445 6.38745 10.749C6.03948 10.7602 5.82578 10.5916 5.79533 10.2876C5.76522 9.98696 5.9489 9.75786 6.27014 9.69543C7.95907 9.36719 9.67033 10.4083 10.1673 12.0679C10.2074 12.2018 10.2376 12.3386 10.2772 12.493H26.2402C26.4395 11.5369 26.9195 10.7565 27.741 10.2069C28.3227 9.81776 28.9709 9.62679 29.6666 9.63441C31.2674 9.65194 32.3522 10.5805 33.0272 12.5097C33.7283 12.5097 34.4416 12.5168 35.1546 12.506C35.4152 12.502 35.5847 12.3186 35.5926 12.0804C35.6155 11.3921 35.6007 10.7025 35.6007 9.97625C35.2814 9.97625 34.9908 9.98148 34.7005 9.97493C34.3304 9.96659 34.1246 9.77917 34.1201 9.45943C34.1154 9.13108 34.338 8.92499 34.7162 8.91718C34.9841 8.91164 35.2522 8.9161 35.5615 8.9161C35.4166 8.30427 35.088 7.89584 34.5564 7.64764C34.4615 7.60329 34.3572 7.57931 34.2594 7.54043C33.9485 7.41686 33.7943 7.15163 33.874 6.8828C33.9612 6.58835 34.2366 6.42952 34.5742 6.524C35.5347 6.79277 36.1788 7.41082 36.5196 8.34635C36.5709 8.48705 36.6168 8.6297 36.6652 8.77144L36.6652 12.3643ZM12.998 2.01837V5.81327H18.533V2.01837H12.998ZM27.6738 5.81747C27.6788 5.79579 27.6838 5.77412 27.6888 5.75243C27.5358 5.66923 27.3834 5.58508 27.2299 5.50297C25.2681 4.45388 23.3054 3.40656 21.3449 2.35527C20.8061 2.06638 20.2448 1.9328 19.644 2.03203V5.81747H27.6738ZM31.9583 13.0683C31.9623 11.7532 30.9381 10.7203 29.6269 10.717C28.3324 10.7137 27.2946 11.7363 27.2858 13.0237C27.2768 14.3345 28.3076 15.392 29.6 15.398C30.9086 15.4041 31.9543 14.371 31.9583 13.0683ZM8.50396 3.63975C9.68553 4.39082 10.4621 5.55279 11.8607 5.80692V1.97623C10.5571 2.13978 9.68796 3.07565 8.50396 3.63975Z" fill="#B9B9B9"/>
</svg>
