<svg width="21" height="21" viewBox="0 0 21 21" fill="none" xmlns="http://www.w3.org/2000/svg">
<path d="M10.5921 0.139689C9.05995 0.136917 7.54769 0.486228 6.17201 1.16066C4.79632 1.83509 3.594 2.81661 2.65784 4.02945C1.72168 5.24229 1.07673 6.65403 0.772761 8.15568C0.468791 9.65734 0.513934 11.2088 0.904705 12.6902C1.29548 14.1717 2.02143 15.5435 3.02652 16.6998C4.03161 17.8562 5.28897 18.7662 6.70155 19.3595C8.11412 19.9528 9.64414 20.2135 11.1735 20.1217C12.7029 20.0298 14.1907 19.5878 15.5221 18.8297H15.5921H15.6421C17.5673 17.7337 19.0742 16.0294 19.926 13.9844C20.7779 11.9394 20.9265 9.66938 20.3487 7.53072C19.7708 5.39206 18.4991 3.50582 16.7333 2.1681C14.9674 0.830383 12.8073 0.116913 10.5921 0.139689ZM11.5921 2.20969C13.3521 2.43288 14.988 3.23478 16.2425 4.48927C17.497 5.74376 18.2989 7.37967 18.5221 9.13969H11.5921V2.20969ZM10.5921 18.1397C8.56657 18.1259 6.62173 17.3442 5.15 15.9525C3.67828 14.5608 2.78927 12.6626 2.66237 10.6411C2.53546 8.61952 3.18012 6.62508 4.46625 5.06025C5.75237 3.49542 7.5842 2.4767 9.59207 2.20969V10.1397C9.59601 10.2594 9.61966 10.3777 9.66207 10.4897V10.5697V10.6397L13.6621 17.5097C12.6918 17.925 11.6475 18.1393 10.5921 18.1397ZM15.4221 16.4997L12.3221 11.1397H18.5221C18.3874 12.1943 18.0439 13.2115 17.5117 14.1318C16.9794 15.0521 16.269 15.8571 15.4221 16.4997Z" fill="#E0E0E0"/>
</svg>
